<svg version="1.1" xmlns="http://www.w3.org/2000/svg" xmlns:xlink="http://www.w3.org/1999/xlink" x="0px" y="0px" width="100%" height="100%" viewBox="0 0 60 200" style="enable-background:new 0 0 60 200;" xml:space="preserve">
<style type="text/css">
	.st0{fill:#FFFFFF;}
	.st1{fill:#3E3A39;}
	.st2{fill:none;stroke:#3E3A39;stroke-miterlimit:10;}
@-webkit-keyframes animate-svg-stroke-1{0%{stroke-dashoffset:503.79998779296875px;stroke-dasharray:503.79998779296875px}100%{stroke-dashoffset:0;stroke-dasharray:503.79998779296875px}}@keyframes animate-svg-stroke-1{0%{stroke-dashoffset:503.79998779296875px;stroke-dasharray:503.79998779296875px}100%{stroke-dashoffset:0;stroke-dasharray:503.79998779296875px}}@-webkit-keyframes animate-svg-fill-1{0%{fill:transparent}100%{fill:rgb(255,255,255)}}@keyframes animate-svg-fill-1{0%{fill:transparent}100%{fill:rgb(255,255,255)}}.svg-elem-1{-webkit-animation:animate-svg-stroke-1 1s cubic-bezier(0.47,0,0.745,0.715) 0s both,animate-svg-fill-1 0.7s cubic-bezier(0.47,0,0.745,0.715) 0.8s both;animation:animate-svg-stroke-1 1s cubic-bezier(0.47,0,0.745,0.715) 0s both,animate-svg-fill-1 0.7s cubic-bezier(0.47,0,0.745,0.715) 0.8s both}@-webkit-keyframes animate-svg-stroke-2{0%{stroke-dashoffset:52.74939727783203px;stroke-dasharray:52.74939727783203px}100%{stroke-dashoffset:0;stroke-dasharray:52.74939727783203px}}@keyframes animate-svg-stroke-2{0%{stroke-dashoffset:52.74939727783203px;stroke-dasharray:52.74939727783203px}100%{stroke-dashoffset:0;stroke-dasharray:52.74939727783203px}}@-webkit-keyframes animate-svg-fill-2{0%{fill:transparent}100%{fill:rgb(62,58,57)}}@keyframes animate-svg-fill-2{0%{fill:transparent}100%{fill:rgb(62,58,57)}}.svg-elem-2{-webkit-animation:animate-svg-stroke-2 1s cubic-bezier(0.47,0,0.745,0.715) 0.12s both,animate-svg-fill-2 0.7s cubic-bezier(0.47,0,0.745,0.715) 0.9s both;animation:animate-svg-stroke-2 1s cubic-bezier(0.47,0,0.745,0.715) 0.12s both,animate-svg-fill-2 0.7s cubic-bezier(0.47,0,0.745,0.715) 0.9s both}@-webkit-keyframes animate-svg-stroke-3{0%{stroke-dashoffset:35.779727935791016px;stroke-dasharray:35.779727935791016px}100%{stroke-dashoffset:0;stroke-dasharray:35.779727935791016px}}@keyframes animate-svg-stroke-3{0%{stroke-dashoffset:35.779727935791016px;stroke-dasharray:35.779727935791016px}100%{stroke-dashoffset:0;stroke-dasharray:35.779727935791016px}}@-webkit-keyframes animate-svg-fill-3{0%{fill:transparent}100%{fill:rgb(62,58,57)}}@keyframes animate-svg-fill-3{0%{fill:transparent}100%{fill:rgb(62,58,57)}}.svg-elem-3{-webkit-animation:animate-svg-stroke-3 1s cubic-bezier(0.47,0,0.745,0.715) 0.24s both,animate-svg-fill-3 0.7s cubic-bezier(0.47,0,0.745,0.715) 1s both;animation:animate-svg-stroke-3 1s cubic-bezier(0.47,0,0.745,0.715) 0.24s both,animate-svg-fill-3 0.7s cubic-bezier(0.47,0,0.745,0.715) 1s both}@-webkit-keyframes animate-svg-stroke-4{0%{stroke-dashoffset:34.55978012084961px;stroke-dasharray:34.55978012084961px}100%{stroke-dashoffset:0;stroke-dasharray:34.55978012084961px}}@keyframes animate-svg-stroke-4{0%{stroke-dashoffset:34.55978012084961px;stroke-dasharray:34.55978012084961px}100%{stroke-dashoffset:0;stroke-dasharray:34.55978012084961px}}@-webkit-keyframes animate-svg-fill-4{0%{fill:transparent}100%{fill:rgb(62,58,57)}}@keyframes animate-svg-fill-4{0%{fill:transparent}100%{fill:rgb(62,58,57)}}.svg-elem-4{-webkit-animation:animate-svg-stroke-4 1s cubic-bezier(0.47,0,0.745,0.715) 0.36s both,animate-svg-fill-4 0.7s cubic-bezier(0.47,0,0.745,0.715) 1.1s both;animation:animate-svg-stroke-4 1s cubic-bezier(0.47,0,0.745,0.715) 0.36s both,animate-svg-fill-4 0.7s cubic-bezier(0.47,0,0.745,0.715) 1.1s both}@-webkit-keyframes animate-svg-stroke-5{0%{stroke-dashoffset:51.677303314208984px;stroke-dasharray:51.677303314208984px}100%{stroke-dashoffset:0;stroke-dasharray:51.677303314208984px}}@keyframes animate-svg-stroke-5{0%{stroke-dashoffset:51.677303314208984px;stroke-dasharray:51.677303314208984px}100%{stroke-dashoffset:0;stroke-dasharray:51.677303314208984px}}@-webkit-keyframes animate-svg-fill-5{0%{fill:transparent}100%{fill:rgb(62,58,57)}}@keyframes animate-svg-fill-5{0%{fill:transparent}100%{fill:rgb(62,58,57)}}.svg-elem-5{-webkit-animation:animate-svg-stroke-5 1s cubic-bezier(0.47,0,0.745,0.715) 0.48s both,animate-svg-fill-5 0.7s cubic-bezier(0.47,0,0.745,0.715) 1.2000000000000002s both;animation:animate-svg-stroke-5 1s cubic-bezier(0.47,0,0.745,0.715) 0.48s both,animate-svg-fill-5 0.7s cubic-bezier(0.47,0,0.745,0.715) 1.2000000000000002s both}@-webkit-keyframes animate-svg-stroke-6{0%{stroke-dashoffset:68.82916259765625px;stroke-dasharray:68.82916259765625px}100%{stroke-dashoffset:0;stroke-dasharray:68.82916259765625px}}@keyframes animate-svg-stroke-6{0%{stroke-dashoffset:68.82916259765625px;stroke-dasharray:68.82916259765625px}100%{stroke-dashoffset:0;stroke-dasharray:68.82916259765625px}}@-webkit-keyframes animate-svg-fill-6{0%{fill:transparent}100%{fill:rgb(62,58,57)}}@keyframes animate-svg-fill-6{0%{fill:transparent}100%{fill:rgb(62,58,57)}}.svg-elem-6{-webkit-animation:animate-svg-stroke-6 1s cubic-bezier(0.47,0,0.745,0.715) 0.6s both,animate-svg-fill-6 0.7s cubic-bezier(0.47,0,0.745,0.715) 1.3s both;animation:animate-svg-stroke-6 1s cubic-bezier(0.47,0,0.745,0.715) 0.6s both,animate-svg-fill-6 0.7s cubic-bezier(0.47,0,0.745,0.715) 1.3s both}@-webkit-keyframes animate-svg-stroke-7{0%{stroke-dashoffset:23.467803955078125px;stroke-dasharray:23.467803955078125px}100%{stroke-dashoffset:0;stroke-dasharray:23.467803955078125px}}@keyframes animate-svg-stroke-7{0%{stroke-dashoffset:23.467803955078125px;stroke-dasharray:23.467803955078125px}100%{stroke-dashoffset:0;stroke-dasharray:23.467803955078125px}}@-webkit-keyframes animate-svg-fill-7{0%{fill:transparent}100%{fill:rgb(62,58,57)}}@keyframes animate-svg-fill-7{0%{fill:transparent}100%{fill:rgb(62,58,57)}}.svg-elem-7{-webkit-animation:animate-svg-stroke-7 1s cubic-bezier(0.47,0,0.745,0.715) 0.72s both,animate-svg-fill-7 0.7s cubic-bezier(0.47,0,0.745,0.715) 1.4000000000000001s both;animation:animate-svg-stroke-7 1s cubic-bezier(0.47,0,0.745,0.715) 0.72s both,animate-svg-fill-7 0.7s cubic-bezier(0.47,0,0.745,0.715) 1.4000000000000001s both}@-webkit-keyframes animate-svg-stroke-8{0%{stroke-dashoffset:48.10436248779297px;stroke-dasharray:48.10436248779297px}100%{stroke-dashoffset:0;stroke-dasharray:48.10436248779297px}}@keyframes animate-svg-stroke-8{0%{stroke-dashoffset:48.10436248779297px;stroke-dasharray:48.10436248779297px}100%{stroke-dashoffset:0;stroke-dasharray:48.10436248779297px}}@-webkit-keyframes animate-svg-fill-8{0%{fill:transparent}100%{fill:rgb(62,58,57)}}@keyframes animate-svg-fill-8{0%{fill:transparent}100%{fill:rgb(62,58,57)}}.svg-elem-8{-webkit-animation:animate-svg-stroke-8 1s cubic-bezier(0.47,0,0.745,0.715) 0.84s both,animate-svg-fill-8 0.7s cubic-bezier(0.47,0,0.745,0.715) 1.5s both;animation:animate-svg-stroke-8 1s cubic-bezier(0.47,0,0.745,0.715) 0.84s both,animate-svg-fill-8 0.7s cubic-bezier(0.47,0,0.745,0.715) 1.5s both}@-webkit-keyframes animate-svg-stroke-9{0%{stroke-dashoffset:57.8087043762207px;stroke-dasharray:57.8087043762207px}100%{stroke-dashoffset:0;stroke-dasharray:57.8087043762207px}}@keyframes animate-svg-stroke-9{0%{stroke-dashoffset:57.8087043762207px;stroke-dasharray:57.8087043762207px}100%{stroke-dashoffset:0;stroke-dasharray:57.8087043762207px}}@-webkit-keyframes animate-svg-fill-9{0%{fill:transparent}100%{fill:rgb(62,58,57)}}@keyframes animate-svg-fill-9{0%{fill:transparent}100%{fill:rgb(62,58,57)}}.svg-elem-9{-webkit-animation:animate-svg-stroke-9 1s cubic-bezier(0.47,0,0.745,0.715) 0.96s both,animate-svg-fill-9 0.7s cubic-bezier(0.47,0,0.745,0.715) 1.6s both;animation:animate-svg-stroke-9 1s cubic-bezier(0.47,0,0.745,0.715) 0.96s both,animate-svg-fill-9 0.7s cubic-bezier(0.47,0,0.745,0.715) 1.6s both}@-webkit-keyframes animate-svg-stroke-10{0%{stroke-dashoffset:115.01666259765625px;stroke-dasharray:115.01666259765625px}100%{stroke-dashoffset:0;stroke-dasharray:115.01666259765625px}}@keyframes animate-svg-stroke-10{0%{stroke-dashoffset:115.01666259765625px;stroke-dasharray:115.01666259765625px}100%{stroke-dashoffset:0;stroke-dasharray:115.01666259765625px}}@-webkit-keyframes animate-svg-fill-10{0%{fill:transparent}100%{fill:rgb(62,58,57)}}@keyframes animate-svg-fill-10{0%{fill:transparent}100%{fill:rgb(62,58,57)}}.svg-elem-10{-webkit-animation:animate-svg-stroke-10 1s cubic-bezier(0.47,0,0.745,0.715) 1.08s both,animate-svg-fill-10 0.7s cubic-bezier(0.47,0,0.745,0.715) 1.7000000000000002s both;animation:animate-svg-stroke-10 1s cubic-bezier(0.47,0,0.745,0.715) 1.08s both,animate-svg-fill-10 0.7s cubic-bezier(0.47,0,0.745,0.715) 1.7000000000000002s both}@-webkit-keyframes animate-svg-stroke-11{0%{stroke-dashoffset:127.5px;stroke-dasharray:127.5px}100%{stroke-dashoffset:0;stroke-dasharray:127.5px}}@keyframes animate-svg-stroke-11{0%{stroke-dashoffset:127.5px;stroke-dasharray:127.5px}100%{stroke-dashoffset:0;stroke-dasharray:127.5px}}.svg-elem-11{-webkit-animation:animate-svg-stroke-11 1s cubic-bezier(0.47,0,0.745,0.715) 1.2s both,animate-svg-fill-11 0.7s cubic-bezier(0.47,0,0.745,0.715) 1.8s both;animation:animate-svg-stroke-11 1s cubic-bezier(0.47,0,0.745,0.715) 1.2s both,animate-svg-fill-11 0.7s cubic-bezier(0.47,0,0.745,0.715) 1.8s both}@-webkit-keyframes animate-svg-stroke-12{0%{stroke-dashoffset:127.69999694824219px;stroke-dasharray:127.69999694824219px}100%{stroke-dashoffset:0;stroke-dasharray:127.69999694824219px}}@keyframes animate-svg-stroke-12{0%{stroke-dashoffset:127.69999694824219px;stroke-dasharray:127.69999694824219px}100%{stroke-dashoffset:0;stroke-dasharray:127.69999694824219px}}.svg-elem-12{-webkit-animation:animate-svg-stroke-12 1s cubic-bezier(0.47,0,0.745,0.715) 1.3199999999999998s both,animate-svg-fill-12 0.7s cubic-bezier(0.47,0,0.745,0.715) 1.9000000000000001s both;animation:animate-svg-stroke-12 1s cubic-bezier(0.47,0,0.745,0.715) 1.3199999999999998s both,animate-svg-fill-12 0.7s cubic-bezier(0.47,0,0.745,0.715) 1.9000000000000001s both}@-webkit-keyframes animate-svg-stroke-13{0%{stroke-dashoffset:49.96410369873047px;stroke-dasharray:49.96410369873047px}100%{stroke-dashoffset:0;stroke-dasharray:49.96410369873047px}}@keyframes animate-svg-stroke-13{0%{stroke-dashoffset:49.96410369873047px;stroke-dasharray:49.96410369873047px}100%{stroke-dashoffset:0;stroke-dasharray:49.96410369873047px}}@-webkit-keyframes animate-svg-fill-13{0%{fill:transparent}100%{fill:rgb(62,58,57)}}@keyframes animate-svg-fill-13{0%{fill:transparent}100%{fill:rgb(62,58,57)}}.svg-elem-13{-webkit-animation:animate-svg-stroke-13 1s cubic-bezier(0.47,0,0.745,0.715) 1.44s both,animate-svg-fill-13 0.7s cubic-bezier(0.47,0,0.745,0.715) 2s both;animation:animate-svg-stroke-13 1s cubic-bezier(0.47,0,0.745,0.715) 1.44s both,animate-svg-fill-13 0.7s cubic-bezier(0.47,0,0.745,0.715) 2s both}@-webkit-keyframes animate-svg-stroke-14{0%{stroke-dashoffset:74.86634826660156px;stroke-dasharray:74.86634826660156px}100%{stroke-dashoffset:0;stroke-dasharray:74.86634826660156px}}@keyframes animate-svg-stroke-14{0%{stroke-dashoffset:74.86634826660156px;stroke-dasharray:74.86634826660156px}100%{stroke-dashoffset:0;stroke-dasharray:74.86634826660156px}}@-webkit-keyframes animate-svg-fill-14{0%{fill:transparent}100%{fill:rgb(62,58,57)}}@keyframes animate-svg-fill-14{0%{fill:transparent}100%{fill:rgb(62,58,57)}}.svg-elem-14{-webkit-animation:animate-svg-stroke-14 1s cubic-bezier(0.47,0,0.745,0.715) 1.56s both,animate-svg-fill-14 0.7s cubic-bezier(0.47,0,0.745,0.715) 2.1s both;animation:animate-svg-stroke-14 1s cubic-bezier(0.47,0,0.745,0.715) 1.56s both,animate-svg-fill-14 0.7s cubic-bezier(0.47,0,0.745,0.715) 2.1s both}@-webkit-keyframes animate-svg-stroke-15{0%{stroke-dashoffset:62.635650634765625px;stroke-dasharray:62.635650634765625px}100%{stroke-dashoffset:0;stroke-dasharray:62.635650634765625px}}@keyframes animate-svg-stroke-15{0%{stroke-dashoffset:62.635650634765625px;stroke-dasharray:62.635650634765625px}100%{stroke-dashoffset:0;stroke-dasharray:62.635650634765625px}}@-webkit-keyframes animate-svg-fill-15{0%{fill:transparent}100%{fill:rgb(62,58,57)}}@keyframes animate-svg-fill-15{0%{fill:transparent}100%{fill:rgb(62,58,57)}}.svg-elem-15{-webkit-animation:animate-svg-stroke-15 1s cubic-bezier(0.47,0,0.745,0.715) 1.68s both,animate-svg-fill-15 0.7s cubic-bezier(0.47,0,0.745,0.715) 2.2s both;animation:animate-svg-stroke-15 1s cubic-bezier(0.47,0,0.745,0.715) 1.68s both,animate-svg-fill-15 0.7s cubic-bezier(0.47,0,0.745,0.715) 2.2s both}@-webkit-keyframes animate-svg-stroke-16{0%{stroke-dashoffset:49.99607849121094px;stroke-dasharray:49.99607849121094px}100%{stroke-dashoffset:0;stroke-dasharray:49.99607849121094px}}@keyframes animate-svg-stroke-16{0%{stroke-dashoffset:49.99607849121094px;stroke-dasharray:49.99607849121094px}100%{stroke-dashoffset:0;stroke-dasharray:49.99607849121094px}}@-webkit-keyframes animate-svg-fill-16{0%{fill:transparent}100%{fill:rgb(62,58,57)}}@keyframes animate-svg-fill-16{0%{fill:transparent}100%{fill:rgb(62,58,57)}}.svg-elem-16{-webkit-animation:animate-svg-stroke-16 1s cubic-bezier(0.47,0,0.745,0.715) 1.7999999999999998s both,animate-svg-fill-16 0.7s cubic-bezier(0.47,0,0.745,0.715) 2.3s both;animation:animate-svg-stroke-16 1s cubic-bezier(0.47,0,0.745,0.715) 1.7999999999999998s both,animate-svg-fill-16 0.7s cubic-bezier(0.47,0,0.745,0.715) 2.3s both}@-webkit-keyframes animate-svg-stroke-17{0%{stroke-dashoffset:19.9580078125px;stroke-dasharray:19.9580078125px}100%{stroke-dashoffset:0;stroke-dasharray:19.9580078125px}}@keyframes animate-svg-stroke-17{0%{stroke-dashoffset:19.9580078125px;stroke-dasharray:19.9580078125px}100%{stroke-dashoffset:0;stroke-dasharray:19.9580078125px}}@-webkit-keyframes animate-svg-fill-17{0%{fill:transparent}100%{fill:rgb(62,58,57)}}@keyframes animate-svg-fill-17{0%{fill:transparent}100%{fill:rgb(62,58,57)}}.svg-elem-17{-webkit-animation:animate-svg-stroke-17 1s cubic-bezier(0.47,0,0.745,0.715) 1.92s both,animate-svg-fill-17 0.7s cubic-bezier(0.47,0,0.745,0.715) 2.4000000000000004s both;animation:animate-svg-stroke-17 1s cubic-bezier(0.47,0,0.745,0.715) 1.92s both,animate-svg-fill-17 0.7s cubic-bezier(0.47,0,0.745,0.715) 2.4000000000000004s both}@-webkit-keyframes animate-svg-stroke-18{0%{stroke-dashoffset:37.077510833740234px;stroke-dasharray:37.077510833740234px}100%{stroke-dashoffset:0;stroke-dasharray:37.077510833740234px}}@keyframes animate-svg-stroke-18{0%{stroke-dashoffset:37.077510833740234px;stroke-dasharray:37.077510833740234px}100%{stroke-dashoffset:0;stroke-dasharray:37.077510833740234px}}@-webkit-keyframes animate-svg-fill-18{0%{fill:transparent}100%{fill:rgb(62,58,57)}}@keyframes animate-svg-fill-18{0%{fill:transparent}100%{fill:rgb(62,58,57)}}.svg-elem-18{-webkit-animation:animate-svg-stroke-18 1s cubic-bezier(0.47,0,0.745,0.715) 2.04s both,animate-svg-fill-18 0.7s cubic-bezier(0.47,0,0.745,0.715) 2.5s both;animation:animate-svg-stroke-18 1s cubic-bezier(0.47,0,0.745,0.715) 2.04s both,animate-svg-fill-18 0.7s cubic-bezier(0.47,0,0.745,0.715) 2.5s both}@-webkit-keyframes animate-svg-stroke-19{0%{stroke-dashoffset:77.82151794433594px;stroke-dasharray:77.82151794433594px}100%{stroke-dashoffset:0;stroke-dasharray:77.82151794433594px}}@keyframes animate-svg-stroke-19{0%{stroke-dashoffset:77.82151794433594px;stroke-dasharray:77.82151794433594px}100%{stroke-dashoffset:0;stroke-dasharray:77.82151794433594px}}@-webkit-keyframes animate-svg-fill-19{0%{fill:transparent}100%{fill:rgb(62,58,57)}}@keyframes animate-svg-fill-19{0%{fill:transparent}100%{fill:rgb(62,58,57)}}.svg-elem-19{-webkit-animation:animate-svg-stroke-19 1s cubic-bezier(0.47,0,0.745,0.715) 2.16s both,animate-svg-fill-19 0.7s cubic-bezier(0.47,0,0.745,0.715) 2.6s both;animation:animate-svg-stroke-19 1s cubic-bezier(0.47,0,0.745,0.715) 2.16s both,animate-svg-fill-19 0.7s cubic-bezier(0.47,0,0.745,0.715) 2.6s both}@-webkit-keyframes animate-svg-stroke-20{0%{stroke-dashoffset:69.47341918945312px;stroke-dasharray:69.47341918945312px}100%{stroke-dashoffset:0;stroke-dasharray:69.47341918945312px}}@keyframes animate-svg-stroke-20{0%{stroke-dashoffset:69.47341918945312px;stroke-dasharray:69.47341918945312px}100%{stroke-dashoffset:0;stroke-dasharray:69.47341918945312px}}@-webkit-keyframes animate-svg-fill-20{0%{fill:transparent}100%{fill:rgb(62,58,57)}}@keyframes animate-svg-fill-20{0%{fill:transparent}100%{fill:rgb(62,58,57)}}.svg-elem-20{-webkit-animation:animate-svg-stroke-20 1s cubic-bezier(0.47,0,0.745,0.715) 2.28s both,animate-svg-fill-20 0.7s cubic-bezier(0.47,0,0.745,0.715) 2.7s both;animation:animate-svg-stroke-20 1s cubic-bezier(0.47,0,0.745,0.715) 2.28s both,animate-svg-fill-20 0.7s cubic-bezier(0.47,0,0.745,0.715) 2.7s both}
</style>
<g>
	<rect x="2.6" y="2" class="st0 svg-elem-1" width="55" height="195.9"></rect>
	<g>
		<g>
			<path class="st1 svg-elem-2" d="M38.8,22.9c0.2,0,0.3-0.2,0.3-0.3c0-0.1,0-0.1,0-0.2l-0.1-0.3c-0.1-0.3-0.2-0.9-0.3-1.2c0,0,0-0.1,0-0.1
				c0-0.2,0.2-0.2,0.5-0.2c0.3,0,0.6,0,0.9,0c0.1,0,0.2,0,0.2,0.1c0,0.1-0.1,0.2-0.1,0.4c0,0.1,0.1,0.8,0.1,0.9l0,0.2
				c0,0.2,0.2,0.3,0.4,0.3l1-0.1c0.2,0,1.5-0.3,1.6-0.3c0.2,0,0.2,0.2,0.3,0.4c0,0.1,0.1,0.5,0.1,0.6c0,0.3-0.2,0.3-0.9,0.3
				c-0.2,0-0.5,0-0.9,0.1l-1,0.1c-0.2,0-0.3,0.2-0.3,0.4l0.3,1.3c0,0.2,0.2,0.3,0.4,0.3l1.9-0.3c0.2,0,1.6-0.3,1.6-0.3
				c0.2,0,0.3,0.2,0.3,0.4c0,0,0,0.1,0,0.2c0,0.1,0,0.3,0,0.4c0,0.3-0.1,0.3-0.9,0.4c-0.2,0-0.6,0.1-1,0.1L41.5,27
				c-0.2,0-0.3,0.2-0.3,0.4l0.1,0.8c0.1,0.3,0.4,1.9,0.4,2c0,0.2-0.1,0.2-0.3,0.3c-0.2,0-0.6,0.1-0.8,0.1c-0.2,0-0.3-0.2-0.3-0.5
				c0,0,0-0.1,0-0.1c-0.1-0.5-0.2-1.1-0.3-1.6L40,27.6c0-0.2-0.2-0.3-0.4-0.3l-2.1,0.3c-0.2,0-1.5,0.3-1.6,0.3
				c-0.2,0-0.2-0.1-0.3-0.2c0-0.1-0.1-0.6-0.1-0.8c0-0.2,0.2-0.3,0.8-0.3c0.2,0,0.6-0.1,1-0.1l2.1-0.3c0.2,0,0.3-0.2,0.3-0.4
				l-0.2-1.3c0-0.2-0.2-0.3-0.4-0.3l-1.1,0.2c-0.2,0-1.6,0.3-1.6,0.3c-0.2,0-0.2-0.1-0.3-0.3c0-0.2-0.1-0.6-0.1-0.7
				c0-0.2,0.2-0.3,0.8-0.3c0.3,0,0.6-0.1,1-0.1L38.8,22.9z"></path>
			<path class="st1 svg-elem-3" d="M39.7,41.1c0.2,0,0.3-0.2,0.3-0.4l-0.1-0.6c-0.1-0.4-0.1-0.7-0.3-1.1c0,0,0-0.1,0-0.2c0-0.1,0.1-0.1,0.1-0.1
				c0.2,0,0.5-0.1,0.7-0.1c0.2,0,0.4,0,0.4,0.2c0,0,0,0.1,0,0.1c0,0,0,0.1,0,0.1c0,0.1,0.1,0.7,0.2,0.8l0.1,0.6
				c0,0.2,0.2,0.3,0.4,0.3l1.9-0.4c0.1,0,1-0.2,1-0.2c0.2,0,0.8,0.5,0.8,0.7c0,0.1-0.1,0.2-0.1,0.2c-0.3,0.3-0.6,0.8-0.9,1.2
				c-0.1,0.1-0.2,0.2-0.2,0.3c-0.3,0.5-0.6,0.9-0.8,0.9c-0.2,0-0.8-0.3-0.8-0.5c0-0.1,0.1-0.2,0.1-0.3c0.1-0.1,0.8-1,0.8-1.1
				c0-0.1-0.1-0.1-0.1-0.1c0,0-0.1,0-0.1,0l-1.4,0.3c-0.1,0-0.3,0.1-0.3,0.3c0,0,0,0.1,0,0.1l0.5,2.4c0.1,0.3,0.3,1.2,0.3,1.4
				c0,0.2-0.1,0.2-0.3,0.2c-0.1,0-0.5,0.1-0.6,0.1c-0.2,0-0.3-0.2-0.4-0.8c0-0.2-0.1-0.4-0.1-0.7l-0.5-2.4c0-0.2-0.2-0.3-0.3-0.3
				c0,0-0.1,0-0.1,0L39,42.3c-0.2,0-1.2,0.3-1.3,0.3c-0.1,0-0.2-0.1-0.2-0.2c0-0.1-0.1-0.6-0.1-0.7c0-0.2,0.1-0.2,0.7-0.3
				c0.2,0,0.4-0.1,0.7-0.1L39.7,41.1z"></path>
			<path class="st1 svg-elem-4" d="M38.8,56.9c0.2,0.3,0.4,0.6,0.6,1c0.2,0.3,0.4,0.6,0.4,0.8c0,0.3-0.7,0.6-0.9,0.6c-0.1,0-0.2-0.1-0.2-0.2
				c-0.3-0.5-0.5-1-0.9-1.5c0-0.1-0.1-0.1-0.1-0.2c0-0.2,0.6-0.5,0.8-0.5C38.7,56.8,38.8,56.8,38.8,56.9z M45,56.9
				c0,0.1-0.1,0.1-0.1,0.2c-0.1,0.1-0.1,0.1-0.2,0.3c-0.7,2.3-1.7,4.1-4,5.1c-0.2,0.1-1.1,0.4-1.3,0.4c-0.2,0-0.7-0.7-0.7-0.8
				c0-0.1,0.1-0.2,0.2-0.2c1.5-0.4,2.9-1.1,3.7-2.5c0.5-0.8,0.8-1.8,1-2.7c0-0.1,0-0.2,0.2-0.2c0.1,0,0.4,0.1,0.6,0.2
				C44.6,56.6,45,56.7,45,56.9z M41.8,57c0.1,0.2,0.5,0.8,0.5,1c0,0.2-0.7,0.6-0.9,0.6c-0.1,0-0.2-0.1-0.2-0.2
				c-0.3-0.5-0.5-0.9-0.8-1.4c0-0.1-0.1-0.1-0.1-0.2c0-0.2,0.6-0.5,0.8-0.5C41.3,56.1,41.6,56.7,41.8,57z"></path>
			<path class="st1 svg-elem-5" d="M39.8,75.1c0.4,0,0.4-0.4,0.4-0.8c0-0.6,0-0.9-0.3-0.9c-0.1,0-1.7,0.2-2.5,0.2c-0.3,0-0.3,0-0.4-0.3
				c-0.1-0.2-0.2-0.6-0.2-0.8c0-0.2,0.1-0.2,0.2-0.2c0.1,0,0.4,0,0.6,0c1.2,0,2.5-0.1,3.7-0.4c0.4-0.1,1.3-0.3,1.6-0.6
				c0.1,0,0.1-0.1,0.2-0.1c0.1,0,0.4,0.3,0.5,0.4c0.1,0.1,0.6,0.6,0.6,0.7c0,0.1-0.1,0.1-0.2,0.1c0,0-0.1,0-0.1,0c0,0-0.1,0-0.1,0
				c-0.1,0-0.9,0.3-1.2,0.3C42.3,73,42,73,41.8,73.1c-0.2,0-0.3,0.1-0.3,0.3c0,0.2,0,0.4,0,0.7c0,0.2,0,0.4,0,0.7
				c0,0.2,0.1,0.3,0.3,0.3h1.7c0.6,0,1.1,0,1.6,0c0.3,0,0.3,0.2,0.3,0.7c0,0.5,0,0.6-0.3,0.6c-0.5,0-1,0-1.5,0h-1.8
				c-0.4,0-0.4,0.2-0.5,0.5c-0.4,1.3-1.1,2.4-2.1,3.2c-0.2,0.2-1.2,0.9-1.4,0.9c-0.2,0-0.9-0.7-0.9-0.9c0-0.1,0.2-0.2,0.3-0.2
				c1.3-0.7,2.1-1.4,2.7-2.7c0-0.1,0.2-0.5,0.2-0.6c0-0.1-0.1-0.2-0.2-0.2h-2.4c-0.5,0-1.1,0-1.5,0c-0.3,0-0.3-0.2-0.3-0.6
				c0-0.5,0-0.7,0.3-0.7c0.3,0,1,0,1.5,0H39.8z"></path>
			<path class="st1 svg-elem-6" d="M38.7,93.4c0,0.1-0.1,0.1-0.1,0.1c-0.2,0.1-0.2,0.1-0.4,0.3c-0.3,0.3-1.7,2-2.1,2c-0.2,0-0.9-0.6-0.9-0.8
				c0-0.1,0.1-0.2,0.2-0.3c0.6-0.5,1.3-1.1,1.7-1.9c0-0.1,0.1-0.2,0.2-0.2c0.1,0,0.5,0.2,0.7,0.3C38.2,93.1,38.7,93.3,38.7,93.4z
				 M39.3,90.4c0.2,0,0.3-0.2,0.3-0.4v-0.2c0-0.5,0-0.9,0-1.4c0,0,0-0.1,0-0.1c0-0.1,0.1-0.2,0.2-0.2c0.2,0,0.6,0.1,0.8,0.1
				c0.3,0,0.6,0,0.6,0.2c0,0.1,0,0.1-0.1,0.1c-0.2,0.2-0.2,0.2-0.2,0.8V90c0,0.3,0.2,0.4,0.3,0.4h1.9c0.3,0,0.6,0,0.9,0
				c0.2,0,0.5,0,0.7,0c0.3,0,0.3,0.2,0.3,0.7c0,0.4,0,0.6-0.3,0.6c-0.5,0-1,0-1.6,0h-1.9c-0.2,0-0.4,0.2-0.4,0.4v2.8
				c0,0.2,0,0.5,0,0.7c0,0.7,0,1.2-0.7,1.5c-0.3,0.2-0.9,0.3-1.3,0.3c-0.2,0-0.3-0.1-0.4-0.3c-0.1-0.2-0.3-0.6-0.3-0.7
				c0-0.2,0.1-0.2,0.3-0.2c1.1-0.1,1.1-0.3,1.1-1.3V92c0-0.2-0.2-0.4-0.4-0.4h-1.8c-0.5,0-1,0-1.5,0c-0.3,0-0.3-0.2-0.3-0.6
				s0-0.6,0.3-0.6c0.4,0,1,0,1.5,0H39.3z M44.3,93.7c0.2,0.2,1,1,1,1.2c0,0.2-0.6,0.8-0.8,0.8c-0.1,0-0.3-0.2-0.3-0.3
				c-0.5-0.7-1.1-1.2-1.8-1.8c-0.1-0.1-0.2-0.2-0.2-0.3c0-0.2,0.5-0.8,0.7-0.8C43.2,92.7,44,93.5,44.3,93.7z M44.8,89.2
				c0,0.2-0.4,0.5-0.6,0.5c-0.1,0-0.1-0.1-0.1-0.1c-0.3-0.3-0.6-0.7-0.9-1c0,0-0.1-0.1-0.1-0.1c0-0.1,0.5-0.5,0.6-0.5
				C43.8,88,44.8,89.1,44.8,89.2z M46,88.4c0,0.2-0.4,0.6-0.6,0.6c-0.1,0-0.1-0.1-0.2-0.1c-0.3-0.3-0.6-0.7-0.9-1
				c0,0-0.1-0.1-0.1-0.2c0-0.1,0.4-0.5,0.6-0.5C45,87.2,46,88.3,46,88.4z"></path>
			<path class="st1 svg-elem-7" d="M41,112.1c0,0.5,0,1,0,1.5c0,0.5,0,0.5-1,0.5c-0.3,0-0.4,0-0.4-0.3c0-0.6,0-1.1,0-1.7V106c0-0.3,0-0.7,0-1
				c0,0,0-0.1,0-0.2c0-0.1,0-0.1,0.1-0.1c0.2,0,1.1,0.1,1.3,0.1c0.1,0,0.2,0,0.2,0.1c0,0.1,0,0.1-0.1,0.2c-0.1,0.1-0.1,0.3-0.1,0.4
				V112.1z"></path>
			<path class="st1 svg-elem-8" d="M38.7,122.8c0.1,0,0.3,0,0.3,0.1c0,0.1-0.1,0.1-0.1,0.2c-0.1,0.1-0.1,0.3-0.1,0.4v0.3c0,2.5-0.2,4.6-2.1,6.4
				c-0.1,0.1-0.2,0.3-0.4,0.3c-0.2,0-1.1-0.4-1.1-0.7c0-0.1,0.1-0.2,0.2-0.2c1.8-1.5,2.1-3.2,2.1-5.4c0-0.4,0-0.8,0-1.2
				c0,0,0-0.1,0-0.1c0-0.1,0.1-0.1,0.2-0.1C37.8,122.6,38.4,122.7,38.7,122.8z M41.5,127.8c0,0.4,0,0.6,0.2,0.6
				c0.4,0,2.8-2.1,3.1-2.5c0.1-0.1,0.1-0.2,0.2-0.2c0.2,0,0.6,0.8,0.6,1c0,0.2-0.5,0.6-0.6,0.7c-0.7,0.6-1.4,1.2-2.2,1.8
				c-0.3,0.3-0.8,0.6-1.1,0.9c-0.1,0.1-0.2,0.2-0.4,0.2c-0.2,0-0.7-0.3-0.8-0.4c-0.2-0.1-0.4-0.2-0.4-0.4c0-0.1,0-0.9,0-1.4v-4.2
				c0-0.4,0-0.8,0-1.2v-0.1c0-0.1,0-0.1,0.1-0.1c0.1,0,0.4,0,0.5,0.1c0.6,0.1,1,0.1,1,0.3c0,0.1,0,0.1-0.1,0.2
				c-0.1,0.1-0.1,0.2-0.1,0.3c0,0.3,0,0.9,0,1.2V127.8z"></path>
			<path class="st1 svg-elem-9" d="M43.7,140.3c0.8,0.8,1.2,1.8,1.2,3c0,1.7-0.9,3.1-2.3,3.9c-0.3,0.1-1,0.5-1.3,0.5c-0.3,0-0.8-0.7-0.8-1
				c0-0.1,0.2-0.1,0.3-0.2c1.6-0.4,2.8-1.4,2.8-3.1c0-1.3-0.7-2.4-1.9-2.9c-0.1,0-0.3-0.1-0.5-0.1c-0.3,0-0.3,0.3-0.3,0.5
				c-0.1,1.8-0.6,3.9-1.7,5.3c-0.4,0.5-0.9,0.9-1.6,0.9c-0.7,0-1.3-0.5-1.6-1.1c-0.3-0.5-0.4-1.1-0.4-1.7c0-2.8,2.1-5,5-5
				C41.8,139.1,42.9,139.5,43.7,140.3z M39.1,140.6c-1.4,0.6-2.2,1.9-2.2,3.5c0,0.4,0.2,1.6,0.8,1.6c0.6,0,1.3-1.4,1.6-2.6
				c0.2-0.6,0.4-1.8,0.4-2.3c0-0.1-0.1-0.2-0.2-0.2C39.4,140.5,39.2,140.6,39.1,140.6z"></path>
			<path class="st1 svg-elem-10" d="M43.8,155.7c0.5,0,1,0,1.4,0c0.3,0,0.3,0.1,0.3,0.6s0,0.6-0.3,0.6c-0.5,0-0.9,0-1.4,0h-6.6
				c-0.2,0-0.3,0.1-0.3,0.3v2.5c0,1.6-0.1,3.4-0.7,4.9c-0.2,0.5-0.3,0.8-0.5,0.8c-0.2,0-0.9-0.3-0.9-0.6c0-0.1,0.1-0.2,0.1-0.2
				c0.7-1.4,0.9-3.4,0.9-5v-2.1c0-0.4,0-0.7,0-1.1c0-0.5,0.2-0.6,0.7-0.6c0.4,0,0.8,0,1.2,0h1.9c0.2,0,0.3-0.1,0.3-0.3
				c0-0.2,0-0.4,0-0.5v-0.1c0-0.1,0.1-0.2,0.2-0.2c0.2,0,0.9,0.1,1.1,0.1c0.1,0,0.3,0,0.3,0.2c0,0.1-0.1,0.1-0.1,0.2
				c-0.1,0.1-0.1,0.2-0.1,0.4c0,0.2,0.1,0.3,0.3,0.3H43.8z M38.2,161.2c-0.1,0-0.7-0.1-0.7-0.4c0-0.1,0.3-0.6,0.5-1
				c0.1-0.2,0.1-0.3,0.2-0.3c0.1-0.1,0.4-0.8,0.4-0.9c0-0.1-0.1-0.1-0.2-0.1H38c-0.3,0-0.5,0-0.5,0c-0.2,0-0.2-0.2-0.2-0.5
				c0-0.3,0-0.5,0.2-0.5c0,0,0.3,0,0.5,0h0.4c0.3,0,0.5,0,0.7,0c0.6,0,0.8,0.5,0.8,0.6c0,0.2-0.6,1.4-0.8,1.7c0,0,0,0.1,0,0.1
				c0,0.1,0.1,0.2,0.2,0.2c0.2,0,0.3,0,0.5,0c0.5,0,0.7,0.5,0.7,0.7c0,0.2-0.1,0.6-0.1,0.8c-0.1,0.5-0.4,1.1-0.6,1.5
				c0,0.1-0.1,0.1-0.1,0.2c0,0.1,0.1,0.2,0.2,0.3c0.9,0.6,1.9,0.6,2.9,0.6h0.8c0.6,0,1.2,0,1.8,0c0.2,0,0.3,0.1,0.3,0.3
				c0,0.9-0.4,0.8-1,0.8H43c-1.5,0-2.6,0-3.8-0.9c-0.1,0-0.1-0.1-0.2-0.1c-0.1,0-0.2,0-0.3,0.1c-0.2,0.2-1.1,1-1.4,1
				c-0.2,0-0.7-0.5-0.7-0.7c0-0.1,0.2-0.2,0.3-0.3c0.3-0.2,0.8-0.5,1.1-0.8c0.1-0.1,0.1-0.1,0.1-0.2c0-0.1,0-0.2-0.1-0.2
				c-0.2-0.2-0.8-1.1-0.8-1.4c0-0.3,0.6-0.5,0.8-0.5c0.1,0,0.2,0.1,0.2,0.2c0.1,0.3,0.3,0.5,0.4,0.7c0,0,0.1,0.1,0.2,0.1
				c0.1,0,0.1,0,0.2-0.1c0.1-0.2,0.4-0.9,0.4-1.1c0-0.1-0.2-0.1-0.4-0.1h-0.2c-0.1,0-0.3,0.1-0.4,0.2
				C38.3,161.2,38.2,161.2,38.2,161.2z M43.7,161.7c0,0.2,0.1,0.3,0.3,0.3c0.3,0,0.7,0,1,0c0.3,0,0.3,0.2,0.3,0.5s0,0.5-0.3,0.5
				c-0.4,0-0.8,0-1.1,0h-1.5c-0.4,0-0.8,0-1.1,0c-0.3,0-0.3-0.2-0.3-0.5s0-0.5,0.3-0.5c0.3,0,0.7,0,1,0c0.2,0,0.3-0.1,0.3-0.3v-0.6
				c0-0.2-0.1-0.3-0.3-0.3c-0.4,0-0.8,0-1.2,0c-0.3,0-0.3-0.2-0.3-0.5c0-0.4,0-0.5,0.3-0.5c0.4,0,0.8,0,1.2,0c0.2,0,0.3-0.1,0.3-0.3
				v-0.3c0-0.2-0.1-0.3-0.3-0.3h0c-0.3,0-0.9,0.1-1.1,0.1c-0.3,0-0.4-0.6-0.4-0.8c0-0.3,0.1-0.3,0.5-0.3c1,0,2.4-0.2,3.4-0.6
				c0,0,0.1,0,0.2,0c0.1,0,0.4,0.5,0.5,0.6c0.1,0.1,0.2,0.3,0.2,0.4c0,0.1-0.1,0.1-0.1,0.1c0,0-0.1,0-0.2,0c0,0-0.1,0-0.2,0
				c0,0-0.9,0.2-1,0.2c-0.2,0-0.3,0.1-0.3,0.4v0.5c0,0.2,0.1,0.3,0.3,0.3h0.2c0.4,0,0.8,0,1.2,0c0.3,0,0.3,0.2,0.3,0.5
				c0,0.4,0,0.5-0.3,0.5c-0.4,0-0.8,0-1.2,0H44c-0.2,0-0.3,0.1-0.3,0.3V161.7z"></path>
		</g>
	</g>
	<polyline class="st2 svg-elem-11" points="30.1,2 57.6,2 57.6,100 	"></polyline>
	<polyline class="st2 svg-elem-12" points="30.1,198 2.4,198 2.4,100 	"></polyline>
	<g>
		<g>
			<path class="st1 svg-elem-13" d="M20.9,121.2c0.1,0,0.2,0,0.2-0.1c0.1-0.1,0.1-0.2,0.1-0.2c0,0,0.4,0.2,0.5,0.3c0.2,0.1,0.3,0.2,0.3,0.3
				c0,0.2-0.1,0.2-0.3,0.2c-0.5,0-0.6,0-0.8,0.2c0,0-0.2,0.2-0.2,0.2c0,0,0,0,0,0c0,0,0.2-0.4,0.2-0.5c0-0.1-0.1-0.1-0.2-0.1h-4
				c-0.2,0-0.2,0-0.2,0.2c0,0.3-0.3,0.7-0.5,0.7c-0.1,0-0.3-0.1-0.3-0.3c0-0.1,0-0.2,0.2-0.3c0.3-0.3,0.3-0.6,0.3-0.8c0,0,0,0,0,0
				s0.1,0.1,0.2,0.2c0.1,0.1,0.1,0.2,0.3,0.2h1.7c0.2,0,0.2,0,0.2-0.5c0-0.1,0-0.3,0-0.4c0,0-0.1-0.2-0.1-0.2c0,0,0-0.1,0.1-0.1
				c0,0,0.1,0,0.6,0.1c0.1,0,0.2,0,0.2,0.1c0,0.1,0,0.1-0.2,0.3c-0.1,0.1-0.1,0.1-0.1,0.4c0,0.2,0.1,0.2,0.2,0.2H20.9z M20.7,123.8
				c0.3,0,0.3,0,0.5-0.2c0.2-0.3,0.2-0.3,0.3-0.3c0,0,0.7,0.4,0.7,0.6c0,0.1-0.1,0.1-0.4,0.1h-2.3c-0.2,0-0.2,0.1-0.2,0.3v1.7
				c0,0.2,0,0.5-0.7,0.5c-0.1,0-0.1,0-0.2-0.1c-0.1-0.2-0.3-0.3-0.5-0.4c-0.1-0.1-0.1-0.1-0.1-0.1c0,0,0,0,0.1,0c0.1,0,0.4,0,0.5,0
				c0.3,0,0.4,0,0.4-0.3c0-0.2,0-1.1,0-1.3c0-0.1,0-0.2-0.2-0.2H17c-0.6,0-0.8,0-0.9,0c0,0-0.1,0-0.1,0c0,0,0,0-0.1,0l-0.1-0.2
				c0,0,0,0,0,0s0,0,0,0c0,0,0.3,0,0.3,0c0.3,0,0.6,0,1,0h1.4c0.2,0,0.2-0.1,0.2-0.2c0-0.3,0-0.8,0-0.8c0-0.1-0.1-0.1-0.2-0.1H18
				c-0.6,0-0.8,0-0.9,0c0,0-0.1,0-0.1,0c0,0,0,0-0.1,0l-0.1-0.2c0,0,0,0,0,0c0,0,0,0,0,0c0,0,0.3,0,0.3,0c0.3,0,0.6,0,1,0h1.6
				c0.3,0,0.3,0,0.4-0.1c0.2-0.3,0.2-0.3,0.3-0.3c0.1,0,0.5,0.4,0.5,0.5c0,0.1-0.1,0.1-0.4,0.1h-1.2c-0.1,0-0.2,0-0.2,0.2v0.8
				c0,0.1,0.1,0.1,0.2,0.1H20.7z"></path>
			<path class="st1 svg-elem-14" d="M17.2,133.5c-0.2,0-0.2,0-0.2,0.2c0,0.2-0.3,0.3-0.4,0.3c-0.2,0-0.2-0.1-0.2-0.3c0-0.2,0-1.1,0-1.3
				c0-0.5,0-0.6,0-1.1c0,0,0-0.1-0.1-0.1c0,0-0.6,0.2-0.7,0.2c0,0,0,0,0,0c0,0,0-0.1,0.3-0.2c1.1-0.6,1.6-1,1.6-1.1c0,0,0,0-0.1,0
				h-0.5c-0.2,0-0.5,0-0.8,0c0,0-0.2,0-0.2,0c0,0,0,0-0.1,0l-0.1-0.2c0,0,0,0,0,0c0,0,0,0,0,0c0,0,0.3,0,0.3,0c0.2,0,0.6,0,0.9,0
				c0.1,0,0.3,0,0.3-0.2v-0.6c0-0.2,0-0.2-0.2-0.2c-0.2,0-0.5,0-0.5,0c0,0-0.2,0-0.2,0c0,0,0,0-0.1,0l-0.1-0.2c0,0,0,0,0,0
				c0,0,0,0,0,0c0.1,0,0.8,0,0.9,0c0.2,0,0.2-0.1,0.2-0.2c0-0.1,0-0.2,0-0.3c0-0.1,0-0.4,0-0.4c0,0,0-0.1,0-0.1c0,0,0.7,0.1,0.7,0.2
				c0,0-0.1,0.1-0.1,0.2c-0.1,0.1-0.1,0.1-0.1,0.4c0,0.1,0,0.2,0.1,0.2c0.1,0,0.1-0.1,0.1-0.1c0.1-0.2,0.2-0.2,0.2-0.2
				c0,0,0.6,0.4,0.6,0.4c0,0.1-0.1,0.1-0.4,0.1h-0.4c-0.1,0-0.2,0-0.2,0.2v0.7c0,0.1,0,0.1,0.1,0.1c0.1,0,0.1,0,0.3-0.1
				c0.5-0.5,1-1.3,1-1.7c0-0.1,0-0.2,0.1-0.2c0,0,0.3,0.2,0.4,0.2c0.2,0.1,0.2,0.1,0.2,0.2c0,0.1,0,0.1-0.1,0.1s-0.6,0.7-0.7,0.8
				c-0.1,0.1-0.4,0.5-0.4,0.5c0,0,0.1,0,0.1,0h0.1c0.1,0,0.2,0,0.2-0.1c0-0.1,0.2-0.2,0.2-0.2c0.1,0,0.5,0.4,0.5,0.4
				c0,0.1,0,0.1-0.4,0.1h-1c-0.1,0-0.1,0-0.3,0.1c-0.3,0.3-0.7,0.6-1,0.7c-0.1,0.1-0.2,0.1-0.2,0.1c0,0.1,0.1,0.1,0.1,0.1h1.1
				c0.1,0,0.2,0,0.2-0.1c0.1-0.2,0.2-0.2,0.2-0.2c0.1,0,0.5,0.3,0.5,0.4c0,0.1,0,0.1-0.2,0.2c0,0,0,0.1,0,0.3c0,0.3,0,0.8,0,1.1
				c0,0.1,0,0.6,0,0.7c0,0.3-0.3,0.4-0.4,0.4c-0.2,0-0.2-0.2-0.2-0.2c0-0.2-0.1-0.2-0.2-0.2H17.2z M17.2,131.3
				c-0.2,0-0.2,0.1-0.2,0.3c0,0.5,0,0.6,0.2,0.6h1c0.2,0,0.2-0.1,0.2-0.3c0-0.5,0-0.6-0.2-0.6H17.2z M17.2,132.4
				c-0.2,0-0.2,0.1-0.2,0.4c0,0.4,0,0.5,0.2,0.5h1c0.2,0,0.2-0.1,0.2-0.6c0-0.2,0-0.3-0.2-0.3H17.2z M21,128.2c0.1,0,0.1,0,0.2-0.1
				c0.1-0.1,0.1-0.1,0.2-0.1c0.1,0,0.6,0.4,0.6,0.5c0,0,0,0,0,0.1c0,0-0.2,0.1-0.2,0.1c-0.1,0.1-0.9,1.4-0.9,1.5
				c0,0.1,0.2,0.2,0.3,0.3c0.7,0.7,0.9,1.2,0.9,1.8c0,0.7-0.3,0.9-0.4,1c-0.1,0-0.2,0.2-0.3,0.2c-0.1,0-0.1,0-0.2-0.2
				c-0.2-0.3-0.6-0.5-0.6-0.5c-0.1,0-0.1,0-0.1,0.1c0,0.1,0,0.5,0,0.7c0,0.2,0,0.3,0,0.4c0,0.1-0.2,0.2-0.3,0.2
				c-0.2,0-0.2-0.1-0.2-0.2c0-0.1,0-0.6,0-0.7c0-0.8,0-3.1,0-4c0-0.2,0-0.5,0-0.9c0,0,0-0.3,0-0.3c0,0,0-0.1,0-0.1
				c0,0,0.2,0.1,0.4,0.2c0.1,0,0.2,0.1,0.3,0.1H21z M20.5,128.4c-0.1,0-0.2,0.1-0.2,0.1c0,0.1,0,1.8,0,2c0,0.2,0,1.9,0,1.9
				c0,0.1,0.5,0.2,0.7,0.2c0.2,0,0.2,0,0.3-0.2c0.1-0.2,0.1-0.4,0.1-0.6c0-0.7-0.4-1.3-0.6-1.5c0,0-0.2-0.2-0.2-0.2
				c0,0,0.2-0.8,0.3-0.9c0-0.1,0.2-0.7,0.2-0.8c0-0.1-0.1-0.1-0.2-0.1H20.5z"></path>
			<path class="st1 svg-elem-15" d="M21,136.5c0,0,0.1,0,0.2-0.1c0,0,0.2-0.2,0.2-0.2c0,0,0.3,0.3,0.4,0.3c0.3,0.2,0.3,0.2,0.3,0.3
				c0,0.2-0.1,0.2-0.5,0.2c-0.1,0-0.2,0-0.5,0.1c-0.1,0.1-0.2,0.1-0.2,0.1c0,0,0,0,0,0c0,0,0.2-0.4,0.2-0.4c0-0.1-0.1-0.1-0.1-0.1
				h-4.2c-0.1,0-0.2,0-0.2,0.1c-0.1,0.7-0.4,0.7-0.5,0.7c-0.1,0-0.3-0.1-0.3-0.3c0-0.1,0-0.2,0.1-0.2c0.2-0.4,0.3-0.5,0.4-0.7
				c0,0,0.1-0.3,0.1-0.3c0,0,0.1,0.2,0.2,0.4c0,0.1,0.1,0.1,0.2,0.1h1.7c0.2,0,0.2-0.1,0.2-0.3c0-0.2,0-0.3,0-0.4
				c0,0-0.1-0.2-0.1-0.3c0,0,0.1-0.1,0.1-0.1c0.1,0,0.3,0,0.4,0c0.2,0,0.3,0,0.3,0.2c0,0,0,0.1-0.1,0.2c-0.1,0.1-0.1,0.1-0.1,0.3
				s0,0.3,0.2,0.3H21z M19.2,138.8c-0.2,0-0.2,0-0.3,0.2c-0.1,0.1-0.5,0.6-0.5,0.6s0.1,0.1,0.1,0.1h1.9c0.1,0,0.1,0,0.2-0.1
				c0,0,0.2-0.2,0.2-0.2c0,0,0.6,0.3,0.6,0.4c0,0.1,0,0.1-0.2,0.2c-0.1,0.1-0.1,0.1-0.1,0.5c0,0.1,0,0.8,0,0.9
				c0,0.2-0.1,0.3-0.3,0.3c-0.2,0-0.2-0.1-0.2-0.2c0-0.2-0.2-0.2-0.2-0.2h-3.1c-0.2,0-0.2,0-0.2,0.2c-0.1,0.3-0.4,0.3-0.4,0.3
				c-0.1,0-0.1-0.1-0.1-0.2s0-0.1,0-0.2c0-0.2,0-0.6,0-0.8c0-0.1,0-0.5,0-0.8c0,0,0-0.3,0-0.3c0,0,0-0.1,0.1-0.1
				c0.1,0,0.4,0.2,0.4,0.2c0.1,0,0.2,0,0.3,0h0.7c0.1,0,0.2,0,0.3-0.2c0.1-0.4,0.2-0.6,0.2-0.6c0-0.1-0.1-0.1-0.2-0.1h-0.4
				c-0.1,0-0.2,0-0.2,0.1c0,0.1-0.1,0.2-0.3,0.2c-0.2,0-0.2-0.1-0.2-0.2c0-0.1,0-0.4,0-0.5c0-0.1,0-0.7,0-0.9c0,0,0-0.3,0-0.3
				c0,0,0-0.1,0.1-0.1c0.1,0,0.1,0,0.3,0.1c0.1,0.1,0.2,0.1,0.3,0.1H20c0.1,0,0.2,0,0.2-0.1c0.1-0.1,0.1-0.1,0.2-0.1
				c0.1,0,0.4,0.3,0.4,0.3c0,0-0.2,0.1-0.2,0.2c0,0,0,0.3,0,0.4c0,0.1,0,0.6,0,0.7c0,0.3-0.3,0.3-0.3,0.3c-0.1,0-0.1-0.1-0.1-0.1
				c0-0.1,0-0.1-0.2-0.1H19.2z M20.4,141.1c0.1,0,0.1,0,0.2,0c0,0,0-0.1,0-0.5c0-0.1,0-0.5,0-0.6c0-0.1-0.1-0.1-0.2-0.1h-3.1
				c-0.1,0-0.1,0-0.2,0s0,0.1,0,0.5c0,0.1,0,0.5,0,0.6c0,0.1,0.1,0.1,0.2,0.1H20.4z M19.9,138.6c0.2,0,0.2-0.1,0.2-0.6
				c0-0.4,0-0.4-0.2-0.4h-2.1c-0.2,0-0.2,0.1-0.2,0.6c0,0.4,0,0.4,0.2,0.4H19.9z"></path>
			<path class="st1 svg-elem-16" d="M19.3,146c-0.2,0-0.2,0.1-0.2,0.4c0,0.7,0,1.4,0,2.1c0,0.1,0,0.6,0,0.7c0,0.2,0,0.2-0.2,0.3
				c-0.1,0-0.1,0-0.2,0c-0.2,0-0.2-0.1-0.2-0.2c0-0.3,0-0.3,0-0.7c0-0.6,0-1.8,0-2.4c0-0.1,0-0.2-0.2-0.2h-1.1
				c-0.2,0-0.2,0.1-0.2,0.3v2.4c0,0.2-0.2,0.3-0.4,0.3c-0.2,0-0.2-0.1-0.2-0.2c0-0.1,0-0.5,0-0.6c0-0.4,0-0.8,0-0.9
				c0-0.5,0-1.4,0-1.5c0,0,0-0.2,0-0.2s0-0.1,0.1-0.1s0.3,0.1,0.3,0.2c0.2,0.1,0.2,0.1,0.4,0.1h1.1c0.2,0,0.2-0.1,0.2-0.6
				c0-0.1,0-0.4,0-0.5c0-0.1-0.1-0.1-0.1-0.1h-1.5c-0.5,0-0.7,0-0.9,0c0,0-0.1,0-0.1,0c0,0,0,0-0.1,0l-0.1-0.2c0,0,0,0,0,0
				c0,0,0,0,0,0c0,0,0.3,0,0.3,0c0.3,0,0.6,0,1,0h1.4c0.2,0,0.2-0.1,0.2-0.2v-0.5c0-0.1,0-0.4,0-0.4c0,0,0,0,0.1,0
				c0.1,0,0.7,0.1,0.7,0.2c0,0-0.1,0.2-0.2,0.2c0,0.1,0,0.2,0,0.2c0,0.5,0,0.5,0.2,0.5h1.4c0.1,0,0.2,0,0.3-0.2
				c0.2-0.3,0.3-0.3,0.3-0.3c0.1,0,0.7,0.5,0.7,0.6c0,0.1-0.1,0.1-0.4,0.1h-2.5c-0.1,0-0.1,0-0.1,0c0,0,0,0,0.1,0.1
				c0.1,0.1,0.1,0.1,0.1,0.1c0,0-0.1,0.1-0.1,0.2c0,0.1,0,0.5,0,0.7c0,0.1,0,0.2,0.2,0.2h1.1c0.1,0,0.2,0,0.3-0.1
				c0.2-0.2,0.2-0.2,0.2-0.2c0.1,0,0.6,0.4,0.6,0.5c0,0.1,0,0.1-0.2,0.2c-0.1,0.1-0.1,0.2-0.1,0.4s0,1.4,0,1.6c0,0.4,0,0.5-0.2,0.6
				c-0.1,0.1-0.3,0.2-0.4,0.2c-0.1,0-0.1,0-0.2-0.2c-0.1-0.2-0.2-0.2-0.7-0.4c-0.1,0-0.2-0.1-0.2-0.1c0,0,0,0,0.1,0
				c0,0,0.7,0.1,0.8,0.1c0.1,0,0.2,0,0.3-0.2c0-0.1,0-1.1,0-1.3c0-0.8,0-0.9-0.2-0.9H19.3z"></path>
			<path class="st1 svg-elem-17" d="M21.9,151c-0.3,0.3-5.5,5.5-5.9,5.9c0,0-0.2,0.2-0.2,0.2c0,0-0.1,0-0.1-0.1c0,0,0-0.1,0-0.1
				c0.3-0.3,5.5-5.5,6-5.9c0,0,0.2-0.2,0.2-0.2S22,150.9,21.9,151C22,151,22,151,21.9,151z"></path>
			<path class="st1 svg-elem-18" d="M19.4,166.8c-0.1,0-0.2,0-0.2-0.1c0-0.1,0.1-0.1,0.2-0.1c0.2,0,0.3-0.1,0.3-0.2c0-0.1,0-0.1,0-0.2
				c0,0-0.1-0.2-0.9-1.5c-0.3-0.5-0.3-0.5-0.4-0.5c-0.1,0-0.2,0.1-0.4,0.3c-0.3,0.3-0.3,0.4-0.3,0.6v1c0,0.5,0.4,0.5,0.6,0.5
				c0.1,0,0.1,0,0.1,0.1c0,0.1-0.1,0.1-0.2,0.1h-1.7c-0.1,0-0.2,0-0.2-0.1c0-0.1,0.1-0.1,0.2-0.1c0.3,0,0.5-0.1,0.5-0.5v-3.7
				c0-0.5-0.4-0.5-0.6-0.5c-0.1,0-0.1,0-0.1-0.1c0-0.1,0.1-0.1,0.2-0.1h1.7c0.1,0,0.2,0,0.2,0.1c0,0.1-0.1,0.1-0.2,0.1
				c-0.2,0-0.5,0.1-0.5,0.5v1.8c0,0.1,0,0.1,0.1,0.1c0,0,0.1,0,0.1,0c0.1-0.1,1.1-1.2,1.3-1.5c0.5-0.5,0.5-0.5,0.5-0.7
				c0-0.2-0.3-0.2-0.5-0.2c0,0-0.1,0-0.1-0.1c0-0.1,0.1-0.1,0.2-0.1H21c0.1,0,0.2,0,0.2,0.1c0,0.1-0.1,0.1-0.2,0.1
				c-0.5,0-0.7,0.2-0.9,0.3c0,0-0.7,0.8-0.9,1c-0.3,0.3-0.3,0.3-0.3,0.4c0,0,0,0.1,0,0.1c0.1,0.1,0.3,0.5,0.4,0.7
				c0.2,0.2,1,1.5,1.1,1.8c0,0.1,0.4,0.3,0.7,0.3c0.1,0,0.1,0.1,0.1,0.1c0,0.1-0.1,0.1-0.2,0.1H19.4z"></path>
			<path class="st1 svg-elem-19" d="M17.3,170.2c-0.2,0-0.2,0.1-0.2,0.4c0,0.1,0,0.1,0.2,0.2c0.6,0.3,0.6,0.6,0.6,0.8c0,0.2-0.1,0.4-0.3,0.4
				c-0.2,0-0.2-0.2-0.3-0.5c0-0.2-0.2-0.4-0.2-0.4c0,0,0,0.1,0,0.1c0,0.5,0,2.6,0,3c0,0.3,0,0.6-0.3,0.6c-0.2,0-0.2-0.1-0.2-0.2
				c0-0.2,0-0.4,0-0.6c0-0.2,0.1-2.2,0.1-2.2c0,0,0-0.1,0-0.1c0,0,0,0-0.1,0c-0.2,0.3-0.7,1.2-0.9,1.2c0,0,0,0,0,0
				c0,0,0.3-0.4,0.3-0.4c0.5-0.8,0.7-1.9,0.7-2c0-0.1-0.1-0.1-0.2-0.1c-0.1,0-0.5,0-0.5,0c0,0,0,0-0.1,0l-0.1-0.2c0,0,0,0,0,0
				c0,0,0,0,0,0c0.1,0,0.7,0,0.8,0c0.2,0,0.2-0.2,0.2-0.3c0-0.1,0-0.7,0-0.8c0-0.2-0.1-0.5-0.1-0.6c0,0,0,0,0,0c0,0,0.3,0,0.5,0.1
				c0,0,0.1,0,0.1,0.1c0,0-0.1,0.3-0.1,0.3c0,0.2-0.1,0.8-0.1,1c0,0.1,0,0.1,0.1,0.1c0.1,0,0.2,0,0.2-0.1c0.1-0.2,0.1-0.2,0.2-0.2
				c0.1,0,0.4,0.3,0.4,0.4c0,0.1-0.1,0.1-0.4,0.1H17.3z M18.8,173.2c0.1,0,0.4-0.2,0.4-0.2c0,0,0,0,0,0c0,0.1-0.9,0.8-0.9,1
				c0,0.1-0.1,0.2-0.1,0.2c-0.1,0-0.4-0.6-0.4-0.6c0,0,0,0,0,0c0.1,0,0.2,0,0.3,0C18.3,173.4,18.6,173.3,18.8,173.2z M19.1,172.6
				c0,0.2-0.1,0.3-0.2,0.3c-0.2,0-0.2-0.1-0.3-0.3c0-0.1-0.2-0.5-0.5-0.8c0,0,0,0,0,0c0,0,0,0,0,0c0.1,0,0.5,0.2,0.8,0.4
				C18.9,172.2,19.1,172.4,19.1,172.6z M20.2,170.7c-0.2,0-0.2,0.1-0.2,0.5c0,0.2,0.1,0.2,0.2,0.2h0.5c0.3,0,0.3,0,0.4-0.1
				c0,0,0.2-0.3,0.3-0.3c0,0,0.6,0.4,0.6,0.5c0,0.1-0.1,0.1-0.4,0.1h-0.2c0,0-0.1,0-0.1,0.1c0,0.1,0.3,0.3,0.3,0.4
				c0,0.1,0,0.1-0.2,0.1c-0.3,0.1-0.3,0.1-0.8,0.5c-0.1,0-0.1,0.1-0.1,0.1c0,0.2,0.9,0.8,1.5,0.8c0,0,0,0,0,0c0,0-0.4,0.2-0.4,0.2
				c0,0-0.3,0.2-0.3,0.2c-0.1,0-0.8-0.3-1.3-1.7c-0.1-0.1-0.1-0.2-0.1-0.2c0,0,0,0,0,0.1c0,0,0,0.2,0,0.2c0,0.2,0.1,1.1,0.1,1.3
				c0,0.3,0,0.4-0.2,0.6c-0.1,0.1-0.3,0.1-0.4,0.1c0,0-0.1,0-0.1-0.1c-0.1-0.3-0.5-0.4-0.6-0.5c0,0-0.1,0-0.1-0.1c0,0,0,0,0,0
				c0.1,0,0.3,0,0.4,0c0.4,0,0.4,0,0.4-0.4c0-0.4,0-1.6,0-1.8c0,0,0-0.2-0.2-0.2c-0.3,0-0.8,0-1,0c0,0,0,0-0.1,0c0,0,0,0-0.1,0
				l-0.1-0.2c0,0,0,0,0,0c0,0,0,0,0,0c0,0,0.2,0,0.3,0c0.3,0,0.7,0,1,0c0.1,0,0.2,0,0.2-0.2c0-0.5,0-0.5-0.2-0.5c-0.2,0-0.6,0-0.8,0
				c0,0-0.1,0-0.2,0c0,0,0,0-0.1,0l-0.1-0.2c0,0,0,0,0,0c0,0,0,0,0,0c0.1,0,0.3,0,0.3,0c0.3,0,0.6,0,0.8,0c0.2,0,0.2-0.1,0.2-0.2
				c0-0.4,0-0.5-0.2-0.5h-0.2c-0.2,0-0.6,0-0.7,0c0,0-0.1,0-0.1,0c0,0,0,0-0.1,0l-0.1-0.2c0,0,0,0,0,0c0,0,0,0,0,0c0,0,0.3,0,0.3,0
				c0.1,0,0.6,0,0.9,0h0.5c0.2,0,0.2,0,0.6-0.8c0.1-0.2,0.2-0.5,0.2-0.5c0,0,0-0.1,0-0.1s0.6,0.2,0.6,0.3c0,0,0,0.1-0.2,0.2
				c-0.2,0.1-0.8,0.8-0.8,0.8c0,0,0,0,0.1,0c0.4,0,0.5,0,0.5-0.1c0.1-0.2,0.2-0.3,0.2-0.3c0,0,0.7,0.4,0.7,0.5
				c0,0.1-0.1,0.1-0.4,0.1h-1.1c-0.2,0-0.2,0-0.2,0.5c0,0.2,0.1,0.2,0.2,0.2h0.2c0.3,0,0.3,0,0.4,0c0,0,0.2-0.3,0.3-0.3
				c0,0,0.6,0.4,0.6,0.5c0,0.1-0.1,0.1-0.4,0.1H20.2z M19.5,169.1c0,0.3-0.2,0.4-0.3,0.4s-0.2-0.1-0.2-0.3c-0.1-0.4-0.2-0.6-0.3-0.8
				c0-0.1,0-0.1,0-0.1c0,0,0,0,0,0c0.1,0,0.4,0.2,0.7,0.4C19.5,168.9,19.5,169,19.5,169.1z M20.2,171.6c-0.1,0-0.2,0-0.2,0.2
				c0,0.2,0.3,0.8,0.4,0.8c0.2,0,0.6-0.8,0.6-0.9c0-0.1-0.1-0.1-0.1-0.1H20.2z"></path>
			<path class="st1 svg-elem-20" d="M18.2,178.6c-0.1,0-0.2,0-0.2,0.1c0,0.1,0.2,0.9,0.3,1.3c0.1,0.2,0.3,0.6,0.4,0.6c0.1,0,0.1,0,0.3-0.3
				c0,0,0.1-0.1,0.1,0c0,0-0.1,0.5-0.1,0.6s0,0.2,0.1,0.3c0.1,0.1,0.1,0.2,0.1,0.3c0,0.1-0.1,0.2-0.2,0.2c-0.3,0-0.7-0.6-0.9-1.1
				c0-0.1-0.1-0.1-0.1-0.1c-0.1,0-0.1,0-0.2,0.1c-0.2,0.1-1.4,0.8-1.5,0.9c0,0-0.1,0.2-0.1,0.2c0,0-0.5-0.6-0.5-0.7c0,0,0,0,0,0
				c0,0,0.2,0,0.2,0c0.1,0,0.4,0,0.4-0.2c0-0.1,0-2.1,0-2.4c0-0.2,0-1.4,0-1.5c0,0,0-0.2,0-0.2c0,0,0,0,0,0c0.1,0,0.5,0.2,0.6,0.2
				c0,0,1.2-0.3,1.3-0.6c0.1-0.2,0.1-0.2,0.1-0.2c0,0,0.3,0.2,0.4,0.3c0.2,0.1,0.2,0.2,0.2,0.2c0,0.1-0.1,0.1-0.6,0.2
				c-0.3,0.1-0.4,0.1-0.4,0.2c0,0.1,0,0.5,0,0.9c0,0.5,0,0.6,0.2,0.6c0.2,0,0.2,0,0.3-0.1c0.1-0.1,0.2-0.3,0.3-0.3
				c0.1,0,0.5,0.5,0.5,0.5c0,0.1,0,0.1-0.4,0.1H18.2z M17.6,181.8c0.3,0,0.3,0,0.4-0.1c0.2-0.3,0.2-0.3,0.2-0.3c0,0,0.1,0,0.5,0.4
				c0,0,0,0,0,0.1c0,0.1-0.1,0.1-0.3,0.1h-1.1c-0.5,0-0.7,0-0.8,0c0,0-0.1,0-0.1,0c0,0,0,0-0.1,0l-0.1-0.2c0,0,0,0,0,0c0,0,0,0,0,0
				c0,0,0.2,0,0.3,0c0.3,0,0.5,0,0.8,0H17.6z M16.9,178.6c-0.1,0-0.2,0-0.2,0.1c0,0.1,0,1.6,0,1.7s0,0.2,0.1,0.2
				c0.2,0,0.8-0.3,0.9-0.3c0.2-0.1,0.3-0.1,0.3-0.2c0,0-0.1-0.4-0.1-0.4c0-0.2-0.2-1-0.2-1c0-0.1-0.1-0.1-0.2-0.1H16.9z M17.4,178.4
				c0.1,0,0.2,0,0.2-0.2c0,0,0-0.1,0-0.4c0-0.2,0-0.5,0-0.7c0-0.3,0-0.3-0.1-0.3c0,0-0.3,0-0.3,0c-0.2,0-0.3,0-0.3,0.1
				c0,0.1,0,0.9,0,1.2c0,0.1,0,0.2,0.2,0.2H17.4z M21,176.5c0.1,0,0.1,0,0.2-0.1c0-0.1,0.1-0.1,0.1-0.1c0.1,0,0.6,0.3,0.6,0.4
				c0,0.1-0.1,0.1-0.1,0.1c-0.1,0-0.1,0.1-0.1,0.1c-0.2,0.4-0.5,0.8-0.8,1.2c0,0.1-0.3,0.4-0.3,0.4c0,0,0.1,0.1,0.3,0.2
				c0.3,0.2,1.2,0.8,1.2,1.8c0,0.5-0.3,0.8-0.5,1c-0.2,0.1-0.5,0.2-0.6,0.2c0,0-0.1,0-0.1-0.1c-0.1-0.1-0.1-0.2-0.2-0.3
				c0,0-0.3-0.2-0.3-0.3c0,0,0.1,0,0.1,0c0.1,0,0.5,0,0.5,0c0.5,0,0.6-0.4,0.6-0.7c0-0.6-0.3-1.2-0.8-1.6c-0.2-0.1-0.2-0.2-0.2-0.2
				c0-0.1,0.2-0.3,0.2-0.4c0-0.1,0.4-1.3,0.4-1.4c0-0.1-0.1-0.1-0.1-0.1h-0.7c-0.1,0-0.2,0-0.2,0.1c0,0.1,0,1,0,1.1
				c0,1.1,0,2.8,0.1,3.8c0,0,0,0.3,0,0.4c0,0.2-0.2,0.3-0.4,0.3c-0.1,0-0.2,0-0.2-0.2c0,0,0-0.3,0-0.3c0-0.2,0-4.6,0-5
				c0-0.1,0-0.2,0-0.3c0-0.1,0-0.1,0-0.2c0,0,0-0.1,0.1-0.1c0,0,0.3,0.1,0.4,0.1c0.1,0,0.2,0,0.3,0H21z"></path>
		</g>
	</g>
</g>
</svg>
