<?xml version="1.0" encoding="utf-8"?>
<!-- Generator: Adobe Illustrator 25.2.1, SVG Export Plug-In . SVG Version: 6.00 Build 0)  -->
<svg version="1.1" id="レイヤー_1" xmlns="http://www.w3.org/2000/svg" xmlns:xlink="http://www.w3.org/1999/xlink" x="0px"
	 y="0px" width="206px" height="15px" viewBox="0 0 206 15" style="enable-background:new 0 0 206 15;" xml:space="preserve">
<style type="text/css">
	.st0{fill:#2C2521;}
</style>
<g>
	<path class="st0" d="M9.9,10.4v3.1C9,13.9,8,14.2,6.9,14.2c-1.9,0-3.5-0.6-4.7-1.9S0.3,9.4,0.3,7.5c0-1.9,0.6-3.5,1.9-4.8
		s2.9-1.9,4.7-1.9c1,0,2,0.2,2.9,0.7v3.1C9.1,3.9,8.1,3.5,6.9,3.5c-1.1,0-2,0.4-2.8,1.2C3.4,5.5,3.1,6.4,3.1,7.5
		c0,1.1,0.4,2.1,1.1,2.8c0.7,0.8,1.7,1.1,2.8,1.1C8.1,11.5,9.1,11.1,9.9,10.4z"/>
	<path class="st0" d="M25.4,14l-1-2.8h-4.6l-1,2.8h-3L20.6,1h3L28.4,14H25.4z M22.1,4.6l-1.4,4h2.9L22.1,4.6z"/>
	<path class="st0" d="M41.5,1.4v2.9c-0.9-0.6-1.8-0.9-2.8-0.9c-0.5,0-0.9,0.1-1.2,0.3c-0.3,0.2-0.4,0.5-0.4,0.8c0,0.4,0.3,0.8,1,1.2
		l1.7,1c1.6,0.9,2.3,2.1,2.3,3.6c0,1.1-0.4,2-1.1,2.8c-0.7,0.7-1.8,1.1-3.2,1.1c-1.1,0-2.2-0.2-3.3-0.7v-3c0.4,0.3,0.9,0.6,1.5,0.8
		c0.6,0.2,1.1,0.3,1.7,0.3c0.5,0,0.9-0.1,1.2-0.3c0.3-0.2,0.4-0.5,0.4-0.9c0-0.4-0.3-0.9-1-1.3l-1.8-1c-0.8-0.5-1.4-1-1.7-1.6
		c-0.3-0.6-0.5-1.2-0.5-2c0-0.5,0.1-0.9,0.2-1.4c0.2-0.4,0.4-0.8,0.8-1.2c0.3-0.4,0.8-0.7,1.4-0.9c0.6-0.2,1.3-0.3,2.1-0.3
		C39.7,0.8,40.7,1,41.5,1.4z"/>
	<path class="st0" d="M56.8,14h-7.4V1h7.4v2.6h-4.7v2.5h4.3v2.6h-4.3v2.6h4.7V14z"/>
	<path class="st0" d="M80.3,1.4v2.9c-0.9-0.6-1.8-0.9-2.8-0.9c-0.5,0-0.9,0.1-1.2,0.3s-0.4,0.5-0.4,0.8c0,0.4,0.3,0.8,1,1.2l1.7,1
		c1.6,0.9,2.3,2.1,2.3,3.6c0,1.1-0.4,2-1.1,2.8c-0.7,0.7-1.8,1.1-3.2,1.1c-1.1,0-2.2-0.2-3.3-0.7v-3c0.4,0.3,0.9,0.6,1.5,0.8
		s1.1,0.3,1.7,0.3c0.5,0,0.9-0.1,1.2-0.3c0.3-0.2,0.4-0.5,0.4-0.9c0-0.4-0.3-0.9-1-1.3l-1.8-1c-0.8-0.5-1.4-1-1.7-1.6
		C73.1,6,73,5.4,73,4.6c0-0.5,0.1-0.9,0.2-1.4C73.4,2.8,73.6,2.4,74,2c0.3-0.4,0.8-0.7,1.4-0.9c0.6-0.2,1.3-0.3,2.1-0.3
		C78.5,0.8,79.4,1,80.3,1.4z"/>
	<path class="st0" d="M90.2,14V3.6h-3.1V1h9v2.6h-3.1V14H90.2z"/>
	<path class="st0" d="M110,1h2.7v8.1c0,1.6-0.4,2.8-1.3,3.7c-0.9,0.9-2.1,1.3-3.6,1.3c-1.5,0-2.7-0.4-3.6-1.3
		c-0.9-0.9-1.3-2.1-1.3-3.7V1h2.7v8.3c0,0.7,0.2,1.2,0.6,1.6s0.9,0.6,1.6,0.6c0.7,0,1.2-0.2,1.6-0.6S110,10,110,9.3V1z"/>
	<path class="st0" d="M120.6,14V1h4.8c1.9,0,3.5,0.6,4.6,1.8s1.7,2.8,1.7,4.7s-0.6,3.5-1.7,4.7c-1.2,1.2-2.7,1.8-4.6,1.8H120.6z
		 M125.3,3.6h-2.1v7.7h2.1c1.1,0,2-0.4,2.7-1.1c0.6-0.7,1-1.6,1-2.8c0-1.1-0.3-2.1-1-2.8C127.4,4,126.5,3.6,125.3,3.6z"/>
	<path class="st0" d="M141.6,14V8.4L137.5,1h3l2.5,4.7l2.5-4.7h3l-4.2,7.4V14H141.6z"/>
	<path class="st0" d="M168.6,14l1-3.4h-2.8l-1,3.4h-1.8l1-3.4h-1.6V9.1h2.1l0.9-3H164V4.6h2.8l1.1-3.6h1.8l-1.1,3.6h2.8l1.1-3.6h1.8
		l-1.1,3.6h1.6v1.5h-2l-0.9,3h2.3v1.5h-2.8l-1,3.4H168.6z M168.2,6.1l-0.9,3h2.8l0.9-3H168.2z"/>
	<path class="st0" d="M182.8,2.2c0.9-0.9,2-1.3,3.4-1.3c1.4,0,2.5,0.4,3.4,1.3c0.9,0.9,1.3,2,1.3,3.4v4c0,1.4-0.4,2.5-1.3,3.4
		c-0.9,0.9-2,1.3-3.4,1.3c-1.4,0-2.5-0.4-3.4-1.3c-0.9-0.9-1.3-2-1.3-3.4v-4C181.5,4.2,181.9,3,182.8,2.2z M186.2,3.5
		c-0.6,0-1.1,0.2-1.5,0.6c-0.4,0.4-0.5,0.9-0.5,1.5v3.8c0,0.6,0.2,1.1,0.5,1.5s0.8,0.6,1.5,0.6c0.6,0,1.1-0.2,1.4-0.6
		s0.5-0.9,0.5-1.5V5.6c0-0.6-0.2-1.1-0.5-1.5C187.3,3.7,186.8,3.5,186.2,3.5z"/>
	<path class="st0" d="M197.5,14v-2.6h2.9V3.6H198V1h5.1v10.3h2.5V14H197.5z"/>
</g>
</svg>
