<svg version="1.1" xmlns="http://www.w3.org/2000/svg" xmlns:xlink="http://www.w3.org/1999/xlink" x="0px" y="0px" width="100%" height="100%" viewBox="0 0 60 200" style="enable-background:new 0 0 60 200;" xml:space="preserve">
<style type="text/css">
	.st0{fill:#FFFFFF;}
	.st1{fill:#3E3A39;}
	.st2{fill:none;stroke:#3E3A39;stroke-miterlimit:10;}
@-webkit-keyframes animate-svg-stroke-1{0%{stroke-dashoffset:503.79998779296875px;stroke-dasharray:503.79998779296875px}100%{stroke-dashoffset:0;stroke-dasharray:503.79998779296875px}}@keyframes animate-svg-stroke-1{0%{stroke-dashoffset:503.79998779296875px;stroke-dasharray:503.79998779296875px}100%{stroke-dashoffset:0;stroke-dasharray:503.79998779296875px}}@-webkit-keyframes animate-svg-fill-1{0%{fill:transparent}100%{fill:rgb(255,255,255)}}@keyframes animate-svg-fill-1{0%{fill:transparent}100%{fill:rgb(255,255,255)}}.svg-elem-1{-webkit-animation:animate-svg-stroke-1 1s cubic-bezier(0.47,0,0.745,0.715) 0s both,animate-svg-fill-1 0.7s cubic-bezier(0.47,0,0.745,0.715) 0.8s both;animation:animate-svg-stroke-1 1s cubic-bezier(0.47,0,0.745,0.715) 0s both,animate-svg-fill-1 0.7s cubic-bezier(0.47,0,0.745,0.715) 0.8s both}@-webkit-keyframes animate-svg-stroke-2{0%{stroke-dashoffset:118.59417724609375px;stroke-dasharray:118.59417724609375px}100%{stroke-dashoffset:0;stroke-dasharray:118.59417724609375px}}@keyframes animate-svg-stroke-2{0%{stroke-dashoffset:118.59417724609375px;stroke-dasharray:118.59417724609375px}100%{stroke-dashoffset:0;stroke-dasharray:118.59417724609375px}}@-webkit-keyframes animate-svg-fill-2{0%{fill:transparent}100%{fill:rgb(62,58,57)}}@keyframes animate-svg-fill-2{0%{fill:transparent}100%{fill:rgb(62,58,57)}}.svg-elem-2{-webkit-animation:animate-svg-stroke-2 1s cubic-bezier(0.47,0,0.745,0.715) 0.12s both,animate-svg-fill-2 0.7s cubic-bezier(0.47,0,0.745,0.715) 0.9s both;animation:animate-svg-stroke-2 1s cubic-bezier(0.47,0,0.745,0.715) 0.12s both,animate-svg-fill-2 0.7s cubic-bezier(0.47,0,0.745,0.715) 0.9s both}@-webkit-keyframes animate-svg-stroke-3{0%{stroke-dashoffset:56.96369934082031px;stroke-dasharray:56.96369934082031px}100%{stroke-dashoffset:0;stroke-dasharray:56.96369934082031px}}@keyframes animate-svg-stroke-3{0%{stroke-dashoffset:56.96369934082031px;stroke-dasharray:56.96369934082031px}100%{stroke-dashoffset:0;stroke-dasharray:56.96369934082031px}}@-webkit-keyframes animate-svg-fill-3{0%{fill:transparent}100%{fill:rgb(62,58,57)}}@keyframes animate-svg-fill-3{0%{fill:transparent}100%{fill:rgb(62,58,57)}}.svg-elem-3{-webkit-animation:animate-svg-stroke-3 1s cubic-bezier(0.47,0,0.745,0.715) 0.24s both,animate-svg-fill-3 0.7s cubic-bezier(0.47,0,0.745,0.715) 1s both;animation:animate-svg-stroke-3 1s cubic-bezier(0.47,0,0.745,0.715) 0.24s both,animate-svg-fill-3 0.7s cubic-bezier(0.47,0,0.745,0.715) 1s both}@-webkit-keyframes animate-svg-stroke-4{0%{stroke-dashoffset:62.08110046386719px;stroke-dasharray:62.08110046386719px}100%{stroke-dashoffset:0;stroke-dasharray:62.08110046386719px}}@keyframes animate-svg-stroke-4{0%{stroke-dashoffset:62.08110046386719px;stroke-dasharray:62.08110046386719px}100%{stroke-dashoffset:0;stroke-dasharray:62.08110046386719px}}@-webkit-keyframes animate-svg-fill-4{0%{fill:transparent}100%{fill:rgb(62,58,57)}}@keyframes animate-svg-fill-4{0%{fill:transparent}100%{fill:rgb(62,58,57)}}.svg-elem-4{-webkit-animation:animate-svg-stroke-4 1s cubic-bezier(0.47,0,0.745,0.715) 0.36s both,animate-svg-fill-4 0.7s cubic-bezier(0.47,0,0.745,0.715) 1.1s both;animation:animate-svg-stroke-4 1s cubic-bezier(0.47,0,0.745,0.715) 0.36s both,animate-svg-fill-4 0.7s cubic-bezier(0.47,0,0.745,0.715) 1.1s both}@-webkit-keyframes animate-svg-stroke-5{0%{stroke-dashoffset:106.23973846435547px;stroke-dasharray:106.23973846435547px}100%{stroke-dashoffset:0;stroke-dasharray:106.23973846435547px}}@keyframes animate-svg-stroke-5{0%{stroke-dashoffset:106.23973846435547px;stroke-dasharray:106.23973846435547px}100%{stroke-dashoffset:0;stroke-dasharray:106.23973846435547px}}@-webkit-keyframes animate-svg-fill-5{0%{fill:transparent}100%{fill:rgb(62,58,57)}}@keyframes animate-svg-fill-5{0%{fill:transparent}100%{fill:rgb(62,58,57)}}.svg-elem-5{-webkit-animation:animate-svg-stroke-5 1s cubic-bezier(0.47,0,0.745,0.715) 0.48s both,animate-svg-fill-5 0.7s cubic-bezier(0.47,0,0.745,0.715) 1.2000000000000002s both;animation:animate-svg-stroke-5 1s cubic-bezier(0.47,0,0.745,0.715) 0.48s both,animate-svg-fill-5 0.7s cubic-bezier(0.47,0,0.745,0.715) 1.2000000000000002s both}@-webkit-keyframes animate-svg-stroke-6{0%{stroke-dashoffset:42.234779357910156px;stroke-dasharray:42.234779357910156px}100%{stroke-dashoffset:0;stroke-dasharray:42.234779357910156px}}@keyframes animate-svg-stroke-6{0%{stroke-dashoffset:42.234779357910156px;stroke-dasharray:42.234779357910156px}100%{stroke-dashoffset:0;stroke-dasharray:42.234779357910156px}}@-webkit-keyframes animate-svg-fill-6{0%{fill:transparent}100%{fill:rgb(62,58,57)}}@keyframes animate-svg-fill-6{0%{fill:transparent}100%{fill:rgb(62,58,57)}}.svg-elem-6{-webkit-animation:animate-svg-stroke-6 1s cubic-bezier(0.47,0,0.745,0.715) 0.6s both,animate-svg-fill-6 0.7s cubic-bezier(0.47,0,0.745,0.715) 1.3s both;animation:animate-svg-stroke-6 1s cubic-bezier(0.47,0,0.745,0.715) 0.6s both,animate-svg-fill-6 0.7s cubic-bezier(0.47,0,0.745,0.715) 1.3s both}@-webkit-keyframes animate-svg-stroke-7{0%{stroke-dashoffset:53.47526550292969px;stroke-dasharray:53.47526550292969px}100%{stroke-dashoffset:0;stroke-dasharray:53.47526550292969px}}@keyframes animate-svg-stroke-7{0%{stroke-dashoffset:53.47526550292969px;stroke-dasharray:53.47526550292969px}100%{stroke-dashoffset:0;stroke-dasharray:53.47526550292969px}}@-webkit-keyframes animate-svg-fill-7{0%{fill:transparent}100%{fill:rgb(62,58,57)}}@keyframes animate-svg-fill-7{0%{fill:transparent}100%{fill:rgb(62,58,57)}}.svg-elem-7{-webkit-animation:animate-svg-stroke-7 1s cubic-bezier(0.47,0,0.745,0.715) 0.72s both,animate-svg-fill-7 0.7s cubic-bezier(0.47,0,0.745,0.715) 1.4000000000000001s both;animation:animate-svg-stroke-7 1s cubic-bezier(0.47,0,0.745,0.715) 0.72s both,animate-svg-fill-7 0.7s cubic-bezier(0.47,0,0.745,0.715) 1.4000000000000001s both}@-webkit-keyframes animate-svg-stroke-8{0%{stroke-dashoffset:51.175350189208984px;stroke-dasharray:51.175350189208984px}100%{stroke-dashoffset:0;stroke-dasharray:51.175350189208984px}}@keyframes animate-svg-stroke-8{0%{stroke-dashoffset:51.175350189208984px;stroke-dasharray:51.175350189208984px}100%{stroke-dashoffset:0;stroke-dasharray:51.175350189208984px}}@-webkit-keyframes animate-svg-fill-8{0%{fill:transparent}100%{fill:rgb(62,58,57)}}@keyframes animate-svg-fill-8{0%{fill:transparent}100%{fill:rgb(62,58,57)}}.svg-elem-8{-webkit-animation:animate-svg-stroke-8 1s cubic-bezier(0.47,0,0.745,0.715) 0.84s both,animate-svg-fill-8 0.7s cubic-bezier(0.47,0,0.745,0.715) 1.5s both;animation:animate-svg-stroke-8 1s cubic-bezier(0.47,0,0.745,0.715) 0.84s both,animate-svg-fill-8 0.7s cubic-bezier(0.47,0,0.745,0.715) 1.5s both}@-webkit-keyframes animate-svg-stroke-9{0%{stroke-dashoffset:62.08108901977539px;stroke-dasharray:62.08108901977539px}100%{stroke-dashoffset:0;stroke-dasharray:62.08108901977539px}}@keyframes animate-svg-stroke-9{0%{stroke-dashoffset:62.08108901977539px;stroke-dasharray:62.08108901977539px}100%{stroke-dashoffset:0;stroke-dasharray:62.08108901977539px}}@-webkit-keyframes animate-svg-fill-9{0%{fill:transparent}100%{fill:rgb(62,58,57)}}@keyframes animate-svg-fill-9{0%{fill:transparent}100%{fill:rgb(62,58,57)}}.svg-elem-9{-webkit-animation:animate-svg-stroke-9 1s cubic-bezier(0.47,0,0.745,0.715) 0.96s both,animate-svg-fill-9 0.7s cubic-bezier(0.47,0,0.745,0.715) 1.6s both;animation:animate-svg-stroke-9 1s cubic-bezier(0.47,0,0.745,0.715) 0.96s both,animate-svg-fill-9 0.7s cubic-bezier(0.47,0,0.745,0.715) 1.6s both}@-webkit-keyframes animate-svg-stroke-10{0%{stroke-dashoffset:65.7801284790039px;stroke-dasharray:65.7801284790039px}100%{stroke-dashoffset:0;stroke-dasharray:65.7801284790039px}}@keyframes animate-svg-stroke-10{0%{stroke-dashoffset:65.7801284790039px;stroke-dasharray:65.7801284790039px}100%{stroke-dashoffset:0;stroke-dasharray:65.7801284790039px}}@-webkit-keyframes animate-svg-fill-10{0%{fill:transparent}100%{fill:rgb(62,58,57)}}@keyframes animate-svg-fill-10{0%{fill:transparent}100%{fill:rgb(62,58,57)}}.svg-elem-10{-webkit-animation:animate-svg-stroke-10 1s cubic-bezier(0.47,0,0.745,0.715) 1.08s both,animate-svg-fill-10 0.7s cubic-bezier(0.47,0,0.745,0.715) 1.7000000000000002s both;animation:animate-svg-stroke-10 1s cubic-bezier(0.47,0,0.745,0.715) 1.08s both,animate-svg-fill-10 0.7s cubic-bezier(0.47,0,0.745,0.715) 1.7000000000000002s both}@-webkit-keyframes animate-svg-stroke-11{0%{stroke-dashoffset:111.17716979980469px;stroke-dasharray:111.17716979980469px}100%{stroke-dashoffset:0;stroke-dasharray:111.17716979980469px}}@keyframes animate-svg-stroke-11{0%{stroke-dashoffset:111.17716979980469px;stroke-dasharray:111.17716979980469px}100%{stroke-dashoffset:0;stroke-dasharray:111.17716979980469px}}@-webkit-keyframes animate-svg-fill-11{0%{fill:transparent}100%{fill:rgb(62,58,57)}}@keyframes animate-svg-fill-11{0%{fill:transparent}100%{fill:rgb(62,58,57)}}.svg-elem-11{-webkit-animation:animate-svg-stroke-11 1s cubic-bezier(0.47,0,0.745,0.715) 1.2s both,animate-svg-fill-11 0.7s cubic-bezier(0.47,0,0.745,0.715) 1.8s both;animation:animate-svg-stroke-11 1s cubic-bezier(0.47,0,0.745,0.715) 1.2s both,animate-svg-fill-11 0.7s cubic-bezier(0.47,0,0.745,0.715) 1.8s both}@-webkit-keyframes animate-svg-stroke-12{0%{stroke-dashoffset:56.49479675292969px;stroke-dasharray:56.49479675292969px}100%{stroke-dashoffset:0;stroke-dasharray:56.49479675292969px}}@keyframes animate-svg-stroke-12{0%{stroke-dashoffset:56.49479675292969px;stroke-dasharray:56.49479675292969px}100%{stroke-dashoffset:0;stroke-dasharray:56.49479675292969px}}@-webkit-keyframes animate-svg-fill-12{0%{fill:transparent}100%{fill:rgb(62,58,57)}}@keyframes animate-svg-fill-12{0%{fill:transparent}100%{fill:rgb(62,58,57)}}.svg-elem-12{-webkit-animation:animate-svg-stroke-12 1s cubic-bezier(0.47,0,0.745,0.715) 1.3199999999999998s both,animate-svg-fill-12 0.7s cubic-bezier(0.47,0,0.745,0.715) 1.9000000000000001s both;animation:animate-svg-stroke-12 1s cubic-bezier(0.47,0,0.745,0.715) 1.3199999999999998s both,animate-svg-fill-12 0.7s cubic-bezier(0.47,0,0.745,0.715) 1.9000000000000001s both}@-webkit-keyframes animate-svg-stroke-13{0%{stroke-dashoffset:57.808658599853516px;stroke-dasharray:57.808658599853516px}100%{stroke-dashoffset:0;stroke-dasharray:57.808658599853516px}}@keyframes animate-svg-stroke-13{0%{stroke-dashoffset:57.808658599853516px;stroke-dasharray:57.808658599853516px}100%{stroke-dashoffset:0;stroke-dasharray:57.808658599853516px}}@-webkit-keyframes animate-svg-fill-13{0%{fill:transparent}100%{fill:rgb(62,58,57)}}@keyframes animate-svg-fill-13{0%{fill:transparent}100%{fill:rgb(62,58,57)}}.svg-elem-13{-webkit-animation:animate-svg-stroke-13 1s cubic-bezier(0.47,0,0.745,0.715) 1.44s both,animate-svg-fill-13 0.7s cubic-bezier(0.47,0,0.745,0.715) 2s both;animation:animate-svg-stroke-13 1s cubic-bezier(0.47,0,0.745,0.715) 1.44s both,animate-svg-fill-13 0.7s cubic-bezier(0.47,0,0.745,0.715) 2s both}@-webkit-keyframes animate-svg-stroke-14{0%{stroke-dashoffset:106.64896392822266px;stroke-dasharray:106.64896392822266px}100%{stroke-dashoffset:0;stroke-dasharray:106.64896392822266px}}@keyframes animate-svg-stroke-14{0%{stroke-dashoffset:106.64896392822266px;stroke-dasharray:106.64896392822266px}100%{stroke-dashoffset:0;stroke-dasharray:106.64896392822266px}}@-webkit-keyframes animate-svg-fill-14{0%{fill:transparent}100%{fill:rgb(62,58,57)}}@keyframes animate-svg-fill-14{0%{fill:transparent}100%{fill:rgb(62,58,57)}}.svg-elem-14{-webkit-animation:animate-svg-stroke-14 1s cubic-bezier(0.47,0,0.745,0.715) 1.56s both,animate-svg-fill-14 0.7s cubic-bezier(0.47,0,0.745,0.715) 2.1s both;animation:animate-svg-stroke-14 1s cubic-bezier(0.47,0,0.745,0.715) 1.56s both,animate-svg-fill-14 0.7s cubic-bezier(0.47,0,0.745,0.715) 2.1s both}@-webkit-keyframes animate-svg-stroke-15{0%{stroke-dashoffset:126.89999389648438px;stroke-dasharray:126.89999389648438px}100%{stroke-dashoffset:0;stroke-dasharray:126.89999389648438px}}@keyframes animate-svg-stroke-15{0%{stroke-dashoffset:126.89999389648438px;stroke-dasharray:126.89999389648438px}100%{stroke-dashoffset:0;stroke-dasharray:126.89999389648438px}}.svg-elem-15{-webkit-animation:animate-svg-stroke-15 1s cubic-bezier(0.47,0,0.745,0.715) 1.68s both,animate-svg-fill-15 0.7s cubic-bezier(0.47,0,0.745,0.715) 2.2s both;animation:animate-svg-stroke-15 1s cubic-bezier(0.47,0,0.745,0.715) 1.68s both,animate-svg-fill-15 0.7s cubic-bezier(0.47,0,0.745,0.715) 2.2s both}@-webkit-keyframes animate-svg-stroke-16{0%{stroke-dashoffset:128.3000030517578px;stroke-dasharray:128.3000030517578px}100%{stroke-dashoffset:0;stroke-dasharray:128.3000030517578px}}@keyframes animate-svg-stroke-16{0%{stroke-dashoffset:128.3000030517578px;stroke-dasharray:128.3000030517578px}100%{stroke-dashoffset:0;stroke-dasharray:128.3000030517578px}}.svg-elem-16{-webkit-animation:animate-svg-stroke-16 1s cubic-bezier(0.47,0,0.745,0.715) 1.7999999999999998s both,animate-svg-fill-16 0.7s cubic-bezier(0.47,0,0.745,0.715) 2.3s both;animation:animate-svg-stroke-16 1s cubic-bezier(0.47,0,0.745,0.715) 1.7999999999999998s both,animate-svg-fill-16 0.7s cubic-bezier(0.47,0,0.745,0.715) 2.3s both}@-webkit-keyframes animate-svg-stroke-17{0%{stroke-dashoffset:49.964107513427734px;stroke-dasharray:49.964107513427734px}100%{stroke-dashoffset:0;stroke-dasharray:49.964107513427734px}}@keyframes animate-svg-stroke-17{0%{stroke-dashoffset:49.964107513427734px;stroke-dasharray:49.964107513427734px}100%{stroke-dashoffset:0;stroke-dasharray:49.964107513427734px}}@-webkit-keyframes animate-svg-fill-17{0%{fill:transparent}100%{fill:rgb(62,58,57)}}@keyframes animate-svg-fill-17{0%{fill:transparent}100%{fill:rgb(62,58,57)}}.svg-elem-17{-webkit-animation:animate-svg-stroke-17 1s cubic-bezier(0.47,0,0.745,0.715) 1.92s both,animate-svg-fill-17 0.7s cubic-bezier(0.47,0,0.745,0.715) 2.4000000000000004s both;animation:animate-svg-stroke-17 1s cubic-bezier(0.47,0,0.745,0.715) 1.92s both,animate-svg-fill-17 0.7s cubic-bezier(0.47,0,0.745,0.715) 2.4000000000000004s both}@-webkit-keyframes animate-svg-stroke-18{0%{stroke-dashoffset:74.86631774902344px;stroke-dasharray:74.86631774902344px}100%{stroke-dashoffset:0;stroke-dasharray:74.86631774902344px}}@keyframes animate-svg-stroke-18{0%{stroke-dashoffset:74.86631774902344px;stroke-dasharray:74.86631774902344px}100%{stroke-dashoffset:0;stroke-dasharray:74.86631774902344px}}@-webkit-keyframes animate-svg-fill-18{0%{fill:transparent}100%{fill:rgb(62,58,57)}}@keyframes animate-svg-fill-18{0%{fill:transparent}100%{fill:rgb(62,58,57)}}.svg-elem-18{-webkit-animation:animate-svg-stroke-18 1s cubic-bezier(0.47,0,0.745,0.715) 2.04s both,animate-svg-fill-18 0.7s cubic-bezier(0.47,0,0.745,0.715) 2.5s both;animation:animate-svg-stroke-18 1s cubic-bezier(0.47,0,0.745,0.715) 2.04s both,animate-svg-fill-18 0.7s cubic-bezier(0.47,0,0.745,0.715) 2.5s both}@-webkit-keyframes animate-svg-stroke-19{0%{stroke-dashoffset:62.635677337646484px;stroke-dasharray:62.635677337646484px}100%{stroke-dashoffset:0;stroke-dasharray:62.635677337646484px}}@keyframes animate-svg-stroke-19{0%{stroke-dashoffset:62.635677337646484px;stroke-dasharray:62.635677337646484px}100%{stroke-dashoffset:0;stroke-dasharray:62.635677337646484px}}@-webkit-keyframes animate-svg-fill-19{0%{fill:transparent}100%{fill:rgb(62,58,57)}}@keyframes animate-svg-fill-19{0%{fill:transparent}100%{fill:rgb(62,58,57)}}.svg-elem-19{-webkit-animation:animate-svg-stroke-19 1s cubic-bezier(0.47,0,0.745,0.715) 2.16s both,animate-svg-fill-19 0.7s cubic-bezier(0.47,0,0.745,0.715) 2.6s both;animation:animate-svg-stroke-19 1s cubic-bezier(0.47,0,0.745,0.715) 2.16s both,animate-svg-fill-19 0.7s cubic-bezier(0.47,0,0.745,0.715) 2.6s both}@-webkit-keyframes animate-svg-stroke-20{0%{stroke-dashoffset:49.99607849121094px;stroke-dasharray:49.99607849121094px}100%{stroke-dashoffset:0;stroke-dasharray:49.99607849121094px}}@keyframes animate-svg-stroke-20{0%{stroke-dashoffset:49.99607849121094px;stroke-dasharray:49.99607849121094px}100%{stroke-dashoffset:0;stroke-dasharray:49.99607849121094px}}@-webkit-keyframes animate-svg-fill-20{0%{fill:transparent}100%{fill:rgb(62,58,57)}}@keyframes animate-svg-fill-20{0%{fill:transparent}100%{fill:rgb(62,58,57)}}.svg-elem-20{-webkit-animation:animate-svg-stroke-20 1s cubic-bezier(0.47,0,0.745,0.715) 2.28s both,animate-svg-fill-20 0.7s cubic-bezier(0.47,0,0.745,0.715) 2.7s both;animation:animate-svg-stroke-20 1s cubic-bezier(0.47,0,0.745,0.715) 2.28s both,animate-svg-fill-20 0.7s cubic-bezier(0.47,0,0.745,0.715) 2.7s both}@-webkit-keyframes animate-svg-stroke-21{0%{stroke-dashoffset:19.957998275756836px;stroke-dasharray:19.957998275756836px}100%{stroke-dashoffset:0;stroke-dasharray:19.957998275756836px}}@keyframes animate-svg-stroke-21{0%{stroke-dashoffset:19.957998275756836px;stroke-dasharray:19.957998275756836px}100%{stroke-dashoffset:0;stroke-dasharray:19.957998275756836px}}@-webkit-keyframes animate-svg-fill-21{0%{fill:transparent}100%{fill:rgb(62,58,57)}}@keyframes animate-svg-fill-21{0%{fill:transparent}100%{fill:rgb(62,58,57)}}.svg-elem-21{-webkit-animation:animate-svg-stroke-21 1s cubic-bezier(0.47,0,0.745,0.715) 2.4s both,animate-svg-fill-21 0.7s cubic-bezier(0.47,0,0.745,0.715) 2.8s both;animation:animate-svg-stroke-21 1s cubic-bezier(0.47,0,0.745,0.715) 2.4s both,animate-svg-fill-21 0.7s cubic-bezier(0.47,0,0.745,0.715) 2.8s both}@-webkit-keyframes animate-svg-stroke-22{0%{stroke-dashoffset:37.07749938964844px;stroke-dasharray:37.07749938964844px}100%{stroke-dashoffset:0;stroke-dasharray:37.07749938964844px}}@keyframes animate-svg-stroke-22{0%{stroke-dashoffset:37.07749938964844px;stroke-dasharray:37.07749938964844px}100%{stroke-dashoffset:0;stroke-dasharray:37.07749938964844px}}@-webkit-keyframes animate-svg-fill-22{0%{fill:transparent}100%{fill:rgb(62,58,57)}}@keyframes animate-svg-fill-22{0%{fill:transparent}100%{fill:rgb(62,58,57)}}.svg-elem-22{-webkit-animation:animate-svg-stroke-22 1s cubic-bezier(0.47,0,0.745,0.715) 2.52s both,animate-svg-fill-22 0.7s cubic-bezier(0.47,0,0.745,0.715) 2.9000000000000004s both;animation:animate-svg-stroke-22 1s cubic-bezier(0.47,0,0.745,0.715) 2.52s both,animate-svg-fill-22 0.7s cubic-bezier(0.47,0,0.745,0.715) 2.9000000000000004s both}@-webkit-keyframes animate-svg-stroke-23{0%{stroke-dashoffset:77.82156372070312px;stroke-dasharray:77.82156372070312px}100%{stroke-dashoffset:0;stroke-dasharray:77.82156372070312px}}@keyframes animate-svg-stroke-23{0%{stroke-dashoffset:77.82156372070312px;stroke-dasharray:77.82156372070312px}100%{stroke-dashoffset:0;stroke-dasharray:77.82156372070312px}}@-webkit-keyframes animate-svg-fill-23{0%{fill:transparent}100%{fill:rgb(62,58,57)}}@keyframes animate-svg-fill-23{0%{fill:transparent}100%{fill:rgb(62,58,57)}}.svg-elem-23{-webkit-animation:animate-svg-stroke-23 1s cubic-bezier(0.47,0,0.745,0.715) 2.6399999999999997s both,animate-svg-fill-23 0.7s cubic-bezier(0.47,0,0.745,0.715) 3s both;animation:animate-svg-stroke-23 1s cubic-bezier(0.47,0,0.745,0.715) 2.6399999999999997s both,animate-svg-fill-23 0.7s cubic-bezier(0.47,0,0.745,0.715) 3s both}@-webkit-keyframes animate-svg-stroke-24{0%{stroke-dashoffset:69.47340393066406px;stroke-dasharray:69.47340393066406px}100%{stroke-dashoffset:0;stroke-dasharray:69.47340393066406px}}@keyframes animate-svg-stroke-24{0%{stroke-dashoffset:69.47340393066406px;stroke-dasharray:69.47340393066406px}100%{stroke-dashoffset:0;stroke-dasharray:69.47340393066406px}}@-webkit-keyframes animate-svg-fill-24{0%{fill:transparent}100%{fill:rgb(62,58,57)}}@keyframes animate-svg-fill-24{0%{fill:transparent}100%{fill:rgb(62,58,57)}}.svg-elem-24{-webkit-animation:animate-svg-stroke-24 1s cubic-bezier(0.47,0,0.745,0.715) 2.76s both,animate-svg-fill-24 0.7s cubic-bezier(0.47,0,0.745,0.715) 3.1000000000000005s both;animation:animate-svg-stroke-24 1s cubic-bezier(0.47,0,0.745,0.715) 2.76s both,animate-svg-fill-24 0.7s cubic-bezier(0.47,0,0.745,0.715) 3.1000000000000005s both}
</style>
<g>
	<rect x="2.6" y="2" class="st0 svg-elem-1" width="55" height="195.9"></rect>
	<g>
		<g>
			<path class="st1 svg-elem-2" d="M42.2,29.4c0,0,0,0.1,0,0.1c0,0.1,0.1,0.2,0.2,0.2H44c0.5,0,0.9,0,1.4,0c0.3,0,0.2,0.1,0.2,0.5
				s0,0.5-0.2,0.5c-0.5,0-0.9,0-1.4,0h-7.3c-0.5,0-0.9,0-1.4,0c-0.2,0-0.2-0.1-0.2-0.5c0-0.3,0-0.5,0.2-0.5c0.5,0,0.9,0,1.4,0h1.5
				c0,0,0.2,0,0.2-0.2c0,0,0-0.1,0-0.1c-0.1-0.3-0.2-0.4-0.3-0.6c0-0.1-0.1-0.2-0.2-0.2h-0.3c-0.3,0-0.7-0.1-0.7-0.5
				c0-0.2,0-0.4,0-0.6v-0.3c0-0.2,0-0.4,0-0.6c0-0.4,0.4-0.5,0.7-0.5c0.3,0,0.6,0,0.9,0h3.7c0.3,0,0.6,0,0.9,0s0.7,0,0.7,0.5
				c0,0.2,0,0.4,0,0.6v0.3c0,0.2,0,0.4,0,0.6c0,0.4-0.4,0.5-0.7,0.5c-0.2,0-0.3,0-0.5,0c0,0,0,0,0,0c0,0,0,0,0,0
				c0.1,0,0.2,0.1,0.2,0.1c0,0.1-0.1,0.1-0.2,0.2c-0.1,0-0.1,0-0.2,0.1C42.3,29.2,42.2,29.3,42.2,29.4z M37,25.7c-0.5,0-0.9,0-1.4,0
				c-0.2,0-0.2-0.1-0.2-0.4c0-0.3,0-0.4,0.2-0.4c0.5,0,0.9,0,1.4,0h6.7c0.5,0,0.9,0,1.4,0c0.2,0,0.2,0.1,0.2,0.4
				c0,0.3,0,0.4-0.2,0.4c-0.5,0-0.9,0-1.4,0H37z M40.1,20.9h0.5c0.2,0,0.3-0.1,0.3-0.3c0-0.1,0-0.3,0-0.3c0-0.1,0.1-0.2,0.2-0.2
				c0.1,0,0.8,0.1,1,0.1c0.1,0,0.3,0,0.3,0.2c0,0.1-0.1,0.1-0.2,0.2c0,0-0.1,0.1-0.1,0.2c0,0.2,0.2,0.2,0.3,0.2h0.3c0.3,0,0.7,0,1,0
				c0.3,0,0.6,0,0.6,0.4c0,0.2,0,0.4,0,0.6v1.5c0,0.2,0,0.4,0,0.6c0,0.4-0.3,0.4-0.6,0.4c-0.3,0-0.7,0-1,0H38c-0.3,0-0.7,0-1,0
				c-0.3,0-0.6,0-0.6-0.4c0-0.2,0-0.4,0-0.6V22c0-0.2,0-0.4,0-0.6c0-0.4,0.3-0.4,0.6-0.4c0.3,0,0.7,0,1,0h0.3c0.2,0,0.3-0.1,0.3-0.3
				c0-0.1,0-0.3,0-0.3c0-0.1,0.1-0.2,0.2-0.2c0.2,0,0.8,0.1,1,0.1c0.1,0,0.3,0,0.3,0.2c0,0.1-0.1,0.1-0.2,0.2c0,0-0.1,0.1-0.1,0.2
				C39.8,20.9,39.9,20.9,40.1,20.9z M38.3,22.3c0.2,0,0.3-0.1,0.3-0.3V22c0-0.2-0.1-0.3-0.3-0.3h-0.6c-0.2,0-0.3,0.1-0.3,0.3V22
				c0,0.2,0.1,0.3,0.3,0.3H38.3z M37.4,23.5c0,0.2,0.1,0.3,0.3,0.3h0.6c0.2,0,0.3-0.1,0.3-0.3v-0.1c0-0.2-0.1-0.3-0.3-0.3h-0.6
				c-0.2,0-0.3,0.1-0.3,0.3V23.5z M42.7,27.3c0-0.2-0.1-0.3-0.3-0.3h-4.1c-0.2,0-0.3,0.1-0.3,0.3v0.2c0,0.2,0.1,0.3,0.3,0.3h4.1
				c0.2,0,0.3-0.1,0.3-0.3V27.3z M39.5,28.6c-0.1,0-0.2,0-0.2,0.2c0,0,0,0.1,0,0.1c0.1,0.2,0.2,0.4,0.3,0.6c0,0.1,0.1,0.2,0.2,0.2
				h0.7c0.3,0,0.4,0,0.5-0.3c0.1-0.2,0.2-0.4,0.3-0.5c0,0,0-0.1,0-0.1c0-0.1-0.1-0.2-0.2-0.2H39.5z M39.7,22c0,0.2,0.1,0.3,0.3,0.3
				h0.6c0.2,0,0.3-0.1,0.3-0.3V22c0-0.2-0.1-0.3-0.3-0.3H40C39.8,21.7,39.7,21.8,39.7,22L39.7,22z M40.9,23.3c0-0.2-0.1-0.3-0.3-0.3
				H40c-0.2,0-0.3,0.1-0.3,0.3v0.1c0,0.2,0.1,0.3,0.3,0.3h0.6c0.2,0,0.3-0.1,0.3-0.3V23.3z M42,22c0,0.2,0.1,0.3,0.3,0.3h0.6
				c0.2,0,0.3-0.1,0.3-0.3V22c0-0.2-0.1-0.3-0.3-0.3h-0.6C42.1,21.7,42,21.8,42,22L42,22z M42.3,23.1c-0.2,0-0.3,0.1-0.3,0.3v0.1
				c0,0.2,0.1,0.3,0.3,0.3h0.6c0.2,0,0.3-0.1,0.3-0.3v-0.1c0-0.2-0.1-0.3-0.3-0.3H42.3z"></path>
			<path class="st1 svg-elem-3" d="M40.2,37.9c0.1,0,0.3,0.1,0.3,0.2c0,0.1,0,0.1-0.1,0.1c-0.2,0.2-0.3,0.4-0.3,0.8c0,0.1,0,0.3-0.1,0.5
				c0,0,0,0.1,0,0.1c0,0.2,0.1,0.3,0.3,0.3c0,0,0.1,0,0.1,0c0.5,0,0.9,0,1.4,0.3c0.6,0.4,0.7,1.1,0.7,1.7c0,1.1-0.2,2.7-0.7,3.7
				c-0.5,0.9-1.3,1.3-2.3,1.3c-0.3,0-0.4,0-0.6-0.3c-0.1-0.2-0.2-0.6-0.2-0.9c0-0.1,0-0.2,0.2-0.2s0.3,0,0.6,0
				c0.6,0,0.9-0.1,1.2-0.7c0.3-0.7,0.5-1.9,0.5-2.7c0-0.6,0-1.1-0.8-1.1c-0.7,0-0.8,0.1-0.9,0.4c-0.3,1.2-0.9,2.5-1.5,3.6
				c-0.3,0.5-0.8,1.3-1.2,1.7c-0.1,0.1-0.1,0.1-0.2,0.1c-0.2,0-1-0.5-1-0.7c0-0.1,0.1-0.2,0.2-0.3c0.9-1,1.6-2.1,2.1-3.3
				c0.1-0.1,0.3-0.8,0.3-0.9c0-0.1-0.1-0.2-0.2-0.2c-0.2,0-1.2,0.3-1.4,0.4c-0.1,0-0.2,0.1-0.3,0.1c-0.3,0-0.5-1.2-0.5-1.2
				c0-0.2,0.2-0.2,0.4-0.2c0.6-0.1,1.4-0.2,2-0.4c0.2,0,0.4-0.1,0.4-0.4c0.1-0.4,0.1-1.1,0.1-1.5c0-0.1,0-0.3,0-0.4
				c0-0.1,0-0.2,0.1-0.2C39.1,37.6,40,37.8,40.2,37.9z M45.4,41.8c0,0.3-0.8,0.7-1,0.7c-0.2,0-0.2-0.2-0.3-0.3
				c-0.5-1-0.8-1.7-1.6-2.6c0,0-0.1-0.1-0.1-0.2c0-0.2,0.7-0.6,0.9-0.6C43.8,38.8,45.4,41.5,45.4,41.8z"></path>
			<path class="st1 svg-elem-4" d="M40.2,54.3c0.1,0,0.2,0.1,0.2,0.1s-0.1,0.1-0.2,0.2c-0.1,0.1-0.2,0.5-0.2,0.6c0,0.1-0.1,0.5-0.1,0.5
				c0,0.1,0,0.2,0.1,0.2s0.6-0.1,0.7-0.2c0,0,0.1,0,0.1,0c0.1,0,0.2,0.2,0.2,0.4c0,0.2,0.1,0.5,0.1,0.6c0,0.3-0.1,0.3-1.2,0.5
				c-0.4,0.1-0.4,0.2-0.6,0.6c-0.5,1.5-1.2,2.9-2,4.3c-0.1,0.1-0.1,0.2-0.2,0.2c-0.3,0-1.1-0.3-1.1-0.6c0-0.1,0.2-0.3,0.2-0.4
				c0.5-0.8,1.1-1.9,1.4-2.8c0.1-0.1,0.3-0.6,0.3-0.7c0-0.1-0.1-0.2-0.2-0.2c-0.1,0-1,0.1-1.3,0.1c-0.2,0-0.3-0.1-0.3-0.4
				c0-0.1-0.1-0.6-0.1-0.7c0-0.2,0.1-0.2,0.2-0.2h0.6c0.4,0,0.8,0,1.2-0.1c0.2,0,0.3,0,0.4-0.2c0.2-0.3,0.4-1.6,0.4-2
				c0-0.1,0-0.2,0.1-0.2C39,54,40,54.2,40.2,54.3z M41.9,57.9c0.1,0,0.2,0.1,0.2,0.3c0,0,0,0.4,0,0.6c0,0.3,0.1,2.1,0.1,2.3
				c0,0.2,0.2,0.2,0.4,0.3c0,0,0.1,0,0.1,0c0.3,0.1,1.7,0.8,1.7,1.1c0,0.2-0.4,0.9-0.7,0.9c-0.1,0-0.2-0.1-0.3-0.2
				c-0.2-0.1-0.8-0.6-1-0.6c-0.1,0-0.2,0.2-0.2,0.3c-0.1,0.9-0.9,1.2-1.7,1.2c-1,0-2.1-0.5-2.1-1.6c0-1.1,1-1.5,2-1.5h0.3
				c0.1,0,0.3-0.1,0.3-0.2c0-0.4-0.2-2.1-0.2-2.6c0-0.1,0-0.1,0-0.2c0-0.2,0.1-0.3,0.3-0.3C41.3,57.8,41.7,57.8,41.9,57.9z
				 M39.7,62.4c0,0.4,0.5,0.6,0.8,0.6c0.4,0,0.6-0.2,0.6-0.6c0-0.2,0-0.4-0.6-0.4C40.2,62,39.7,62.1,39.7,62.4z M44.9,57.9
				c0,0.3-0.7,0.8-0.9,0.8c-0.1,0-0.2-0.1-0.3-0.2c-0.4-0.6-1-1.1-1.5-1.5c0,0-0.2-0.1-0.2-0.2c0-0.2,0.6-0.8,0.8-0.8
				C43.2,55.9,44.9,57.6,44.9,57.9z"></path>
			<path class="st1 svg-elem-5" d="M35.9,80.4c-0.1,0.1-0.1,0.2-0.2,0.2c-0.2,0-0.7-0.5-0.7-0.7c0-0.1,0.1-0.2,0.2-0.3c0.5-0.5,1-1.3,1.3-1.9
				c0,0,0-0.1,0-0.1c0-0.1-0.1-0.2-0.2-0.2c-0.3,0-0.7,0-0.9,0c-0.2,0-0.2-0.1-0.2-0.5c0-0.4,0-0.5,0.2-0.5c0.3,0,0.6,0,1,0h0.3
				c0.2,0,0.3-0.1,0.3-0.3c0-0.2,0-0.4,0-0.6c0,0,0-0.1,0-0.1c0-0.1,0.1-0.2,0.2-0.2c0.2,0,0.9,0.1,1.1,0.1c0.1,0,0.2,0,0.2,0.1
				s-0.1,0.1-0.2,0.2C38,75.6,38,75.7,38,76.1c0,0.2,0.1,0.3,0.3,0.3h0.2c0.4,0,0.7,0,1,0c0.2,0,0.2,0.1,0.2,0.5
				c0,0.4,0,0.5-0.2,0.5c-0.2,0-0.6,0-1,0h-0.1c-0.1,0-0.2,0-0.2,0.1c0,0,0,0.1,0,0.1c0.4,0.3,0.7,0.6,1.1,0.9
				c0.1,0.1,0.2,0.2,0.2,0.3c0,0.2-0.4,0.7-0.6,0.7c-0.2,0-0.7-0.5-0.8-0.7c0,0-0.1,0-0.1,0c-0.1,0-0.1,0.1-0.1,0.1v0.6
				c0,0.5,0,0.9,0,1.4c0,0.3-0.1,0.3-0.6,0.3c-0.5,0-0.6,0-0.6-0.3c0-0.5,0-0.9,0-1.4v-0.4c0,0,0-0.1-0.1-0.1c0,0-0.1,0-0.1,0
				C36.5,79.5,36.1,80.1,35.9,80.4z M39.7,73.5c0-0.1,0-0.2-0.1-0.2c0,0-0.1,0-0.1,0c-1,0.8-2,1.3-3.2,1.9c-0.1,0-0.5,0.2-0.5,0.2
				c-0.2,0-0.6-0.7-0.6-0.9c0-0.2,0.1-0.2,0.3-0.3c1-0.4,2-0.9,2.9-1.5c0,0,0.1,0,0.1-0.1c0-0.1-0.1-0.1-0.1-0.1h-1.1
				c-0.4,0-0.9,0-1.3,0c-0.3,0-0.3-0.1-0.3-0.5c0-0.4,0-0.5,0.3-0.5c0.4,0,0.9,0,1.3,0h2.2c0.2,0,0.3-0.1,0.3-0.3c0-0.2,0-0.3,0-0.5
				c0,0,0-0.1,0-0.1c0-0.1,0.1-0.2,0.2-0.2c0.2,0,0.8,0.1,1,0.1c0.1,0,0.3,0,0.3,0.2c0,0.1-0.1,0.1-0.2,0.2
				c-0.1,0.1-0.1,0.3-0.1,0.4c0,0.2,0.1,0.3,0.3,0.3h2.2c0.4,0,0.9,0,1.3,0c0.3,0,0.3,0.1,0.3,0.5c0,0.4,0,0.5-0.3,0.5
				c-0.4,0-0.9,0-1.3,0h-1.1c-0.1,0-0.1,0-0.1,0.1c0,0,0,0.1,0,0.1C43,73.5,44,74,45,74.3c0.3,0.1,0.4,0.1,0.4,0.3
				c0,0.2-0.4,0.9-0.7,0.9c-0.2,0-1.2-0.5-1.4-0.6c-0.7-0.4-1.6-0.9-2.2-1.5c0,0-0.1,0-0.1,0c-0.1,0-0.1,0.1-0.1,0.2v0.7
				c0,0.4,0,0.8,0,1.2c0,0.4-0.1,0.4-0.6,0.4c-0.4,0-0.6,0-0.6-0.4c0-0.4,0-0.8,0-1.2V73.5z M40.2,80.7c-0.1,0.1-0.1,0.1-0.2,0.1
				c-0.2,0-0.7-0.5-0.7-0.7c0-0.1,0.1-0.2,0.2-0.3c0.6-0.6,1.4-1.4,1.8-2.1c0,0,0-0.1,0-0.1c0-0.1-0.1-0.2-0.2-0.2
				c-0.3,0-0.5,0-0.8,0c-0.3,0-0.3-0.1-0.3-0.5c0-0.4,0-0.5,0.3-0.5c0.4,0,0.7,0,1.1,0h0.1c0.2,0,0.3-0.1,0.3-0.3c0-0.2,0-0.5,0-0.7
				c0,0,0-0.1,0-0.1c0-0.1,0.1-0.2,0.2-0.2c0.2,0,0.7,0.1,0.9,0.1c0.1,0,0.3,0,0.3,0.2c0,0.1-0.1,0.1-0.2,0.2
				c-0.1,0.1-0.2,0.2-0.2,0.4v0.1c0,0.2,0.1,0.3,0.3,0.3h0.8c0.4,0,0.7,0,1.1,0c0.3,0,0.3,0.1,0.3,0.5c0,0.4,0,0.5-0.3,0.5
				c-0.3,0-0.7,0-1.1,0h-0.3c-0.1,0-0.2,0-0.2,0.2c0,0,0,0.1,0,0.1c0.6,0.8,1,1.4,1.8,2.1c0.1,0.1,0.2,0.1,0.2,0.2
				c0,0.3-0.5,0.7-0.7,0.7c-0.3,0-1.5-1.6-1.7-1.9c0,0,0,0-0.1,0c-0.1,0-0.1,0-0.1,0.1v0.9c0,0.4,0,0.8,0,1.2c0,0.4-0.1,0.4-0.6,0.4
				c-0.5,0-0.6,0-0.6-0.4c0-0.4,0-0.8,0-1.2v-0.9c0,0,0-0.1-0.1-0.1c0,0-0.1,0-0.1,0C41.3,79.4,40.8,80.2,40.2,80.7z"></path>
			<path class="st1 svg-elem-6" d="M38.7,88.1c0.2,0,0.4-0.1,0.6-0.1c0.3,0,0.3,0.2,0.3,0.5c0.1,0.7,0.2,1.4,0.4,2.1c0,0.2,0.1,0.4,0.3,0.4
				c0.2,0,2.1-1.1,2.4-1.3c0.1,0,0.2-0.1,0.3-0.1c0.2,0,0.4,0.4,0.4,0.5c0.1,0.2,0.3,0.6,0.3,0.7c0,0.1-0.1,0.2-0.2,0.2
				c-0.9,0.3-2.1,0.9-3,1.4c-0.6,0.3-1.7,0.9-2.2,1.4c-0.3,0.3-0.6,0.6-0.6,1.1c0,0.4,0.4,0.7,0.8,0.9c0.5,0.2,1.1,0.2,1.6,0.2
				c1,0,2.2-0.1,3.1-0.3c0,0,0.1,0,0.1,0c0.2,0,0.2,0.5,0.2,0.7v0.1c0,0.3,0,0.4-0.3,0.5c-0.5,0.1-2.7,0.2-3.3,0.2
				c-0.9,0-1.7,0-2.5-0.5c-0.7-0.4-1.1-1.1-1.1-1.8c0-1.3,1.1-2.2,2.1-2.8c0.1-0.1,0.2-0.2,0.2-0.3c0-0.1,0-0.1,0-0.2
				c-0.1-0.4-0.5-1.7-0.6-2.2c-0.1-0.3-0.1-0.5-0.2-0.8c0,0,0-0.1,0-0.1C37.9,88.2,38.3,88.2,38.7,88.1z"></path>
			<path class="st1 svg-elem-7" d="M18.6,24.2c-0.2,0.1-0.2,0.1-0.3,0.3c-0.5,1.2-1.2,2.4-2.1,3.4c-0.1,0.1-0.2,0.2-0.3,0.2
				c-0.2,0-0.9-0.4-0.9-0.7c0-0.1,0.1-0.2,0.2-0.3c0.9-1,1.7-2.3,2.2-3.6c0-0.1,0.1-0.2,0.2-0.2c0.1,0,0.4,0.1,0.5,0.2
				c0.1,0,0.2,0.1,0.3,0.1c0.4,0.2,0.5,0.2,0.5,0.3C18.8,24.1,18.7,24.1,18.6,24.2z M19.7,21.5c0-0.3,0-0.7,0-1c0,0,0-0.1,0-0.1
				c0-0.1,0.1-0.2,0.2-0.2c0.2,0,0.9,0.1,1.1,0.1c0.1,0,0.3,0,0.3,0.1c0,0.1-0.1,0.1-0.2,0.2C21,20.7,21,20.9,21,21.3v6.9
				c0,0.4,0,0.8,0,1.2c0,0.5-0.1,0.9-0.6,1.2c-0.4,0.2-1.1,0.3-1.6,0.3c-0.4,0-0.5,0-0.6-0.3c-0.1-0.2-0.1-0.5-0.1-0.7
				c0-0.2,0-0.3,0.2-0.3c0.1,0,0.4,0,0.7,0c0.7,0,0.7-0.3,0.7-1.3V21.5z M24.7,28.1c-0.2,0-0.2-0.1-0.3-0.3
				c-0.6-1.1-1.5-2.6-2.3-3.5C22,24.3,22,24.2,22,24.1c0-0.3,0.6-0.7,0.9-0.7c0.1,0,0.2,0.1,0.3,0.2c0.5,0.5,0.9,1.1,1.3,1.7
				c0.2,0.3,1.3,1.8,1.3,2.1C25.7,27.7,25,28.1,24.7,28.1z"></path>
			<path class="st1 svg-elem-8" d="M20.1,37.6c0.3,0.5,0.5,0.9,0.7,1.4c0.1,0.1,0.2,0.2,0.3,0.2c0.2,0,1.1-0.5,1.3-0.6c0.1-0.1,0.2-0.1,0.3-0.1
				c0.2,0,0.8,0.7,0.8,0.9c0,0.1-0.2,0.2-0.4,0.3c-0.4,0.2-0.7,0.3-1.1,0.5c-0.2,0.1-0.4,0.1-0.4,0.3c0,0.2,0.1,0.3,0.2,0.5
				c0.5,0.9,1,1.9,1.7,2.6c0.1,0.1,0.2,0.2,0.2,0.3c0,0.3-0.6,0.8-0.9,0.8c-0.1,0-0.3-0.2-0.5-0.3c-0.6-0.4-1.8-1-2.8-1
				c-0.6,0-1.3,0.4-1.3,1.1c0,1.2,1.8,1.5,2.8,1.5c0.3,0,0.5,0,0.7,0c0.2,0,0.3,0.2,0.3,0.4c0,0.2,0,0.5-0.1,0.7
				c-0.1,0.2-0.2,0.2-0.4,0.2c-0.6,0-1.5-0.1-2.1-0.3c-1.2-0.3-2.4-1-2.4-2.4c0-1.4,1.2-2.3,2.5-2.3c0.5,0,1,0.1,1.5,0.3
				c0,0,0.1,0,0.1,0c0.1,0,0.1,0,0.1-0.1c0-0.1,0-0.1-0.1-0.2c-0.3-0.4-0.5-0.7-0.7-1.2c-0.1-0.2-0.2-0.4-0.5-0.4
				c-0.1,0-0.1,0-0.2,0c-0.6,0.2-2.3,0.5-2.8,0.5c-0.3,0-0.3-0.1-0.4-0.4c-0.1-0.2-0.1-0.4-0.1-0.6c0-0.2,0.1-0.2,0.3-0.2
				c0.8,0,1.7-0.1,2.4-0.3c0.1,0,0.3-0.1,0.3-0.2c0-0.2-0.7-1.3-0.9-1.5c0-0.1-0.1-0.1-0.1-0.2c0-0.2,1-0.5,1.2-0.5
				S20.1,37.4,20.1,37.6z"></path>
			<path class="st1 svg-elem-9" d="M20.2,54.3c0.1,0,0.2,0.1,0.2,0.1s-0.1,0.1-0.2,0.2c-0.1,0.1-0.2,0.5-0.2,0.6c0,0.1-0.1,0.5-0.1,0.5
				c0,0.1,0,0.2,0.1,0.2s0.6-0.1,0.7-0.2c0,0,0.1,0,0.1,0c0.1,0,0.2,0.2,0.2,0.4c0,0.2,0.1,0.5,0.1,0.6c0,0.3-0.1,0.3-1.2,0.5
				c-0.4,0.1-0.4,0.2-0.6,0.6c-0.5,1.5-1.2,2.9-2,4.3c-0.1,0.1-0.1,0.2-0.2,0.2c-0.3,0-1.1-0.3-1.1-0.6c0-0.1,0.2-0.3,0.2-0.4
				c0.5-0.8,1.1-1.9,1.4-2.8c0.1-0.1,0.3-0.6,0.3-0.7c0-0.1-0.1-0.2-0.2-0.2c-0.1,0-1,0.1-1.3,0.1c-0.2,0-0.3-0.1-0.3-0.4
				c0-0.1-0.1-0.6-0.1-0.7c0-0.2,0.1-0.2,0.2-0.2h0.6c0.4,0,0.8,0,1.2-0.1c0.2,0,0.3,0,0.4-0.2c0.2-0.3,0.4-1.6,0.4-2
				c0-0.1,0-0.2,0.1-0.2C19,54,20,54.2,20.2,54.3z M21.9,57.9c0.1,0,0.2,0.1,0.2,0.3c0,0,0,0.4,0,0.6c0,0.3,0.1,2.1,0.1,2.3
				c0,0.2,0.2,0.2,0.4,0.3c0,0,0.1,0,0.1,0c0.3,0.1,1.7,0.8,1.7,1.1c0,0.2-0.4,0.9-0.7,0.9c-0.1,0-0.2-0.1-0.3-0.2
				c-0.2-0.1-0.8-0.6-1-0.6c-0.1,0-0.2,0.2-0.2,0.3c-0.1,0.9-0.9,1.2-1.7,1.2c-1,0-2.1-0.5-2.1-1.6c0-1.1,1-1.5,2-1.5h0.3
				c0.1,0,0.3-0.1,0.3-0.2c0-0.4-0.2-2.1-0.2-2.6c0-0.1,0-0.1,0-0.2c0-0.2,0.1-0.3,0.3-0.3C21.3,57.8,21.7,57.8,21.9,57.9z
				 M19.7,62.4c0,0.4,0.5,0.6,0.8,0.6c0.4,0,0.6-0.2,0.6-0.6c0-0.2,0-0.4-0.6-0.4C20.2,62,19.7,62.1,19.7,62.4z M24.9,57.9
				c0,0.3-0.7,0.8-0.9,0.8c-0.1,0-0.2-0.1-0.3-0.2c-0.4-0.6-1-1.1-1.5-1.5c0,0-0.2-0.1-0.2-0.2c0-0.2,0.6-0.8,0.8-0.8
				C23.2,55.9,24.9,57.6,24.9,57.9z"></path>
			<path class="st1 svg-elem-10" d="M21.8,74.2c-0.1,0-0.2,0-0.2,0.2c0,0,0,0.1,0,0.1c1,1.7,2.2,2.9,3.7,4c0.1,0.1,0.3,0.2,0.3,0.3
				c0,0.2-0.5,0.8-0.8,0.8c-0.2,0-0.8-0.5-1-0.7c-1.1-1-2-2.1-2.8-3.3c0,0,0,0-0.1,0c-0.1,0-0.1,0.1-0.1,0.1v3.4c0,0.6,0,1.2,0,1.8
				c0,0.4-0.1,0.4-0.7,0.4c-0.5,0-0.7,0-0.7-0.4c0-0.6,0-1.2,0-1.8v-3.5c0,0,0-0.1-0.1-0.1c0,0-0.1,0-0.1,0c-0.9,1.5-2,2.8-3.5,3.8
				c-0.1,0.1-0.3,0.2-0.4,0.2c-0.2,0-0.7-0.6-0.7-0.8c0-0.1,0.1-0.2,0.3-0.3c1.5-1,2.9-2.3,3.8-3.9c0,0,0-0.1,0-0.1
				c0-0.1-0.1-0.2-0.2-0.2h-2c-0.5,0-0.9,0-1.4,0c-0.3,0-0.3-0.1-0.3-0.6c0-0.5,0-0.6,0.3-0.6c0.5,0,0.9,0,1.4,0h2.6
				c0.2,0,0.3-0.1,0.3-0.3v-1.1c0-0.3,0-0.6,0-0.9c0,0,0-0.1,0-0.1c0-0.1,0.1-0.2,0.2-0.2c0.2,0,0.9,0.1,1.1,0.1
				c0.1,0,0.3,0,0.3,0.2c0,0.1-0.1,0.1-0.2,0.2c-0.1,0.1-0.1,0.3-0.1,0.7v1.1c0,0.2,0.1,0.3,0.3,0.3h2.5c0.5,0,0.9,0,1.4,0
				c0.3,0,0.3,0.1,0.3,0.6c0,0.5,0,0.6-0.3,0.6c-0.5,0-0.9,0-1.4,0H21.8z"></path>
			<path class="st1 svg-elem-11" d="M16.2,94.3c0.3,0.1,0.5,0.1,0.5,0.2c0,0.1-0.1,0.1-0.1,0.1c-0.1,0.1-0.2,0.1-0.2,0.3
				c-0.1,0.6-0.3,1.7-0.5,2.4c0,0.1-0.1,0.3-0.3,0.3c-0.1,0-0.8-0.1-0.8-0.3c0-0.1,0-0.2,0.1-0.2c0.3-0.8,0.5-1.6,0.6-2.5
				c0-0.1,0-0.3,0.2-0.3C15.8,94.2,16.1,94.3,16.2,94.3z M18.1,93.8v2.3c0,0.5,0,1.1,0,1.6c0,0.4-0.1,0.4-0.6,0.4
				c-0.5,0-0.6,0-0.6-0.4c0-0.5,0-1.1,0-1.6V94c0-0.2-0.1-0.3-0.3-0.3c-0.3,0-0.6,0.1-0.9,0.1c-0.1,0-0.1,0-0.1,0.1
				c0,0.1-0.1,0.1-0.2,0.1c-0.1,0-0.1-0.1-0.2-0.2c0-0.1-0.2-0.9-0.2-1c0-0.2,0.1-0.2,0.3-0.2h0.2c0.1,0,0.2,0,0.2,0
				c0.2,0,0.3-0.1,0.5-0.3c0.1-0.2,0.2-0.3,0.4-0.5c0-0.1,0.1-0.1,0.1-0.2c0-0.1,0-0.2-0.1-0.3c-0.4-0.4-0.9-0.8-1.3-1.1
				c-0.1,0-0.2-0.1-0.2-0.2c0-0.1,0.3-0.8,0.6-0.8c0.1,0,0.2,0.1,0.2,0.1c0.1,0,0.1,0.1,0.2,0.1c0.1,0,0.1-0.1,0.2-0.1
				c0.2-0.4,0.6-1.4,0.8-1.8c0-0.1,0-0.2,0.1-0.2c0.1,0,0.6,0.2,0.7,0.3c0.2,0.1,0.4,0.2,0.4,0.3c0,0.1-0.1,0.1-0.2,0.1
				c-0.1,0-0.2,0-0.2,0.1c-0.2,0.5-0.6,1.3-0.9,1.7c0,0.1,0,0.1,0,0.2c0,0.1,0,0.2,0.1,0.2c0.1,0.1,0.1,0.1,0.2,0.2
				c0.1,0,0.1,0.1,0.2,0.1c0.1,0,0.2-0.1,0.2-0.1c0.3-0.5,0.6-0.9,0.8-1.4c0-0.1,0.1-0.2,0.2-0.2c0.1,0,0.7,0.4,0.8,0.4
				c0.1,0.1,0.3,0.1,0.3,0.2c0,0.1-0.1,0.1-0.2,0.1c-0.1,0-0.2,0-0.3,0.1c-0.6,0.9-1.1,1.6-1.8,2.5c0,0,0,0.1,0,0.1
				c0,0.1,0.1,0.1,0.2,0.1c0.3,0,0.6,0,0.8-0.1c0.1,0,0.2-0.1,0.2-0.2c0,0,0-0.1,0-0.1c0-0.1-0.2-0.4-0.2-0.5c0-0.2,0.6-0.4,0.7-0.4
				c0.1,0,0.2,0.1,0.3,0.2c0.1,0.3,0.3,0.7,0.4,0.9c0.1,0.2,0.4,1.1,0.4,1.2c0,0.2-0.6,0.4-0.7,0.4c-0.2,0-0.2-0.2-0.3-0.3
				s-0.1-0.2-0.3-0.2c0,0,0,0-0.1,0c-0.1,0-0.3,0-0.4,0.1C18.2,93.5,18.1,93.6,18.1,93.8z M19.1,96.5c-0.2,0-0.2-0.1-0.2-0.3
				c-0.1-0.6-0.3-1.1-0.6-1.7c0,0-0.1-0.2-0.1-0.2c0-0.2,0.6-0.4,0.7-0.4c0.1,0,0.1,0,0.2,0.1c0.1,0.2,0.3,0.7,0.4,0.9
				c0.1,0.2,0.3,1,0.3,1.1C19.9,96.3,19.3,96.5,19.1,96.5z M24.9,96.2c0,0.2,0.1,0.3,0.3,0.3h0.2c0.3,0,0.3,0.2,0.3,0.6
				c0,0.4,0,0.6-0.3,0.6c-0.4,0-0.9,0-1.3,0h-3.5c-0.4,0-0.9,0-1.3,0c-0.3,0-0.3-0.2-0.3-0.6c0-0.4,0-0.6,0.3-0.6c0.2,0,0.5,0,0.7,0
				c0.2,0,0.3-0.1,0.3-0.3v-6.5c0-0.4,0-0.8,0-1.2c0-0.5,0.2-0.6,0.6-0.6c0.3,0,0.6,0,0.9,0h1.5c0.3,0,0.6,0,0.9,0
				c0.5,0,0.6,0.2,0.6,0.6c0,0.4,0,0.8,0,1.2V96.2z M23.7,89.4c0-0.2-0.1-0.3-0.3-0.3h-1.4c-0.2,0-0.3,0.1-0.3,0.3v1
				c0,0.2,0.1,0.3,0.3,0.3h1.4c0.2,0,0.3-0.1,0.3-0.3V89.4z M21.6,93.2c0,0.2,0.1,0.3,0.3,0.3h1.4c0.2,0,0.3-0.1,0.3-0.3v-1
				c0-0.2-0.1-0.3-0.3-0.3h-1.4c-0.2,0-0.3,0.1-0.3,0.3V93.2z M21.6,96.2c0,0.2,0.1,0.3,0.3,0.3h1.4c0.2,0,0.3-0.1,0.3-0.3V95
				c0-0.2-0.1-0.3-0.3-0.3h-1.4c-0.2,0-0.3,0.1-0.3,0.3V96.2z"></path>
			<path class="st1 svg-elem-12" d="M21.9,106c0,0.1-0.1,0.1-0.1,0.2c-0.5,0.5-1.1,1.7-1.4,2.4c0,0.1-0.1,0.1-0.1,0.2c0,0.2,0.2,0.2,0.7,0.3
				c0.2,0,0.6,0.2,0.8,0.3c0.1,0,0.1,0.1,0.2,0.1c0.2,0,0.2-0.1,0.3-0.3c0.1-0.4,0.2-0.9,0.2-1.3c0-0.1,0-0.1,0-0.2
				c0-0.1,0-0.2,0.2-0.2c0.1,0,1.1,0.2,1.2,0.2c0.1,0,0.2,0,0.2,0.2c0,0.1-0.1,0.2-0.2,0.3c0,0-0.1,0.2-0.1,0.3
				c-0.1,0.4-0.2,0.8-0.3,1.1c0,0.1,0,0.2,0,0.2c0,0.2,0.1,0.3,0.3,0.4c0.2,0.1,0.9,0.5,1.1,0.6c0.1,0,0.3,0.1,0.3,0.3
				c0,0.2-0.6,1.2-0.8,1.2c-0.1,0-0.3-0.2-0.4-0.3c-0.2-0.2-0.8-0.6-1-0.6c-0.1,0-0.2,0.1-0.3,0.2c-0.4,0.7-0.9,1.4-1.6,2
				c-0.1,0.1-0.7,0.6-0.9,0.6c-0.2,0-1-0.5-1-0.7c0-0.1,0.2-0.2,0.2-0.2c1.2-0.6,2.2-2.1,2.2-2.4c0-0.2-0.2-0.3-0.6-0.5
				c-0.2-0.1-0.9-0.3-1.2-0.3c-0.2,0-0.3,0.1-0.3,0.3c-0.2,0.5-0.7,1.4-1,1.8c-0.3,0.5-0.7,0.8-1.4,0.8c-0.9,0-1.4-0.7-1.4-1.5
				c0-1.3,1.2-2.2,2.3-2.5c0.2,0,0.5-0.1,0.7-0.1c0.2,0,0.3-0.1,0.4-0.3c0.3-0.5,0.5-1.1,0.8-1.6c0-0.1,0.1-0.1,0.1-0.2
				c0-0.1-0.1-0.1-0.1-0.1c0,0-1,0.4-1.4,0.5c-0.1,0-0.3,0.1-0.5,0.1c-0.4,0-0.7-1-0.7-1.1c0-0.2,0.2-0.2,0.4-0.2
				c0.7-0.1,2.2-0.5,2.8-0.8c0.1-0.1,0.2-0.1,0.4-0.1C21.1,105,21.9,105.8,21.9,106z M18.2,110.1c-0.3,0-1.3,0.6-1.3,1.3
				c0,0.2,0.1,0.4,0.3,0.4c0.4,0,0.7-0.6,0.9-0.9c0.1-0.1,0.3-0.6,0.3-0.6C18.3,110.2,18.3,110.1,18.2,110.1z"></path>
			<path class="st1 svg-elem-13" d="M23.7,123.5c0.8,0.8,1.2,1.8,1.2,3c0,1.7-0.9,3.1-2.3,3.9c-0.3,0.1-1,0.5-1.3,0.5c-0.3,0-0.8-0.7-0.8-1
				c0-0.1,0.2-0.1,0.3-0.2c1.6-0.4,2.8-1.4,2.8-3.1c0-1.3-0.7-2.4-1.9-2.9c-0.1,0-0.3-0.1-0.5-0.1c-0.3,0-0.3,0.3-0.3,0.5
				c-0.1,1.8-0.6,3.9-1.7,5.3c-0.4,0.5-0.9,0.9-1.6,0.9c-0.7,0-1.3-0.5-1.6-1.1c-0.3-0.5-0.4-1.1-0.4-1.7c0-2.8,2.1-5,5-5
				C21.8,122.3,22.9,122.7,23.7,123.5z M19.1,123.8c-1.4,0.6-2.2,1.9-2.2,3.5c0,0.4,0.2,1.6,0.8,1.6c0.6,0,1.3-1.4,1.6-2.6
				c0.2-0.6,0.4-1.8,0.4-2.3c0-0.1-0.1-0.2-0.2-0.2C19.4,123.7,19.2,123.8,19.1,123.8z"></path>
			<path class="st1 svg-elem-14" d="M20,142.3c0,0-0.1,0.1-0.1,0.2s0,0.1,0.1,0.2c1.1,1,1.7,2.3,1.7,3.7c0,1.8-0.7,2.1-2.3,2.1
				c-0.7,0-0.9-0.1-0.9-0.9c0-0.2,0-0.4,0.2-0.4c0,0,0.1,0,0.2,0c0.2,0,0.4,0,0.7,0c0.7,0,1-0.1,1-1.1c0-0.1,0-0.2,0-0.2
				c0-0.1-0.1-0.2-0.2-0.2c-0.1,0-0.1,0-0.1,0c-1.1,0.9-2.4,1.5-3.7,2c-0.1,0-0.3,0.1-0.4,0.1c-0.3,0-0.6-0.5-0.6-0.7
				c0-0.2,0.2-0.2,0.4-0.3c1.4-0.5,2.9-1.2,4.1-2.1c0.1-0.1,0.1-0.1,0.1-0.3c0-0.1,0-0.2-0.1-0.3c0-0.1-0.1-0.1-0.2-0.1
				c-0.1,0-0.1,0-0.2,0.1c-1,0.8-2.1,1.4-3.2,1.8c-0.1,0-0.3,0.1-0.4,0.1c-0.2,0-0.5-0.5-0.5-0.7c0-0.2,0.2-0.2,0.3-0.3
				c1.1-0.4,2.3-1,3.3-1.6c0.1-0.1,0.1-0.1,0.1-0.2c0-0.1,0-0.1-0.1-0.2c0,0-0.1-0.1-0.2-0.1c0,0-0.1,0-0.1,0
				c-0.9,0.5-1.7,0.9-2.7,1.3c-0.1,0-0.3,0.1-0.4,0.1c-0.3,0-0.5-0.5-0.5-0.8c0-0.2,0.2-0.2,0.4-0.3c1-0.3,2-0.7,2.9-1.3
				c0,0,0.1,0,0.1-0.1c0-0.1-0.1-0.1-0.1-0.1h-0.2c-0.5,0-0.9,0-1.4,0c-0.3,0-0.3-0.2-0.3-0.4c0-0.2-0.1-0.2-0.3-0.2
				c-0.1,0-0.2,0-0.3,0c-0.5,0-0.7,0-0.7-0.3c0-0.2,0-0.3,0-0.5v-0.5c0-0.3,0-0.5,0-0.6c0-0.4,0.3-0.5,1-0.5c0.3,0,0.6,0,1.1,0h2
				c0.2,0,0.3-0.1,0.3-0.3c0-0.2,0-0.5,0-0.7c0,0,0-0.1,0-0.1c0-0.2,0.1-0.2,0.2-0.2c0.2,0,0.9,0.1,1.2,0.1c0.1,0,0.2,0,0.2,0.1
				c0,0.1-0.1,0.1-0.1,0.2c-0.1,0.1-0.1,0.3-0.1,0.6c0,0.2,0.1,0.3,0.3,0.3h2c0.4,0,0.8,0,1.3,0c0.3,0,0.7,0,0.7,0.5
				c0,0.1,0,0.4,0,0.6v0.5c0,0.2,0,0.3,0,0.5c0,0.3-0.2,0.3-0.7,0.3h-0.3c-0.2,0-0.3,0-0.3,0.2c0,0.2,0,0.4-0.3,0.4
				c-0.5,0-0.9,0-1.4,0h-0.3c-0.1,0-0.3,0-0.3,0.2c0,0,0,0.1,0,0.1c0.1,0.4,0.3,0.7,0.4,1c0.1,0.1,0.1,0.2,0.2,0.2
				c0.1,0,0.1,0,0.2-0.1c0.4-0.3,0.8-0.6,1.2-0.9c0.1-0.1,0.1-0.2,0.2-0.2c0.1,0,0.3,0.2,0.7,0.7c0.1,0.1,0.2,0.2,0.2,0.3
				c0,0.1,0,0.1-0.1,0.1c0,0-0.1,0-0.1,0c0,0-0.1,0-0.1,0c0,0-0.1,0-0.1,0c-0.4,0.3-0.8,0.6-1.3,0.9c-0.1,0.1-0.2,0.1-0.2,0.3
				c0,0.1,0,0.1,0.1,0.2c0.5,0.8,1.2,1.4,1.9,2c0.1,0.1,0.3,0.2,0.3,0.3c0,0.2-0.6,0.7-0.8,0.7c-0.3,0-1.3-1.1-1.5-1.3
				c-1.1-1.3-1.8-2.6-2.3-4.2c-0.1-0.2-0.1-0.3-0.3-0.3c-0.1,0-0.2,0-0.3,0.1L20,142.3z M24.1,140.4c0-0.2-0.1-0.3-0.3-0.3h-6.9
				c-0.2,0-0.3,0.1-0.3,0.3v0.2c0,0.2,0.1,0.2,0.3,0.2c0.4,0,0.9,0,1.3,0h4.3c0.4,0,0.9,0,1.4,0c0.1,0,0.3,0,0.3-0.2V140.4z"></path>
		</g>
	</g>
	<polyline class="st2 svg-elem-15" points="30.8,2 57.6,2 57.6,100.1 	"></polyline>
	<polyline class="st2 svg-elem-16" points="30.8,198 2.4,198 2.4,100.1 	"></polyline>
	<g>
		<g>
			<path class="st1 svg-elem-17" d="M41.9,121.2c0.1,0,0.2,0,0.2-0.1c0.1-0.1,0.1-0.2,0.1-0.2c0,0,0.4,0.2,0.5,0.3c0.2,0.1,0.3,0.2,0.3,0.3
				c0,0.2-0.1,0.2-0.3,0.2c-0.5,0-0.6,0-0.8,0.2c0,0-0.2,0.2-0.2,0.2c0,0,0,0,0,0c0,0,0.2-0.4,0.2-0.5c0-0.1-0.1-0.1-0.2-0.1h-4
				c-0.2,0-0.2,0-0.2,0.2c0,0.3-0.3,0.7-0.5,0.7c-0.1,0-0.3-0.1-0.3-0.3c0-0.1,0-0.2,0.2-0.3c0.3-0.3,0.3-0.6,0.3-0.8c0,0,0,0,0,0
				s0.1,0.1,0.2,0.2c0.1,0.1,0.1,0.2,0.3,0.2h1.7c0.2,0,0.2,0,0.2-0.5c0-0.1,0-0.3,0-0.4c0,0-0.1-0.2-0.1-0.2c0,0,0-0.1,0.1-0.1
				c0,0,0.1,0,0.6,0.1c0.1,0,0.2,0,0.2,0.1c0,0.1,0,0.1-0.2,0.3c-0.1,0.1-0.1,0.1-0.1,0.4c0,0.2,0.1,0.2,0.2,0.2H41.9z M41.7,123.8
				c0.3,0,0.3,0,0.5-0.2c0.2-0.3,0.2-0.3,0.3-0.3c0,0,0.7,0.4,0.7,0.6c0,0.1-0.1,0.1-0.4,0.1h-2.3c-0.2,0-0.2,0.1-0.2,0.3v1.7
				c0,0.2,0,0.5-0.7,0.5c-0.1,0-0.1,0-0.2-0.1c-0.1-0.2-0.3-0.3-0.5-0.4c-0.1-0.1-0.1-0.1-0.1-0.1c0,0,0,0,0.1,0c0.1,0,0.4,0,0.5,0
				c0.3,0,0.4,0,0.4-0.3c0-0.2,0-1.1,0-1.3c0-0.1,0-0.2-0.2-0.2H38c-0.6,0-0.8,0-0.9,0c0,0-0.1,0-0.1,0c0,0,0,0-0.1,0l-0.1-0.2
				c0,0,0,0,0,0s0,0,0,0c0,0,0.3,0,0.3,0c0.3,0,0.6,0,1,0h1.4c0.2,0,0.2-0.1,0.2-0.2c0-0.3,0-0.8,0-0.8c0-0.1-0.1-0.1-0.2-0.1H39
				c-0.6,0-0.8,0-0.9,0c0,0-0.1,0-0.1,0c0,0,0,0-0.1,0l-0.1-0.2c0,0,0,0,0,0c0,0,0,0,0,0c0,0,0.3,0,0.3,0c0.3,0,0.6,0,1,0h1.6
				c0.3,0,0.3,0,0.4-0.1c0.2-0.3,0.2-0.3,0.3-0.3c0.1,0,0.5,0.4,0.5,0.5c0,0.1-0.1,0.1-0.4,0.1h-1.2c-0.1,0-0.2,0-0.2,0.2v0.8
				c0,0.1,0.1,0.1,0.2,0.1H41.7z"></path>
			<path class="st1 svg-elem-18" d="M38.2,133.5c-0.2,0-0.2,0-0.2,0.2c0,0.2-0.3,0.3-0.4,0.3c-0.2,0-0.2-0.1-0.2-0.3c0-0.2,0-1.1,0-1.3
				c0-0.5,0-0.6,0-1.1c0,0,0-0.1-0.1-0.1c0,0-0.6,0.2-0.7,0.2c0,0,0,0,0,0c0,0,0-0.1,0.3-0.2c1.1-0.6,1.6-1,1.6-1.1c0,0,0,0-0.1,0
				h-0.5c-0.2,0-0.5,0-0.8,0c0,0-0.2,0-0.2,0c0,0,0,0-0.1,0l-0.1-0.2c0,0,0,0,0,0c0,0,0,0,0,0c0,0,0.3,0,0.3,0c0.2,0,0.6,0,0.9,0
				c0.1,0,0.3,0,0.3-0.2v-0.6c0-0.2,0-0.2-0.2-0.2c-0.2,0-0.5,0-0.5,0c0,0-0.2,0-0.2,0c0,0,0,0-0.1,0l-0.1-0.2c0,0,0,0,0,0
				c0,0,0,0,0,0c0.1,0,0.8,0,0.9,0c0.2,0,0.2-0.1,0.2-0.2c0-0.1,0-0.2,0-0.3c0-0.1,0-0.4,0-0.4c0,0,0-0.1,0-0.1c0,0,0.7,0.1,0.7,0.2
				c0,0-0.1,0.1-0.1,0.2c-0.1,0.1-0.1,0.1-0.1,0.4c0,0.1,0,0.2,0.1,0.2c0.1,0,0.1-0.1,0.1-0.1c0.1-0.2,0.2-0.2,0.2-0.2
				c0,0,0.6,0.4,0.6,0.4c0,0.1-0.1,0.1-0.4,0.1h-0.4c-0.1,0-0.2,0-0.2,0.2v0.7c0,0.1,0,0.1,0.1,0.1c0.1,0,0.1,0,0.3-0.1
				c0.5-0.5,1-1.3,1-1.7c0-0.1,0-0.2,0.1-0.2c0,0,0.3,0.2,0.4,0.2c0.2,0.1,0.2,0.1,0.2,0.2c0,0.1,0,0.1-0.1,0.1s-0.6,0.7-0.7,0.8
				c-0.1,0.1-0.4,0.5-0.4,0.5c0,0,0.1,0,0.1,0h0.1c0.1,0,0.2,0,0.2-0.1c0-0.1,0.2-0.2,0.2-0.2c0.1,0,0.5,0.4,0.5,0.4
				c0,0.1,0,0.1-0.4,0.1h-1c-0.1,0-0.1,0-0.3,0.1c-0.3,0.3-0.7,0.6-1,0.7c-0.1,0.1-0.2,0.1-0.2,0.1c0,0.1,0.1,0.1,0.1,0.1h1.1
				c0.1,0,0.2,0,0.2-0.1c0.1-0.2,0.2-0.2,0.2-0.2c0.1,0,0.5,0.3,0.5,0.4c0,0.1,0,0.1-0.2,0.2c0,0,0,0.1,0,0.3c0,0.3,0,0.8,0,1.1
				c0,0.1,0,0.6,0,0.7c0,0.3-0.3,0.4-0.4,0.4c-0.2,0-0.2-0.2-0.2-0.2c0-0.2-0.1-0.2-0.2-0.2H38.2z M38.2,131.3
				c-0.2,0-0.2,0.1-0.2,0.3c0,0.5,0,0.6,0.2,0.6h1c0.2,0,0.2-0.1,0.2-0.3c0-0.5,0-0.6-0.2-0.6H38.2z M38.2,132.4
				c-0.2,0-0.2,0.1-0.2,0.4c0,0.4,0,0.5,0.2,0.5h1c0.2,0,0.2-0.1,0.2-0.6c0-0.2,0-0.3-0.2-0.3H38.2z M42,128.2c0.1,0,0.1,0,0.2-0.1
				c0.1-0.1,0.1-0.1,0.2-0.1c0.1,0,0.6,0.4,0.6,0.5c0,0,0,0,0,0.1c0,0-0.2,0.1-0.2,0.1c-0.1,0.1-0.9,1.4-0.9,1.5
				c0,0.1,0.2,0.2,0.3,0.3c0.7,0.7,0.9,1.2,0.9,1.8c0,0.7-0.3,0.9-0.4,1c-0.1,0-0.2,0.2-0.3,0.2c-0.1,0-0.1,0-0.2-0.2
				c-0.2-0.3-0.6-0.5-0.6-0.5c-0.1,0-0.1,0-0.1,0.1c0,0.1,0,0.5,0,0.7c0,0.2,0,0.3,0,0.4c0,0.1-0.2,0.2-0.3,0.2
				c-0.2,0-0.2-0.1-0.2-0.2c0-0.1,0-0.6,0-0.7c0-0.8,0-3.1,0-4c0-0.2,0-0.5,0-0.9c0,0,0-0.3,0-0.3c0,0,0-0.1,0-0.1
				c0,0,0.2,0.1,0.4,0.2c0.1,0,0.2,0.1,0.3,0.1H42z M41.5,128.4c-0.1,0-0.2,0.1-0.2,0.1c0,0.1,0,1.8,0,2c0,0.2,0,1.9,0,1.9
				c0,0.1,0.5,0.2,0.7,0.2c0.2,0,0.2,0,0.3-0.2c0.1-0.2,0.1-0.4,0.1-0.6c0-0.7-0.4-1.3-0.6-1.5c0,0-0.2-0.2-0.2-0.2
				c0,0,0.2-0.8,0.3-0.9c0-0.1,0.2-0.7,0.2-0.8c0-0.1-0.1-0.1-0.2-0.1H41.5z"></path>
			<path class="st1 svg-elem-19" d="M42,136.5c0,0,0.1,0,0.2-0.1c0,0,0.2-0.2,0.2-0.2c0,0,0.3,0.3,0.4,0.3c0.3,0.2,0.3,0.2,0.3,0.3
				c0,0.2-0.1,0.2-0.5,0.2c-0.1,0-0.2,0-0.5,0.1c-0.1,0.1-0.2,0.1-0.2,0.1c0,0,0,0,0,0c0,0,0.2-0.4,0.2-0.4c0-0.1-0.1-0.1-0.1-0.1
				h-4.2c-0.1,0-0.2,0-0.2,0.1c-0.1,0.7-0.4,0.7-0.5,0.7c-0.1,0-0.3-0.1-0.3-0.3c0-0.1,0-0.2,0.1-0.2c0.2-0.4,0.3-0.5,0.4-0.7
				c0,0,0.1-0.3,0.1-0.3c0,0,0.1,0.2,0.2,0.4c0,0.1,0.1,0.1,0.2,0.1h1.7c0.2,0,0.2-0.1,0.2-0.3c0-0.2,0-0.3,0-0.4
				c0,0-0.1-0.2-0.1-0.3c0,0,0.1-0.1,0.1-0.1c0.1,0,0.3,0,0.4,0c0.2,0,0.3,0,0.3,0.2c0,0,0,0.1-0.1,0.2c-0.1,0.1-0.1,0.1-0.1,0.3
				s0,0.3,0.2,0.3H42z M40.2,138.8c-0.2,0-0.2,0-0.3,0.2c-0.1,0.1-0.5,0.6-0.5,0.6s0.1,0.1,0.1,0.1h1.9c0.1,0,0.1,0,0.2-0.1
				c0,0,0.2-0.2,0.2-0.2c0,0,0.6,0.3,0.6,0.4c0,0.1,0,0.1-0.2,0.2c-0.1,0.1-0.1,0.1-0.1,0.5c0,0.1,0,0.8,0,0.9
				c0,0.2-0.1,0.3-0.3,0.3c-0.2,0-0.2-0.1-0.2-0.2c0-0.2-0.2-0.2-0.2-0.2h-3.1c-0.2,0-0.2,0-0.2,0.2c-0.1,0.3-0.4,0.3-0.4,0.3
				c-0.1,0-0.1-0.1-0.1-0.2s0-0.1,0-0.2c0-0.2,0-0.6,0-0.8c0-0.1,0-0.5,0-0.8c0,0,0-0.3,0-0.3c0,0,0-0.1,0.1-0.1
				c0.1,0,0.4,0.2,0.4,0.2c0.1,0,0.2,0,0.3,0h0.7c0.1,0,0.2,0,0.3-0.2c0.1-0.4,0.2-0.6,0.2-0.6c0-0.1-0.1-0.1-0.2-0.1h-0.4
				c-0.1,0-0.2,0-0.2,0.1c0,0.1-0.1,0.2-0.3,0.2c-0.2,0-0.2-0.1-0.2-0.2c0-0.1,0-0.4,0-0.5c0-0.1,0-0.7,0-0.9c0,0,0-0.3,0-0.3
				c0,0,0-0.1,0.1-0.1c0.1,0,0.1,0,0.3,0.1c0.1,0.1,0.2,0.1,0.3,0.1H41c0.1,0,0.2,0,0.2-0.1c0.1-0.1,0.1-0.1,0.2-0.1
				c0.1,0,0.4,0.3,0.4,0.3c0,0-0.2,0.1-0.2,0.2c0,0,0,0.3,0,0.4c0,0.1,0,0.6,0,0.7c0,0.3-0.3,0.3-0.3,0.3c-0.1,0-0.1-0.1-0.1-0.1
				c0-0.1,0-0.1-0.2-0.1H40.2z M41.4,141.1c0.1,0,0.1,0,0.2,0c0,0,0-0.1,0-0.5c0-0.1,0-0.5,0-0.6c0-0.1-0.1-0.1-0.2-0.1h-3.1
				c-0.1,0-0.1,0-0.2,0s0,0.1,0,0.5c0,0.1,0,0.5,0,0.6c0,0.1,0.1,0.1,0.2,0.1H41.4z M40.9,138.6c0.2,0,0.2-0.1,0.2-0.6
				c0-0.4,0-0.4-0.2-0.4h-2.1c-0.2,0-0.2,0.1-0.2,0.6c0,0.4,0,0.4,0.2,0.4H40.9z"></path>
			<path class="st1 svg-elem-20" d="M40.3,146c-0.2,0-0.2,0.1-0.2,0.4c0,0.7,0,1.4,0,2.1c0,0.1,0,0.6,0,0.7c0,0.2,0,0.2-0.2,0.3
				c-0.1,0-0.1,0-0.2,0c-0.2,0-0.2-0.1-0.2-0.2c0-0.3,0-0.3,0-0.7c0-0.6,0-1.8,0-2.4c0-0.1,0-0.2-0.2-0.2h-1.1
				c-0.2,0-0.2,0.1-0.2,0.3v2.4c0,0.2-0.2,0.3-0.4,0.3c-0.2,0-0.2-0.1-0.2-0.2c0-0.1,0-0.5,0-0.6c0-0.4,0-0.8,0-0.9
				c0-0.5,0-1.4,0-1.5c0,0,0-0.2,0-0.2s0-0.1,0.1-0.1s0.3,0.1,0.3,0.2c0.2,0.1,0.2,0.1,0.4,0.1h1.1c0.2,0,0.2-0.1,0.2-0.6
				c0-0.1,0-0.4,0-0.5c0-0.1-0.1-0.1-0.1-0.1h-1.5c-0.5,0-0.7,0-0.9,0c0,0-0.1,0-0.1,0c0,0,0,0-0.1,0l-0.1-0.2c0,0,0,0,0,0
				c0,0,0,0,0,0c0,0,0.3,0,0.3,0c0.3,0,0.6,0,1,0h1.4c0.2,0,0.2-0.1,0.2-0.2v-0.5c0-0.1,0-0.4,0-0.4c0,0,0,0,0.1,0
				c0.1,0,0.7,0.1,0.7,0.2c0,0-0.1,0.2-0.2,0.2c0,0.1,0,0.2,0,0.2c0,0.5,0,0.5,0.2,0.5h1.4c0.1,0,0.2,0,0.3-0.2
				c0.2-0.3,0.3-0.3,0.3-0.3c0.1,0,0.7,0.5,0.7,0.6c0,0.1-0.1,0.1-0.4,0.1h-2.5c-0.1,0-0.1,0-0.1,0c0,0,0,0,0.1,0.1
				c0.1,0.1,0.1,0.1,0.1,0.1c0,0-0.1,0.1-0.1,0.2c0,0.1,0,0.5,0,0.7c0,0.1,0,0.2,0.2,0.2h1.1c0.1,0,0.2,0,0.3-0.1
				c0.2-0.2,0.2-0.2,0.2-0.2c0.1,0,0.6,0.4,0.6,0.5c0,0.1,0,0.1-0.2,0.2c-0.1,0.1-0.1,0.2-0.1,0.4s0,1.4,0,1.6c0,0.4,0,0.5-0.2,0.6
				c-0.1,0.1-0.3,0.2-0.4,0.2c-0.1,0-0.1,0-0.2-0.2c-0.1-0.2-0.2-0.2-0.7-0.4c-0.1,0-0.2-0.1-0.2-0.1c0,0,0,0,0.1,0
				c0,0,0.7,0.1,0.8,0.1c0.1,0,0.2,0,0.3-0.2c0-0.1,0-1.1,0-1.3c0-0.8,0-0.9-0.2-0.9H40.3z"></path>
			<path class="st1 svg-elem-21" d="M42.9,151c-0.3,0.3-5.5,5.5-5.9,5.9c0,0-0.2,0.2-0.2,0.2c0,0-0.1,0-0.1-0.1c0,0,0-0.1,0-0.1
				c0.3-0.3,5.5-5.5,6-5.9c0,0,0.2-0.2,0.2-0.2S43,150.9,42.9,151C43,151,43,151,42.9,151z"></path>
			<path class="st1 svg-elem-22" d="M40.4,166.8c-0.1,0-0.2,0-0.2-0.1c0-0.1,0.1-0.1,0.2-0.1c0.2,0,0.3-0.1,0.3-0.2c0-0.1,0-0.1,0-0.2
				c0,0-0.1-0.2-0.9-1.5c-0.3-0.5-0.3-0.5-0.4-0.5c-0.1,0-0.2,0.1-0.4,0.3c-0.3,0.3-0.3,0.4-0.3,0.6v1c0,0.5,0.4,0.5,0.6,0.5
				c0.1,0,0.1,0,0.1,0.1c0,0.1-0.1,0.1-0.2,0.1h-1.7c-0.1,0-0.2,0-0.2-0.1c0-0.1,0.1-0.1,0.2-0.1c0.3,0,0.5-0.1,0.5-0.5v-3.7
				c0-0.5-0.4-0.5-0.6-0.5c-0.1,0-0.1,0-0.1-0.1c0-0.1,0.1-0.1,0.2-0.1h1.7c0.1,0,0.2,0,0.2,0.1c0,0.1-0.1,0.1-0.2,0.1
				c-0.2,0-0.5,0.1-0.5,0.5v1.8c0,0.1,0,0.1,0.1,0.1c0,0,0.1,0,0.1,0c0.1-0.1,1.1-1.2,1.3-1.5c0.5-0.5,0.5-0.5,0.5-0.7
				c0-0.2-0.3-0.2-0.5-0.2c0,0-0.1,0-0.1-0.1c0-0.1,0.1-0.1,0.2-0.1H42c0.1,0,0.2,0,0.2,0.1c0,0.1-0.1,0.1-0.2,0.1
				c-0.5,0-0.7,0.2-0.9,0.3c0,0-0.7,0.8-0.9,1c-0.3,0.3-0.3,0.3-0.3,0.4c0,0,0,0.1,0,0.1c0.1,0.1,0.3,0.5,0.4,0.7
				c0.2,0.2,1,1.5,1.1,1.8c0,0.1,0.4,0.3,0.7,0.3c0.1,0,0.1,0.1,0.1,0.1c0,0.1-0.1,0.1-0.2,0.1H40.4z"></path>
			<path class="st1 svg-elem-23" d="M38.3,170.2c-0.2,0-0.2,0.1-0.2,0.4c0,0.1,0,0.1,0.2,0.2c0.6,0.3,0.6,0.6,0.6,0.8c0,0.2-0.1,0.4-0.3,0.4
				c-0.2,0-0.2-0.2-0.3-0.5c0-0.2-0.2-0.4-0.2-0.4c0,0,0,0.1,0,0.1c0,0.5,0,2.6,0,3c0,0.3,0,0.6-0.3,0.6c-0.2,0-0.2-0.1-0.2-0.2
				c0-0.2,0-0.4,0-0.6c0-0.2,0.1-2.2,0.1-2.2c0,0,0-0.1,0-0.1c0,0,0,0-0.1,0c-0.2,0.3-0.7,1.2-0.9,1.2c0,0,0,0,0,0
				c0,0,0.3-0.4,0.3-0.4c0.5-0.8,0.7-1.9,0.7-2c0-0.1-0.1-0.1-0.2-0.1c-0.1,0-0.5,0-0.5,0c0,0,0,0-0.1,0l-0.1-0.2c0,0,0,0,0,0
				c0,0,0,0,0,0c0.1,0,0.7,0,0.8,0c0.2,0,0.2-0.2,0.2-0.3c0-0.1,0-0.7,0-0.8c0-0.2-0.1-0.5-0.1-0.6c0,0,0,0,0,0c0,0,0.3,0,0.5,0.1
				c0,0,0.1,0,0.1,0.1c0,0-0.1,0.3-0.1,0.3c0,0.2-0.1,0.8-0.1,1c0,0.1,0,0.1,0.1,0.1c0.1,0,0.2,0,0.2-0.1c0.1-0.2,0.1-0.2,0.2-0.2
				c0.1,0,0.4,0.3,0.4,0.4c0,0.1-0.1,0.1-0.4,0.1H38.3z M39.8,173.2c0.1,0,0.4-0.2,0.4-0.2c0,0,0,0,0,0c0,0.1-0.9,0.8-0.9,1
				c0,0.1-0.1,0.2-0.1,0.2c-0.1,0-0.4-0.6-0.4-0.6c0,0,0,0,0,0c0.1,0,0.2,0,0.3,0C39.3,173.4,39.6,173.3,39.8,173.2z M40.1,172.6
				c0,0.2-0.1,0.3-0.2,0.3c-0.2,0-0.2-0.1-0.3-0.3c0-0.1-0.2-0.5-0.5-0.8c0,0,0,0,0,0c0,0,0,0,0,0c0.1,0,0.5,0.2,0.8,0.4
				C39.9,172.2,40.1,172.4,40.1,172.6z M41.2,170.7c-0.2,0-0.2,0.1-0.2,0.5c0,0.2,0.1,0.2,0.2,0.2h0.5c0.3,0,0.3,0,0.4-0.1
				c0,0,0.2-0.3,0.3-0.3c0,0,0.6,0.4,0.6,0.5c0,0.1-0.1,0.1-0.4,0.1h-0.2c0,0-0.1,0-0.1,0.1c0,0.1,0.3,0.3,0.3,0.4
				c0,0.1,0,0.1-0.2,0.1c-0.3,0.1-0.3,0.1-0.8,0.5c-0.1,0-0.1,0.1-0.1,0.1c0,0.2,0.9,0.8,1.5,0.8c0,0,0,0,0,0c0,0-0.4,0.2-0.4,0.2
				c0,0-0.3,0.2-0.3,0.2c-0.1,0-0.8-0.3-1.3-1.7c-0.1-0.1-0.1-0.2-0.1-0.2c0,0,0,0,0,0.1c0,0,0,0.2,0,0.2c0,0.2,0.1,1.1,0.1,1.3
				c0,0.3,0,0.4-0.2,0.6c-0.1,0.1-0.3,0.1-0.4,0.1c0,0-0.1,0-0.1-0.1c-0.1-0.3-0.5-0.4-0.6-0.5c0,0-0.1,0-0.1-0.1c0,0,0,0,0,0
				c0.1,0,0.3,0,0.4,0c0.4,0,0.4,0,0.4-0.4c0-0.4,0-1.6,0-1.8c0,0,0-0.2-0.2-0.2c-0.3,0-0.8,0-1,0c0,0,0,0-0.1,0c0,0,0,0-0.1,0
				l-0.1-0.2c0,0,0,0,0,0c0,0,0,0,0,0c0,0,0.2,0,0.3,0c0.3,0,0.7,0,1,0c0.1,0,0.2,0,0.2-0.2c0-0.5,0-0.5-0.2-0.5c-0.2,0-0.6,0-0.8,0
				c0,0-0.1,0-0.2,0c0,0,0,0-0.1,0l-0.1-0.2c0,0,0,0,0,0c0,0,0,0,0,0c0.1,0,0.3,0,0.3,0c0.3,0,0.6,0,0.8,0c0.2,0,0.2-0.1,0.2-0.2
				c0-0.4,0-0.5-0.2-0.5h-0.2c-0.2,0-0.6,0-0.7,0c0,0-0.1,0-0.1,0c0,0,0,0-0.1,0l-0.1-0.2c0,0,0,0,0,0c0,0,0,0,0,0c0,0,0.3,0,0.3,0
				c0.1,0,0.6,0,0.9,0h0.5c0.2,0,0.2,0,0.6-0.8c0.1-0.2,0.2-0.5,0.2-0.5c0,0,0-0.1,0-0.1s0.6,0.2,0.6,0.3c0,0,0,0.1-0.2,0.2
				c-0.2,0.1-0.8,0.8-0.8,0.8c0,0,0,0,0.1,0c0.4,0,0.5,0,0.5-0.1c0.1-0.2,0.2-0.3,0.2-0.3c0,0,0.7,0.4,0.7,0.5
				c0,0.1-0.1,0.1-0.4,0.1h-1.1c-0.2,0-0.2,0-0.2,0.5c0,0.2,0.1,0.2,0.2,0.2h0.2c0.3,0,0.3,0,0.4,0c0,0,0.2-0.3,0.3-0.3
				c0,0,0.6,0.4,0.6,0.5c0,0.1-0.1,0.1-0.4,0.1H41.2z M40.5,169.1c0,0.3-0.2,0.4-0.3,0.4s-0.2-0.1-0.2-0.3c-0.1-0.4-0.2-0.6-0.3-0.8
				c0-0.1,0-0.1,0-0.1c0,0,0,0,0,0c0.1,0,0.4,0.2,0.7,0.4C40.5,168.9,40.5,169,40.5,169.1z M41.2,171.6c-0.1,0-0.2,0-0.2,0.2
				c0,0.2,0.3,0.8,0.4,0.8c0.2,0,0.6-0.8,0.6-0.9c0-0.1-0.1-0.1-0.1-0.1H41.2z"></path>
			<path class="st1 svg-elem-24" d="M39.2,178.6c-0.1,0-0.2,0-0.2,0.1c0,0.1,0.2,0.9,0.3,1.3c0.1,0.2,0.3,0.6,0.4,0.6c0.1,0,0.1,0,0.3-0.3
				c0,0,0.1-0.1,0.1,0c0,0-0.1,0.5-0.1,0.6s0,0.2,0.1,0.3c0.1,0.1,0.1,0.2,0.1,0.3c0,0.1-0.1,0.2-0.2,0.2c-0.3,0-0.7-0.6-0.9-1.1
				c0-0.1-0.1-0.1-0.1-0.1c-0.1,0-0.1,0-0.2,0.1c-0.2,0.1-1.4,0.8-1.5,0.9c0,0-0.1,0.2-0.1,0.2c0,0-0.5-0.6-0.5-0.7c0,0,0,0,0,0
				c0,0,0.2,0,0.2,0c0.1,0,0.4,0,0.4-0.2c0-0.1,0-2.1,0-2.4c0-0.2,0-1.4,0-1.5c0,0,0-0.2,0-0.2c0,0,0,0,0,0c0.1,0,0.5,0.2,0.6,0.2
				c0,0,1.2-0.3,1.3-0.6c0.1-0.2,0.1-0.2,0.1-0.2c0,0,0.3,0.2,0.4,0.3c0.2,0.1,0.2,0.2,0.2,0.2c0,0.1-0.1,0.1-0.6,0.2
				c-0.3,0.1-0.4,0.1-0.4,0.2c0,0.1,0,0.5,0,0.9c0,0.5,0,0.6,0.2,0.6c0.2,0,0.2,0,0.3-0.1c0.1-0.1,0.2-0.3,0.3-0.3
				c0.1,0,0.5,0.5,0.5,0.5c0,0.1,0,0.1-0.4,0.1H39.2z M38.6,181.8c0.3,0,0.3,0,0.4-0.1c0.2-0.3,0.2-0.3,0.2-0.3c0,0,0.1,0,0.5,0.4
				c0,0,0,0,0,0.1c0,0.1-0.1,0.1-0.3,0.1h-1.1c-0.5,0-0.7,0-0.8,0c0,0-0.1,0-0.1,0c0,0,0,0-0.1,0l-0.1-0.2c0,0,0,0,0,0c0,0,0,0,0,0
				c0,0,0.2,0,0.3,0c0.3,0,0.5,0,0.8,0H38.6z M37.9,178.6c-0.1,0-0.2,0-0.2,0.1c0,0.1,0,1.6,0,1.7s0,0.2,0.1,0.2
				c0.2,0,0.8-0.3,0.9-0.3c0.2-0.1,0.3-0.1,0.3-0.2c0,0-0.1-0.4-0.1-0.4c0-0.2-0.2-1-0.2-1c0-0.1-0.1-0.1-0.2-0.1H37.9z M38.4,178.4
				c0.1,0,0.2,0,0.2-0.2c0,0,0-0.1,0-0.4c0-0.2,0-0.5,0-0.7c0-0.3,0-0.3-0.1-0.3c0,0-0.3,0-0.3,0c-0.2,0-0.3,0-0.3,0.1
				c0,0.1,0,0.9,0,1.2c0,0.1,0,0.2,0.2,0.2H38.4z M42,176.5c0.1,0,0.1,0,0.2-0.1c0-0.1,0.1-0.1,0.1-0.1c0.1,0,0.6,0.3,0.6,0.4
				c0,0.1-0.1,0.1-0.1,0.1c-0.1,0-0.1,0.1-0.1,0.1c-0.2,0.4-0.5,0.8-0.8,1.2c0,0.1-0.3,0.4-0.3,0.4c0,0,0.1,0.1,0.3,0.2
				c0.3,0.2,1.2,0.8,1.2,1.8c0,0.5-0.3,0.8-0.5,1c-0.2,0.1-0.5,0.2-0.6,0.2c0,0-0.1,0-0.1-0.1c-0.1-0.1-0.1-0.2-0.2-0.3
				c0,0-0.3-0.2-0.3-0.3c0,0,0.1,0,0.1,0c0.1,0,0.5,0,0.5,0c0.5,0,0.6-0.4,0.6-0.7c0-0.6-0.3-1.2-0.8-1.6c-0.2-0.1-0.2-0.2-0.2-0.2
				c0-0.1,0.2-0.3,0.2-0.4c0-0.1,0.4-1.3,0.4-1.4c0-0.1-0.1-0.1-0.1-0.1h-0.7c-0.1,0-0.2,0-0.2,0.1c0,0.1,0,1,0,1.1
				c0,1.1,0,2.8,0.1,3.8c0,0,0,0.3,0,0.4c0,0.2-0.2,0.3-0.4,0.3c-0.1,0-0.2,0-0.2-0.2c0,0,0-0.3,0-0.3c0-0.2,0-4.6,0-5
				c0-0.1,0-0.2,0-0.3c0-0.1,0-0.1,0-0.2c0,0,0-0.1,0.1-0.1c0,0,0.3,0.1,0.4,0.1c0.1,0,0.2,0,0.3,0H42z"></path>
		</g>
	</g>
</g>
</svg>
