<svg version="1.1" xmlns="http://www.w3.org/2000/svg" xmlns:xlink="http://www.w3.org/1999/xlink" x="0px" y="0px" width="100%" height="100%" viewBox="0 0 75 165" style="enable-background:new 0 0 75 165;" xml:space="preserve">
<style type="text/css">
	.st0{fill:#3E3A39;}
	.st1{fill:none;stroke:#3E3A39;stroke-miterlimit:10;}
@-webkit-keyframes animate-svg-stroke-1{0%{stroke-dashoffset:54.24791717529297px;stroke-dasharray:54.24791717529297px}100%{stroke-dashoffset:0;stroke-dasharray:54.24791717529297px}}@keyframes animate-svg-stroke-1{0%{stroke-dashoffset:54.24791717529297px;stroke-dasharray:54.24791717529297px}100%{stroke-dashoffset:0;stroke-dasharray:54.24791717529297px}}@-webkit-keyframes animate-svg-fill-1{0%{fill:transparent}100%{fill:rgb(62,58,57)}}@keyframes animate-svg-fill-1{0%{fill:transparent}100%{fill:rgb(62,58,57)}}.svg-elem-1{-webkit-animation:animate-svg-stroke-1 1s cubic-bezier(0.47,0,0.745,0.715) 0s both,animate-svg-fill-1 0.7s cubic-bezier(0.47,0,0.745,0.715) 0.8s both;animation:animate-svg-stroke-1 1s cubic-bezier(0.47,0,0.745,0.715) 0s both,animate-svg-fill-1 0.7s cubic-bezier(0.47,0,0.745,0.715) 0.8s both}@-webkit-keyframes animate-svg-stroke-2{0%{stroke-dashoffset:59.01158905029297px;stroke-dasharray:59.01158905029297px}100%{stroke-dashoffset:0;stroke-dasharray:59.01158905029297px}}@keyframes animate-svg-stroke-2{0%{stroke-dashoffset:59.01158905029297px;stroke-dasharray:59.01158905029297px}100%{stroke-dashoffset:0;stroke-dasharray:59.01158905029297px}}@-webkit-keyframes animate-svg-fill-2{0%{fill:transparent}100%{fill:rgb(62,58,57)}}@keyframes animate-svg-fill-2{0%{fill:transparent}100%{fill:rgb(62,58,57)}}.svg-elem-2{-webkit-animation:animate-svg-stroke-2 1s cubic-bezier(0.47,0,0.745,0.715) 0.12s both,animate-svg-fill-2 0.7s cubic-bezier(0.47,0,0.745,0.715) 0.9s both;animation:animate-svg-stroke-2 1s cubic-bezier(0.47,0,0.745,0.715) 0.12s both,animate-svg-fill-2 0.7s cubic-bezier(0.47,0,0.745,0.715) 0.9s both}@-webkit-keyframes animate-svg-stroke-3{0%{stroke-dashoffset:46.52194595336914px;stroke-dasharray:46.52194595336914px}100%{stroke-dashoffset:0;stroke-dasharray:46.52194595336914px}}@keyframes animate-svg-stroke-3{0%{stroke-dashoffset:46.52194595336914px;stroke-dasharray:46.52194595336914px}100%{stroke-dashoffset:0;stroke-dasharray:46.52194595336914px}}@-webkit-keyframes animate-svg-fill-3{0%{fill:transparent}100%{fill:rgb(62,58,57)}}@keyframes animate-svg-fill-3{0%{fill:transparent}100%{fill:rgb(62,58,57)}}.svg-elem-3{-webkit-animation:animate-svg-stroke-3 1s cubic-bezier(0.47,0,0.745,0.715) 0.24s both,animate-svg-fill-3 0.7s cubic-bezier(0.47,0,0.745,0.715) 1s both;animation:animate-svg-stroke-3 1s cubic-bezier(0.47,0,0.745,0.715) 0.24s both,animate-svg-fill-3 0.7s cubic-bezier(0.47,0,0.745,0.715) 1s both}@-webkit-keyframes animate-svg-stroke-4{0%{stroke-dashoffset:56.952110290527344px;stroke-dasharray:56.952110290527344px}100%{stroke-dashoffset:0;stroke-dasharray:56.952110290527344px}}@keyframes animate-svg-stroke-4{0%{stroke-dashoffset:56.952110290527344px;stroke-dasharray:56.952110290527344px}100%{stroke-dashoffset:0;stroke-dasharray:56.952110290527344px}}@-webkit-keyframes animate-svg-fill-4{0%{fill:transparent}100%{fill:rgb(62,58,57)}}@keyframes animate-svg-fill-4{0%{fill:transparent}100%{fill:rgb(62,58,57)}}.svg-elem-4{-webkit-animation:animate-svg-stroke-4 1s cubic-bezier(0.47,0,0.745,0.715) 0.36s both,animate-svg-fill-4 0.7s cubic-bezier(0.47,0,0.745,0.715) 1.1s both;animation:animate-svg-stroke-4 1s cubic-bezier(0.47,0,0.745,0.715) 0.36s both,animate-svg-fill-4 0.7s cubic-bezier(0.47,0,0.745,0.715) 1.1s both}@-webkit-keyframes animate-svg-stroke-5{0%{stroke-dashoffset:62.13325500488281px;stroke-dasharray:62.13325500488281px}100%{stroke-dashoffset:0;stroke-dasharray:62.13325500488281px}}@keyframes animate-svg-stroke-5{0%{stroke-dashoffset:62.13325500488281px;stroke-dasharray:62.13325500488281px}100%{stroke-dashoffset:0;stroke-dasharray:62.13325500488281px}}@-webkit-keyframes animate-svg-fill-5{0%{fill:transparent}100%{fill:rgb(62,58,57)}}@keyframes animate-svg-fill-5{0%{fill:transparent}100%{fill:rgb(62,58,57)}}.svg-elem-5{-webkit-animation:animate-svg-stroke-5 1s cubic-bezier(0.47,0,0.745,0.715) 0.48s both,animate-svg-fill-5 0.7s cubic-bezier(0.47,0,0.745,0.715) 1.2000000000000002s both;animation:animate-svg-stroke-5 1s cubic-bezier(0.47,0,0.745,0.715) 0.48s both,animate-svg-fill-5 0.7s cubic-bezier(0.47,0,0.745,0.715) 1.2000000000000002s both}@-webkit-keyframes animate-svg-stroke-6{0%{stroke-dashoffset:82.98353576660156px;stroke-dasharray:82.98353576660156px}100%{stroke-dashoffset:0;stroke-dasharray:82.98353576660156px}}@keyframes animate-svg-stroke-6{0%{stroke-dashoffset:82.98353576660156px;stroke-dasharray:82.98353576660156px}100%{stroke-dashoffset:0;stroke-dasharray:82.98353576660156px}}@-webkit-keyframes animate-svg-fill-6{0%{fill:transparent}100%{fill:rgb(62,58,57)}}@keyframes animate-svg-fill-6{0%{fill:transparent}100%{fill:rgb(62,58,57)}}.svg-elem-6{-webkit-animation:animate-svg-stroke-6 1s cubic-bezier(0.47,0,0.745,0.715) 0.6s both,animate-svg-fill-6 0.7s cubic-bezier(0.47,0,0.745,0.715) 1.3s both;animation:animate-svg-stroke-6 1s cubic-bezier(0.47,0,0.745,0.715) 0.6s both,animate-svg-fill-6 0.7s cubic-bezier(0.47,0,0.745,0.715) 1.3s both}@-webkit-keyframes animate-svg-stroke-7{0%{stroke-dashoffset:57.81931686401367px;stroke-dasharray:57.81931686401367px}100%{stroke-dashoffset:0;stroke-dasharray:57.81931686401367px}}@keyframes animate-svg-stroke-7{0%{stroke-dashoffset:57.81931686401367px;stroke-dasharray:57.81931686401367px}100%{stroke-dashoffset:0;stroke-dasharray:57.81931686401367px}}@-webkit-keyframes animate-svg-fill-7{0%{fill:transparent}100%{fill:rgb(62,58,57)}}@keyframes animate-svg-fill-7{0%{fill:transparent}100%{fill:rgb(62,58,57)}}.svg-elem-7{-webkit-animation:animate-svg-stroke-7 1s cubic-bezier(0.47,0,0.745,0.715) 0.72s both,animate-svg-fill-7 0.7s cubic-bezier(0.47,0,0.745,0.715) 1.4000000000000001s both;animation:animate-svg-stroke-7 1s cubic-bezier(0.47,0,0.745,0.715) 0.72s both,animate-svg-fill-7 0.7s cubic-bezier(0.47,0,0.745,0.715) 1.4000000000000001s both}@-webkit-keyframes animate-svg-stroke-8{0%{stroke-dashoffset:56.084747314453125px;stroke-dasharray:56.084747314453125px}100%{stroke-dashoffset:0;stroke-dasharray:56.084747314453125px}}@keyframes animate-svg-stroke-8{0%{stroke-dashoffset:56.084747314453125px;stroke-dasharray:56.084747314453125px}100%{stroke-dashoffset:0;stroke-dasharray:56.084747314453125px}}@-webkit-keyframes animate-svg-fill-8{0%{fill:transparent}100%{fill:rgb(62,58,57)}}@keyframes animate-svg-fill-8{0%{fill:transparent}100%{fill:rgb(62,58,57)}}.svg-elem-8{-webkit-animation:animate-svg-stroke-8 1s cubic-bezier(0.47,0,0.745,0.715) 0.84s both,animate-svg-fill-8 0.7s cubic-bezier(0.47,0,0.745,0.715) 1.5s both;animation:animate-svg-stroke-8 1s cubic-bezier(0.47,0,0.745,0.715) 0.84s both,animate-svg-fill-8 0.7s cubic-bezier(0.47,0,0.745,0.715) 1.5s both}@-webkit-keyframes animate-svg-stroke-9{0%{stroke-dashoffset:46.47770690917969px;stroke-dasharray:46.47770690917969px}100%{stroke-dashoffset:0;stroke-dasharray:46.47770690917969px}}@keyframes animate-svg-stroke-9{0%{stroke-dashoffset:46.47770690917969px;stroke-dasharray:46.47770690917969px}100%{stroke-dashoffset:0;stroke-dasharray:46.47770690917969px}}@-webkit-keyframes animate-svg-fill-9{0%{fill:transparent}100%{fill:rgb(62,58,57)}}@keyframes animate-svg-fill-9{0%{fill:transparent}100%{fill:rgb(62,58,57)}}.svg-elem-9{-webkit-animation:animate-svg-stroke-9 1s cubic-bezier(0.47,0,0.745,0.715) 0.96s both,animate-svg-fill-9 0.7s cubic-bezier(0.47,0,0.745,0.715) 1.6s both;animation:animate-svg-stroke-9 1s cubic-bezier(0.47,0,0.745,0.715) 0.96s both,animate-svg-fill-9 0.7s cubic-bezier(0.47,0,0.745,0.715) 1.6s both}@-webkit-keyframes animate-svg-stroke-10{0%{stroke-dashoffset:25.50836944580078px;stroke-dasharray:25.50836944580078px}100%{stroke-dashoffset:0;stroke-dasharray:25.50836944580078px}}@keyframes animate-svg-stroke-10{0%{stroke-dashoffset:25.50836944580078px;stroke-dasharray:25.50836944580078px}100%{stroke-dashoffset:0;stroke-dasharray:25.50836944580078px}}@-webkit-keyframes animate-svg-fill-10{0%{fill:transparent}100%{fill:rgb(62,58,57)}}@keyframes animate-svg-fill-10{0%{fill:transparent}100%{fill:rgb(62,58,57)}}.svg-elem-10{-webkit-animation:animate-svg-stroke-10 1s cubic-bezier(0.47,0,0.745,0.715) 1.08s both,animate-svg-fill-10 0.7s cubic-bezier(0.47,0,0.745,0.715) 1.7000000000000002s both;animation:animate-svg-stroke-10 1s cubic-bezier(0.47,0,0.745,0.715) 1.08s both,animate-svg-fill-10 0.7s cubic-bezier(0.47,0,0.745,0.715) 1.7000000000000002s both}@-webkit-keyframes animate-svg-stroke-11{0%{stroke-dashoffset:42.86642074584961px;stroke-dasharray:42.86642074584961px}100%{stroke-dashoffset:0;stroke-dasharray:42.86642074584961px}}@keyframes animate-svg-stroke-11{0%{stroke-dashoffset:42.86642074584961px;stroke-dasharray:42.86642074584961px}100%{stroke-dashoffset:0;stroke-dasharray:42.86642074584961px}}@-webkit-keyframes animate-svg-fill-11{0%{fill:transparent}100%{fill:rgb(62,58,57)}}@keyframes animate-svg-fill-11{0%{fill:transparent}100%{fill:rgb(62,58,57)}}.svg-elem-11{-webkit-animation:animate-svg-stroke-11 1s cubic-bezier(0.47,0,0.745,0.715) 1.2s both,animate-svg-fill-11 0.7s cubic-bezier(0.47,0,0.745,0.715) 1.8s both;animation:animate-svg-stroke-11 1s cubic-bezier(0.47,0,0.745,0.715) 1.2s both,animate-svg-fill-11 0.7s cubic-bezier(0.47,0,0.745,0.715) 1.8s both}@-webkit-keyframes animate-svg-stroke-12{0%{stroke-dashoffset:50.492183685302734px;stroke-dasharray:50.492183685302734px}100%{stroke-dashoffset:0;stroke-dasharray:50.492183685302734px}}@keyframes animate-svg-stroke-12{0%{stroke-dashoffset:50.492183685302734px;stroke-dasharray:50.492183685302734px}100%{stroke-dashoffset:0;stroke-dasharray:50.492183685302734px}}@-webkit-keyframes animate-svg-fill-12{0%{fill:transparent}100%{fill:rgb(62,58,57)}}@keyframes animate-svg-fill-12{0%{fill:transparent}100%{fill:rgb(62,58,57)}}.svg-elem-12{-webkit-animation:animate-svg-stroke-12 1s cubic-bezier(0.47,0,0.745,0.715) 1.3199999999999998s both,animate-svg-fill-12 0.7s cubic-bezier(0.47,0,0.745,0.715) 1.9000000000000001s both;animation:animate-svg-stroke-12 1s cubic-bezier(0.47,0,0.745,0.715) 1.3199999999999998s both,animate-svg-fill-12 0.7s cubic-bezier(0.47,0,0.745,0.715) 1.9000000000000001s both}@-webkit-keyframes animate-svg-stroke-13{0%{stroke-dashoffset:51.237117767333984px;stroke-dasharray:51.237117767333984px}100%{stroke-dashoffset:0;stroke-dasharray:51.237117767333984px}}@keyframes animate-svg-stroke-13{0%{stroke-dashoffset:51.237117767333984px;stroke-dasharray:51.237117767333984px}100%{stroke-dashoffset:0;stroke-dasharray:51.237117767333984px}}@-webkit-keyframes animate-svg-fill-13{0%{fill:transparent}100%{fill:rgb(62,58,57)}}@keyframes animate-svg-fill-13{0%{fill:transparent}100%{fill:rgb(62,58,57)}}.svg-elem-13{-webkit-animation:animate-svg-stroke-13 1s cubic-bezier(0.47,0,0.745,0.715) 1.44s both,animate-svg-fill-13 0.7s cubic-bezier(0.47,0,0.745,0.715) 2s both;animation:animate-svg-stroke-13 1s cubic-bezier(0.47,0,0.745,0.715) 1.44s both,animate-svg-fill-13 0.7s cubic-bezier(0.47,0,0.745,0.715) 2s both}@-webkit-keyframes animate-svg-stroke-14{0%{stroke-dashoffset:51.09257888793945px;stroke-dasharray:51.09257888793945px}100%{stroke-dashoffset:0;stroke-dasharray:51.09257888793945px}}@keyframes animate-svg-stroke-14{0%{stroke-dashoffset:51.09257888793945px;stroke-dasharray:51.09257888793945px}100%{stroke-dashoffset:0;stroke-dasharray:51.09257888793945px}}@-webkit-keyframes animate-svg-fill-14{0%{fill:transparent}100%{fill:rgb(62,58,57)}}@keyframes animate-svg-fill-14{0%{fill:transparent}100%{fill:rgb(62,58,57)}}.svg-elem-14{-webkit-animation:animate-svg-stroke-14 1s cubic-bezier(0.47,0,0.745,0.715) 1.56s both,animate-svg-fill-14 0.7s cubic-bezier(0.47,0,0.745,0.715) 2.1s both;animation:animate-svg-stroke-14 1s cubic-bezier(0.47,0,0.745,0.715) 1.56s both,animate-svg-fill-14 0.7s cubic-bezier(0.47,0,0.745,0.715) 2.1s both}@-webkit-keyframes animate-svg-stroke-15{0%{stroke-dashoffset:118.69999694824219px;stroke-dasharray:118.69999694824219px}100%{stroke-dashoffset:0;stroke-dasharray:118.69999694824219px}}@keyframes animate-svg-stroke-15{0%{stroke-dashoffset:118.69999694824219px;stroke-dasharray:118.69999694824219px}100%{stroke-dashoffset:0;stroke-dasharray:118.69999694824219px}}.svg-elem-15{-webkit-animation:animate-svg-stroke-15 1s cubic-bezier(0.47,0,0.745,0.715) 1.68s both,animate-svg-fill-15 0.7s cubic-bezier(0.47,0,0.745,0.715) 2.2s both;animation:animate-svg-stroke-15 1s cubic-bezier(0.47,0,0.745,0.715) 1.68s both,animate-svg-fill-15 0.7s cubic-bezier(0.47,0,0.745,0.715) 2.2s both}@-webkit-keyframes animate-svg-stroke-16{0%{stroke-dashoffset:118.69999694824219px;stroke-dasharray:118.69999694824219px}100%{stroke-dashoffset:0;stroke-dasharray:118.69999694824219px}}@keyframes animate-svg-stroke-16{0%{stroke-dashoffset:118.69999694824219px;stroke-dasharray:118.69999694824219px}100%{stroke-dashoffset:0;stroke-dasharray:118.69999694824219px}}.svg-elem-16{-webkit-animation:animate-svg-stroke-16 1s cubic-bezier(0.47,0,0.745,0.715) 1.7999999999999998s both,animate-svg-fill-16 0.7s cubic-bezier(0.47,0,0.745,0.715) 2.3s both;animation:animate-svg-stroke-16 1s cubic-bezier(0.47,0,0.745,0.715) 1.7999999999999998s both,animate-svg-fill-16 0.7s cubic-bezier(0.47,0,0.745,0.715) 2.3s both}@-webkit-keyframes animate-svg-stroke-17{0%{stroke-dashoffset:48.783512115478516px;stroke-dasharray:48.783512115478516px}100%{stroke-dashoffset:0;stroke-dasharray:48.783512115478516px}}@keyframes animate-svg-stroke-17{0%{stroke-dashoffset:48.783512115478516px;stroke-dasharray:48.783512115478516px}100%{stroke-dashoffset:0;stroke-dasharray:48.783512115478516px}}@-webkit-keyframes animate-svg-fill-17{0%{fill:transparent}100%{fill:rgb(62,58,57)}}@keyframes animate-svg-fill-17{0%{fill:transparent}100%{fill:rgb(62,58,57)}}.svg-elem-17{-webkit-animation:animate-svg-stroke-17 1s cubic-bezier(0.47,0,0.745,0.715) 1.92s both,animate-svg-fill-17 0.7s cubic-bezier(0.47,0,0.745,0.715) 2.4000000000000004s both;animation:animate-svg-stroke-17 1s cubic-bezier(0.47,0,0.745,0.715) 1.92s both,animate-svg-fill-17 0.7s cubic-bezier(0.47,0,0.745,0.715) 2.4000000000000004s both}@-webkit-keyframes animate-svg-stroke-18{0%{stroke-dashoffset:68.76530456542969px;stroke-dasharray:68.76530456542969px}100%{stroke-dashoffset:0;stroke-dasharray:68.76530456542969px}}@keyframes animate-svg-stroke-18{0%{stroke-dashoffset:68.76530456542969px;stroke-dasharray:68.76530456542969px}100%{stroke-dashoffset:0;stroke-dasharray:68.76530456542969px}}@-webkit-keyframes animate-svg-fill-18{0%{fill:transparent}100%{fill:rgb(62,58,57)}}@keyframes animate-svg-fill-18{0%{fill:transparent}100%{fill:rgb(62,58,57)}}.svg-elem-18{-webkit-animation:animate-svg-stroke-18 1s cubic-bezier(0.47,0,0.745,0.715) 2.04s both,animate-svg-fill-18 0.7s cubic-bezier(0.47,0,0.745,0.715) 2.5s both;animation:animate-svg-stroke-18 1s cubic-bezier(0.47,0,0.745,0.715) 2.04s both,animate-svg-fill-18 0.7s cubic-bezier(0.47,0,0.745,0.715) 2.5s both}@-webkit-keyframes animate-svg-stroke-19{0%{stroke-dashoffset:50.19029235839844px;stroke-dasharray:50.19029235839844px}100%{stroke-dashoffset:0;stroke-dasharray:50.19029235839844px}}@keyframes animate-svg-stroke-19{0%{stroke-dashoffset:50.19029235839844px;stroke-dasharray:50.19029235839844px}100%{stroke-dashoffset:0;stroke-dasharray:50.19029235839844px}}@-webkit-keyframes animate-svg-fill-19{0%{fill:transparent}100%{fill:rgb(62,58,57)}}@keyframes animate-svg-fill-19{0%{fill:transparent}100%{fill:rgb(62,58,57)}}.svg-elem-19{-webkit-animation:animate-svg-stroke-19 1s cubic-bezier(0.47,0,0.745,0.715) 2.16s both,animate-svg-fill-19 0.7s cubic-bezier(0.47,0,0.745,0.715) 2.6s both;animation:animate-svg-stroke-19 1s cubic-bezier(0.47,0,0.745,0.715) 2.16s both,animate-svg-fill-19 0.7s cubic-bezier(0.47,0,0.745,0.715) 2.6s both}@-webkit-keyframes animate-svg-stroke-20{0%{stroke-dashoffset:19.872520446777344px;stroke-dasharray:19.872520446777344px}100%{stroke-dashoffset:0;stroke-dasharray:19.872520446777344px}}@keyframes animate-svg-stroke-20{0%{stroke-dashoffset:19.872520446777344px;stroke-dasharray:19.872520446777344px}100%{stroke-dashoffset:0;stroke-dasharray:19.872520446777344px}}@-webkit-keyframes animate-svg-fill-20{0%{fill:transparent}100%{fill:rgb(62,58,57)}}@keyframes animate-svg-fill-20{0%{fill:transparent}100%{fill:rgb(62,58,57)}}.svg-elem-20{-webkit-animation:animate-svg-stroke-20 1s cubic-bezier(0.47,0,0.745,0.715) 2.28s both,animate-svg-fill-20 0.7s cubic-bezier(0.47,0,0.745,0.715) 2.7s both;animation:animate-svg-stroke-20 1s cubic-bezier(0.47,0,0.745,0.715) 2.28s both,animate-svg-fill-20 0.7s cubic-bezier(0.47,0,0.745,0.715) 2.7s both}@-webkit-keyframes animate-svg-stroke-21{0%{stroke-dashoffset:39.71329879760742px;stroke-dasharray:39.71329879760742px}100%{stroke-dashoffset:0;stroke-dasharray:39.71329879760742px}}@keyframes animate-svg-stroke-21{0%{stroke-dashoffset:39.71329879760742px;stroke-dasharray:39.71329879760742px}100%{stroke-dashoffset:0;stroke-dasharray:39.71329879760742px}}@-webkit-keyframes animate-svg-fill-21{0%{fill:transparent}100%{fill:rgb(62,58,57)}}@keyframes animate-svg-fill-21{0%{fill:transparent}100%{fill:rgb(62,58,57)}}.svg-elem-21{-webkit-animation:animate-svg-stroke-21 1s cubic-bezier(0.47,0,0.745,0.715) 2.4s both,animate-svg-fill-21 0.7s cubic-bezier(0.47,0,0.745,0.715) 2.8s both;animation:animate-svg-stroke-21 1s cubic-bezier(0.47,0,0.745,0.715) 2.4s both,animate-svg-fill-21 0.7s cubic-bezier(0.47,0,0.745,0.715) 2.8s both}@-webkit-keyframes animate-svg-stroke-22{0%{stroke-dashoffset:77.84039306640625px;stroke-dasharray:77.84039306640625px}100%{stroke-dashoffset:0;stroke-dasharray:77.84039306640625px}}@keyframes animate-svg-stroke-22{0%{stroke-dashoffset:77.84039306640625px;stroke-dasharray:77.84039306640625px}100%{stroke-dashoffset:0;stroke-dasharray:77.84039306640625px}}@-webkit-keyframes animate-svg-fill-22{0%{fill:transparent}100%{fill:rgb(62,58,57)}}@keyframes animate-svg-fill-22{0%{fill:transparent}100%{fill:rgb(62,58,57)}}.svg-elem-22{-webkit-animation:animate-svg-stroke-22 1s cubic-bezier(0.47,0,0.745,0.715) 2.52s both,animate-svg-fill-22 0.7s cubic-bezier(0.47,0,0.745,0.715) 2.9000000000000004s both;animation:animate-svg-stroke-22 1s cubic-bezier(0.47,0,0.745,0.715) 2.52s both,animate-svg-fill-22 0.7s cubic-bezier(0.47,0,0.745,0.715) 2.9000000000000004s both}@-webkit-keyframes animate-svg-stroke-23{0%{stroke-dashoffset:69.47334289550781px;stroke-dasharray:69.47334289550781px}100%{stroke-dashoffset:0;stroke-dasharray:69.47334289550781px}}@keyframes animate-svg-stroke-23{0%{stroke-dashoffset:69.47334289550781px;stroke-dasharray:69.47334289550781px}100%{stroke-dashoffset:0;stroke-dasharray:69.47334289550781px}}@-webkit-keyframes animate-svg-fill-23{0%{fill:transparent}100%{fill:rgb(62,58,57)}}@keyframes animate-svg-fill-23{0%{fill:transparent}100%{fill:rgb(62,58,57)}}.svg-elem-23{-webkit-animation:animate-svg-stroke-23 1s cubic-bezier(0.47,0,0.745,0.715) 2.6399999999999997s both,animate-svg-fill-23 0.7s cubic-bezier(0.47,0,0.745,0.715) 3s both;animation:animate-svg-stroke-23 1s cubic-bezier(0.47,0,0.745,0.715) 2.6399999999999997s both,animate-svg-fill-23 0.7s cubic-bezier(0.47,0,0.745,0.715) 3s both}
</style>
<g>
	<g>
		<g>
			<path class="st0 svg-elem-1" d="M51.4,25.8c0-0.1,0.1-0.2,0.3-0.3c0.3-0.1,0.8-0.5,1.1-0.7c0.1-0.1,0.3-0.2,0.3-0.4c0-0.3-0.7-1.4-0.9-1.6
				c-0.1-0.1-0.1-0.1-0.1-0.2c0-0.1,0.2-0.2,0.6-0.3c0.1,0,0.3-0.1,0.5-0.2c0.1,0,0.3-0.1,0.4-0.1s0.1,0,0.1,0.1c0,0,0,0.1,0,0.1
				c0,0,0,0.1,0,0.1c0,0.2,0.4,1,0.5,1.2c0.1,0.1,0.1,0.2,0.3,0.2c0.1,0,0.2-0.1,0.3-0.1c1.1-0.7,2.4-1.3,3.7-1.3
				c1.3,0,2.3,0.7,2.3,2.1c0,1.6-1.5,2.4-2.8,2.7c-0.1,0-0.3,0.1-0.5,0.1c-0.3,0-0.6-0.8-0.6-1c0-0.2,0.2-0.2,0.4-0.2
				c0.8-0.1,2.3-0.5,2.3-1.6c0-0.6-0.5-1-1.1-1c-1,0-2.3,0.8-3.1,1.3c-0.1,0.1-0.2,0.2-0.2,0.3c0,0.3,1.8,3.3,2.1,3.7
				c0.1,0.1,0.3,0.4,0.3,0.5c0,0.2-0.8,0.6-1.1,0.6c-0.2,0-0.3-0.2-0.4-0.4c-0.6-1.2-1.3-2.3-1.9-3.5c-0.1-0.1-0.1-0.2-0.3-0.2
				c-0.2,0-1.1,0.8-1.3,0.9c-0.1,0-0.2,0.1-0.2,0.1C51.9,26.8,51.4,26,51.4,25.8z M56.4,21.2c0.2,0.1,0.7,0.3,0.7,0.5
				c0,0.1-0.2,0.9-0.6,0.9c-0.1,0-0.3-0.1-0.5-0.2c-0.4-0.2-0.9-0.3-1.3-0.4c-0.1,0-0.3-0.1-0.3-0.2c0-0.1,0.3-1,0.5-1
				C55.2,20.8,56.2,21.2,56.4,21.2z"></path>
			<path class="st0 svg-elem-2" d="M55.2,37.2c0.1,0,0.1,0.1,0.1,0.1c0,0.1,0,0.1-0.1,0.2c-0.1,0.1-0.2,0.1-0.2,0.6c0,0.2-0.1,0.7-0.1,0.9
				c0,0.1,0,0.2,0.2,0.2c0.1,0,0.5,0.5,0.5,0.6c0,0.1-0.1,0.2-0.2,0.3c-0.1,0.2-0.6,0.7-0.6,0.9c0,0.1,0,0.2,0.1,0.2
				c0,0,0.1-0.1,0.2-0.1c0.9-0.8,1.8-1.4,3-1.4c1.6,0,2.8,1.4,2.8,3c0,1.8-1.4,3-2.9,3.6c-0.2,0.1-0.7,0.3-1,0.3
				c-0.3,0-0.7-0.7-0.7-1c0-0.2,0.1-0.2,0.3-0.3c1.3-0.3,2.9-1,2.9-2.6c0-0.9-0.6-1.8-1.6-1.8c-1,0-2.4,0.9-3,1.7
				c-0.1,0.1-0.1,0.3-0.1,0.5c0,0.7,0,1.4,0,2.1c0,0.3,0.1,1.5,0.1,1.6c0,0.1-0.1,0.2-0.9,0.2c-0.3,0-0.5,0-0.5-0.3
				c0-0.1,0-0.3,0-0.4c0-0.4,0-0.9,0-0.9c0-0.4,0-0.8,0-1.2c0-0.1,0-0.2-0.1-0.2s-0.2,0.1-0.2,0.2c-0.2,0.3-0.7,0.9-0.9,1.2
				c0,0.1-0.1,0.2-0.2,0.2c-0.2,0-0.9-0.7-0.9-0.9c0-0.1,0.2-0.3,0.3-0.4c0.7-0.7,1.6-1.8,2-2.7c0.1-0.1,0.1-0.3,0.1-0.5V41
				c0-0.1,0-0.3-0.2-0.3c-0.1,0-0.1,0-0.2,0C53.1,40.8,52.2,41,52,41s-0.2-0.2-0.3-0.3c-0.1-0.2-0.2-0.7-0.2-0.9
				c0-0.2,0.1-0.2,0.3-0.2H52c0.4,0,0.9,0,1.3-0.1c0.2,0,0.3-0.1,0.4-0.2c0.1-0.1,0.1-0.3,0.1-0.5c0-0.4,0-0.8,0-1.2
				c0-0.2,0-0.3,0-0.4c0-0.1,0.1-0.2,0.2-0.2C54.1,37,55.1,37.2,55.2,37.2z"></path>
			<path class="st0 svg-elem-3" d="M54.8,56.4c0.1,0,0.2,0.1,0.2,0.2c0,0.1-0.1,0.1-0.1,0.1c-0.2,0.1-0.2,0.2-0.3,0.5c-0.1,0.6-0.2,1.1-0.3,1.7
				c0,0.1,0,0.2,0,0.3s0,0.1,0.1,0.1c0.1,0,0.1,0,0.2-0.1c0.9-0.6,1.6-1.1,2.7-1.1c1.5,0,2.6,1,2.6,2.5c0,1.7-1.3,2.4-2.7,2.9
				c-0.4,0.1-1.2,0.3-1.6,0.3c-0.3,0-0.3-0.1-0.4-0.3c-0.1-0.2-0.2-0.6-0.2-0.8c0-0.2,0.1-0.2,0.3-0.2c0.5,0,1.1-0.1,1.6-0.2
				c0.9-0.2,1.7-0.6,1.7-1.6c0-0.8-0.7-1.3-1.4-1.3c-1.3,0-2.5,1.1-3.3,2c-0.1,0.1-0.2,0.3-0.4,0.3c-0.1,0-0.9-0.1-0.9-0.5
				c0-0.1,0.1-0.3,0.1-0.4c0.1-0.4,0.2-0.8,0.3-1.2c0.2-0.9,0.3-1.7,0.3-2.6c0-0.1,0-0.2,0-0.3c0-0.3,0-0.5,0.2-0.5
				C53.7,56,54.6,56.3,54.8,56.4z M55,53.8c0.2,0,1.2,0.6,1.4,0.8c0.2,0.1,0.9,0.5,0.9,0.7c0,0.2-0.5,0.9-0.7,0.9
				c-0.1,0-0.3-0.2-0.4-0.2c-0.5-0.4-1-0.7-1.5-1c-0.1-0.1-0.3-0.1-0.3-0.3C54.3,54.5,54.7,53.8,55,53.8z"></path>
			<path class="st0 svg-elem-4" d="M55.9,71.2c0.1,0,0.3,0.1,0.3,0.2c0,0.1,0,0.1-0.1,0.1c-0.2,0.2-0.3,0.4-0.3,0.8c0,0.1,0,0.3-0.1,0.5
				c0,0,0,0.1,0,0.1c0,0.2,0.1,0.3,0.3,0.3c0,0,0.1,0,0.1,0c0.5,0,0.9,0,1.4,0.3c0.6,0.4,0.7,1.1,0.7,1.7c0,1.1-0.2,2.7-0.7,3.7
				c-0.5,0.9-1.3,1.3-2.3,1.3c-0.3,0-0.4,0-0.6-0.3c-0.1-0.2-0.2-0.6-0.2-0.9c0-0.1,0-0.2,0.2-0.2s0.3,0,0.6,0
				c0.6,0,0.9-0.1,1.2-0.7c0.3-0.7,0.5-1.9,0.5-2.7c0-0.6,0-1.1-0.8-1.1c-0.7,0-0.8,0.1-0.9,0.4c-0.3,1.2-0.9,2.5-1.5,3.6
				c-0.3,0.5-0.8,1.3-1.2,1.7c-0.1,0.1-0.1,0.1-0.2,0.1c-0.2,0-1-0.5-1-0.7c0-0.1,0.1-0.2,0.2-0.3c0.9-1,1.6-2.1,2.1-3.3
				c0.1-0.1,0.3-0.8,0.3-0.9c0-0.1-0.1-0.2-0.2-0.2c-0.2,0-1.2,0.3-1.4,0.4c-0.1,0-0.2,0.1-0.3,0.1c-0.3,0-0.5-1.2-0.5-1.2
				c0-0.2,0.2-0.2,0.4-0.2c0.6-0.1,1.4-0.2,2-0.4c0.2,0,0.4-0.1,0.4-0.4c0.1-0.4,0.1-1.1,0.1-1.5c0-0.1,0-0.3,0-0.4
				c0-0.1,0-0.2,0.1-0.2C54.8,70.9,55.8,71.1,55.9,71.2z M61.2,75.1c0,0.3-0.8,0.7-1,0.7c-0.2,0-0.2-0.2-0.3-0.3
				c-0.5-1-0.8-1.7-1.6-2.6c0,0-0.1-0.1-0.1-0.2c0-0.2,0.7-0.6,0.9-0.6C59.5,72.1,61.2,74.8,61.2,75.1z"></path>
			<path class="st0 svg-elem-5" d="M56,87.6c0.1,0,0.2,0.1,0.2,0.1S56.1,87.9,56,88c-0.1,0.1-0.2,0.5-0.2,0.6c0,0.1-0.1,0.5-0.1,0.5
				c0,0.1,0,0.2,0.1,0.2s0.6-0.1,0.7-0.2c0,0,0.1,0,0.1,0c0.1,0,0.2,0.2,0.2,0.4c0,0.2,0.1,0.5,0.1,0.6c0,0.3-0.1,0.3-1.2,0.5
				c-0.4,0.1-0.4,0.2-0.6,0.6c-0.5,1.5-1.2,2.9-2,4.3c-0.1,0.1-0.1,0.2-0.2,0.2c-0.3,0-1.1-0.3-1.1-0.6c0-0.1,0.2-0.3,0.2-0.4
				c0.5-0.8,1.1-1.9,1.4-2.8c0.1-0.1,0.3-0.6,0.3-0.7c0-0.1-0.1-0.2-0.2-0.2c-0.1,0-1,0.1-1.3,0.1c-0.2,0-0.3-0.1-0.3-0.4
				c0-0.1-0.1-0.6-0.1-0.7c0-0.2,0.1-0.2,0.2-0.2h0.6c0.4,0,0.8,0,1.2-0.1c0.2,0,0.3,0,0.4-0.2c0.2-0.3,0.4-1.6,0.4-2
				c0-0.1,0-0.2,0.1-0.2C54.8,87.3,55.8,87.5,56,87.6z M57.7,91.2c0.1,0,0.2,0.1,0.2,0.3c0,0,0,0.4,0,0.6c0,0.3,0.1,2.1,0.1,2.3
				c0,0.2,0.2,0.2,0.4,0.3c0,0,0.1,0,0.1,0c0.3,0.1,1.7,0.8,1.7,1.1c0,0.2-0.4,0.9-0.7,0.9c-0.1,0-0.2-0.1-0.3-0.2
				c-0.2-0.1-0.8-0.6-1-0.6c-0.1,0-0.2,0.2-0.2,0.3c-0.1,0.9-0.9,1.2-1.7,1.2c-1,0-2.1-0.5-2.1-1.6c0-1.1,1-1.5,2-1.5h0.3
				c0.1,0,0.3-0.1,0.3-0.2c0-0.4-0.2-2.1-0.2-2.6c0-0.1,0-0.1,0-0.2c0-0.2,0.1-0.3,0.3-0.3C57.1,91.1,57.5,91.1,57.7,91.2z
				 M55.5,95.7c0,0.4,0.5,0.6,0.8,0.6c0.4,0,0.6-0.2,0.6-0.6c0-0.2,0-0.4-0.6-0.4C56,95.3,55.5,95.4,55.5,95.7z M60.7,91.2
				c0,0.3-0.7,0.8-0.9,0.8c-0.1,0-0.2-0.1-0.3-0.2c-0.4-0.6-1-1.1-1.5-1.5c0,0-0.2-0.1-0.2-0.2c0-0.2,0.6-0.8,0.8-0.8
				C59,89.2,60.7,90.9,60.7,91.2z"></path>
			<path class="st0 svg-elem-6" d="M55.3,109.1C55.2,109.1,55.2,109.1,55.3,109.1C55.2,109.1,55.3,109.2,55.3,109.1c0.2,0.1,0.3,0.2,0.3,0.3
				c0,0.1-0.1,0.1-0.2,0.2c-0.1,0-0.1,0.1-0.1,0.2c-0.1,0.8-0.2,1.5-0.6,2.3c-0.5,0.9-1.2,1.5-2,2c-0.2,0.1-0.9,0.5-1.2,0.5
				c-0.3,0-0.7-0.6-0.7-0.9c0-0.1,0.1-0.2,0.3-0.2c1.9-0.7,2.9-1.9,3-4c0-0.2-0.1-0.3-0.3-0.3h-1.5c-0.4,0-0.8,0-1.3,0
				c-0.3,0-0.3-0.2-0.3-0.6c0-0.5,0-0.6,0.3-0.6c0.4,0,0.9,0,1.3,0H55c0.2,0,0.3-0.1,0.3-0.3v-2.5c0-0.3,0-0.6,0-0.9
				c0,0,0-0.1,0-0.1c0-0.1,0.1-0.2,0.2-0.2c0.1,0,0.9,0.1,1.1,0.1c0.1,0,0.3,0,0.3,0.2c0,0.1,0,0.1-0.1,0.2
				c-0.1,0.1-0.1,0.3-0.1,0.6v2.7c0,0.2,0.1,0.3,0.3,0.3h2.8c0.4,0,0.9,0,1.3,0c0.3,0,0.3,0.2,0.3,0.6c0,0.4,0,0.6-0.3,0.6
				c-0.4,0-0.9,0-1.3,0h-1.8c-0.2,0-0.3,0.1-0.3,0.3v3.2c0,0.4,0.1,0.5,0.5,0.5h1.2c0.6,0,0.6-0.3,0.8-1.3c0-0.2,0.1-0.4,0.3-0.4
				c0.2,0,0.9,0.1,0.9,0.5c0,0.4-0.2,1.2-0.4,1.7c-0.3,0.6-0.7,0.6-1.3,0.6h-1.9c-0.8,0-1.3-0.1-1.3-1c0-0.3,0-0.5,0-0.8v-3.1
				c0-0.2-0.1-0.3-0.3-0.3H55.3z M53.6,107.6c-0.2,0-0.2-0.1-0.4-0.5c-0.3-0.6-0.6-1.2-0.9-1.8c0-0.1-0.1-0.2-0.1-0.2
				c0-0.2,0.7-0.5,0.9-0.5c0.1,0,0.2,0.1,0.3,0.2c0.1,0.2,0.5,0.8,0.6,1.1s0.6,1.1,0.6,1.3C54.5,107.3,53.8,107.6,53.6,107.6z
				 M60,105.2c-0.1,0-0.2,0.1-0.2,0.2c-0.2,0.4-1.1,2.3-1.5,2.3c-0.2,0-0.9-0.4-0.9-0.6c0-0.1,0.1-0.3,0.2-0.3
				c0.5-0.7,0.8-1.3,1.1-2.1c0-0.1,0-0.2,0.1-0.2c0.1,0,1.3,0.4,1.3,0.6C60.2,105.1,60.1,105.1,60,105.2z"></path>
			<path class="st0 svg-elem-7" d="M59.5,123.2c0.8,0.8,1.2,1.8,1.2,3c0,1.7-0.9,3.1-2.3,3.9c-0.3,0.1-1,0.5-1.3,0.5c-0.3,0-0.8-0.7-0.8-1
				c0-0.1,0.2-0.1,0.3-0.2c1.6-0.4,2.8-1.4,2.8-3.1c0-1.3-0.7-2.4-1.9-2.9c-0.1,0-0.3-0.1-0.5-0.1c-0.3,0-0.3,0.3-0.3,0.5
				c-0.1,1.8-0.6,3.9-1.7,5.3c-0.4,0.5-0.9,0.9-1.6,0.9c-0.7,0-1.3-0.5-1.6-1.1c-0.3-0.5-0.4-1.1-0.4-1.7c0-2.8,2.1-5,5-5
				C57.6,122,58.7,122.4,59.5,123.2z M54.8,123.5c-1.4,0.6-2.2,1.9-2.2,3.5c0,0.4,0.2,1.6,0.8,1.6c0.6,0,1.3-1.4,1.6-2.6
				c0.2-0.6,0.4-1.8,0.4-2.3c0-0.1-0.1-0.2-0.2-0.2C55.2,123.4,54.9,123.5,54.8,123.5z"></path>
			<path class="st0 svg-elem-8" d="M33.8,26.7c0,1.5,0.2,1.4,1.9,1.4c1.2,0,2.9,0,4-0.3c0,0,0.1,0,0.1,0c0.2,0,0.2,0.3,0.2,0.6
				c0,0.4,0,0.7-0.4,0.8c-0.8,0.1-3.3,0.1-4.2,0.1c-0.8,0-2.1,0-2.7-0.7c-0.3-0.4-0.3-1.4-0.3-1.9v-4.1c0-0.5,0-1.2-0.1-1.7v-0.1
				c0-0.1,0.1-0.1,0.1-0.1c0.1,0,1,0.2,1.2,0.2c0.1,0,0.3,0,0.3,0.2c0,0.1,0,0.1-0.1,0.2c-0.1,0.1-0.1,0.4-0.1,0.7
				c0,0.2,0,0.4,0,0.6v1.2c0,0.2,0.2,0.3,0.4,0.3c1.2,0,3.4-0.7,4.4-1.3c0.1,0,0.1-0.1,0.2-0.1c0.1,0,0.3,0.3,0.4,0.4
				c0.1,0.1,0.5,0.7,0.5,0.8c0,0.1-0.1,0.1-0.2,0.1c0,0-0.1,0-0.1,0c0,0-0.1,0-0.1,0c-0.1,0-0.3,0.1-0.4,0.1c-1.5,0.6-3,1.1-4.7,1.1
				c-0.2,0-0.4,0.1-0.4,0.3V26.7z M41.6,21.6c0,0.7-0.5,1.2-1.2,1.2s-1.2-0.5-1.2-1.2c0-0.7,0.5-1.2,1.2-1.2S41.6,21,41.6,21.6z
				 M39.8,21.6c0,0.4,0.3,0.6,0.6,0.6s0.6-0.3,0.6-0.6c0-0.3-0.3-0.6-0.6-0.6S39.8,21.3,39.8,21.6z"></path>
			<path class="st0 svg-elem-9" d="M38.7,38.5c0.4,0,0.9,0,1.2-0.1c0,0,0.1,0,0.2,0c0.2,0,0.3,0.2,0.4,0.3c0.1,0.2,0.4,0.5,0.4,0.7
				c0,0.1-0.2,0.3-0.3,0.3c-0.1,0.1-1,1-1.1,1.2c-0.4,0.4-1,1-1.5,1.4c-0.1,0.1-0.2,0.2-0.3,0.2c-0.2,0-0.9-0.5-0.9-0.7
				c0-0.1,0.2-0.3,0.3-0.4c0.2-0.2,1.5-1.4,1.5-1.5s-0.3-0.1-0.4-0.1h-5.1c-0.6,0-1.1,0-1.6,0c-0.3,0-0.3-0.1-0.3-0.6v-0.2
				c0-0.3,0-0.5,0.3-0.5c0.6,0,1.1,0,1.7,0H38.7z M36.6,40.4c0.1,0,0.3,0,0.3,0.1c0,0,0,0.1-0.1,0.1c-0.2,0.2-0.2,0.6-0.2,0.9
				c-0.3,2.2-1.1,3.7-2.9,5.1c-0.1,0.1-0.3,0.2-0.4,0.2c-0.2,0-1-0.6-1-0.8c0-0.1,0.1-0.2,0.3-0.3c1.3-0.8,2.1-2,2.5-3.5
				c0.2-0.6,0.2-1.1,0.2-1.8c0-0.1,0-0.2,0.1-0.2C35.5,40.3,36.4,40.4,36.6,40.4z"></path>
			<path class="st0 svg-elem-10" d="M39.3,55.2c0.1,0,0.3,0.1,0.3,0.3c0,0.1-0.1,0.1-0.1,0.2c-0.2,0.1-0.2,0.1-0.3,0.4c-1.2,2.7-2.5,4.8-5.2,6.2
				c-0.2,0.1-1.2,0.6-1.4,0.6c-0.2,0-0.8-0.7-0.8-0.9c0-0.1,0.1-0.2,0.4-0.3c2.1-0.8,3.7-2.1,4.8-4.1c0.4-0.7,0.9-1.8,1.1-2.6
				c0-0.1,0-0.2,0.2-0.2C38.3,54.7,39.2,55.1,39.3,55.2z"></path>
			<path class="st0 svg-elem-11" d="M37.9,72.1c0.2,0,0.4,0,0.5,0c0.1,0,0.2,0,0.3,0c0.3,0,0.8,0.7,0.8,0.8c0,0.1-0.1,0.3-0.3,0.5
				c-0.1,0.1-0.1,0.2-0.2,0.3c-0.5,0.8-1,1.6-1.6,2.3c-0.1,0.1-0.1,0.1-0.1,0.2c0,0.1,0.1,0.2,0.2,0.3c0.7,0.4,1.4,1,2,1.5
				c0.3,0.3,0.6,0.5,0.9,0.8c0,0,0.1,0.1,0.1,0.2c0,0.3-0.7,1-0.9,1c-0.1,0-0.2-0.1-0.3-0.2c-0.9-1-1.6-1.6-2.7-2.4
				c-0.1-0.1-0.2-0.1-0.3-0.1c-0.2,0-0.3,0.1-0.4,0.2c-0.9,0.8-1.9,1.5-3,2.1c-0.1,0.1-0.4,0.2-0.5,0.2c-0.3,0-0.8-0.8-0.8-1
				c0-0.1,0.1-0.2,0.3-0.2c2.1-0.8,4.1-2.7,5.3-4.5c0.1-0.1,0.2-0.3,0.2-0.4c0-0.2-0.2-0.2-0.3-0.2h-2.5c-0.5,0-1,0-1.5,0
				c-0.3,0-0.3-0.2-0.3-0.7c0-0.4,0-0.6,0.3-0.6c0.5,0,1,0,1.6,0H37.9z"></path>
			<path class="st0 svg-elem-12" d="M38.5,89.2c0.2,0,0.5,0,0.7-0.1c0,0,0.1,0,0.1,0c0.2,0,0.6,0.6,0.6,0.8c0,0.1,0,0.1-0.1,0.2
				c-0.1,0.2-0.2,0.3-0.3,0.6c-0.3,0.8-0.7,1.5-1.1,2.2c0,0.1-0.1,0.1-0.1,0.2c0,0.2,0.1,0.2,0.2,0.3c0.1,0.1,0.7,0.5,0.7,0.6
				c0,0.2-0.5,0.9-0.8,0.9c-0.1,0-0.1,0-0.2-0.1c-0.2-0.1-0.3-0.3-0.5-0.4c-0.1-0.1-0.2-0.1-0.3-0.1c-0.2,0-0.3,0.2-0.4,0.3
				c-0.7,0.8-1.6,1.5-2.6,2c-0.3,0.1-1.2,0.6-1.5,0.6c-0.3,0-0.9-0.8-0.9-0.9c0-0.1,0.2-0.2,0.5-0.3c1.2-0.4,2.5-1.2,3.4-2.2
				c0.1-0.1,0.2-0.2,0.2-0.3s-0.1-0.2-0.1-0.3c-0.3-0.2-0.9-0.5-1.2-0.6c-0.1,0-0.4-0.1-0.4-0.3c0-0.2,0.5-0.9,0.7-0.9
				c0.2,0,1.3,0.6,1.5,0.8c0.1,0,0.1,0.1,0.2,0.1c0.2,0,0.3-0.2,0.7-0.9c0,0,0-0.1,0.1-0.2c0.1-0.3,0.3-0.7,0.3-0.8
				c0-0.3-0.3-0.2-0.5-0.2h-2.3c-0.3,0-0.4,0.1-0.5,0.3c-0.4,0.6-1.1,1.4-1.6,1.8c-0.1,0.1-0.2,0.2-0.4,0.2c-0.2,0-1-0.5-1-0.7
				c0-0.1,0.1-0.2,0.2-0.2c1.2-0.9,2.6-2.9,3.1-4.3c0-0.1,0.1-0.3,0.2-0.3c0.1,0,0.3,0.1,0.7,0.3c0.1,0,0.7,0.3,0.7,0.4
				c0,0.1-0.1,0.1-0.1,0.1c-0.2,0.1-0.2,0.1-0.4,0.4c0,0.1-0.1,0.2-0.2,0.3c0,0.1-0.1,0.2-0.1,0.3c0,0.1,0.1,0.2,0.2,0.2H38.5z"></path>
			<path class="st0 svg-elem-13" d="M32.6,107.5c0.2,0,1.4,0.8,1.7,0.9c0.4,0.3,0.8,0.4,0.8,0.6c0,0.2-0.5,0.9-0.7,0.9c-0.1,0-0.2-0.1-0.3-0.1
				c-0.6-0.4-1.3-0.9-1.9-1.2c-0.1,0-0.2-0.1-0.2-0.2C31.9,108.2,32.4,107.5,32.6,107.5z M40.5,107.4c0,0.1-0.2,0.6-0.3,0.8
				c-0.5,1.1-1.3,2.3-2.1,3.1c-1.1,1.1-2.6,1.9-4.1,2.4c-0.2,0.1-0.3,0.1-0.4,0.3c0,0.1-0.1,0.2-0.2,0.2c-0.1,0-0.2-0.2-0.3-0.3
				c-0.2-0.3-0.3-0.6-0.4-1c0,0,0-0.1,0-0.1c0-0.1,0.2-0.1,0.2-0.1c0.4-0.1,1.1-0.3,1.4-0.5c1.2-0.5,2.1-1,3-1.9c1-1,1.5-2.1,2-3.4
				c0-0.1,0.1-0.3,0.2-0.3C39.9,106.6,40.5,107.2,40.5,107.4z M35.6,105.8c0.3,0.2,0.7,0.5,0.7,0.7c0,0.2-0.5,0.9-0.7,0.9
				c-0.1,0-0.2-0.1-0.3-0.2c-0.6-0.5-1.1-0.9-1.8-1.3c-0.1-0.1-0.2-0.1-0.2-0.2c0-0.2,0.5-0.8,0.7-0.8
				C34.3,104.8,35.4,105.6,35.6,105.8z M38.1,104.6c0.1,0,0.6,0.4,0.8,0.6c0.2,0.1,0.5,0.4,0.5,0.5c0,0.2-0.4,0.6-0.5,0.6
				c-0.1,0-0.2-0.1-0.3-0.2c-0.3-0.3-0.6-0.5-0.9-0.7c0,0-0.1-0.1-0.1-0.1C37.6,105,38,104.6,38.1,104.6z M39.2,103.6
				c0.1,0,1.3,0.9,1.3,1.1c0,0.2-0.4,0.6-0.5,0.6c-0.1,0-0.1-0.1-0.2-0.1c-0.3-0.3-0.6-0.6-1-0.8c0,0-0.1-0.1-0.1-0.2
				C38.7,104,39.1,103.6,39.2,103.6z"></path>
			<path class="st0 svg-elem-14" d="M36.1,123.8c0.2,0,0.4-0.2,0.4-0.4l0-0.4c0-0.5,0-1.3-0.1-1.7c0,0,0-0.1,0-0.2c0-0.1,0.1-0.1,0.2-0.1
				c0.3,0,0.7,0.1,1,0.1c0.3,0,0.3,0.1,0.3,0.2c0,0,0,0.1-0.1,0.1c-0.1,0.1-0.2,0.2-0.2,0.5c0,0.3,0,0.7,0,1l0,0.4
				c0,0.2,0.2,0.3,0.4,0.3l0.6,0c0.4,0,1.4-0.1,1.6-0.1c0.3,0,0.3,0.1,0.3,0.7c0,0.4,0,0.5-0.4,0.5h-0.7c-0.3,0-0.6,0-0.8,0l-0.6,0
				c-0.2,0-0.4,0.1-0.4,0.3l0.1,2.8v0.5c0,1.3-0.1,2.1-2.2,2.1c-0.3,0-0.4,0-0.5-0.3c-0.1-0.2-0.2-0.6-0.2-0.8c0-0.1,0-0.2,0.2-0.2
				c0,0,0.4,0,0.6,0c0.8,0,0.8-0.2,0.8-0.9v-0.3l0-2.2c0-0.1,0-0.2-0.1-0.2c-0.1,0-0.1,0-0.2,0.1c-1,1.2-2,2.1-3.2,3.1
				c-0.2,0.2-0.6,0.4-0.7,0.4c-0.2,0-0.9-0.6-0.9-0.8c0-0.1,0.3-0.3,0.4-0.3c1.3-0.8,2.5-1.8,3.5-3c0-0.1,0.1-0.1,0.1-0.2
				c0-0.1,0-0.1-0.2-0.1l-1.8,0c-0.5,0-1.3,0.1-1.5,0.1c-0.2,0-0.3-0.1-0.3-0.6c0-0.6,0-0.7,0.3-0.7c0.3,0,0.6,0,0.8,0
				c0.2,0,0.4,0,0.7,0L36.1,123.8z"></path>
		</g>
	</g>
	<polyline class="st1 svg-elem-15" points="37.5,1.5 73.2,1.5 73.2,82.5 	"></polyline>
	<polyline class="st1 svg-elem-16" points="37.5,163.5 1.8,163.5 1.8,82.5 	"></polyline>
	<g>
		<g>
			<path class="st0 svg-elem-17" d="M15,99.2c-0.6,0-0.8,0-0.9,0c0,0-0.1,0-0.1,0c0,0,0,0-0.1,0L13.8,99c0,0,0,0,0,0c0,0,0,0,0,0
				c0,0,0.3,0,0.3,0c0.3,0,0.6,0,1,0h1.1c0.2,0,0.3,0,0.3-0.9c0-0.5,0-0.5-0.2-0.5h-0.7c-0.2,0-0.2,0-0.4,0.2
				c-0.3,0.4-0.4,0.6-0.9,1c-0.1,0.1-0.1,0.1-0.1,0.1c0,0,0,0,0,0c0,0,0,0,0.1-0.2c0.2-0.3,1-1.7,1-2.4c0,0,0-0.2,0-0.2c0,0,0,0,0,0
				c0,0,0.6,0.2,0.8,0.3c0.1,0,0.1,0.1,0.1,0.1c0,0.1,0,0.1-0.2,0.2c-0.2,0.1-0.5,0.7-0.5,0.8c0,0.1,0.1,0.1,0.2,0.1H18
				c0.3,0,0.3,0,0.4-0.1c0.1-0.1,0.3-0.4,0.4-0.4c0,0,0.6,0.5,0.6,0.6c0,0.1-0.1,0.1-0.4,0.1h-1.8c-0.2,0-0.2,0-0.2,0.2
				c0,0.2-0.1,0.9-0.1,1c0,0.1,0,0.2,0.2,0.2h1.3c0.3,0,0.3,0,0.4-0.1c0.1-0.1,0.3-0.5,0.4-0.5c0.1,0,0.6,0.5,0.6,0.6c0,0,0,0,0,0
				c0,0.1-0.1,0.1-0.4,0.1h-2.1c-0.1,0-0.2,0-0.2,0.1c0,0.1,0.3,0.7,0.6,1c0.8,1.1,1.8,1.4,2.2,1.4c0.1,0,0.1,0,0.1,0c0,0,0,0-0.1,0
				c-0.1,0-0.5,0.1-0.6,0.2c0,0-0.2,0.2-0.2,0.2c0,0-1.2-0.7-1.8-2.3c0-0.1-0.2-0.6-0.2-0.7c0-0.1,0-0.1-0.1-0.1
				c-0.1,0-0.1,0-0.2,0.3c-0.5,2-2.5,2.8-2.9,2.8c0,0-0.1,0-0.1,0c0,0,0.1-0.1,0.2-0.1c1.8-0.8,2.3-2.5,2.3-2.8
				c0-0.1-0.1-0.1-0.3-0.1H15z"></path>
			<path class="st0 svg-elem-18" d="M15.3,105.6c-0.2,0-0.2,0.1-0.2,0.4c0,0.1,0,0.2,0.2,0.3c0.5,0.3,0.8,0.4,0.8,0.7c0,0.2-0.2,0.3-0.3,0.3
				c-0.2,0-0.2-0.1-0.3-0.5c-0.1-0.3-0.3-0.5-0.3-0.5c-0.1,0-0.1,0-0.1,0.3c0,0.3,0,2,0,2.1c0,0.1,0,0.7,0,0.9
				c0,0.3-0.2,0.3-0.3,0.3c-0.3,0-0.3-0.2-0.3-0.3c0-0.3,0.1-1.6,0.1-1.9v-0.5c0,0,0-0.1,0-0.1c0,0,0,0-0.1,0.1
				c-0.3,0.6-0.9,1.3-1,1.3c0,0,0-0.1,0-0.1c0.1-0.2,0.4-0.8,0.5-1.1c0.3-0.7,0.5-1.7,0.5-1.7c0-0.1-0.1-0.1-0.1-0.1
				c-0.1,0-0.6,0-0.6,0c0,0,0,0-0.1,0l-0.1-0.2c0,0,0,0,0,0c0,0,0,0,0,0c0.1,0,0.7,0,0.8,0c0.1,0,0.2-0.1,0.2-0.2c0-0.2,0-1.2,0-1.3
				c0,0-0.1-0.2-0.1-0.3c0-0.1,0-0.1,0.1-0.1c0,0,0.7,0.1,0.7,0.3c0,0,0,0.1,0,0.1c-0.1,0.1-0.1,0.1-0.2,0.1c0,0.1,0,1,0,1.1
				c0,0.2,0.1,0.2,0.2,0.2c0.1,0,0.2,0,0.2,0c0,0,0.2-0.3,0.3-0.3c0.1,0,0.4,0.4,0.4,0.5c0,0.1-0.2,0.1-0.4,0.1H15.3z M18.3,105.8
				c0.1,0,0.3,0,0.4-0.1c0,0,0.2-0.2,0.2-0.2s0.2,0.1,0.3,0.2c0.3,0.2,0.3,0.2,0.3,0.3s0,0.1-0.1,0.1c-0.2,0.1-0.2,0.1-0.2,0.1
				c0,0-0.4,1.2-0.5,1.4c0,0.1-0.3,0.5-0.3,0.7c0,0.1,0.1,0.2,0.2,0.3c0.2,0.2,0.8,0.8,1.2,0.9c0,0,0.2,0.1,0.2,0.1s0,0-0.1,0
				c-0.1,0-0.2,0-0.4,0.1c0,0-0.3,0.2-0.3,0.2c-0.1,0-0.4-0.4-0.8-0.9c-0.2-0.3-0.2-0.3-0.3-0.3c-0.1,0-0.1,0-0.3,0.2
				c-0.7,0.7-1.7,1.1-1.8,1.1c0,0,0,0,0,0c0,0,0,0,0,0c0.2-0.1,0.3-0.2,0.4-0.3c0.6-0.4,1.3-1.2,1.3-1.5c0-0.1,0-0.2-0.1-0.2
				c-0.2-0.3-0.3-0.7-0.4-1.5c-0.1-0.5-0.1-0.6-0.3-0.6c-0.2,0-0.2,0.1-0.2,0.3c-0.1,1-0.2,1.6-0.3,1.8c-0.3,1.2-1,2-1.1,2
				c0,0,0,0,0,0c0,0,0.2-0.3,0.2-0.4c0.6-1.2,0.7-2.4,0.7-3.7c0-0.3,0-1.3-0.1-1.6c0-0.1-0.1-0.3-0.1-0.4c0-0.1,0-0.1,0.1-0.1
				c0.1,0,0.3,0.1,0.5,0.2c0.2,0.1,0.3,0.1,0.4,0.1h1.3c0.3,0,0.3,0,0.4-0.2c0.1-0.3,0.2-0.3,0.2-0.3c0.1,0,0.5,0.5,0.5,0.6
				c0,0.1,0,0.1-0.4,0.1h-2.3c-0.1,0-0.2,0-0.2,0.1c0,0,0,0.9,0,1c0,0.2,0,0.3,0.3,0.3H18.3z M17.7,106c-0.1,0-0.2,0-0.2,0.2
				c0,0.2,0.5,1.6,0.7,1.6c0,0,0.1,0,0.1-0.2c0.3-0.9,0.4-1.4,0.4-1.4c0-0.2-0.2-0.2-0.2-0.2H17.7z"></path>
			<path class="st0 svg-elem-19" d="M17.2,114.2c-0.2,0-0.2,0.1-0.2,0.4c0,0.7,0,1.4,0,2.1c0,0.1,0,0.6,0,0.7c0,0.2,0,0.2-0.2,0.3
				c-0.1,0-0.1,0-0.2,0c-0.2,0-0.2-0.1-0.2-0.2c0-0.3,0-0.3,0-0.7c0-0.6,0-1.8,0-2.4c0-0.1,0-0.2-0.2-0.2h-1.1
				c-0.2,0-0.2,0.1-0.2,0.3v2.4c0,0.2-0.2,0.3-0.4,0.3c-0.2,0-0.2-0.1-0.2-0.2c0-0.1,0-0.5,0-0.6c0-0.4,0-0.8,0-0.9
				c0-0.5,0-1.4,0-1.5c0,0,0-0.2,0-0.2s0-0.1,0.1-0.1s0.3,0.1,0.3,0.2C15,114,15,114,15.2,114h1.1c0.2,0,0.2-0.1,0.2-0.6
				c0-0.1,0-0.4,0-0.5c0-0.1-0.1-0.1-0.1-0.1h-1.5c-0.5,0-0.7,0-0.9,0c0,0-0.1,0-0.1,0c0,0,0,0-0.1,0l-0.1-0.2c0,0,0,0,0,0
				c0,0,0,0,0,0c0,0,0.3,0,0.3,0c0.3,0,0.6,0,1,0h1.4c0.2,0,0.2-0.1,0.2-0.2v-0.5c0-0.1,0-0.4,0-0.4c0,0,0,0,0.1,0
				c0.1,0,0.7,0.1,0.7,0.2c0,0-0.1,0.2-0.2,0.2c0,0.1,0,0.2,0,0.2c0,0.5,0,0.5,0.2,0.5h1.4c0.1,0,0.2,0,0.3-0.2
				c0.2-0.3,0.3-0.3,0.3-0.3c0.1,0,0.7,0.5,0.7,0.6c0,0.1-0.1,0.1-0.4,0.1h-2.5c-0.1,0-0.1,0-0.1,0c0,0,0,0,0.1,0.1
				c0.1,0.1,0.1,0.1,0.1,0.1c0,0-0.1,0.1-0.1,0.2c0,0.1,0,0.5,0,0.7c0,0.1,0,0.2,0.2,0.2h1.1c0.1,0,0.2,0,0.3-0.1
				c0.2-0.2,0.2-0.2,0.2-0.2c0.1,0,0.6,0.4,0.6,0.5c0,0.1,0,0.1-0.2,0.2c-0.1,0.1-0.1,0.2-0.1,0.4s0,1.4,0,1.6c0,0.4,0,0.5-0.2,0.6
				c-0.1,0.1-0.3,0.2-0.4,0.2c-0.1,0-0.1,0-0.2-0.2c-0.1-0.2-0.2-0.2-0.7-0.4c-0.1,0-0.2-0.1-0.2-0.1c0,0,0,0,0.1,0
				c0,0,0.7,0.1,0.8,0.1c0.1,0,0.2,0,0.3-0.2c0-0.1,0-1.1,0-1.3c0-0.8,0-0.9-0.2-0.9H17.2z"></path>
			<path class="st0 svg-elem-20" d="M19.9,119.3c-0.3,0.3-5.5,5.5-5.9,5.9c0,0-0.2,0.2-0.2,0.2c0,0-0.1,0-0.1-0.1c0,0,0-0.1,0-0.1
				c0.3-0.3,5.5-5.5,6-5.9c0,0,0.2-0.2,0.2-0.2S19.9,119.2,19.9,119.3C19.9,119.2,19.9,119.3,19.9,119.3z"></path>
			<path class="st0 svg-elem-21" d="M14.4,135.1c-0.1,0-0.2,0-0.2-0.1s0.1-0.1,0.3-0.1c0.1,0,0.5,0,0.6-0.3c0.1-0.2,0.1-0.4,0.1-2
				c0-0.3,0-1.8,0-1.9c-0.1-0.4-0.5-0.4-0.7-0.4c0,0-0.2,0-0.2-0.1c0-0.1,0.1-0.1,0.2-0.1h0.7c0.5,0,0.5,0,0.9,0.6
				c0.4,0.6,1.1,1.7,1.5,2.3c0.1,0.1,0.7,1.1,0.8,1.1c0,0,0.1-0.1,0-0.2c0-0.2,0-1.8,0-2.2c0-1,0-1.1-0.2-1.3
				c-0.2-0.2-0.3-0.2-0.5-0.2c0,0-0.2,0-0.2-0.1c0-0.1,0.1-0.1,0.2-0.1h1.5c0.1,0,0.2,0,0.2,0.1c0,0.1-0.1,0.1-0.2,0.1
				c-0.6,0-0.6,0.3-0.6,1.2c0,0.5,0,3.1,0,3.7c0,0,0,0.2-0.1,0.2c-0.1,0-0.1-0.1-0.2-0.1c-0.1-0.1-2.7-4-2.8-4.1
				c-0.1-0.2-0.1-0.2-0.2-0.2c0,0-0.1,0.1-0.1,0.2c0,0.3,0,2,0,2.4c0,1.2,0,1.3,0.2,1.5c0.2,0.2,0.3,0.2,0.6,0.2c0,0,0.2,0,0.2,0.1
				s-0.1,0.1-0.2,0.1H14.4z"></path>
			<path class="st0 svg-elem-22" d="M15.3,138.4c-0.2,0-0.2,0.1-0.2,0.4c0,0.1,0,0.1,0.2,0.2c0.6,0.3,0.6,0.6,0.6,0.8c0,0.2-0.1,0.4-0.3,0.4
				c-0.2,0-0.2-0.2-0.3-0.5c0-0.2-0.2-0.4-0.2-0.4c0,0,0,0.1,0,0.1c0,0.5,0,2.6,0,3c0,0.3,0,0.6-0.3,0.6c-0.2,0-0.2-0.1-0.2-0.2
				c0-0.2,0-0.4,0-0.6c0-0.2,0.1-2.2,0.1-2.2c0,0,0-0.1,0-0.1c0,0,0,0-0.1,0c-0.2,0.3-0.7,1.2-0.9,1.2c0,0,0,0,0,0
				c0,0,0.3-0.4,0.3-0.4c0.5-0.8,0.7-1.9,0.7-2c0-0.1-0.1-0.1-0.2-0.1c-0.1,0-0.5,0-0.5,0c0,0,0,0-0.1,0l-0.1-0.2c0,0,0,0,0,0
				c0,0,0,0,0,0c0.1,0,0.7,0,0.8,0c0.2,0,0.2-0.2,0.2-0.3c0-0.1,0-0.7,0-0.8c0-0.2-0.1-0.5-0.1-0.6c0,0,0,0,0,0c0,0,0.3,0,0.5,0.1
				c0,0,0.1,0,0.1,0.1c0,0-0.1,0.3-0.1,0.3c0,0.2-0.1,0.8-0.1,1c0,0.1,0,0.1,0.1,0.1c0.1,0,0.2,0,0.2-0.1c0.1-0.2,0.1-0.2,0.2-0.2
				c0.1,0,0.4,0.3,0.4,0.4c0,0.1-0.1,0.1-0.4,0.1H15.3z M16.8,141.4c0.1,0,0.4-0.2,0.4-0.2c0,0,0,0,0,0c0,0.1-0.9,0.8-0.9,1
				c0,0.1-0.1,0.2-0.1,0.2c-0.1,0-0.4-0.6-0.4-0.6c0,0,0,0,0,0c0.1,0,0.2,0,0.3,0C16.2,141.7,16.5,141.6,16.8,141.4z M17,140.8
				c0,0.2-0.1,0.3-0.2,0.3c-0.2,0-0.2-0.1-0.3-0.3c0-0.1-0.2-0.5-0.5-0.8c0,0,0,0,0,0c0,0,0,0,0,0c0.1,0,0.5,0.2,0.8,0.4
				C16.9,140.4,17,140.6,17,140.8z M18.2,139c-0.2,0-0.2,0.1-0.2,0.5c0,0.2,0.1,0.2,0.2,0.2h0.5c0.3,0,0.3,0,0.4-0.1
				c0,0,0.2-0.3,0.3-0.3c0,0,0.6,0.4,0.6,0.5c0,0.1-0.1,0.1-0.4,0.1h-0.2c0,0-0.1,0-0.1,0.1c0,0.1,0.3,0.3,0.3,0.4
				c0,0.1,0,0.1-0.2,0.1c-0.3,0.1-0.3,0.1-0.8,0.5c-0.1,0-0.1,0.1-0.1,0.1c0,0.2,0.9,0.8,1.5,0.8c0,0,0,0,0,0c0,0-0.4,0.2-0.4,0.2
				c0,0-0.3,0.2-0.3,0.2c-0.1,0-0.8-0.3-1.3-1.7c-0.1-0.1-0.1-0.2-0.1-0.2c0,0,0,0,0,0.1c0,0,0,0.2,0,0.2c0,0.2,0.1,1.1,0.1,1.3
				c0,0.3,0,0.4-0.2,0.6c-0.1,0.1-0.3,0.1-0.4,0.1c0,0-0.1,0-0.1-0.1c-0.1-0.3-0.5-0.4-0.6-0.5c0,0-0.1,0-0.1-0.1c0,0,0,0,0,0
				c0.1,0,0.3,0,0.4,0c0.4,0,0.4,0,0.4-0.4c0-0.4,0-1.6,0-1.8c0,0,0-0.2-0.2-0.2c-0.3,0-0.8,0-1,0c0,0,0,0-0.1,0c0,0,0,0-0.1,0
				l-0.1-0.2c0,0,0,0,0,0c0,0,0,0,0,0c0,0,0.2,0,0.3,0c0.3,0,0.7,0,1,0c0.1,0,0.2,0,0.2-0.2c0-0.5,0-0.5-0.2-0.5c-0.2,0-0.6,0-0.8,0
				c0,0-0.1,0-0.2,0c0,0,0,0-0.1,0l-0.1-0.2c0,0,0,0,0,0c0,0,0,0,0,0c0.1,0,0.3,0,0.3,0c0.3,0,0.6,0,0.8,0c0.2,0,0.2-0.1,0.2-0.2
				c0-0.4,0-0.5-0.2-0.5h-0.2c-0.2,0-0.6,0-0.7,0c0,0-0.1,0-0.1,0c0,0,0,0-0.1,0l-0.1-0.2c0,0,0,0,0,0c0,0,0,0,0,0c0,0,0.3,0,0.3,0
				c0.1,0,0.6,0,0.9,0h0.5c0.2,0,0.2,0,0.6-0.8c0.1-0.2,0.2-0.5,0.2-0.5c0,0,0-0.1,0-0.1s0.6,0.2,0.6,0.3c0,0,0,0.1-0.2,0.2
				c-0.2,0.1-0.8,0.8-0.8,0.8c0,0,0,0,0.1,0c0.4,0,0.5,0,0.5-0.1c0.1-0.2,0.2-0.3,0.2-0.3c0,0,0.7,0.4,0.7,0.5
				c0,0.1-0.1,0.1-0.4,0.1h-1.1c-0.2,0-0.2,0-0.2,0.5c0,0.2,0.1,0.2,0.2,0.2h0.2c0.3,0,0.3,0,0.4,0c0,0,0.2-0.3,0.3-0.3
				c0,0,0.6,0.4,0.6,0.5c0,0.1-0.1,0.1-0.4,0.1H18.2z M17.4,137.4c0,0.3-0.2,0.4-0.3,0.4s-0.2-0.1-0.2-0.3c-0.1-0.4-0.2-0.6-0.3-0.8
				c0-0.1,0-0.1,0-0.1c0,0,0,0,0,0c0.1,0,0.4,0.2,0.7,0.4C17.4,137.2,17.4,137.3,17.4,137.4z M18.2,139.9c-0.1,0-0.2,0-0.2,0.2
				c0,0.2,0.3,0.8,0.4,0.8c0.2,0,0.6-0.8,0.6-0.9c0-0.1-0.1-0.1-0.1-0.1H18.2z"></path>
			<path class="st0 svg-elem-23" d="M16.2,146.9c-0.1,0-0.2,0-0.2,0.1c0,0.1,0.2,0.9,0.3,1.3c0.1,0.2,0.3,0.6,0.4,0.6c0.1,0,0.1,0,0.3-0.3
				c0,0,0.1-0.1,0.1,0c0,0-0.1,0.5-0.1,0.6s0,0.2,0.1,0.3c0.1,0.1,0.1,0.2,0.1,0.3c0,0.1-0.1,0.2-0.2,0.2c-0.3,0-0.7-0.6-0.9-1.1
				c0-0.1-0.1-0.1-0.1-0.1c-0.1,0-0.1,0-0.2,0.1c-0.2,0.1-1.4,0.8-1.5,0.9c0,0-0.1,0.2-0.1,0.2c0,0-0.5-0.6-0.5-0.7c0,0,0,0,0,0
				c0,0,0.2,0,0.2,0c0.1,0,0.4,0,0.4-0.2c0-0.1,0-2.1,0-2.4c0-0.2,0-1.4,0-1.5c0,0,0-0.2,0-0.2c0,0,0,0,0,0c0.1,0,0.5,0.2,0.6,0.2
				c0,0,1.2-0.3,1.3-0.6c0.1-0.2,0.1-0.2,0.1-0.2c0,0,0.3,0.2,0.4,0.3c0.2,0.1,0.2,0.2,0.2,0.2c0,0.1-0.1,0.1-0.6,0.2
				c-0.3,0.1-0.4,0.1-0.4,0.2c0,0.1,0,0.5,0,0.9c0,0.5,0,0.6,0.2,0.6c0.2,0,0.2,0,0.3-0.1c0.1-0.1,0.2-0.3,0.3-0.3
				c0.1,0,0.5,0.5,0.5,0.5c0,0.1,0,0.1-0.4,0.1H16.2z M15.5,150c0.3,0,0.3,0,0.4-0.1c0.2-0.3,0.2-0.3,0.2-0.3c0,0,0.1,0,0.5,0.4
				c0,0,0,0,0,0.1c0,0.1-0.1,0.1-0.3,0.1h-1.1c-0.5,0-0.7,0-0.8,0c0,0-0.1,0-0.1,0c0,0,0,0-0.1,0l-0.1-0.2c0,0,0,0,0,0c0,0,0,0,0,0
				c0,0,0.2,0,0.3,0c0.3,0,0.5,0,0.8,0H15.5z M14.8,146.9c-0.1,0-0.2,0-0.2,0.1c0,0.1,0,1.6,0,1.7s0,0.2,0.1,0.2
				c0.2,0,0.8-0.3,0.9-0.3c0.2-0.1,0.3-0.1,0.3-0.2c0,0-0.1-0.4-0.1-0.4c0-0.2-0.2-1-0.2-1c0-0.1-0.1-0.1-0.2-0.1H14.8z M15.3,146.7
				c0.1,0,0.2,0,0.2-0.2c0,0,0-0.1,0-0.4c0-0.2,0-0.5,0-0.7c0-0.3,0-0.3-0.1-0.3c0,0-0.3,0-0.3,0c-0.2,0-0.3,0-0.3,0.1
				c0,0.1,0,0.9,0,1.2c0,0.1,0,0.2,0.2,0.2H15.3z M18.9,144.7c0.1,0,0.1,0,0.2-0.1c0-0.1,0.1-0.1,0.1-0.1c0.1,0,0.6,0.3,0.6,0.4
				c0,0.1-0.1,0.1-0.1,0.1c-0.1,0-0.1,0.1-0.1,0.1c-0.2,0.4-0.5,0.8-0.8,1.2c0,0.1-0.3,0.4-0.3,0.4c0,0,0.1,0.1,0.3,0.2
				c0.3,0.2,1.2,0.8,1.2,1.8c0,0.5-0.3,0.8-0.5,1c-0.2,0.1-0.5,0.2-0.6,0.2c0,0-0.1,0-0.1-0.1c-0.1-0.1-0.1-0.2-0.2-0.3
				c0,0-0.3-0.2-0.3-0.3c0,0,0.1,0,0.1,0c0.1,0,0.5,0,0.5,0c0.5,0,0.6-0.4,0.6-0.7c0-0.6-0.3-1.2-0.8-1.6c-0.2-0.1-0.2-0.2-0.2-0.2
				c0-0.1,0.2-0.3,0.2-0.4c0-0.1,0.4-1.3,0.4-1.4c0-0.1-0.1-0.1-0.1-0.1h-0.7c-0.1,0-0.2,0-0.2,0.1c0,0.1,0,1,0,1.1
				c0,1.1,0,2.8,0.1,3.8c0,0,0,0.3,0,0.4c0,0.2-0.2,0.3-0.4,0.3c-0.1,0-0.2,0-0.2-0.2c0,0,0-0.3,0-0.3c0-0.2,0-4.6,0-5
				c0-0.1,0-0.2,0-0.3c0-0.1,0-0.1,0-0.2c0,0,0-0.1,0.1-0.1c0,0,0.3,0.1,0.4,0.1c0.1,0,0.2,0,0.3,0H18.9z"></path>
		</g>
	</g>
</g>
</svg>
