<?xml version="1.0" encoding="utf-8"?>
<!-- Generator: Adobe Illustrator 25.2.1, SVG Export Plug-In . SVG Version: 6.00 Build 0)  -->
<svg version="1.1" id="レイヤー_1" xmlns="http://www.w3.org/2000/svg" xmlns:xlink="http://www.w3.org/1999/xlink" x="0px"
	 y="0px" width="222px" height="11px" viewBox="0 0 222 11" style="enable-background:new 0 0 222 11;" xml:space="preserve">
<style type="text/css">
	.st0{fill:#008059;}
</style>
<g>
	<path class="st0" d="M4.7,4.9V4.6l0.7-0.8l0.3-0.3C5.7,3.3,5.6,3.2,5.6,3C5.8,3,6,3,6.1,3.2s0.2,0.2,0.2,0.3L5.6,4.3L5.2,4.8h0.2
		l0.8-0.1l0.1-0.1l1.3,0.1h1.6c0,0.2,0,0.3-0.1,0.4S9,5.1,8.9,5.1L7.5,5L7.4,4.9H6.5C6.2,5,5.9,5.1,5.6,5.1L4.7,5.2L3.4,5.5
		C3.2,5.5,2.9,5.6,2.7,5.7S2.4,5.7,2.3,5.8S2.1,5.9,1.9,6S1.4,6.1,1.2,6.2S0.7,6.3,0.4,6.4l0-0.3C0.7,6,0.9,5.8,1.1,5.7l1-0.3
		l0.4-0.2l0.8-0.2l0.8-0.1L4.7,4.9z M2.7,3l0.4-0.1l0.8-0.3l0.9-0.2C5,2.4,5.2,2.3,5.4,2.3s0.4-0.1,0.4-0.1h0.9
		C6.9,2.2,7,2.4,7.2,2.5L7.1,2.7L6.7,2.6H5.4C5,2.7,4.5,2.8,4.2,2.9C3.1,3.3,2.5,3.5,2.3,3.5L2.7,3z M2.6,3.8h0.3
		C3,4,3.1,4.2,3.2,4.4c0.1,0,0.2,0.1,0.2,0.1s0.1,0.1,0.2,0.3L3.4,4.9H3.1c0-0.1-0.1-0.2-0.2-0.3S2.7,4.3,2.7,4.3S2.6,4,2.6,3.8z
		 M3.4,6.1l0.1,0.3l0.7-0.3L4.8,6h0.8C5.8,6,5.9,6.1,6,6.2s0.1,0.2,0.2,0.3l0.1,0.9v1.8l-0.2,0.9c-0.1,0.1-0.2,0.1-0.3,0.1L5.6,10
		l0.1-0.3L4.8,9.8L4,10.1l-0.6,0.1c0,0.1,0,0.3-0.1,0.3C3.1,10.4,3,10.2,3,10.1V7.6c0.1-0.5,0.1-0.8,0.1-1s0.1-0.3,0.1-0.4
		S3.3,6.1,3.4,6.1z M4.8,1.7L4.3,1.4L3.5,1H3.4L3.2,0.8l0.1-0.2L4,0.7l0.7,0.4l0.3,0.3L4.8,1.7z M5.8,7.5V6.6L5.5,6.3
		C4.9,6.4,4.4,6.5,4.1,6.6S3.6,6.8,3.4,7L3.3,7.7l0,0.4l0.2-0.2l0.8-0.3l1-0.2H5.8z M5.8,9.3V7.9H5.6L4.6,8C4.2,8.2,3.9,8.3,3.8,8.3
		S3.5,8.5,3.3,8.6l0,1.3l0.2-0.1l0.8-0.3l0.8-0.2L5.8,9.3z"/>
	<path class="st0" d="M12.9,6.1l-0.7-0.1l0-0.2c0.1-0.1,0.2-0.2,0.5-0.2l0.6-0.5l0.6-0.5c0.4-0.2,0.7-0.4,0.9-0.4l0.1,0.2
		c-0.2,0.2-0.3,0.4-0.4,0.4S14.1,5,13.8,5.2l-0.7,0.5c0,0-0.1,0.1-0.1,0.2S12.9,6.1,12.9,6.1z M16.4,7.1L16.4,7.1
		c-0.3,0.4-0.5,0.7-0.7,1L15,8.6c-0.7,0.5-1.1,0.8-1.2,0.8s-0.2,0-0.3,0.1s-0.4,0.2-0.6,0.2l-0.1-0.2l0.1-0.2c0.1,0,0.3-0.1,0.5-0.2
		s0.6-0.4,1.1-0.7l0.8-0.6l0.6-0.7l0.3-0.6l-0.5,0L14.2,7c-0.3,0.1-0.5,0.2-0.6,0.3s-0.2,0.1-0.3,0.1s-0.2,0-0.2-0.1
		S13.1,7.2,13.1,7c0.4-0.1,0.9-0.2,1.5-0.4l0.9-0.2l0.7-0.2l0.2-0.1c-0.1-0.4-0.1-0.6-0.2-0.6s-0.1-0.2-0.1-0.3
		c-0.1,0-0.3,0.1-0.6,0.2v0.3c-0.2,0-0.3,0-0.4-0.1S15,5.5,15,5.2V3.4C15,3,15.1,2.7,15.2,2.7V1.9c0.1,0,0.3,0.1,0.4,0.2l0.6-0.6
		c0.1-0.3,0.2-0.5,0.3-0.7l-0.2-0.2l0.1-0.2c0.2,0,0.3,0,0.4,0.1s0.1,0.2,0.1,0.3s-0.1,0.3-0.2,0.6s-0.2,0.4-0.3,0.4L16.4,2
		c0.3-0.2,0.6-0.3,1-0.3l0.6,0.6v0.2l-0.2,1.8l-0.1,0.7c0,0,0,0.1,0,0.3c-0.1,0-0.2,0-0.3-0.1S17.2,5.1,17.2,5c-0.1,0-0.2,0-0.3,0
		s-0.2,0.1-0.4,0.1c0,0.3,0.1,0.6,0.2,0.9L18.3,6h1.1l0.1,0.2l-0.1,0.2l-1,0.1l-1.3,0.1h-0.2l0.3,0.4l1.1,1.3
		c0.3,0.2,0.5,0.3,0.8,0.5s0.6,0.3,0.8,0.4s0.4,0.2,0.5,0.2s0.1,0,0.2,0.1s0.1,0.1,0.3,0.1l0.1,0.2l-0.1,0.2c-0.2,0-0.4,0-0.5,0
		S20.1,9.6,20,9.5s-0.4-0.2-0.7-0.4s-0.6-0.3-0.8-0.4s-0.3-0.1-0.3-0.1s-0.1,0-0.2-0.1l-0.5-0.7c-0.3-0.2-0.5-0.4-0.7-0.7l0,0
		l-0.2,2.8V10h-0.2l-0.2-0.3l0.1-0.5l0.1-0.9L16.4,7.1z M14.5,3.3c-0.2,0-0.4-0.1-0.5-0.2s-0.3-0.2-0.5-0.3S13.1,2.6,13,2.6
		s-0.2,0-0.2-0.1s-0.1-0.1-0.1-0.2s0-0.1,0.1-0.2s0.1-0.1,0.2-0.1s0.2,0.1,0.4,0.2s0.4,0.2,0.6,0.3s0.3,0.2,0.4,0.2
		S14.5,3.1,14.5,3.3z M17.3,4.6c0.1-0.3,0.1-0.6,0.2-0.9h-0.7c-0.4,0.1-0.9,0.3-1.4,0.4l0,0.9c0.1-0.1,0.2-0.1,0.5-0.2l0.8-0.2
		L17.3,4.6z M17.5,3.2V2.3c-0.2-0.1-0.4-0.2-0.6-0.1s-0.4,0.1-0.5,0.1s-0.2,0.1-0.3,0.2s-0.3,0.1-0.6,0.1l-0.1,0.3l0,0.7
		c0.2,0,0.4-0.1,0.8-0.2l0.9-0.2L17.5,3.2z M20.6,5.7l-0.4-0.3l-0.7-0.5c-0.1-0.1-0.2-0.1-0.3-0.1S19,4.7,19,4.7s-0.1-0.1-0.2-0.1
		s-0.1,0-0.2-0.1s-0.1-0.1-0.2-0.1s-0.2,0-0.2-0.1S18.1,4.2,18.1,4l0.2-0.1C18.4,4,18.5,4,18.6,4s0.2,0.1,0.2,0.1s0.1,0.1,0.2,0.1
		s0.2,0,0.2,0s0.1,0,0.2,0.1s0.1,0.1,0.2,0.1s0.2,0.1,0.4,0.2s0.5,0.4,0.9,0.8l-0.1,0.2L20.6,5.7z M18.3,3.2l0.3-0.3l0.6-0.4
		c0.2-0.2,0.3-0.4,0.3-0.6l0.2-0.1c0.2,0.1,0.3,0.2,0.4,0.3c-0.4,0.4-0.6,0.7-0.8,0.8s-0.4,0.3-0.7,0.5L18.3,3.2z"/>
	<path class="st0" d="M27.6,5.9l-0.3-0.3h-0.8c-0.3,0.1-0.6,0.3-1,0.5c-0.1-0.1-0.2-0.2-0.2-0.2s0-0.2,0-0.3c0.1,0,0.2,0,0.3-0.1
		l0.3-0.7C26,4.4,26.2,4,26.3,3.7c-0.1,0-0.2,0-0.2,0S26,3.8,25.9,3.8S25.8,3.9,25.6,4s-0.2,0-0.3,0s-0.1,0-0.2-0.1
		s-0.1-0.1-0.1-0.2s0-0.1,0.1-0.2s0.2-0.1,0.5-0.2s0.5-0.1,0.6-0.2s0.2-0.1,0.2-0.2s0.1-0.2,0.1-0.3s0-0.2,0.1-0.3s0.1-0.1,0.1-0.2
		s0-0.2,0-0.3s0-0.2-0.1-0.2s-0.1-0.2-0.2-0.4l0.1-0.2c0.1,0,0.2,0,0.2,0.1s0.1,0.1,0.2,0.2s0.1,0.3,0.1,0.5S27,2.6,26.9,3l0.5,0
		l1.1-0.3l0.2,0.1c0,0.1,0,0.2-0.1,0.2S28.3,3.1,28,3.2l-0.8,0.2c-0.3,0.2-0.5,0.3-0.6,0.4S26.6,4,26.5,4s0,0.2,0,0.3
		s-0.1,0.3-0.2,0.4s-0.2,0.3-0.4,0.6l0.1,0.1c0.1-0.1,0.3-0.2,0.5-0.3s0.4,0,0.7,0s0.4,0.2,0.5,0.2s0.2,0.1,0.2,0.1s0.3-0.1,0.7-0.3
		s0.7-0.4,0.9-0.5s0.3-0.1,0.4-0.1s0.2,0,0.2-0.1s0.2-0.1,0.6-0.1v0.3c-0.1,0-0.2,0-0.3,0S30.5,5,30.4,5s-0.2,0.1-0.3,0.2
		s-0.3,0.1-0.6,0.2s-0.4,0.2-0.4,0.2s-0.1,0-0.2,0.1s-0.1,0.1-0.2,0.1s-0.2,0-0.3,0.1S28.3,5.9,28.3,6S28.2,6,28.2,6.1
		s0,0.2,0.1,0.4s0.1,0.4,0.2,0.4c-0.1,0.1-0.1,0.3-0.1,0.5H28c0-0.4,0-0.6,0-0.6s-0.1-0.1-0.1-0.2s-0.1-0.2-0.2-0.3L27,7
		c-0.2,0.3-0.3,0.6-0.3,0.7s0.2,0.4,0.5,0.7l0.8,0.3h0.9c0.3-0.1,0.5-0.1,0.6-0.2h0.8c0,0.1,0,0.2-0.1,0.3S29.8,9,29.4,9.2l-1.8,0
		c-0.2-0.1-0.4-0.2-0.6-0.3s-0.3-0.1-0.4-0.2s-0.1-0.2-0.2-0.5s0-0.5,0-0.7s0.1-0.4,0.2-0.6l0.5-0.6c0.1-0.1,0.2-0.1,0.3-0.2
		S27.5,6,27.6,5.9z"/>
	<path class="st0" d="M35.4,1.4c0.2,0,0.3,0,0.4,0.1s0.1,0.2,0.1,0.5c0.1,0,0.2,0,0.3-0.1s0.2-0.1,0.3-0.1s0.2-0.1,0.3-0.2
		s0.2-0.1,0.3-0.2s0.3-0.1,0.6-0.1h0.8l0.1,0.1l0,0.9c-0.1,0.4-0.2,0.7-0.2,1l-0.3,0.8c-0.1,0.2-0.2,0.4-0.2,0.4s-0.1,0.1-0.2,0.1
		s-0.2-0.1-0.3-0.2c-0.5,0.1-0.9,0.2-1.2,0.3s-0.4,0.2-0.5,0.2l-0.1,1.5l0.1,3v0.3l-0.3-0.1L35,9.4V6.3l0.1-1.4l0.1-1.1
		c0.1-0.3,0.1-0.5,0.2-0.6V1.4z M37.4,4c0.1-0.2,0.1-0.4,0.1-0.6s0-0.3,0.1-0.3s0.1-0.2,0.1-0.3L37.2,3l-0.8,0.3
		c-0.3,0.2-0.6,0.3-0.8,0.3c-0.1,0.2-0.1,0.5,0,0.9l0.2-0.1l1-0.3L37.4,4z M38,1.7h-0.9c-0.3,0.2-0.5,0.3-0.6,0.4s-0.1,0.1-0.2,0.1
		s-0.3,0-0.5,0l0,0.8c0.3-0.1,0.8-0.3,1.3-0.5l0.7-0.1L38,1.7z M42.3,9.9l0.3-1.7V4l-1,0.2l-0.6,0.1l-0.9,0.2l-0.1,0.2h0.6
		c0,0.2,0,0.3-0.1,0.4s-0.3,0.1-0.7,0.1v2.4h1.8c0.1,0.1,0.1,0.2,0.1,0.3h-1.7C40,7.9,39.9,8,39.9,8l-0.1,1.4
		c-0.1,0.2-0.1,0.3-0.1,0.3s0,0.1-0.1,0.2s-0.1,0.1-0.3,0.1V9.2l0.1-0.3L39.5,8l-0.6,0l-0.8,0.2l-0.8,0.2c-0.7,0.2-1.1,0.4-1.1,0.4
		S36.1,9,36,9s-0.1,0-0.2-0.1s-0.1-0.1-0.1-0.2L36,8.5l0.7-0.3c0.3-0.1,0.5-0.1,0.7-0.1l0.2-2.2l0.1-0.2l-0.2-0.1
		c-0.1,0.1-0.2,0.1-0.6,0.1c0-0.1,0-0.3,0.1-0.3s0.2-0.1,0.5-0.2s0.6-0.1,1-0.3l0.9-0.2c0.2,0,0.3,0,0.4-0.1l-0.1-0.1V2.5l0.1-0.9
		l0.1-0.1c-0.1-0.1-0.1-0.2-0.1-0.3s0-0.1,0.1-0.2s0.1-0.1,0.2-0.1s0.1,0,0.2,0.1s0.1,0.2,0.1,0.5c0.1,0,0.2,0,0.3-0.1
		s0.3-0.2,0.6-0.4h1.5c0.1,0.1,0.2,0.3,0.3,0.6v6.8l-0.1,0.8l-0.2,0.8l-0.2,0.3c-0.2,0-0.5-0.1-0.7-0.2s-0.5-0.3-0.7-0.4
		s-0.5-0.3-0.7-0.6L40.5,9c0.2,0,0.4,0.1,0.6,0.2s0.4,0.3,0.5,0.3S42,9.8,42.3,9.9z M39.6,7.6V7h-0.4l-1.3,0.4l-0.1,0.1l0,0.4
		c0.1-0.1,0.3-0.1,0.7-0.2l0.7-0.1H39.6z M39.6,6.7V6.1c-0.6,0.1-1,0.2-1.2,0.2S38,6.5,37.9,6.6l0,0.4c0.3-0.1,0.7-0.1,0.9-0.3
		L39.6,6.7z M39.6,5.7c0-0.2,0-0.4-0.1-0.5c-0.6,0.1-0.9,0.2-1.1,0.2s-0.2,0.1-0.3,0.3s-0.1,0.2,0,0.4C38.3,6,38.8,5.9,39.6,5.7z
		 M42.6,3.7V2.8c-0.1,0-0.2,0-0.5,0L41.4,3l-0.8,0.1c-0.2,0.1-0.4,0.2-0.5,0.3l0,0.7C40.2,4,40.4,4,40.7,3.9l0.9-0.1H42.6z
		 M42.6,2.4c0-0.4-0.1-0.7-0.2-0.9h-0.9c-0.4,0.2-0.6,0.3-0.7,0.4S40.6,2,40.6,2.1h-0.3c-0.1,0.3-0.1,0.5,0,0.7
		c0.2,0,0.5-0.1,0.9-0.2l0.9-0.1L42.6,2.4z"/>
	<path class="st0" d="M50.4,6.8V6.5h0.5c-0.2-0.5-0.4-1-0.5-1.3c-0.9,0.2-1.4,0.4-1.5,0.5s-0.4,0.1-0.6,0.2
		c-0.1-0.1-0.1-0.2-0.1-0.3c0.5-0.1,0.8-0.2,1.1-0.3s0.4-0.2,0.6-0.2s0.3-0.1,0.4-0.2L49.8,4c-0.1-0.2-0.1-0.3-0.2-0.4
		s-0.1-0.2-0.2-0.3c-0.6,0.3-1,0.5-1.1,0.5s-0.3,0.1-0.4,0.1l-0.2-0.3c0.1-0.1,0.2-0.2,0.5-0.3s0.6-0.2,1.2-0.4
		c0-0.1-0.1-0.4-0.2-0.6s-0.2-0.5-0.3-0.8c0.1-0.1,0.2-0.1,0.2-0.1s0.2,0.1,0.3,0.4s0.3,0.6,0.5,1c0.4-0.1,0.8-0.1,1.4-0.3l0.1,0.2
		C51.2,2.9,51,2.9,50.9,3s-0.3,0.1-0.5,0.1S50.1,3.2,50,3.2S50,3.3,50,3.4s0.1,0.3,0.2,0.4s0.2,0.4,0.3,0.8c0.2,0,0.4-0.1,0.7-0.2
		s0.6-0.2,0.9-0.3c0.1,0.1,0.1,0.2,0.1,0.2S52.1,4.6,52,4.8l-0.8,0.1c-0.2,0-0.4,0.1-0.5,0.2l0.4,0.6c0.1,0.4,0.2,0.8,0.3,1.2
		L51.3,7c-0.2,0-0.3-0.1-0.3-0.1S50.7,6.8,50.4,6.8z M49.8,9.3c-0.1-0.1-0.2-0.1-0.3-0.1s-0.3-0.1-0.6-0.3l-0.7-0.3l-0.3-0.3
		c0-0.1,0-0.2,0.1-0.2S48,7.9,48,7.9s0.1,0,0.2,0.1s0.2,0.1,0.2,0.1s0.2,0,0.3,0.1s0.4,0.2,0.9,0.4s0.8,0.3,0.8,0.5l-0.1,0.2
		L49.8,9.3z"/>
	<path class="st0" d="M58,3.6c-0.2,0-0.4,0.1-0.6,0.2l-0.2-0.1c0-0.1,0-0.2,0.1-0.3l0.8-0.3c0.1-0.1,0.2-0.3,0.3-0.3
		s0.1-0.2,0.2-0.3s0.2-0.2,0.2-0.2s0.1,0,0.2,0.1C59,2.6,59,2.7,59,2.8S59,3,59,3s0,0.1-0.1,0.2s-0.2,0.1-0.3,0.1
		c-0.2,0.3-0.3,0.5-0.5,0.7S58,4.4,58,4.6s0,0.2-0.1,0.3S57.8,5,57.7,5.1s-0.1,0.1-0.1,0.2s0,0.2,0,0.2s0,0.1-0.1,0.2
		s-0.1,0.2-0.2,0.2S57.2,6,57,6c0-0.3,0-0.4,0.1-0.5s0.1-0.2,0.2-0.3l0.3-0.7C57.8,4.2,57.9,3.9,58,3.6z M62.5,8.7
		c-0.1,0-0.3-0.1-0.4-0.2s-0.3-0.2-0.3-0.3c-0.1,0.2-0.2,0.3-0.3,0.4s-0.3,0.2-0.6,0.2l-0.7,0c-0.1-0.1-0.2-0.2-0.3-0.2
		s-0.1,0-0.2-0.1s-0.1-0.1-0.2-0.2s-0.1-0.2-0.1-0.4s0.1-0.3,0.2-0.5s0.2-0.2,0.3-0.2s0.2,0,0.5,0s0.6,0.1,1,0.3
		c0.1-0.3,0.2-0.6,0.3-1.1l0.1-1.8c0-0.2,0-0.3,0.1-0.3s0.1-0.1,0.2-0.1s0.1,0,0.2,0.1s0.1,0.1,0.1,0.2s0,0.2-0.1,0.4L62,6.7
		l-0.1,0.9c-0.1,0.1-0.1,0.2-0.2,0.3c0.4,0.3,0.6,0.5,0.8,0.6s0.2,0.3,0.2,0.6l-0.3-0.1L62.5,8.7z M61.3,8.2V8.1
		C61,8,60.7,7.9,60.5,7.8s-0.3,0-0.4,0s-0.2,0.1-0.2,0.1s-0.1,0.1-0.1,0.3c0.3,0.2,0.6,0.3,0.9,0.3L61.3,8.2z M63.3,4l0.3-0.1V3.6
		c-0.5-0.3-0.9-0.5-1-0.6c0-0.1,0-0.2,0.1-0.3s0.1-0.1,0.2-0.1s0.2,0,0.3,0.1s0.3,0.1,0.4,0.3l0.6,0.6v0.4c-0.2,0-0.4,0-0.7,0.1
		C63.4,4.1,63.3,4,63.3,4z"/>
	<path class="st0" d="M69.9,8c-0.2-0.2-0.4-0.4-0.4-0.6s-0.1-0.3-0.2-0.3S69.2,7,69.2,7S69.1,7,69,7.1S69,7.2,69,7.3s0,0.2-0.1,0.2
		s-0.1,0.1-0.1,0.2s0,0.2-0.1,0.2s-0.2,0.1-0.3,0.1l-0.1-0.2c0.1-0.3,0.2-0.4,0.3-0.5s0.1-0.2,0.2-0.5s0.1-0.5,0.2-0.7
		s0.1-0.4,0.2-0.4s0-0.1,0-0.2s0.1-0.2,0.2-0.3c-0.1,0-0.2,0-0.5,0.1s-0.4,0.2-0.6,0.3s-0.4,0.2-0.6,0.2l-0.1-0.2
		C68,5.3,68.4,5,68.7,4.9s0.6-0.2,0.9-0.3l0.2-0.5L70,3.4l0.3-0.7l0.3-0.2l0.2,0.1c0,0.2,0,0.3-0.1,0.3s-0.1,0.1-0.1,0.2
		s0,0.1-0.1,0.2s-0.1,0.2-0.2,0.4S70.1,4.2,70,4.4l0.7,0.1l0.9,0.2c0.1,0.1,0.2,0.4,0.3,0.9l-0.1,0.9c-0.2,0.4-0.3,0.8-0.4,1.2
		l-0.5,0.6c-0.2,0.1-0.3,0.2-0.4,0.2s-0.2,0-0.3-0.2S70,8.1,69.9,8z M70.5,7.9c0.3-0.3,0.4-0.4,0.5-0.6S71,7.2,71,7.1S71,7,71.1,7
		s0.1-0.2,0.2-0.5s0.2-0.5,0.2-0.7s0-0.3,0-0.4S71.4,5.1,71.3,5s-0.2-0.1-0.6-0.2s-0.7,0-1.1,0.1c-0.2,0.5-0.3,1-0.4,1.3L69.6,7
		C70,7.5,70.3,7.8,70.5,7.9z M75.2,6.8l-0.3-0.5l-0.4-0.6l-0.3-0.5l-0.5-0.6c-0.2-0.2-0.3-0.3-0.3-0.3s0-0.1,0.1-0.2
		s0.1-0.1,0.2-0.1s0.1,0,0.2,0.2s0.2,0.2,0.2,0.3s0.1,0.2,0.3,0.4s0.3,0.3,0.4,0.4s0.2,0.2,0.2,0.3S75,5.8,75.1,6s0.3,0.6,0.5,0.9
		C75.5,7,75.4,7,75.2,6.8z M75.3,3.8c0.2,0.3,0.3,0.5,0.4,0.6s0.1,0.2,0.1,0.3s0,0.2-0.1,0.3l-0.3-0.3L75,4.1l-0.1-0.2L75,3.7
		L75.3,3.8z M76.6,4.2c-0.4-0.6-0.6-0.9-0.6-0.9s0-0.1,0.1-0.2s0.1-0.1,0.2-0.1c0.3,0.4,0.5,0.7,0.6,0.8S77,4.2,77,4.2
		s0,0.1-0.1,0.2L76.6,4.2z"/>
	<path class="st0" d="M84.6,8.5C84.9,8.3,85,8.2,85,8.1s0.1-0.1,0.1-0.2s0.1-0.2,0.2-0.4s0.1-0.3,0.1-0.4c-0.5-0.3-0.9-0.5-1.2-0.6
		s-0.4-0.1-0.5-0.2H83l-0.8,0.2c-0.2,0.1-0.3,0.2-0.3,0.2s-0.1,0-0.2,0.1S81.6,7,81.5,7.1s-0.2,0.1-0.2,0.2s-0.1,0.1-0.1,0.2
		S81.1,7.5,81,7.5s-0.2,0-0.2-0.1s-0.1-0.1-0.1-0.2l0.3-1C81,6,81.1,5.8,81.1,5.6s0.1-0.4,0.2-0.5S81.5,5,81.7,5
		c-0.1,0.6-0.3,1.2-0.4,1.7c0.4-0.3,0.9-0.5,1.3-0.7h1.8c0.4,0.2,0.7,0.3,0.9,0.4s0.4,0.2,0.5,0.3l-0.1,0.9l-0.4,0.6l-0.6,0.6
		c-0.3,0.2-0.7,0.3-1,0.3V9C83.9,8.9,84.2,8.7,84.6,8.5z M83.6,2.4c-0.3-0.1-0.6-0.2-0.8-0.3S82.5,2,82.4,2s-0.1-0.1-0.1-0.3h0.9
		C83.6,1.9,83.9,2,84,2.1s0.3,0.2,0.5,0.5L84.1,3h-0.5l0-0.2C83.7,2.6,83.7,2.5,83.6,2.4z"/>
	<path class="st0" d="M90.7,8c0.7,0.3,1.1,0.5,1.4,0.8c0.3,0.3,0.5,0.7,0.5,0.9l0,0.1c-0.1,0.1-0.2,0.1-0.3,0.1l-0.1,0
		c-0.2-0.3-0.3-0.5-0.3-0.6S91.6,9.1,91.5,9c-0.1-0.2-0.5-0.4-1.1-0.8c0-0.1,0.1-0.1,0.1-0.2C90.6,8,90.6,8,90.7,8z"/>
	<path class="st0" d="M105.2,1.7l-0.8-0.1l-1.2,0.1c-0.2,0.1-0.4,0.2-0.6,0.2s-0.3,0.1-0.3,0.2s-0.1,0.1-0.2,0.1s-0.1,0-0.2,0.1
		s-0.2,0.1-0.2,0.1s-0.1,0-0.3,0.1s-0.3,0.2-0.6,0.5l-0.2,0l-0.1,2.2c-0.1,0.5-0.3,0.9-0.3,1.2s-0.1,0.4-0.2,0.5s0,0.1,0,0.3
		s-0.1,0.3-0.2,0.4l-0.3,0.7l-0.5,0.7c-0.3,0.3-0.5,0.4-0.7,0.4V9l0.5-0.6c0.3-0.3,0.4-0.6,0.5-0.6s0.1-0.2,0.2-0.4s0.1-0.4,0.2-0.7
		s0.2-0.7,0.3-1s0.1-0.5,0.2-0.6l-0.1-2.5c0-0.1,0-0.2,0.1-0.2s0.1-0.1,0.2-0.1s0.2,0.1,0.3,0.3c0.2-0.2,0.4-0.3,0.5-0.4
		s0.2-0.1,0.3-0.1s0.1,0,0.2-0.1s0.2-0.1,0.3-0.2s0.2-0.1,0.3-0.2s0.2,0,0.3,0s0.2,0,0.2-0.1s0.2-0.1,0.3-0.2s0.5-0.1,0.9-0.2h0.9
		c0.1,0.1,0.4,0.1,0.6,0.2c0.1,0.1,0.1,0.4,0.1,0.8l-0.1,0.9l-0.1,1.2l-0.1,0.1v1.5c0.1,0.6,0.3,1,0.3,1.2s0.1,0.3,0.2,0.4
		s0.1,0.2,0.2,0.5l0.4,0.6l0.5,0.4l0.7,0.5c0.3,0.1,0.6,0.3,0.7,0.3c0.1-0.1,0.1-0.2,0.1-0.3l-0.1-0.9c-0.1-0.4-0.2-0.8-0.3-1.3
		c0.1-0.1,0.2-0.1,0.2-0.1s0.1,0,0.2,0.1l0.1,0.8l0.1,0.3l0.1,0.9c0,0.5,0,0.7-0.1,0.8c-0.5-0.1-0.9-0.2-1.2-0.3s-0.5-0.3-0.8-0.5
		s-0.5-0.4-0.7-0.6s-0.4-0.5-0.5-0.8l-0.3-0.7l-0.3-0.7L105,6.4V3.2l0.1-0.6L105.2,1.7z M104.2,8l-0.8,0.3c-0.3,0-0.4,0.1-0.6,0.2
		s-0.2,0.2-0.4,0.2s-0.2,0-0.3,0s-0.2,0.1-0.4,0.2s-0.5,0.2-0.9,0.3l-0.1-0.2c0.5-0.3,0.9-0.5,1.1-0.6s0.4-0.2,0.4-0.2
		s0.1,0,0.2-0.1l0.1-0.8l0-0.6C102.5,7,102.4,7,102.3,7s-0.2,0-0.2-0.1S102,6.8,102,6.8s0-0.1,0.1-0.2s0.1-0.1,0.2-0.1
		s0.2-0.1,0.3-0.2V5.3c-0.3,0.2-0.4,0.3-0.6,0.3s-0.2,0.1-0.3,0.1s-0.1,0-0.2,0.1c0.1,0.5,0.2,0.9,0.3,1.3c-0.1,0.1-0.2,0.1-0.3,0.1
		c0-0.1,0-0.3-0.1-0.5s-0.1-0.3-0.2-0.3V5.2l0.1-0.1l0.3,0.2c0.3-0.1,0.4-0.2,0.5-0.3s0.2-0.1,0.2-0.2s0.1-0.2,0.1-0.3
		s0-0.3-0.1-0.5c-0.1,0.1-0.2,0.2-0.3,0.2s-0.1,0-0.2,0s-0.1,0-0.2,0.1s-0.2,0.1-0.4,0.1l-0.1-0.2c0.4-0.3,0.7-0.5,0.9-0.6
		s0.4-0.3,0.6-0.3l0.6-0.6c0-0.1,0-0.2,0.1-0.2s0.1-0.1,0.2-0.1s0.1,0,0.2,0.1s0.1,0.2,0.1,0.4l-0.6,0.5c0,0.1-0.1,0.2-0.2,0.2
		s-0.2,0.2-0.4,0.3l0.1,0.8l0.5-0.1h1c0.1,0.1,0.1,0.2,0.1,0.3s0,0.2,0,0.3s-0.2,0.3-0.5,0.6l-0.6,0.6l0.2-0.1h0.9l0.1,0.2l-0.1,0.2
		l-0.8,0.1L103,6.9c-0.1,0.4-0.1,0.8-0.1,1.2h0.2l0.8-0.3c0.1-0.1,0.2-0.1,0.4-0.1c0.4,0.5,0.6,0.9,0.7,1s0.1,0.4,0.1,0.7
		c-0.1,0-0.3,0-0.3-0.1s-0.1-0.2-0.2-0.2s0-0.2,0-0.2s0-0.1-0.1-0.3S104.3,8.3,104.2,8z M104.1,5c-0.4,0-0.7,0-0.7,0
		s-0.2,0.1-0.4,0.1l0,0.9c0.1,0,0.1,0,0.2-0.1s0.2-0.2,0.4-0.4L104.1,5z"/>
	<path class="st0" d="M113.3,8c-0.2-0.2-0.4-0.4-0.4-0.6s-0.1-0.3-0.2-0.3S112.6,7,112.6,7s-0.1,0-0.2,0.1s-0.1,0.1-0.1,0.2
		s0,0.2-0.1,0.2s-0.1,0.1-0.1,0.2s0,0.2-0.1,0.2s-0.2,0.1-0.3,0.1l-0.1-0.2c0.1-0.3,0.2-0.4,0.3-0.5s0.1-0.2,0.2-0.5
		s0.1-0.5,0.2-0.7s0.1-0.4,0.2-0.4s0-0.1,0-0.2s0.1-0.2,0.2-0.3c-0.1,0-0.2,0-0.5,0.1s-0.4,0.2-0.6,0.3s-0.4,0.2-0.6,0.2l-0.1-0.2
		c0.5-0.4,0.9-0.6,1.2-0.8s0.6-0.2,0.9-0.3l0.2-0.5l0.3-0.7l0.3-0.7l0.3-0.2l0.2,0.1c0,0.2,0,0.3-0.1,0.3s-0.1,0.1-0.1,0.2
		s0,0.1-0.1,0.2s-0.1,0.2-0.2,0.4s-0.2,0.4-0.2,0.7l0.7,0.1l0.9,0.2c0.1,0.1,0.2,0.4,0.3,0.9l-0.1,0.9c-0.2,0.4-0.3,0.8-0.4,1.2
		l-0.5,0.6c-0.2,0.1-0.3,0.2-0.4,0.2s-0.2,0-0.3-0.2S113.4,8.1,113.3,8z M113.9,7.9c0.3-0.3,0.4-0.4,0.5-0.6s0.1-0.2,0.1-0.3
		s0-0.1,0.1-0.2s0.1-0.2,0.2-0.5s0.2-0.5,0.2-0.7s0-0.3,0-0.4s-0.1-0.2-0.2-0.3s-0.2-0.1-0.6-0.2s-0.7,0-1.1,0.1
		c-0.2,0.5-0.3,1-0.4,1.3L113,7C113.4,7.5,113.7,7.8,113.9,7.9z M118.6,6.8l-0.3-0.5l-0.4-0.6l-0.3-0.5l-0.5-0.6
		c-0.2-0.2-0.3-0.3-0.3-0.3s0-0.1,0.1-0.2s0.1-0.1,0.2-0.1s0.1,0,0.2,0.2s0.2,0.2,0.2,0.3s0.1,0.2,0.3,0.4s0.3,0.3,0.4,0.4
		s0.2,0.2,0.2,0.3s0.1,0.2,0.2,0.5s0.3,0.6,0.5,0.9C118.9,7,118.8,7,118.6,6.8z M118.7,3.8c0.2,0.3,0.3,0.5,0.4,0.6s0.1,0.2,0.1,0.3
		s0,0.2-0.1,0.3l-0.3-0.3l-0.4-0.7l-0.1-0.2l0.1-0.2L118.7,3.8z M120,4.2c-0.4-0.6-0.6-0.9-0.6-0.9s0-0.1,0.1-0.2s0.1-0.1,0.2-0.1
		c0.3,0.4,0.5,0.7,0.6,0.8s0.2,0.3,0.2,0.3s0,0.1-0.1,0.2L120,4.2z"/>
	<path class="st0" d="M125.3,7.1c-0.3-0.2-0.6-0.3-0.7-0.4s-0.3-0.1-0.4-0.1V6.4c0.1-0.1,0.3-0.2,0.3-0.3s0.1-0.2,0.1-0.3
		s0-0.1,0.1-0.2s0.1-0.3,0.3-0.6c-0.1,0-0.2,0-0.3,0s-0.1,0.1-0.2,0.1s-0.1,0.1-0.2,0.1s-0.2,0-0.2,0s-0.1,0-0.2,0.1
		s-0.1,0.1-0.2,0.1s-0.1,0-0.2,0.1s-0.3,0.1-0.6,0.2c0-0.1,0-0.3,0.1-0.3s0.2-0.1,0.3-0.2s0.2-0.1,0.3-0.1s0.1,0,0.2-0.1
		s0.1-0.1,0.2-0.1s0.2-0.1,0.4-0.2s0.6-0.2,1.1-0.3c0,0.4,0,0.7-0.1,0.9s-0.2,0.3-0.2,0.3s-0.1,0.1-0.1,0.3s0,0.2,0,0.4
		c0.3,0.2,0.6,0.3,0.7,0.4s0.2,0.2,0.2,0.2s0,0.1,0,0.2c-0.3,0.2-0.5,0.4-0.6,0.6s-0.3,0.3-0.3,0.4c0.5,0.2,0.8,0.3,1,0.4
		s0.3,0.1,0.4,0.1s0.2,0.1,0.4,0.2l0.8,0.3l0.5,0.1l0.9,0.3c0.3,0.1,0.5,0.2,0.6,0.3h1.3l0.9-0.1l1.1-0.1c0.1-0.1,0.1-0.1,0.2-0.1
		s0.1,0,0.2,0.1s0.1,0.1,0.1,0.2s-0.1,0.2-0.2,0.3l-1.9,0.1l-1.2,0.1c-0.5-0.1-0.8-0.3-1.1-0.3s-0.4-0.1-0.5-0.1s-0.2,0-0.3-0.1
		s-0.2-0.1-0.3-0.1s-0.3-0.1-0.3-0.1s-0.1,0-0.2,0s-0.1,0-0.3-0.1s-0.3-0.2-0.7-0.3s-0.8-0.3-1.3-0.5l-0.7,0
		c-0.1,0.1-0.3,0.1-0.4,0.1s-0.3,0.1-0.3,0.1s-0.2,0.1-0.3,0.1l-0.1-0.2c0.1-0.1,0.2-0.2,0.3-0.3s0.3-0.2,0.6-0.3s0.5-0.1,0.7-0.2
		s0.3-0.2,0.4-0.2S125,7.4,125.3,7.1z M125.4,2.2c-0.4-0.1-0.7-0.3-0.9-0.4s-0.3-0.2-0.4-0.2s-0.2,0-0.2-0.1s-0.1-0.1-0.1-0.2
		s0-0.1,0.1-0.2s0.2-0.1,0.4-0.1l0.7,0.3c0.2,0.1,0.3,0.2,0.3,0.2S125.4,2,125.4,2.2z M130.7,9.1c0.1-0.1,0.1-0.2,0.2-0.3
		s0.1-0.3,0.1-0.6V7.2l-0.1-0.7l-1,0.2c-0.4,0.1-0.6,0.1-0.6,0.1l-0.1,1.4c0,0.3,0,0.5-0.1,0.5s-0.1,0.1-0.2,0.1s-0.1,0-0.2-0.1
		s-0.1-0.2-0.1-0.3s0-0.3,0.1-0.5l0.1-0.9c-0.1,0-0.3,0-0.5,0.1s-0.6,0.2-0.9,0.3l-0.1,0.3l-0.1,1v0.1H127V7.6l0.1-2.1l0.1-0.3
		l0.1-0.9c0.1-0.2,0.1-0.3,0.2-0.3s0.1-0.1,0.2-0.1s0.1,0,0.2,0.1s0.1,0.1,0.1,0.3c0.2-0.1,0.3-0.2,0.4-0.2s0.1,0,0.2,0
		s0.1,0,0.2-0.1s0.3-0.1,0.7-0.2c-0.1-0.1-0.3-0.3-0.4-0.5h-0.3l-0.1-0.2c0.1-0.2,0.2-0.3,0.3-0.3s0.1,0,0.2,0s0.2,0,0.3-0.1
		s0.3-0.2,0.7-0.5l0.5-0.6h-0.7l-1,0.3c-0.6,0.2-0.9,0.4-1,0.4s-0.2,0.1-0.3,0.2c-0.1-0.1-0.2-0.2-0.2-0.3s0-0.1,0.2-0.2
		s0.3-0.1,0.5-0.2s0.3-0.1,0.4-0.1s0.2,0,0.2-0.1s0.2-0.1,0.3-0.2s0.4-0.1,0.6-0.2h1.6c0,0.3-0.1,0.5-0.2,0.6l-0.8,0.8
		c-0.2,0.2-0.5,0.3-0.7,0.4l0.4,0.4c0.2,0,0.3,0,0.3,0s0.2,0,0.3,0s0.3,0,0.4,0s0.2,0,0.3,0s0.1,0.1,0.2,0.2s0.1,0.2,0.2,0.2
		s0.1,0.2,0.1,0.5l0.1,2.8v1.1c-0.1,0.3-0.2,0.6-0.2,0.7s-0.1,0.2-0.2,0.3S131,9.4,131,9.5c-0.3,0-0.5-0.1-0.6-0.2s-0.2-0.2-0.3-0.3
		S129.9,9,129.9,9s-0.1,0-0.2-0.1s-0.2-0.1-0.2-0.2s-0.1-0.1-0.1-0.2s0-0.1,0.1-0.2s0.1-0.1,0.2-0.1s0.1,0,0.2,0.1s0.2,0.1,0.2,0.2
		s0.1,0.1,0.3,0.1S130.5,8.8,130.7,9.1z M129,5.5c-0.3,0.1-0.5,0.2-0.6,0.2s-0.1,0-0.2,0s-0.2,0-0.3,0.1s-0.2,0.1-0.3,0.1
		s-0.2,0-0.2,0l0,1l0.3-0.2l0.7-0.3c0.3,0,0.5,0,0.6-0.1V5.5z M129,5.1c0-0.4-0.1-0.6-0.3-0.8c-0.3,0.1-0.6,0.1-0.9,0.2v0.2
		c-0.1,0-0.3,0-0.3,0c-0.1,0.4-0.1,0.8,0,1.1c0.3-0.2,0.6-0.4,0.8-0.5S128.8,5.1,129,5.1z M130.9,4.9c0-0.4,0-0.8-0.1-1h-1
		c-0.3,0.1-0.6,0.1-0.6,0.2l0.1,0.2l0.1,0.7h0.1l0.9-0.1c0.1-0.1,0.1-0.1,0.3-0.1S130.9,4.9,130.9,4.9z M130.9,6.3V5.2h-0.2
		l-0.9,0.1l-0.5,0.1l0,0.9c0.2,0,0.4,0,0.4-0.1h0.9L130.9,6.3z"/>
	<path class="st0" d="M138.4,9.6l0.4-0.3l0.5-0.6l0.3-0.6l0.3-0.8l0.3-0.7l0.1-0.4V4.1C140.1,4,140,3.9,140,3.7s-0.1-0.3-0.2-0.4
		s-0.2-0.2-0.3-0.2l-0.1,0.1l-0.5,0.7c-0.4,0.7-0.7,1.1-0.8,1.3S138,5.4,138,5.5s0,0.1-0.1,0.2s-0.1,0.1-0.1,0.2s0,0.2,0,0.3
		c-0.1,0-0.2,0-0.3-0.1s-0.1-0.2-0.2-0.5V3.4l0.1-0.8c0.1-0.5,0.2-0.8,0.3-1s0.1-0.3,0.3-0.4l0.2,0.1c0,0.4-0.1,0.9-0.3,1.4
		l-0.1,0.8l-0.1,1.7c0.2-0.1,0.3-0.3,0.4-0.5s0.2-0.4,0.3-0.7s0.2-0.4,0.3-0.4s0.1-0.1,0.2-0.1l0.5-0.7c0.1-0.1,0.2-0.1,0.3-0.1
		s0.2,0,0.3,0.1s0.1,0.1,0.1,0.2s0,0.2,0.1,0.3s0.1,0.2,0.1,0.4s0.1,0.3,0.2,0.4v2.6L140.3,7l-0.3,0.7c-0.1,0.2-0.1,0.4-0.2,0.5
		s-0.1,0.2-0.1,0.3s-0.1,0.1-0.1,0.2s0,0.1-0.1,0.2s-0.1,0.2-0.2,0.3l-0.6,0.6l-0.3-0.1L138.4,9.6z"/>
	<path class="st0" d="M147.1,4.3c-0.1,0-0.2,0-0.3,0s-0.1,0.1-0.2,0.1s-0.2,0.1-0.4,0.2s-0.3,0.1-0.5,0.1s-0.2,0-0.3,0
		s-0.1-0.1-0.1-0.3c0.1,0,0.2,0,0.3-0.1s0.2-0.1,0.4-0.1s0.2-0.1,0.3-0.1s0.1-0.1,0.2-0.1S146.9,4,147,4s0.2-0.1,0.2-0.1l0.1-0.8
		l0.1-1.2c0.1-0.5,0.1-0.8,0.1-1c0.1,0,0.3,0,0.3,0.1s0.1,0.1,0.1,0.2s0,0.1-0.1,0.2s-0.1,0.3-0.2,0.7l-0.1,1.2v0.5
		c0.3,0,0.6-0.1,0.9-0.2l0.1,0.3c-0.1,0.1-0.2,0.2-0.5,0.3s-0.4,0.1-0.5,0.2l-0.1,1.3v0.9c0.1,0,0.3-0.1,0.6-0.2s0.5-0.3,0.6-0.3
		s0.3-0.1,0.4-0.1l0.1,0.2c-0.5,0.3-0.8,0.5-0.9,0.6s-0.3,0.1-0.4,0.2s-0.2,0.2-0.3,0.2s-0.2,0.1-0.3,0.2l-0.1,1.6v1l-0.1,0.1
		c-0.1,0-0.2-0.1-0.3-0.2s-0.3-0.1-0.4-0.1l-0.8-0.5L145,8.7V8.5l0.7-0.7c0.7-0.5,1.2-0.9,1.3-1l0.1-1.4V4.3z M146.9,9.3l0.1-0.8
		V7.3c-0.2,0.2-0.4,0.3-0.7,0.5l-0.8,0.8c0.1,0.1,0.2,0.2,0.4,0.3l0.7,0.3C146.7,9.3,146.8,9.3,146.9,9.3z M151.7,8.4
		c-0.1,0.1-0.2,0.2-0.3,0.3s-0.2,0.1-0.3,0.1c0,0.1-0.1,0.2-0.2,0.3l-1.2,0.6h-0.4l-0.1-0.2c0.1-0.1,0.3-0.3,0.5-0.3
		s0.3-0.1,0.4-0.1s0.2-0.1,0.4-0.2l0.6-0.4c0.2-0.1,0.3-0.3,0.4-0.5L151,7.3c-0.1,0-0.2-0.1-0.3-0.2s-0.2-0.2-0.2-0.2s0-0.1-0.1-0.2
		s-0.1-0.2-0.1-0.3c0.2,0,0.4,0.1,0.6,0.3l0.5,0.7c0.1,0.1,0.2,0.2,0.3,0.2s0.2-0.1,0.3-0.2s0.2-0.2,0.2-0.3s0-0.1,0-0.2
		s0-0.2,0.2-0.4s0.2-0.4,0.3-0.6s0.2-0.4,0.2-0.7c-0.4,0.1-0.9,0.3-1.3,0.4L151,6c-0.2,0.1-0.3,0.2-0.4,0.2s-0.2,0-0.2,0.1
		s-0.1,0.2-0.2,0.4s-0.2,0.5-0.3,0.8l-0.9,1l-0.7,0.9c-0.1,0.1-0.2,0.1-0.4,0.1c0-0.2,0.1-0.4,0.2-0.6l0.7-0.8l0.5-0.6
		c0.2-0.2,0.3-0.4,0.3-0.6l0.3-0.7c0.1-0.3,0.1-0.5,0.2-0.7s0.1-0.3,0.2-0.3s0.1-0.1,0.1-0.3s0.1-0.2,0.1-0.3s0-0.3,0-0.6
		c-0.1,0-0.2,0-0.3,0s-0.1,0.1-0.2,0.1s-0.1,0.1-0.3,0.1s-0.2,0-0.3,0.1s-0.2,0.1-0.2,0.2s-0.2,0.1-0.3,0.1l-0.1-0.2
		c0.3-0.3,0.6-0.5,0.9-0.6s0.4-0.2,0.6-0.2s0.3-0.1,0.4-0.3l0.2-0.9V1.3c-0.1,0-0.2-0.1-0.3-0.2s-0.2-0.3-0.2-0.5c0.1,0,0.2,0,0.3,0
		s0.2,0.2,0.5,0.4v1.5l-0.2,0.6l0.1,0.2c0.1-0.1,0.1-0.1,0.2-0.1s0.1,0,0.3,0s0.2,0,0.3-0.1S152,3,152.2,3h1.5c0,0.1,0,0.3-0.1,0.3
		l-0.9,0.1c-0.7,0.2-1.1,0.3-1.2,0.3s-0.1,0-0.2,0.1S151,3.9,151,4.1s-0.1,0.3-0.1,0.4s0,0.2-0.1,0.3s-0.1,0.2-0.1,0.3s0,0.3,0,0.5
		c0.2,0,0.4-0.1,0.7-0.2s0.6-0.2,0.9-0.3s0.5-0.1,0.7-0.2s0.3,0,0.3,0s0.1,0.1,0.2,0.1s0.1,0.1,0.1,0.2s0,0.2-0.1,0.3l-0.3,0.8
		c-0.1,0.2-0.2,0.3-0.3,0.3s-0.1,0.2-0.1,0.3s-0.1,0.2-0.2,0.3s-0.1,0.1-0.2,0.2s-0.1,0.2-0.3,0.4l0.2,0.3l0.9,0.9
		c0.2,0.1,0.4,0.1,0.8,0.2l1,0.3c0.3,0,0.6,0,0.6,0.1s0.1,0.1,0.1,0.2s0,0.1-0.1,0.2c-0.3-0.1-0.6-0.2-0.8-0.2s-0.5-0.1-0.8-0.2
		l-0.9-0.1H153L152.4,9L151.7,8.4z"/>
	<path class="st0" d="M159.2,2.8L159.1,5v1.2l0.1,1.3l0.7-0.7h0.3l0.1,0.2l-0.3,0.3c-0.5,0.5-0.8,0.8-0.9,0.8s-0.1,0-0.2-0.1
		s-0.1-0.2-0.2-0.4l-0.1-1.3V4.9l0.1-0.9l0.1-1C159,2.8,159.1,2.8,159.2,2.8z M163.1,3.5h-0.7c-0.7,0.3-1.3,0.5-1.8,0.8l-0.2-0.1
		V3.8c0.1,0,0.3,0,0.5-0.1s0.4-0.2,0.7-0.3s0.4-0.2,0.5-0.2s0.1-0.1,0.3-0.1s0.4,0,0.7,0c-0.1-0.5-0.1-0.9-0.2-1.2l0.2-0.1
		c0.2,0.1,0.3,0.3,0.3,0.6s0.1,0.4,0.1,0.6h1c0.1,0.1,0.1,0.2,0.1,0.2s0,0.1-0.1,0.2h-1L163.4,7l-0.2,0.9c-0.1,0.1-0.1,0.3-0.1,0.4
		s0,0.3-0.1,0.5s-0.2,0.3-0.3,0.5l-0.3-0.1c0-0.1,0-0.3,0.1-0.5s0.2-0.4,0.2-0.6s0.1-0.3,0.2-0.4s0.1-0.3,0.2-0.6V3.5z"/>
	<path class="st0" d="M172.3,8.3l0.6-0.5c0.2-0.4,0.3-0.9,0.3-1.5c-0.3-0.2-0.5-0.4-0.6-0.6s-0.4-0.3-0.8-0.4h-0.9l-0.5,0.2l-1,0.5
		l-0.6,0.6c-0.2,0-0.3-0.1-0.5-0.2c0.3-0.5,0.6-0.9,0.9-1.4l0.7-0.8c0.3-0.4,0.5-0.7,0.8-0.9s0.5-0.6,0.9-1.1h-0.5l-1,0.3
		c-0.1,0.1-0.1,0.1-0.3,0.1l-0.2-0.3c0.1-0.1,0.4-0.3,0.7-0.3s0.6-0.2,0.8-0.3h1c0.1,0.1,0.1,0.2,0.1,0.4l-1.9,2.1l-0.5,0.6
		c-0.2,0.3-0.4,0.5-0.5,0.7l0.6-0.3l0.7-0.3h1.3c0.4,0.2,0.7,0.4,0.9,0.5s0.4,0.4,0.6,0.6v1.1c-0.1,0.3-0.3,0.7-0.6,1.1l-0.6,0.5
		c-0.3,0.2-0.5,0.3-0.7,0.3l-1.2,0c0,0-0.1-0.1-0.2-0.1S170,8.9,170,8.9s-0.1,0-0.2-0.1s-0.1-0.3-0.1-0.7c0.3-0.3,0.5-0.4,0.7-0.5
		s0.3-0.1,0.4-0.1s0.3,0.1,0.6,0.2l0.6,0.6L172.3,8.3z M171.6,8.6V8.5L171,7.9c-0.1-0.1-0.1-0.1-0.2-0.1s-0.2,0.1-0.4,0.2
		s-0.3,0.2-0.4,0.3c0.1,0.1,0.2,0.2,0.5,0.3h0.8L171.6,8.6z"/>
	<path class="st0" d="M179.2,2.4h0.3l0.1,0.2l-0.1,0.6L179.5,6l-0.1,0.1l-0.2,0V2.6C179.2,2.5,179.2,2.4,179.2,2.4z M180.5,9.4
		l0-0.2l0.4-0.6l0.5-0.6c0-0.2,0-0.3,0.1-0.3s0.1-0.2,0.2-0.4s0.2-0.4,0.2-0.7l0.3-0.8l0.1-0.6l0.1-0.9V1.9l0.2-0.1l0.2,0.1v3.2
		c-0.1,0.5-0.3,0.9-0.3,1.1s-0.1,0.5-0.2,0.5s-0.1,0.2-0.1,0.2S182,7.1,182,7.3s-0.1,0.3-0.1,0.3s0,0.1-0.1,0.2s-0.1,0.1-0.1,0.2
		s-0.1,0.2-0.2,0.4s-0.2,0.3-0.2,0.3s-0.1,0.2-0.2,0.3s-0.2,0.3-0.4,0.4L180.5,9.4z"/>
	<path class="st0" d="M188.6,4.9l0.6-0.1l0.9-0.2c0.5-0.1,0.9-0.3,1.2-0.4s0.6-0.2,0.8-0.3s0.3-0.1,0.5-0.2c0.1,0.1,0.1,0.2,0.1,0.3
		s0,0.2-0.1,0.2s-0.2,0.1-0.3,0.1s-0.5,0.2-0.9,0.3L190.5,5l-1,0.3c-0.4,0.1-0.7,0.1-1,0.1l-0.1,1.2v1.2c0.1,0.4,0.5,0.6,1.2,0.8
		l0.8,0l1.2-0.1l0.9-0.1c0.3-0.1,0.7-0.1,1-0.2c0.1,0.1,0.1,0.2,0.1,0.2s0,0.1-0.1,0.2s-0.3,0.1-0.8,0.2l-0.9,0.1L190.7,9l-1.2,0
		c0,0-0.2-0.1-0.6-0.2s-0.6-0.2-0.7-0.3s-0.2-0.3-0.3-0.4s-0.1-0.3-0.1-0.6l0.1-1.1l0.2-2.5c0-0.1,0-0.3,0-0.3s0-0.2,0-0.3
		s0-0.2-0.1-0.2S188,2.8,188,2.7l0.2-0.1c0.2,0.1,0.3,0.3,0.4,0.6v0.8V4.9z M192.5,2.4c0.3,0,0.4,0,0.6,0.1l0.7,0.7
		c0,0.1,0,0.2-0.1,0.2s-0.1,0.1-0.2,0.1l-0.7-0.7c-0.1,0-0.2,0-0.2-0.1S192.5,2.6,192.5,2.4z M194.4,2.6L193.8,2
		c-0.2-0.1-0.4-0.3-0.6-0.4l0.1-0.2c0.2,0,0.3,0,0.3,0s0.2,0.1,0.3,0.2l0.6,0.6c0,0.1,0,0.2-0.1,0.3L194.4,2.6z"/>
	<path class="st0" d="M200,3.8C200,4,200,4.1,200,4.2h-0.3V4l-0.5-0.4l-0.7-0.6c-0.1-0.1-0.1-0.2-0.1-0.2s0-0.1,0.1-0.2
		s0.1-0.1,0.2-0.1s0.1,0.1,0.3,0.2s0.3,0.3,0.6,0.4L200,3.8z M199.3,8.7c0.2-0.1,0.5-0.2,0.8-0.3l0.8-0.5l0.6-0.5
		c0.4-0.3,0.7-0.5,1-0.8L203,6c0.4-0.4,0.7-0.8,1-1.2l0.2,0.1c0,0.2,0,0.4-0.1,0.5s-0.2,0.3-0.3,0.4l-0.5,0.6l-0.4,0.3L202,7.4
		c-0.5,0.4-0.9,0.7-1.1,0.9c-0.1,0-0.3,0.1-0.6,0.3l-0.7,0.3c-0.5,0.1-0.8,0-1-0.2c0-0.1,0-0.2,0.1-0.2s0.1-0.1,0.2-0.1
		S199.1,8.5,199.3,8.7z"/>
	<path class="st0" d="M209.2,9l0.3-0.2l0.6-0.8l0.5-0.6l0.3-0.3l0.7-1.4c0.1-0.4,0.3-0.7,0.3-1s0.1-0.4,0.2-0.6l0.2-0.9l-0.1-0.1
		l-0.7,0l-1,0.2c-0.5,0.1-0.7,0.3-0.8,0.3s-0.1,0.2-0.1,0.2s0,0.2-0.2,0.3S209.2,4.7,209,5s-0.3,0.6-0.5,0.8s-0.2,0.3-0.2,0.4
		s0,0.1-0.1,0.2s-0.1,0.1-0.2,0.1s-0.1,0-0.2-0.1s-0.1-0.1-0.1-0.2s0.1-0.2,0.2-0.4s0.3-0.4,0.5-0.7l0.3-0.7
		c0.1-0.1,0.2-0.2,0.2-0.3s0-0.2,0.1-0.3s0.1-0.3,0.2-0.6s0.1-0.4,0.2-0.5l0.2,0.1v0.3c0.2,0,0.5-0.1,0.9-0.2l0.9-0.1
		c0.4-0.1,0.8-0.1,1.2-0.2l0,0.8c-0.1,0.3-0.2,0.7-0.3,1.2L212,5.6l-0.3,0.7c-0.3,0.4-0.5,0.7-0.6,1.1s-0.3,0.5-0.4,0.6
		s-0.2,0.2-0.4,0.5l-0.6,0.7v0.1l-0.5-0.1L209.2,9z M213.4,2.2h-0.2c0-0.1,0-0.2,0.1-0.3s0.2-0.1,0.3-0.1c0.3,0.4,0.5,0.7,0.6,1
		s0.2,0.4,0.2,0.5s0,0.2,0,0.4l-0.3,0c0-0.1-0.1-0.2-0.1-0.3S214,3.4,214,3.3s-0.1-0.2-0.1-0.3s0-0.1,0-0.2S213.7,2.6,213.4,2.2z
		 M215.5,2.8c-0.1-0.1-0.2-0.3-0.3-0.5l-0.5-0.6l-0.3-0.3l0.1-0.2h0.3c0.4,0.5,0.7,0.8,0.8,1s0.2,0.4,0.2,0.6L215.5,2.8z"/>
	<path class="st0" d="M220.2,9.9c-0.6-0.1-0.9-0.6-0.8-1.3c0.1-0.6,0.4-0.9,0.9-1.1c0.3,0,0.5,0,0.7,0c0.4,0.1,0.6,0.4,0.7,0.8
		c0.1,0.5,0,1-0.3,1.4c-0.1,0-0.3,0.1-0.3,0.1C220.6,9.9,220.3,9.9,220.2,9.9z M220.4,7.8c-0.3,0-0.6,0.1-0.7,0.4
		c-0.1,0.3-0.1,0.6-0.1,0.8c0.1,0.2,0.3,0.3,0.5,0.4c0.3,0.1,0.6,0.1,0.9-0.1c0,0,0.1-0.2,0.2-0.3c0.1-0.6,0-0.9-0.3-1.1
		C220.7,7.8,220.6,7.8,220.4,7.8z"/>
</g>
</svg>
