<?xml version="1.0" encoding="UTF-8"?>
<svg id="_レイヤー_2" xmlns="http://www.w3.org/2000/svg" width="292mm" height="194.7mm" xmlns:xlink="http://www.w3.org/1999/xlink" version="1.1" viewBox="0 0 827.7 552">
  <!-- Generator: Adobe Illustrator 29.3.1, SVG Export Plug-In . SVG Version: 2.1.0 Build 151)  -->
  <defs>
    <style>
      .st0, .st1, .st2, .st3, .st4, .st5, .st6, .st7, .st8 {
        fill: none;
      }

      .st1, .st2 {
        stroke-width: 1.6px;
      }

      .st1, .st2, .st3, .st4, .st5, .st6, .st7, .st8 {
        stroke-miterlimit: 10;
      }

      .st1, .st3, .st6, .st8 {
        stroke: #7a7a7a;
      }

      .st2, .st7 {
        stroke: #efece9;
      }

      .st3 {
        stroke-dasharray: 10.5 2.6;
      }

      .st3, .st6 {
        stroke-width: 3.9px;
      }

      .st4 {
        stroke: #595858;
        stroke-width: 2.3px;
      }

      .st9 {
        fill: #595858;
      }

      .st10 {
        fill: #efece9;
      }

      .st11 {
        fill: #9b9b9b;
      }

      .st12 {
        fill: #fff;
      }

      .st5 {
        stroke: #d9d9d9;
        stroke-width: 10.4px;
      }

      .st13 {
        fill: #eeebe9;
      }

      .st7 {
        stroke-width: 7.3px;
      }

      .st8 {
        stroke-width: 2.1px;
      }

      .st14 {
        clip-path: url(#clippath);
      }
    </style>
    <clipPath id="clippath">
      <rect class="st0" x="0" y=".4" width="827.7" height="550.3"/>
    </clipPath>
  </defs>
  <g id="_レイヤー_1">
    <rect class="st13" x="0" y=".4" width="827.7" height="551.1"/>
    <g class="st14">
      <g>
        <polygon class="st11" points="463.9 382.9 448.7 464.7 412.3 460.8 410.7 474.1 417.1 482.3 437.6 492.1 468.6 494.3 496.3 517.9 514 519.5 516.6 499.8 538.6 501.7 536 515.9 550 515.9 550 527.2 578.7 532.7 599.3 401.2 463.9 382.9"/>
        <line class="st6" x1="304.2" y1="473.1" x2="262.2" y2="559.9"/>
        <rect class="st9" x="312.4" y="88.4" width="7.5" height="7.5"/>
        <polyline class="st6" points="574.5 559.9 614 307.7 672.7 111.8 721.7 -6"/>
        <polyline class="st6" points="318.6 391.9 254.2 360.3 188.9 381.4 157.7 341.7 124.2 309.7 97.8 302.2 69.2 279.2 51.7 263.3 6.7 238.9 -49 227.3 -80 232.8 -101.6 223.4"/>
        <polyline class="st6" points="347.2 263.3 327.2 254.6 321.2 229.1 335.5 132.2 315.4 58.6 105.7 38.9 70.5 125.1 67.4 149.6 57.3 162.8 -3.4 147.6 -35.5 162.8 -114 151.1"/>
        <polyline class="st5" points="361 562.7 344.9 422.2 378.1 344.6 420.7 307.6 426.9 289.9 428.7 276.2 414.2 228.8 445.8 111.6 501.2 -12.6"/>
        <polyline class="st5" points="367.2 -6.4 340.9 23 340.9 57 358.5 156.1 358.5 235.1 378.5 347.6"/>
        <g>
          <path class="st9" d="M348.4,53.4l1.8,9.4-1.8.3-.7-3.7-9.9,1.9-.4-2,9.9-1.9-.7-3.7,1.8-.3h0Z"/>
          <path class="st9" d="M351.1,68.1l.4,2.2-10.8,6.7-.4-2.2,2.9-1.7-.9-4.6-3.3-.5-.4-2.1,12.5,2.3h0ZM344,68.8l.7,3.5,4.7-2.7h0l-5.3-.9h-.1Z"/>
          <path class="st9" d="M343,88.9l-.2-1.3,1.3-.6c-.7-.4-1.3-.9-1.6-1.4-.3-.5-.6-1.1-.7-1.8-.2-.9-.2-1.7,0-2.4.2-.7.5-1.4,1-2s1-1.1,1.7-1.5,1.5-.7,2.3-.8c.8-.2,1.6-.2,2.4,0,.8,0,1.5.4,2.1.7.6.4,1.2.9,1.6,1.5.5.6.8,1.4.9,2.2.1.6.1,1.2,0,1.8,0,.6-.2,1.2-.5,1.7-.2.5-.6,1-1,1.3-.4.4-1,.7-1.6.9l-.4-2c.4,0,.7-.3.9-.5s.5-.5.6-.8.2-.6.3-1v-1.1c-.1-.6-.3-1.1-.7-1.5-.3-.4-.7-.7-1.2-.9s-1-.3-1.5-.4c-.6,0-1.1,0-1.7,0s-1.1.3-1.6.5-.9.5-1.3.9-.6.8-.8,1.3c-.2.5-.2,1.1,0,1.7,0,.5.2,1,.5,1.3.2.4.5.7.8.9.3.2.7.4,1.1.4h1.4l-.6-3.1,1.5-.3.9,4.9-6.1,1.2h.2Z"/>
          <path class="st9" d="M355.8,92.9l.4,2.2-10.8,6.7-.4-2.2,2.9-1.7-.9-4.6-3.3-.5-.4-2.1,12.5,2.3h0ZM348.7,93.5l.7,3.5,4.7-2.7h0l-5.3-.9h-.1Z"/>
          <path class="st9" d="M357.2,100.3l.4,2.1-8.5,3.8h0l9.3.7.4,2.1-8.5,4h0l9.3.5.4,2.1-12.2-1-.4-2.1,8.4-4h0l-9.3-.7-.4-2.1,11-5.2v-.2Z"/>
          <path class="st9" d="M361.1,120.8l.4,2.2-10.8,6.7-.4-2.2,2.9-1.7-.9-4.6-3.3-.5-.4-2.1,12.5,2.3h0ZM353.9,121.3l.7,3.5,4.7-2.7h0l-5.3-.9h-.1Z"/>
        </g>
        <polyline class="st6" points="439.8 -5.2 346.3 265.9 304.7 455.6 304.2 559.2"/>
        <g>
          <path class="st9" d="M408.1,140.1l-3,9.1-1.7-.6,1.2-3.6-9.5-3.2.7-2,9.5,3.2,1.2-3.6,1.7.6h-.1Z"/>
          <path class="st9" d="M403.4,154.3l-.7,2.1-12.7.6.7-2.1h3.3l1.5-4.5-2.6-2,.7-2,9.8,8h0ZM396.9,151.4l-1.1,3.4h5.4c0-.1-4.3-3.4-4.3-3.4h0Z"/>
          <path class="st9" d="M401,161.6l-.7,2-9.3-.8h0l7.8,5.1-.7,2-9.3-.6h0l7.9,5-.7,2-10.2-6.8.7-2,9.3.6h0l-7.8-5.2.7-2,12.2.8h.1Z"/>
          <path class="st9" d="M394.5,181.2l-.7,2.1-12.7.6.7-2.1h3.3l1.5-4.5-2.6-2,.7-2,9.8,8h0ZM387.9,178.2l-1.1,3.4h5.4c0-.1-4.3-3.4-4.3-3.4h0Z"/>
          <path class="st9" d="M391.7,189.4l-1.8,5.4c-.4,1.2-1,2.1-1.7,2.5s-1.6.5-2.5.2c-.5-.2-1-.4-1.3-.7s-.5-.6-.7-.8c-.1-.3-.2-.5-.3-.8v-.5h0c0,.2-.2.3-.3.5-.1.2-.3.3-.6.4-.2.1-.5.2-.9.2s-.7,0-1.2-.2c-.7-.2-1.3-.4-1.8-.4h-1.3l.7-2.1h.9c.3,0,.6.2.9.2.5.2,1,.3,1.4.3h1c.3,0,.6-.3.8-.5.2-.2.4-.6.5-1.1l1-2.9-4.6-1.5.7-2,11.2,3.7h-.1ZM386,189.8l-1.1,3.2c-.2.6-.2,1.2,0,1.6.2.4.6.7,1.2.9.4.1.7.2.9.1.3,0,.5-.1.7-.3.2-.1.3-.3.5-.5.1-.2.2-.5.3-.7l1.1-3.2-3.5-1.2h-.1Z"/>
          <path class="st9" d="M386.8,204.3l-.7,2.1-12.7.6.7-2.1h3.3l1.5-4.5-2.6-2,.7-2,9.8,8h0ZM380.3,201.4l-1.1,3.4h5.4c0-.1-4.3-3.4-4.3-3.4h0Z"/>
          <path class="st9" d="M378.1,210.1l-1.5,4.6-1.7-.6,1.5-4.6,1.7.6Z"/>
          <path class="st9" d="M381.8,219.4l-.7,2-5.1-1.7,3.4,6.7-.8,2.4-3-6-8.3,2.6.8-2.5,6.6-1.9-1.1-2.1-3.8-1.3.7-2,11.2,3.7h0Z"/>
          <path class="st9" d="M376.9,234.1l-.7,2.1-12.7.6.7-2.1h3.3l1.5-4.5-2.6-2,.7-2,9.8,8h0ZM370.4,231.1l-1.1,3.4h5.4c0-.1-4.3-3.4-4.3-3.4h0Z"/>
          <path class="st9" d="M374.2,242.3l-.7,2-11.2-3.7.7-2,11.2,3.7Z"/>
          <path class="st9" d="M372.5,247.4l-1.5,4.7c-.3.9-.7,1.6-1.2,2.1s-1.1.9-1.7,1.1c-.6.2-1.3.3-2.1.3s-1.5-.2-2.3-.4c-.8-.3-1.5-.6-2.1-1s-1.1-.9-1.5-1.5-.6-1.2-.7-1.9c0-.7,0-1.5.3-2.4l1.5-4.7,11.2,3.7h.1ZM362.2,246.2l-.6,1.9c-.3.8-.4,1.4-.3,2,0,.6.2,1,.5,1.4s.6.7,1.1,1,1,.5,1.5.7c.6.2,1.1.3,1.6.4.5,0,1,0,1.5-.1.5-.2.9-.4,1.2-.9.4-.4.7-1,.9-1.8l.6-1.9-8-2.7h0Z"/>
          <path class="st9" d="M367.2,264.4c-.3.8-.7,1.5-1.2,2.1s-1.1,1-1.8,1.3c-.7.3-1.4.4-2.2.4s-1.6-.1-2.4-.4-1.5-.6-2.2-1.1c-.6-.5-1.1-1-1.5-1.7-.4-.6-.6-1.3-.7-2.1,0-.8,0-1.6.3-2.4s.7-1.5,1.2-2.1,1.1-1,1.8-1.3,1.4-.4,2.2-.4,1.6.1,2.4.4,1.5.6,2.1,1.1,1.1,1,1.5,1.7.6,1.3.7,2.1c0,.8,0,1.6-.3,2.4h.1ZM365.6,263.9c.2-.6.2-1.2.2-1.7s-.3-1-.6-1.4c-.3-.4-.7-.8-1.2-1.1-.5-.3-1-.5-1.5-.7s-1.1-.3-1.6-.3-1.1,0-1.6.1-.9.4-1.3.7c-.4.4-.7.8-.9,1.4-.2.6-.2,1.2-.2,1.7s.3,1,.6,1.4c.3.4.7.8,1.2,1.1.5.3,1,.5,1.5.7s1.1.3,1.6.3,1.1,0,1.6-.1.9-.4,1.3-.7c.4-.4.7-.8.9-1.4Z"/>
          <path class="st9" d="M354.6,276.2c-.4-.1-.8-.2-1.2-.1-.4,0-.7.2-.9.4-.3.2-.5.5-.7.8s-.4.7-.5,1.1-.2.8-.2,1.1,0,.6.1.9c0,.2.2.4.4.6.2.2.4.3.6.3.4.1.8.2,1,0,.3-.1.5-.3.6-.5.3-.3.6-.8.9-1.3s.7-1.1,1.2-1.8c.3-.4.6-.8.9-1,.3-.3.6-.4.9-.5s.6-.2.9-.1c.3,0,.6,0,.9.2.6.2,1,.5,1.4.8.3.4.6.8.7,1.3s.2,1,.2,1.5-.1,1.1-.3,1.6c-.2.6-.5,1.1-.8,1.6s-.7.8-1.1,1.1c-.4.3-.9.5-1.4.6-.5,0-1.1,0-1.7-.2l.7-2c.7.2,1.3.1,1.8-.2.4-.3.8-.9,1-1.5,0-.2.1-.5.2-.7v-.7c0-.2-.1-.4-.3-.6-.1-.2-.4-.3-.6-.4-.4-.1-.8-.1-1.1,0-.3.2-.6.4-.8.8,0,0-.1.2-.3.4-.2.3-.4.6-.6.9s-.4.6-.6,1c-.2.3-.3.5-.4.7-.2.3-.5.6-.8.8-.3.2-.6.4-.9.5-.3,0-.6.1-1,.1s-.6,0-.9-.2c-.6-.2-1.1-.5-1.5-.9s-.6-.9-.8-1.4c-.1-.5-.2-1.1-.1-1.6,0-.6.2-1.1.3-1.7.2-.6.5-1.2.8-1.7s.7-.9,1.2-1.2c.5-.3,1-.5,1.6-.6.6,0,1.2,0,1.9.2l-.7,2v-.4Z"/>
          <path class="st9" d="M359.3,287.3l-3,9.1-1.7-.6,1.2-3.6-9.5-3.2.7-2,9.5,3.2,1.2-3.6,1.7.6h-.1Z"/>
          <path class="st9" d="M346.5,295.4l-.7,2.2-2.1-.7.7-2.2,2.1.7Z"/>
        </g>
        <g>
          <path class="st9" d="M624.5,314.4h-1.2c-.3.1-.6.3-.9.5-.2.2-.4.5-.6.9,0,.3-.2.7-.3,1.1v1.2c0,.4.2.6.3.8,0,.2.3.4.5.5s.4.2.6.2c.4,0,.8,0,1-.2s.4-.4.5-.6c.2-.4.4-.9.6-1.4s.5-1.2.8-2c.2-.5.4-.9.7-1.2s.5-.5.8-.7.6-.3.9-.3h.9c.6,0,1.1.3,1.5.6.4.3.7.7.9,1.1s.4.9.5,1.5v1.6c0,.6-.2,1.2-.5,1.7-.2.5-.5,1-.9,1.3-.4.4-.8.6-1.3.8-.5.2-1.1.2-1.7.2l.3-2.1c.8,0,1.3-.1,1.7-.6.4-.4.6-1,.7-1.7v-.7c0-.3,0-.5-.2-.7,0-.2-.2-.4-.4-.6s-.4-.3-.7-.3-.8,0-1,.3c-.3.2-.5.5-.7.9,0,0,0,.2-.2.5,0,.3-.3.6-.4,1s-.3.7-.4,1.1c0,.3-.2.6-.3.7-.2.4-.4.7-.6.9-.2.3-.5.5-.8.6-.3.2-.6.3-.9.3h-.9c-.7,0-1.2-.3-1.6-.6-.4-.3-.8-.7-1-1.2s-.4-1-.5-1.6v-1.7c0-.7.3-1.3.5-1.9s.6-1.1,1-1.4c.4-.4.9-.7,1.4-.9.6-.2,1.2-.2,1.9-.2l-.3,2.1.3.2Z"/>
          <path class="st9" d="M631.1,324.4l-1.2,9.5-1.8-.2.5-3.7-9.9-1.3.3-2.1,9.9,1.3.5-3.7,1.8.2h0Z"/>
          <path class="st9" d="M620.1,334.7l-.3,2.3-2.2-.3.3-2.3,2.2.3Z"/>
        </g>
        <polyline class="st8" points="600.4 -6 622.8 8.2 832.2 41.9"/>
        <polyline class="st6" points="406.1 95.9 455.4 110 514.2 139.3 670.6 142.4 834.3 170.1"/>
        <line class="st8" x1="655.3" y1="13.6" x2="673.1" y2="-10.3"/>
        <polyline class="st8" points="609.9 0 544.2 291.4 509.6 552.9"/>
        <line class="st8" x1="376.5" y1="371.7" x2="829.6" y2="431.6"/>
        <polyline class="st6" points="831.7 362.4 808.5 416.7 780.3 559.9"/>
        <line class="st8" x1="829.6" y1="498.8" x2="589.1" y2="466.7"/>
        <path class="st8" d="M645.1,556.5s25.8-172.9,26.4-174.1c.6-1.2-2-21.5-2-21.5l11.6-114.9,28.3-26.7,7.9-20.9,11.4,2.9,7-.6,64.7,25.5,29.3,2.6"/>
        <line class="st1" x1="318.5" y1="72.2" x2="99.4" y2="51.5"/>
        <line class="st1" x1="322.7" y1="85.5" x2="94.9" y2="64"/>
        <polyline class="st1" points="89.9 77 309 97.8 316.9 162.8 314.1 177.9 304.5 179.3"/>
        <line class="st1" x1="311.2" y1="110.4" x2="85.2" y2="89"/>
        <line class="st1" x1="312.4" y1="124" x2="79.4" y2="102"/>
        <line class="st1" x1="252.1" y1="132.1" x2="72.9" y2="115.1"/>
        <polyline class="st1" points="112.1 133.3 252.1 146.1 299.6 141.1"/>
        <polyline class="st1" points="111.3 147.2 255.2 159.9 263.8 161.1 302.3 157.1"/>
        <line class="st1" x1="122.6" y1="26.1" x2="316.2" y2="44.5"/>
        <line class="st1" x1="318.5" y1="31.4" x2="123.8" y2="13.1"/>
        <line class="st1" x1="124.9" y1="0" x2="317.1" y2="16.7"/>
        <polyline class="st1" points="206.8 -5.1 311.2 4 316.2 10.2"/>
        <polyline class="st1" points="325.7 -3.7 316.2 10.2 318.5 27.1 315.4 58.6"/>
        <line class="st1" x1="319.9" y1="-3.7" x2="313.7" y2="7"/>
        <line class="st1" x1="305.1" y1="-6.4" x2="304.1" y2="3.4"/>
        <polyline class="st1" points="292.8 -6.4 282 107.8 286.4 142.4"/>
        <polyline class="st1" points="336.8 311.9 322.7 304.4 308.9 285.3 306.1 237.6 308.1 214.9 298.6 122.8"/>
        <line class="st1" x1="266.7" y1="119.8" x2="270.3" y2="160.3"/>
        <polyline class="st1" points="259.7 0 250.3 104.6 255.2 159.9 247.5 238.9"/>
        <line class="st1" x1="229.1" y1="-5.1" x2="201.2" y2="288.7"/>
        <polyline class="st1" points="193.7 -5.1 165 300.2 177 302.2 196.6 333.7 210.2 329.2"/>
        <polyline class="st1" points="156.7 -3.7 131.6 272.2 147.3 284.6 184.6 288.7 216.9 338.8 239.2 350.4 244.9 363.6"/>
        <polyline class="st1" points="164.2 349.8 189.3 350.3 206.2 376.6"/>
        <polyline class="st1" points="124.9 -5.7 100 266.2 280.3 283.1 282.1 262.1"/>
        <line class="st1" x1="81.3" y1="251.1" x2="266.7" y2="268.2"/>
        <polyline class="st1" points="109.8 159.6 253.6 173.1 264.6 174.3 303.5 169.8"/>
        <polyline class="st1" points="306.4 198.1 275.5 201.8 252.1 199.9 80.3 184.1 76.2 185.1 70.8 236.8 268.5 255.1"/>
        <polyline class="st1" points="108.5 172.9 252.5 187.2 282 187.2 287.4 232.1 289.4 259.7 288 262.6 267.5 260.8"/>
        <polyline class="st1" points="285.4 215.2 276.5 215.9 75 196.8 16.4 191.3 14.3 205.9 -3.6 205.2 -5.8 220.9 -50 220.9 -52.3 222.6 -53.3 227.3"/>
        <line class="st1" x1="-66.5" y1="190.3" x2="-69" y2="230.8"/>
        <line class="st1" x1="-67.8" y1="214.1" x2="-100.1" y2="211.9"/>
        <polyline class="st1" points="-21.3 220.9 -19.7 194.6 -53.3 192.6 -53.3 206.8 -51.1 208.3 -20.7 210.6"/>
        <polyline class="st1" points="48.9 194.3 46.9 220.9 288.2 243.2"/>
        <line class="st1" x1="287.1" y1="229.8" x2="47.9" y2="207.8"/>
        <polyline class="st1" points="224.6 251.1 242.1 292.2 242.1 304.3 243.2 309.7 250 321.8 266.7 341.4 272.2 352.9 271.3 368.2"/>
        <polyline class="st1" points="184.6 288.7 188.6 287.3 242.1 292.2"/>
        <polyline class="st1" points="193.3 302.2 228.4 304.3 229.8 301.4 230.4 291.2"/>
        <polyline class="st1" points="242.1 294.8 264.3 295.7 275.9 297.7 275.9 312.7 282 317.9 267.8 342.7"/>
        <line class="st1" x1="268.9" y1="241.4" x2="264.3" y2="295.7"/>
        <polyline class="st1" points="332.5 327.2 327 327.2 315.4 347.6 303.1 358.2 295.2 371.3 289.4 378.2"/>
        <polyline class="st8" points="829.6 254.6 727.2 279.9 709.7 285.9 676.9 288.1 653.4 288.1 645.1 290.3 620.9 284.7"/>
        <polyline class="st8" points="616.4 299.6 436.8 275.7 424.8 229.8 431.4 200.9 455.4 110 509.6 -11.8"/>
        <line class="st8" x1="431.4" y1="200.9" x2="637.5" y2="229.3"/>
        <path class="st8" d="M457.1,204.6c-.2,0,1.8-25.2,1.8-25.2l16.8-59.2"/>
        <line class="st8" x1="473.2" y1="206.8" x2="463.9" y2="279.1"/>
        <polyline class="st8" points="436.8 275.7 435.4 291.2 427.8 311.9 393 344.6 384.9 354.1 359.7 408.3 354.4 436.4 368.3 559.9"/>
        <polyline class="st8" points="354.4 436.4 359.7 452.7 370.7 469.2 484.4 484.1 508 285.2"/>
        <polyline class="st8" points="418.2 320.9 429 323.9 410.7 474.4"/>
        <polyline class="st8" points="645.1 552.9 511.9 535.4 470.2 538.4 468.6 549.7 471.3 556.5"/>
        <line class="st8" x1="554.1" y1="540.9" x2="554.1" y2="556.5"/>
        <polyline class="st8" points="829.6 389.4 761.5 371.7 669.5 361.1"/>
        <polyline class="st8" points="761.5 371.7 814.5 166.8 829.6 62.8"/>
        <polyline class="st8" points="741.4 -6 725.2 56.4 725.2 68 741.4 112.4 735.6 127.4 721.7 151.1"/>
        <line class="st8" x1="734.5" y1="93.4" x2="832.2" y2="109.2"/>
        <line class="st8" x1="725.2" y1="56.4" x2="834.3" y2="75.8"/>
        <polyline class="st8" points="783.4 34 763.5 158.1 757.1 185.6 734.5 237.4 727.8 265.3 727.8 285.2 729.8 303.3 724 367.4 720.3 404.6 717.3 416.7"/>
        <line class="st8" x1="679.9" y1="257.9" x2="727.8" y2="265.3"/>
        <line class="st8" x1="778.4" y1="306.2" x2="829.6" y2="321.2"/>
        <line class="st8" x1="799.5" y1="381.7" x2="829.6" y2="287.9"/>
        <polyline class="st8" points="672.7 329.4 706.9 330.8 769.9 339.1 834.3 355.6"/>
        <polyline class="st8" points="530.5 -6 501 70.9 501 97.6 521.8 97.6 541.5 101.3 546.5 117.6 544.4 139.9"/>
        <path class="st8" d="M522,16.3l79.9,19.1"/>
        <line class="st8" x1="562" y1="25.8" x2="569.1" y2="-6"/>
        <line class="st8" x1="490.5" y1="31.1" x2="515.2" y2="34"/>
        <line class="st8" x1="600.4" y1="46.2" x2="693.8" y2="61"/>
        <polyline class="st8" points="628.3 50.6 620.9 83.6 609.9 107.1 604.8 112.8 601.9 141.1"/>
        <line class="st8" x1="488" y1="453.2" x2="522.2" y2="457.8"/>
        <line class="st1" x1="-14.9" y1="234.4" x2="-32.4" y2="285.9"/>
        <polyline class="st1" points="21.5 247.8 10 259.7 -7.9 316.1"/>
        <polyline class="st1" points="69.2 279.2 51.5 300.9 -104.3 340.7"/>
        <polyline class="st1" points="-32.2 230.8 -39 243.2 10 259.7 22.5 268.7 40.5 288.7 49.8 301.4"/>
        <path class="st1" d="M-2.4,298.7l-30-12.8-25.6-6.5-1.6-2.3,7.3-22.6,3.6-1.2,54.4,20.2s35.6,30.2,35.5,30.2"/>
        <polyline class="st1" points="-55.6 264.7 -28.2 273.4 1.7 285.9 23.7 303.7 43.3 375.2 46.9 382.7 75.5 378.8 77.9 373.8 63 316.1"/>
        <line class="st1" x1="-15.6" y1="293.1" x2="-23.1" y2="320.1"/>
        <polyline class="st1" points="65.9 327.4 -13.9 348.6 -21.9 320.1"/>
        <line class="st1" x1="-5.2" y1="315.4" x2="12.7" y2="382.7"/>
        <polyline class="st1" points="-17.9 334.3 60.1 314.3 70.8 320.7 80.9 322.4 87.8 327.9 87.8 336.6 82.6 340.7 82.1 343.3 89.3 371.9"/>
        <line class="st1" x1="13.6" y1="295.6" x2="8.7" y2="311.9"/>
        <polyline class="st1" points="-97.3 270.2 -76.6 279.1 -71.5 267.1 -71.5 264.7 -97.3 253.2"/>
        <polyline class="st1" points="-96.3 322.3 -59.6 312.8 -54.9 311.9 -49.7 314.3 -42.9 301.4 -61.8 294.8 -66.5 295.6"/>
        <polyline class="st1" points="-76.6 279.1 -62.9 301.4 -59.6 312.8"/>
        <polyline class="st1" points="-96.3 288.3 -87 291.7 -75.7 310.2 -60.2 368.8 -55.6 368.8 -46.5 364.9 -30.6 362.4 -30.6 354.6 -32.4 347.2 -35.8 338.8 -39 336.3 -66.5 342.8"/>
        <polyline class="st1" points="-63.4 356.6 -51.6 352.9 -44.2 352.1 -31.9 349.1"/>
        <polyline class="st1" points="-30.6 362.4 -29 374.3 -32.4 377.6 -55.6 383.2 -78.9 370.9"/>
        <polyline class="st1" points="-83.1 335.3 -75.5 364.7 -95.1 397.8"/>
        <polyline class="st1" points="-78.7 352.3 -87.7 355.3 -97.3 368.8"/>
        <line class="st1" x1="69.6" y1="341.7" x2="6.8" y2="358.2"/>
        <line class="st1" x1="9.4" y1="370.2" x2="72.8" y2="353.7"/>
        <polyline class="st1" points="75.9 365.8 -4.2 387.3 -5.9 389.2 -5.9 391.3 -1.8 392.2 30.9 388.3 34 390.1 34.3 395.9"/>
        <line class="st1" x1="44.1" y1="318.4" x2="40.3" y2="304.3"/>
        <polyline class="st1" points="77.9 373.8 104.2 368.8 121.1 354.7"/>
        <polyline class="st1" points="188.9 381.4 188.3 386.7 178.6 393.7 79 392.9 32.2 396.7 -23.7 409.2 -41.9 413.4 -53.9 413.4 -76.6 402.9 -83.2 402.6 -88 404.7 -96.3 413.4"/>
        <polyline class="st1" points="87.8 336.6 107.5 349.1 120 353.7 126 358.2 128.9 363.4 130.4 375.2 139.4 384.2 137.6 393.7"/>
        <line class="st1" x1="87.8" y1="364.6" x2="107.5" y2="349.1"/>
        <polyline class="st1" points="104.2 368.8 110.9 370.9 118.8 371.9 129.1 365.2"/>
        <path class="st1" d="M350.6,557.7c.8-.8-19.3-127.3-19.3-127.3l5.8-42-16.1.6"/>
        <polyline class="st1" points="178.6 393.7 174.9 415.8 148.4 447.9 143.4 454.7 139.4 484.1 139.4 511.4 127.9 531.2 122.9 532.5 111.7 526.9 106.5 533.7"/>
        <path class="st1" d="M119,556.5c0-1.1-8.1-19.6-8.1-19.6l-14.9-10.4-9.9-20.7"/>
        <polyline class="st1" points="139.4 511.4 245.9 522.7 249.4 519.9 252.9 480.8 141.5 468.7"/>
        <polyline class="st1" points="164.9 428.1 215.9 434.2 206.5 518.4 200.1 557.7"/>
        <line class="st1" x1="154.2" y1="441.1" x2="214.5" y2="447.3"/>
        <line class="st1" x1="212.9" y1="461.6" x2="143.5" y2="454.6"/>
        <line class="st1" x1="139.4" y1="482.7" x2="251.6" y2="494.7"/>
        <line class="st1" x1="250.4" y1="508.7" x2="139.4" y2="497.3"/>
        <line class="st1" x1="176.2" y1="486.7" x2="173.5" y2="515"/>
        <polyline class="st1" points="185.8 516.5 185.8 523.9 194.9 540.2 202.5 542.7"/>
        <polyline class="st1" points="170.3 514.7 170.3 522.7 185.8 554.2"/>
        <rect class="st11" x="490.8" y="374.7" width="69.8" height="126.8" transform="translate(26 905.6) rotate(-82.9)"/>
        <g>
          <path class="st9" d="M476.3,413.3v1.2c.1.3.3.6.5.9.2.2.5.4.9.6s.7.2,1.1.3h1.2c.3,0,.6-.2.8-.3.2-.1.4-.3.5-.5s.2-.4.2-.6c0-.4,0-.8-.2-1s-.4-.4-.6-.5c-.4-.2-.9-.4-1.4-.6s-1.2-.5-2-.8c-.5-.2-.9-.4-1.2-.7s-.5-.5-.7-.8-.3-.6-.3-.9v-.9c0-.6.3-1.1.6-1.5.3-.4.7-.7,1.1-1s.9-.4,1.5-.5h1.6c.6,0,1.2.2,1.7.5.5.2,1,.5,1.3.9.4.4.6.8.8,1.3.2.5.2,1,.2,1.7l-2.1-.3c0-.8-.2-1.3-.6-1.7-.4-.4-1-.6-1.7-.7h-.7c-.2,0-.5,0-.7.2-.2,0-.4.2-.6.4-.2.2-.3.4-.3.7s0,.8.3,1c.2.3.5.5.9.7,0,0,.2,0,.5.2.3.1.6.3,1,.4s.7.3,1.1.4c.3.1.6.2.7.3.4.2.7.4.9.6.3.2.5.5.6.8.2.3.3.6.3.9v.9c0,.7-.3,1.2-.6,1.6-.3.4-.7.8-1.2,1s-1,.4-1.6.5h-1.7c-.7,0-1.3-.2-1.9-.5-.6-.2-1.1-.6-1.4-.9s-.7-.9-.9-1.4c-.2-.6-.3-1.2-.2-1.9l2.1.3.2-.3Z"/>
          <path class="st9" d="M490.5,407.2l2.2.3,3.1,12.3-2.2-.3-.7-3.2-4.7-.6-1.5,3-2.1-.3,6-11.2h0ZM488.9,414.2l3.6.4-1.1-5.3h0l-2.4,4.8h-.1Z"/>
          <path class="st9" d="M499.1,408.2l2.1.3-1.5,11.7-2.1-.3,1.5-11.7Z"/>
          <path class="st9" d="M504.9,416.9v1.2c.1.3.3.6.5.9.2.2.5.4.9.6.3.1.7.2,1.1.3h1.2c.3,0,.6-.2.8-.3.2-.1.4-.3.5-.5s.2-.4.2-.6c0-.4,0-.8-.2-1s-.4-.4-.6-.5c-.4-.2-.9-.4-1.4-.6s-1.2-.5-2-.8c-.5-.2-.9-.4-1.2-.7s-.5-.5-.7-.8-.3-.6-.3-.9v-.9c0-.6.3-1.1.6-1.5.3-.4.7-.7,1.1-1,.4-.2.9-.4,1.5-.5h1.6c.6,0,1.2.2,1.7.5.5.2,1,.5,1.3.9.4.4.6.8.8,1.3s.2,1,.2,1.7l-2.1-.3c0-.8-.2-1.3-.6-1.7-.4-.4-1-.6-1.7-.7h-.7c-.3,0-.5,0-.7.2-.2,0-.4.2-.6.4-.2.2-.3.4-.3.7s0,.8.3,1c.2.3.5.5.9.7,0,0,.2,0,.5.2.3.1.6.3,1,.4s.7.3,1.1.4c.3.1.6.2.7.3.4.2.7.4.9.6.3.2.5.5.6.8.2.3.3.6.3.9v.9c0,.7-.3,1.2-.6,1.6-.3.4-.7.8-1.2,1s-1,.4-1.6.5h-1.7c-.7,0-1.3-.2-1.9-.5-.6-.2-1.1-.6-1.5-.9-.4-.4-.7-.9-.9-1.4-.2-.6-.3-1.2-.2-1.9l2.1.3.3-.3Z"/>
          <path class="st9" d="M516,410.3l8.4,1-.2,1.8-6.4-.8-.4,3.1,5.9.7-.2,1.7-5.9-.7-.4,3.4,6.5.8-.2,1.8-8.6-1.1,1.5-11.7h0Z"/>
          <path class="st9" d="M527.2,411.7l2.1.3-1.5,11.7-2.1-.3,1.5-11.7Z"/>
          <path class="st9" d="M532.5,412.4l2.1.3-.7,5.3,5.9-4.7,2.5.3-5.3,4.1,4.1,7.7-2.6-.3-3.1-6.1-1.9,1.5-.5,3.9-2.1-.3,1.5-11.7h0Z"/>
          <path class="st9" d="M547.8,414.3l2.2.3,3.1,12.3-2.2-.3-.7-3.2-4.7-.6-1.5,3-2.1-.3,6-11.2h0ZM546.2,421.3l3.6.4-1.1-5.3h0l-2.4,4.8h0Z"/>
          <path class="st9" d="M556.4,415.4l2.1.3-1.5,11.7-2.1-.3,1.5-11.7Z"/>
          <path class="st9" d="M473.2,426.2l2.1.3-.8,6.8v1.2c0,.4,0,.8.2,1.1.1.3.4.6.7.9.3.3.8.4,1.5.5s1.2,0,1.6-.1c.4-.2.7-.4.9-.7.2-.3.4-.7.5-1.1,0-.4.2-.8.2-1.2l.8-6.8,2.1.3-.9,7.5c0,.8-.3,1.4-.6,1.9-.3.5-.7,1-1.2,1.3s-1,.5-1.6.7c-.6.1-1.3.1-2,0s-1.4-.3-1.9-.5-1-.6-1.4-1-.6-.9-.8-1.5c-.2-.6-.2-1.3,0-2l.9-7.5h-.3Z"/>
          <path class="st9" d="M497.7,437.1v1.2c.1.3.3.6.5.9s.5.4.9.6c.3.1.7.2,1.1.3h1.2c.3,0,.6-.2.8-.3.2-.1.4-.3.5-.5s.2-.4.2-.6c0-.4,0-.8-.2-1s-.4-.4-.6-.5c-.4-.2-.9-.4-1.4-.6s-1.2-.5-2-.8c-.5-.2-.9-.4-1.2-.7s-.5-.5-.7-.8-.3-.6-.3-.9v-.9c0-.6.3-1.1.6-1.5.3-.4.7-.7,1.1-1s.9-.4,1.5-.5h1.6c.6,0,1.2.2,1.7.5.5.2,1,.5,1.3.9.4.4.6.8.8,1.3.2.5.2,1,.2,1.7l-2.1-.3c0-.8-.2-1.3-.6-1.7-.4-.4-1-.6-1.7-.7h-.7c-.3,0-.5,0-.7.2-.2,0-.4.2-.6.4-.2.2-.3.4-.3.7s0,.8.3,1c.2.3.5.5.9.7,0,0,.2,0,.5.2.3.1.6.3,1,.4s.7.3,1.1.4c.3.1.6.2.7.3.4.2.7.4.9.6.3.2.5.5.6.8.2.3.3.6.3.9v.9c0,.7-.3,1.2-.6,1.6-.3.4-.7.8-1.2,1s-1,.4-1.6.5h-1.7c-.7,0-1.3-.2-1.9-.5-.6-.2-1.1-.6-1.4-.9s-.7-.9-.9-1.4c-.2-.6-.3-1.2-.2-1.9l2.1.3.2-.3Z"/>
          <path class="st9" d="M485.3,427.7l9.5,1.2-.2,1.8-3.7-.5-1.2,10-2.1-.3,1.2-10-3.7-.5.2-1.8h0Z"/>
          <path class="st9" d="M507.9,430.7l2.1.3-.8,6.8v1.2c0,.4,0,.8.2,1.1s.4.6.7.9c.3.3.8.4,1.5.5.7,0,1.2,0,1.6-.1.4-.2.7-.4.9-.7.2-.3.4-.7.5-1.1,0-.4.2-.8.2-1.2l.8-6.8,2.1.3-.9,7.5c0,.8-.3,1.4-.6,1.9s-.7,1-1.2,1.3-1,.5-1.6.7c-.6.1-1.3.1-2,0-.7,0-1.4-.3-1.9-.5-.6-.3-1-.6-1.4-1s-.6-.9-.8-1.5c-.2-.6-.2-1.3,0-2l.9-7.5h-.3Z"/>
          <path class="st9" d="M520.6,432.1l2.2.3,4.3,9.3h0l1.1-8.6,2,.2-1.5,11.7-2.2-.3-4.3-9.3h0l-1.1,8.6-2-.2,1.5-11.7Z"/>
          <path class="st9" d="M538.4,434.1c.9.1,1.6.4,2.3.8s1.2.9,1.6,1.6c.4.6.7,1.3.9,2.1.2.8.2,1.6,0,2.4,0,.8-.3,1.6-.7,2.3-.4.7-.8,1.3-1.4,1.8-.6.5-1.2.9-1.9,1.1s-1.5.3-2.4.2c-.9-.1-1.6-.4-2.3-.8s-1.2-.9-1.6-1.5-.7-1.3-.9-2.1c-.2-.8-.2-1.6,0-2.4,0-.8.3-1.6.7-2.3.3-.7.8-1.3,1.4-1.8.6-.5,1.2-.9,1.9-1.1s1.5-.3,2.4-.2h0ZM538.2,435.7c-.6,0-1.2,0-1.7.2s-.9.5-1.2.9-.6.8-.8,1.4c-.2.5-.3,1.1-.4,1.6s0,1.1,0,1.7.2,1.1.5,1.5c.2.5.6.8,1,1.1.4.3.9.5,1.6.6.6,0,1.2,0,1.7-.2s.9-.5,1.2-.9.6-.8.8-1.4c.2-.5.3-1.1.4-1.6v-1.7c0-.6-.2-1.1-.5-1.5-.2-.5-.6-.8-1-1.1-.4-.3-.9-.5-1.6-.6Z"/>
          <path class="st9" d="M546.7,435.3l2.9.4,2.1,9.6h0l4.3-8.8,2.9.4-1.5,11.7-2-.2,1.1-9.1h0l-4.4,8.6-1.7-.2-2.1-9.5h0l-1.1,9-2-.2,1.5-11.7h0Z"/>
          <path class="st9" d="M562.1,437.2l2.1.3-1.5,11.7-2.1-.3,1.5-11.7Z"/>
          <path class="st9" d="M569.7,445.4l-3.5-7.7,2.4.3,2.5,5.6,3.7-4.9,2.3.3-5.3,6.6-.6,4.6-2.1-.3.6-4.6h0Z"/>
          <path class="st9" d="M582.1,439.7l2.2.3,3.1,12.3-2.2-.3-.7-3.2-4.7-.6-1.5,3-2.1-.3,6-11.2h0ZM580.5,446.7l3.6.4-1.1-5.3h0l-2.4,4.8h0Z"/>
          <path class="st9" d="M470.7,447.1l2.1.3-.6,4.7,5.3.7.6-4.7,2.1.3-1.5,11.7-2.1-.3.7-5.3-5.3-.7-.7,5.3-2.1-.3,1.5-11.7Z"/>
          <path class="st9" d="M488.4,448.9c.9.1,1.6.4,2.3.8.7.4,1.2.9,1.6,1.6.4.6.7,1.3.9,2.1.2.8.2,1.6,0,2.4-.1.8-.3,1.6-.7,2.3-.4.7-.8,1.3-1.4,1.8s-1.2.9-1.9,1.1c-.7.2-1.5.3-2.4.2-.9-.1-1.6-.4-2.3-.8-.7-.4-1.2-.9-1.6-1.5s-.7-1.3-.9-2.1c-.2-.8-.2-1.6,0-2.4.1-.8.3-1.6.7-2.3.3-.7.8-1.3,1.4-1.8s1.2-.9,1.9-1.1c.7-.2,1.5-.3,2.4-.2h0ZM488.2,450.7c-.6,0-1.2,0-1.7.2s-.9.5-1.2.9c-.3.4-.6.8-.8,1.4-.2.5-.3,1.1-.4,1.6s0,1.1,0,1.7.2,1.1.5,1.5c.2.5.6.8,1,1.1.4.3.9.5,1.6.6.6,0,1.2,0,1.7-.2s.9-.5,1.2-.9c.3-.4.6-.8.8-1.4s.3-1.1.4-1.6v-1.7c0-.6-.2-1.1-.5-1.5s-.6-.8-1-1.1c-.4-.3-.9-.5-1.6-.6Z"/>
          <path class="st9" d="M497.1,458.2v1.2c.1.3.3.6.5.9.2.2.5.4.9.6.3.1.7.2,1.1.3h1.2c.3,0,.6-.2.8-.3.2-.1.4-.3.5-.5s.2-.4.2-.6c0-.4,0-.8-.2-1s-.4-.4-.6-.5c-.4-.2-.9-.4-1.4-.6s-1.2-.5-2-.8c-.5-.2-.9-.4-1.2-.7s-.5-.5-.7-.8-.3-.6-.3-.9v-.9c0-.6.3-1.1.6-1.5.3-.4.7-.7,1.1-1,.4-.2.9-.4,1.5-.5h1.6c.6,0,1.2.2,1.7.5.5.2,1,.5,1.3.9.4.4.6.8.8,1.3.2.5.2,1,.2,1.7l-2.1-.3c0-.8-.2-1.3-.6-1.7-.4-.4-1-.6-1.7-.7h-.7c-.3,0-.5,0-.7.2-.2,0-.4.2-.6.4-.2.2-.3.4-.3.7s0,.8.3,1c.2.3.5.5.9.7,0,0,.2,0,.5.2.3.1.6.3,1,.4s.7.3,1.1.4c.3.1.6.2.7.3.4.2.7.4.9.6.3.2.5.5.6.8.2.3.3.6.3.9v.9c0,.7-.3,1.2-.6,1.6s-.7.8-1.2,1-1,.4-1.6.5h-1.7c-.7,0-1.3-.2-1.9-.5-.6-.2-1.1-.6-1.5-.9-.4-.4-.7-.9-.9-1.4-.2-.6-.3-1.2-.2-1.9l2.1.3.3-.3Z"/>
          <path class="st9" d="M508.2,451.7l5.2.6c.8.1,1.5.3,2,.6.5.3.9.7,1.1,1.1s.4.8.4,1.3v1.2c0,.4,0,.7-.3,1.2-.2.4-.4.8-.7,1.1s-.8.6-1.3.7-1.2.2-2.1,0l-3.1-.4-.6,4.5-2.1-.3,1.5-11.7h0ZM509.5,457.4l3,.4h.7c.2,0,.5-.1.7-.2s.4-.3.6-.5c.2-.2.3-.5.3-.9v-1c0-.3-.2-.5-.4-.7s-.4-.3-.6-.4c-.2,0-.5-.1-.8-.2l-3-.4-.5,3.9h0Z"/>
          <path class="st9" d="M519.9,453.2l2.1.3-1.5,11.7-2.1-.3,1.5-11.7Z"/>
          <path class="st9" d="M524.2,453.7l9.5,1.2-.2,1.8-3.7-.5-1.2,10-2.1-.3,1.2-10-3.7-.5.2-1.8h0Z"/>
          <path class="st9" d="M539,455.6l2.2.3,3.1,12.3-2.2-.3-.7-3.2-4.7-.6-1.5,3-2.1-.3,6-11.2h0ZM537.4,462.4l3.6.4-1.1-5.3h0l-2.4,4.8h0Z"/>
          <path class="st9" d="M547.7,456.6l2.1.3-1.2,10,6,.7-.2,1.8-8-1,1.5-11.7h-.2Z"/>
        </g>
        <polygon class="st10" points="257.3 248.4 111.1 235.3 113.8 211.2 260 224.3 257.3 248.4"/>
        <g>
          <path class="st9" d="M124.6,217.8l8.7.8-.2,1.9-6.5-.6-.3,3.3,5.7.5-.2,1.8-5.7-.5-.5,5.6-2.2-.2,1.1-12.6h0Z"/>
          <path class="st9" d="M135.8,218.8l2.2.2-.7,7.3v1.3c0,.4,0,.8.2,1.2s.4.7.8.9c.4.3.9.4,1.6.5.7,0,1.3,0,1.7-.2s.7-.4,1-.8c.2-.3.4-.7.5-1.1,0-.4.1-.9.2-1.3l.7-7.3,2.2.2-.7,8c0,.8-.3,1.5-.6,2.1s-.7,1-1.2,1.4-1.1.6-1.7.8c-.7.1-1.4.2-2.1.1-.8,0-1.5-.2-2.1-.5s-1.1-.6-1.5-1.1c-.4-.4-.7-1-.9-1.6s-.3-1.3-.2-2.1l.7-8h0Z"/>
          <path class="st9" d="M155.5,229.1c0,.6-.1,1.1-.3,1.6-.1.5-.4,1-.7,1.3s-.8.7-1.3.9c-.6.2-1.3.3-2.2.2-.7,0-1.2-.2-1.7-.5-.5-.2-.8-.6-1.1-.9-.3-.4-.5-.8-.6-1.3,0-.5-.1-1,0-1.6v-.7l2.3.2v.7c-.1.7,0,1.3.2,1.7s.6.7,1.3.7h.9c.2,0,.4-.2.6-.4.2-.2.3-.4.3-.7s.1-.6.2-1l.8-8.6,2.2.2-.8,8.5v-.3Z"/>
          <path class="st9" d="M159.8,220.9l2.2.2-1.1,12.6-2.2-.2,1.1-12.6Z"/>
          <path class="st9" d="M165.6,221.4l3.1.3,2.6,10.1h0l4.3-9.5,3.1.3-1.1,12.6-2.1-.2.9-9.7h0l-4.4,9.4-1.8-.2-2.6-10h0l-.9,9.7-2.1-.2,1.1-12.6h-.1Z"/>
          <path class="st9" d="M182.1,222.9l2.2.2-1.1,12.6-2.2-.2,1.1-12.6Z"/>
          <path class="st9" d="M197.7,237.1h-1.4c0-.1-.2-1.6-.2-1.6-.6.6-1.3,1-1.9,1.2-.6.2-1.3.3-2.1.2-.9,0-1.8-.3-2.5-.7s-1.3-.9-1.8-1.6c-.5-.6-.8-1.4-1-2.2s-.3-1.7-.2-2.6c0-.9.3-1.7.6-2.5s.8-1.4,1.4-2c.6-.6,1.2-1,2-1.3s1.6-.4,2.6-.3c.7,0,1.3.2,1.9.4.6.2,1.1.6,1.6,1,.4.4.8.9,1.1,1.5s.4,1.2.4,1.9l-2.1-.2c0-.4-.1-.8-.3-1.1s-.4-.6-.7-.8-.6-.4-.9-.6c-.4-.1-.7-.2-1.1-.3-.7,0-1.3,0-1.8.2s-.9.6-1.3,1c-.3.4-.6.9-.8,1.5s-.3,1.1-.4,1.7v1.8c0,.6.3,1.1.5,1.6.3.5.6.9,1.1,1.2s1,.5,1.7.6h1.5c.4-.1.8-.3,1.2-.6.3-.3.6-.6.8-1s.3-.9.4-1.4l-3.3-.3.2-1.7,5.3.5-.6,6.6h.1Z"/>
          <path class="st9" d="M205.5,225.1l2.3.2,3.7,13-2.4-.2-.9-3.4-5-.5-1.5,3.2-2.3-.2,6-12.1h0ZM204,232.6l3.8.3-1.4-5.6h0l-2.4,5.2h0Z"/>
          <path class="st9" d="M220.1,226.1c.9,0,1.8.3,2.5.8.7.4,1.3,1,1.8,1.6s.8,1.4,1,2.2.3,1.7.2,2.6c0,.9-.3,1.7-.6,2.5s-.8,1.4-1.4,2c-.6.6-1.2,1-2,1.2-.8.3-1.6.4-2.6.3-.9,0-1.8-.3-2.5-.7s-1.3-.9-1.8-1.6c-.5-.6-.8-1.4-1-2.2s-.3-1.7-.2-2.6c0-.9.3-1.7.6-2.5s.8-1.4,1.4-2c.6-.6,1.2-1,2-1.3s1.6-.4,2.6-.3ZM219.9,227.8c-.7,0-1.3,0-1.8.2s-.9.6-1.3,1c-.3.4-.6.9-.8,1.5s-.3,1.1-.4,1.7v1.8c0,.6.3,1.1.5,1.6.3.5.6.9,1.1,1.2s1,.5,1.7.6c.7,0,1.3,0,1.8-.2s.9-.6,1.3-1c.3-.4.6-.9.8-1.5s.3-1.1.4-1.7v-1.8c0-.6-.3-1.1-.5-1.6-.3-.5-.6-.9-1.1-1.2s-1-.5-1.7-.6Z"/>
          <path class="st9" d="M229,227.1l2.2.2-.5,5.7,6.1-5.2,2.7.2-5.5,4.6,4.7,8-2.7-.2-3.6-6.4-2,1.6-.4,4.2-2.2-.2,1.1-12.6h0Z"/>
          <path class="st9" d="M245.2,228.6l2.3.2,3.7,13-2.4-.2-.9-3.4-5-.5-1.5,3.2-2.3-.2,6-12.1h0ZM243.8,236.1l3.8.3-1.4-5.6h0l-2.4,5.2h0Z"/>
        </g>
        <g>
          <path class="st9" d="M805.4,57.6l-1.2,9.5-1.8-.2.5-3.7-9.9-1.3.3-2.1,9.9,1.3.5-3.7,1.8.2h0Z"/>
          <path class="st9" d="M803.5,74.3c0,.9-.4,1.6-.8,2.3-.4.7-.9,1.2-1.6,1.6-.6.4-1.3.7-2.1.9-.8.2-1.6.2-2.4,0-.8,0-1.6-.3-2.3-.7-.7-.4-1.3-.8-1.8-1.4s-.9-1.2-1.1-1.9c-.2-.7-.3-1.5-.2-2.4s.4-1.6.8-2.3c.4-.7.9-1.2,1.6-1.6.6-.4,1.3-.7,2.1-.9.8-.2,1.6-.2,2.4,0,.8,0,1.6.3,2.3.7.7.4,1.3.8,1.8,1.4s.9,1.2,1.1,1.9c.2.7.3,1.5.2,2.4ZM801.8,74c0-.6,0-1.2-.2-1.7s-.5-.9-.9-1.2c-.4-.3-.8-.6-1.4-.8-.5-.2-1.1-.3-1.6-.4h-1.7c-.6,0-1.1.2-1.5.4-.5.2-.8.6-1.2,1-.3.4-.5.9-.6,1.6,0,.6,0,1.2.2,1.7s.5.9.9,1.2c.4.3.8.6,1.4.8.5.2,1.1.3,1.6.4h1.7c.6,0,1.1-.2,1.5-.4.5-.2.8-.6,1.2-1,.3-.4.5-.9.6-1.6Z"/>
          <path class="st9" d="M802.1,82.5l-.3,2.1-4.7-.6-.7,5.3,4.7.6-.3,2.1-11.7-1.5.3-2.1,5.3.7.7-5.3-5.3-.7.3-2.1,11.7,1.5Z"/>
          <path class="st9" d="M800.1,100.2c0,.9-.4,1.6-.8,2.3-.4.7-.9,1.2-1.6,1.6-.6.4-1.3.7-2.1.9-.8.2-1.6.2-2.4,0-.8,0-1.6-.3-2.3-.7-.7-.4-1.3-.8-1.8-1.4s-.9-1.2-1.1-1.9c-.2-.7-.3-1.5-.2-2.4s.4-1.6.8-2.3c.4-.7.9-1.2,1.6-1.6.6-.4,1.3-.7,2.1-.9.8-.2,1.6-.2,2.4,0,.8,0,1.6.3,2.3.7.7.4,1.3.8,1.8,1.4s.9,1.2,1.1,1.9c.2.7.3,1.5.2,2.4ZM798.4,100c0-.6,0-1.2-.2-1.7s-.5-.9-.9-1.2c-.4-.3-.8-.6-1.4-.8-.5-.2-1.1-.3-1.6-.4h-1.7c-.6,0-1.1.2-1.5.4-.5.2-.8.6-1.2,1-.3.4-.5.9-.6,1.6,0,.6,0,1.2.2,1.7s.5.9.9,1.2c.4.3.8.6,1.4.8.5.2,1.1.3,1.6.4h1.7c.6,0,1.1-.2,1.5-.4.5-.2.8-.6,1.2-1,.3-.4.5-.9.6-1.6Z"/>
          <path class="st9" d="M798.7,108.5l-.3,2.1-5.3-.7,4.7,5.9-.3,2.5-4.1-5.3-7.7,4.1.3-2.6,6.1-3.1-1.4-1.9-3.9-.5.3-2.1,11.7,1.5h0Z"/>
          <path class="st9" d="M797.2,120.4l-.3,2.1-6.8-.9h-1.2c-.4,0-.8,0-1.1.2-.3,0-.6.4-.9.7-.3.3-.4.8-.5,1.5,0,.7,0,1.2,0,1.6.2.4.4.7.7.9.3.2.6.4,1,.5.4,0,.8.2,1.2.2l6.8.9-.3,2.1-7.5-1c-.8,0-1.4-.3-1.9-.6s-1-.7-1.3-1.2-.5-1-.6-1.6,0-1.3,0-2c0-.7.3-1.4.5-1.9.3-.6.6-1,1-1.4s.9-.6,1.5-.8c.6-.2,1.3-.2,2,0l7.5,1v-.3Z"/>
          <path class="st9" d="M786.8,138.9h-1.2c-.3.1-.6.3-.9.5-.2.2-.4.5-.6.9,0,.3-.2.7-.3,1.1v1.2c0,.3.2.6.3.8s.3.4.5.5.4.2.6.2c.4,0,.8,0,1-.2s.4-.4.5-.6c.2-.4.4-.9.6-1.4.2-.5.5-1.2.8-2,.2-.5.4-.9.7-1.2s.5-.5.8-.7.6-.3.9-.3h.9c.6,0,1.1.3,1.5.6s.7.7.9,1.1c.2.4.4.9.5,1.5v1.6c0,.6-.2,1.2-.5,1.7-.2.5-.5,1-.9,1.3-.4.4-.8.6-1.3.8s-1.1.2-1.7.1l.3-2.1c.8,0,1.3-.1,1.7-.6.4-.4.6-1,.7-1.7v-.7c0-.3,0-.5-.2-.7,0-.2-.2-.4-.4-.6-.2-.2-.4-.3-.7-.3s-.8,0-1,.3c-.3.2-.5.5-.7.9,0,0,0,.2-.2.5,0,.3-.3.6-.4,1,0,.4-.3.7-.4,1.1,0,.3-.2.6-.3.7-.2.4-.4.7-.6.9-.2.3-.5.5-.8.6-.3.2-.6.3-.9.3h-.9c-.7,0-1.2-.3-1.6-.6s-.8-.7-1-1.2-.4-1-.5-1.6v-1.7c0-.7.3-1.3.5-1.9.2-.6.6-1.1,1-1.4s.9-.7,1.4-.9c.6-.2,1.2-.2,1.9-.2l-.3,2.1.3.3Z"/>
          <path class="st9" d="M793.3,150.1l-.3,2.1-4.7-.6-.7,5.3,4.7.6-.3,2.1-11.7-1.5.3-2.1,5.3.7.7-5.3-5.3-.7.3-2.1,11.7,1.5Z"/>
          <path class="st9" d="M791.6,162.8l-.3,2.1-11.7-1.5.3-2.1,11.7,1.5Z"/>
          <path class="st9" d="M790.9,168.1l-.3,2.2-9.3,4.2h0l8.6,1.2-.3,2-11.7-1.5.3-2.2,9.3-4.2h0l-8.6-1.2.3-2,11.7,1.5Z"/>
          <path class="st9" d="M789.3,180.8l-.3,2.1-5.3-.7,4.7,5.9-.3,2.5-4.1-5.3-7.7,4.1.3-2.6,6.1-3.1-1.4-1.9-3.9-.5.3-2.1,11.7,1.5h0Z"/>
          <path class="st9" d="M787.3,196.1l-.3,2.2-12.3,3,.3-2.2,3.2-.7.6-4.7-3-1.5.3-2.1,11.1,6h.1ZM780.3,194.3l-.5,3.6,5.3-1.1h0l-4.8-2.5Z"/>
          <path class="st9" d="M786.2,204.6l-.3,2.2-9.3,4.2h0l8.6,1.2-.3,2-11.7-1.5.3-2.2,9.3-4.2h0l-8.6-1.2.3-2,11.7,1.5Z"/>
          <path class="st9" d="M776.5,217.6h-1.2c-.3.1-.6.3-.9.5-.2.2-.4.5-.6.9s-.2.7-.3,1.1v1.2c0,.4.2.6.3.8s.3.4.5.5.4.2.6.2c.4,0,.8,0,1-.2s.4-.4.5-.6c.2-.4.4-.9.6-1.4.2-.5.5-1.2.8-2,.2-.5.4-.9.7-1.2s.5-.5.8-.7.6-.3.9-.3h.9c.6,0,1.1.3,1.5.6s.7.7.9,1.1c.2.4.4.9.5,1.5v1.6c0,.6-.2,1.2-.5,1.7-.2.5-.5,1-.9,1.3-.4.4-.8.6-1.3.8s-1.1.2-1.7.1l.3-2.1c.8,0,1.3-.1,1.7-.6.4-.4.6-1,.7-1.7v-.7c0-.3,0-.5-.2-.7,0-.2-.2-.4-.4-.6-.2-.2-.4-.3-.7-.3s-.8,0-1,.3c-.3.2-.5.5-.7.9,0,0,0,.2-.2.5,0,.3-.3.6-.4,1,0,.4-.3.7-.4,1.1,0,.3-.2.6-.3.7-.2.4-.4.7-.6.9-.2.3-.5.5-.8.6-.3.2-.6.3-.9.3h-.9c-.7,0-1.2-.3-1.6-.6-.4-.3-.8-.7-1-1.2s-.4-1-.5-1.6v-1.7c0-.7.3-1.3.5-1.9s.6-1.1,1-1.4c.4-.4.9-.7,1.4-.9s1.2-.2,1.9-.2l-.3,2.1.3.3Z"/>
          <path class="st9" d="M783,228.8l-1.1,8.4-1.8-.2.8-6.4-3.1-.4-.8,5.9-1.7-.2.8-5.9-3.4-.4-.8,6.5-1.8-.2,1.1-8.6,11.7,1.5h0Z"/>
          <path class="st9" d="M781.6,239.8l-.3,2.2-9.3,4.2h0l8.6,1.2-.3,2-11.7-1.5.3-2.2,9.3-4.2h0l-8.6-1.2.3-2,11.7,1.5Z"/>
        </g>
        <g>
          <path class="st9" d="M771.4,322.1l-1.2,9.5-1.8-.2.5-3.7-9.9-1.3.3-2.1,9.9,1.3.5-3.7,1.8.2h0Z"/>
          <path class="st9" d="M757.4,335.7c0-.7.3-1.3.6-1.8s.7-.9,1.1-1.2c.4-.3.9-.5,1.5-.7.6-.1,1.2-.1,1.8,0,.6,0,1.2.3,1.8.5.5.3,1,.6,1.3,1s.6.9.8,1.5.2,1.2,0,1.9-.3,1.3-.6,1.8-.7.9-1.1,1.2c-.4.3-.9.5-1.5.7-.6.1-1.2.1-1.8,0-.7,0-1.2-.3-1.8-.5-.5-.3-1-.6-1.3-1s-.6-.9-.8-1.5-.2-1.2,0-1.9ZM758.9,335.9c0,.4,0,.8,0,1.1,0,.3.3.6.6.8.3.2.6.4.9.6.3.1.7.2,1.1.3h1.1c.4,0,.7-.1,1-.3.3-.2.6-.4.8-.7.2-.3.4-.6.4-1.1s0-.8,0-1.1c0-.3-.3-.6-.6-.8-.3-.2-.6-.4-.9-.6-.3-.1-.7-.2-1.1-.3h-1.1c-.4,0-.7.1-1,.3-.3.2-.6.4-.8.7-.2.3-.4.6-.4,1h0Z"/>
          <path class="st9" d="M759,354.9c-.5,0-1-.2-1.5-.3s-.9-.4-1.2-.7c-.3-.3-.6-.7-.8-1.3-.2-.5-.2-1.2,0-2.1,0-.6.2-1.1.5-1.6.2-.4.6-.7.9-1,.4-.2.8-.4,1.3-.5h2.1l-.3,2.1h-.6c-.7-.2-1.2-.1-1.6,0-.4.2-.6.6-.7,1.2v.8c0,.2.2.4.4.6s.4.3.7.3.6.1,1,.2l8.1,1.1-.3,2.1-7.9-1h-.1Z"/>
          <path class="st9" d="M766.5,359.2l-.7,5.6c-.2,1.3-.6,2.2-1.2,2.8s-1.5.8-2.5.7c-.6,0-1-.2-1.4-.4-.3-.2-.6-.4-.8-.7-.2-.2-.3-.5-.4-.7,0-.2,0-.4,0-.5h0c0,.2,0,.3-.2.5,0,.2-.3.4-.5.5-.2.2-.5.3-.8.3h-1.2c-.7,0-1.3-.1-1.9,0-.6,0-1,.1-1.3.3l.3-2.2c.3-.1.6-.2.9-.2h2.3c.4,0,.7,0,1-.2.3-.1.5-.4.7-.6.2-.3.3-.7.3-1.1l.4-3-4.8-.6.3-2.1,11.7,1.5h-.1ZM760.9,360.7l-.4,3.4c0,.7,0,1.2.3,1.6s.7.6,1.3.7h.9c.2,0,.5-.2.6-.4.2-.2.3-.4.3-.6s0-.5.2-.8l.4-3.3-3.7-.5h.1Z"/>
          <path class="st9" d="M764.2,376.9l-.3,2.1-6.8-.9h-1.2c-.4,0-.8,0-1.1.2-.3.1-.6.4-.9.7s-.4.8-.5,1.5c0,.7,0,1.2,0,1.6s.4.7.7.9c.3.2.6.4,1,.5.4,0,.8.2,1.2.2l6.8.9-.3,2.1-7.5-1c-.8,0-1.4-.3-1.9-.6s-1-.7-1.3-1.2-.5-1-.6-1.6,0-1.3,0-2c0-.7.3-1.4.5-1.9.3-.6.6-1,1-1.4s.9-.6,1.5-.8c.6-.2,1.3-.2,2,0l7.5,1v-.3Z"/>
          <path class="st9" d="M762.7,388.6l-1.2,9.5-1.8-.2.5-3.7-9.9-1.3.3-2.1,9.9,1.3.5-3.7,1.8.2h0Z"/>
          <path class="st9" d="M753.2,400.6h-1.2c-.3.1-.6.3-.9.5-.2.2-.4.5-.6.9,0,.3-.2.7-.3,1.1v1.2c0,.3.2.6.3.8,0,.2.3.4.5.5s.4.2.6.2c.4,0,.8,0,1-.2s.4-.4.5-.6c.2-.4.4-.9.6-1.4.2-.5.5-1.2.8-2,.2-.5.4-.9.7-1.2.3-.3.5-.5.8-.7s.6-.3.9-.3h.9c.6,0,1.1.3,1.5.6.4.3.7.7.9,1.1s.4.9.5,1.5v1.6c0,.6-.2,1.2-.5,1.7-.2.5-.5,1-.9,1.3-.4.4-.8.6-1.3.8-.5.2-1.1.2-1.7.1l.3-2.1c.8,0,1.3-.1,1.7-.6.4-.4.6-1,.7-1.7v-.7c0-.2,0-.5-.2-.7s-.2-.4-.4-.6-.4-.3-.7-.3-.8,0-1,.3c-.3.2-.5.5-.7.9,0,0,0,.2-.2.5,0,.3-.3.6-.4,1,0,.4-.3.7-.4,1.1s-.2.6-.3.7c-.2.4-.4.7-.6.9-.2.3-.5.5-.8.6-.3.2-.6.3-.9.3h-.9c-.7,0-1.2-.3-1.6-.6s-.8-.7-1-1.2-.4-1-.5-1.6v-1.7c0-.7.3-1.3.5-1.9s.6-1.1,1-1.4c.4-.4.9-.7,1.4-.9.6-.2,1.2-.2,1.9-.2l-.3,2.1.3.3Z"/>
          <path class="st9" d="M759.7,411.6l-.3,2.1-6.8-.9h-1.2c-.4,0-.8,0-1.1.2-.3.1-.6.4-.9.7-.3.3-.4.8-.5,1.5,0,.7,0,1.2,0,1.6.2.4.4.7.7.9s.6.4,1,.5c.4,0,.8.2,1.2.2l6.8.9-.3,2.1-7.5-1c-.8,0-1.4-.3-1.9-.6-.5-.3-1-.7-1.3-1.2s-.5-1-.6-1.6,0-1.3,0-2c0-.7.3-1.4.5-1.9.3-.6.6-1,1-1.4s.9-.6,1.5-.8c.6-.2,1.3-.2,2,0l7.5,1v-.3Z"/>
          <path class="st9" d="M758,424.3l-.3,2.2-9.3,4.2h0l8.6,1.2-.3,2-11.7-1.5.3-2.2,9.3-4.2h0l-8.6-1.2.3-2,11.7,1.5Z"/>
          <path class="st9" d="M756,442.1c0,.9-.4,1.6-.8,2.3s-.9,1.2-1.6,1.6c-.6.4-1.3.7-2.1.9s-1.6.2-2.4,0c-.8-.1-1.6-.3-2.3-.7-.7-.4-1.3-.8-1.8-1.4s-.9-1.2-1.1-1.9c-.2-.7-.3-1.5-.2-2.4s.4-1.6.8-2.3c.4-.7.9-1.2,1.6-1.6.6-.4,1.3-.7,2.1-.9.8-.2,1.6-.2,2.4,0,.8.1,1.6.3,2.3.7.7.4,1.3.8,1.8,1.4s.9,1.2,1.1,1.9.3,1.5.2,2.4ZM754.3,441.8c0-.6,0-1.2-.2-1.7s-.5-.9-.9-1.2-.8-.6-1.4-.8c-.5-.2-1.1-.3-1.6-.4h-1.7c-.6,0-1.1.2-1.5.4-.5.2-.8.6-1.2,1-.3.4-.5.9-.6,1.6,0,.6,0,1.2.2,1.7s.5.9.9,1.2c.4.3.8.6,1.4.8.5.2,1.1.3,1.6.4h1.7c.6,0,1.1-.2,1.5-.4s.8-.6,1.2-1c.3-.4.5-.9.6-1.6Z"/>
          <path class="st9" d="M754.6,450.3l-.4,2.9-9.6,2h0l8.8,4.4-.4,2.9-11.7-1.5.3-2,9,1.2h0l-8.6-4.5.2-1.7,9.5-2.1h0l-9-1.2.3-2,11.7,1.5h0Z"/>
          <path class="st9" d="M752.6,465.7l-.3,2.1-11.7-1.5.3-2.1,11.7,1.5Z"/>
          <path class="st9" d="M744.4,473.2l7.7-3.5-.3,2.4-5.7,2.4,4.9,3.7-.3,2.3-6.6-5.3-4.6-.6.3-2.1,4.6.6h0Z"/>
          <path class="st9" d="M750,485.7l-.3,2.2-12.3,3,.3-2.2,3.2-.7.6-4.7-3-1.5.3-2.1,11.1,6h.1ZM743,484.1l-.5,3.6,5.3-1.1h0l-4.8-2.5Z"/>
          <path class="st9" d="M740.2,500.1h-1.2c-.3.1-.6.3-.9.5-.2.2-.4.5-.6.9s-.2.7-.3,1.1v1.2c0,.3.2.6.3.8,0,.2.3.4.5.5s.4.2.6.2c.4,0,.8,0,1-.2s.4-.4.5-.6c.2-.4.4-.9.6-1.4.2-.5.5-1.2.8-2,.2-.5.4-.9.7-1.2.3-.3.5-.5.8-.7s.6-.3.9-.3h.9c.6,0,1.1.3,1.5.6.4.3.7.7.9,1.1s.4.9.5,1.5v1.6c0,.6-.2,1.2-.5,1.7-.2.5-.5,1-.9,1.3-.4.4-.8.6-1.3.8-.5.2-1.1.2-1.7.1l.3-2.1c.8,0,1.3-.1,1.7-.6.4-.4.6-1,.7-1.7v-.7c0-.3,0-.5-.2-.7,0-.2-.2-.4-.4-.6s-.4-.3-.7-.3-.8,0-1,.3c-.3.2-.5.5-.7.9,0,0,0,.2-.2.5,0,.3-.3.6-.4,1,0,.4-.3.7-.4,1.1,0,.3-.2.6-.3.7-.2.4-.4.7-.6.9s-.5.5-.8.6-.6.3-.9.3h-.9c-.7,0-1.2-.3-1.6-.6-.4-.3-.8-.7-1-1.2s-.4-1-.5-1.6v-1.7c0-.7.3-1.3.5-1.9s.6-1.1,1-1.4c.4-.4.9-.7,1.4-.9.6-.2,1.2-.2,1.9-.2l-.3,2.1.3.3Z"/>
          <path class="st9" d="M743.6,509.7l-.2,1.4,2.5.3-.2,1.9-2.5-.3-.2,1.7-1.4-.2.2-1.7-4.5-.6h-.9c0,0-.2.1-.3.2,0,.1,0,.3,0,.5v.8l-1.4-.2v-1.2c0-.5.2-.9.3-1.2,0-.3.3-.5.5-.7.2-.1.4-.2.7-.3h1l5,.7.2-1.4,1.4.2h0Z"/>
          <path class="st9" d="M735.1,523h-.5c0,0-.2.2-.2.3v.5l-1.3-.2v-1.2c0-.4.2-.7.4-.9s.5-.4.9-.4c-.3-.4-.5-.9-.6-1.5,0-.6,0-1.1,0-1.6,0-.4,0-.7.3-1.1,0-.3.3-.6.6-.9.2-.2.5-.4.9-.5.3,0,.7-.2,1.1,0,.5,0,.9.2,1.2.5.3.2.5.5.7.9,0,.3.2.7.3,1.1v3c0,.2,0,.4.2.6,0,.2.3.2.6.3h.6c.2,0,.3-.2.4-.4,0-.2.2-.3.2-.5s0-.4,0-.6c0-.5,0-1-.2-1.3s-.5-.6-.9-.7l.2-1.9c.5,0,1,.3,1.3.6s.6.6.8,1,.3.8.3,1.3v1.4c0,.4-.2.8-.3,1.2s-.3.7-.6,1-.5.5-.9.7c-.3.2-.7.2-1.2,0l-4.4-.6v-.2ZM737.7,521.5c0-.3-.2-.7-.2-1.1v-1.9c0-.2,0-.4-.2-.5,0-.2-.2-.3-.4-.4-.2,0-.4-.2-.6-.2s-.4,0-.5,0c-.2,0-.3.2-.4.4,0,.2-.2.3-.2.5s0,.4,0,.5v.7c0,.2,0,.5.2.7s.2.4.4.6c.2.2.4.3.7.3l1.4.2h-.1Z"/>
          <path class="st9" d="M735.1,526l-.3,2.3-2.2-.3.3-2.3,2.2.3Z"/>
        </g>
        <polygon class="st10" points="549.7 175.8 400.6 123.1 406.8 105.8 555.9 158.3 549.7 175.8"/>
        <g>
          <path class="st9" d="M409.7,110.6l1.9.7-4,11.1-1.9-.7,4-11.1Z"/>
          <path class="st9" d="M413.7,112l2,.7-1,9.2h0l5.3-7.7,2,.7-.9,9.3h0l5.1-7.8,2,.7-7.1,10-2-.7.8-9.3h0l-5.3,7.7-2-.7,1-12.2h.1Z"/>
          <path class="st9" d="M433.2,119l2.1.7.3,12.7-2.1-.7v-3.3l-4.4-1.6-2.1,2.6-2-.7,8.3-9.6h0ZM430.2,125.5l3.4,1.2v-5.4h0s-3.4,4.2-3.4,4.2Z"/>
          <path class="st9" d="M441.1,121.9l8.5,3-.5,1.5-9.3,5.6,6.6,2.4-.6,1.7-9.1-3.3.6-1.6,9.3-5.5-6-2.1.6-1.7h-.1Z"/>
          <path class="st9" d="M456.9,127.2c.8.3,1.5.7,2.1,1.3s1,1.2,1.2,1.9c.3.7.4,1.4.4,2.2s-.2,1.6-.4,2.4c-.3.8-.7,1.5-1.2,2.1s-1.1,1.1-1.7,1.5-1.4.6-2.1.7-1.6,0-2.4-.3-1.5-.7-2.1-1.3c-.6-.5-1-1.2-1.2-1.9-.3-.7-.4-1.4-.4-2.2s.2-1.6.4-2.4c.3-.8.7-1.5,1.2-2.1s1.1-1.1,1.7-1.5,1.4-.6,2.1-.7c.8,0,1.6,0,2.4.3ZM456.3,128.8c-.6-.2-1.1-.3-1.7-.2-.5,0-1,.3-1.4.6s-.8.7-1.1,1.1-.6,1-.8,1.5c-.2.5-.3,1.1-.4,1.6s0,1.1.1,1.6.4.9.7,1.3c.3.4.8.7,1.4.9s1.1.3,1.7.2c.5,0,1-.3,1.4-.6s.8-.7,1.1-1.1c.3-.5.6-1,.8-1.5s.3-1.1.4-1.6c0-.6,0-1.1-.1-1.6s-.4-.9-.7-1.3c-.3-.4-.8-.7-1.4-.9Z"/>
          <path class="st9" d="M469.7,132.1l2.1.7,2.1,10h0l2.9-8.2,1.9.7-4,11.1-2.1-.7-2.1-10h0l-2.9,8.2-1.9-.7,4-11.1Z"/>
          <path class="st9" d="M484.8,137.6l2.1.7.3,12.7-2.1-.7v-3.3l-4.4-1.6-2.1,2.6-2-.7,8.3-9.6h0ZM481.7,143.9l3.4,1.2v-5.4h0l-3.4,4.2Z"/>
          <path class="st9" d="M493,140.4l1.9.7-1.8,5.1,6.8-3.3,2.4.9-6,2.9,2.4,8.4-2.4-.9-1.7-6.6-2.2,1-1.3,3.7-1.9-.7,4-11.1h-.2Z"/>
          <path class="st9" d="M507.4,145.6l2.1.7.3,12.7-2.1-.7v-3.3l-4.4-1.6-2.1,2.6-2-.7,8.3-9.6h0ZM504.3,152.1l3.4,1.2v-5.4h0l-3.4,4.2Z"/>
          <path class="st9" d="M519.4,158.2c-.2.4-.2.8-.2,1.2s.2.7.3,1c.2.3.4.5.7.7s.7.4,1.1.5c.4.2.8.2,1.1.2s.6,0,.9-.1c.2,0,.4-.2.6-.4.2-.2.3-.4.3-.6.2-.4.2-.8,0-1,0-.3-.3-.5-.5-.7-.3-.3-.8-.6-1.2-.9-.5-.3-1.1-.7-1.8-1.2-.4-.3-.8-.6-1-.9-.2-.3-.4-.6-.5-.9,0-.3,0-.6,0-.9s0-.6.2-.9c.2-.6.5-1,.9-1.3s.8-.6,1.3-.7,1-.2,1.5-.1c.5,0,1.1.2,1.5.3.6.2,1.1.5,1.6.8s.8.7,1.1,1.2.5.9.5,1.4,0,1.1-.2,1.7l-1.9-.7c.2-.7,0-1.3-.2-1.8s-.8-.8-1.5-1c-.2,0-.5-.1-.7-.2h-.7c-.2,0-.5.1-.7.3s-.3.4-.4.6c0,.4,0,.7,0,1.1.2.3.4.6.8.8,0,0,.2.1.4.3.3.2.5.4.9.6.3.2.6.4.9.6.3.2.5.4.7.5.3.2.6.5.8.8s.3.6.4.9,0,.6,0,1,0,.6-.2.9c-.2.6-.5,1.1-1,1.5-.4.4-.9.6-1.4.7-.5.1-1.1.2-1.6.1s-1.1-.2-1.7-.4c-.6-.2-1.2-.5-1.7-.9s-.9-.8-1.2-1.2c-.3-.5-.5-1-.6-1.6,0-.6,0-1.2.2-1.9l1.9.7h.3Z"/>
          <path class="st9" d="M530.5,153.8l9,3.2-.6,1.7-3.5-1.3-3.4,9.4-1.9-.7,3.4-9.4-3.5-1.3.6-1.7h0Z"/>
          <path class="st9" d="M538.3,166.8l2.2.8-.8,2.1-2.2-.8.8-2.1Z"/>
        </g>
        <line class="st7" x1="797" y1="-10.3" x2="717.3" y2="562.7"/>
        <g>
          <line class="st6" x1="797" y1="-10.3" x2="796.2" y2="-5.1"/>
          <line class="st3" x1="795.9" y1="-2.5" x2="718.2" y2="556.2"/>
          <line class="st6" x1="718" y1="557.5" x2="717.3" y2="562.7"/>
        </g>
        <polygon class="st10" points="619.8 300.9 629.8 270.2 647.9 273.8 637.9 304.7 619.8 300.9"/>
        <g>
          <path class="st9" d="M680.3,153.4l-2.8,9.2-1.7-.5,1.1-3.6-9.6-2.9.6-2,9.6,2.9,1.1-3.6,1.7.5h0Z"/>
          <path class="st9" d="M675.7,169.6c-.3.8-.6,1.6-1.2,2.1s-1.1,1-1.8,1.3-1.4.5-2.2.5-1.6,0-2.4-.3c-.8-.2-1.5-.6-2.2-1.1-.6-.5-1.2-1-1.6-1.6-.4-.6-.7-1.3-.8-2.1s0-1.6.2-2.4c.3-.8.6-1.6,1.2-2.1.5-.6,1.1-1,1.8-1.3s1.4-.5,2.2-.5,1.6,0,2.4.3c.8.2,1.5.6,2.2,1.1.6.5,1.2,1,1.6,1.6.4.6.7,1.3.8,2.1s0,1.6-.2,2.4ZM674.1,169.1c.2-.6.2-1.2,0-1.7,0-.5-.3-1-.7-1.4-.3-.4-.7-.7-1.2-1s-1-.5-1.5-.7-1.1-.3-1.6-.3-1.1,0-1.6.2-.9.4-1.3.8c-.4.4-.7.8-.8,1.5-.2.6-.2,1.2,0,1.7,0,.5.3,1,.7,1.4s.7.7,1.2,1,1,.5,1.5.7,1.1.3,1.6.3,1.1,0,1.6-.2.9-.4,1.3-.8c.4-.4.7-.8.8-1.5Z"/>
          <path class="st9" d="M665.3,178.4l8.2-2.2-.7,2.3-6,1.5,4.2,4.5-.7,2.2-5.6-6.3-4.4-1.3.6-2,4.4,1.3Z"/>
          <path class="st9" d="M668.5,193.4c-.3.8-.6,1.6-1.2,2.1-.5.6-1.1,1-1.8,1.3s-1.4.5-2.2.5-1.6,0-2.4-.3c-.8-.2-1.5-.6-2.2-1.1-.6-.5-1.2-1-1.6-1.6-.4-.6-.7-1.3-.8-2.1s0-1.6.2-2.4c.3-.8.6-1.6,1.2-2.1.5-.6,1.1-1,1.8-1.3s1.4-.5,2.2-.5,1.6,0,2.4.3c.8.2,1.5.6,2.2,1.1.6.5,1.2,1,1.6,1.6.4.6.7,1.3.8,2.1s0,1.6-.2,2.4ZM666.9,193.1c.2-.6.2-1.2,0-1.7,0-.5-.3-1-.6-1.4s-.7-.7-1.2-1-1-.5-1.5-.7-1.1-.3-1.6-.3-1.1,0-1.6.2-.9.4-1.3.8c-.4.4-.7.8-.8,1.5-.2.6-.2,1.2,0,1.7,0,.5.3,1,.6,1.4s.7.7,1.2,1,1,.5,1.5.7,1.1.3,1.6.3,1.1,0,1.6-.2.9-.4,1.3-.8c.4-.4.7-.8.8-1.5Z"/>
          <path class="st9" d="M657.9,200.4c-.4-.1-.8-.2-1.2-.1-.4,0-.7.2-.9.4-.3.2-.5.5-.7.8s-.4.7-.5,1.1c0,.4-.2.8-.2,1.2s0,.6.2.9c0,.2.2.4.4.6.2.1.4.3.6.3.4.1.8.1,1,0,.3-.1.5-.3.6-.5.3-.4.6-.8.8-1.3.3-.5.7-1.1,1.1-1.8.3-.4.6-.8.9-1.1.3-.3.6-.4.9-.6.3-.1.6-.2.9-.2s.6,0,.9.1c.6.2,1,.4,1.4.8.3.4.6.8.8,1.3s.2,1,.2,1.5,0,1.1-.3,1.6c-.2.6-.4,1.1-.7,1.6s-.7.9-1.1,1.2c-.4.3-.9.5-1.4.6-.5,0-1.1,0-1.7-.1l.6-2c.7.2,1.3,0,1.8-.3.4-.4.8-.9,1-1.6,0-.2,0-.5,0-.7v-.7c0-.2-.2-.4-.3-.6-.2-.2-.4-.3-.7-.4-.4-.1-.8,0-1.1,0-.3.2-.6.5-.8.8,0,0,0,.2-.3.5s-.4.6-.6.9c-.2.3-.4.7-.6,1-.2.3-.3.5-.4.7-.2.3-.5.6-.8.8s-.6.4-.9.5c-.3.1-.6.2-1,.2s-.6,0-.9-.1c-.6-.2-1.1-.5-1.5-.9s-.6-.8-.8-1.4c-.2-.5-.2-1.1-.2-1.6s0-1.1.3-1.7c.2-.6.5-1.2.8-1.8.3-.5.7-.9,1.2-1.3.5-.3,1-.5,1.6-.6.6,0,1.2,0,1.9.2l-.6,2,.2-.2Z"/>
          <path class="st9" d="M661.5,215.6l-.6,2.1-12.6.9.6-2.1,3.3-.2,1.4-4.5-2.7-2,.6-2,10,7.8ZM654.9,212.8l-1,3.5,5.4-.2h0l-4.3-3.2h-.1Z"/>
          <path class="st9" d="M659.3,222.8l-2.8,9.2-1.7-.5,1.1-3.6-9.6-2.9.6-2,9.6,2.9,1.1-3.6,1.7.5h0Z"/>
          <path class="st9" d="M654.7,238.9c-.3.8-.6,1.6-1.2,2.1-.5.6-1.1,1-1.8,1.3s-1.4.5-2.2.5-1.6,0-2.4-.3c-.8-.2-1.5-.6-2.2-1.1-.6-.5-1.2-1-1.6-1.6-.4-.6-.7-1.3-.8-2.1s0-1.6.2-2.4c.3-.8.6-1.6,1.2-2.1.5-.6,1.1-1,1.8-1.3s1.4-.5,2.2-.5,1.6,0,2.4.3c.8.2,1.5.6,2.2,1.1.6.5,1.2,1,1.6,1.6.4.6.7,1.3.8,2.1s0,1.6-.2,2.4ZM653.1,238.4c.2-.6.2-1.2,0-1.7,0-.5-.3-1-.6-1.4s-.7-.7-1.2-1-1-.5-1.5-.7-1.1-.3-1.6-.3-1.1,0-1.6.2-.9.4-1.3.8c-.4.4-.7.8-.8,1.4-.2.6-.2,1.2,0,1.7,0,.5.3,1,.6,1.4s.7.7,1.2,1,1,.5,1.5.7,1.1.3,1.6.3,1.1,0,1.6-.2.9-.4,1.3-.8c.4-.4.7-.8.8-1.5h0Z"/>
          <path class="st9" d="M650.5,252.1l-1.4,4.7c-.3.9-.6,1.6-1.1,2.1s-1,.9-1.7,1.2-1.3.4-2.1.4-1.5-.1-2.3-.4c-.8-.2-1.5-.6-2.1-1s-1.1-.9-1.5-1.4-.6-1.2-.7-1.9c0-.7,0-1.5.2-2.4l1.4-4.7,11.3,3.4h0ZM640.2,251.1l-.6,1.9c-.2.8-.3,1.4-.3,2s.2,1,.5,1.4c.3.4.6.7,1.1,1,.5.2,1,.5,1.5.6.6.2,1.1.3,1.6.3s1,0,1.5-.2c.4-.2.9-.5,1.2-.9.4-.4.6-1,.9-1.8l.6-1.9-8.1-2.4h0Z"/>
          <path class="st9" d="M646.8,264.3l-2.5,8.1-1.7-.5,1.9-6.2-3-.9-1.7,5.7-1.6-.5,1.7-5.7-3.3-1-1.9,6.3-1.7-.5,2.5-8.3,11.3,3.4h0Z"/>
          <path class="st9" d="M643.5,274.9l-.6,2.1-9.9,2.6h0l8.3,2.6-.6,1.9-11.3-3.4.6-2.1,9.9-2.6h0l-8.3-2.6.6-1.9,11.3,3.4Z"/>
          <path class="st9" d="M639.8,287.3l-2.5,8.1-1.7-.5,1.9-6.2-3-.9-1.7,5.7-1.6-.5,1.7-5.7-3.3-1-1.9,6.3-1.7-.5,2.5-8.3,11.3,3.4h0Z"/>
          <path class="st9" d="M636.6,298.1l-.6,2.1-9.9,2.6h0l8.3,2.6-.6,1.9-11.3-3.4.6-2.1,9.9-2.6h0l-8.3-2.6.6-1.9,11.3,3.4Z"/>
        </g>
      </g>
    </g>
    <g>
      <rect class="st9" x="0" y="446.7" width="277.3" height="104.9"/>
      <g>
        <path class="st12" d="M72.9,491.4c0,1.9-.5,3.2-1.6,4.1-1,.9-2.5,1.4-4.5,1.4s-1.2,0-1.9-.2-1.2-.3-1.7-.6c-.5-.3-.9-.7-1.3-1.2s-.6-1.1-.6-1.8h2.7c0,.4.2.7.4.9.2.2.4.4.7.6.3.1.6.2.9.3h1c1.1,0,1.9-.3,2.4-.8s.8-1.3.8-2.3v-1.9h0c-.4.7-.9,1.2-1.6,1.6s-1.4.6-2.1.6-1.8-.2-2.5-.5c-.7-.3-1.3-.8-1.7-1.4-.5-.6-.8-1.3-1-2.1s-.3-1.6-.3-2.5,0-1.6.4-2.4c.3-.7.6-1.4,1.1-2s1.1-1,1.7-1.3c.7-.3,1.5-.5,2.3-.5s1.5.2,2.1.5,1.1.8,1.5,1.5h0v-1.7h2.7v11.6h0ZM66.9,489.9c.6,0,1.1-.1,1.5-.4s.8-.6,1-1c.3-.4.5-.9.6-1.4s.2-1,.2-1.6,0-1-.2-1.5c0-.5-.3-.9-.6-1.3-.3-.4-.6-.7-1-.9-.4-.2-.9-.3-1.5-.3s-1.1.1-1.5.4-.7.6-1,1-.4.9-.5,1.4-.2,1-.2,1.5,0,1,.2,1.5c0,.5.3.9.6,1.3.3.4.6.7,1,.9.4.2.9.4,1.5.4h0Z"/>
        <path class="st12" d="M84.2,492.4c-1,0-1.9-.2-2.6-.5-.8-.3-1.4-.8-1.9-1.3-.5-.6-.9-1.3-1.2-2s-.4-1.7-.4-2.6,0-1.8.4-2.6.7-1.5,1.2-2c.5-.6,1.2-1,1.9-1.3s1.6-.5,2.6-.5,1.9.2,2.6.5c.8.3,1.4.8,1.9,1.3s.9,1.3,1.2,2c.3.8.4,1.7.4,2.6s0,1.8-.4,2.6c-.3.8-.7,1.5-1.2,2s-1.2,1-1.9,1.3c-.8.3-1.6.5-2.6.5ZM84.2,490.2c.6,0,1.1-.1,1.6-.4.4-.3.8-.6,1.1-1s.5-.9.6-1.4.2-1,.2-1.6,0-1-.2-1.6c0-.5-.3-1-.6-1.4s-.6-.7-1.1-1c-.4-.3-1-.4-1.6-.4s-1.1.1-1.6.4c-.4.3-.8.6-1.1,1s-.5.9-.6,1.4-.2,1-.2,1.6,0,1.1.2,1.6c0,.5.3,1,.6,1.4s.6.7,1.1,1c.4.3,1,.4,1.6.4Z"/>
        <path class="st12" d="M101.1,492.4c-1,0-1.9-.2-2.6-.5-.8-.3-1.4-.8-1.9-1.3-.5-.6-.9-1.3-1.2-2s-.4-1.7-.4-2.6,0-1.8.4-2.6.7-1.5,1.2-2c.5-.6,1.2-1,1.9-1.3s1.6-.5,2.6-.5,1.9.2,2.6.5c.8.3,1.4.8,1.9,1.3s.9,1.3,1.2,2c.3.8.4,1.7.4,2.6s0,1.8-.4,2.6c-.3.8-.7,1.5-1.2,2s-1.2,1-1.9,1.3c-.8.3-1.6.5-2.6.5ZM101.1,490.2c.6,0,1.1-.1,1.6-.4.4-.3.8-.6,1.1-1s.5-.9.6-1.4.2-1,.2-1.6,0-1-.2-1.6c0-.5-.3-1-.6-1.4s-.6-.7-1.1-1c-.4-.3-1-.4-1.6-.4s-1.1.1-1.6.4c-.4.3-.8.6-1.1,1s-.5.9-.6,1.4-.2,1-.2,1.6,0,1.1.2,1.6c0,.5.3,1,.6,1.4s.6.7,1.1,1c.4.3,1,.4,1.6.4Z"/>
        <path class="st12" d="M123.8,491.4c0,1.9-.5,3.2-1.6,4.1-1,.9-2.5,1.4-4.5,1.4s-1.2,0-1.9-.2-1.2-.3-1.7-.6c-.5-.3-.9-.7-1.3-1.2s-.6-1.1-.6-1.8h2.7c0,.4.2.7.4.9.2.2.4.4.7.6.3.1.6.2.9.3h1c1.1,0,1.9-.3,2.4-.8s.8-1.3.8-2.3v-1.9h0c-.4.7-.9,1.2-1.6,1.6s-1.4.6-2.1.6-1.8-.2-2.5-.5-1.3-.8-1.7-1.4c-.5-.6-.8-1.3-1-2.1s-.3-1.6-.3-2.5,0-1.6.4-2.4c.3-.7.6-1.4,1.1-2s1.1-1,1.7-1.3c.7-.3,1.5-.5,2.3-.5s1.5.2,2.1.5,1.1.8,1.5,1.5h0v-1.7h2.7v11.6h0ZM117.8,489.9c.6,0,1.1-.1,1.5-.4s.8-.6,1-1c.3-.4.5-.9.6-1.4s.2-1,.2-1.6,0-1-.2-1.5c0-.5-.3-.9-.6-1.3-.3-.4-.6-.7-1-.9-.4-.2-.9-.3-1.5-.3s-1.1.1-1.5.4-.7.6-1,1-.4.9-.5,1.4-.2,1-.2,1.5,0,1,.2,1.5c0,.5.3.9.6,1.3.3.4.6.7,1,.9.4.2.9.4,1.5.4h0Z"/>
        <path class="st12" d="M129.4,475.2h2.7v17h-2.7v-17Z"/>
        <path class="st12" d="M140.1,486.7c0,.5,0,.9.2,1.4.1.4.3.8.6,1.2.3.3.6.6,1,.8.4.2.9.3,1.5.3s1.4-.2,1.9-.5.8-.9,1.1-1.5h2.6c-.1.7-.4,1.3-.7,1.8s-.8,1-1.3,1.3-1,.6-1.7.8-1.2.3-1.9.3c-1,0-1.8-.2-2.6-.5-.7-.3-1.4-.8-1.9-1.3-.5-.6-.9-1.3-1.2-2-.3-.8-.4-1.7-.4-2.6s.1-1.7.4-2.5c.3-.8.7-1.5,1.2-2.1s1.1-1.1,1.9-1.4c.7-.3,1.6-.5,2.5-.5s1.8.2,2.6.6,1.4.9,1.9,1.6.9,1.4,1.1,2.3c.2.9.3,1.8.2,2.7h-9v-.2ZM146.4,484.8c0-.4-.1-.8-.3-1.2-.2-.4-.4-.7-.6-1-.3-.3-.6-.5-1-.7s-.8-.3-1.2-.3-.9,0-1.3.2c-.4.2-.7.4-1,.7-.3.3-.5.6-.7,1s-.3.8-.3,1.3h6.4Z"/>
        <path class="st12" d="M163.5,479.8h2.6v1.7h0c.2-.3.4-.6.7-.8.2-.3.5-.5.8-.6.3-.2.6-.3,1-.4s.8-.2,1.3-.2,1.4.2,2.1.5c.6.3,1.1.8,1.4,1.5.5-.6,1-1.1,1.6-1.5s1.4-.5,2.3-.5c1.3,0,2.3.3,3,1,.7.6,1.1,1.7,1.1,3.2v8.5h-2.7v-8.5c0-.4-.1-.8-.3-1-.2-.3-.4-.5-.7-.7s-.7-.2-1.2-.2c-.9,0-1.6.3-2,.9s-.6,1.4-.6,2.4v7.2h-2.7v-7.9c0-.9-.2-1.5-.5-1.9s-.9-.7-1.7-.7-.7,0-1,.2-.6.3-.9.6-.4.6-.6,1c-.2.4-.2.8-.2,1.4v7.3h-2.7v-12.5Z"/>
        <path class="st12" d="M197.3,489.3c0,.3,0,.6.1.7,0,.1.3.2.5.2h.7v1.9s-.2,0-.4.1c-.2,0-.3,0-.5.1h-.9c-.6,0-1-.1-1.4-.3-.4-.2-.6-.6-.7-1.2-.5.5-1.2.9-2,1.1s-1.5.4-2.3.4-1.1,0-1.6-.2-1-.4-1.3-.7c-.4-.3-.7-.7-.9-1.1-.2-.5-.3-1-.3-1.6s.1-1.4.4-1.9.6-.8,1.1-1.1c.5-.3,1-.5,1.5-.6.6-.1,1.1-.2,1.7-.3.5,0,1-.2,1.4-.2s.8-.1,1.2-.2c.3,0,.6-.2.8-.4.2-.2.3-.5.3-.9s0-.6-.2-.9-.4-.4-.6-.5c-.2-.1-.5-.2-.8-.2h-.9c-.8,0-1.4.2-1.9.5s-.8.8-.8,1.5h-2.7c0-.8.2-1.4.6-2,.3-.5.8-.9,1.3-1.3.5-.3,1.1-.5,1.7-.7.6-.1,1.3-.2,2-.2s1.2,0,1.8.2c.6.1,1.1.3,1.6.6s.8.7,1.1,1.1c.3.5.4,1,.4,1.7v6.3h0ZM194.6,485.9c-.4.3-.9.4-1.5.5-.6,0-1.2.1-1.8.2-.3,0-.6.1-.8.2-.3,0-.5.2-.7.4-.2.2-.4.3-.5.6-.1.2-.2.5-.2.9s0,.6.3.8c.2.2.4.4.6.5.2.1.5.2.8.2h.8c.2,0,.6,0,1-.1.3,0,.7-.2,1-.4.3-.2.6-.4.8-.7.2-.3.3-.7.3-1.1v-2h-.1Z"/>
        <path class="st12" d="M203.1,479.8h2.6v1.7h0c.4-.7.9-1.2,1.6-1.5.7-.3,1.4-.5,2.2-.5s1.8.2,2.5.5,1.3.8,1.8,1.4.8,1.3,1.1,2.1c.2.8.4,1.6.4,2.5s-.1,1.6-.3,2.4-.5,1.5-1,2.1c-.4.6-1,1.1-1.7,1.4-.7.4-1.4.5-2.4.5s-.8,0-1.2-.1c-.4,0-.8-.2-1.1-.3-.4-.2-.7-.4-1-.6s-.6-.5-.8-.9h0v6.1h-2.7v-16.8h0ZM212.6,485.9c0-.6,0-1.1-.2-1.6s-.4-1-.6-1.4c-.3-.4-.6-.7-1.1-1s-.9-.4-1.5-.4c-1.1,0-2,.4-2.6,1.2-.6.8-.9,1.8-.9,3.2s0,1.2.2,1.7.4,1,.7,1.4.7.7,1.1.9c.4.2.9.3,1.5.3s1.1-.1,1.6-.4c.4-.3.8-.6,1.1-1s.5-.9.6-1.4.2-1,.2-1.6h-.1Z"/>
      </g>
      <line class="st2" x1="229.5" y1="520.2" x2="45.8" y2="520.2"/>
    </g>
    <line class="st4" x1="318.5" y1="92.1" x2="282.1" y2="92.1"/>
    <g>
      <rect class="st9" x="21.5" y="61.4" width="269.5" height="126.3"/>
      <g>
        <path class="st12" d="M44.5,88.6l-6-9.7h3.2l4.2,7.2,4.2-7.2h3.1l-6,9.7v6.3h-2.8v-6.3h0Z"/>
        <path class="st12" d="M60.5,78.9h3l6.2,16h-3l-1.5-4.2h-6.4l-1.5,4.2h-2.9s6.1-16,6.1-16ZM59.5,88.5h4.9l-2.4-6.9h0l-2.4,6.9h0Z"/>
        <path class="st12" d="M74.2,78.9h3.9l4.4,12.5h0l4.3-12.5h3.9v16h-2.7v-12.3h0l-4.4,12.3h-2.3l-4.4-12.3h0v12.3h-2.7s0-16,0-16Z"/>
        <path class="st12" d="M104.1,78.5c1.2,0,2.3.2,3.2.7.9.4,1.7,1.1,2.4,1.8.7.8,1.2,1.6,1.5,2.7s.5,2.1.5,3.2-.2,2.2-.5,3.2c-.4,1-.9,1.9-1.5,2.7-.7.8-1.5,1.4-2.4,1.8s-2,.7-3.2.7-2.3-.2-3.2-.7-1.7-1-2.4-1.8c-.7-.8-1.2-1.6-1.5-2.7-.4-1-.5-2.1-.5-3.2s.2-2.2.5-3.2c.4-1,.9-1.9,1.5-2.7.7-.8,1.5-1.4,2.4-1.8s2-.7,3.2-.7ZM104.1,80.8c-.9,0-1.6.2-2.2.5s-1.1.8-1.5,1.4-.7,1.2-.9,2c-.2.7-.3,1.5-.3,2.2s0,1.5.3,2.2c.2.7.5,1.4.9,2s.9,1,1.5,1.4c.6.3,1.4.5,2.2.5s1.6-.2,2.2-.5,1.1-.8,1.5-1.4.7-1.2.9-2,.3-1.5.3-2.2,0-1.5-.3-2.2c-.2-.7-.5-1.4-.9-2s-.9-1-1.5-1.4c-.6-.3-1.4-.5-2.2-.5Z"/>
        <path class="st12" d="M117.4,78.9h7.6c1.8,0,3.1.4,4,1.1.9.8,1.3,1.8,1.3,3.2s-.1,1.4-.3,1.9-.5.9-.8,1.2c-.3.3-.6.5-.9.7s-.5.2-.6.3h0c.2,0,.5,0,.8.3.3,0,.5.3.8.6.2.3.4.6.6,1,.2.4.2.9.2,1.6s0,1.8.2,2.6c.1.8.4,1.3.7,1.6h-3c-.2-.3-.3-.7-.4-1.1v-1.2c0-.7,0-1.4,0-1.9s-.3-1-.5-1.3c-.2-.4-.6-.6-1-.8-.4-.2-.9-.2-1.6-.2h-4.1v6.6h-2.8v-16.2ZM120.2,86.2h4.6c.9,0,1.6-.2,2-.6.5-.4.7-1.1.7-1.9s0-.9-.2-1.2c0-.3-.4-.6-.6-.7-.3-.2-.6-.3-.9-.4h-5.5v5-.2Z"/>
        <path class="st12" d="M137.2,78.9h2.8v16h-2.8v-16Z"/>
        <path class="st12" d="M159.1,89.5c0,.6.1,1.1.3,1.6.2.4.5.8.9,1.1.4.3.8.5,1.3.6s1,.2,1.6.2,1.1,0,1.6-.2c.4,0,.8-.3,1.1-.5s.5-.5.6-.8.2-.6.2-.9c0-.6-.1-1.1-.4-1.4-.3-.3-.6-.5-.9-.6-.6-.2-1.2-.4-2-.6s-1.7-.4-2.8-.7c-.7-.2-1.3-.4-1.7-.7s-.8-.6-1.1-1-.5-.7-.6-1.1-.2-.8-.2-1.2c0-.8.2-1.5.5-2.1s.8-1.1,1.3-1.5c.6-.4,1.2-.7,1.9-.9.7-.2,1.4-.3,2.1-.3s1.6,0,2.4.3c.7.2,1.4.5,1.9,1s1,1,1.3,1.6.5,1.4.5,2.2h-2.8c0-1-.4-1.8-1.1-2.2-.6-.4-1.4-.6-2.4-.6s-.7,0-1,0c-.3,0-.7.2-.9.3-.3.2-.5.4-.7.6s-.3.6-.3,1,.2,1,.5,1.3.8.6,1.4.7c0,0,.3,0,.7.2.4,0,.9.2,1.4.4s1,.3,1.5.4.8.2,1,.3c.5.2,1,.4,1.4.7.4.3.7.6,1,1s.5.8.6,1.2c.1.4.2.8.2,1.3,0,.9-.2,1.7-.5,2.3-.4.6-.8,1.2-1.4,1.6s-1.3.7-2,.9c-.8.2-1.5.3-2.3.3s-1.8,0-2.6-.3c-.8-.2-1.5-.6-2.1-1-.6-.5-1.1-1.1-1.4-1.8-.4-.7-.5-1.6-.6-2.6h2.8l-.2-.2Z"/>
        <path class="st12" d="M172.5,78.9h12.9v2.4h-5.1v13.6h-2.8v-13.6h-5.1v-2.4h.1Z"/>
        <path class="st12" d="M195,88.6l-6-9.7h3.2l4.2,7.2,4.2-7.2h3.1l-6,9.7v6.3h-2.8v-6.3h.1Z"/>
        <path class="st12" d="M208.5,78.9h2.8v13.6h8.1v2.4h-10.9v-16h0Z"/>
        <path class="st12" d="M224,78.9h11.5v2.4h-8.7v4.2h8.1v2.3h-8.1v4.7h8.9v2.4h-11.7v-16Z"/>
        <path class="st12" d="M242.9,91.8h3.1v3h-3.1v-3Z"/>
        <path class="st12" d="M42.2,117.4c0,.6,0,1.1.3,1.6.2.4.5.8.9,1.1.4.3.8.5,1.3.6s1,.2,1.6.2,1.1,0,1.6-.2c.4,0,.8-.3,1.1-.5s.5-.5.6-.8.2-.6.2-.9c0-.6,0-1.1-.4-1.4-.3-.3-.6-.5-.9-.6-.6-.2-1.2-.4-2-.6s-1.7-.4-2.8-.7c-.7-.2-1.3-.4-1.7-.7s-.8-.6-1.1-1-.5-.7-.6-1.1-.2-.8-.2-1.2c0-.8.2-1.5.5-2.1s.8-1.1,1.3-1.5c.6-.4,1.2-.7,1.9-.9.7-.2,1.4-.3,2.1-.3s1.6,0,2.4.3c.7.2,1.4.5,1.9,1s1,1,1.3,1.6.5,1.4.5,2.2h-2.8c0-1-.4-1.8-1.1-2.2-.6-.4-1.4-.6-2.4-.6s-.7,0-1,0c-.3,0-.7.2-.9.3-.3.2-.5.4-.7.6s-.3.6-.3,1,.2,1,.5,1.3.8.6,1.4.7c0,0,.3,0,.7.2.4,0,.9.2,1.4.4s1,.3,1.5.4.8.2,1,.3c.5.2,1,.4,1.4.7.4.3.7.6,1,1s.5.8.6,1.2c0,.4.2.8.2,1.3,0,.9-.2,1.7-.5,2.3-.4.6-.8,1.2-1.4,1.6s-1.3.7-2,.9c-.8.2-1.5.3-2.3.3s-1.8,0-2.6-.3c-.8-.2-1.5-.6-2.1-1-.6-.5-1.1-1.1-1.4-1.8-.4-.7-.5-1.6-.6-2.6h2.8l-.2-.2Z"/>
        <path class="st12" d="M61.8,106.8h3l6.2,16h-3l-1.5-4.2h-6.4l-1.5,4.2h-2.9s6.1-16,6.1-16ZM60.8,116.4h4.9l-2.4-6.9h0l-2.4,6.9h0Z"/>
        <path class="st12" d="M75.6,106.8h2.8v13.6h8.1v2.4h-10.9v-16Z"/>
        <path class="st12" d="M96.6,106.4c1.2,0,2.3.2,3.2.7.9.4,1.7,1.1,2.4,1.8.7.8,1.2,1.6,1.5,2.7s.5,2.1.5,3.2-.2,2.2-.5,3.2c-.4,1-.9,1.9-1.5,2.7-.7.8-1.5,1.4-2.4,1.8s-2,.7-3.2.7-2.3-.2-3.2-.7-1.7-1-2.4-1.8c-.7-.8-1.2-1.6-1.5-2.7-.4-1-.5-2.1-.5-3.2s.2-2.2.5-3.2c.4-1,.9-1.9,1.5-2.7.7-.8,1.5-1.4,2.4-1.8s2-.7,3.2-.7ZM96.6,108.6c-.9,0-1.6.2-2.2.5s-1.1.8-1.5,1.4-.7,1.2-.9,2c-.2.7-.3,1.5-.3,2.2s0,1.5.3,2.2c.2.7.5,1.4.9,2s.9,1,1.5,1.4c.6.3,1.4.5,2.2.5s1.6-.2,2.2-.5,1.1-.8,1.5-1.4.7-1.2.9-2,.3-1.5.3-2.2,0-1.5-.3-2.2c-.2-.7-.5-1.4-.9-2s-.9-1-1.5-1.4c-.6-.3-1.4-.5-2.2-.5Z"/>
        <path class="st12" d="M110.2,106.8h3l7.3,11.8h0v-11.8h2.7v16h-3l-7.3-11.7h0v11.7h-2.7v-16Z"/>
        <path class="st12" d="M145.7,120.9c-.6.7-1.3,1.3-2,1.6-.7.3-1.6.5-2.5.5s-1.4,0-2-.3c-.6-.2-1.2-.5-1.6-.9s-.8-.9-1-1.5-.4-1.3-.4-2,.1-1.1.3-1.5.5-.9.8-1.3.7-.7,1.2-1,.9-.6,1.4-.8c-.2-.3-.4-.5-.6-.8-.2-.3-.4-.5-.5-.8s-.3-.6-.4-.9c0-.3-.1-.6-.1-1,0-.6.1-1.1.3-1.6s.5-.9.8-1.2c.4-.3.8-.6,1.3-.8.5-.2,1-.3,1.5-.3s1,0,1.5.2.9.4,1.3.7c.4.3.7.7.9,1.2s.3,1,.3,1.7,0,.9-.2,1.3-.4.8-.6,1.1c-.3.3-.6.6-.9.9-.4.3-.7.5-1.1.7l2.5,3c0-.3.2-.5.3-.9,0-.3.2-.8.2-1.3h2.2c0,.7-.2,1.4-.4,2.1s-.5,1.3-.8,1.9l3.1,3.7h-3.1l-1.5-1.8h-.2ZM141.2,115.3c-.2,0-.5.3-.8.4s-.5.3-.8.6c-.2.2-.5.5-.6.8-.2.3-.3.7-.3,1.2,0,.9.2,1.5.7,2s1.1.7,1.8.7.9,0,1.2-.2c.3,0,.6-.3.8-.5s.4-.4.6-.6.3-.4.4-.6l-3.1-3.9h.1ZM142.3,108.3c-.5,0-.9.2-1.2.5s-.5.8-.5,1.3,0,.5.1.7c0,.2.2.5.4.7.1.2.3.4.5.6s.3.4.5.6c.2-.2.5-.3.7-.5s.4-.4.6-.6c.2-.2.3-.4.4-.7.1-.3.2-.5.2-.9s-.1-1-.4-1.3c-.3-.4-.7-.5-1.2-.5h-.1Z"/>
        <path class="st12" d="M173.7,122.8h-1.8l-.4-1.9c-.7.9-1.5,1.4-2.2,1.8s-1.6.5-2.6.5-2.3-.2-3.2-.7c-.9-.4-1.7-1-2.4-1.8s-1.2-1.6-1.5-2.7c-.4-1-.5-2.1-.5-3.2s.2-2.2.5-3.2c.4-1,.9-1.9,1.5-2.7.7-.8,1.5-1.4,2.4-1.8s2-.7,3.2-.7,1.7,0,2.5.3,1.5.6,2.1,1c.6.5,1.1,1,1.5,1.7s.7,1.5.8,2.4h-2.7c0-.5-.2-1-.5-1.4-.2-.4-.6-.7-.9-1s-.8-.5-1.3-.6-.9-.2-1.5-.2c-.9,0-1.6.2-2.2.5-.6.3-1.1.8-1.5,1.4s-.7,1.2-.9,2c-.2.7-.3,1.5-.3,2.2s0,1.5.3,2.2c.2.7.5,1.4.9,2s.9,1,1.5,1.4c.6.3,1.4.5,2.2.5s1.4,0,1.9-.3c.6-.2,1-.5,1.4-.9s.7-.8.9-1.4.3-1.2.3-1.8h-4.3v-2.1h6.8v8.4h0Z"/>
        <path class="st12" d="M183.7,106.8h3l6.2,16h-3l-1.5-4.2h-6.4l-1.5,4.2h-2.9l6.1-16h0ZM182.7,116.4h4.9l-2.4-6.9h0l-2.4,6.9h-.1Z"/>
        <path class="st12" d="M197.5,106.8h2.8v13.6h8.1v2.4h-10.9v-16h0Z"/>
        <path class="st12" d="M212.1,106.8h2.8v13.6h8.1v2.4h-10.9v-16h0Z"/>
        <path class="st12" d="M227.7,106.8h11.5v2.4h-8.7v4.2h8.1v2.3h-8.1v4.7h8.9v2.4h-11.7v-16Z"/>
        <path class="st12" d="M244.5,106.8h7.6c1.8,0,3.1.4,4,1.1.9.8,1.3,1.8,1.3,3.2s-.1,1.4-.3,1.9c-.2.5-.5.9-.8,1.2-.3.3-.6.5-.9.7s-.5.2-.6.3h0c.2,0,.5,0,.8.3.3,0,.5.3.8.6.2.3.4.6.6,1s.2.9.2,1.6,0,1.8.2,2.6c.1.8.4,1.3.7,1.6h-3c-.2-.3-.3-.7-.4-1.1v-1.2c0-.7,0-1.4-.1-1.9s-.3-1-.5-1.3c-.2-.4-.6-.6-1-.8-.4-.2-.9-.2-1.6-.2h-4.1v6.6h-2.8v-16.2ZM247.2,114h4.6c.9,0,1.6-.2,2-.6.5-.4.7-1.1.7-1.9s0-.9-.2-1.2c-.1-.3-.4-.6-.6-.7-.3-.2-.6-.3-.9-.4h-5.5v5-.2Z"/>
        <path class="st12" d="M267.1,116.4l-6-9.7h3.2l4.2,7.2,4.2-7.2h3.1l-6,9.7v6.3h-2.8v-6.3h0Z"/>
      </g>
      <g>
        <path class="st12" d="M44.5,146.1l-3.7-6h2l2.6,4.4,2.6-4.4h1.9l-3.7,6v3.9h-1.7s0-3.9,0-3.9Z"/>
        <path class="st12" d="M57.3,148.3v.4s0,.1.3.1h.4v1.1h-1c-.3,0-.6,0-.8-.2-.2-.1-.3-.4-.4-.7-.3.3-.7.5-1.1.7-.5.1-.9.2-1.3.2s-.6,0-.9-.1c-.3,0-.6-.2-.8-.4s-.4-.4-.5-.6c0-.3-.2-.6-.2-.9s0-.8.2-1.1.4-.5.6-.6c.3-.2.6-.3.9-.3s.7-.1,1-.2c.3,0,.6,0,.8-.1.3,0,.5,0,.7-.1.2,0,.4-.1.5-.3s.2-.3.2-.5,0-.4,0-.5c0-.1-.2-.2-.4-.3,0,0-.3-.1-.5-.1h-.5c-.4,0-.8,0-1.1.3s-.4.5-.5.9h-1.6c0-.5,0-.8.3-1.1s.4-.5.7-.7.6-.3,1-.4c.4,0,.8-.1,1.2-.1s.7,0,1,.1c.3,0,.6.2.9.4.3.2.5.4.7.6.2.3.2.6.2,1v3.7-.2ZM55.7,146.3c-.2.2-.5.3-.9.3s-.7,0-1,.1c-.2,0-.3,0-.5.1-.2,0-.3.1-.4.2,0,0-.2.2-.3.3,0,.1,0,.3,0,.5s0,.3.2.4c0,.1.2.2.4.3,0,0,.3.1.5.1h1.1c.2,0,.4-.1.6-.2.2-.1.3-.2.4-.4,0-.2.2-.4.2-.6v-1.2h-.2Z"/>
        <path class="st12" d="M59.7,142.8h1.5v1h0c0-.2.2-.3.4-.5s.3-.3.5-.4c.2-.1.4-.2.6-.2h.8c.4,0,.8,0,1.2.3.4.2.6.5.8.9.3-.4.6-.7.9-.9s.8-.3,1.3-.3c.8,0,1.3.2,1.8.6.4.4.6,1,.6,1.8v4.9h-1.6v-5c0-.2,0-.4-.2-.6,0-.2-.2-.3-.4-.4-.2,0-.4-.1-.7-.1-.5,0-.9.2-1.2.5s-.4.8-.4,1.4v4.2h-1.6v-4.6c0-.5,0-.9-.3-1.1-.2-.3-.5-.4-1-.4s-.4,0-.6.1c-.2,0-.4.2-.5.4s-.3.3-.3.6,0,.5,0,.8v4.2h-1.6v-7.1h0Z"/>
        <path class="st12" d="M75.6,150.1c-.6,0-1.1,0-1.5-.3-.4-.2-.8-.4-1.1-.8s-.5-.7-.7-1.2-.2-1-.2-1.5,0-1,.2-1.5.4-.9.7-1.2.7-.6,1.1-.8,1-.3,1.5-.3,1.1,0,1.5.3c.4.2.8.4,1.1.8s.5.7.7,1.2.2,1,.2,1.5,0,1.1-.2,1.5c-.2.5-.4.9-.7,1.2s-.7.6-1.1.8-1,.3-1.5.3ZM75.6,148.8c.3,0,.7,0,.9-.2.3-.1.5-.3.6-.6.2-.2.3-.5.4-.8s0-.6,0-.9,0-.6,0-.9c0-.3-.2-.6-.4-.8-.2-.2-.4-.4-.6-.6-.3-.1-.6-.2-.9-.2s-.7,0-.9.2-.5.3-.6.6c-.2.2-.3.5-.4.8,0,.3,0,.6,0,.9s0,.6,0,.9.2.6.4.8c.2.2.4.4.6.6.3.1.6.2.9.2Z"/>
        <path class="st12" d="M81.2,142.8h1.5v1.4h0c0-.2,0-.4.3-.6,0-.2.3-.4.5-.5.2-.2.4-.3.6-.4.2,0,.5-.1.7-.1h.6v1.5h-.6c-.3,0-.5,0-.8.2-.2.1-.4.3-.6.5s-.3.5-.4.8-.2.7-.2,1v3.4h-1.6v-7.1h0Z"/>
        <path class="st12" d="M86.8,140.1h1.6v1.5h-1.6v-1.5ZM86.8,142.8h1.6v7.1h-1.6v-7.1Z"/>
        <path class="st12" d="M100.1,145.1c0-.4-.2-.8-.5-1s-.7-.3-1.1-.3-.4,0-.6.1-.4.2-.6.4-.4.4-.5.8c0,.3-.2.8-.2,1.3s0,.6,0,.9c0,.3.2.6.3.8s.3.4.6.6c.2.1.5.2.9.2s.8-.1,1.1-.4.5-.7.6-1.2h1.6c0,.9-.5,1.6-1.1,2.1s-1.3.7-2.2.7-1.1,0-1.5-.3c-.4-.2-.8-.4-1.1-.8-.3-.3-.5-.7-.7-1.2-.2-.4-.2-.9-.2-1.5s0-1,.2-1.5.4-.9.7-1.2.7-.6,1.1-.8.9-.3,1.5-.3.8,0,1.2.2c.4.1.7.3,1,.5s.5.5.7.8.3.7.3,1.1h-1.6Z"/>
        <path class="st12" d="M106.9,150.1c-.6,0-1.1,0-1.5-.3-.4-.2-.8-.4-1.1-.8s-.5-.7-.7-1.2-.2-1-.2-1.5,0-1,.2-1.5.4-.9.7-1.2.7-.6,1.1-.8,1-.3,1.5-.3,1.1,0,1.5.3c.4.2.8.4,1.1.8s.5.7.7,1.2.2,1,.2,1.5,0,1.1-.2,1.5c-.2.5-.4.9-.7,1.2s-.7.6-1.1.8-1,.3-1.5.3ZM106.9,148.8c.3,0,.7,0,.9-.2.3-.1.5-.3.6-.6.2-.2.3-.5.4-.8s0-.6,0-.9,0-.6,0-.9c0-.3-.2-.6-.4-.8-.2-.2-.4-.4-.6-.6-.3-.1-.6-.2-.9-.2s-.7,0-.9.2-.5.3-.6.6c-.2.2-.3.5-.4.8,0,.3,0,.6,0,.9s0,.6,0,.9.2.6.4.8c.2.2.4.4.6.6.3.1.6.2.9.2Z"/>
        <path class="st12" d="M112.6,148.1h1.9v1.9h-1.9v-1.9Z"/>
        <path class="st12" d="M117.1,148.1h1.9v1.9c0,.6-.2,1-.5,1.4s-.8.6-1.3.7v-.8c.3,0,.5-.2.7-.5s.2-.5.2-.8h-1v-1.9h0Z"/>
        <path class="st12" d="M121.5,140.1h1.6v9.8h-1.6v-9.8Z"/>
        <path class="st12" d="M124.8,142.8h1.2v-2.1h1.6v2.1h1.4v1.2h-1.4v4.5c0,.1,0,.1.2.2h1v1.2h-1c-.4,0-.7,0-1-.1-.3,0-.5-.2-.6-.3,0-.2-.2-.3-.3-.6v-5h-1.2v-1.2h0Z"/>
        <path class="st12" d="M137.5,149.9h-1.5v-1h0c-.2.4-.5.7-.9.9s-.8.3-1.3.3-1,0-1.5-.3c-.4-.2-.8-.5-1-.8-.3-.3-.5-.7-.6-1.2s-.2-1-.2-1.5,0-1.2.3-1.7.4-.9.7-1.2.6-.5,1-.7c.4-.1.8-.2,1.1-.2h.7c.2,0,.4.1.7.2.2,0,.4.2.6.4.2.1.3.3.4.5h0v-3.6h1.6v9.8h-.1ZM132,146.4c0,.3,0,.6.1.9s.2.6.4.8l.6.6c.2.1.5.2.9.2s.6,0,.9-.2c.3-.1.5-.3.6-.6s.3-.5.4-.8c0-.3.1-.6.1-.9,0-.8-.2-1.4-.5-1.8-.4-.4-.8-.7-1.4-.7s-.7,0-.9.2-.5.3-.6.6-.3.5-.3.8-.1.6-.1.9h-.2Z"/>
        <path class="st12" d="M140,148.1h1.9v1.9h-1.9v-1.9Z"/>
        <path class="st12" d="M41.9,159.4h6.8v1.5h-5.1v2.6h4.4v1.4h-4.4v4.4h-1.7v-9.8h0Z"/>
        <path class="st12" d="M56.8,169.2h-1.5v-1h0c-.2.4-.5.6-.9.9s-.8.3-1.2.3c-.9,0-1.6-.2-2-.7s-.6-1.2-.6-2.1v-4.5h1.6v4.4c0,.6,0,1.1.4,1.3s.6.4,1,.4.6,0,.8-.2.4-.2.5-.4.2-.4.3-.6v-4.9h1.6v7.1h0Z"/>
        <path class="st12" d="M59.2,162.1h1.6v7.7c0,.7-.2,1.3-.5,1.6-.3.4-.8.6-1.6.6s-.3,0-.4,0h-.3v-1.2h.5c.3,0,.5,0,.5-.3s0-.4,0-.8v-7.7h.1ZM59.2,159.4h1.6v1.5h-1.6v-1.5Z"/>
        <path class="st12" d="M63.2,159.4h1.6v1.5h-1.6s0-1.5,0-1.5ZM63.2,162.1h1.6v7.1h-1.6s0-7.1,0-7.1Z"/>
        <path class="st12" d="M67.2,162.1h1.5v1h0c0-.2.2-.3.4-.5s.3-.3.5-.4c.2-.1.4-.2.6-.2h.8c.4,0,.8,0,1.2.3.4.2.6.5.8.9.3-.4.6-.7.9-.9s.8-.3,1.3-.3c.8,0,1.3.2,1.8.6.4.4.6,1,.6,1.8v4.9h-1.6v-5c0-.2,0-.4-.2-.6,0-.2-.2-.3-.4-.4-.2,0-.4-.1-.7-.1-.5,0-.9.2-1.2.5s-.4.8-.4,1.4v4.2h-1.6v-4.6c0-.5,0-.9-.3-1.1-.2-.3-.5-.4-1-.4s-.4,0-.6.1c-.2,0-.4.2-.5.4s-.3.3-.3.6,0,.5,0,.8v4.2h-1.6v-7.1h0Z"/>
        <path class="st12" d="M79.9,159.4h1.6v1.5h-1.6v-1.5ZM79.9,162.1h1.6v7.1h-1.6v-7.1Z"/>
        <path class="st12" d="M90.4,168.9c0,1.1-.3,1.9-.9,2.4s-1.5.8-2.6.8-.7,0-1.1-.1c-.4,0-.7-.2-1-.4s-.5-.4-.8-.7c-.2-.3-.3-.6-.4-1h1.6c0,.2,0,.4.2.5s.2.2.4.3c.2,0,.3.1.5.2s.4,0,.6,0c.6,0,1.1-.2,1.4-.5s.4-.8.4-1.3v-1.1h0c-.2.4-.5.7-.9.9s-.8.3-1.2.3-1.1,0-1.5-.3c-.4-.2-.7-.5-1-.8s-.5-.7-.6-1.2c0-.4-.2-.9-.2-1.4s0-.9.2-1.4.4-.8.6-1.1c.3-.3.6-.6,1-.8s.9-.3,1.4-.3.9,0,1.2.3c.4.2.7.5.9.9h0v-1h1.6v6.7h.2ZM86.9,168.1c.3,0,.6,0,.9-.2.2-.1.4-.3.6-.6.2-.2.3-.5.3-.8s0-.6,0-.9,0-.6,0-.9c0-.3-.2-.5-.3-.8-.2-.2-.3-.4-.6-.5-.2-.1-.5-.2-.9-.2s-.6,0-.9.2-.4.3-.6.6c0,.2-.3.5-.3.8v.9c0,.3,0,.6,0,.9,0,.3.2.5.3.8.2.2.3.4.6.5.2.1.5.2.8.2Z"/>
        <path class="st12" d="M98.7,167.6v.4s0,.1.3.1h.4v1.1h-1c-.3,0-.6,0-.8-.2-.2-.1-.3-.4-.4-.7-.3.3-.7.5-1.1.7-.5.1-.9.2-1.3.2s-.6,0-.9-.1c-.3,0-.6-.2-.8-.4-.2-.2-.4-.4-.5-.6,0-.3-.2-.6-.2-.9s0-.8.2-1.1.4-.5.6-.6c.3-.2.6-.3.9-.3s.7-.1,1-.2c.3,0,.6,0,.8-.1.3,0,.5,0,.7-.1.2,0,.4-.1.5-.3s.2-.3.2-.5,0-.4,0-.5c0-.1-.2-.2-.4-.3,0,0-.3-.1-.5-.1h-.5c-.4,0-.8,0-1.1.3s-.4.5-.5.9h-1.6c0-.5,0-.8.3-1.1.2-.3.4-.5.7-.7s.6-.3,1-.4c.4,0,.8-.1,1.2-.1s.7,0,1,.1c.3,0,.6.2.9.4s.5.4.7.6c.2.3.2.6.2,1v3.7-.2ZM97.1,165.8c-.2.2-.5.3-.9.3s-.7,0-1,.1c-.2,0-.3,0-.5.1-.2,0-.3.1-.4.2,0,0-.2.2-.3.3,0,.1,0,.3,0,.5s0,.3.2.4c0,.1.2.2.4.3,0,0,.3.1.5.1h1.1c.2,0,.4-.1.6-.2.2-.1.3-.2.4-.4s.2-.4.2-.6v-1.2h-.2Z"/>
        <path class="st12" d="M104.3,169.4c-.6,0-1.1,0-1.5-.3-.4-.2-.8-.4-1.1-.8s-.5-.7-.7-1.2-.2-1-.2-1.5,0-1,.2-1.5.4-.9.7-1.2.7-.6,1.1-.8,1-.3,1.5-.3,1.1,0,1.5.3c.4.2.8.4,1.1.8s.5.7.7,1.2.2,1,.2,1.5,0,1.1-.2,1.5c-.2.5-.4.9-.7,1.2s-.7.6-1.1.8-1,.3-1.5.3ZM104.3,168.2c.3,0,.7,0,.9-.2.3-.1.5-.3.6-.6.2-.2.3-.5.4-.8s0-.6,0-.9,0-.6,0-.9c0-.3-.2-.6-.4-.8-.2-.2-.4-.4-.6-.6-.3-.1-.6-.2-.9-.2s-.7,0-.9.2-.5.3-.6.6c-.2.2-.3.5-.4.8,0,.3,0,.6,0,.9s0,.6,0,.9.2.6.4.8c.2.2.4.4.6.6.3.1.6.2.9.2Z"/>
        <path class="st12" d="M109.9,159.4h1.6v5.6l2.8-2.9h1.9l-2.7,2.6,3,4.5h-1.9l-2.2-3.5-.9.9v2.5h-1.6v-9.8h0Z"/>
        <path class="st12" d="M124,167.6v.4s0,.1.3.1h.4v1.1h-1c-.3,0-.6,0-.8-.2-.2-.1-.3-.4-.4-.7-.3.3-.7.5-1.1.7-.5.1-.9.2-1.3.2s-.6,0-.9-.1c-.3,0-.6-.2-.8-.4-.2-.2-.4-.4-.5-.6,0-.3-.2-.6-.2-.9s0-.8.2-1.1.4-.5.6-.6c.3-.2.6-.3.9-.3s.7-.1,1-.2c.3,0,.6,0,.8-.1.3,0,.5,0,.7-.1.2,0,.4-.1.5-.3s.2-.3.2-.5,0-.4,0-.5c0-.1-.2-.2-.4-.3,0,0-.3-.1-.5-.1h-.5c-.4,0-.8,0-1.1.3s-.4.5-.5.9h-1.6c0-.5,0-.8.3-1.1.2-.3.4-.5.7-.7s.6-.3,1-.4c.4,0,.8-.1,1.2-.1s.7,0,1,.1c.3,0,.6.2.9.4s.5.4.7.6c.2.3.2.6.2,1v3.7-.2ZM122.4,165.8c-.2.2-.5.3-.9.3s-.7,0-1,.1c-.2,0-.3,0-.5.1-.2,0-.3.1-.4.2,0,0-.2.2-.3.3,0,.1,0,.3,0,.5s0,.3.2.4c0,.1.2.2.4.3,0,0,.3.1.5.1h1.1c.2,0,.4-.1.6-.2.2-.1.3-.2.4-.4s.2-.4.2-.6v-1.2h-.2Z"/>
        <path class="st12" d="M131,159.4h2.4l2.7,7.7h0l2.6-7.7h2.4v9.8h-1.6v-7.6h0l-2.7,7.6h-1.4l-2.7-7.6h0v7.6h-1.6v-9.8h0Z"/>
        <path class="st12" d="M147,169.4c-.6,0-1.1,0-1.5-.3-.4-.2-.8-.4-1.1-.8s-.5-.7-.7-1.2-.2-1-.2-1.5,0-1,.2-1.5.4-.9.7-1.2.7-.6,1.1-.8c.4-.2,1-.3,1.5-.3s1.1,0,1.5.3c.4.2.8.4,1.1.8s.5.7.7,1.2.2,1,.2,1.5,0,1.1-.2,1.5c-.2.5-.4.9-.7,1.2s-.7.6-1.1.8c-.4.2-1,.3-1.5.3ZM147,168.2c.3,0,.7,0,.9-.2.3-.1.5-.3.6-.6.2-.2.3-.5.4-.8s.1-.6.1-.9,0-.6-.1-.9c0-.3-.2-.6-.4-.8l-.6-.6c-.3-.1-.6-.2-.9-.2s-.7,0-.9.2-.5.3-.6.6c-.2.2-.3.5-.4.8,0,.3-.1.6-.1.9s0,.6.1.9.2.6.4.8l.6.6c.3.1.6.2.9.2Z"/>
        <path class="st12" d="M159.3,169.2h-1.5v-1h0c-.2.4-.5.7-.9.9s-.8.3-1.3.3-1,0-1.5-.3c-.4-.2-.8-.5-1-.8-.3-.3-.5-.7-.6-1.2s-.2-1-.2-1.5,0-1.2.3-1.7.4-.9.7-1.2.6-.5,1-.7c.4-.1.8-.2,1.1-.2h.7c.2,0,.4.1.7.2.2,0,.4.2.6.4.2.1.3.3.4.5h0v-3.6h1.6v9.8h-.1ZM153.9,165.8c0,.3,0,.6.1.9s.2.6.4.8l.6.6c.2.1.5.2.9.2s.6,0,.9-.2c.3-.1.5-.3.6-.6s.3-.5.4-.8c0-.3.1-.6.1-.9,0-.8-.2-1.4-.5-1.8-.4-.4-.8-.7-1.4-.7s-.7,0-.9.2-.5.3-.6.6-.3.5-.3.8-.1.6-.1.9h-.2Z"/>
        <path class="st12" d="M163,166.1c0,.3,0,.5.1.8,0,.3.2.5.4.7s.4.3.6.5.5.2.9.2.8,0,1.1-.3c.3-.2.5-.5.6-.9h1.5c0,.4-.2.7-.4,1s-.4.6-.7.8-.6.4-1,.5-.7.2-1.1.2c-.6,0-1.1,0-1.5-.3-.4-.2-.8-.4-1.1-.8-.3-.3-.5-.7-.7-1.2s-.2-1-.2-1.5,0-1,.2-1.4.4-.9.7-1.2.7-.6,1.1-.8.9-.3,1.4-.3,1.1.1,1.5.4c.4.2.8.5,1.1.9s.5.8.6,1.3.2,1,.1,1.5h-5.2ZM166.6,165.1c0-.2,0-.5-.2-.7,0-.2-.2-.4-.4-.6-.2-.2-.3-.3-.6-.4s-.5-.2-.7-.2-.5,0-.8.1c-.2,0-.4.2-.6.4-.2.2-.3.4-.4.6,0,.2-.1.5-.2.7h3.9Z"/>
        <path class="st12" d="M170.1,159.4h1.6v9.8h-1.6v-9.8Z"/>
        <path class="st12" d="M174.1,159.4h1.6v3.6h0c.2-.3.5-.6.9-.8s.8-.3,1.3-.3c.8,0,1.4.2,1.8.6s.7,1,.7,1.8v4.9h-1.6v-4.5c0-.6-.1-1-.4-1.2-.2-.3-.6-.4-1-.4s-.5,0-.7.1c-.2,0-.4.2-.5.4s-.3.4-.3.6-.1.5-.1.7v4.2h-1.6v-9.8h0Z"/>
        <path class="st12" d="M186,169.4c-.6,0-1.1,0-1.5-.3-.4-.2-.8-.4-1.1-.8s-.5-.7-.7-1.2-.2-1-.2-1.5,0-1,.2-1.5.4-.9.7-1.2.7-.6,1.1-.8c.4-.2,1-.3,1.5-.3s1.1,0,1.5.3c.4.2.8.4,1.1.8s.5.7.7,1.2.2,1,.2,1.5,0,1.1-.2,1.5c-.2.5-.4.9-.7,1.2s-.7.6-1.1.8c-.4.2-1,.3-1.5.3ZM186,168.2c.3,0,.7,0,.9-.2.3-.1.5-.3.6-.6.2-.2.3-.5.4-.8s.1-.6.1-.9,0-.6-.1-.9c0-.3-.2-.6-.4-.8l-.6-.6c-.3-.1-.6-.2-.9-.2s-.7,0-.9.2-.5.3-.6.6c-.2.2-.3.5-.4.8,0,.3-.1.6-.1.9s0,.6.1.9.2.6.4.8l.6.6c.3.1.6.2.9.2Z"/>
        <path class="st12" d="M197.8,169.2h-1.5v-1h0c-.2.4-.5.6-.9.9s-.8.3-1.2.3c-.9,0-1.6-.2-2-.7s-.6-1.2-.6-2.1v-4.5h1.6v4.4c0,.6.1,1.1.4,1.3s.6.4,1,.4.6,0,.8-.2.4-.2.5-.4.2-.4.3-.6v-4.9h1.6v7.1h0Z"/>
        <path class="st12" d="M201.3,166.9c0,.5.2.8.5,1s.7.3,1.1.3h.5c.2,0,.4,0,.5-.1.2,0,.3-.2.4-.3s.2-.3.1-.5c0-.2,0-.4-.2-.5-.1-.1-.3-.2-.5-.3s-.5-.1-.7-.2c-.3,0-.6-.1-.8-.2-.3,0-.6-.1-.8-.2-.3,0-.5-.2-.7-.4s-.4-.4-.5-.6c-.1-.2-.2-.5-.2-.9s0-.7.3-1c.2-.3.4-.5.7-.6.3-.2.6-.3,1-.3h1c.3,0,.7,0,1.1.1.3,0,.6.2.9.4s.5.4.7.7.3.6.3,1h-1.6c0-.4-.2-.6-.5-.8-.3-.1-.6-.2-.9-.2h-.4c-.2,0-.3,0-.4.1s-.2.1-.3.2c0,0-.1.2-.1.4s0,.3.2.5.3.2.5.3c.2,0,.5.1.7.2s.6.1.9.2c.3,0,.6.1.8.2s.5.2.7.4.4.4.5.6c.1.2.2.5.2.9s0,.8-.3,1.1c-.2.3-.4.5-.8.7s-.6.3-1,.4-.7.1-1.1.1-.9,0-1.2-.2c-.4-.1-.7-.3-1-.5s-.5-.5-.7-.8-.2-.7-.3-1.1h1.6-.2Z"/>
        <path class="st12" d="M209.2,166.1c0,.3,0,.5.1.8,0,.3.2.5.4.7s.4.3.6.5.5.2.9.2.8,0,1.1-.3c.3-.2.5-.5.6-.9h1.5c0,.4-.2.7-.4,1s-.4.6-.7.8-.6.4-1,.5-.7.2-1.1.2c-.6,0-1.1,0-1.5-.3-.4-.2-.8-.4-1.1-.8-.3-.3-.5-.7-.7-1.2s-.2-1-.2-1.5,0-1,.2-1.4.4-.9.7-1.2.7-.6,1.1-.8.9-.3,1.4-.3,1.1.1,1.5.4c.4.2.8.5,1.1.9s.5.8.6,1.3.2,1,.1,1.5h-5.2ZM212.9,165.1c0-.2,0-.5-.2-.7,0-.2-.2-.4-.4-.6-.2-.2-.3-.3-.6-.4s-.5-.2-.7-.2-.5,0-.8.1c-.2,0-.4.2-.6.4-.2.2-.3.4-.4.6,0,.2-.1.5-.2.7h3.9Z"/>
      </g>
    </g>
  </g>
</svg>