<?xml version="1.0" encoding="UTF-8"?>
<svg id="_レイヤー_2" xmlns="http://www.w3.org/2000/svg" width="254.7mm" height="169.3mm" xmlns:xlink="http://www.w3.org/1999/xlink" version="1.1" viewBox="0 0 721.9 480">
  <!-- Generator: Adobe Illustrator 29.3.1, SVG Export Plug-In . SVG Version: 2.1.0 Build 151)  -->
  <defs>
    <style>
      .st0, .st1, .st2, .st3, .st4, .st5, .st6, .st7, .st8 {
        fill: none;
      }

      .st1 {
        stroke: #595858;
        stroke-width: 1.3px;
      }

      .st1, .st2, .st3, .st4, .st5, .st6, .st7, .st8 {
        stroke-miterlimit: 10;
      }

      .st2, .st3, .st4, .st7 {
        stroke: #7b7b7b;
      }

      .st2, .st7 {
        stroke-width: 2.3px;
      }

      .st3 {
        stroke-width: 1.3px;
      }

      .st4 {
        stroke-width: .9px;
      }

      .st9 {
        fill: #595858;
      }

      .st5 {
        stroke: #dbdbdb;
        stroke-width: 6.2px;
      }

      .st10 {
        fill: #9d9d9d;
      }

      .st6 {
        stroke-width: 4.4px;
      }

      .st6, .st8 {
        stroke: #f1eeeb;
      }

      .st11 {
        fill: #fff;
      }

      .st12 {
        fill: #f0edeb;
      }

      .st13 {
        fill: #f1eeeb;
      }

      .st7 {
        stroke-dasharray: 0 0 6.2 1.5;
      }

      .st8 {
        stroke-width: .6px;
      }

      .st14 {
        clip-path: url(#clippath);
      }
    </style>
    <clipPath id="clippath">
      <rect class="st0" y=".3" width="721" height="479.4"/>
    </clipPath>
  </defs>
  <g id="_レイヤー_21" data-name="_レイヤー_2">
    <g id="_レイヤー_1-2">
      <g>
        <rect class="st12" y=".3" width="721.9" height="479.4"/>
        <g>
          <g class="st14">
            <g>
              <polygon class="st10" points="404.1 333.4 390.9 404.8 359.2 401.3 357.8 412.9 363.4 420.1 381.2 428.5 408.1 430.6 432.3 451 447.7 452.5 450 435.3 469.2 436.9 467 449.3 479.1 449.3 479.1 459.1 504.1 464 522 349.4 404.1 333.4"/>
              <line class="st2" x1="265" y1="412" x2="228.4" y2="487.7"/>
              <rect class="st9" x="272.1" y="77" width="6.6" height="6.6"/>
              <polyline class="st2" points="500.5 487.7 534.9 268 586 97.3 628.7 -5.3"/>
              <polyline class="st2" points="277.6 341.3 221.5 313.8 164.6 332.2 137.4 297.5 108.2 269.6 85.2 263.1 60.2 243.1 45 229.3 5.8 208 -42.7 197.9 -69.7 202.6 -88.5 194.5"/>
              <polyline class="st2" points="302.4 229.3 285 221.7 279.8 199.4 292.2 115.1 274.7 51 92.1 33.8 61.4 109 58.7 130.2 49.9 141.6 -3 128.5 -30.9 141.6 -99.3 131.6"/>
              <polyline class="st5" points="314.5 490.1 300.4 367.7 329.3 300 366.5 267.8 371.9 252.5 373.4 240.5 360.8 199.3 388.4 97.1 436.6 -11.1"/>
              <polyline class="st5" points="319.8 -5.6 296.9 20 296.9 49.7 312.3 135.9 312.3 204.6 329.8 302.6"/>
              <g>
                <path class="st9" d="M300.4,46.9l1.1,5.8-1.1.2-.4-2.3-6.1,1.1-.2-1.3,6.1-1.1-.4-2.3,1.1-.2h0Z"/>
                <path class="st9" d="M302.1,55.9l.3,1.3-6.6,4.1-.3-1.3,1.8-1-.6-2.8-2-.3-.2-1.3,7.6,1.4h0ZM297.7,56.2l.4,2.2,2.8-1.6h0l-3.2-.6h0Z"/>
                <path class="st9" d="M297.1,68.6v-.8c-.1,0,.6-.4.6-.4-.4-.3-.8-.6-1-.8s-.4-.6-.4-1.1c0-.6,0-1,0-1.5.1-.5.4-.8.6-1.2s.6-.6,1.1-.9.9-.4,1.4-.5,1-.1,1.5,0c.5,0,.9.2,1.3.4.4.2.7.6,1,.9.3.4.5.8.6,1.3,0,.4,0,.8,0,1.1,0,.4-.1.7-.3,1s-.4.6-.6.8-.6.4-1,.6l-.2-1.2c.2,0,.4-.2.6-.4.1-.1.3-.3.4-.5,0-.2.1-.4.1-.6v-.6c0-.4-.2-.7-.4-.9s-.4-.4-.7-.6c-.3-.1-.6-.2-.9-.2h-1.1c-.4,0-.6.1-1,.3-.3.1-.6.4-.8.6-.2.2-.4.5-.5.8,0,.3-.1.6,0,1,0,.3.1.6.3.8s.3.4.5.6c.2.1.4.2.7.3h.8l-.4-1.9h.9c0-.1.6,2.9.6,2.9l-3.7.7h0Z"/>
                <path class="st9" d="M305,71l.3,1.3-6.6,4.1-.3-1.3,1.8-1-.6-2.8-2-.3-.2-1.3,7.6,1.4h0ZM300.6,71.4l.4,2.2,2.8-1.6h0l-3.2-.6h0Z"/>
                <path class="st9" d="M305.8,75.6l.2,1.3-5.2,2.3h0l5.7.4.2,1.3-5.1,2.4h0l5.7.4.2,1.3-7.5-.6-.2-1.3,5.1-2.5h0l-5.7-.4-.2-1.3s6.8-3.2,6.8-3.2Z"/>
                <path class="st9" d="M308.1,88l.3,1.3-6.6,4.1-.3-1.3,1.8-1-.6-2.8-2-.3-.2-1.3,7.6,1.4h0ZM303.8,88.4l.4,2.2,2.8-1.6h0l-3.2-.6h0Z"/>
              </g>
              <polyline class="st2" points="383.1 -4.6 301.7 231.6 265.5 396.7 265 487"/>
              <g>
                <path class="st9" d="M352.6,120.9l-1.8,5.6-1.1-.4.7-2.2-5.8-1.9.4-1.2,5.8,1.9.7-2.2,1.1.4h0Z"/>
                <path class="st9" d="M349.7,129.6l-.4,1.3-7.7.4.4-1.3h2l.9-2.7-1.6-1.3.4-1.3,6,4.9h0ZM345.7,127.8l-.7,2.1h3.3c0,0-2.6-2.1-2.6-2.1h0Z"/>
                <path class="st9" d="M348.2,134l-.4,1.2-5.6-.5h0l4.8,3.2-.4,1.2-5.7-.4h0l4.8,3-.4,1.2-6.3-4.2.4-1.2,5.7.4h0l-4.8-3.2.4-1.3,7.5.5h0Z"/>
                <path class="st9" d="M344.3,146l-.4,1.3-7.7.4.4-1.3h2l.9-2.7-1.6-1.3.4-1.3,6,4.9h0ZM340.3,144.2l-.7,2.1h3.3c0,0-2.6-2.1-2.6-2.1h0Z"/>
                <path class="st9" d="M342.6,151.1l-1.1,3.2c-.3.8-.6,1.3-1.1,1.5s-1,.3-1.5.1c-.4,0-.6-.3-.8-.4s-.4-.4-.4-.5-.1-.4-.1-.5v-.3h0c0,0-.1.2-.2.3s-.2.2-.4.3c-.1,0-.4,0-.5.1-.2,0-.4,0-.7-.1-.4-.1-.8-.2-1.1-.3h-.8l.4-1.3h.6c.2,0,.4,0,.6.1.4,0,.6.1.8.2s.4,0,.6,0,.4-.1.5-.3.2-.4.4-.6l.6-1.8-2.8-.9.4-1.2,6.8,2.3h-.2ZM339.1,151.3l-.6,2c-.1.4-.1.7,0,1s.4.4.7.6c.2,0,.4,0,.6,0s.3,0,.4-.1c.1,0,.2-.2.3-.4s.1-.3.2-.4l.6-2-2.1-.7h0Z"/>
                <path class="st9" d="M339.5,160.2l-.4,1.3-7.7.4.4-1.3h2l.9-2.7-1.6-1.3.4-1.3,6,4.9h0ZM335.5,158.4l-.7,2.1h3.3c0,0-2.6-2.1-2.6-2.1h0Z"/>
                <path class="st9" d="M334.2,163.8l-.9,2.8-1.1-.4.9-2.8,1.1.4Z"/>
                <path class="st9" d="M336.4,169.5l-.4,1.2-3.1-1.1,2.1,4.1-.5,1.5-1.8-3.7-5.1,1.5.5-1.5,4-1.1-.6-1.3-2.3-.8.4-1.2,6.8,2.3h0Z"/>
                <path class="st9" d="M333.5,178.3l-.4,1.3-7.7.4.4-1.3h2l.9-2.7-1.6-1.3.4-1.3,6,4.9h0ZM329.5,176.5l-.7,2.1h3.3c0,0-2.6-2.1-2.6-2.1h0Z"/>
                <path class="st9" d="M331.9,183.4l-.4,1.2-6.8-2.3.4-1.2,6.8,2.3Z"/>
                <path class="st9" d="M330.8,186.5l-.9,2.8c-.1.6-.4,1-.7,1.3-.3.4-.6.6-1.1.7s-.8.2-1.3.1c-.4,0-.9,0-1.4-.3s-.9-.4-1.3-.6-.7-.6-.9-.9-.4-.7-.4-1.2,0-.9.2-1.5l.9-2.8,6.8,2.3h0ZM324.5,185.8l-.4,1.2c-.1.5-.2.8-.2,1.2s.1.6.3.8c.1.2.4.4.6.6.3.1.6.3.9.4s.7.2,1,.2.6,0,.9,0,.6-.3.8-.6.4-.6.6-1.1l.4-1.2-4.9-1.6h0Z"/>
                <path class="st9" d="M327.5,196.9c-.1.5-.4.9-.8,1.3s-.7.6-1.1.8-.8.3-1.3.3-1,0-1.5-.2c-.5-.1-.9-.4-1.3-.7-.4-.3-.7-.6-.9-1.1-.2-.4-.4-.8-.4-1.3,0-.5,0-1,.1-1.5s.4-.9.7-1.3c.4-.4.7-.6,1.1-.8s.8-.3,1.3-.3,1,0,1.5.2c.5.1.9.4,1.3.7s.7.6.9,1.1c.2.4.4.8.4,1.3,0,.5,0,1-.1,1.5h0ZM326.6,196.6c.1-.4.1-.7,0-1.1,0-.4-.2-.6-.4-.8s-.4-.5-.7-.6-.6-.4-.9-.4c-.4-.1-.6-.1-1-.2s-.6,0-1,0c-.3,0-.6.2-.8.4s-.4.5-.6.8-.1.7,0,1.1c0,.4.2.6.4.8s.4.5.7.6.6.4.9.4.6.1,1,.2.6,0,1,0c.3,0,.6-.2.8-.4s.4-.5.6-.8h0Z"/>
                <path class="st9" d="M319.9,204.1c-.3,0-.5-.1-.7,0-.2,0-.4,0-.6.2s-.4.3-.4.5-.2.4-.3.6c0,.3-.1.5-.1.7s0,.4,0,.6.1.3.3.4.2.1.4.2c.3,0,.5,0,.6,0,.1,0,.3-.1.4-.3.1-.2.4-.5.6-.8s.4-.6.7-1.1c.1-.3.4-.5.6-.6s.4-.3.6-.4c.2,0,.4,0,.6,0s.4,0,.6,0c.4.1.6.3.8.5s.4.5.4.8.1.6,0,.9c0,.4,0,.6-.2,1-.1.4-.3.7-.5,1-.2.3-.4.5-.7.7s-.6.3-.8.4-.6,0-1,0l.4-1.2c.4.1.8,0,1.1-.1.3-.2.5-.5.6-.9,0-.1,0-.3,0-.4v-.4c0-.1,0-.3-.1-.4s-.2-.2-.4-.3c-.3,0-.4,0-.6,0s-.4.3-.5.5c0,0,0,.1-.2.3,0,.1-.2.4-.4.6s-.3.4-.4.6c-.1.2-.2.4-.3.4-.1.2-.3.4-.5.5-.1.1-.4.2-.6.3-.2,0-.4,0-.6,0s-.4,0-.6,0c-.4-.1-.7-.4-.9-.6-.2-.3-.4-.6-.5-.8,0-.3-.1-.6,0-1s0-.7.2-1.1c.1-.4.3-.8.5-1.1.2-.4.4-.6.7-.8.3-.2.6-.3,1-.4s.8,0,1.2.1l-.4,1.2h0Z"/>
                <path class="st9" d="M322.7,210.9l-1.8,5.6-1.1-.4.7-2.2-5.8-1.9.4-1.2,5.8,1.9.7-2.2,1.1.4h0Z"/>
                <path class="st9" d="M314.9,215.8l-.4,1.3-1.3-.4.4-1.3,1.3.4h0Z"/>
              </g>
              <g>
                <path class="st9" d="M590.8,129.2l-1.7,5.6-1.1-.3.7-2.2-5.8-1.8.4-1.2,5.8,1.8.6-2.2,1.1.3h0Z"/>
                <path class="st9" d="M588,139.1c-.1.5-.4,1-.7,1.3s-.7.6-1.1.8-.8.3-1.3.3-1,0-1.5-.2c-.5-.1-.9-.4-1.3-.6-.4-.3-.7-.6-.9-1-.2-.4-.4-.8-.5-1.3,0-.5,0-1,.1-1.5.1-.5.4-1,.7-1.3.4-.4.7-.6,1.1-.8.4-.2.8-.3,1.3-.3s1,0,1.5.2c.5.1.9.4,1.3.6s.7.6,1,1c.2.4.4.8.5,1.3,0,.5,0,1-.1,1.5h0ZM587,138.8c.1-.4.1-.7,0-1s-.2-.6-.4-.8-.4-.4-.7-.6-.6-.3-.9-.4c-.4,0-.6-.1-1-.1s-.6,0-1,.1c-.3,0-.6.3-.8.5s-.4.5-.5.9c-.1.4-.1.7,0,1,0,.3.2.6.4.8.2.2.4.4.7.6s.6.3.9.4c.4,0,.6.1,1,.1s.6,0,1-.1.6-.3.8-.5.4-.5.5-.9h0Z"/>
                <path class="st9" d="M581.6,144.5l5-1.3-.4,1.4-3.7.9,2.5,2.7-.4,1.3-3.5-3.9-2.7-.8.4-1.2,2.7.8h0Z"/>
                <path class="st9" d="M583.5,153.8c-.1.5-.4,1-.7,1.3s-.7.6-1.1.8-.8.3-1.3.3-1,0-1.5-.2c-.5-.1-.9-.4-1.3-.6-.4-.3-.7-.6-.9-1-.2-.4-.4-.8-.5-1.3,0-.5,0-1,.1-1.5.1-.5.4-1,.7-1.3.4-.4.7-.6,1.1-.8.4-.2.8-.3,1.3-.3s1,0,1.5.2c.5.1.9.4,1.3.6s.7.6,1,1c.2.4.4.8.5,1.3,0,.5,0,1-.1,1.5h0ZM582.5,153.4c.1-.4.1-.7,0-1s-.2-.6-.4-.8-.4-.4-.7-.6-.6-.3-.9-.4c-.4,0-.6-.1-1-.1s-.6,0-1,.1c-.3,0-.6.3-.8.5s-.4.5-.5.9c-.1.4-.1.7,0,1s.2.6.4.8c.2.2.4.4.7.6s.6.3.9.4c.4,0,.6.1,1,.1s.6,0,1-.1.6-.3.8-.5.4-.5.5-.9h0Z"/>
                <path class="st9" d="M577,158c-.3,0-.5,0-.7,0s-.4.1-.6.2-.3.3-.4.5c-.1.2-.2.4-.3.6,0,.3-.1.5-.1.7s0,.4,0,.6c0,.1.1.3.3.4s.2.1.4.2c.3,0,.5,0,.6,0s.3-.2.4-.3c.1-.2.4-.5.5-.8.1-.3.4-.6.7-1.1.1-.3.4-.5.6-.6s.4-.3.6-.4.4,0,.6,0,.4,0,.6,0c.4,0,.6.3.8.5s.4.5.5.8c0,.3.1.6.1.9s0,.6-.1,1-.3.7-.4,1c-.2.3-.4.6-.7.7-.3.2-.6.3-.8.4-.4,0-.6,0-1.1,0l.4-1.2c.5,0,.8,0,1.1-.1.3-.2.5-.6.6-1,0-.1,0-.3,0-.4v-.4c0-.1,0-.3-.2-.4,0-.1-.2-.2-.4-.3-.2,0-.5,0-.6,0-.2.1-.4.3-.5.5,0,0,0,.1-.1.3s-.2.4-.4.6-.2.4-.4.6c-.1.2-.2.4-.3.4-.1.2-.3.4-.5.5-.1.1-.4.2-.6.3s-.4,0-.6,0-.4,0-.6,0c-.4-.1-.7-.3-.9-.6s-.4-.5-.5-.8c0-.3-.1-.6-.1-1s0-.7.2-1.1c.1-.4.3-.8.5-1.1s.4-.6.7-.8.6-.4,1-.4c.4,0,.8,0,1.2,0l-.4,1.2h0Z"/>
                <path class="st9" d="M579.3,167.2l-.4,1.3-7.7.6.4-1.3h2c0,0,.8-2.9.8-2.9l-1.6-1.2.4-1.3,6.1,4.7h0ZM575.2,165.5l-.6,2.1h3.3c0-.1-2.7-2.1-2.7-2.1h0Z"/>
                <path class="st9" d="M578,171.6l-1.7,5.6-1.1-.3.7-2.2-5.8-1.8.4-1.2,5.8,1.8.6-2.2,1.1.3h0Z"/>
                <path class="st9" d="M575.1,181.5c-.1.5-.4,1-.7,1.3s-.7.6-1.1.8-.8.3-1.3.3-1,0-1.5-.2c-.5-.1-.9-.4-1.3-.6-.4-.3-.7-.6-1-1-.2-.4-.4-.8-.5-1.3,0-.5,0-1,.1-1.5.1-.5.4-1,.7-1.3.4-.4.7-.6,1.1-.8s.8-.3,1.3-.3,1,0,1.5.2c.5.1.9.4,1.3.6s.7.6,1,1c.2.4.4.8.5,1.3s0,1-.1,1.5h0ZM574.2,181.2c.1-.4.1-.7,0-1s-.2-.6-.4-.8c-.2-.2-.4-.4-.7-.6s-.6-.3-.9-.4c-.4,0-.6-.1-1-.1s-.6,0-1,.1c-.3,0-.6.3-.8.5s-.4.5-.5.9c-.1.4-.1.7,0,1.1,0,.3.2.6.4.8.2.2.4.4.7.6s.6.4.9.4.6.1,1,.1.6,0,1-.1.6-.3.8-.5c.2-.2.4-.5.5-.9h0Z"/>
                <path class="st9" d="M572.5,189.5l-.8,2.9c-.1.6-.4,1-.7,1.3-.3.4-.6.6-1.1.7-.4.1-.8.2-1.3.2s-.9,0-1.4-.2-.9-.4-1.3-.6c-.4-.3-.7-.6-.9-.8-.2-.4-.4-.7-.4-1.2,0-.4,0-.9.1-1.5l.8-2.9,6.9,2.1h0ZM566.2,189l-.4,1.2c-.1.5-.2.8-.1,1.2,0,.4.1.6.3.8s.4.4.7.6.6.3.9.4.7.1,1,.2c.4,0,.6,0,.9-.1.3,0,.5-.3.7-.6s.4-.6.6-1.1l.4-1.2-4.9-1.5h0Z"/>
                <path class="st9" d="M570.3,197l-1.5,5-1.1-.4,1.1-3.8-1.8-.6-1.1,3.5-1-.3,1.1-3.5-2-.6-1.2,3.9-1.1-.4,1.5-5.1,6.9,2.1h0Z"/>
                <path class="st9" d="M568.2,203.6l-.4,1.3-6.1,1.6h0l5.1,1.5-.4,1.1-6.9-2.1.4-1.3,6.1-1.6h0l-5.1-1.5.4-1.1,6.9,2.1h0Z"/>
                <path class="st9" d="M566,211.1l-1.5,5-1.1-.4,1.1-3.8-1.8-.6-1.1,3.5-1-.3,1.1-3.5-2-.6-1.2,3.9-1.1-.4,1.5-5.1,6.9,2.1h0Z"/>
                <path class="st9" d="M564,217.6l-.4,1.3-6.1,1.6h0l5.1,1.5-.4,1.1-6.9-2.1.4-1.3,6.1-1.6h0l-5.1-1.5.4-1.1,6.9,2.1h0Z"/>
                <path class="st9" d="M555.9,227.7c-.3,0-.5,0-.7,0s-.4.1-.6.2-.3.3-.4.5c-.1.2-.2.4-.3.6,0,.3-.1.5-.1.7s0,.4,0,.6c0,.1.1.3.3.4s.2.1.4.2c.3,0,.5,0,.6,0s.3-.2.4-.3c.1-.2.4-.5.5-.8s.4-.7.7-1.1c.1-.3.4-.5.6-.6s.4-.3.6-.4.4,0,.6,0,.4,0,.6,0c.4,0,.6.3.8.5s.4.5.5.8c0,.3.1.6.1.9s0,.6-.1,1-.3.7-.4,1-.4.6-.7.7-.6.3-.8.4c-.4,0-.6,0-1.1,0l.4-1.2c.5,0,.8,0,1.1-.1.3-.2.5-.6.6-1,0-.1,0-.3,0-.4s0-.3,0-.4,0-.3-.2-.4c0-.1-.2-.2-.4-.3s-.5,0-.6,0c-.2.1-.4.3-.5.5,0,0,0,.1-.1.3,0,.1-.2.4-.4.6s-.2.4-.4.6c-.1.2-.2.4-.3.4-.1.2-.3.4-.5.5-.1.1-.4.2-.6.3-.2,0-.4,0-.6,0s-.4,0-.6,0c-.4-.1-.7-.3-.9-.6s-.4-.5-.5-.8c0-.3-.1-.6-.1-1s0-.7.2-1.1c.1-.4.3-.8.5-1.1.2-.4.4-.6.7-.8.3-.2.6-.4,1-.4s.8,0,1.2,0l-.4,1.2h0Z"/>
                <path class="st9" d="M558.9,234.4l-1.7,5.6-1.1-.4.7-2.2-5.8-1.8.4-1.2,5.8,1.8.6-2.2,1.1.4h0Z"/>
                <path class="st9" d="M551.3,239.5l-.4,1.3-1.3-.4.4-1.3,1.3.4Z"/>
              </g>
              <polyline class="st3" points="523.1 -5.3 542.5 7.1 725 36.4"/>
              <polyline class="st2" points="352.6 84 396.7 95.8 447.9 121.3 584.2 124 726.8 148.1"/>
              <line class="st3" x1="570.8" y1="11.8" x2="586.4" y2="-9"/>
              <polyline class="st3" points="531.3 0 474 253.8 443.9 481.5"/>
              <line class="st3" x1="327.9" y1="323.8" x2="722.7" y2="375.8"/>
              <polyline class="st2" points="724.5 315.7 704.2 362.9 679.7 487.7"/>
              <line class="st3" x1="722.7" y1="434.4" x2="513.2" y2="406.4"/>
              <path class="st3" d="M562,484.7s22.5-150.7,23-151.6c.5-1-1.8-18.7-1.8-18.7l10.1-100.1,24.7-23.2,6.9-18.2,9.9,2.5,6.1-.5,56.3,22.3,25.5,2.3"/>
              <line class="st4" x1="277.4" y1="62.8" x2="86.6" y2="44.8"/>
              <line class="st4" x1="281.2" y1="74.5" x2="82.7" y2="55.7"/>
              <polyline class="st4" points="78.4 67.1 269.2 85.1 276.1 141.6 273.6 155 265.2 156.2"/>
              <line class="st4" x1="271.2" y1="96.1" x2="74.2" y2="77.5"/>
              <line class="st4" x1="272.1" y1="108" x2="69.2" y2="88.7"/>
              <line class="st4" x1="219.6" y1="115" x2="63.5" y2="100.2"/>
              <polyline class="st4" points="97.6 116 219.6 127.1 260.9 122.8"/>
              <polyline class="st4" points="97 128.1 222.3 139.2 229.7 140.2 263.4 136.7"/>
              <line class="st4" x1="106.8" y1="22.7" x2="275.5" y2="38.7"/>
              <line class="st4" x1="277.4" y1="27.3" x2="107.8" y2="11.4"/>
              <line class="st4" x1="108.8" y1="0" x2="276.2" y2="14.5"/>
              <polyline class="st4" points="180.2 -4.5 271.2 3.5 275.5 8.9"/>
              <polyline class="st4" points="283.8 -3.3 275.5 8.9 277.4 23.5 274.7 51"/>
              <line class="st4" x1="278.7" y1="-3.3" x2="273.3" y2="6"/>
              <line class="st4" x1="265.8" y1="-5.6" x2="265" y2="2.9"/>
              <polyline class="st4" points="255 -5.6 245.7 93.7 249.5 124"/>
              <polyline class="st4" points="293.4 271.6 281.2 265.1 269 248.4 266.7 206.9 268.4 187.1 260.1 106.8"/>
              <line class="st4" x1="232.3" y1="104.2" x2="235.5" y2="139.6"/>
              <polyline class="st4" points="226.2 0 218 91.1 222.3 139.2 215.6 208"/>
              <line class="st4" x1="199.6" y1="-4.5" x2="175.3" y2="251.4"/>
              <polyline class="st4" points="168.8 -4.5 143.8 261.4 154.2 263.2 171.3 290.5 183.1 286.7"/>
              <polyline class="st4" points="136.5 -3.3 114.7 237.1 128.3 247.9 160.8 251.4 189 295 208.4 305.2 213.4 316.5"/>
              <polyline class="st4" points="143 304.7 164.9 305.1 179.6 327.9"/>
              <polyline class="st4" points="108.8 -5.1 87.1 231.8 244.2 246.4 245.8 228.2"/>
              <line class="st4" x1="70.8" y1="218.6" x2="232.3" y2="233.6"/>
              <polyline class="st4" points="95.6 138.9 220.9 150.8 230.5 151.8 264.4 147.9"/>
              <polyline class="st4" points="266.9 172.6 240 175.7 219.6 174.1 69.9 160.2 66.4 161.2 61.7 206.2 233.9 222.1"/>
              <polyline class="st4" points="94.6 150.5 220 163 245.7 163 250.4 202.1 252.1 226.1 250.9 228.6 233.1 227.1"/>
              <polyline class="st4" points="248.6 187.4 240.9 188.1 65.4 171.4 14.3 166.6 12.4 179.3 -3.1 178.7 -5 192.4 -43.5 192.4 -45.6 193.8 -46.5 197.9"/>
              <polyline class="st4" points="42.6 169.3 40.9 192.4 251.1 211.8"/>
              <line class="st4" x1="250.1" y1="200" x2="41.7" y2="181"/>
              <polyline class="st4" points="195.7 218.6 210.9 254.5 210.9 265 211.9 269.7 217.8 280.3 232.3 297.4 237.1 307.4 236.4 320.6"/>
              <polyline class="st4" points="160.8 251.4 164.3 250.2 210.9 254.5"/>
              <polyline class="st4" points="168.4 263.2 199 265 200.2 262.5 200.7 253.6"/>
              <polyline class="st4" points="210.9 256.8 230.3 257.6 240.4 259.2 240.4 272.3 245.7 276.9 233.3 298.4"/>
              <line class="st4" x1="234.3" y1="210.2" x2="230.3" y2="257.6"/>
              <polyline class="st4" points="289.7 285 284.9 285 274.8 302.6 264 311.9 257.2 323.4 252.1 329.4"/>
              <polyline class="st3" points="722.7 221.7 633.5 243.8 618.2 249 589.7 250.8 569.2 250.8 562 252.9 540.8 248"/>
              <polyline class="st3" points="537 260.9 380.5 240 370.1 200 375.8 175 396.7 95.8 443.9 -10.3"/>
              <line class="st3" x1="375.8" y1="175" x2="555.4" y2="199.7"/>
              <path class="st3" d="M398.1,178.1c-.2,0,1.5-21.9,1.5-21.9l14.6-51.6"/>
              <line class="st3" x1="412.2" y1="180" x2="404.1" y2="243"/>
              <polyline class="st3" points="380.5 240 379.3 253.6 372.7 271.6 342.4 300 335.3 308.4 313.3 355.6 308.8 380.1 320.9 487.7"/>
              <polyline class="st3" points="308.8 380.1 313.3 394.3 322.9 408.6 422 421.5 442.5 248.3"/>
              <polyline class="st3" points="364.3 279.5 373.7 282.1 357.8 413.2"/>
              <polyline class="st3" points="562 481.5 446 466.3 409.6 468.8 408.1 478.7 410.6 484.7"/>
              <line class="st3" x1="482.7" y1="471.1" x2="482.7" y2="484.7"/>
              <polyline class="st3" points="722.7 339.2 663.3 323.8 583.2 314.4"/>
              <polyline class="st3" points="663.3 323.8 709.6 145.2 722.7 54.6"/>
              <polyline class="st3" points="645.9 -5.3 631.8 49 631.8 59.2 645.9 97.8 640.9 110.9 628.7 131.5"/>
              <line class="st3" x1="639.9" y1="81.3" x2="725" y2="95"/>
              <line class="st3" x1="631.8" y1="49" x2="726.8" y2="66"/>
              <polyline class="st3" points="682.4 29.6 665.1 137.7 659.5 161.5 639.9 206.7 634 231 634 248.3 635.8 264.1 630.7 320 627.5 352.3 624.9 362.9"/>
              <line class="st3" x1="592.3" y1="224.6" x2="634" y2="231"/>
              <line class="st3" x1="678.1" y1="266.6" x2="722.7" y2="279.8"/>
              <line class="st3" x1="696.4" y1="332.4" x2="722.7" y2="250.7"/>
              <polyline class="st3" points="586 286.9 615.8 288.1 670.7 295.3 726.8 309.6"/>
              <polyline class="st3" points="462.2 -5.3 436.5 61.7 436.5 84.9 454.6 84.9 471.7 88.2 476 102.3 474.3 121.8"/>
              <path class="st3" d="M454.7,14.1l69.6,16.7"/>
              <line class="st3" x1="489.6" y1="22.5" x2="495.8" y2="-5.3"/>
              <line class="st3" x1="427.3" y1="27.1" x2="448.8" y2="29.6"/>
              <line class="st3" x1="523.1" y1="40.2" x2="604.4" y2="53.1"/>
              <polyline class="st3" points="547.3 44 540.8 72.8 531.3 93.3 526.8 98 524.4 122.8"/>
              <line class="st3" x1="425.1" y1="394.8" x2="454.9" y2="398.7"/>
              <polyline class="st4" points="18.7 215.7 8.7 226.1 -6.9 275.3"/>
              <polyline class="st4" points="60.2 243.1 44.9 262.1 -90.8 296.7"/>
              <polyline class="st4" points="-28.1 200.9 -33.9 211.8 8.7 226.1 19.7 233.9 35.3 251.4 43.5 262.5"/>
              <path class="st4" d="M-2.1,260.1l-26.1-11.1-22.3-5.7-1.4-2,6.3-19.7,3.2-1,47.3,17.5s31.1,26.3,30.9,26.3"/>
              <polyline class="st4" points="-48.4 230.4 -24.5 238.1 1.5 249 20.6 264.4 37.7 326.8 40.9 333.2 65.8 330 67.9 325.5 54.9 275.3"/>
              <polyline class="st4" points="57.5 285.2 -12.1 303.6 -19 278.7"/>
              <line class="st4" x1="-4.5" y1="274.7" x2="11.1" y2="333.2"/>
              <polyline class="st4" points="-15.6 291.1 52.3 273.7 61.7 279.3 70.5 280.8 76.5 285.6 76.5 293.1 72 296.7 71.6 299 77.8 323.9"/>
              <line class="st4" x1="11.9" y1="257.4" x2="7.6" y2="271.6"/>
              <line class="st4" x1="60.6" y1="297.5" x2="5.9" y2="311.9"/>
              <line class="st4" x1="8.2" y1="322.4" x2="63.4" y2="308.1"/>
              <polyline class="st4" points="66.1 318.6 -3.6 337.3 -5.1 338.9 -5.1 340.8 -1.6 341.6 27 338.1 29.6 339.7 29.9 344.8"/>
              <line class="st4" x1="38.4" y1="277.3" x2="35.1" y2="265"/>
              <polyline class="st4" points="67.9 325.5 90.8 321.2 105.5 308.9"/>
              <polyline class="st4" points="164.6 332.2 164 336.8 155.6 342.9 68.8 342.2 28.1 345.5 -20.6 356.4 -36.5 360 -47 360 -66.7 351 -72.5 350.5 -76.6 352.4 -83.9 360"/>
              <polyline class="st4" points="76.5 293.1 93.7 304 104.5 308.1 109.7 311.9 112.3 316.5 113.7 326.7 121.5 334.5 119.8 342.9"/>
              <line class="st4" x1="76.5" y1="317.4" x2="93.7" y2="304"/>
              <polyline class="st4" points="90.8 321.2 96.6 323 103.5 323.9 112.5 318"/>
              <path class="st4" d="M305.4,485.7c.7-.7-16.8-110.9-16.8-110.9l5.1-36.6-14,.6"/>
              <polyline class="st4" points="155.6 342.9 152.4 362.2 129.3 390.1 124.9 396 121.5 421.5 121.5 445.4 111.4 462.6 107.1 463.8 97.3 458.9 92.8 464.8"/>
              <path class="st4" d="M103.7,484.7c0-.9-7.1-17.1-7.1-17.1l-13-9.1-8.6-18"/>
              <polyline class="st4" points="121.5 445.4 214.3 455.2 217.3 452.8 220.3 418.8 123.3 408.2"/>
              <polyline class="st4" points="143.6 372.8 188.1 378.2 179.9 451.5 174.3 485.7"/>
              <line class="st4" x1="134.3" y1="384.1" x2="186.9" y2="389.6"/>
              <line class="st4" x1="185.4" y1="401.9" x2="125" y2="395.8"/>
              <line class="st4" x1="121.5" y1="420.4" x2="219.2" y2="430.9"/>
              <line class="st4" x1="218.1" y1="443" x2="121.5" y2="433.1"/>
              <line class="st4" x1="153.5" y1="423.9" x2="151.2" y2="448.5"/>
              <polyline class="st4" points="161.9 449.8 161.9 456.2 169.8 470.5 176.4 472.7"/>
              <polyline class="st4" points="148.3 448.2 148.3 455.2 161.9 482.7"/>
              <rect class="st10" x="433" y="335.9" width="50.3" height="91.3" transform="translate(23 789) rotate(-82.9)"/>
              <g>
                <path class="st9" d="M420.2,361.8v.7c0,.2.2.4.4.6.1.1.4.3.6.4s.4.1.7.1h.7c.2,0,.4,0,.5-.2.1,0,.2-.2.3-.4,0-.1.1-.3.1-.4,0-.3,0-.5-.1-.6s-.2-.3-.4-.4c-.2-.1-.6-.3-.8-.4-.4-.1-.7-.3-1.2-.5-.3-.1-.6-.3-.7-.4-.2-.1-.4-.4-.4-.5s-.1-.4-.2-.6v-.6c0-.4.1-.6.4-.9s.4-.4.7-.6c.3-.1.6-.2.9-.3h1c.4,0,.7.1,1.1.3.4.1.6.4.8.6.2.2.4.5.5.8.1.3.1.6,0,1h-1.3c0-.6,0-.9-.4-1.2s-.6-.4-1.1-.4h-.5c-.1,0-.3,0-.4,0-.1,0-.3.1-.4.3s-.1.3-.2.4c0,.3,0,.5.1.6.1.1.4.3.6.4,0,0,.1,0,.3.1.1,0,.4.1.6.2.2,0,.4.1.6.3s.4.1.4.2c.2,0,.4.2.6.4s.3.3.4.5.1.4.2.6v.6c0,.4-.1.7-.4,1s-.4.5-.7.6-.6.2-1,.3-.7,0-1.1,0-.8-.1-1.1-.3-.6-.4-.9-.6-.4-.6-.6-.8c-.1-.4-.1-.7-.1-1.2h1.3c0,.1.2.1.2.1Z"/>
                <path class="st9" d="M428.9,358.1h1.3c0,.1,1.9,7.7,1.9,7.7h-1.3c0-.1-.4-2.1-.4-2.1l-2.9-.4-.9,1.8h-1.3c0-.1,3.7-7,3.7-7h0ZM427.9,362.3l2.2.3-.7-3.2h0l-1.5,3h0Z"/>
                <path class="st9" d="M434.1,358.7h1.3c0,.1-.9,7.3-.9,7.3h-1.3c0-.1.9-7.3.9-7.3h0Z"/>
                <path class="st9" d="M437.7,364v.7c0,.2.2.4.4.6.1.1.4.3.6.4s.4.1.7.1h.7c.2,0,.4,0,.5-.2.1,0,.2-.2.3-.3s.1-.3.1-.4c0-.3,0-.5-.1-.6s-.2-.3-.4-.4c-.2-.1-.6-.3-.8-.4-.4-.1-.7-.3-1.2-.5-.3-.1-.6-.3-.7-.4-.2-.1-.4-.4-.4-.5s-.1-.4-.2-.6v-.6c0-.4.1-.6.4-.9s.4-.4.7-.6c.3-.1.6-.2.9-.3h1c.4,0,.7.1,1.1.3.4.1.6.4.8.6.2.2.4.5.5.8.1.3.1.6,0,1h-1.3c0-.6,0-1-.4-1.2s-.6-.4-1.1-.4h-.5c-.1,0-.3,0-.4,0-.1,0-.3.1-.4.3s-.1.3-.2.4c0,.3,0,.5.1.6s.4.3.6.4c0,0,.1,0,.3.1.1,0,.4.1.6.2s.4.1.6.3.4.1.4.2c.2,0,.4.2.6.4s.3.3.4.5.1.4.2.6v.6c0,.4-.1.7-.4,1s-.4.5-.7.6-.6.2-1,.3-.7,0-1.1,0-.8-.1-1.1-.3-.6-.4-.9-.6-.4-.6-.6-.8c-.1-.4-.1-.7-.1-1.2h1.3c0,.1.2,0,.2,0Z"/>
                <path class="st9" d="M444.4,360l5.1.6v1.1c-.1,0-4-.5-4-.5l-.2,1.9,3.6.4v1.1c-.1,0-3.7-.4-3.7-.4l-.3,2.1,4,.5v1.1c-.1,0-5.4-.6-5.4-.6l.9-7.2h0Z"/>
                <path class="st9" d="M451.3,360.8h1.3c0,.1-.9,7.3-.9,7.3h-1.3c0-.1.9-7.3.9-7.3h0Z"/>
                <path class="st9" d="M454.6,361.2h1.3c0,.1-.4,3.4-.4,3.4l3.6-2.9,1.5.2-3.2,2.5,2.5,4.7-1.5-.2-1.9-3.7-1.1.9-.3,2.4h-1.3c0-.1.9-7.3.9-7.3h0Z"/>
                <path class="st9" d="M463.9,362.4h1.3c0,.1,1.9,7.7,1.9,7.7h-1.3c0-.1-.4-2.1-.4-2.1l-2.9-.4-.9,1.8h-1.3c0-.1,3.7-7,3.7-7h0ZM462.9,366.7l2.2.3-.7-3.2h0l-1.5,3h0Z"/>
                <path class="st9" d="M469.1,363.1h1.3c0,.1-.9,7.3-.9,7.3h-1.3c0-.1.9-7.3.9-7.3Z"/>
                <path class="st9" d="M418.1,371.1h1.3c0,.1-.5,4.3-.5,4.3v.7c0,.2,0,.5.1.7s.2.4.4.6.5.3.9.3h1c.2,0,.4-.2.6-.4s.2-.4.3-.6c0-.2,0-.5.1-.7l.5-4.2h1.3c0,.1-.6,4.7-.6,4.7,0,.5-.1.8-.4,1.2s-.4.6-.7.8-.6.4-1,.4c-.4,0-.8,0-1.2,0-.4,0-.8-.1-1.2-.4-.4-.1-.6-.4-.8-.6s-.4-.6-.5-.9c0-.4-.1-.8,0-1.3l.6-4.6h-.2Z"/>
                <path class="st9" d="M432.9,377.7v.7c0,.2.2.4.4.6.1.1.4.3.6.4s.4.1.7.1h.7c.2,0,.4-.1.5-.2s.2-.2.3-.4c0-.1.1-.3.1-.4,0-.3,0-.5-.1-.6s-.2-.3-.4-.4c-.2-.1-.6-.3-.8-.4-.4-.1-.7-.3-1.2-.5-.3-.1-.6-.3-.7-.4s-.4-.4-.4-.5-.1-.4-.2-.6v-.6c0-.4.1-.6.4-.9s.4-.4.7-.6.6-.2.9-.3h1c.4,0,.7.1,1.1.3s.6.4.8.6c.2.2.4.5.5.8.1.3.1.6,0,1h-1.3c0-.6,0-1-.4-1.2s-.6-.4-1.1-.4h-.5c-.1,0-.3,0-.4,0-.1,0-.3.1-.4.2s-.1.3-.2.4c0,.3,0,.5.1.6s.4.3.6.4c0,0,.1,0,.3.1.1,0,.4.1.6.2s.4.1.6.3.4.1.4.2c.2,0,.4.2.6.4s.3.3.4.5c0,.1.1.4.2.6v.6c0,.4-.1.7-.4,1s-.4.5-.7.6-.6.2-1,.3-.7,0-1.1,0-.8-.1-1.1-.3-.6-.4-.9-.6-.4-.6-.6-.8c-.1-.4-.1-.7-.1-1.2h1.3c0,.1.2.2.2.2Z"/>
                <path class="st9" d="M425.8,372l5.8.7v1.1c-.1,0-2.4-.3-2.4-.3l-.8,6.1h-1.3c0-.1.8-6.2.8-6.2l-2.3-.3v-1.1q.1,0,.1,0Z"/>
                <path class="st9" d="M439.3,373.7h1.3c0,.1-.5,4.3-.5,4.3v.7c0,.3,0,.5.1.7s.2.4.4.6.5.3.9.3.7,0,1,0c.2,0,.4-.2.6-.4s.2-.4.3-.6c0-.2,0-.5.1-.7l.5-4.2h1.3c0,.1-.6,4.7-.6,4.7,0,.5-.1.8-.4,1.2s-.4.6-.7.8-.6.4-1,.4c-.4,0-.8,0-1.2,0-.4,0-.8-.1-1.2-.4-.4-.1-.6-.4-.8-.6s-.4-.6-.5-.9-.1-.8,0-1.3l.6-4.6h-.2Z"/>
                <path class="st9" d="M447.1,374.7h1.3c0,.1,2.6,5.8,2.6,5.8h0l.6-5.3h1.2c0,.1-.9,7.3-.9,7.3h-1.3c0-.1-2.6-5.8-2.6-5.8h0l-.6,5.3h-1.2c0-.1.9-7.3.9-7.3h0Z"/>
                <path class="st9" d="M458,375.8c.6,0,1,.2,1.4.5s.7.6,1,.9.4.8.6,1.3c0,.5.1,1,0,1.5,0,.5-.2,1-.4,1.4s-.5.8-.8,1.1-.7.6-1.2.7c-.4.1-.9.2-1.5.1-.6,0-1-.2-1.4-.5s-.7-.6-1-.9-.4-.8-.6-1.3-.1-1,0-1.5c0-.5.2-1,.4-1.4s.5-.8.8-1.1c.4-.3.7-.6,1.2-.7.4-.1.9-.2,1.5-.1h0ZM457.9,376.9c-.4,0-.7,0-1.1.1-.3.1-.6.3-.8.6s-.4.5-.5.8-.2.6-.2,1v1.1c0,.4.1.6.3.9s.4.5.6.7c.3.2.6.3,1,.4s.7,0,1-.1.6-.3.8-.6.4-.5.5-.8.2-.6.3-1v-1.1c0-.4-.1-.6-.3-.9s-.4-.5-.6-.7c-.3-.2-.6-.3-1-.4h0Z"/>
                <path class="st9" d="M463,376.7l1.8.2,1.3,5.8h0l2.6-5.4,1.8.2-.9,7.2h-1.2c0-.1.7-5.7.7-5.7h0l-2.7,5.3h-1.1c0-.1-1.3-5.9-1.3-5.9h0l-.7,5.5h-1.2c0-.1.9-7.3.9-7.3h0Z"/>
                <path class="st9" d="M472.5,377.8h1.3c0,.1-.9,7.3-.9,7.3h-1.3c0-.1.9-7.3.9-7.3Z"/>
                <path class="st9" d="M477.1,382.8l-2.1-4.7,1.5.2,1.5,3.5,2.3-3h1.4c0,.1-3.2,4.2-3.2,4.2l-.4,2.8h-1.3c0-.1.4-3,.4-3h0Z"/>
                <path class="st9" d="M484.7,379.3h1.3c0,.1,1.9,7.7,1.9,7.7h-1.3c0-.1-.4-2.1-.4-2.1l-2.9-.4-.9,1.8h-1.3c0-.1,3.7-7,3.7-7h0ZM483.7,383.6l2.2.3-.7-3.2h0l-1.5,3h0Z"/>
                <path class="st9" d="M416.4,385.2h1.3c0,.1-.4,3-.4,3l3.2.4.4-2.8h1.3c0,.1-.9,7.3-.9,7.3h-1.3c0-.1.4-3.4.4-3.4l-3.2-.4-.4,3.2h-1.3c0-.1.9-7.3.9-7.3Z"/>
                <path class="st9" d="M427.2,386.4c.6,0,1,.2,1.4.5s.7.6,1,.9.4.8.6,1.3c0,.5.1,1,0,1.5,0,.5-.2,1-.4,1.4s-.5.8-.8,1.1c-.4.3-.7.6-1.2.7-.4.1-.9.2-1.5.1s-1-.2-1.4-.5c-.4-.2-.7-.6-1-.9s-.4-.8-.6-1.3-.1-1,0-1.5c0-.5.2-1,.4-1.4s.5-.8.8-1.1c.4-.3.7-.6,1.2-.7s.9-.2,1.5-.1ZM427.2,387.4c-.4,0-.7,0-1.1.1-.3.1-.6.3-.8.6-.2.2-.4.5-.5.8s-.2.6-.3,1,0,.7,0,1.1.1.6.3.9.4.5.6.7c.3.2.6.3,1,.4s.7,0,1.1-.1c.3-.1.6-.3.8-.6s.4-.5.5-.8.2-.6.3-1,0-.7,0-1.1-.1-.6-.3-.9-.4-.5-.6-.7c-.3-.2-.6-.3-1-.4h0Z"/>
                <path class="st9" d="M432.5,392v.7c0,.2.2.4.4.6.1.1.4.3.6.4s.4.1.7.1h.7c.2,0,.4,0,.5-.2.1,0,.2-.2.3-.4,0-.1.1-.3.1-.4,0-.3,0-.5-.1-.6s-.2-.3-.4-.4c-.2-.1-.6-.3-.8-.4-.4-.1-.7-.3-1.2-.5-.3-.1-.6-.3-.7-.4s-.4-.4-.4-.5-.1-.4-.2-.6v-.6c0-.4.1-.7.4-.9s.4-.4.7-.6.6-.2.9-.3h1c.4,0,.7.1,1.1.3s.6.4.8.6c.2.2.4.5.5.8.1.3.1.6,0,1h-1.3c0-.6,0-1-.4-1.2s-.6-.4-1.1-.4h-.5c-.1,0-.3,0-.4,0s-.3.1-.4.2-.1.3-.2.4c0,.3,0,.5.1.6s.4.3.6.4c0,0,.1,0,.3.1s.4.1.6.2.4.1.6.3.4.1.4.2c.2.1.4.2.6.4s.3.3.4.5c0,.1.1.4.2.6v.6c0,.4-.1.7-.4,1s-.4.5-.7.6-.6.2-1,.3-.7,0-1.1,0-.8-.1-1.1-.3-.6-.4-.9-.6c-.2-.2-.4-.6-.6-.8-.1-.4-.1-.7-.1-1.2h1.3c0,.1.2.2.2.2Z"/>
                <path class="st9" d="M439.3,388l3.2.4c.5,0,.9.2,1.2.4s.6.4.7.6c.1.2.2.5.3.8v.7c0,.2,0,.5-.2.7,0,.2-.2.5-.4.7s-.5.4-.8.5-.8.1-1.3,0l-1.9-.2-.4,2.7h-1.3c0-.1.9-7.3.9-7.3h0ZM440.2,391.6l1.8.2h.4c.1,0,.3,0,.4-.1.1,0,.3-.2.4-.4s.1-.4.2-.6v-.6c0-.1-.1-.3-.2-.4-.1-.1-.2-.2-.4-.2s-.3,0-.5-.1l-1.8-.2-.3,2.4h0Z"/>
                <path class="st9" d="M446.5,388.9h1.3c0,.1-.9,7.3-.9,7.3h-1.3c0-.1.9-7.3.9-7.3Z"/>
                <path class="st9" d="M449.1,389.3l5.8.7v1.1c-.1,0-2.4-.3-2.4-.3l-.8,6.1h-1.3c0-.1.8-6.2.8-6.2l-2.3-.3v-1.1q.1,0,.1,0Z"/>
                <path class="st9" d="M458.2,390.4h1.3c0,.1,1.9,7.7,1.9,7.7h-1.3c0-.1-.4-2.1-.4-2.1l-2.9-.4-.9,1.8h-1.3c0-.1,3.7-7,3.7-7h0ZM457.2,394.6l2.2.3-.7-3.2h0l-1.5,3h0Z"/>
                <path class="st9" d="M463.5,391h1.3c0,.1-.8,6.2-.8,6.2l3.7.4v1.1c-.1,0-5.1-.6-5.1-.6l.9-7.2h0Z"/>
              </g>
              <rect class="st13" x="153.5" y="164.6" width="16" height="79.4" transform="translate(-56.4 347.1) rotate(-84.9)"/>
              <g>
                <path class="st9" d="M125.4,197.4l5,.4v1.1c0,0-3.8-.4-3.8-.4v1.9c-.1,0,3.1.3,3.1.3v1.1c0,0-3.4-.3-3.4-.3l-.3,3.2h-1.3c0-.1.6-7.3.6-7.3h0Z"/>
                <path class="st9" d="M131.8,197.9h1.3c0,.1-.4,4.4-.4,4.4v.7c0,.3,0,.5.1.7,0,.2.3.4.4.6.2.1.6.2.9.3.4,0,.7,0,1,0,.2-.1.4-.3.6-.4.1-.2.2-.4.3-.6,0-.3,0-.5,0-.7l.4-4.2h1.3c0,.1-.4,4.7-.4,4.7,0,.5-.1.8-.4,1.2-.1.4-.4.6-.7.8-.3.2-.6.4-1,.4s-.8,0-1.2,0c-.4,0-.8-.1-1.2-.3s-.6-.4-.9-.6-.4-.6-.5-.9-.1-.8,0-1.2l.4-4.6h0Z"/>
                <path class="st9" d="M143.1,203.9c0,.4,0,.6-.1.9s-.2.6-.4.8-.4.4-.8.5-.8.1-1.3,0c-.4,0-.7-.1-1-.3-.3-.1-.5-.4-.6-.6s-.3-.5-.3-.8,0-.6,0-.9v-.4h1.3v.5c0,.4,0,.7,0,1s.4.4.8.4h.5c.1,0,.3-.1.4-.2l.2-.4c0-.1,0-.4,0-.6l.4-4.9h1.3c0,.1-.4,5-.4,5h0Z"/>
                <path class="st9" d="M145.7,199.2h1.3c0,.1-.6,7.3-.6,7.3h-1.3c0-.1.6-7.3.6-7.3h0Z"/>
                <path class="st9" d="M148.9,199.5h1.8c0,.1,1.5,5.9,1.5,5.9h0l2.5-5.5h1.8c0,.1-.6,7.3-.6,7.3h-1.2c0-.1.5-5.7.5-5.7h0l-2.5,5.4h-1.1c0,0-1.5-5.8-1.5-5.8h0l-.5,5.6h-1.2c0-.1.6-7.3.6-7.3h0v.2Z"/>
                <path class="st9" d="M158.4,200.4h1.3c0,.1-.6,7.3-.6,7.3h-1.3c0-.1.6-7.3.6-7.3Z"/>
                <path class="st9" d="M167.3,208.4h-.8c0,0-.1-.9-.1-.9-.4.4-.7.6-1.1.7s-.8.1-1.2.1-1-.2-1.4-.4c-.4-.2-.8-.6-1-.9-.3-.4-.4-.8-.6-1.3-.1-.5-.1-1,0-1.5,0-.5.1-1,.4-1.4s.5-.8.8-1.1c.4-.4.7-.6,1.1-.7s.9-.2,1.5-.1c.4,0,.8.1,1.1.3.4.1.6.4.9.6.3.2.5.5.6.8s.2.7.3,1.1h-1.3c0-.4,0-.6-.1-.8,0-.2-.2-.4-.4-.5s-.4-.3-.6-.4-.4-.1-.6-.1c-.4,0-.7,0-1,.1s-.6.4-.8.6c-.2.3-.4.6-.5.8s-.2.6-.2,1v1.1c0,.4.1.6.3.9s.4.5.6.7c.3.1.6.3,1,.4h.8c.2,0,.5-.1.6-.4.2-.1.4-.4.4-.6.1-.2.2-.5.2-.8h-1.9v-1.1c0,0,3.2.3,3.2.3l-.4,3.8h0v-.3Z"/>
                <path class="st9" d="M171.8,201.6h1.3c0,.1,2.1,7.6,2.1,7.6h-1.3c0-.1-.5-2.1-.5-2.1l-2.9-.3-.8,1.8h-1.3c0-.1,3.4-7.1,3.4-7.1h0ZM170.9,205.9l2.2.2-.8-3.2h0l-1.3,3h0Z"/>
                <path class="st9" d="M180.2,202.1c.6,0,1,.2,1.4.4.4.2.8.6,1,.9.3.4.4.8.6,1.3s.1,1,0,1.5c0,.5-.1,1-.4,1.4s-.5.8-.8,1.1-.7.6-1.1.7-.9.2-1.5.1c-.6,0-1-.2-1.4-.4s-.8-.6-1-.9c-.3-.4-.4-.8-.6-1.3-.1-.5-.1-1,0-1.5s.1-1,.4-1.4.5-.8.8-1.1c.4-.4.7-.6,1.1-.7s.9-.2,1.5-.1h0ZM180,203.2c-.4,0-.7,0-1,.1s-.6.4-.8.6-.4.6-.5.8-.2.6-.2,1v1.1c0,.4.1.6.3.9s.4.5.6.7.6.3,1,.4c.4,0,.7,0,1-.1s.6-.4.7-.6c.2-.3.4-.6.5-.8s.2-.6.2-1v-1.1c0-.4-.1-.6-.3-.9-.1-.3-.4-.5-.6-.7-.3-.1-.6-.3-1-.4h0Z"/>
                <path class="st9" d="M185.2,202.8h1.3c0,.1-.3,3.4-.3,3.4l3.5-3h1.5c0,.1-3.2,2.7-3.2,2.7l2.7,4.6h-1.5c0-.1-2-3.8-2-3.8l-1.1.9-.2,2.4h-1.3c0-.1.6-7.3.6-7.3h0Z"/>
                <path class="st9" d="M194.5,203.6h1.3c0,.1,2.1,7.6,2.1,7.6h-1.3c0-.1-.5-2.1-.5-2.1l-2.9-.3-.8,1.8h-1.3c0-.1,3.4-7.1,3.4-7.1h0ZM193.8,207.9l2.2.2-.8-3.2h0l-1.3,3h0Z"/>
              </g>
              <g>
                <path class="st9" d="M687.3,144.3l-.8,5.8h-1.1c0-.1.3-2.4.3-2.4l-6.1-.8v-1.3c.1,0,6.2.8,6.2.8l.3-2.3h1.1c0,.1,0,.1,0,.1Z"/>
                <path class="st9" d="M686.1,154.5c0,.6-.2,1-.5,1.4s-.6.7-.9,1-.8.4-1.3.5-1,.1-1.5,0c-.5,0-1-.2-1.4-.4s-.8-.5-1.1-.8c-.3-.4-.6-.7-.7-1.2s-.1-.9-.1-1.5.2-1,.5-1.4.6-.7.9-1,.8-.4,1.3-.5,1-.1,1.5,0c.5,0,1,.2,1.4.4s.8.5,1.1.8.6.7.7,1.2c.1.4.2.9.1,1.5h0ZM685.1,154.4c0-.4,0-.7,0-1-.1-.3-.3-.6-.6-.8-.2-.2-.5-.4-.8-.5s-.6-.2-1-.3h-1.1c-.4,0-.6.1-.9.3-.3.1-.5.4-.7.6-.2.3-.3.6-.4,1s0,.7,0,1c.1.3.3.6.6.8.2.2.5.4.8.5s.6.2,1,.3h1.1c.4,0,.6-.1.9-.3.3-.1.5-.4.7-.6s.3-.6.4-1h0Z"/>
                <path class="st9" d="M685.3,159.5v1.3c-.1,0-3-.4-3-.4l-.4,3.2,2.8.4v1.3c-.1,0-7.3-.9-7.3-.9v-1.3c.1,0,3.4.4,3.4.4l.4-3.2-3.2-.4v-1.3c.1,0,7.3.9,7.3.9Z"/>
                <path class="st9" d="M684,170.4c0,.6-.2,1-.5,1.4s-.6.7-.9,1-.8.4-1.3.5-1,.1-1.5,0c-.5,0-1-.2-1.4-.4s-.8-.5-1.1-.8c-.3-.4-.6-.7-.7-1.2s-.1-.9-.1-1.5.2-1,.5-1.4.6-.7.9-1,.8-.4,1.3-.5,1-.1,1.5,0c.5,0,1,.2,1.4.4s.8.5,1.1.8.6.7.7,1.2c.1.4.2.9.1,1.5h0ZM683,170.2c0-.4,0-.7,0-1-.1-.3-.3-.6-.6-.8-.2-.2-.5-.4-.8-.5s-.6-.2-1-.3h-1.1c-.4,0-.6.1-.9.3s-.5.4-.7.6c-.2.3-.3.6-.4,1s0,.7,0,1c.1.3.3.6.6.8.2.2.5.4.8.5s.6.2,1,.3h1.1c.4,0,.6-.1.9-.3.3-.1.5-.4.7-.6s.3-.6.4-1h0Z"/>
                <path class="st9" d="M683.2,175.4v1.3c-.1,0-3.4-.4-3.4-.4l2.8,3.6-.2,1.5-2.5-3.2-4.7,2.5.2-1.5,3.7-1.9-.8-1.1-2.4-.3v-1.3c.1,0,7.3.9,7.3.9h0Z"/>
                <path class="st9" d="M682.3,182.7v1.3c-.1,0-4.3-.6-4.3-.6h-.7c-.3,0-.5,0-.7.1s-.4.2-.6.4c-.1.2-.3.5-.4.9s0,.7,0,1c0,.2.2.4.4.6s.4.2.6.3c.2,0,.5,0,.7.1l4.2.6v1.3c-.1,0-4.7-.6-4.7-.6-.5,0-.8-.2-1.2-.4-.4-.2-.6-.4-.8-.7s-.4-.6-.4-1,0-.8,0-1.2.1-.8.4-1.2.4-.6.6-.8c.3-.2.6-.4.9-.5s.8-.1,1.3,0l4.6.6h0v-.2Z"/>
                <path class="st9" d="M675.9,194h-.7c-.2,0-.4.1-.6.4s-.3.4-.4.6-.1.4-.1.7v.7c0,.2,0,.4.2.5s.2.2.3.3c.1,0,.3.1.4.1.3,0,.5,0,.6,0s.3-.2.4-.4c.1-.2.3-.6.4-.8s.3-.7.5-1.2c.1-.3.3-.6.4-.7.1-.2.4-.4.5-.4s.4-.1.6-.2h.6c.4,0,.6.1.9.4.2.2.4.4.6.7s.2.6.3.9,0,.6,0,1-.1.7-.3,1.1-.4.6-.6.8-.5.4-.8.5c-.3.1-.6.1-1,0v-1.3c.6,0,1,0,1.2-.4s.4-.6.4-1.1v-.4c0-.1,0-.3,0-.4,0-.1-.1-.3-.2-.4s-.3-.1-.4-.2c-.3,0-.5,0-.6.1s-.3.4-.4.6c0,0,0,.1-.1.3s-.1.4-.2.6-.1.4-.3.6c0,.2-.1.4-.2.4-.1.2-.2.4-.4.6-.1.1-.4.3-.5.4-.2,0-.4.1-.6.2h-.6c-.4,0-.7-.1-1-.4s-.5-.4-.6-.7-.2-.6-.3-1v-1.1c0-.4.1-.8.3-1.1s.4-.6.6-.8.6-.4.8-.6c.4-.1.7-.1,1.2,0v1.3h-.1Z"/>
                <path class="st9" d="M679.9,200.8v1.3c-.1,0-3-.4-3-.4l-.4,3.2,2.8.4v1.3c-.1,0-7.3-.9-7.3-.9v-1.3c.1,0,3.4.4,3.4.4l.4-3.2-3.2-.4v-1.3c.1,0,7.3.9,7.3.9Z"/>
                <path class="st9" d="M678.9,208.6v1.3c-.1,0-7.3-.9-7.3-.9v-1.3c.1,0,7.3.9,7.3.9Z"/>
                <path class="st9" d="M678.5,211.9v1.3c-.1,0-5.8,2.6-5.8,2.6h0l5.3.7v1.2c-.1,0-7.3-.9-7.3-.9v-1.3c.1,0,5.8-2.5,5.8-2.5h0l-5.3-.7v-1.2c.1,0,7.3.9,7.3.9h0Z"/>
                <path class="st9" d="M677.4,219.6v1.3c-.1,0-3.4-.4-3.4-.4l2.8,3.6-.2,1.5-2.5-3.2-4.7,2.5.2-1.5,3.7-1.9-.8-1.1-2.4-.4v-1.3c.1,0,7.3.9,7.3.9h0Z"/>
                <path class="st9" d="M676.2,228.9v1.3c-.1,0-7.7,1.8-7.7,1.8v-1.3c.1,0,2.1-.4,2.1-.4l.4-2.9-1.8-.9v-1.3c.1,0,7,3.7,7,3.7h0ZM672,227.9l-.3,2.2,3.2-.7h0l-3-1.5h0Z"/>
                <path class="st9" d="M675.5,234.1v1.3c-.1,0-5.8,2.6-5.8,2.6h0l5.3.7v1.2c-.1,0-7.3-.9-7.3-.9v-1.3c.1,0,5.8-2.5,5.8-2.5h0l-5.3-.7v-1.2c.1,0,7.3.9,7.3.9h0Z"/>
                <path class="st9" d="M669.7,242.1h-.7c-.2,0-.4.1-.6.4s-.3.4-.4.6-.1.4-.1.7v.7c0,.2,0,.4.2.5,0,.1.2.2.3.3.1,0,.3.1.4.1.3,0,.5,0,.6,0s.3-.2.4-.4c.1-.2.3-.6.4-.8s.3-.7.5-1.2c.1-.3.3-.6.4-.7.1-.2.4-.4.5-.4s.4-.1.6-.2h.6c.4,0,.6.1.9.4s.4.4.6.7.2.6.3.9,0,.6,0,1-.1.7-.3,1.1-.4.6-.6.8-.5.4-.8.5-.6.1-1,0v-1.3c.6,0,1,0,1.2-.4s.4-.6.4-1.1v-.4c0-.1,0-.3,0-.4,0-.1-.1-.3-.2-.4s-.3-.1-.4-.2c-.3,0-.5,0-.6.1s-.3.4-.4.6c0,0,0,.1-.1.3s-.1.4-.2.6-.1.4-.3.6c0,.2-.1.4-.2.4-.1.2-.2.4-.4.6-.1.1-.4.3-.5.4s-.4.1-.6.2h-.6c-.4,0-.7-.1-1-.4s-.5-.4-.6-.7-.2-.6-.3-1v-1.1c0-.4.1-.8.3-1.1s.4-.6.6-.8.6-.4.8-.6c.4-.1.7-.1,1.2,0v1.3h-.1Z"/>
                <path class="st9" d="M673.6,248.9l-.7,5.1h-1.1c0-.1.5-4,.5-4l-1.9-.3-.5,3.6h-1.1c0-.1.5-3.7.5-3.7l-2.1-.3-.5,3.9h-1.1c0-.1.7-5.4.7-5.4l7.2.9h0Z"/>
                <path class="st9" d="M672.7,255.7v1.3c-.1,0-5.8,2.6-5.8,2.6h0l5.3.7v1.2c-.1,0-7.3-.9-7.3-.9v-1.3c.1,0,5.8-2.5,5.8-2.5h0l-5.3-.7v-1.2c.1,0,7.3.9,7.3.9h0Z"/>
              </g>
              <g>
                <path class="st9" d="M661.3,343.1l-.8,5.8h-1.1c0-.1.3-2.4.3-2.4l-6.1-.8v-1.3c.1,0,6.2.8,6.2.8l.3-2.3h1.1c0,.1,0,.1,0,.1Z"/>
                <path class="st9" d="M652.8,351.5c0-.4.1-.8.4-1.1.1-.3.4-.6.7-.8s.6-.4.9-.4.7,0,1.1,0c.4,0,.8.1,1.1.4s.6.4.8.6.4.6.5.9c0,.4.1.7,0,1.1,0,.4-.1.8-.4,1.1-.1.3-.4.6-.7.8-.3.2-.6.4-.9.4s-.7,0-1.1,0c-.4,0-.8-.1-1.1-.4s-.6-.4-.8-.6-.4-.6-.5-.9c0-.4-.1-.7,0-1.1h0ZM653.7,351.6c0,.3,0,.5,0,.7s.2.4.4.5.4.3.6.4.4.1.6.1h.7c.2,0,.4,0,.6-.2s.4-.2.5-.4.2-.4.2-.6,0-.5,0-.7-.2-.4-.4-.5-.4-.3-.6-.4-.4-.1-.6-.1h-.7c-.3,0-.4,0-.6.2-.2,0-.4.2-.5.4-.1.1-.2.4-.2.6h0Z"/>
                <path class="st9" d="M653.7,363.1c-.4,0-.6-.1-.9-.2-.3,0-.6-.2-.8-.4s-.4-.5-.5-.8c0-.4-.1-.8,0-1.3,0-.4.1-.7.3-1s.4-.4.6-.6.5-.3.8-.3h1.3v1.3h-.5c-.4,0-.7,0-1,0s-.4.4-.4.7v.5c0,.1.1.3.2.4s.2.1.4.2c.1,0,.4,0,.6.1l4.9.6v1.3c-.1,0-5-.6-5-.6h0Z"/>
                <path class="st9" d="M658.3,365.8l-.4,3.5c-.1.8-.4,1.3-.8,1.7s-.9.5-1.5.4c-.4,0-.6-.1-.8-.3s-.4-.3-.5-.4-.2-.3-.2-.4,0-.2,0-.3h0c0,0,0,.2-.1.4,0,.1-.1.2-.3.3-.1,0-.3.1-.5.2h-1.9c-.4,0-.6,0-.8.2v-1.3c.3,0,.5-.1.7,0s.4,0,.6,0h.8c.2,0,.4,0,.6-.1s.3-.2.4-.4c0-.1.1-.4.2-.7l.2-1.8-3-.4v-1.3c.1,0,7.3.9,7.3.9h0ZM654.9,366.7l-.3,2c0,.4,0,.7.1.9s.4.4.8.4h.6c.1,0,.3-.1.4-.2s.1-.2.2-.4c0-.1,0-.3,0-.5l.3-2-2.3-.3h0Z"/>
                <path class="st9" d="M656.9,376.6v1.3c-.1,0-4.3-.6-4.3-.6h-.7c-.2,0-.5,0-.7.1s-.4.2-.6.4-.3.5-.4.9,0,.7,0,1c0,.2.2.4.4.6s.4.2.6.3c.2,0,.5,0,.7.1l4.2.6v1.3c-.1,0-4.7-.6-4.7-.6-.5,0-.8-.2-1.2-.4s-.6-.4-.8-.7-.4-.6-.4-1v-1.2c0-.4.1-.8.4-1.2s.4-.6.6-.8.6-.4.9-.5c.4,0,.8-.1,1.3,0l4.6.6h0v-.2Z"/>
                <path class="st9" d="M656,383.7l-.8,5.8h-1.1c0-.1.3-2.4.3-2.4l-6.1-.8v-1.3c.1,0,6.2.8,6.2.8l.3-2.3h1.1c0,.1,0,.1,0,.1Z"/>
                <path class="st9" d="M650.2,391h-.7c-.2,0-.4.1-.6.4s-.3.4-.4.6-.1.4-.1.7v.7c0,.2,0,.4.2.5,0,.1.2.2.3.3.1,0,.3.1.4.1.3,0,.5,0,.6-.1s.3-.2.4-.4c.1-.2.3-.6.4-.8.1-.4.3-.7.5-1.2.1-.3.3-.6.4-.7.1-.2.4-.4.5-.4s.4-.1.6-.2h.6c.4,0,.6.1.9.4.2.2.4.4.6.7s.2.6.3.9,0,.6,0,1-.1.7-.3,1.1-.4.6-.6.8c-.2.2-.5.4-.8.5-.3.1-.6.1-1,0v-1.3c.6,0,1,0,1.2-.4s.4-.6.4-1.1v-.5c0-.1,0-.3,0-.4,0-.1-.1-.3-.2-.4s-.3-.1-.4-.2c-.3,0-.5,0-.6.1s-.3.4-.4.6c0,0,0,.1-.1.3s-.1.4-.2.6-.1.4-.3.6-.1.4-.2.4c-.1.2-.2.4-.4.6s-.4.3-.5.4c-.2,0-.4.1-.6.2h-.6c-.4,0-.7-.1-1-.4s-.5-.4-.6-.7-.2-.6-.3-1v-1.1c0-.4.1-.8.3-1.1s.4-.6.6-.8.6-.4.8-.6c.4-.1.7-.1,1.2,0v1.3h-.1Z"/>
                <path class="st9" d="M654.2,397.8v1.3c-.1,0-4.3-.6-4.3-.6h-.7c-.3,0-.5,0-.7.1s-.4.2-.6.4-.3.5-.4.9,0,.7,0,1c0,.2.2.4.4.6s.4.2.6.3c.2,0,.5,0,.7.1l4.2.6v1.3c-.1,0-4.7-.6-4.7-.6-.5,0-.8-.2-1.2-.4-.4-.2-.6-.4-.8-.7s-.4-.6-.4-1v-1.2c0-.4.1-.8.4-1.2s.4-.6.6-.8.6-.4.9-.5.8-.1,1.3,0l4.6.6h0v-.2Z"/>
                <path class="st9" d="M653.1,405.5v1.3c-.1,0-5.8,2.6-5.8,2.6h0l5.3.7v1.2c-.1,0-7.3-.9-7.3-.9v-1.3c.1,0,5.8-2.6,5.8-2.6h0l-5.3-.7v-1.2c.1,0,7.3.9,7.3.9h0Z"/>
                <path class="st9" d="M651.9,416.4c0,.6-.2,1-.5,1.4s-.6.7-.9,1-.8.4-1.3.5-1,.1-1.5,0c-.5,0-1-.2-1.4-.4s-.8-.5-1.1-.8c-.3-.4-.6-.7-.7-1.2s-.1-.9-.1-1.5.2-1,.5-1.4.6-.7.9-1,.8-.4,1.3-.5,1-.1,1.5,0c.5,0,1,.2,1.4.4s.8.5,1.1.8.6.7.7,1.2c.1.4.2.9.1,1.5h0ZM650.9,416.3c0-.4,0-.7,0-1.1-.1-.3-.3-.6-.6-.8-.2-.2-.5-.4-.8-.5s-.6-.2-1-.3h-1.1c-.4,0-.6.1-.9.3-.3.1-.5.4-.7.6s-.3.6-.4,1,0,.7,0,1.1c.1.3.3.6.6.8.2.2.5.4.8.5s.6.2,1,.3h1.1c.4,0,.6-.1.9-.3.3-.1.5-.4.7-.6s.3-.6.4-1Z"/>
                <path class="st9" d="M651.1,421.5l-.2,1.8-5.8,1.3h0l5.4,2.7-.2,1.8-7.2-.9v-1.2c.1,0,5.6.7,5.6.7h0l-5.3-2.7v-1.1c.1,0,5.9-1.3,5.9-1.3h0l-5.5-.8v-1.2c.1,0,7.3.9,7.3.9h0Z"/>
                <path class="st9" d="M649.8,430.9v1.3c-.1,0-7.3-.9-7.3-.9v-1.3c.1,0,7.3.9,7.3.9Z"/>
                <path class="st9" d="M644.8,435.5l4.7-2.1-.2,1.5-3.5,1.5,3,2.3-.2,1.4-4-3.2-2.8-.4v-1.3c.1,0,3,.4,3,.4h0Z"/>
                <path class="st9" d="M648.2,443.2v1.3c-.1,0-7.7,1.8-7.7,1.8v-1.3c.1,0,2.1-.4,2.1-.4l.4-2.9-1.8-.9v-1.3c.1,0,7,3.7,7,3.7h0ZM644,442.1l-.3,2.2,3.2-.7h0l-3-1.5h0Z"/>
                <path class="st9" d="M642.2,451.9h-.7c-.2,0-.4.1-.6.4s-.3.4-.4.6-.1.4-.1.7v.7c0,.2,0,.4.2.5,0,.1.2.2.3.3.1,0,.3.1.4.1.3,0,.5,0,.6-.1s.3-.2.4-.4c.1-.2.3-.6.4-.8s.3-.7.5-1.2c.1-.3.3-.6.4-.7.1-.2.4-.4.5-.4s.4-.1.6-.2h.6c.4,0,.6.1.9.4s.4.4.6.7.2.6.3.9,0,.6,0,1-.1.7-.3,1.1-.4.6-.6.8c-.2.2-.5.4-.8.5s-.6.1-1,0v-1.3c.6,0,1,0,1.2-.4s.4-.6.4-1.1v-.5c0-.1,0-.3,0-.4,0-.1-.1-.3-.2-.4s-.3-.1-.4-.2c-.3,0-.5,0-.6.1s-.3.4-.4.6c0,0,0,.1-.1.3s-.1.4-.2.6-.1.4-.3.6-.1.4-.2.4c-.1.2-.2.4-.4.6s-.4.3-.5.4-.4.1-.6.2h-.6c-.4,0-.7-.1-1-.4s-.5-.4-.6-.7-.2-.6-.3-1v-1.1c0-.4.1-.8.3-1.1s.4-.6.6-.8.6-.4.8-.6c.4-.1.7-.1,1.2,0v1.3h-.1Z"/>
                <path class="st9" d="M644.3,457.7v.8c-.1,0,1.4.2,1.4.2v1.1c-.1,0-1.7-.2-1.7-.2v1.1c-.1,0-1-.1-1-.1v-1.1c.1,0-2.6-.4-2.6-.4h-.5s-.1,0-.1.1c0,0,0,.1,0,.3v.4h-.8v-.8c0-.3,0-.6.2-.7,0-.1.2-.3.3-.4s.3-.1.4-.1h.6l3,.4v-.8c.1,0,1,.1,1,.1h0Z"/>
                <path class="st9" d="M639.2,465.9h-.3s-.1,0-.1.2h0v.3h-.8v-.7h0c0-.4.1-.6.2-.7s.3-.2.6-.2c-.2-.3-.4-.6-.4-.9v-1c0-.2,0-.5.2-.6s.2-.4.4-.6c.1-.1.4-.3.5-.4.2,0,.4,0,.7,0,.4,0,.6.1.8.3s.4.4.4.5c0,.2.1.4.1.7v1.8c0,.1,0,.3.1.4,0,0,.2.1.4.1h.4c.1,0,.2-.1.2-.2s.1-.2.1-.4v-.4c0-.4,0-.6,0-.8-.1-.2-.3-.4-.6-.4v-1.1c.5,0,.7.2.9.4s.4.4.5.6c.1.2.1.5.2.8s0,.6,0,.8,0,.5-.1.7c0,.2-.2.4-.4.6-.1.2-.4.4-.6.4s-.4.1-.7,0l-2.7-.4h0ZM640.7,465c0-.2-.1-.4-.1-.7v-1.1c0-.1,0-.2-.1-.4l-.2-.2c0,0-.2-.1-.4-.1h-.4c0,0-.1.1-.2.2s-.1.2-.1.4,0,.2,0,.4v.4c0,.1,0,.3.1.4,0,.1.1.3.3.4s.3.1.4.2h.8c0,.1,0,.2,0,.2Z"/>
                <path class="st9" d="M639.1,467.8l-.2,1.4h-1.3c0-.1.2-1.5.2-1.5h1.3Z"/>
              </g>
              <rect class="st13" x="393" y="64.4" width="12.9" height="100.9" transform="translate(157.9 453.1) rotate(-70.5)"/>
              <g>
                <path class="st9" d="M360.5,97.1l1.2.4-2.5,6.8-1.2-.4,2.5-6.8h0Z"/>
                <path class="st9" d="M363,98l1.2.4-.6,5.6h0l3.2-4.7,1.2.4-.6,5.7h0l3.1-4.7,1.2.4-4.3,6.1-1.2-.4.5-5.7h0l-3.2,4.7-1.3-.4.6-7.5h.1Z"/>
                <path class="st9" d="M375,102.3l1.3.4.2,7.7-1.3-.4v-2l-2.7-1-1.3,1.5-1.2-.4,5.1-5.8h-.1ZM373.1,106.2l2.1.8v-3.3h0l-2.1,2.5h0Z"/>
                <path class="st9" d="M379.8,104l5.1,1.8-.4.9-5.7,3.5,4.1,1.5-.4,1.1-5.6-2,.4-1,5.7-3.4-3.7-1.3.4-1.1h0Z"/>
                <path class="st9" d="M389.4,107.3c.5.2.9.4,1.3.8s.6.7.8,1.1c.1.4.2.8.2,1.3s0,1-.3,1.5c-.1.5-.4.9-.7,1.3s-.6.7-1.1.9-.8.4-1.3.4-1,0-1.5-.2c-.5-.2-.9-.4-1.3-.8s-.6-.7-.8-1.1-.2-.8-.2-1.3,0-1,.3-1.5c.1-.5.4-.9.7-1.3s.6-.7,1.1-.9.8-.4,1.3-.4,1,0,1.5.2h0ZM389.1,108.3c-.4-.1-.7-.1-1-.1s-.6.1-.8.4-.5.4-.6.7-.4.6-.5.9-.2.6-.2,1v1c0,.4.2.6.4.8s.5.4.8.6.7.1,1,.1.6-.1.8-.4.5-.4.6-.7.4-.6.5-.9.2-.6.2-1v-1c0-.4-.2-.6-.4-.8s-.5-.4-.8-.6h0Z"/>
                <path class="st9" d="M397.2,110.2l1.3.4,1.3,6.1h0l1.8-5,1.1.4-2.5,6.8-1.3-.4-1.3-6.1h0l-1.8,5-1.1-.4,2.5-6.8h0Z"/>
                <path class="st9" d="M406.5,113.5l1.3.4.2,7.7-1.3-.4v-2l-2.7-1-1.3,1.5-1.2-.4,5.1-5.8h-.1ZM404.6,117.5l2.1.8v-3.3h0l-2.1,2.5h0Z"/>
                <path class="st9" d="M411.5,115.4l1.2.4-1.1,3.1,4.2-2,1.5.6-3.7,1.8,1.4,5.1-1.5-.6-1.1-4-1.3.6-.8,2.3-1.2-.4,2.5-6.8h0Z"/>
                <path class="st9" d="M420.3,118.5l1.3.4.2,7.7-1.3-.4v-2l-2.7-1-1.3,1.5-1.2-.4,5.1-5.8h-.1ZM418.4,122.5l2.1.8v-3.3h0l-2.1,2.5h0Z"/>
                <path class="st9" d="M427.6,126.2c0,.3-.1.5-.1.7s0,.4.2.6.3.4.5.4c.2.1.4.2.6.3.3,0,.5.1.7.1s.4,0,.6,0c.1,0,.3-.1.4-.2s.1-.2.2-.4c0-.3.1-.5,0-.6s-.1-.3-.3-.4c-.2-.1-.5-.4-.8-.6-.3-.2-.6-.4-1.1-.7-.3-.1-.5-.4-.6-.6s-.3-.4-.4-.6,0-.4,0-.6c0-.2,0-.4.1-.6.1-.4.3-.6.6-.8.2-.2.5-.4.8-.4.3,0,.6,0,.9,0s.6,0,.9.2c.4.1.7.3,1,.5s.5.4.7.7c.1.3.3.6.4.9,0,.3,0,.6-.1,1l-1.2-.4c.1-.4,0-.8-.1-1.1-.2-.3-.5-.5-.9-.6-.1,0-.3,0-.4-.1s-.3,0-.4,0-.3,0-.4.1-.2.2-.3.4c0,.2,0,.4,0,.6s.3.4.5.5c0,0,.1,0,.3.2s.4.2.6.4.4.3.6.4c.2.1.4.2.4.3.2.1.4.3.5.5.1.1.2.4.3.6s0,.4,0,.6,0,.4-.1.6c-.1.4-.4.7-.6.9-.3.2-.6.4-.8.4s-.6,0-1,0-.7-.1-1.1-.2c-.4-.1-.7-.3-1.1-.6s-.6-.5-.7-.8c-.2-.3-.3-.6-.4-1s0-.8.1-1.2l1.2.4h0v.2Z"/>
                <path class="st9" d="M434.4,123.5l5.5,2-.4,1.1-2.2-.8-2,5.8-1.2-.4,2-5.8-2.2-.8.4-1.1h0Z"/>
                <path class="st9" d="M439.1,131.5l1.3.5-.5,1.3-1.3-.5.5-1.3Z"/>
              </g>
              <rect class="st9" x="91" y="66.3" width="165.9" height="83.4"/>
              <line class="st6" x1="694.2" y1="-9" x2="624.9" y2="490.1"/>
              <line class="st7" x1="693.6" y1="-4.4" x2="625.4" y2="486.2"/>
            </g>
          </g>
          <g>
            <rect class="st9" y="428.7" width="134.2" height="50.8"/>
            <g>
              <path class="st11" d="M35.3,450.3c0,.9-.3,1.5-.8,2s-1.2.6-2.2.6-.6,0-.9,0-.6-.1-.8-.3-.5-.4-.6-.6-.3-.6-.3-.8h1.3c0,.2.1.4.2.4,0,.1.2.2.4.3s.3.1.4.1h.5c.6,0,.9-.1,1.2-.4.2-.3.4-.6.4-1.1v-.9h0c-.2.4-.4.6-.8.8s-.6.3-1.1.3-.8,0-1.2-.2-.6-.4-.8-.7c-.2-.3-.4-.6-.5-1,0-.4-.1-.8-.1-1.2s0-.8.2-1.1.3-.7.6-.9c.2-.3.5-.5.8-.6s.7-.2,1.1-.2.7,0,1.1.2.6.4.7.8h0v-.8h1.3v5.6h0ZM32.4,449.6c.3,0,.6,0,.7-.1.2-.1.4-.3.5-.5s.2-.4.3-.7,0-.5,0-.8,0-.5,0-.7-.1-.4-.3-.6-.3-.4-.5-.4-.4-.1-.7-.1-.6,0-.7.2c-.2.1-.4.3-.5.5s-.2.4-.3.7c0,.2,0,.5,0,.8s0,.5,0,.7.1.4.3.6.3.4.5.4.4.1.7.1h0Z"/>
              <path class="st11" d="M40.7,450.8c-.5,0-.9,0-1.3-.2s-.7-.4-.9-.6c-.3-.3-.4-.6-.6-1s-.2-.8-.2-1.3,0-.8.2-1.3c.1-.4.4-.7.6-1,.3-.3.6-.5.9-.6s.8-.2,1.3-.2.9,0,1.3.2.7.4.9.6c.3.3.4.6.6,1s.2.8.2,1.3,0,.8-.2,1.3c-.1.4-.4.7-.6,1-.3.3-.6.5-.9.6s-.8.2-1.3.2ZM40.7,449.8c.3,0,.6,0,.8-.2s.4-.3.6-.5.2-.4.3-.7,0-.5,0-.8,0-.5,0-.8c0-.3-.1-.5-.3-.7s-.4-.4-.6-.5-.5-.2-.8-.2-.6,0-.8.2-.4.3-.6.5-.2.4-.3.7c0,.3,0,.5,0,.8s0,.5,0,.8c0,.2.1.5.3.7s.4.4.6.5.5.2.8.2Z"/>
              <path class="st11" d="M48.9,450.8c-.5,0-.9,0-1.3-.2s-.7-.4-.9-.6c-.3-.3-.4-.6-.6-1-.1-.4-.2-.8-.2-1.3s0-.8.2-1.3c.1-.4.4-.7.6-1,.3-.3.6-.5.9-.6s.8-.2,1.3-.2.9,0,1.3.2.7.4.9.6c.3.3.4.6.6,1,.1.4.2.8.2,1.3s0,.8-.2,1.3c-.1.4-.4.7-.6,1-.3.3-.6.5-.9.6s-.8.2-1.3.2ZM48.9,449.8c.3,0,.6,0,.8-.2s.4-.3.6-.5.2-.4.3-.7,0-.5,0-.8,0-.5,0-.8c0-.3-.1-.5-.3-.7-.1-.2-.3-.4-.6-.5-.2-.1-.5-.2-.8-.2s-.6,0-.8.2c-.2.1-.4.3-.6.5-.1.2-.2.4-.3.7,0,.3,0,.5,0,.8s0,.5,0,.8c0,.2.1.5.3.7.1.2.3.4.6.5.2.1.5.2.8.2Z"/>
              <path class="st11" d="M59.9,450.3c0,.9-.3,1.5-.8,2s-1.2.6-2.2.6-.6,0-.9,0-.6-.1-.8-.3-.5-.4-.6-.6-.3-.6-.3-.8h1.3c0,.2.1.4.2.4,0,.1.2.2.4.3s.3.1.4.1h.5c.6,0,.9-.1,1.2-.4s.4-.6.4-1.1v-.9h0c-.2.4-.4.6-.8.8s-.6.3-1.1.3-.8,0-1.2-.2-.6-.4-.8-.7c-.2-.3-.4-.6-.5-1,0-.4-.1-.8-.1-1.2s0-.8.2-1.1.3-.7.6-.9c.2-.3.5-.5.8-.6s.7-.2,1.1-.2.7,0,1.1.2c.3.1.6.4.7.8h0v-.8h1.3v5.6h0ZM57,449.6c.3,0,.6,0,.8-.1.2-.1.4-.3.5-.5s.2-.4.3-.7,0-.5,0-.8,0-.5,0-.7-.1-.4-.3-.6-.3-.4-.5-.4c-.2-.1-.4-.1-.7-.1s-.6,0-.8.2c-.2.1-.4.3-.5.5s-.2.4-.3.7c0,.2,0,.5,0,.8s0,.5,0,.7.1.4.3.6.3.4.5.4.4.1.7.1h0Z"/>
              <path class="st11" d="M62.7,442.4h1.3v8.2h-1.3v-8.2Z"/>
              <path class="st11" d="M67.8,448c0,.2,0,.4,0,.7,0,.2.1.4.3.6.1.1.3.3.5.4s.4.1.7.1.7,0,.9-.2.4-.4.5-.7h1.3c0,.4-.2.6-.4.8s-.4.5-.6.6c-.2.1-.5.3-.8.4s-.6.1-.9.1c-.5,0-.8,0-1.3-.2-.4-.1-.6-.4-.9-.6-.2-.3-.4-.6-.6-1-.1-.4-.2-.8-.2-1.3s0-.8.2-1.2.4-.7.6-1,.6-.5.9-.7.8-.3,1.2-.3.9,0,1.3.3c.4.2.7.5.9.8s.4.7.6,1.1.1.8,0,1.3h-4.4,0ZM70.9,447.1c0-.2,0-.4-.1-.6,0-.2-.1-.4-.3-.5s-.3-.3-.5-.4-.4-.1-.6-.1-.4,0-.6.1-.4.2-.5.4-.2.3-.4.5c0,.2-.1.4-.1.6h3.2Z"/>
              <path class="st11" d="M79.2,444.7h1.3v.8h0c0-.1.2-.3.4-.4s.2-.2.4-.3c.1,0,.3-.1.5-.2s.4,0,.6,0c.4,0,.7,0,1,.2s.6.4.6.8c.2-.3.5-.6.8-.7s.6-.3,1.1-.3,1.1.1,1.5.5c.4.3.5.8.5,1.5v4.1h-1.3v-4.1c0-.2,0-.4-.1-.5s-.2-.3-.4-.4-.4-.1-.6-.1c-.4,0-.8.1-1,.4-.2.3-.3.7-.3,1.2v3.5h-1.3v-3.8c0-.4,0-.7-.2-.9s-.4-.4-.8-.4-.4,0-.5.1c-.1,0-.3.1-.4.3s-.2.3-.3.5c0,.2-.1.4-.1.6v3.5h-1.3v-5.9h0Z"/>
              <path class="st11" d="M95.5,449.3v.4c0,0,.1.1.3.1h.4v.9h-.8c-.3,0-.5,0-.6-.1s-.3-.3-.4-.6c-.3.3-.6.4-1,.6s-.8.1-1.1.1-.6,0-.8-.1c-.3,0-.5-.2-.6-.4-.2-.1-.4-.4-.4-.6s-.1-.5-.1-.8,0-.7.2-.9.3-.4.6-.6.5-.2.8-.3.6,0,.8-.1c.2,0,.5,0,.7,0s.4,0,.6,0c.1,0,.3-.1.4-.2,0,0,.1-.2.1-.4s0-.3-.1-.4c0-.1-.2-.2-.3-.2-.1,0-.3,0-.4-.1h-.4c-.4,0-.6,0-.9.2s-.4.4-.4.7h-1.3c0-.4.1-.7.3-1s.4-.5.6-.6.6-.3.8-.4.6,0,1,0,.6,0,.8,0c.3,0,.6.1.8.3s.4.4.6.6.2.5.2.8v3h0l-.2.3ZM94.2,447.7c-.2.1-.4.2-.8.2s-.6,0-.8.1c-.1,0-.3,0-.4,0-.1,0-.3,0-.4.1s-.1.1-.2.3,0,.3,0,.4,0,.3.1.4.2.1.3.2c.1,0,.3,0,.4.1h.9c.2,0,.4-.1.5-.2s.3-.2.4-.4.1-.4.1-.5v-1h0Z"/>
              <path class="st11" d="M98.3,444.7h1.3v.8h0c.2-.4.4-.6.8-.8.4-.1.7-.2,1.1-.2s.8,0,1.2.2.6.4.8.7.4.6.5,1c.1.4.1.8.1,1.3s0,.8-.1,1.2-.3.7-.5,1-.5.5-.8.7c-.4.1-.7.3-1.1.3h-.6c-.2,0-.4,0-.6-.1s-.4-.1-.5-.3-.3-.3-.4-.4h0v3h-1.3v-8.2h0ZM102.9,447.7c0-.3,0-.6,0-.8,0-.3-.1-.5-.3-.7s-.3-.4-.5-.5-.4-.1-.7-.1c-.6,0-1,.2-1.3.6s-.4.9-.4,1.5,0,.6.1.8.2.5.4.6.3.4.5.4c.2.1.4.1.7.1s.6,0,.8-.2c.2-.1.4-.3.5-.5s.2-.4.3-.7,0-.5,0-.8h0Z"/>
            </g>
            <line class="st8" x1="111.1" y1="464.2" x2="22.2" y2="464.2"/>
          </g>
          <g>
            <g>
              <path class="st11" d="M104.9,86.8l-3.6-5.8h1.9l2.5,4.3,2.5-4.3h1.8l-3.6,5.8v3.7h-1.7v-3.7h.1Z"/>
              <path class="st11" d="M114.4,81h1.8l3.7,9.5h-1.8l-.9-2.5h-3.8l-.9,2.5h-1.7l3.7-9.5h0ZM113.8,86.8h2.9l-1.4-4.1h0l-1.4,4.1h0Z"/>
              <path class="st11" d="M122.6,81h2.3l2.6,7.5h0l2.5-7.5h2.3v9.5h-1.5v-7.3h0l-2.6,7.3h-1.3l-2.6-7.3h0v7.3h-1.5v-9.5h-.1Z"/>
              <path class="st11" d="M140.4,80.8c.7,0,1.3.1,1.9.4s1.1.6,1.4,1.1.7,1,.9,1.5.3,1.3.3,1.9,0,1.3-.3,1.9c-.2.6-.5,1.1-.9,1.5s-.8.8-1.4,1.1c-.6.3-1.2.4-1.9.4s-1.3-.1-1.9-.4-1.1-.6-1.4-1.1-.7-1-.9-1.5-.3-1.3-.3-1.9,0-1.3.3-1.9c.2-.6.5-1.1.9-1.5s.8-.8,1.4-1.1,1.2-.4,1.9-.4ZM140.4,82.1c-.5,0-.9,0-1.3.3s-.6.5-.9.8-.4.7-.5,1.2c-.1.4-.1.8-.1,1.3s0,.9.1,1.3.3.8.5,1.2.6.6.9.8.8.3,1.3.3.9,0,1.3-.3.6-.5.9-.8.4-.7.5-1.2c.1-.4.1-.8.1-1.3s0-.9-.1-1.3-.3-.8-.5-1.2-.6-.6-.9-.8c-.4-.2-.8-.3-1.3-.3Z"/>
              <path class="st11" d="M148.3,81h4.5c1.1,0,1.8.2,2.4.7.5.5.8,1.1.8,1.9s0,.8-.2,1.1c-.1.3-.3.6-.5.7-.1.2-.4.3-.6.4s-.3.1-.4.1h0c.1,0,.3,0,.4.1s.3.2.4.4.3.4.4.6.1.6.1.9c0,.6,0,1.1.1,1.5,0,.5.2.8.4,1h-1.8c-.1-.2-.2-.4-.2-.7v-.7c0-.4,0-.8,0-1.1,0-.3-.1-.6-.3-.8-.1-.2-.4-.4-.6-.5s-.6-.1-.9-.1h-2.5v3.9h-1.7v-9.5h0ZM149.9,85.4h2.7c.6,0,.9-.1,1.2-.4s.4-.6.4-1.1,0-.6-.1-.8-.2-.4-.4-.4c-.1-.1-.4-.1-.6-.2h-3.3v3h0Z"/>
              <path class="st11" d="M160,81h1.7v9.5h-1.7v-9.5Z"/>
              <path class="st11" d="M173.1,87.3c0,.4,0,.7.2.9s.3.5.5.6c.2.1.5.3.8.4s.6.1.9.1.7,0,.9-.1c.3,0,.5-.2.6-.4s.3-.3.4-.5c0-.1,0-.4,0-.6,0-.4,0-.6-.3-.8-.1-.1-.4-.3-.6-.4-.4-.1-.7-.2-1.2-.4s-1-.3-1.7-.4c-.4-.1-.8-.2-1-.4-.3-.1-.5-.4-.6-.6s-.3-.4-.4-.7c0-.2,0-.5,0-.7,0-.5,0-.9.3-1.3.2-.4.5-.6.8-.8.4-.2.7-.4,1.1-.5s.8-.1,1.3-.1,1,0,1.4.2c.4.1.8.4,1.1.6.4.3.6.6.8.9.2.4.3.8.3,1.3h-1.7c0-.6-.3-1.1-.6-1.3-.4-.3-.8-.4-1.4-.4h-.6c-.2,0-.4.1-.6.2-.1,0-.3.2-.4.4s-.1.4-.1.6,0,.6.3.8c.2.2.5.4.8.4,0,0,.1,0,.4.1.3,0,.5.1.8.2.3,0,.6.1.9.2s.5.1.6.1c.3,0,.6.2.8.4.2.1.4.4.6.6s.3.4.4.7.1.5.1.8c0,.6,0,1-.4,1.3-.2.4-.5.7-.8.9s-.8.4-1.2.6-.9.1-1.4.1-1.1,0-1.5-.2-.9-.4-1.3-.6-.6-.6-.8-1.1-.4-.9-.4-1.5h1.9Z"/>
              <path class="st11" d="M181.1,81h7.7v1.4h-3v8.1h-1.7v-8.1h-3v-1.4h0Z"/>
              <path class="st11" d="M194.5,86.8l-3.6-5.8h1.9l2.5,4.3,2.5-4.3h1.8l-3.5,5.8v3.7h-1.7v-3.7h0Z"/>
              <path class="st11" d="M202.5,81h1.7v8.1h4.9v1.4h-6.5v-9.5h0Z"/>
              <path class="st11" d="M211.7,81h6.8v1.4h-5.2v2.5h4.8v1.3h-4.8v2.7h5.3v1.4h-7v-9.5h0Z"/>
              <path class="st11" d="M222.9,88.7h1.8v1.8h-1.8s0-1.8,0-1.8Z"/>
              <path class="st11" d="M103.5,103.9c0,.4,0,.7.2.9s.3.5.5.6.5.3.8.4.6.1.9.1.7,0,.9-.1c.3,0,.5-.2.6-.4s.3-.3.4-.4c0-.1,0-.4,0-.6,0-.4,0-.6-.3-.8-.1-.1-.4-.3-.6-.4-.4-.1-.7-.2-1.2-.4s-1-.3-1.7-.4c-.4,0-.8-.3-1-.4-.3-.1-.5-.4-.6-.6s-.3-.4-.4-.7,0-.5,0-.7c0-.5,0-.9.3-1.3.2-.4.5-.6.8-.8s.7-.4,1.1-.5c.4-.1.8-.1,1.3-.1s1,0,1.4.2c.4.1.8.4,1.1.6.4.3.6.6.8,1,.2.4.3.8.3,1.3h-1.7c0-.6-.3-1.1-.6-1.3s-.8-.4-1.4-.4h-.6c-.2,0-.4,0-.6.2-.1,0-.3.2-.4.4s-.1.4-.1.6,0,.6.3.8c.2.2.5.4.8.4,0,0,.1,0,.4.1s.5.1.8.2c.3,0,.6.1.9.2s.5.1.6.1c.3,0,.6.2.8.4.2.1.4.4.6.6s.3.4.4.7.1.5.1.8c0,.6,0,1-.4,1.3-.2.4-.5.7-.8.9s-.8.4-1.2.6-.9.1-1.4.1-1.1,0-1.5-.2-.9-.4-1.3-.6-.6-.6-.8-1.1-.4-.9-.4-1.5h1.9Z"/>
              <path class="st11" d="M115.2,97.6h1.8l3.7,9.5h-1.8l-.9-2.5h-3.8l-.9,2.5h-1.7l3.7-9.5h0ZM114.6,103.3h2.9l-1.4-4.1h0l-1.4,4.1h0Z"/>
              <path class="st11" d="M123.4,97.6h1.7v8.1h4.9v1.4h-6.5v-9.5h0Z"/>
              <path class="st11" d="M135.9,97.3c.7,0,1.3.1,1.9.4s1.1.6,1.4,1.1.7,1,.9,1.5.3,1.3.3,1.9,0,1.3-.3,1.9c-.2.6-.5,1.1-.9,1.5-.4.4-.8.8-1.4,1.1s-1.2.4-1.9.4-1.3-.1-1.9-.4-1.1-.6-1.4-1.1-.7-1-.9-1.5-.3-1.3-.3-1.9,0-1.3.3-1.9c.2-.6.5-1.1.9-1.5.4-.4.8-.8,1.4-1.1s1.2-.4,1.9-.4ZM135.9,98.8c-.5,0-.9,0-1.3.3s-.6.5-.9.8c-.2.4-.4.7-.5,1.1-.1.4-.1.8-.1,1.3s0,.9.1,1.3.3.8.5,1.1.6.6.9.8.8.3,1.3.3.9,0,1.3-.3.6-.5.9-.8c.2-.4.4-.7.5-1.1.1-.4.1-.8.1-1.3s0-.9-.1-1.3-.3-.8-.5-1.1c-.2-.4-.6-.6-.9-.8s-.8-.3-1.3-.3Z"/>
              <path class="st11" d="M144,97.6h1.8l4.4,7h0v-7h1.5v9.5h-1.8l-4.3-7h0v7h-1.5v-9.5h0Z"/>
              <path class="st11" d="M165.2,106c-.4.4-.8.8-1.2,1-.4.2-.9.3-1.5.3s-.8,0-1.2-.2c-.4-.1-.7-.3-1-.6s-.5-.6-.6-.9-.2-.8-.2-1.2,0-.6.2-.9c.1-.3.3-.6.5-.8s.4-.4.7-.6.6-.4.8-.5c-.1-.1-.3-.3-.4-.5-.1-.1-.2-.3-.3-.5,0-.1-.1-.4-.2-.6,0-.2,0-.4,0-.6,0-.4,0-.6.2-.9.1-.3.3-.5.5-.7s.5-.4.8-.4.6-.1.9-.1.6,0,.9.1.6.2.8.4.4.4.6.7.2.6.2,1,0,.6-.1.8c0,.2-.2.4-.4.6-.1.2-.4.4-.6.6s-.4.3-.6.4l1.5,1.8c0-.1,0-.4.1-.5s0-.4.1-.8h1.3c0,.4-.1.8-.3,1.2s-.3.8-.5,1.1l1.8,2.2h-1.8l-.8-1.1h-.2ZM162.5,102.7c-.1,0-.3.1-.5.3-.1,0-.4.2-.5.4s-.3.3-.4.5-.1.4-.1.7c0,.5.1.9.4,1.2s.6.4,1.1.4.5,0,.7-.1.4-.1.5-.3c.1,0,.3-.2.4-.4s.1-.2.3-.4l-1.8-2.3h0ZM163.1,98.5c-.3,0-.5,0-.7.3s-.3.4-.3.8,0,.3,0,.4l.2.4c0,.1.1.3.3.4,0,.1.2.3.3.4.1,0,.3-.2.4-.3.1,0,.3-.2.4-.4s.2-.3.3-.4,0-.3,0-.5,0-.6-.3-.8-.4-.3-.7-.3h0Z"/>
              <path class="st11" d="M181.8,107.1h-1.1l-.3-1.1c-.4.5-.9.8-1.3,1.1s-1,.3-1.5.3-1.3-.1-1.9-.4-1.1-.6-1.4-1.1-.7-1-.9-1.5-.3-1.3-.3-1.9,0-1.3.3-1.9c.2-.6.5-1.1.9-1.5s.8-.8,1.4-1.1,1.2-.4,1.9-.4,1,0,1.5.2c.5.1.8.4,1.3.6.4.3.7.6.9,1s.4.8.4,1.4h-1.6c0-.3-.1-.6-.3-.8s-.4-.4-.6-.6-.5-.3-.8-.4-.6-.1-.8-.1c-.5,0-.9,0-1.3.3s-.6.5-.9.8c-.2.4-.4.7-.5,1.1s-.1.8-.1,1.3,0,.9.1,1.3.3.8.5,1.1.6.6.9.8.8.3,1.3.3.8,0,1.1-.1.6-.3.8-.5.4-.5.5-.8c.1-.4.1-.7.2-1.1h-2.5v-1.3h4.1v5h0Z"/>
              <path class="st11" d="M187.8,97.6h1.8l3.7,9.5h-1.8l-.9-2.5h-3.8l-.9,2.5h-1.7l3.7-9.5h0ZM187.1,103.3h2.9l-1.4-4.1h0l-1.4,4.1h0Z"/>
              <path class="st11" d="M195.9,97.6h1.7v8.1h4.9v1.4h-6.5v-9.5h0Z"/>
              <path class="st11" d="M204.7,97.6h1.7v8.1h4.9v1.4h-6.5v-9.5h0Z"/>
              <path class="st11" d="M213.9,97.6h6.8v1.4h-5.2v2.5h4.8v1.3h-4.8v2.7h5.3v1.4h-7v-9.5h0Z"/>
              <path class="st11" d="M223.9,97.6h4.6c1.1,0,1.8.2,2.4.7.5.4.8,1.1.8,1.9s0,.8-.2,1.1c-.1.3-.3.6-.5.7-.1.2-.4.3-.6.4s-.3.1-.4.1h0c.1,0,.3,0,.4.1s.4.2.4.4c.1.1.3.4.4.6s.1.6.1.9c0,.6,0,1.1.1,1.5,0,.4.2.8.4,1h-1.8c-.1-.2-.2-.4-.2-.7v-.7c0-.4,0-.8,0-1.1,0-.3-.1-.6-.3-.8-.1-.2-.4-.4-.6-.4s-.6-.1-.9-.1h-2.5v3.9h-1.7v-9.5h0ZM225.6,101.9h2.7c.6,0,.9-.1,1.2-.4s.4-.6.4-1.1,0-.6-.1-.8-.2-.4-.4-.4-.4-.1-.6-.2h-3.3v3h0Z"/>
              <path class="st11" d="M237.4,103.4l-3.6-5.8h1.9l2.5,4.3,2.5-4.3h1.8l-3.5,5.8v3.7h-1.7v-3.7h0Z"/>
            </g>
            <g>
              <path class="st11" d="M104.9,120.9l-2.2-3.6h1.2l1.5,2.6,1.5-2.6h1.1l-2.2,3.6v2.3h-1v-2.3h0Z"/>
              <path class="st11" d="M112.5,122.3v.3c0,0,0,0,.1,0h.2v.6h-.6c-.2,0-.4,0-.5-.1-.1,0-.2-.2-.3-.4-.2.2-.4.3-.7.4s-.6.1-.8.1-.4,0-.6,0-.4-.1-.5-.2-.2-.2-.3-.4-.1-.4-.1-.6,0-.5.1-.6.2-.3.4-.4c.1,0,.4-.1.5-.2.2,0,.4,0,.6,0s.4,0,.5,0,.3,0,.4,0,.2,0,.3-.1,0-.1,0-.3,0-.2,0-.3-.1-.1-.2-.1-.1,0-.3,0h-.3c-.3,0-.5,0-.6.1s-.3.3-.3.5h-.9c0-.3,0-.5.2-.7.1-.1.3-.4.4-.4s.4-.2.6-.2h1.3c.2,0,.4.1.6.2s.3.2.4.4c0,.1.1.4.1.6v2.2h0ZM111.6,121.1c-.1,0-.3.1-.6.1s-.4,0-.6,0c0,0-.2,0-.3,0s-.1,0-.3.1c0,0-.1.1-.1.2v.3c0,0,0,.2,0,.3,0,0,.1.1.2.1s.1,0,.3,0h.6c.1,0,.2,0,.4-.1s.2-.1.3-.3,0-.2,0-.4v-.7h0Z"/>
              <path class="st11" d="M113.9,119h.9v.6h0c0,0,.1-.2.2-.3,0,0,.1-.1.3-.2s.2,0,.4-.1h.4c.3,0,.5,0,.7.1s.4.3.5.6c.1-.2.4-.4.6-.5.2-.1.5-.2.8-.2.4,0,.8.1,1.1.4s.4.6.4,1.1v2.9h-.9v-3c0-.1,0-.3,0-.4l-.2-.2c0,0-.3,0-.4,0-.3,0-.6,0-.7.3s-.2.5-.2.8v2.5h-.9v-2.7c0-.3,0-.5-.1-.6s-.3-.2-.6-.2-.2,0-.4,0c-.1,0-.2.1-.3.2s-.1.2-.2.4,0,.3,0,.5v2.5h-.9v-4.2h-.1Z"/>
              <path class="st11" d="M123.4,123.4c-.4,0-.6,0-.9-.1s-.5-.3-.6-.5-.4-.4-.4-.7-.1-.6-.1-.9,0-.6.1-.9.2-.5.4-.7.4-.4.6-.5c.3-.1.6-.1.9-.1s.6,0,.9.1c.3.1.5.3.6.5s.4.4.4.7.1.6.1.9,0,.6-.1.9-.2.5-.4.7-.4.4-.6.5c-.3.1-.6.1-.9.1ZM123.4,122.6c.2,0,.4,0,.6-.1.1,0,.3-.2.4-.4s.1-.3.2-.5c0-.1,0-.4,0-.6s0-.4,0-.6c0-.2-.1-.4-.2-.5s-.2-.3-.4-.4-.4-.1-.6-.1-.4,0-.6.1c-.1,0-.3.2-.4.4s-.1.3-.2.5c0,.1,0,.4,0,.6s0,.4,0,.6.1.4.2.5.2.3.4.4.4.1.6.1Z"/>
              <path class="st11" d="M126.7,119h.8v.8h0c0-.1,0-.2.1-.4s.1-.2.3-.3c.1,0,.2-.1.4-.2s.3,0,.4,0h.4v.9h-.4c-.1,0-.3,0-.4,0-.1,0-.3.1-.4.3s-.2.3-.3.4c0,.2,0,.4,0,.6v2h-.9v-4.2h0Z"/>
              <path class="st11" d="M130,117.4h.9v.9h-.9v-.9ZM130,119h.9v4.2h-.9v-4.2Z"/>
              <path class="st11" d="M138,120.4c0-.3-.1-.4-.3-.6s-.4-.2-.6-.2h-.4c-.1,0-.3.1-.4.2-.1.1-.2.3-.3.5s-.1.4-.1.8v.6c0,.2,0,.4.2.5s.2.3.4.4.3.1.5.1.5,0,.7-.3.3-.4.4-.7h.9c0,.6-.3,1-.6,1.3s-.8.4-1.3.4-.6,0-.8-.1-.5-.3-.6-.4c-.1-.2-.3-.4-.4-.7,0-.3-.1-.6-.1-.8s0-.6.1-.9.2-.5.4-.7.4-.4.6-.5.6-.1.9-.1.5,0,.7,0c.2,0,.4.1.6.3s.3.3.4.5.1.4.2.7h-.9Z"/>
              <path class="st11" d="M142,123.4c-.4,0-.6,0-.9-.1s-.5-.3-.6-.5-.4-.4-.4-.7-.1-.6-.1-.9,0-.6.1-.9.2-.5.4-.7.4-.4.6-.5c.3-.1.6-.1.9-.1s.6,0,.9.1c.3.1.5.3.6.5s.4.4.4.7.1.6.1.9,0,.6-.1.9-.2.5-.4.7-.4.4-.6.5c-.3.1-.6.1-.9.1ZM142,122.6c.2,0,.4,0,.6-.1.1,0,.3-.2.4-.4s.1-.3.2-.5c0-.1,0-.4,0-.6s0-.4,0-.6c0-.2-.1-.4-.2-.5s-.2-.3-.4-.4-.4-.1-.6-.1-.4,0-.6.1c-.1,0-.3.2-.4.4s-.1.3-.2.5c0,.1,0,.4,0,.6s0,.4,0,.6.1.4.2.5.2.3.4.4.4.1.6.1Z"/>
              <path class="st11" d="M145.4,122.1h1.1v1.1h-1.1v-1.1Z"/>
              <path class="st11" d="M148.1,122.1h1.1v1.1c0,.4-.1.6-.3.8-.2.2-.5.4-.8.4v-.5c.2,0,.3-.1.4-.3,0-.1.1-.3.1-.5h-.6v-1.1h0Z"/>
              <path class="st11" d="M150.7,117.4h.9v5.8h-.9v-5.8Z"/>
              <path class="st11" d="M152.7,119h.7v-1.3h.9v1.3h.8v.7h-.8v2.5h0c0,.1,0,.2.1.3h.7v.7h-.6c-.3,0-.4,0-.6,0-.1,0-.3-.1-.4-.2s-.1-.2-.1-.4v-3h-.7v-.7h-.1Z"/>
              <path class="st11" d="M160.2,123.3h-.9v-.6h0c-.1.3-.3.4-.6.6s-.5.1-.8.1-.6,0-.8-.1-.4-.3-.6-.5c-.1-.2-.3-.4-.4-.7s-.1-.6-.1-.9,0-.7.1-1,.2-.5.4-.7.4-.3.6-.4c.2,0,.4-.1.7-.1h.4c.1,0,.3,0,.4.1s.2.1.4.2l.3.3h0v-2.2h.9v5.8h0ZM157,121.1c0,.2,0,.4,0,.6s.1.4.2.5.2.3.4.4.4.1.5.1.4,0,.6-.1c.1,0,.3-.2.4-.4s.1-.3.2-.5c0-.1,0-.4,0-.6,0-.5,0-.8-.3-1.1s-.5-.4-.8-.4-.4,0-.6.1c-.1,0-.3.2-.4.4s-.1.3-.2.5,0,.4,0,.6h0Z"/>
              <path class="st11" d="M161.7,122.1h1.1v1.1h-1.1v-1.1Z"/>
              <path class="st11" d="M103.4,129h4v.9h-3v1.5h2.7v.8h-2.7v2.6h-1v-5.8h0Z"/>
              <path class="st11" d="M112.2,134.8h-.9v-.6h0c-.1.2-.3.4-.5.5-.2.1-.4.2-.7.2-.6,0-1-.1-1.2-.4-.3-.3-.4-.7-.4-1.3v-2.7h.9v2.6c0,.4,0,.6.2.8s.4.2.6.2.4,0,.5,0c.1,0,.2-.1.3-.2s.1-.2.1-.4v-2.9h.9v4.2h0Z"/>
              <path class="st11" d="M113.7,130.5h.9v4.6c0,.4,0,.8-.3,1s-.5.4-.9.4-.1,0-.2,0h-.2v-.8h.3c.1,0,.3,0,.3-.1v-5.1h.1ZM113.7,129h.9v.9h-.9v-.9Z"/>
              <path class="st11" d="M116,129h.9v.9h-.9v-.9ZM116,130.5h.9v4.2h-.9v-4.2Z"/>
              <path class="st11" d="M118.4,130.5h.9v.6h0c0,0,.1-.2.2-.3s.1-.1.3-.2c0,0,.2,0,.4-.1s.3,0,.4,0c.3,0,.5,0,.7.1s.4.3.5.6c.1-.2.4-.4.6-.5.2-.1.5-.2.8-.2.4,0,.8.1,1.1.4s.4.6.4,1.1v2.9h-.9v-3c0-.1,0-.3,0-.4l-.2-.2c0,0-.3,0-.4,0-.3,0-.6,0-.7.3s-.2.5-.2.8v2.5h-.9v-2.7c0-.3,0-.5-.1-.6s-.3-.2-.6-.2-.2,0-.4,0c-.1,0-.2.1-.3.2s-.1.2-.2.4,0,.3,0,.5v2.5h-.9v-4.2h-.1Z"/>
              <path class="st11" d="M125.9,129h.9v.9h-.9v-.9ZM125.9,130.5h.9v4.2h-.9v-4.2Z"/>
              <path class="st11" d="M132.2,134.5c0,.6-.1,1.1-.6,1.4s-.8.5-1.5.5-.4,0-.6,0-.4-.1-.6-.2-.4-.2-.4-.4-.2-.4-.2-.6h.9c0,.1,0,.2.1.3,0,0,.1.1.2.2s.2,0,.3,0h.4c.4,0,.6,0,.8-.3.1-.2.3-.4.3-.8v-.6h0c-.1.2-.3.4-.6.6s-.5.2-.7.2-.6,0-.8-.1-.4-.3-.6-.5-.3-.4-.4-.7,0-.6,0-.8,0-.6.1-.8.2-.5.4-.7.4-.4.6-.5.5-.1.8-.1.5,0,.8.1.4.3.5.6h0v-.6h.9v4h0ZM130.2,134c.2,0,.4,0,.6-.1s.3-.2.4-.4.1-.3.2-.5v-1.1c0-.1-.1-.3-.2-.4,0-.1-.2-.2-.4-.3s-.3-.1-.5-.1-.4,0-.5.1c-.1,0-.3.2-.4.4s-.1.3-.2.5v1.1c0,.1.1.3.2.4,0,.1.2.2.4.3.1,0,.3.1.5.1h0Z"/>
              <path class="st11" d="M137.1,133.8v.3c0,0,0,0,.1,0h.2v.6h-.6c-.2,0-.4,0-.5-.1-.1,0-.2-.2-.3-.4-.2.1-.4.3-.7.4s-.6.1-.8.1-.4,0-.6,0-.4-.1-.5-.2-.2-.2-.3-.4-.1-.4-.1-.6,0-.5.1-.6.2-.3.4-.4.4-.1.5-.2c.2,0,.4,0,.6,0s.4,0,.5,0,.3,0,.4,0,.2,0,.3-.1,0-.1,0-.3,0-.2,0-.3-.1-.1-.2-.1-.1,0-.3,0h-.3c-.3,0-.5,0-.6.1s-.3.3-.3.5h-.9c0-.3,0-.5.2-.7s.3-.4.4-.4.4-.2.6-.2h1.3c.2,0,.4.1.6.2.1,0,.3.2.4.4,0,.1.1.4.1.6v2.2h0ZM136.2,132.6c-.1,0-.3.1-.6.1s-.4,0-.6,0c0,0-.2,0-.3,0,0,0-.1,0-.3.1,0,0-.1.1-.1.2v.3c0,0,0,.2,0,.3,0,0,.1.1.2.1s.1,0,.3,0h.6c.1,0,.2,0,.4-.1s.2-.1.3-.3,0-.2,0-.4v-.7h0Z"/>
              <path class="st11" d="M140.5,134.9c-.4,0-.6,0-.9-.1-.3-.1-.5-.3-.6-.5s-.4-.4-.4-.7-.1-.6-.1-.9,0-.6.1-.9c0-.3.2-.5.4-.7s.4-.4.6-.5c.3-.1.6-.1.9-.1s.6,0,.9.1c.3.1.5.3.6.5s.4.4.4.7.1.6.1.9,0,.6-.1.9-.2.5-.4.7-.4.4-.6.5c-.3.1-.6.1-.9.1ZM140.5,134.2c.2,0,.4,0,.6-.1.1,0,.3-.2.4-.4s.1-.3.2-.5c0-.1,0-.4,0-.6s0-.4,0-.6c0-.1-.1-.4-.2-.5s-.2-.3-.4-.4-.4-.1-.6-.1-.4,0-.6.1c-.1,0-.3.2-.4.4s-.1.3-.2.5c0,.2,0,.4,0,.6s0,.4,0,.6.1.4.2.5.2.3.4.4.4.1.6.1Z"/>
              <path class="st11" d="M143.8,129h.9v3.3l1.7-1.7h1.1l-1.6,1.5,1.8,2.7h-1.1l-1.3-2-.6.6v1.5h-.9v-5.8h0Z"/>
              <path class="st11" d="M152.2,133.8v.3c0,0,0,0,.1,0h.2v.6h-.6c-.2,0-.4,0-.5-.1-.1,0-.2-.2-.3-.4-.2.1-.4.3-.7.4s-.6.1-.8.1-.4,0-.6,0-.4-.1-.5-.2-.2-.2-.3-.4-.1-.4-.1-.6,0-.5.1-.6.2-.3.4-.4.4-.1.5-.2c.2,0,.4,0,.6,0s.4,0,.5,0,.3,0,.4,0,.2,0,.3-.1,0-.1,0-.3,0-.2,0-.3-.1-.1-.2-.1-.1,0-.3,0h-.3c-.3,0-.5,0-.6.1s-.3.3-.3.5h-.9c0-.3,0-.5.2-.7s.3-.4.4-.4.4-.2.6-.2h1.3c.2,0,.4.1.6.2.1,0,.3.2.4.4,0,.1.1.4.1.6v2.2h0ZM151.2,132.6c-.1,0-.3.1-.6.1s-.4,0-.6,0c0,0-.2,0-.3,0,0,0-.1,0-.3.1,0,0-.1.1-.1.2v.3c0,0,0,.2,0,.3,0,0,.1.1.2.1s.1,0,.3,0h.6c.1,0,.2,0,.4-.1s.2-.1.3-.3,0-.2,0-.4v-.7h0Z"/>
              <path class="st11" d="M156.4,129h1.5l1.6,4.6h0l1.5-4.6h1.4v5.8h-1v-4.5h0l-1.6,4.5h-.8l-1.6-4.5h0v4.5h-1v-5.8h0Z"/>
              <path class="st11" d="M165.9,134.9c-.4,0-.6,0-.9-.1-.3-.1-.5-.3-.6-.5s-.4-.4-.4-.7-.1-.6-.1-.9,0-.6.1-.9c0-.3.2-.5.4-.7s.4-.4.6-.5c.3-.1.6-.1.9-.1s.6,0,.9.1c.3.1.5.3.6.5s.4.4.4.7.1.6.1.9,0,.6-.1.9-.2.5-.4.7-.4.4-.6.5c-.3.1-.6.1-.9.1ZM165.9,134.2c.2,0,.4,0,.6-.1.1,0,.3-.2.4-.4s.1-.3.2-.5c0-.1,0-.4,0-.6s0-.4,0-.6c0-.1-.1-.4-.2-.5s-.2-.3-.4-.4-.4-.1-.6-.1-.4,0-.6.1c-.1,0-.3.2-.4.4s-.1.3-.2.5c0,.2,0,.4,0,.6s0,.4,0,.6.1.4.2.5.2.3.4.4.4.1.6.1Z"/>
              <path class="st11" d="M173.3,134.8h-.9v-.6h0c-.1.3-.3.4-.6.6s-.5.1-.8.1-.6,0-.8-.1-.4-.3-.6-.5c-.1-.2-.3-.4-.4-.7s-.1-.6-.1-.9,0-.7.1-1c0-.3.2-.5.4-.7.1-.2.4-.3.6-.4.2,0,.4-.1.7-.1h.4c.1,0,.3,0,.4.1s.2.1.4.2l.3.3h0v-2.2h.9v5.8h0ZM170,132.7c0,.1,0,.4,0,.6s.1.4.2.5.2.3.4.4.4.1.5.1.4,0,.6-.1c.1,0,.3-.2.4-.4s.1-.3.2-.5c0-.1,0-.4,0-.6,0-.5,0-.8-.3-1.1s-.5-.4-.8-.4-.4,0-.6.1c-.1,0-.3.2-.4.4s-.1.3-.2.5,0,.4,0,.6h0Z"/>
              <path class="st11" d="M175.4,132.9c0,.1,0,.4,0,.5,0,.1.1.3.2.4s.2.2.4.3.3,0,.5,0,.5,0,.6-.1.3-.3.4-.6h.9c0,.2-.1.4-.3.6-.1.2-.3.4-.4.4-.1.1-.4.2-.6.3s-.4,0-.6,0c-.4,0-.6,0-.9-.1-.3-.1-.5-.3-.6-.4s-.3-.4-.4-.7-.1-.6-.1-.9,0-.6.1-.8c0-.3.2-.5.4-.7s.4-.4.6-.5.6-.1.8-.1.6,0,.9.2c.3.1.5.4.6.6s.3.5.4.8,0,.6,0,.9h-3.1.1ZM177.6,132.3c0-.1,0-.3,0-.4s-.1-.3-.2-.4-.2-.2-.4-.3c-.1,0-.3,0-.4,0s-.3,0-.4,0-.3.1-.4.2-.1.2-.2.4,0,.3,0,.4h2.2,0Z"/>
              <path class="st11" d="M179.7,129h.9v5.8h-.9v-5.8h0Z"/>
              <path class="st11" d="M182,129h.9v2.2h0c.1-.2.3-.4.5-.5s.5-.2.8-.2c.5,0,.8.1,1.1.4s.4.6.4,1.1v2.9h-.9v-2.7c0-.4,0-.6-.2-.7-.1-.1-.4-.2-.6-.2s-.3,0-.4,0-.2.1-.4.2c0,0-.1.2-.2.4,0,.1,0,.3,0,.4v2.5h-.9v-5.8h0Z"/>
              <path class="st11" d="M189.1,134.9c-.4,0-.6,0-.9-.1s-.5-.3-.7-.5-.4-.4-.4-.7-.1-.6-.1-.9,0-.6.1-.9c0-.3.2-.5.4-.7s.4-.4.7-.5.6-.1.9-.1.6,0,.9.1.5.3.7.5.4.4.4.7.1.6.1.9,0,.6-.1.9-.2.5-.4.7-.4.4-.7.5-.6.1-.9.1ZM189.1,134.2c.2,0,.4,0,.6-.1.1,0,.3-.2.4-.4s.1-.3.2-.5,0-.4,0-.6,0-.4,0-.6c0-.1-.1-.4-.2-.5,0-.1-.2-.3-.4-.4s-.4-.1-.6-.1-.4,0-.6.1c-.1,0-.3.2-.4.4s-.1.3-.2.5c0,.2,0,.4,0,.6s0,.4,0,.6.1.4.2.5c0,.1.2.3.4.4s.4.1.6.1Z"/>
              <path class="st11" d="M196.2,134.8h-.9v-.6h0c-.1.2-.3.4-.5.5s-.4.2-.7.2c-.6,0-1-.1-1.2-.4-.3-.3-.4-.7-.4-1.3v-2.7h.9v2.6c0,.4,0,.6.2.8.1.1.4.2.6.2s.4,0,.5,0c.1,0,.2-.1.4-.2s.1-.2.1-.4v-2.9h.9v4.2h0Z"/>
              <path class="st11" d="M198.3,133.4c0,.3.1.5.3.6.2.1.4.1.6.1h.3c0,0,.2,0,.4,0,0,0,.1,0,.2-.1s0-.1,0-.3,0-.2-.1-.3-.2-.1-.4-.2c-.1,0-.3,0-.4-.1-.1,0-.4,0-.5,0s-.4,0-.5-.1-.3-.1-.4-.2-.2-.2-.3-.4-.1-.4-.1-.6,0-.4.1-.6.3-.3.4-.4.4-.1.6-.2.4,0,.6,0,.4,0,.6,0c.2,0,.4.1.6.2s.3.2.4.4.1.4.2.6h-1c0-.2-.1-.4-.3-.4s-.4-.1-.6-.1h-.5c0,0-.1,0-.2.1s0,.1,0,.2,0,.2.1.3c0,0,.2.1.3.1.1,0,.3,0,.4.1.1,0,.4,0,.5,0s.4,0,.5.1.3.1.4.2.2.2.3.4.1.3.1.6,0,.5-.1.6-.3.3-.4.4-.4.2-.6.2-.4,0-.6,0-.5,0-.7,0c-.2,0-.4-.1-.6-.3-.1-.1-.3-.3-.4-.4s-.1-.4-.1-.6h.9Z"/>
              <path class="st11" d="M202.9,132.9c0,.1,0,.4,0,.5,0,.1.1.3.2.4s.2.2.4.3.3,0,.5,0,.5,0,.6-.1.3-.3.4-.6h.9c0,.2-.1.4-.3.6-.1.2-.3.4-.4.4-.1.1-.4.2-.6.3s-.4,0-.6,0c-.4,0-.6,0-.9-.1s-.5-.3-.6-.4-.3-.4-.4-.7-.1-.6-.1-.9,0-.6.1-.8c0-.3.2-.5.4-.7s.4-.4.6-.5.6-.1.8-.1.6,0,.9.2.5.4.6.6c.1.2.3.5.4.8,0,.3,0,.6,0,.9h-3.1.1ZM205.1,132.3c0-.1,0-.3,0-.4s-.1-.3-.2-.4-.2-.2-.4-.3c-.1,0-.3,0-.4,0s-.3,0-.4,0-.3.1-.4.2-.1.2-.2.4,0,.3,0,.4h2.2,0Z"/>
            </g>
          </g>
          <line class="st1" x1="275.5" y1="80.2" x2="243.7" y2="80.2"/>
        </g>
      </g>
    </g>
  </g>
</svg>