<?xml version="1.0" encoding="UTF-8"?>
<svg id="_レイヤー_2" data-name="レイヤー 2" xmlns="http://www.w3.org/2000/svg" viewBox="0 0 155.68 218.78">
  <defs>
    <style>
      .cls-1 {
        fill: #131111;
      }

      .cls-1, .cls-2 {
        stroke-width: 0px;
      }
    </style>
  </defs>
  <g id="_レイヤー_1-2" data-name="レイヤー 1">
    <g>
      <g>
        <g>
          <path class="cls-2" d="m120.43,20.66c-9.57-7.42-20.95-11.65-32.55-12.71v-1.61h2.18l-2.71-6.34-2.71,6.34h2.17v1.52c-1.45-.11-2.9-.17-4.35-.18v-1.35h2.18l-2.71-6.34-2.71,6.34h2.18v1.36c-1.45.02-2.9.07-4.35.19v-1.55h2.17l-2.71-6.34-2.71,6.34h2.18v1.65c-5.54.53-11.02,1.78-16.27,3.77v-1.29l-26.36-2.49v-2.53h2.28L30.16,0l-5.45,5.46h2.28v2.53L.63,10.47h-.2v8.47h7.34v-5.14l22.38-2.11,22.2,2.1v1.3c-.18.1-.37.21-.55.31v-.89l-21.65-2.13-21.64,2.13v3.33l9.87-.93-9.87,2.61v4.92l11.96-3.16,1.53.47-13.49,3.56v4.93l22.66-5.98,1.77.43-24.43,6.45v4.92l29.15-7.7-12.68,7.04,18.78-5.93v2.01c5.93-5.93,13-10.17,20.57-12.73.49.32.98.63,1.49.92l-3.32,3.33,4.11,4.12,4.83-4.83c1.36.48,2.76.88,4.2,1.17,2.09.42,4.25.65,6.46.65s4.36-.23,6.46-.65c.48-.1.96-.21,1.43-.33-.15.17-.3.35-.47.52-1.91,1.9-4.51,3.08-7.42,3.08s-5.51-1.17-7.42-3.07l-5.76,5.77c3.36,3.38,8.04,5.47,13.19,5.47s9.82-2.1,13.18-5.47c2.76-2.75,4.66-6.39,5.26-10.44,7.31,2.58,14.13,6.74,19.88,12.49v-10.82ZM28.97,7.79v-2.34h2.38v2.34l-1.2-.12-1.19.12Zm1.96,9.65v-1.56l17.3,1.63c-.57.37-1.14.76-1.71,1.15h-19.55l3.96-1.22Zm56.47.32c-1.71.34-3.48.53-5.3.53s-3.59-.19-5.29-.53c-1.36-.28-2.67-.67-3.94-1.14,3.05-.51,6.14-.78,9.24-.78s6.18.27,9.23.78c-1.27.48-2.59.86-3.94,1.14Z"/>
          <polygon class="cls-2" points="24.99 35.41 43.77 31.49 44.84 27.42 24.99 35.41"/>
        </g>
        <g>
          <path class="cls-2" d="m30.02,53.62h2.83l2.14,4.19,2.14-4.19h2.83l-6.26,12.33h-2.83l2.72-5.32-3.56-7Z"/>
          <path class="cls-2" d="m43.02,61.68l-.63,1.65h-2.62l3.77-9.71h3.04l3.77,9.71h-2.62l-.63-1.65h-4.08Zm3.28-2.07l-1.25-3.24-1.25,3.24h2.49Z"/>
          <path class="cls-2" d="m53.61,63.33h-2.51l1.2-9.71h2.04l2.51,4.38,2.51-4.38h2.04l1.2,9.71h-2.51l-.61-5.3-1.83,3.2h-1.59l-1.83-3.2-.61,5.3Z"/>
          <path class="cls-2" d="m68.74,63.49c-3.35,0-4.53-2.04-4.53-5.01s1.18-5.01,4.53-5.01,4.53,2.04,4.53,5.01-1.18,5.01-4.53,5.01Zm0-7.91c-1.52,0-1.91,1.12-1.91,2.89s.39,2.91,1.91,2.91,1.91-1.12,1.91-2.91-.39-2.89-1.91-2.89Z"/>
          <path class="cls-2" d="m83.52,60.92c.21.45.36.74.86.74.16,0,.36-.03.52-.1v1.57c-.36.14-.97.36-1.76.36s-1.47-.32-1.76-.94c-.7-1.47-.57-2.81-2.44-2.81-.44,0-.76.08-.91.13v3.46h-2.62v-9.71h4.61c2.57,0,3.87,1.41,3.87,3.04,0,.99-.45,1.91-1.37,2.49.4.47.71,1.07,1.02,1.76Zm-5.5-5.21v2.01h1.94c.87,0,1.33-.4,1.33-1s-.45-1-1.33-1h-1.94Z"/>
          <path class="cls-2" d="m89.18,53.62v9.71h-2.62v-9.71h2.62Z"/>
        </g>
      </g>
      <g>
        <g>
          <path class="cls-1" d="m3.93,164.03l-3.93-6.37h2.13l2.77,4.7,2.73-4.7h2.06l-3.92,6.37v4.11h-1.84v-4.11Z"/>
          <path class="cls-1" d="m14.4,157.66h1.95l4.04,10.48h-1.97l-.98-2.77h-4.18l-.98,2.77h-1.89l4.02-10.48Zm-.65,6.31h3.2l-1.57-4.51h-.04l-1.59,4.51Z"/>
          <path class="cls-1" d="m23.42,157.66h2.58l2.89,8.21h.03l2.82-8.21h2.55v10.48h-1.75v-8.09h-.03l-2.91,8.09h-1.51l-2.91-8.09h-.03v8.09h-1.75v-10.48Z"/>
          <path class="cls-1" d="m43.01,157.41c.78,0,1.48.15,2.11.44.62.29,1.15.69,1.58,1.19.43.5.76,1.08.99,1.75.23.67.35,1.37.35,2.11s-.12,1.46-.35,2.13c-.23.67-.56,1.25-.99,1.75-.43.5-.96.89-1.58,1.18-.62.29-1.32.43-2.11.43s-1.49-.14-2.11-.43c-.62-.29-1.15-.68-1.58-1.18-.43-.5-.76-1.08-.99-1.75-.23-.67-.34-1.38-.34-2.13s.11-1.45.34-2.11c.23-.67.56-1.25.99-1.75.43-.5.96-.9,1.58-1.19.62-.29,1.32-.44,2.11-.44Zm0,1.5c-.56,0-1.04.11-1.45.34-.41.23-.74.53-.99.9-.25.38-.44.8-.57,1.28-.12.48-.18.97-.18,1.47s.06.99.18,1.47c.12.48.31.91.57,1.28.25.38.58.68.99.9.41.23.89.34,1.45.34s1.04-.11,1.45-.34c.41-.22.74-.53.99-.9s.44-.8.57-1.28c.12-.48.18-.97.18-1.47s-.06-.99-.18-1.47c-.12-.48-.31-.91-.57-1.28s-.58-.68-.99-.9c-.41-.22-.89-.34-1.45-.34Z"/>
          <path class="cls-1" d="m51.76,157.66h5.01c1.15,0,2.02.25,2.6.75.58.5.87,1.19.87,2.08,0,.5-.07.91-.22,1.24-.15.33-.32.59-.51.79-.2.2-.39.34-.58.43-.19.09-.33.15-.42.18v.03c.16.02.33.07.51.15.18.08.35.2.51.38.16.17.29.39.39.67.1.27.15.62.15,1.03,0,.62.05,1.18.14,1.68s.24.86.43,1.08h-1.97c-.14-.22-.22-.47-.24-.75-.02-.27-.04-.54-.04-.79,0-.48-.03-.89-.09-1.24-.06-.35-.17-.64-.32-.87-.16-.23-.37-.4-.64-.51-.27-.11-.61-.16-1.04-.16h-2.7v4.32h-1.83v-10.48Zm1.83,4.77h3.01c.59,0,1.03-.14,1.34-.42.3-.28.46-.7.46-1.25,0-.33-.05-.6-.15-.82-.1-.21-.23-.37-.4-.49-.17-.12-.37-.2-.59-.24s-.45-.06-.68-.06h-2.98v3.27Z"/>
          <path class="cls-1" d="m64.74,157.66h1.83v10.48h-1.83v-10.48Z"/>
          <path class="cls-1" d="m79.1,164.65c0,.4.07.74.21,1.03.14.28.33.52.57.7.24.18.53.31.84.4.32.08.66.12,1.03.12.4,0,.74-.05,1.03-.14.28-.09.51-.21.69-.36.18-.15.3-.32.38-.51.08-.19.12-.38.12-.58,0-.4-.09-.7-.27-.89-.18-.19-.38-.33-.59-.4-.37-.14-.8-.27-1.3-.39-.49-.12-1.1-.28-1.83-.48-.45-.12-.82-.27-1.12-.46-.3-.19-.54-.4-.71-.64-.18-.23-.3-.48-.37-.75-.07-.26-.11-.53-.11-.81,0-.53.11-.99.33-1.37.22-.39.51-.71.87-.96.36-.25.77-.44,1.23-.57.46-.12.92-.18,1.39-.18.55,0,1.06.07,1.55.21s.91.35,1.28.64.66.63.87,1.05c.22.42.32.9.32,1.45h-1.83c-.05-.68-.28-1.15-.69-1.43-.41-.28-.93-.42-1.57-.42-.22,0-.44.02-.66.07s-.43.12-.62.22c-.19.1-.34.24-.46.42-.12.18-.18.4-.18.66,0,.37.11.66.34.87.23.21.53.37.9.48.04.01.19.05.46.12s.57.15.9.24c.33.09.66.17.98.26.32.08.55.14.68.18.34.11.64.25.9.44.25.19.47.4.64.64.17.24.3.5.38.77.08.27.12.55.12.82,0,.59-.12,1.09-.36,1.5s-.56.76-.95,1.02c-.39.26-.84.46-1.34.58-.5.12-1.01.18-1.53.18-.6,0-1.16-.07-1.69-.22-.53-.15-.99-.37-1.38-.67-.39-.3-.7-.69-.94-1.17-.24-.47-.36-1.03-.37-1.68h1.84Z"/>
          <path class="cls-1" d="m87.88,157.66h8.49v1.58h-3.33v8.9h-1.83v-8.9h-3.32v-1.58Z"/>
          <path class="cls-1" d="m102.66,164.03l-3.93-6.37h2.13l2.77,4.7,2.73-4.7h2.06l-3.92,6.37v4.11h-1.84v-4.11Z"/>
          <path class="cls-1" d="m111.5,157.66h1.83v8.9h5.33v1.59h-7.16v-10.48Z"/>
          <path class="cls-1" d="m121.68,157.66h7.55v1.58h-5.71v2.75h5.28v1.5h-5.28v3.07h5.81v1.59h-7.65v-10.48Z"/>
          <path class="cls-1" d="m134.06,166.16h2.04v1.98h-2.04v-1.98Z"/>
          <path class="cls-1" d="m2.41,182.91c0,.4.07.74.21,1.03.14.28.33.52.57.7.24.18.53.31.84.4.32.08.66.12,1.03.12.4,0,.74-.05,1.03-.14.28-.09.51-.21.69-.36.18-.15.3-.32.38-.51.08-.19.12-.38.12-.58,0-.4-.09-.7-.27-.89-.18-.19-.38-.33-.59-.4-.37-.14-.8-.27-1.3-.39-.49-.12-1.1-.28-1.83-.48-.45-.12-.82-.27-1.12-.46-.3-.19-.54-.4-.71-.64-.18-.23-.3-.48-.37-.75-.07-.26-.11-.53-.11-.81,0-.53.11-.99.33-1.37.22-.39.51-.71.87-.96.36-.25.77-.44,1.23-.57.46-.12.92-.18,1.39-.18.55,0,1.06.07,1.55.21s.91.35,1.28.64.66.63.87,1.05c.22.42.32.9.32,1.45h-1.83c-.05-.68-.28-1.15-.69-1.43-.41-.28-.93-.42-1.57-.42-.22,0-.44.02-.66.07s-.43.12-.62.22c-.19.1-.34.24-.46.42-.12.18-.18.4-.18.66,0,.37.11.66.34.87.23.21.53.37.9.48.04.01.19.05.46.12s.57.15.9.24c.33.09.66.17.98.26.32.08.55.14.68.18.34.11.64.25.9.44.25.19.47.4.64.64.17.24.3.5.38.77.08.27.12.55.12.82,0,.59-.12,1.09-.36,1.5s-.56.76-.95,1.02c-.39.26-.84.46-1.34.58-.5.12-1.01.18-1.53.18-.6,0-1.16-.07-1.69-.22-.53-.15-.99-.37-1.38-.67-.39-.3-.7-.69-.94-1.17-.24-.47-.36-1.03-.37-1.68h1.84Z"/>
          <path class="cls-1" d="m15.28,175.93h1.95l4.04,10.48h-1.97l-.98-2.77h-4.18l-.98,2.77h-1.89l4.02-10.48Zm-.65,6.31h3.2l-1.57-4.51h-.04l-1.59,4.51Z"/>
          <path class="cls-1" d="m24.33,175.93h1.83v8.9h5.33v1.59h-7.16v-10.48Z"/>
          <path class="cls-1" d="m38.1,175.68c.78,0,1.48.15,2.11.44.62.29,1.15.69,1.58,1.19.43.5.76,1.08.99,1.75.23.67.35,1.37.35,2.11s-.12,1.46-.35,2.13c-.23.67-.56,1.25-.99,1.75-.43.5-.96.89-1.58,1.18-.62.29-1.32.43-2.11.43s-1.49-.14-2.11-.43c-.62-.29-1.15-.68-1.58-1.18-.43-.5-.76-1.08-.99-1.75-.23-.67-.34-1.38-.34-2.13s.11-1.45.34-2.11c.23-.67.56-1.25.99-1.75.43-.5.96-.9,1.58-1.19.62-.29,1.32-.44,2.11-.44Zm0,1.5c-.56,0-1.04.11-1.45.34-.41.23-.74.53-.99.9-.25.38-.44.8-.57,1.28-.12.48-.18.97-.18,1.47s.06.99.18,1.47c.12.48.31.91.57,1.28.25.38.58.68.99.9.41.23.89.34,1.45.34s1.04-.11,1.45-.34c.41-.22.74-.53.99-.9s.44-.8.57-1.28c.12-.48.18-.97.18-1.47s-.06-.99-.18-1.47c-.12-.48-.31-.91-.57-1.28s-.58-.68-.99-.9c-.41-.22-.89-.34-1.45-.34Z"/>
          <path class="cls-1" d="m47.06,175.93h1.94l4.79,7.72h.03v-7.72h1.75v10.48h-1.94l-4.77-7.71h-.04v7.71h-1.75v-10.48Z"/>
          <path class="cls-1" d="m70.35,185.23c-.39.48-.82.83-1.3,1.05-.47.22-1.02.33-1.64.33-.48,0-.92-.07-1.33-.21-.41-.14-.76-.34-1.05-.61-.29-.26-.52-.59-.68-.98-.16-.39-.24-.82-.24-1.31,0-.37.07-.71.21-1.01.14-.3.32-.58.54-.83.23-.25.48-.47.77-.67.29-.2.58-.37.89-.53-.14-.18-.27-.35-.4-.52-.13-.17-.24-.35-.34-.54-.1-.19-.18-.38-.23-.59-.06-.21-.09-.42-.09-.65,0-.38.07-.72.2-1.03.13-.3.32-.56.55-.79.23-.22.51-.39.82-.51.31-.12.65-.18,1-.18.33,0,.66.05.98.15.32.1.6.26.84.47.24.21.43.47.58.79.15.31.22.68.22,1.1,0,.31-.05.6-.15.87-.1.26-.24.51-.41.73-.17.22-.37.42-.6.59-.23.18-.47.33-.73.47l1.63,1.97c.06-.17.12-.36.18-.57.06-.22.11-.49.15-.84h1.47c-.05.46-.14.91-.27,1.35-.13.44-.32.85-.55,1.22l2.01,2.44h-2.06l-.95-1.17Zm-2.95-3.67c-.16.1-.33.2-.51.29-.19.1-.36.22-.52.37-.16.15-.3.32-.41.53-.11.21-.17.46-.17.78,0,.57.16,1,.48,1.31.32.3.72.46,1.21.46.3,0,.56-.04.78-.12.22-.08.4-.18.55-.3.15-.12.28-.25.38-.38.1-.14.19-.26.27-.37l-2.06-2.55Zm.68-4.64c-.31,0-.58.11-.79.32-.22.21-.32.49-.32.84,0,.18.03.34.1.49.06.15.14.3.24.44.09.14.2.28.31.42.11.14.22.27.32.4.16-.11.31-.22.46-.33s.28-.23.4-.37c.12-.13.21-.28.28-.45.07-.17.1-.35.1-.56,0-.34-.1-.63-.29-.86-.2-.23-.46-.34-.78-.34Z"/>
          <path class="cls-1" d="m88.7,186.41h-1.17l-.28-1.23c-.49.56-.98.95-1.47,1.16s-1.05.32-1.69.32c-.78,0-1.49-.14-2.11-.43-.62-.29-1.15-.68-1.58-1.18-.43-.5-.76-1.08-.99-1.75-.23-.67-.34-1.38-.34-2.13s.11-1.45.34-2.11c.23-.67.56-1.25.99-1.75.43-.5.96-.9,1.58-1.19.62-.29,1.32-.44,2.11-.44.57,0,1.11.08,1.62.23.51.15.97.38,1.37.68.4.3.73.67,1,1.12s.43.97.5,1.56h-1.79c-.05-.34-.15-.64-.32-.9-.16-.26-.36-.48-.61-.65-.24-.18-.52-.31-.82-.4-.3-.09-.62-.13-.95-.13-.56,0-1.04.11-1.45.34-.41.23-.74.53-.99.9-.25.38-.44.8-.57,1.28-.12.48-.18.97-.18,1.47s.06.99.18,1.47c.12.48.31.91.57,1.28.25.38.58.68.99.9.41.23.89.34,1.45.34.47,0,.89-.05,1.25-.18.36-.13.67-.32.92-.57.25-.25.44-.56.57-.92.13-.36.2-.76.21-1.2h-2.79v-1.39h4.46v5.52Z"/>
          <path class="cls-1" d="m95.26,175.93h1.95l4.04,10.48h-1.97l-.98-2.77h-4.18l-.98,2.77h-1.89l4.02-10.48Zm-.65,6.31h3.2l-1.57-4.51h-.04l-1.59,4.51Z"/>
          <path class="cls-1" d="m104.3,175.93h1.83v8.9h5.33v1.59h-7.16v-10.48Z"/>
          <path class="cls-1" d="m113.9,175.93h1.83v8.9h5.33v1.59h-7.16v-10.48Z"/>
          <path class="cls-1" d="m124.09,175.93h7.55v1.58h-5.71v2.75h5.28v1.5h-5.28v3.07h5.81v1.59h-7.65v-10.48Z"/>
          <path class="cls-1" d="m135.1,175.93h5.01c1.15,0,2.02.25,2.6.75.58.5.87,1.19.87,2.08,0,.5-.07.91-.22,1.24-.15.33-.32.59-.51.79-.2.2-.39.34-.58.43-.19.09-.33.15-.42.18v.03c.16.02.33.07.51.15.18.08.35.2.51.38.16.17.29.39.39.67.1.27.15.62.15,1.03,0,.62.05,1.18.14,1.68s.24.86.43,1.08h-1.97c-.14-.22-.22-.47-.24-.75-.02-.27-.04-.54-.04-.79,0-.48-.03-.89-.09-1.24-.06-.35-.17-.64-.32-.87-.16-.23-.37-.4-.64-.51-.27-.11-.61-.16-1.04-.16h-2.7v4.32h-1.83v-10.48Zm1.83,4.77h3.01c.59,0,1.03-.14,1.34-.42.3-.28.46-.7.46-1.25,0-.33-.05-.6-.15-.82-.1-.21-.23-.37-.4-.49-.17-.12-.37-.2-.59-.24s-.45-.06-.68-.06h-2.98v3.27Z"/>
          <path class="cls-1" d="m149.93,182.3l-3.93-6.37h2.13l2.77,4.7,2.73-4.7h2.06l-3.92,6.37v4.11h-1.84v-4.11Z"/>
        </g>
        <g>
          <path class="cls-1" d="m3.93,201.69l-2.42-3.92h1.31l1.71,2.89,1.68-2.89h1.26l-2.41,3.92v2.53h-1.13v-2.53Z"/>
          <path class="cls-1" d="m12.32,203.18c0,.13.02.22.05.27.03.05.1.08.19.08h.11s.09,0,.14-.02v.71s-.08.03-.14.04c-.06.01-.12.03-.18.04-.06.01-.12.02-.18.03-.06,0-.11,0-.15,0-.21,0-.39-.04-.52-.13-.14-.08-.23-.23-.27-.44-.2.2-.46.34-.75.43-.3.09-.59.14-.86.14-.21,0-.41-.03-.61-.09-.19-.06-.36-.14-.51-.25-.15-.11-.27-.25-.35-.42-.09-.17-.13-.37-.13-.6,0-.29.05-.52.16-.71.11-.18.24-.32.42-.42s.36-.18.58-.22c.21-.05.43-.08.65-.1.19-.04.36-.06.53-.08.17-.02.32-.04.45-.08.13-.04.23-.09.31-.17.08-.08.11-.19.11-.34,0-.13-.03-.24-.09-.33s-.14-.15-.23-.19c-.09-.04-.2-.08-.31-.09-.11-.01-.22-.02-.33-.02-.29,0-.53.06-.71.18-.19.12-.29.31-.32.56h-1.03c.02-.3.09-.55.22-.75.13-.2.29-.36.48-.48.2-.12.42-.21.66-.25.25-.05.5-.07.76-.07.23,0,.45.02.68.07.22.05.42.13.6.23.18.11.32.25.43.42.11.17.16.38.16.63v2.4Zm-1.03-1.3c-.16.1-.35.16-.58.19-.23.02-.46.05-.69.09-.11.02-.21.04-.32.08-.1.03-.19.08-.27.14-.08.06-.14.13-.19.23-.05.09-.07.21-.07.34,0,.12.03.21.1.29.07.08.15.14.24.19.09.04.2.08.31.09.11.02.21.03.3.03.11,0,.24-.01.37-.04.13-.03.26-.08.38-.15s.22-.16.29-.28.12-.25.12-.41v-.77Z"/>
          <path class="cls-1" d="m13.89,199.55h.98v.65h.03c.08-.11.16-.22.25-.32.09-.1.19-.18.3-.24.11-.07.24-.12.38-.16s.31-.06.5-.06c.28,0,.55.06.79.19.24.13.42.32.52.59.17-.24.38-.43.61-.57.23-.14.51-.21.86-.21.49,0,.88.12,1.15.36s.41.64.41,1.21v3.23h-1.03v-2.73c0-.19,0-.36-.02-.51-.01-.15-.05-.29-.1-.4-.06-.11-.14-.2-.26-.26s-.27-.09-.47-.09c-.35,0-.6.11-.76.33-.16.22-.23.52-.23.92v2.74h-1.03v-3c0-.33-.06-.57-.18-.74-.12-.17-.33-.25-.65-.25-.13,0-.26.03-.38.08-.12.05-.23.13-.33.23s-.17.23-.23.38c-.06.15-.09.32-.09.51v2.77h-1.03v-4.67Z"/>
          <path class="cls-1" d="m24.34,204.35c-.37,0-.71-.06-1-.19-.29-.12-.54-.29-.74-.51-.2-.22-.36-.48-.46-.78-.11-.3-.16-.63-.16-.99s.05-.68.16-.98c.11-.3.26-.56.46-.78.2-.22.45-.39.74-.51.29-.12.62-.18,1-.18s.71.06,1,.18c.29.12.54.29.74.51s.36.48.46.78c.11.3.16.63.16.98s-.05.69-.16.99c-.11.3-.26.56-.46.78s-.45.39-.74.51c-.29.12-.62.19-1,.19Zm0-.81c.23,0,.43-.05.6-.14s.31-.22.42-.38c.11-.16.19-.33.24-.53.05-.2.08-.4.08-.6s-.03-.4-.08-.6c-.05-.2-.13-.37-.24-.53-.11-.15-.25-.28-.42-.38-.17-.1-.37-.14-.6-.14s-.43.05-.6.14c-.17.1-.31.22-.42.38-.11.15-.19.33-.24.53-.05.2-.08.4-.08.6s.03.41.08.6c.05.2.13.37.24.53.11.16.25.28.42.38.17.1.37.14.6.14Z"/>
          <path class="cls-1" d="m28.01,199.55h.97v.9h.02c.03-.13.09-.25.18-.37.09-.12.19-.23.32-.33.12-.1.26-.18.41-.24.15-.06.3-.09.46-.09.12,0,.2,0,.25,0s.09.01.14.02v.99c-.07-.01-.15-.02-.22-.03-.08,0-.15-.01-.22-.01-.17,0-.34.03-.49.1-.15.07-.29.17-.4.31-.11.14-.2.3-.27.5-.07.2-.1.43-.1.69v2.22h-1.03v-4.67Z"/>
          <path class="cls-1" d="m31.66,197.77h1.03v.98h-1.03v-.98Zm0,1.78h1.03v4.67h-1.03v-4.67Z"/>
          <path class="cls-1" d="m40.38,201.12c-.04-.29-.16-.51-.35-.66s-.43-.22-.72-.22c-.13,0-.27.02-.42.07-.15.04-.29.13-.42.25-.13.12-.23.29-.32.51-.08.22-.13.51-.13.86,0,.19.02.38.07.58.05.19.12.36.22.51s.23.27.38.37c.16.09.35.14.57.14.3,0,.55-.09.75-.28.2-.19.32-.45.37-.79h1.03c-.1.61-.33,1.07-.69,1.4-.36.32-.85.48-1.45.48-.37,0-.69-.06-.97-.19s-.52-.29-.71-.51c-.19-.21-.34-.47-.44-.76s-.15-.61-.15-.96.05-.68.14-.99c.1-.31.24-.57.43-.8.19-.23.43-.4.72-.53.29-.13.62-.19,1.01-.19.27,0,.53.03.77.1s.46.17.65.31c.19.14.34.31.47.52.12.21.19.46.22.75h-1.03Z"/>
          <path class="cls-1" d="m44.85,204.35c-.37,0-.71-.06-1-.19-.29-.12-.54-.29-.74-.51-.2-.22-.36-.48-.46-.78-.11-.3-.16-.63-.16-.99s.05-.68.16-.98c.11-.3.26-.56.46-.78.2-.22.45-.39.74-.51.29-.12.62-.18,1-.18s.71.06,1,.18c.29.12.54.29.74.51s.36.48.46.78c.11.3.16.63.16.98s-.05.69-.16.99c-.11.3-.26.56-.46.78s-.45.39-.74.51c-.29.12-.62.19-1,.19Zm0-.81c.23,0,.43-.05.6-.14s.31-.22.42-.38c.11-.16.19-.33.24-.53.05-.2.08-.4.08-.6s-.03-.4-.08-.6c-.05-.2-.13-.37-.24-.53-.11-.15-.25-.28-.42-.38-.17-.1-.37-.14-.6-.14s-.43.05-.6.14c-.17.1-.31.22-.42.38-.11.15-.19.33-.24.53-.05.2-.08.4-.08.6s.03.41.08.6c.05.2.13.37.24.53.11.16.25.28.42.38.17.1.37.14.6.14Z"/>
          <path class="cls-1" d="m48.59,203h1.26v1.22h-1.26v-1.22Z"/>
          <path class="cls-1" d="m51.56,203h1.26v1.22c0,.37-.12.69-.34.94-.22.25-.52.42-.88.49v-.55c.2-.05.35-.16.45-.33.1-.17.15-.35.14-.55h-.62v-1.22Z"/>
          <path class="cls-1" d="m54.47,197.77h1.03v6.45h-1.03v-6.45Z"/>
          <path class="cls-1" d="m56.6,199.55h.78v-1.4h1.03v1.4h.93v.77h-.93v2.49c0,.11,0,.2.01.28s.03.14.06.2c.03.05.08.09.15.12.07.03.16.04.27.04.07,0,.14,0,.22,0s.14-.01.22-.03v.79c-.11.01-.23.02-.33.04-.11.01-.22.02-.33.02-.27,0-.49-.03-.66-.08-.17-.05-.3-.13-.39-.23-.09-.1-.16-.22-.19-.38-.03-.15-.05-.32-.06-.51v-2.75h-.78v-.77Z"/>
          <path class="cls-1" d="m64.93,204.22h-.98v-.63h-.02c-.14.27-.34.47-.61.58-.26.12-.55.18-.84.18-.37,0-.69-.07-.96-.19-.27-.13-.5-.31-.68-.53-.18-.22-.32-.49-.41-.79s-.14-.63-.14-.98c0-.42.06-.79.17-1.09.11-.31.27-.56.46-.76.19-.2.41-.34.65-.44.24-.09.49-.14.75-.14.14,0,.29.01.44.04.15.03.3.07.43.13.14.06.27.14.38.23.12.09.22.2.29.33h.02v-2.38h1.03v6.45Zm-3.6-2.29c0,.2.03.39.08.59.05.19.13.36.23.51.11.15.24.27.4.36.16.09.36.14.58.14s.43-.05.59-.14c.17-.1.3-.22.41-.38.11-.16.18-.33.23-.53.05-.2.08-.4.08-.6,0-.52-.12-.92-.35-1.21-.23-.29-.55-.43-.94-.43-.24,0-.44.05-.61.15-.17.1-.3.23-.41.39-.11.16-.18.34-.23.54s-.07.41-.07.62Z"/>
          <path class="cls-1" d="m66.58,203h1.26v1.22h-1.26v-1.22Z"/>
          <path class="cls-1" d="m2.25,210.48h4.45v.98h-3.32v1.69h2.92v.92h-2.92v2.86h-1.13v-6.45Z"/>
          <path class="cls-1" d="m12.02,216.93h-1.01v-.65h-.02c-.13.23-.31.42-.56.56-.25.14-.5.21-.76.21-.61,0-1.06-.15-1.33-.46-.27-.3-.41-.76-.41-1.38v-2.96h1.03v2.86c0,.41.08.7.23.87.16.17.38.25.66.25.22,0,.4-.03.54-.1s.26-.16.35-.27.16-.25.19-.4c.04-.16.06-.33.06-.51v-2.71h1.03v4.67Z"/>
          <path class="cls-1" d="m13.58,212.26h1.03v5.07c0,.46-.1.82-.31,1.08-.2.25-.55.38-1.03.38-.1,0-.19,0-.26,0-.07,0-.14-.01-.2-.03v-.81c.07.01.13.02.19.03.06,0,.11,0,.16,0,.19,0,.3-.06.35-.17s.07-.29.07-.51v-5.02Zm0-1.78h1.03v.98h-1.03v-.98Z"/>
          <path class="cls-1" d="m16.21,210.48h1.03v.98h-1.03v-.98Zm0,1.78h1.03v4.67h-1.03v-4.67Z"/>
          <path class="cls-1" d="m18.81,212.26h.98v.65h.03c.08-.11.16-.22.25-.32.09-.1.19-.18.3-.24.11-.07.24-.12.38-.16s.31-.06.5-.06c.28,0,.55.06.79.19.24.13.42.32.52.59.17-.24.38-.43.61-.57.23-.14.51-.21.86-.21.49,0,.88.12,1.15.36s.41.64.41,1.21v3.23h-1.03v-2.73c0-.19,0-.36-.02-.51-.01-.15-.05-.29-.1-.4-.06-.11-.14-.2-.26-.26s-.27-.09-.47-.09c-.35,0-.6.11-.76.33-.16.22-.23.52-.23.92v2.74h-1.03v-3c0-.33-.06-.57-.18-.74-.12-.17-.33-.25-.65-.25-.13,0-.26.03-.38.08-.12.05-.23.13-.33.23s-.17.23-.23.38c-.06.15-.09.32-.09.51v2.77h-1.03v-4.67Z"/>
          <path class="cls-1" d="m27.15,210.48h1.03v.98h-1.03v-.98Zm0,1.78h1.03v4.67h-1.03v-4.67Z"/>
          <path class="cls-1" d="m34.07,216.68c0,.71-.2,1.23-.59,1.58-.39.35-.96.52-1.7.52-.23,0-.47-.02-.71-.07-.24-.05-.45-.13-.65-.24-.2-.12-.36-.27-.49-.45s-.21-.42-.23-.69h1.03c.03.14.08.26.15.35.07.09.16.16.26.21.1.05.21.08.33.1.12.01.25.02.38.02.42,0,.72-.1.91-.31.19-.21.29-.5.29-.89v-.71h-.02c-.14.26-.34.46-.59.61-.25.14-.52.22-.81.22-.37,0-.69-.06-.95-.19-.26-.13-.48-.31-.65-.53-.17-.23-.3-.49-.38-.78-.08-.29-.12-.61-.12-.95,0-.31.05-.61.14-.89s.23-.53.42-.75.4-.38.66-.51c.26-.13.56-.19.89-.19.29,0,.57.06.81.18.25.12.44.32.57.58h.02v-.64h1.03v4.43Zm-2.29-.57c.23,0,.42-.05.58-.14.16-.09.29-.22.39-.37.1-.15.17-.33.22-.52.05-.2.07-.39.07-.59s-.02-.39-.07-.58c-.05-.19-.12-.35-.22-.5s-.23-.26-.39-.34c-.16-.08-.35-.13-.57-.13s-.42.05-.58.14c-.16.1-.28.22-.38.38-.1.15-.17.33-.21.52-.04.2-.06.39-.06.58s.02.38.07.56c.05.18.12.35.22.49s.23.26.38.35c.15.09.34.13.56.13Z"/>
          <path class="cls-1" d="m39.47,215.89c0,.13.02.22.05.27.03.05.1.08.19.08h.11s.09,0,.14-.02v.71s-.08.03-.14.04c-.06.01-.12.03-.18.04-.06.01-.12.02-.18.03-.06,0-.11,0-.15,0-.21,0-.39-.04-.52-.13-.14-.08-.23-.23-.27-.44-.2.2-.46.34-.75.43-.3.09-.59.14-.86.14-.21,0-.41-.03-.61-.09-.19-.06-.36-.14-.51-.25-.15-.11-.27-.25-.35-.42-.09-.17-.13-.37-.13-.6,0-.29.05-.52.16-.71.11-.18.24-.32.42-.42s.36-.18.58-.22c.21-.05.43-.08.65-.1.19-.04.36-.06.53-.08.17-.02.32-.04.45-.08.13-.04.23-.09.31-.17.08-.08.11-.19.11-.34,0-.13-.03-.24-.09-.33s-.14-.15-.23-.19c-.09-.04-.2-.08-.31-.09-.11-.01-.22-.02-.33-.02-.29,0-.53.06-.71.18-.19.12-.29.31-.32.56h-1.03c.02-.3.09-.55.22-.75.13-.2.29-.36.48-.48.2-.12.42-.21.66-.25.25-.05.5-.07.76-.07.23,0,.45.02.68.07.22.05.42.13.6.23.18.11.32.25.43.42.11.17.16.38.16.63v2.4Zm-1.03-1.3c-.16.1-.35.16-.58.19-.23.02-.46.05-.69.09-.11.02-.21.04-.32.08-.1.03-.19.08-.27.14-.08.06-.14.13-.19.23-.05.09-.07.21-.07.34,0,.12.03.21.1.29.07.08.15.14.24.19.09.04.2.08.31.09.11.02.21.03.3.03.11,0,.24-.01.37-.04.13-.03.26-.08.38-.15s.22-.16.29-.28.12-.25.12-.41v-.77Z"/>
          <path class="cls-1" d="m43.17,217.05c-.37,0-.71-.06-1-.19-.29-.12-.54-.29-.74-.51-.2-.22-.36-.48-.46-.78-.11-.3-.16-.63-.16-.99s.05-.68.16-.98c.11-.3.26-.56.46-.78.2-.22.45-.39.74-.51.29-.12.62-.18,1-.18s.71.06,1,.18c.29.12.54.29.74.51s.36.48.46.78c.11.3.16.63.16.98s-.05.69-.16.99c-.11.3-.26.56-.46.78s-.45.39-.74.51c-.29.12-.62.19-1,.19Zm0-.81c.23,0,.43-.05.6-.14s.31-.22.42-.38c.11-.16.19-.33.24-.53.05-.2.08-.4.08-.6s-.03-.4-.08-.6c-.05-.2-.13-.37-.24-.53-.11-.15-.25-.28-.42-.38-.17-.1-.37-.14-.6-.14s-.43.05-.6.14c-.17.1-.31.22-.42.38-.11.15-.19.33-.24.53-.05.2-.08.4-.08.6s.03.41.08.6c.05.2.13.37.24.53.11.16.25.28.42.38.17.1.37.14.6.14Z"/>
          <path class="cls-1" d="m46.87,210.48h1.03v3.67l1.86-1.89h1.26l-1.79,1.72,1.96,2.95h-1.26l-1.43-2.27-.61.6v1.67h-1.03v-6.45Z"/>
          <path class="cls-1" d="m56.06,215.89c0,.13.02.22.05.27.03.05.1.08.19.08h.11s.09,0,.14-.02v.71s-.08.03-.14.04c-.06.01-.12.03-.18.04-.06.01-.12.02-.18.03-.06,0-.11,0-.15,0-.21,0-.39-.04-.52-.13-.14-.08-.23-.23-.27-.44-.2.2-.46.34-.75.43-.3.09-.59.14-.86.14-.21,0-.41-.03-.61-.09-.19-.06-.36-.14-.51-.25-.15-.11-.27-.25-.35-.42-.09-.17-.13-.37-.13-.6,0-.29.05-.52.16-.71.11-.18.24-.32.42-.42s.36-.18.58-.22c.21-.05.43-.08.65-.1.19-.04.36-.06.53-.08.17-.02.32-.04.45-.08.13-.04.23-.09.31-.17.08-.08.11-.19.11-.34,0-.13-.03-.24-.09-.33s-.14-.15-.23-.19c-.09-.04-.2-.08-.31-.09-.11-.01-.22-.02-.33-.02-.29,0-.53.06-.71.18-.19.12-.29.31-.32.56h-1.03c.02-.3.09-.55.22-.75.13-.2.29-.36.48-.48.2-.12.42-.21.66-.25.25-.05.5-.07.76-.07.23,0,.45.02.68.07.22.05.42.13.6.23.18.11.32.25.43.42.11.17.16.38.16.63v2.4Zm-1.03-1.3c-.16.1-.35.16-.58.19-.23.02-.46.05-.69.09-.11.02-.21.04-.32.08-.1.03-.19.08-.27.14-.08.06-.14.13-.19.23-.05.09-.07.21-.07.34,0,.12.03.21.1.29.07.08.15.14.24.19.09.04.2.08.31.09.11.02.21.03.3.03.11,0,.24-.01.37-.04.13-.03.26-.08.38-.15s.22-.16.29-.28.12-.25.12-.41v-.77Z"/>
          <path class="cls-1" d="m60.71,210.48h1.59l1.78,5.05h.02l1.73-5.05h1.57v6.45h-1.07v-4.98h-.02l-1.79,4.98h-.93l-1.79-4.98h-.02v4.98h-1.08v-6.45Z"/>
          <path class="cls-1" d="m71.21,217.05c-.37,0-.71-.06-1-.19-.29-.12-.54-.29-.74-.51-.2-.22-.36-.48-.46-.78-.11-.3-.16-.63-.16-.99s.05-.68.16-.98c.11-.3.26-.56.46-.78.2-.22.45-.39.74-.51.29-.12.62-.18,1-.18s.71.06,1,.18c.29.12.54.29.74.51s.36.48.46.78c.11.3.16.63.16.98s-.05.69-.16.99c-.11.3-.26.56-.46.78s-.45.39-.74.51c-.29.12-.62.19-1,.19Zm0-.81c.23,0,.43-.05.6-.14s.31-.22.42-.38c.11-.16.19-.33.24-.53.05-.2.08-.4.08-.6s-.03-.4-.08-.6c-.05-.2-.13-.37-.24-.53-.11-.15-.25-.28-.42-.38-.17-.1-.37-.14-.6-.14s-.43.05-.6.14c-.17.1-.31.22-.42.38-.11.15-.19.33-.24.53-.05.2-.08.4-.08.6s.03.41.08.6c.05.2.13.37.24.53.11.16.25.28.42.38.17.1.37.14.6.14Z"/>
          <path class="cls-1" d="m79.27,216.93h-.98v-.63h-.02c-.14.27-.34.47-.61.58-.26.12-.55.18-.84.18-.37,0-.69-.07-.96-.19-.27-.13-.5-.31-.68-.53-.18-.22-.32-.49-.41-.79s-.14-.63-.14-.98c0-.42.06-.79.17-1.09.11-.31.27-.56.46-.76.19-.2.41-.34.65-.44.24-.09.49-.14.75-.14.14,0,.29.01.44.04.15.03.3.07.43.13.14.06.27.14.38.23.12.09.22.2.29.33h.02v-2.38h1.03v6.45Zm-3.6-2.29c0,.2.03.39.08.59.05.19.13.36.23.51.11.15.24.27.4.36.16.09.36.14.58.14s.43-.05.59-.14c.17-.1.3-.22.41-.38.11-.16.18-.33.23-.53.05-.2.08-.4.08-.6,0-.52-.12-.92-.35-1.21-.23-.29-.55-.43-.94-.43-.24,0-.44.05-.61.15-.17.1-.3.23-.41.39-.11.16-.18.34-.23.54s-.07.41-.07.62Z"/>
          <path class="cls-1" d="m81.65,214.86c0,.18.03.36.08.52.05.17.13.32.23.44.1.13.23.23.39.3.16.08.34.11.56.11.3,0,.54-.06.73-.19.18-.13.32-.32.41-.58h.98c-.05.25-.15.48-.28.68-.13.2-.29.37-.48.5-.19.13-.4.24-.63.31-.23.07-.47.1-.73.1-.37,0-.69-.06-.98-.18-.28-.12-.52-.29-.72-.51-.2-.22-.34-.48-.44-.78s-.15-.63-.15-.99c0-.33.05-.65.16-.94.11-.3.26-.56.45-.79.2-.23.43-.41.71-.54.28-.13.59-.2.94-.2.37,0,.7.08.99.23.29.15.53.36.73.61.19.25.33.54.42.87.09.33.11.67.07,1.02h-3.43Zm2.4-.68c-.01-.16-.05-.32-.1-.47-.06-.15-.14-.28-.23-.39s-.22-.2-.36-.27c-.14-.07-.3-.1-.47-.1s-.34.03-.49.09c-.15.06-.27.15-.38.26s-.19.24-.25.39-.1.31-.1.49h2.4Z"/>
          <path class="cls-1" d="m86.35,210.48h1.03v6.45h-1.03v-6.45Z"/>
          <path class="cls-1" d="m88.95,210.48h1.03v2.39h.02c.13-.21.31-.39.56-.53s.53-.21.84-.21c.51,0,.92.13,1.21.4.29.26.44.66.44,1.19v3.21h-1.03v-2.94c-.01-.37-.09-.63-.23-.8-.14-.17-.37-.25-.68-.25-.17,0-.33.03-.47.09-.14.06-.26.15-.35.26-.1.11-.17.24-.23.39s-.08.31-.08.48v2.76h-1.03v-6.45Z"/>
          <path class="cls-1" d="m96.73,217.05c-.37,0-.71-.06-1-.19-.29-.12-.54-.29-.74-.51-.2-.22-.36-.48-.46-.78-.11-.3-.16-.63-.16-.99s.05-.68.16-.98c.11-.3.26-.56.46-.78.2-.22.45-.39.74-.51.29-.12.62-.18,1-.18s.71.06,1,.18c.29.12.54.29.74.51s.36.48.46.78c.11.3.16.63.16.98s-.05.69-.16.99c-.11.3-.26.56-.46.78s-.45.39-.74.51c-.29.12-.62.19-1,.19Zm0-.81c.23,0,.43-.05.6-.14s.31-.22.42-.38c.11-.16.19-.33.24-.53.05-.2.08-.4.08-.6s-.03-.4-.08-.6c-.05-.2-.13-.37-.24-.53-.11-.15-.25-.28-.42-.38-.17-.1-.37-.14-.6-.14s-.43.05-.6.14c-.17.1-.31.22-.42.38-.11.15-.19.33-.24.53-.05.2-.08.4-.08.6s.03.41.08.6c.05.2.13.37.24.53.11.16.25.28.42.38.17.1.37.14.6.14Z"/>
          <path class="cls-1" d="m104.5,216.93h-1.01v-.65h-.02c-.13.23-.31.42-.56.56-.25.14-.5.21-.76.21-.61,0-1.06-.15-1.33-.46-.27-.3-.41-.76-.41-1.38v-2.96h1.03v2.86c0,.41.08.7.23.87.16.17.38.25.66.25.22,0,.4-.03.54-.1s.26-.16.35-.27.16-.25.19-.4c.04-.16.06-.33.06-.51v-2.71h1.03v4.67Z"/>
          <path class="cls-1" d="m106.81,215.43c.03.3.14.51.34.63s.44.18.71.18c.1,0,.21,0,.33-.02.12-.02.24-.04.35-.09s.2-.1.27-.19c.07-.08.1-.19.09-.32,0-.13-.05-.24-.14-.33s-.21-.15-.35-.2c-.14-.05-.3-.09-.48-.13s-.36-.08-.55-.12c-.19-.04-.38-.09-.56-.15-.18-.06-.34-.14-.48-.24-.14-.1-.25-.23-.34-.39-.08-.16-.13-.36-.13-.59,0-.25.06-.47.19-.64.12-.17.28-.31.47-.42s.4-.18.63-.22c.23-.04.45-.06.66-.06.24,0,.47.03.69.08.22.05.42.13.6.25.18.11.33.26.44.45s.19.41.22.66h-1.08c-.05-.25-.16-.41-.34-.5-.18-.08-.38-.13-.61-.13-.07,0-.16,0-.26.02s-.19.03-.28.07-.16.08-.22.14c-.06.06-.09.15-.09.25,0,.13.04.23.13.31.09.08.2.14.34.19.14.05.3.09.48.13s.37.08.56.12c.19.04.37.09.55.15.18.06.34.14.48.24.14.1.26.23.34.39.09.16.13.35.13.58,0,.28-.06.51-.19.71s-.29.35-.49.47c-.2.12-.43.21-.67.26-.25.05-.49.08-.73.08-.3,0-.57-.03-.82-.1s-.47-.17-.65-.3c-.18-.14-.33-.3-.43-.51-.11-.2-.16-.44-.17-.72h1.03Z"/>
          <path class="cls-1" d="m111.98,214.86c0,.18.03.36.08.52.05.17.13.32.23.44.1.13.23.23.39.3.16.08.34.11.56.11.3,0,.54-.06.73-.19.18-.13.32-.32.41-.58h.98c-.05.25-.15.48-.28.68-.13.2-.29.37-.48.5-.19.13-.4.24-.63.31-.23.07-.47.1-.73.1-.37,0-.69-.06-.98-.18-.28-.12-.52-.29-.72-.51-.2-.22-.34-.48-.44-.78s-.15-.63-.15-.99c0-.33.05-.65.16-.94.11-.3.26-.56.45-.79.2-.23.43-.41.71-.54.28-.13.59-.2.94-.2.37,0,.7.08.99.23.29.15.53.36.73.61.19.25.33.54.42.87.09.33.11.67.07,1.02h-3.43Zm2.4-.68c-.01-.16-.05-.32-.1-.47-.06-.15-.14-.28-.23-.39s-.22-.2-.36-.27c-.14-.07-.3-.1-.47-.1s-.34.03-.49.09c-.15.06-.27.15-.38.26s-.19.24-.25.39-.1.31-.1.49h2.4Z"/>
        </g>
      </g>
    </g>
  </g>
</svg>