<?xml version="1.0" encoding="UTF-8"?>
<svg xmlns="http://www.w3.org/2000/svg" xmlns:xlink="http://www.w3.org/1999/xlink" version="1.1" viewBox="0 0 1025 680.7">
  <defs>
    <style>
      .cls-1, .cls-2, .cls-3, .cls-4, .cls-5, .cls-6, .cls-7, .cls-8, .cls-9 {
        fill: none;
      }

      .cls-10 {
        fill: #595858;
      }

      .cls-2 {
        stroke-width: 1.8px;
      }

      .cls-2, .cls-3, .cls-4, .cls-5, .cls-6, .cls-7, .cls-8, .cls-9 {
        stroke-miterlimit: 10;
      }

      .cls-2, .cls-3, .cls-6, .cls-9 {
        stroke: #7b7b7b;
      }

      .cls-3 {
        stroke-width: 1.3px;
      }

      .cls-4 {
        stroke: #dbdbdb;
        stroke-width: 8.8px;
      }

      .cls-5 {
        stroke: #595858;
        stroke-width: 1.9px;
      }

      .cls-11 {
        fill: #9d9d9d;
      }

      .cls-6, .cls-9 {
        stroke-width: 3.3px;
      }

      .cls-7 {
        stroke-width: 6.2px;
      }

      .cls-7, .cls-8 {
        stroke: #f1eeeb;
      }

      .cls-12 {
        fill: #fff;
      }

      .cls-13 {
        fill: #f0edeb;
      }

      .cls-14 {
        fill: #f1eeeb;
      }

      .cls-8 {
        stroke-width: .8px;
      }

      .cls-9 {
        stroke-dasharray: 0 0 8.8 2.2;
      }

      .cls-15 {
        clip-path: url(#clippath);
      }
    </style>
    <clipPath id="clippath">
      <rect class="cls-1" x="0" width="1023.7" height="680.7"/>
    </clipPath>
  </defs>
  <!-- Generator: Adobe Illustrator 28.7.3, SVG Export Plug-In . SVG Version: 1.2.0 Build 164)  -->
  <g>
    <g id="_レイヤー_2">
      <g id="_レイヤー_1-2">
        <g>
          <rect class="cls-13" x="0" width="1025" height="680.7"/>
          <g>
            <g class="cls-15">
              <g>
                <polygon class="cls-11" points="573.8 473 555 574.3 510 569.4 508 585.8 515.9 596 541.2 608 579.5 610.9 613.8 640 635.7 642 638.9 617.7 666.2 619.9 663 637.5 680.2 637.5 680.2 651.5 715.8 658.4 741.2 495.7 573.8 473"/>
                <line class="cls-6" x1="376.3" y1="584.5" x2="324.3" y2="692"/>
                <rect class="cls-10" x="386.4" y="108.9" width="9.3" height="9.3"/>
                <polyline class="cls-6" points="710.6 692 759.4 380.1 832 137.8 892.7 -7.9"/>
                <polyline class="cls-6" points="394.1 484.2 314.5 445.2 233.7 471.3 195.1 422 153.6 382.4 121 373.1 85.5 344.7 63.9 325.1 8.3 294.9 -60.6 280.6 -98.9 287.3 -125.7 275.8"/>
                <polyline class="cls-6" points="429.4 325.1 404.6 314.3 397.2 282.7 414.9 163 390 72 130.7 47.6 87.2 154.3 83.4 184.4 70.9 200.7 -4.2 182 -43.9 200.7 -141 186.4"/>
                <polyline class="cls-4" points="446.5 695.4 426.5 521.6 467.6 425.6 520.4 379.8 528 358.1 530.2 341.1 512.3 282.5 551.5 137.5 619.9 -16.1"/>
                <polyline class="cls-4" points="454.1 -8.4 421.6 28 421.6 70.1 443.4 192.5 443.4 290.1 468.2 429.3"/>
                <g>
                  <path class="cls-10" d="M426.5,66.2l1.5,8.2-1.5.3-.6-3.2-8.6,1.6-.3-1.8,8.6-1.6-.6-3.2,1.5-.3h0Z"/>
                  <path class="cls-10" d="M428.9,78.9l.4,1.9-9.4,5.8-.4-1.9,2.5-1.4-.8-4-2.9-.4-.3-1.8,10.8,2h0ZM422.7,79.4l.6,3.1,4-2.3h0s-4.6-.8-4.6-.8h0Z"/>
                  <path class="cls-10" d="M421.9,97l-.2-1.1,1.1-.5c-.6-.4-1.1-.8-1.4-1.2s-.5-.9-.6-1.6c-.1-.8-.1-1.4,0-2.1.2-.7.5-1.2.9-1.7s.9-.9,1.5-1.3,1.3-.6,2-.7c.7-.1,1.4-.2,2.1,0,.7,0,1.3.3,1.9.6.6.3,1,.8,1.4,1.3.4.6.7,1.2.8,1.9.1.6.1,1.1,0,1.6,0,.5-.2,1-.4,1.4s-.5.8-.9,1.2-.9.6-1.4.8l-.3-1.7c.3-.1.6-.3.8-.5.2-.2.4-.4.5-.7.1-.3.2-.6.2-.9s0-.6,0-.9c-.1-.5-.3-1-.6-1.3s-.6-.6-1-.8c-.4-.2-.9-.3-1.3-.3-.5,0-1,0-1.5,0s-.9.2-1.4.4c-.4.2-.8.5-1.1.8-.3.3-.5.7-.7,1.1-.1.4-.2.9,0,1.4,0,.4.2.8.4,1.2s.4.6.7.8c.3.2.6.3,1,.4.4,0,.8,0,1.2,0l-.5-2.7,1.3-.2.8,4.3-5.3,1h0Z"/>
                  <path class="cls-10" d="M433,100.4l.4,1.9-9.4,5.8-.4-1.9,2.5-1.4-.8-4-2.9-.4-.3-1.8,10.8,2h0ZM426.8,100.9l.6,3.1,4-2.3h0s-4.6-.8-4.6-.8h0Z"/>
                  <path class="cls-10" d="M434.2,106.9l.3,1.8-7.4,3.3h0s8.1.6,8.1.6l.3,1.8-7.3,3.4h0s8.1.5,8.1.5l.3,1.8-10.6-.9-.3-1.8,7.3-3.5h0s-8.1-.6-8.1-.6l-.3-1.8,9.6-4.6Z"/>
                  <path class="cls-10" d="M437.5,124.6l.4,1.9-9.4,5.8-.4-1.9,2.5-1.4-.8-4-2.9-.4-.3-1.8,10.8,2h0ZM431.3,125.1l.6,3.1,4-2.3h0s-4.6-.8-4.6-.8h0Z"/>
                </g>
                <polyline class="cls-6" points="544 -6.9 428.3 328.4 376.9 562.9 376.3 691.1"/>
                <g>
                  <path class="cls-10" d="M500.6,171.3l-2.6,7.9-1.5-.5,1-3.1-8.3-2.7.6-1.7,8.3,2.7,1-3.1,1.5.5h0Z"/>
                  <path class="cls-10" d="M496.5,183.6l-.6,1.8-11,.5.6-1.8h2.9c0,0,1.3-3.9,1.3-3.9l-2.3-1.8.6-1.8,8.5,7h0ZM490.8,181.1l-1,3h4.7c0-.1-3.7-3-3.7-3h0Z"/>
                  <path class="cls-10" d="M494.4,189.8l-.6,1.7-8-.7h0s6.8,4.5,6.8,4.5l-.6,1.7-8.1-.6h0s6.8,4.3,6.8,4.3l-.6,1.7-8.9-5.9.6-1.7,8.1.5h0s-6.8-4.5-6.8-4.5l.6-1.8,10.6.7h0Z"/>
                  <path class="cls-10" d="M488.8,206.9l-.6,1.8-11,.5.6-1.8h2.9c0,0,1.3-3.9,1.3-3.9l-2.3-1.8.6-1.8,8.5,7h0ZM483.1,204.4l-1,3h4.7c0-.1-3.7-3-3.7-3h0Z"/>
                  <path class="cls-10" d="M486.4,214.1l-1.5,4.6c-.4,1.1-.9,1.8-1.5,2.2-.6.4-1.4.4-2.2.2-.5-.1-.8-.4-1.1-.6s-.5-.5-.6-.7c-.1-.2-.2-.5-.2-.7s0-.4,0-.4h0c0,.1-.2.3-.3.4s-.3.3-.5.4c-.2,0-.5.1-.7.2-.3,0-.6,0-1-.2-.6-.2-1.1-.3-1.6-.4-.5,0-.9,0-1.1,0l.6-1.8c.2,0,.5,0,.8,0,.3,0,.5.1.8.2.5.1.8.2,1.2.3s.6,0,.9,0c.3,0,.5-.2.7-.4.2-.2.3-.5.5-.9l.8-2.5-4-1.3.6-1.7,9.7,3.2h0ZM481.4,214.4l-.9,2.8c-.2.6-.2,1,0,1.4s.5.6,1,.8c.3.1.6.1.8.1.2,0,.4-.1.6-.2.2-.1.3-.3.4-.5.1-.2.2-.4.3-.6l.9-2.8-3-1h0Z"/>
                  <path class="cls-10" d="M482.1,227l-.6,1.8-11,.5.6-1.8h2.9c0,0,1.3-3.9,1.3-3.9l-2.3-1.8.6-1.8,8.5,7h0ZM476.4,224.5l-1,3h4.7c0-.1-3.7-3-3.7-3h0Z"/>
                  <path class="cls-10" d="M474.5,232.1l-1.3,4-1.5-.5,1.3-4,1.5.5Z"/>
                  <path class="cls-10" d="M477.7,240.2l-.6,1.7-4.4-1.5,3,5.8-.7,2.1-2.6-5.2-7.2,2.2.7-2.1,5.7-1.6-.9-1.9-3.3-1.1.6-1.7,9.7,3.2h0Z"/>
                  <path class="cls-10" d="M473.5,252.8l-.6,1.8-11,.5.6-1.8h2.9c0,0,1.3-3.9,1.3-3.9l-2.3-1.8.6-1.8,8.5,7h0ZM467.9,250.2l-1,3h4.7c0-.1-3.7-3-3.7-3h0Z"/>
                  <path class="cls-10" d="M471.2,260l-.6,1.7-9.7-3.2.6-1.7,9.7,3.2Z"/>
                  <path class="cls-10" d="M469.7,264.4l-1.3,4c-.2.8-.6,1.4-1,1.8-.4.5-.9.8-1.5,1-.6.2-1.2.3-1.8.2-.6,0-1.3-.1-2-.4s-1.3-.5-1.8-.9c-.5-.4-1-.8-1.3-1.3-.3-.5-.5-1-.6-1.7s0-1.3.3-2.1l1.3-4,9.7,3.2h0ZM460.8,263.4l-.6,1.7c-.2.7-.3,1.2-.3,1.7s.2.9.4,1.2c.2.3.5.6.9.9.4.2.8.4,1.3.6.5.2,1,.3,1.4.3.5,0,.9,0,1.3-.1.4-.1.8-.4,1.1-.8s.6-.9.8-1.5l.6-1.7-7-2.3h0Z"/>
                  <path class="cls-10" d="M465,279.2c-.2.7-.6,1.3-1.1,1.8-.5.5-1,.9-1.6,1.1s-1.2.4-1.9.4c-.7,0-1.4-.1-2.1-.3-.7-.2-1.3-.6-1.9-1-.5-.4-1-.9-1.3-1.5-.3-.5-.5-1.2-.6-1.8,0-.7,0-1.4.2-2.1.2-.7.6-1.3,1-1.8.5-.5,1-.9,1.6-1.1.6-.2,1.2-.4,1.9-.4s1.4.1,2.1.3c.7.2,1.3.5,1.9,1s1,.9,1.3,1.5c.3.5.5,1.2.6,1.8,0,.7,0,1.4-.2,2.1h0ZM463.7,278.7c.2-.5.2-1,.1-1.5,0-.5-.3-.8-.5-1.2s-.6-.7-1-.9-.8-.5-1.3-.6c-.5-.2-.9-.2-1.4-.3s-.9,0-1.4.1c-.4.1-.8.3-1.1.6-.3.3-.6.7-.8,1.2s-.2,1-.1,1.5c0,.5.3.9.5,1.2s.6.7,1,.9.8.5,1.3.6c.5.1.9.2,1.4.3s.9,0,1.4-.1c.4-.1.8-.3,1.1-.6.3-.3.6-.7.8-1.2h0Z"/>
                  <path class="cls-10" d="M454.2,289.4c-.4-.1-.7-.2-1-.1-.3,0-.6.1-.8.3-.2.2-.5.4-.6.7s-.3.6-.4.9c-.1.4-.2.7-.2,1s0,.5.1.8.2.4.4.5.3.2.5.3c.4.1.7.1.9,0,.2-.1.4-.2.6-.4.2-.3.5-.7.8-1.1.3-.4.6-.9,1-1.5.2-.4.5-.7.8-.9s.5-.4.8-.5c.3,0,.5-.1.8-.1s.5,0,.8.1c.5.2.9.4,1.2.7.3.3.5.7.6,1.1.1.4.2.9.1,1.3,0,.5-.1.9-.3,1.4-.2.5-.4,1-.7,1.4-.3.4-.6.7-1,1s-.8.4-1.2.5-.9,0-1.4-.1l.6-1.7c.6.2,1.2,0,1.5-.2.4-.3.7-.7.9-1.3,0-.2.1-.4.1-.6,0-.2,0-.4,0-.6,0-.2-.1-.4-.2-.6-.1-.2-.3-.3-.6-.4-.4-.1-.6-.1-.9,0-.3.1-.5.4-.7.7,0,0-.1.2-.3.4-.1.2-.3.5-.5.8s-.4.6-.5.8c-.2.3-.3.5-.4.6-.2.3-.4.5-.7.7-.2.2-.5.3-.8.4-.3,0-.5.1-.8.1s-.5,0-.8-.1c-.5-.2-1-.5-1.3-.8-.3-.4-.5-.8-.7-1.2-.1-.4-.2-.9-.1-1.4s.1-1,.3-1.5c.2-.5.4-1.1.7-1.5.3-.5.6-.8,1-1.1.4-.3.9-.4,1.4-.5s1.1,0,1.7.2l-.6,1.7h0Z"/>
                  <path class="cls-10" d="M458.2,299.1l-2.6,7.9-1.5-.5,1-3.1-8.3-2.7.6-1.7,8.3,2.7,1-3.1,1.5.5h0Z"/>
                  <path class="cls-10" d="M447.1,306l-.6,1.9-1.8-.6.6-1.9,1.8.6h0Z"/>
                </g>
                <g>
                  <path class="cls-10" d="M838.8,183.1l-2.4,7.9-1.5-.4,1-3.1-8.3-2.5.5-1.7,8.3,2.5.9-3.1,1.5.4h0Z"/>
                  <path class="cls-10" d="M834.8,197.1c-.2.7-.6,1.4-1,1.9s-1,.9-1.6,1.1-1.2.4-1.9.4-1.4,0-2.1-.3c-.7-.2-1.3-.5-1.9-.9-.6-.4-1-.9-1.3-1.4-.3-.6-.6-1.1-.7-1.8,0-.7,0-1.4.2-2.1.2-.7.6-1.4,1-1.9.5-.5,1-.9,1.6-1.1.6-.3,1.2-.4,1.9-.4.7,0,1.4,0,2.1.3.7.2,1.3.5,1.9.9s1,.9,1.4,1.4c.3.6.6,1.1.7,1.8,0,.7,0,1.4-.2,2.1h0ZM833.4,196.7c.2-.5.2-1,0-1.4s-.3-.8-.6-1.2c-.3-.4-.6-.6-1-.9s-.8-.4-1.3-.6c-.5-.1-.9-.2-1.4-.2-.5,0-.9,0-1.4.2-.4.1-.8.4-1.1.7-.3.3-.6.7-.7,1.3-.2.5-.2,1,0,1.4,0,.4.3.8.6,1.2.3.3.6.6,1,.9s.9.4,1.3.6c.5.1.9.2,1.4.2.5,0,.9,0,1.4-.2s.8-.4,1.1-.7c.3-.3.6-.7.7-1.3h0Z"/>
                  <path class="cls-10" d="M825.7,204.8l7.1-1.9-.6,2-5.2,1.3,3.6,3.9-.6,1.9-4.9-5.5-3.8-1.2.5-1.7,3.8,1.2h0Z"/>
                  <path class="cls-10" d="M828.5,217.9c-.2.7-.6,1.4-1,1.9s-1,.9-1.6,1.1-1.2.4-1.9.4-1.4,0-2.1-.3c-.7-.2-1.3-.5-1.9-.9-.6-.4-1-.9-1.3-1.4-.3-.6-.6-1.1-.7-1.8,0-.7,0-1.4.2-2.1.2-.7.6-1.4,1-1.9.5-.5,1-.9,1.6-1.1.6-.3,1.2-.4,1.9-.4.7,0,1.4,0,2.1.3.7.2,1.3.5,1.9.9s1,.9,1.4,1.4c.3.6.6,1.1.7,1.8,0,.7,0,1.4-.2,2.1h0ZM827.1,217.4c.2-.5.2-1,0-1.4s-.3-.8-.6-1.2c-.3-.4-.6-.6-1-.9s-.8-.4-1.3-.6c-.5-.1-.9-.2-1.4-.2-.5,0-.9,0-1.4.2-.4.1-.8.4-1.1.7-.3.3-.6.7-.7,1.3-.2.5-.2,1,0,1.4s.3.8.6,1.2c.3.3.6.6,1,.9s.9.4,1.3.6c.5.1.9.2,1.4.2.5,0,.9,0,1.4-.2s.8-.4,1.1-.7c.3-.3.6-.7.7-1.3h0Z"/>
                  <path class="cls-10" d="M819.3,223.9c-.4-.1-.7-.1-1-.1-.3,0-.6.2-.8.3s-.4.4-.6.7c-.2.3-.3.6-.4.9-.1.4-.2.7-.2,1,0,.3,0,.5.1.8,0,.2.2.4.4.5s.3.2.5.3c.4.1.7.1.9,0,.2-.1.4-.3.5-.4.2-.3.5-.7.7-1.1.2-.4.6-.9,1-1.6.2-.4.5-.7.8-.9.3-.2.5-.4.8-.5.3-.1.5-.1.8-.1.3,0,.5,0,.8.1.5.1.9.4,1.2.7.3.3.5.7.7,1.1.1.4.2.9.2,1.3s0,.9-.2,1.4c-.2.5-.4,1-.6,1.4-.3.4-.6.8-1,1-.4.3-.8.4-1.2.5-.5,0-.9,0-1.5-.1l.5-1.7c.7.1,1.2,0,1.5-.2.4-.3.7-.8.8-1.4,0-.2,0-.4.1-.6,0-.2,0-.4,0-.6,0-.2-.1-.4-.3-.6-.1-.2-.3-.3-.6-.4-.3-.1-.7,0-.9,0-.3.2-.5.4-.7.7,0,0,0,.2-.2.4s-.3.5-.5.8c-.2.3-.3.6-.5.8-.2.3-.3.5-.4.6-.2.3-.4.5-.7.7-.2.2-.5.3-.8.4s-.5.1-.8.1-.5,0-.8-.1c-.5-.2-1-.4-1.3-.8s-.5-.7-.7-1.2c-.1-.4-.2-.9-.2-1.4,0-.5.1-1,.3-1.5.2-.6.4-1.1.7-1.5s.6-.8,1-1.1c.4-.3.8-.5,1.4-.6.5,0,1.1,0,1.7.1l-.5,1.7h0Z"/>
                  <path class="cls-10" d="M822.5,237l-.5,1.8-11,.8.6-1.8h2.9c0-.1,1.2-4.1,1.2-4.1l-2.3-1.7.5-1.8,8.7,6.7h0ZM816.7,234.6l-.9,3,4.7-.2h0s-3.8-2.8-3.8-2.8h0Z"/>
                  <path class="cls-10" d="M820.6,243.3l-2.4,7.9-1.5-.4,1-3.1-8.3-2.5.5-1.7,8.3,2.5.9-3.1,1.5.4h0Z"/>
                  <path class="cls-10" d="M816.6,257.3c-.2.7-.6,1.4-1,1.9s-1,.9-1.6,1.1-1.2.4-1.9.4-1.4,0-2.1-.3c-.7-.2-1.3-.5-1.9-.9-.6-.4-1-.9-1.4-1.4-.3-.5-.6-1.1-.7-1.8,0-.7,0-1.4.2-2.1.2-.7.6-1.4,1-1.9.5-.5,1-.9,1.6-1.1s1.2-.4,1.9-.4c.7,0,1.4,0,2.1.3.7.2,1.3.5,1.9.9s1,.9,1.4,1.4c.3.6.6,1.1.7,1.8s0,1.4-.2,2.1h0ZM815.2,256.9c.2-.5.2-1,0-1.4s-.3-.8-.6-1.2c-.3-.3-.6-.6-1-.9s-.8-.4-1.3-.6c-.5-.1-.9-.2-1.4-.2-.5,0-.9,0-1.4.2-.4.1-.8.4-1.1.7-.3.3-.6.7-.7,1.3-.2.5-.2,1,0,1.5,0,.4.3.8.6,1.2.3.3.6.6,1,.9s.8.5,1.3.6c.5.1.9.2,1.4.2.5,0,.9,0,1.4-.2s.8-.4,1.1-.7c.3-.3.6-.7.7-1.3h0Z"/>
                  <path class="cls-10" d="M812.9,268.7l-1.2,4.1c-.2.8-.5,1.4-1,1.8-.4.5-.9.8-1.5,1-.5.2-1.2.3-1.8.3s-1.3-.1-2-.3-1.3-.5-1.8-.8c-.5-.4-1-.8-1.3-1.2-.3-.5-.5-1-.6-1.7,0-.6,0-1.3.2-2.1l1.2-4.1,9.8,3h0ZM803.9,267.9l-.5,1.7c-.2.7-.3,1.2-.2,1.7,0,.5.2.9.4,1.2s.6.6,1,.8.8.4,1.3.5c.5.1,1,.2,1.4.3.5,0,.9,0,1.3-.2.4-.1.7-.4,1-.8.3-.4.6-.9.8-1.6l.5-1.7-7-2.1h0Z"/>
                  <path class="cls-10" d="M809.7,279.3l-2.1,7.1-1.5-.5,1.6-5.4-2.6-.8-1.5,5-1.4-.4,1.5-5-2.9-.9-1.7,5.5-1.5-.5,2.2-7.2,9.8,3h0Z"/>
                  <path class="cls-10" d="M806.8,288.6l-.5,1.8-8.6,2.3h0s7.2,2.2,7.2,2.2l-.5,1.6-9.8-3,.5-1.8,8.6-2.3h0s-7.2-2.2-7.2-2.2l.5-1.6,9.8,3h0Z"/>
                  <path class="cls-10" d="M803.6,299.3l-2.1,7.1-1.5-.5,1.6-5.4-2.6-.8-1.5,5-1.4-.4,1.5-5-2.9-.9-1.7,5.5-1.5-.5,2.2-7.2,9.8,3h0Z"/>
                  <path class="cls-10" d="M800.8,308.6l-.5,1.8-8.6,2.3h0s7.2,2.2,7.2,2.2l-.5,1.6-9.8-3,.5-1.8,8.6-2.3h0s-7.2-2.2-7.2-2.2l.5-1.6,9.8,3h0Z"/>
                  <path class="cls-10" d="M789.3,322.9c-.4-.1-.7-.1-1-.1-.3,0-.6.2-.8.3s-.4.4-.6.7c-.2.3-.3.6-.4.9-.1.4-.2.7-.2,1,0,.3,0,.5.1.8,0,.2.2.4.4.5s.3.2.5.3c.4.1.7.1.9,0,.2-.1.4-.3.5-.4.2-.3.5-.7.7-1.1s.6-1,1-1.6c.2-.4.5-.7.8-.9s.5-.4.8-.5c.3-.1.5-.1.8-.1.3,0,.5,0,.8.1.5.1.9.4,1.2.7s.5.7.7,1.1c.1.4.2.9.2,1.3s0,.9-.2,1.4c-.2.5-.4,1-.6,1.4s-.6.8-1,1-.8.4-1.2.5c-.5,0-.9,0-1.5-.1l.5-1.7c.7.1,1.2,0,1.5-.2.4-.3.7-.8.8-1.4,0-.2,0-.4.1-.6s0-.4,0-.6c0-.2-.1-.4-.3-.5-.1-.2-.3-.3-.6-.4-.3-.1-.7,0-.9,0-.3.2-.5.4-.7.7,0,0,0,.2-.2.4-.1.2-.3.5-.5.8-.2.3-.3.6-.5.8-.2.3-.3.5-.4.6-.2.3-.4.5-.7.7-.2.2-.5.3-.8.4-.3,0-.5.1-.8.1s-.5,0-.8-.1c-.5-.2-1-.4-1.3-.8s-.5-.7-.7-1.2c-.1-.4-.2-.9-.2-1.4,0-.5.1-1,.3-1.5.2-.6.4-1.1.7-1.5.3-.5.6-.8,1-1.1.4-.3.8-.5,1.4-.5s1.1,0,1.7.1l-.5,1.7h0Z"/>
                  <path class="cls-10" d="M793.6,332.4l-2.4,8-1.5-.5,1-3.1-8.3-2.5.5-1.7,8.3,2.5.9-3.1,1.5.5h0Z"/>
                  <path class="cls-10" d="M782.7,339.7l-.6,1.9-1.9-.6.6-1.9,1.9.6Z"/>
                </g>
                <polyline class="cls-2" points="742.7 -7.9 770.3 9.7 1029.4 51.3"/>
                <polyline class="cls-6" points="500.6 118.9 563.2 135.6 636 171.8 829.4 175.6 1031.9 209.9"/>
                <line class="cls-2" x1="810.5" y1="16.4" x2="832.6" y2="-13.2"/>
                <polyline class="cls-2" points="754.3 -.5 673 359.9 630.3 683.3"/>
                <line class="cls-2" x1="465.6" y1="459.3" x2="1026.1" y2="533.2"/>
                <polyline class="cls-6" points="1028.7 447.8 999.9 514.9 965.1 692"/>
                <line class="cls-2" x1="1026.1" y1="616.4" x2="728.7" y2="576.6"/>
                <path class="cls-2" d="M797.9,687.8s31.9-213.9,32.7-215.3c.7-1.4-2.5-26.5-2.5-26.5l14.3-142.1,35-33,9.8-25.8,14.1,3.6,8.6-.7,80,31.6,36.2,3.2"/>
                <line class="cls-3" x1="393.9" y1="88.8" x2="123" y2="63.2"/>
                <line class="cls-3" x1="399.2" y1="105.3" x2="117.4" y2="78.7"/>
                <polyline class="cls-3" points="111.3 94.8 382.2 120.4 392 200.7 388.5 219.6 376.6 221.3"/>
                <line class="cls-3" x1="385" y1="136.1" x2="105.4" y2="109.6"/>
                <line class="cls-3" x1="386.4" y1="152.9" x2="98.2" y2="125.6"/>
                <line class="cls-3" x1="311.8" y1="162.9" x2="90.2" y2="141.9"/>
                <polyline class="cls-3" points="138.6 164.3 311.8 180.1 370.5 174"/>
                <polyline class="cls-3" points="137.7 181.5 315.6 197.3 326.2 198.6 374 193.7"/>
                <line class="cls-3" x1="151.6" y1="31.8" x2="391.1" y2="54.5"/>
                <line class="cls-3" x1="393.9" y1="38.4" x2="153.1" y2="15.8"/>
                <line class="cls-3" x1="154.5" y1="-.5" x2="392.2" y2="20.2"/>
                <polyline class="cls-3" points="255.8 -6.8 385 4.5 391.1 12.2"/>
                <polyline class="cls-3" points="402.9 -5.1 391.1 12.2 393.9 33 390 72"/>
                <line class="cls-3" x1="395.7" y1="-5.1" x2="388" y2="8.1"/>
                <line class="cls-3" x1="377.4" y1="-8.4" x2="376.2" y2="3.7"/>
                <polyline class="cls-3" points="362.1 -8.4 348.8 132.6 354.2 175.6"/>
                <polyline class="cls-3" points="416.6 385.2 399.2 376 382 352.3 378.6 293.3 381.1 265.3 369.3 151.2"/>
                <line class="cls-3" x1="329.8" y1="147.5" x2="334.4" y2="197.8"/>
                <polyline class="cls-3" points="321.2 -.5 309.5 128.9 315.6 197.3 306.1 294.9"/>
                <line class="cls-3" x1="283.4" y1="-6.8" x2="248.9" y2="356.5"/>
                <polyline class="cls-3" points="239.6 -6.8 204.1 370.8 218.9 373.3 243.2 412.1 260 406.7"/>
                <polyline class="cls-3" points="193.8 -5.1 162.8 336.2 182.2 351.5 228.3 356.5 268.3 418.5 295.9 432.9 303 449"/>
                <polyline class="cls-3" points="203.1 432.2 234.2 432.8 255 465.2"/>
                <polyline class="cls-3" points="154.5 -7.6 123.7 328.7 346.7 349.5 349 323.6"/>
                <line class="cls-3" x1="100.5" y1="310" x2="329.8" y2="331.2"/>
                <polyline class="cls-3" points="135.8 196.8 313.7 213.7 327.3 215.1 375.4 209.6"/>
                <polyline class="cls-3" points="379 244.6 340.8 249 311.8 246.8 99.3 227.1 94.3 228.4 87.6 292.4 332.1 315"/>
                <polyline class="cls-3" points="134.3 213.3 312.4 231 348.8 231 355.5 286.5 358 320.6 356.2 324.2 330.9 322"/>
                <polyline class="cls-3" points="353 265.6 342 266.6 92.8 242.9 20.3 236.1 17.6 254.2 -4.4 253.3 -7.1 272.7 -61.8 272.7 -64.7 274.7 -66 280.6"/>
                <polyline class="cls-3" points="60.5 239.9 58 272.7 356.5 300.3"/>
                <line class="cls-3" x1="355.1" y1="283.6" x2="59.2" y2="256.6"/>
                <polyline class="cls-3" points="277.8 310 299.5 361 299.5 375.9 300.8 382.5 309.2 397.6 329.8 421.8 336.6 436 335.6 454.8"/>
                <polyline class="cls-3" points="228.3 356.5 233.3 354.9 299.5 361"/>
                <polyline class="cls-3" points="239.1 373.3 282.5 375.9 284.3 372.3 285 359.6"/>
                <polyline class="cls-3" points="299.5 364.2 327 365.3 341.3 367.6 341.3 386.2 348.8 392.7 331.3 423.2"/>
                <line class="cls-3" x1="332.6" y1="298.1" x2="327" y2="365.3"/>
                <polyline class="cls-3" points="411.3 404.2 404.5 404.2 390.1 429.3 374.9 442.4 365.2 458.7 358 467.3"/>
                <polyline class="cls-2" points="1026.1 314.3 899.5 345.7 877.8 353.1 837.2 355.7 808.2 355.7 797.9 358.6 767.9 351.7"/>
                <polyline class="cls-2" points="762.4 370 540.3 340.3 525.5 283.6 533.6 248 563.2 135.6 630.3 -15.1"/>
                <line class="cls-2" x1="533.6" y1="248" x2="788.5" y2="283.1"/>
                <path class="cls-2" d="M565.3,252.4c-.3,0,2.2-31.1,2.2-31.1l20.8-73.2"/>
                <line class="cls-2" x1="585.3" y1="255.2" x2="573.8" y2="344.6"/>
                <polyline class="cls-2" points="540.3 340.3 538.5 359.6 529.2 385.2 486.1 425.5 476 437.4 444.9 504.5 438.4 539.3 455.6 692"/>
                <polyline class="cls-2" points="438.4 539.3 444.9 559.4 458.5 579.8 599.1 598.1 628.3 352.1"/>
                <polyline class="cls-2" points="517.2 396.4 530.6 400.1 508 586.3"/>
                <polyline class="cls-2" points="797.9 683.3 633.2 661.7 581.5 665.2 579.5 679.2 583 687.8"/>
                <line class="cls-2" x1="685.3" y1="668.5" x2="685.3" y2="687.8"/>
                <polyline class="cls-2" points="1026.1 481.2 941.8 459.3 828.1 446"/>
                <polyline class="cls-2" points="941.8 459.3 1007.5 205.8 1026.1 77.1"/>
                <polyline class="cls-2" points="917 -7.9 897 69.2 897 83.6 917 138.5 909.9 157.1 892.7 186.3"/>
                <line class="cls-2" x1="908.5" y1="115" x2="1029.4" y2="134.5"/>
                <line class="cls-2" x1="897" y1="69.2" x2="1031.9" y2="93.3"/>
                <polyline class="cls-2" points="968.9 41.6 944.3 195.1 936.4 228.9 908.5 293.1 900.2 327.6 900.2 352.1 902.7 374.6 895.5 453.9 890.9 499.8 887.2 514.9"/>
                <line class="cls-2" x1="840.9" y1="318.5" x2="900.2" y2="327.6"/>
                <line class="cls-2" x1="962.8" y1="378.1" x2="1026.1" y2="396.8"/>
                <line class="cls-2" x1="988.8" y1="471.5" x2="1026.1" y2="355.6"/>
                <polyline class="cls-2" points="832 407 874.3 408.7 952.3 418.8 1031.9 439.2"/>
                <polyline class="cls-2" points="656.2 -7.9 619.7 87.2 619.7 120.2 645.4 120.2 669.8 124.8 675.9 144.9 673.4 172.5"/>
                <path class="cls-2" d="M645.6,19.6l98.8,23.7"/>
                <line class="cls-2" x1="695.1" y1="31.5" x2="703.9" y2="-7.9"/>
                <line class="cls-2" x1="606.7" y1="38" x2="637.2" y2="41.6"/>
                <line class="cls-2" x1="742.7" y1="56.7" x2="858.1" y2="75"/>
                <polyline class="cls-2" points="777.1 62.1 767.9 103 754.3 132 748 138.8 744.5 173.9"/>
                <line class="cls-2" x1="603.6" y1="560.1" x2="645.9" y2="565.7"/>
                <polyline class="cls-3" points="26.6 305.9 12.4 320.6 -9.8 390.4"/>
                <polyline class="cls-3" points="85.5 344.7 63.8 371.7 -128.9 420.9"/>
                <polyline class="cls-3" points="-39.9 284.9 -48.2 300.3 12.4 320.6 27.9 331.7 50.1 356.5 61.7 372.3"/>
                <path class="cls-3" d="M-3,368.9l-37.1-15.8-31.6-8.1-2-2.9,9-28,4.5-1.4,67.2,24.9s44.1,37.3,43.9,37.4"/>
                <polyline class="cls-3" points="-68.7 326.7 -34.8 337.6 2.1 353.1 29.3 375 53.5 463.6 58 472.7 93.4 468.1 96.4 461.8 77.9 390.4"/>
                <polyline class="cls-3" points="81.6 404.5 -17.2 430.6 -27 395.3"/>
                <line class="cls-3" x1="-6.4" y1="389.6" x2="15.7" y2="472.7"/>
                <polyline class="cls-3" points="-22.1 412.9 74.3 388.2 87.6 396.1 100.1 398.3 108.6 405.1 108.6 415.7 102.2 420.9 101.6 424.1 110.4 459.5"/>
                <line class="cls-3" x1="16.9" y1="365" x2="10.8" y2="385.2"/>
                <line class="cls-3" x1="86.1" y1="422" x2="8.4" y2="442.4"/>
                <line class="cls-3" x1="11.6" y1="457.3" x2="90" y2="437"/>
                <polyline class="cls-3" points="93.8 451.9 -5.1 478.5 -7.3 480.8 -7.3 483.5 -2.3 484.6 38.3 479.7 42 481.9 42.4 489.2"/>
                <line class="cls-3" x1="54.5" y1="393.3" x2="49.9" y2="375.9"/>
                <polyline class="cls-3" points="96.4 461.8 128.9 455.7 149.8 438.2"/>
                <polyline class="cls-3" points="233.7 471.3 232.9 477.8 220.9 486.5 97.7 485.5 39.9 490.1 -29.3 505.6 -51.8 510.8 -66.7 510.8 -94.7 497.9 -102.9 497.3 -108.8 500 -119.1 510.8"/>
                <polyline class="cls-3" points="108.6 415.7 133 431.2 148.4 437 155.8 442.4 159.4 449 161.4 463.4 172.5 474.5 170.1 486.5"/>
                <line class="cls-3" x1="108.6" y1="450.3" x2="133" y2="431.2"/>
                <polyline class="cls-3" points="128.9 455.7 137.1 458.2 147 459.5 159.7 451.1"/>
                <path class="cls-3" d="M433.6,689.2c1-1-23.9-157.4-23.9-157.4l7.2-51.9-19.9.8"/>
                <polyline class="cls-3" points="220.9 486.5 216.4 513.8 183.6 553.5 177.4 561.9 172.5 598.1 172.5 632 158.2 656.4 152 658.1 138.1 651.1 131.7 659.5"/>
                <path class="cls-3" d="M147.2,687.8c0-1.3-10.1-24.3-10.1-24.3l-18.4-12.9-12.2-25.6"/>
                <polyline class="cls-3" points="172.5 632 304.2 645.9 308.5 642.5 312.8 594.2 175.1 579.1"/>
                <polyline class="cls-3" points="203.9 528.9 267.1 536.5 255.4 640.7 247.5 689.2"/>
                <line class="cls-3" x1="190.7" y1="544.9" x2="265.3" y2="552.8"/>
                <line class="cls-3" x1="263.3" y1="570.2" x2="177.5" y2="561.6"/>
                <line class="cls-3" x1="172.5" y1="596.5" x2="311.2" y2="611.4"/>
                <line class="cls-3" x1="309.7" y1="628.6" x2="172.5" y2="614.5"/>
                <line class="cls-3" x1="218" y1="601.4" x2="214.7" y2="636.4"/>
                <polyline class="cls-3" points="229.8 638.3 229.8 647.3 241.1 667.6 250.5 670.8"/>
                <polyline class="cls-3" points="210.6 636 210.6 645.9 229.8 684.9"/>
                <rect class="cls-11" x="614.7" y="476.2" width="71.4" height="129.6" transform="translate(33.3 1119.8) rotate(-82.9)"/>
                <g>
                  <path class="cls-10" d="M596.6,513.3c0,.4,0,.7,0,1,0,.3.3.5.5.8.2.2.5.4.8.5.3.1.6.2,1,.2.4,0,.7,0,1,0s.5-.1.7-.3c.2-.1.3-.3.4-.5,0-.2.2-.4.2-.5,0-.4,0-.7-.2-.9-.2-.2-.3-.4-.5-.5-.3-.2-.8-.4-1.2-.5-.5-.2-1-.4-1.7-.7-.4-.2-.8-.4-1-.6-.3-.2-.5-.5-.6-.7s-.2-.5-.3-.8c0-.3,0-.5,0-.8,0-.5.2-.9.5-1.3s.6-.6,1-.8c.4-.2.8-.3,1.3-.4.5,0,.9,0,1.4,0,.5,0,1,.2,1.5.4.5.2.8.5,1.2.8.3.3.6.7.7,1.1.2.4.2.9.1,1.4l-1.8-.2c0-.7-.1-1.1-.5-1.5s-.9-.5-1.5-.6c-.2,0-.4,0-.7,0-.2,0-.4,0-.6.1-.2,0-.4.2-.5.4s-.2.4-.3.6c0,.4,0,.7.2.9.2.2.5.4.8.6,0,0,.2,0,.4.2.2.1.5.2.8.3.3.1.6.2.9.4s.5.2.6.3c.3.1.6.3.8.5.2.2.4.4.5.7s.2.5.3.8c0,.3,0,.5,0,.8,0,.6-.2,1-.5,1.4-.3.4-.6.7-1,.9-.4.2-.9.3-1.4.4s-1,0-1.5,0c-.6,0-1.1-.2-1.6-.4-.5-.2-.9-.5-1.3-.8s-.6-.8-.8-1.2c-.2-.5-.2-1-.2-1.7l1.8.2h0Z"/>
                  <path class="cls-10" d="M608.9,508l1.9.2,2.7,10.7-1.9-.2-.6-2.8-4.1-.5-1.3,2.6-1.8-.2,5.2-9.7h0ZM607.5,514l3.1.4-1-4.6h0l-2.1,4.2h0Z"/>
                  <path class="cls-10" d="M616.4,508.9l1.8.2-1.3,10.2-1.8-.2,1.3-10.2h0Z"/>
                  <path class="cls-10" d="M621.4,516.4c0,.4,0,.7,0,1,0,.3.3.5.5.8.2.2.5.4.8.5.3.1.6.2,1,.2.4,0,.7,0,1,0s.5-.1.7-.3c.2-.1.3-.3.4-.4s.2-.4.2-.5c0-.4,0-.7-.2-.9-.2-.2-.3-.4-.5-.5-.3-.2-.8-.4-1.2-.5-.5-.2-1-.4-1.7-.7-.4-.2-.8-.4-1-.6-.3-.2-.5-.5-.6-.7s-.2-.5-.3-.8c0-.3,0-.5,0-.8,0-.5.2-.9.5-1.3s.6-.6,1-.8c.4-.2.8-.3,1.3-.4.5,0,.9,0,1.4,0,.5,0,1,.2,1.5.4.5.2.8.5,1.2.8.3.3.6.7.7,1.1.2.4.2.9.1,1.4l-1.8-.2c0-.7-.1-1.2-.5-1.5-.4-.3-.9-.5-1.5-.6-.2,0-.4,0-.7,0-.2,0-.4,0-.6.1-.2,0-.4.2-.5.4s-.2.4-.3.6c0,.4,0,.7.2.9.2.2.5.4.8.6,0,0,.2,0,.4.2.2,0,.5.2.8.3.3.1.6.2.9.4s.5.2.6.3c.3.1.6.3.8.5.2.2.4.4.5.7s.2.5.3.8c0,.3,0,.5,0,.8,0,.6-.2,1-.5,1.4-.3.4-.6.7-1,.9-.4.2-.9.3-1.4.4s-1,0-1.5,0c-.6,0-1.1-.2-1.6-.4-.5-.2-.9-.5-1.3-.8s-.6-.8-.8-1.2c-.2-.5-.2-1-.2-1.7l1.8.2h0Z"/>
                  <path class="cls-10" d="M631,510.7l7.3.9-.2,1.5-5.5-.7-.3,2.7,5.1.6-.2,1.5-5.1-.6-.4,3,5.7.7-.2,1.5-7.4-.9,1.3-10.2h0Z"/>
                  <path class="cls-10" d="M640.7,511.9l1.8.2-1.3,10.2-1.8-.2,1.3-10.2Z"/>
                  <path class="cls-10" d="M645.4,512.5l1.8.2-.6,4.6,5.1-4.1,2.2.3-4.6,3.6,3.6,6.7-2.2-.3-2.7-5.3-1.6,1.3-.4,3.4-1.8-.2,1.3-10.2h0Z"/>
                  <path class="cls-10" d="M658.6,514.2l1.9.2,2.7,10.7-1.9-.2-.6-2.8-4.1-.5-1.3,2.6-1.8-.2,5.2-9.7h0ZM657.2,520.2l3.1.4-1-4.6h0l-2.1,4.2h0Z"/>
                  <path class="cls-10" d="M666.1,515.1l1.8.2-1.3,10.2-1.8-.2,1.3-10.2Z"/>
                  <path class="cls-10" d="M593.6,526.5l1.8.2-.7,5.9c0,.3,0,.7,0,1,0,.3,0,.7.2,1s.3.6.6.8c.3.2.7.4,1.3.4s1,0,1.4,0c.3-.1.6-.3.8-.6.2-.3.3-.6.4-.9,0-.3.1-.7.2-1l.7-5.9,1.8.2-.8,6.5c0,.7-.2,1.2-.5,1.7-.3.5-.6.8-1,1.1-.4.3-.9.5-1.4.6-.5,0-1.1.1-1.7,0-.6,0-1.2-.2-1.7-.5-.5-.2-.9-.5-1.2-.9-.3-.4-.6-.8-.7-1.3-.1-.5-.2-1.1,0-1.8l.8-6.5h0Z"/>
                  <path class="cls-10" d="M614.6,535.8c0,.4,0,.7,0,1,0,.3.3.5.5.8.2.2.5.4.8.5.3.1.6.2,1,.2.4,0,.7,0,1,0,.3,0,.5-.2.7-.3s.3-.3.4-.5c0-.2.2-.4.2-.5,0-.4,0-.7-.2-.9s-.3-.4-.5-.5c-.3-.2-.8-.4-1.2-.5-.5-.2-1-.4-1.7-.7-.4-.2-.8-.4-1-.6s-.5-.5-.6-.7-.2-.5-.3-.8c0-.3,0-.5,0-.8,0-.5.2-.9.5-1.3s.6-.6,1-.8.8-.3,1.3-.4c.5,0,.9,0,1.4,0,.5,0,1,.2,1.5.4.5.2.8.5,1.2.8.3.3.6.7.7,1.1.2.4.2.9.1,1.4l-1.8-.2c0-.7-.1-1.2-.5-1.5-.4-.3-.9-.5-1.5-.6-.2,0-.4,0-.7,0-.2,0-.4,0-.6.1-.2,0-.4.2-.5.3s-.2.4-.3.6c0,.4,0,.7.2.9.2.2.5.4.8.6,0,0,.2,0,.4.2.2,0,.5.2.8.3.3.1.6.2.9.4s.5.2.6.3c.3.1.6.3.8.5.2.2.4.4.5.7.1.2.2.5.3.8,0,.3,0,.5,0,.8,0,.6-.2,1-.5,1.4s-.6.7-1,.9-.9.3-1.4.4-1,0-1.5,0c-.6,0-1.1-.2-1.6-.4-.5-.2-.9-.5-1.3-.8s-.6-.8-.8-1.2c-.2-.5-.2-1-.2-1.7l1.8.2h0Z"/>
                  <path class="cls-10" d="M604.6,527.8l8.2,1-.2,1.5-3.2-.4-1.1,8.6-1.8-.2,1.1-8.6-3.2-.4.2-1.5Z"/>
                  <path class="cls-10" d="M623.8,530.2l1.8.2-.7,5.9c0,.3,0,.7,0,1,0,.4,0,.7.2,1s.3.6.6.8c.3.2.7.4,1.3.4s1,0,1.4-.1c.3-.1.6-.3.8-.6.2-.3.3-.6.4-.9,0-.3.1-.7.2-1l.7-5.9,1.8.2-.8,6.5c0,.7-.2,1.2-.5,1.7-.3.5-.6.8-1,1.1-.4.3-.9.5-1.4.6-.5,0-1.1.1-1.7,0-.6,0-1.2-.2-1.7-.5-.5-.2-.9-.5-1.2-.9-.3-.4-.6-.8-.7-1.3s-.2-1.1,0-1.8l.8-6.5h0Z"/>
                  <path class="cls-10" d="M634.8,531.6l1.9.2,3.7,8.1h0l.9-7.5,1.7.2-1.3,10.2-1.9-.2-3.7-8.1h0l-.9,7.5-1.7-.2,1.3-10.2h0Z"/>
                  <path class="cls-10" d="M650.3,533.2c.8,0,1.4.3,2,.7s1,.8,1.4,1.3.6,1.1.8,1.8c.1.7.2,1.4,0,2.1,0,.7-.3,1.4-.6,2-.3.6-.7,1.2-1.2,1.6s-1,.8-1.7,1c-.6.2-1.3.3-2.1.2-.8,0-1.4-.3-2-.7-.6-.4-1-.8-1.4-1.3-.4-.5-.6-1.1-.8-1.8s-.2-1.4,0-2.1c0-.7.3-1.4.6-2,.3-.6.7-1.1,1.2-1.6.5-.4,1-.8,1.7-1,.6-.2,1.3-.3,2.1-.2h0ZM650.1,534.7c-.5,0-1,0-1.5.2-.4.2-.8.4-1.1.8s-.5.7-.7,1.2c-.2.5-.3.9-.3,1.4,0,.5,0,1,0,1.5,0,.5.2.9.4,1.3s.5.7.8,1c.4.3.8.4,1.4.5s1,0,1.4-.2c.4-.2.8-.4,1.1-.8s.5-.7.7-1.2c.2-.5.3-.9.4-1.4,0-.5,0-1,0-1.5,0-.5-.2-.9-.4-1.3s-.5-.7-.8-1c-.4-.3-.8-.4-1.4-.5h0Z"/>
                  <path class="cls-10" d="M657.4,534.4l2.5.3,1.8,8.3h0l3.7-7.6,2.5.3-1.3,10.2-1.7-.2,1-7.9h0l-3.8,7.5-1.5-.2-1.8-8.2h0l-1,7.8-1.7-.2,1.3-10.2h0Z"/>
                  <path class="cls-10" d="M670.8,536l1.8.2-1.3,10.2-1.8-.2,1.3-10.2Z"/>
                  <path class="cls-10" d="M677.4,543.1l-3-6.7,2.1.3,2.1,4.9,3.2-4.2,2,.2-4.6,5.7-.5,4-1.8-.2.5-4h0Z"/>
                  <path class="cls-10" d="M688.2,538.2l1.9.2,2.7,10.7-1.9-.2-.6-2.8-4.1-.5-1.3,2.6-1.8-.2,5.2-9.7h0ZM686.8,544.2l3.1.4-1-4.6h0l-2.1,4.2h0Z"/>
                  <path class="cls-10" d="M591.2,546.5l1.8.2-.5,4,4.6.6.5-4,1.8.2-1.3,10.2-1.8-.2.6-4.6-4.6-.6-.6,4.6-1.8-.2,1.3-10.2Z"/>
                  <path class="cls-10" d="M606.6,548.2c.8,0,1.4.3,2,.7s1,.8,1.4,1.3.6,1.1.8,1.8c.1.7.2,1.4,0,2.1,0,.7-.3,1.4-.6,2-.3.6-.7,1.1-1.2,1.6-.5.4-1,.8-1.7,1-.6.2-1.3.3-2.1.2s-1.4-.3-2-.7c-.6-.3-1-.8-1.4-1.3-.4-.5-.6-1.1-.8-1.8s-.2-1.4,0-2.1c0-.7.3-1.4.6-2,.3-.6.7-1.1,1.2-1.6.5-.4,1-.8,1.7-1s1.3-.3,2.1-.2ZM606.5,549.6c-.5,0-1,0-1.5.2-.4.2-.8.4-1.1.8-.3.3-.5.7-.7,1.2-.2.5-.3.9-.4,1.4s0,1,0,1.5c0,.5.2.9.4,1.3s.5.7.8,1c.4.3.8.4,1.4.5s1,0,1.5-.2c.4-.2.8-.4,1.1-.8s.5-.7.7-1.2.3-.9.4-1.4,0-1,0-1.5c0-.5-.2-.9-.4-1.3s-.5-.7-.8-1c-.4-.3-.8-.4-1.4-.5h0Z"/>
                  <path class="cls-10" d="M614.1,556.2c0,.4,0,.7,0,1,0,.3.3.5.5.8.2.2.5.4.8.5.3.1.6.2,1,.2.4,0,.7,0,1,0,.3,0,.5-.1.7-.3.2-.1.3-.3.4-.5,0-.2.2-.4.2-.5,0-.4,0-.7-.2-.9-.2-.2-.3-.4-.5-.5-.3-.2-.8-.4-1.2-.5-.5-.2-1-.4-1.7-.7-.4-.2-.8-.4-1-.6s-.5-.5-.6-.7-.2-.5-.3-.8c0-.3,0-.5,0-.8,0-.5.2-1,.5-1.3.3-.3.6-.6,1-.8s.8-.3,1.3-.4c.5,0,.9,0,1.4,0,.5,0,1,.2,1.5.4.5.2.8.5,1.2.8.3.3.6.7.7,1.1.2.4.2.9.1,1.4l-1.8-.2c0-.7-.1-1.2-.5-1.5-.4-.3-.9-.5-1.5-.6-.2,0-.4,0-.7,0-.2,0-.4,0-.6.1s-.4.2-.5.3-.2.4-.3.6c0,.4,0,.7.2.9.2.2.5.4.8.6,0,0,.2,0,.4.2s.5.2.8.3c.3.1.6.2.9.4s.5.2.6.3c.3.2.6.3.8.5.2.2.4.4.5.7.1.2.2.5.3.8,0,.3,0,.5,0,.8,0,.6-.2,1-.5,1.4-.3.4-.6.7-1,.9s-.9.3-1.4.4-1,0-1.5,0c-.6,0-1.1-.2-1.6-.4-.5-.2-.9-.5-1.3-.8-.3-.3-.6-.8-.8-1.2-.2-.5-.2-1-.2-1.7l1.8.2h0Z"/>
                  <path class="cls-10" d="M623.8,550.5l4.5.6c.7,0,1.3.3,1.7.5s.8.6,1,.9c.2.3.3.7.4,1.1,0,.4,0,.7,0,1,0,.3-.1.7-.3,1-.1.3-.3.7-.6,1-.3.3-.7.5-1.2.7-.5.2-1.1.2-1.8,0l-2.7-.3-.5,3.9-1.8-.2,1.3-10.2h0ZM625,555.6l2.6.3c.2,0,.4,0,.6,0s.4,0,.6-.2c.2-.1.4-.3.5-.5.1-.2.2-.5.3-.8,0-.3,0-.6,0-.8,0-.2-.2-.4-.3-.6-.2-.2-.3-.3-.5-.3s-.4-.1-.7-.2l-2.6-.3-.4,3.4h0Z"/>
                  <path class="cls-10" d="M634,551.8l1.8.2-1.3,10.2-1.8-.2,1.3-10.2Z"/>
                  <path class="cls-10" d="M637.7,552.3l8.2,1-.2,1.5-3.2-.4-1.1,8.6-1.8-.2,1.1-8.6-3.2-.4.2-1.5Z"/>
                  <path class="cls-10" d="M650.6,553.9l1.9.2,2.7,10.7-1.9-.2-.6-2.8-4.1-.5-1.3,2.6-1.8-.2,5.2-9.7h0ZM649.2,559.9l3.1.4-1-4.6h0l-2.1,4.2h0Z"/>
                  <path class="cls-10" d="M658.1,554.8l1.8.2-1.1,8.6,5.2.6-.2,1.5-7-.9,1.3-10.2h0Z"/>
                </g>
                <rect class="cls-14" x="218.2" y="233.6" width="22.7" height="112.8" transform="translate(-79.9 492.6) rotate(-84.9)"/>
                <g>
                  <path class="cls-10" d="M178.1,279.8l7.1.6v1.5c-.1,0-5.4-.5-5.4-.5l-.2,2.7,4.6.4v1.5c-.1,0-4.8-.4-4.8-.4l-.4,4.5-1.8-.2.9-10.2h0Z"/>
                  <path class="cls-10" d="M187.2,280.6l1.8.2-.5,6c0,.3,0,.7,0,1,0,.4,0,.7.2,1,.1.3.4.5.6.8.3.2.8.3,1.3.4.6,0,1,0,1.4-.1.3-.2.6-.4.8-.6.2-.3.3-.6.4-.9,0-.4.1-.7.1-1l.5-6,1.8.2-.6,6.5c0,.7-.2,1.2-.5,1.7-.2.5-.6.9-1,1.1-.4.3-.9.5-1.4.6s-1.1.1-1.7,0c-.6,0-1.2-.2-1.7-.4s-.9-.5-1.3-.9-.6-.8-.7-1.3-.2-1.1-.1-1.7l.6-6.5h0Z"/>
                  <path class="cls-10" d="M203.2,289.1c0,.5-.1.9-.2,1.3s-.3.8-.6,1.1-.6.5-1.1.7c-.5.2-1.1.2-1.8.1-.5,0-1-.2-1.4-.4-.4-.2-.7-.5-.9-.8-.2-.3-.4-.7-.4-1.1s-.1-.9,0-1.3v-.5c0,0,1.8.2,1.8.2v.5c-.1.6,0,1,.1,1.4s.5.5,1.1.6c.3,0,.5,0,.7,0,.2,0,.4-.2.5-.3.1-.2.2-.4.3-.6,0-.2.1-.5.1-.8l.6-7,1.8.2-.6,6.9h0Z"/>
                  <path class="cls-10" d="M206.8,282.4l1.8.2-.9,10.2-1.8-.2.9-10.2h0Z"/>
                  <path class="cls-10" d="M211.4,282.8l2.5.2,2.1,8.2h0l3.5-7.8,2.5.2-.9,10.2-1.7-.2.7-7.9h0l-3.5,7.6h-1.5c0-.1-2.1-8.3-2.1-8.3h0l-.7,7.9-1.7-.2.9-10.2h0Z"/>
                  <path class="cls-10" d="M224.9,284.1l1.8.2-.9,10.2-1.8-.2.9-10.2Z"/>
                  <path class="cls-10" d="M237.6,295.5h-1.1c0-.1-.2-1.3-.2-1.3-.5.5-1,.8-1.5,1-.5.2-1.1.2-1.7.2-.8,0-1.4-.3-2-.6-.6-.3-1.1-.8-1.4-1.3-.4-.5-.6-1.1-.8-1.8-.2-.7-.2-1.4-.1-2.1,0-.7.2-1.4.5-2s.7-1.2,1.1-1.6c.5-.5,1-.8,1.6-1,.6-.2,1.3-.3,2.1-.2.6,0,1.1.2,1.6.4.5.2.9.5,1.3.8.4.3.7.7.9,1.2.2.5.3,1,.4,1.6l-1.8-.2c0-.3,0-.6-.2-.9-.1-.3-.3-.5-.5-.7-.2-.2-.5-.4-.8-.5-.3-.1-.6-.2-.9-.2-.5,0-1,0-1.4.2-.4.2-.8.5-1.1.8-.3.4-.5.8-.7,1.2s-.3.9-.3,1.4c0,.5,0,1,0,1.5s.2.9.4,1.3c.2.4.5.7.9,1,.4.2.8.4,1.4.5.5,0,.9,0,1.2,0s.7-.2.9-.5c.3-.2.5-.5.6-.9.2-.3.3-.7.3-1.1l-2.7-.2v-1.4c.1,0,4.5.4,4.5.4l-.5,5.4h0Z"/>
                  <path class="cls-10" d="M243.9,285.8l1.9.2,3,10.6-1.9-.2-.7-2.8-4.1-.4-1.2,2.6-1.9-.2,4.8-9.9h0ZM242.7,291.9l3.1.3-1.1-4.5h0l-1.9,4.2h0Z"/>
                  <path class="cls-10" d="M255.8,286.6c.8,0,1.4.3,2,.6.6.3,1.1.8,1.4,1.3.4.5.6,1.1.8,1.8s.2,1.4.1,2.1c0,.7-.2,1.4-.5,2-.3.6-.7,1.2-1.1,1.6-.5.5-1,.8-1.6,1s-1.3.3-2.1.2c-.8,0-1.4-.3-2-.6s-1.1-.8-1.4-1.3c-.4-.5-.6-1.1-.8-1.8-.2-.7-.2-1.4-.1-2.1s.2-1.4.5-2,.7-1.2,1.1-1.6c.5-.5,1-.8,1.6-1,.6-.2,1.3-.3,2.1-.2h0ZM255.6,288.1c-.5,0-1,0-1.4.2s-.8.5-1.1.8c-.3.3-.5.8-.7,1.2s-.3.9-.3,1.4c0,.5,0,1,0,1.5s.2.9.4,1.3c.2.4.5.7.9,1s.8.4,1.4.5c.5,0,1,0,1.4-.2.4-.2.8-.5,1-.8.3-.4.5-.8.7-1.2s.3-.9.3-1.4c0-.5,0-1,0-1.5s-.2-.9-.4-1.3c-.2-.4-.5-.7-.9-1-.4-.2-.8-.4-1.4-.5h0Z"/>
                  <path class="cls-10" d="M263,287.5l1.8.2-.4,4.6,5-4.2,2.2.2-4.5,3.7,3.8,6.5-2.2-.2-2.9-5.2-1.6,1.3-.3,3.4-1.8-.2.9-10.2h0Z"/>
                  <path class="cls-10" d="M276.2,288.7l1.9.2,3,10.6-1.9-.2-.7-2.8-4.1-.4-1.2,2.6-1.9-.2,4.8-9.9h0ZM275.1,294.8l3.1.3-1.1-4.5h0l-1.9,4.2h0Z"/>
                </g>
                <g>
                  <path class="cls-10" d="M975.8,204.5l-1.1,8.2-1.5-.2.4-3.2-8.6-1.1.2-1.8,8.6,1.1.4-3.2,1.5.2h0Z"/>
                  <path class="cls-10" d="M974.2,218.9c0,.8-.3,1.4-.7,2-.4.6-.8,1-1.3,1.4-.5.4-1.2.6-1.8.7s-1.4.2-2.1,0c-.7-.1-1.4-.3-2-.6-.6-.3-1.1-.7-1.6-1.2-.4-.5-.8-1-1-1.7s-.2-1.3-.2-2.1c0-.8.3-1.4.7-2s.8-1,1.3-1.4c.5-.4,1.2-.6,1.8-.7s1.4-.2,2.1,0c.7,0,1.4.3,2,.6.6.3,1.1.7,1.6,1.2s.8,1,1,1.7c.2.6.3,1.3.2,2.1h0ZM972.7,218.8c0-.5,0-1-.1-1.4-.2-.4-.4-.8-.8-1.1-.3-.3-.7-.5-1.2-.7-.5-.2-.9-.3-1.4-.4-.5,0-1,0-1.5,0s-.9.2-1.3.4c-.4.2-.7.5-1,.8-.3.4-.4.8-.5,1.4s0,1,.1,1.4c.2.4.4.8.8,1.1.3.3.7.5,1.2.7.5.2.9.3,1.4.4.5,0,1,0,1.5,0,.5,0,.9-.2,1.3-.4.4-.2.7-.5,1-.9.3-.4.4-.8.5-1.4h0Z"/>
                  <path class="cls-10" d="M973,226.1l-.2,1.8-4-.5-.6,4.6,4,.5-.2,1.8-10.2-1.3.2-1.8,4.6.6.6-4.6-4.6-.6.2-1.8,10.2,1.3Z"/>
                  <path class="cls-10" d="M971.2,241.5c0,.8-.3,1.4-.7,2s-.8,1-1.3,1.4c-.5.4-1.2.6-1.8.7s-1.4.2-2.1,0c-.7-.1-1.4-.3-2-.6-.6-.3-1.1-.7-1.6-1.2-.4-.5-.8-1-1-1.7s-.2-1.3-.2-2.1c0-.8.3-1.4.7-2s.8-1,1.3-1.4c.5-.4,1.2-.6,1.8-.7s1.4-.2,2.1,0c.7,0,1.4.3,2,.6.6.3,1.1.7,1.6,1.2s.8,1,1,1.7c.2.6.3,1.3.2,2.1h0ZM969.8,241.3c0-.5,0-1-.1-1.4-.2-.4-.4-.8-.8-1.1-.3-.3-.7-.5-1.2-.7s-.9-.3-1.4-.4c-.5,0-1,0-1.5,0-.5,0-.9.2-1.3.4s-.7.5-1,.8c-.3.4-.4.8-.5,1.4s0,1,.1,1.4c.2.4.4.8.8,1.1.3.3.7.5,1.2.7.5.2.9.3,1.4.4.5,0,1,0,1.5,0,.5,0,.9-.2,1.3-.4.4-.2.7-.5,1-.9.3-.4.4-.8.5-1.4h0Z"/>
                  <path class="cls-10" d="M970,248.7l-.2,1.8-4.6-.6,4,5.1-.3,2.2-3.5-4.6-6.7,3.5.3-2.2,5.3-2.7-1.2-1.6-3.4-.4.2-1.8,10.2,1.3h0Z"/>
                  <path class="cls-10" d="M968.7,259l-.2,1.8-5.9-.8c-.3,0-.7,0-1,0-.4,0-.7,0-1,.2s-.6.3-.8.6c-.2.3-.4.7-.5,1.3s0,1,0,1.4c.1.3.3.6.6.8s.6.3.9.4c.3,0,.7.1,1,.2l5.9.8-.2,1.8-6.5-.9c-.7,0-1.2-.3-1.7-.5-.5-.3-.8-.6-1.1-1-.3-.4-.5-.9-.6-1.4s0-1.1,0-1.7c0-.6.2-1.2.5-1.7s.5-.9.9-1.2c.4-.3.8-.5,1.3-.7s1.1-.2,1.8,0l6.5.9h0Z"/>
                  <path class="cls-10" d="M959.7,275.1c-.4,0-.7,0-1,0-.3.1-.5.2-.8.5s-.4.5-.5.8-.2.6-.2,1c0,.4,0,.7,0,1,0,.3.1.5.3.7s.3.3.4.4c.2.1.4.2.5.2.4,0,.7,0,.9-.1s.4-.3.5-.5c.2-.3.4-.8.5-1.2s.4-1,.7-1.7c.2-.4.4-.8.6-1,.2-.3.5-.5.7-.6.2-.1.5-.2.8-.3.3,0,.5,0,.8,0,.5,0,.9.2,1.3.5.3.3.6.6.8,1s.3.8.4,1.3,0,.9,0,1.4c0,.5-.2,1-.4,1.5-.2.5-.5.8-.8,1.2s-.7.6-1.1.7c-.4.2-.9.2-1.4.1l.2-1.8c.7,0,1.2-.1,1.5-.5.3-.4.5-.9.6-1.5,0-.2,0-.4,0-.6,0-.2,0-.4-.1-.6,0-.2-.2-.4-.3-.5s-.4-.2-.6-.3c-.4,0-.7,0-.9.2s-.4.5-.6.8c0,0,0,.2-.2.4s-.2.5-.3.8-.2.6-.4.9c-.1.3-.2.5-.3.6-.2.3-.3.6-.5.8-.2.2-.5.4-.7.5-.3.1-.5.2-.8.3-.3,0-.5,0-.8,0-.6,0-1-.2-1.4-.5s-.7-.6-.9-1c-.2-.4-.3-.9-.4-1.4,0-.5,0-1,0-1.5,0-.6.2-1.1.4-1.6.2-.5.5-.9.8-1.2s.8-.6,1.2-.8c.5-.2,1-.2,1.7-.1l-.2,1.8h0Z"/>
                  <path class="cls-10" d="M965.3,284.7l-.2,1.8-4-.5-.6,4.6,4,.5-.2,1.8-10.2-1.3.2-1.8,4.6.6.6-4.6-4.6-.6.2-1.8,10.2,1.3Z"/>
                  <path class="cls-10" d="M963.9,295.8l-.2,1.8-10.2-1.3.2-1.8,10.2,1.3Z"/>
                  <path class="cls-10" d="M963.3,300.4l-.2,1.9-8.1,3.7h0s7.5,1,7.5,1l-.2,1.7-10.2-1.3.2-1.9,8.1-3.6h0s-7.5-1-7.5-1l.2-1.7,10.2,1.3h0Z"/>
                  <path class="cls-10" d="M961.8,311.4l-.2,1.8-4.6-.6,4,5.1-.3,2.2-3.5-4.6-6.7,3.5.3-2.2,5.3-2.7-1.2-1.6-3.4-.5.2-1.8,10.2,1.3h0Z"/>
                  <path class="cls-10" d="M960.1,324.6l-.2,1.9-10.7,2.6.2-1.9,2.8-.6.5-4.1-2.6-1.3.2-1.8,9.7,5.2h0ZM954.1,323.2l-.4,3.1,4.6-1h0s-4.2-2.1-4.2-2.1h0Z"/>
                  <path class="cls-10" d="M959.1,332l-.2,1.9-8.1,3.7h0s7.5,1,7.5,1l-.2,1.7-10.2-1.3.2-1.9,8.1-3.6h0s-7.5-1-7.5-1l.2-1.7,10.2,1.3h0Z"/>
                  <path class="cls-10" d="M950.8,343.4c-.4,0-.7,0-1,0-.3.1-.5.2-.8.5s-.4.5-.5.8-.2.6-.2,1c0,.4,0,.7,0,1,0,.3.1.5.3.7.1.2.3.3.4.4.2.1.4.2.5.2.4,0,.7,0,.9-.1s.4-.3.5-.5c.2-.3.4-.8.5-1.2s.4-1,.7-1.7c.2-.4.4-.8.6-1,.2-.3.5-.5.7-.6.2-.1.5-.2.8-.3.3,0,.5,0,.8,0,.5,0,.9.2,1.3.5s.6.6.8,1,.3.8.4,1.3,0,.9,0,1.4c0,.5-.2,1-.4,1.5s-.5.8-.8,1.2-.7.6-1.1.7-.9.2-1.4.1l.2-1.8c.7,0,1.2-.1,1.5-.5.3-.4.5-.9.6-1.5,0-.2,0-.4,0-.6,0-.2,0-.4-.1-.6,0-.2-.2-.4-.3-.5s-.4-.2-.6-.3c-.4,0-.7,0-.9.2s-.4.5-.6.8c0,0,0,.2-.2.4s-.2.5-.3.8-.2.6-.4.9c-.1.3-.2.5-.3.6-.2.3-.3.6-.5.8-.2.2-.5.4-.7.5s-.5.2-.8.3c-.3,0-.5,0-.8,0-.6,0-1-.2-1.4-.5s-.7-.6-.9-1c-.2-.4-.3-.9-.4-1.4,0-.5,0-1,0-1.5,0-.6.2-1.1.4-1.6.2-.5.5-.9.8-1.2s.8-.6,1.2-.8c.5-.2,1-.2,1.7-.1l-.2,1.8h0Z"/>
                  <path class="cls-10" d="M956.4,353l-1,7.3-1.5-.2.7-5.5-2.7-.4-.7,5.1-1.5-.2.7-5.1-3-.4-.7,5.6-1.5-.2,1-7.4,10.2,1.3h0Z"/>
                  <path class="cls-10" d="M955.1,362.7l-.2,1.9-8.1,3.7h0s7.5,1,7.5,1l-.2,1.7-10.2-1.3.2-1.9,8.1-3.6h0s-7.5-1-7.5-1l.2-1.7,10.2,1.3h0Z"/>
                </g>
                <g>
                  <path class="cls-10" d="M938.9,486.7l-1.1,8.2-1.5-.2.4-3.2-8.6-1.1.2-1.8,8.6,1.1.4-3.2,1.5.2h0Z"/>
                  <path class="cls-10" d="M926.8,498.6c0-.6.2-1.1.5-1.5.2-.4.6-.8,1-1.1s.8-.5,1.3-.6c.5-.1,1-.1,1.6,0,.6,0,1.1.2,1.5.5s.8.5,1.1.9c.3.4.5.8.7,1.3.1.5.2,1,0,1.6,0,.6-.2,1.1-.5,1.5-.2.4-.6.8-1,1.1-.4.3-.8.5-1.3.6-.5.1-1,.1-1.6,0-.6,0-1.1-.2-1.5-.5s-.8-.5-1.1-.9c-.3-.4-.5-.8-.7-1.3-.1-.5-.2-1,0-1.6h0ZM928.1,498.8c0,.4,0,.7.1,1s.3.5.5.7c.2.2.5.4.8.5.3.1.6.2.9.2.3,0,.6,0,1,0,.3,0,.6-.1.9-.3s.5-.3.7-.6.3-.5.3-.9c0-.4,0-.7-.1-1s-.3-.5-.5-.7-.5-.4-.8-.5c-.3-.1-.6-.2-.9-.2-.3,0-.6,0-1,0s-.6.1-.9.3c-.3.1-.5.3-.7.6-.2.2-.3.5-.3.9h0Z"/>
                  <path class="cls-10" d="M928.2,515.2c-.5,0-.9-.2-1.3-.3-.4-.1-.8-.3-1.1-.6-.3-.3-.5-.7-.7-1.1-.1-.5-.2-1.1,0-1.8,0-.5.2-1,.4-1.4.2-.4.5-.6.8-.9s.7-.4,1.1-.4.8,0,1.3,0h.5c0,0-.2,1.9-.2,1.9h-.5c-.6-.1-1-.1-1.4,0s-.5.5-.6,1c0,.3,0,.5,0,.7,0,.2.2.4.3.5s.3.2.6.3c.2,0,.5.1.8.2l7,.9-.2,1.8-6.9-.9h0Z"/>
                  <path class="cls-10" d="M934.7,519l-.6,4.9c-.2,1.1-.5,1.9-1.1,2.4s-1.3.7-2.1.6c-.5,0-.9-.2-1.2-.4-.3-.2-.5-.4-.7-.6s-.3-.4-.3-.6c0-.2,0-.3-.1-.4h0c0,.1-.1.3-.2.5,0,.2-.2.3-.4.4-.2.1-.4.2-.7.3-.3,0-.6,0-1,0-.6,0-1.2,0-1.7,0-.5,0-.9.1-1.1.3l.2-1.9c.2,0,.5-.2.8-.1s.5,0,.8,0c.5,0,.9,0,1.2,0,.3,0,.6,0,.9-.2s.4-.3.6-.5c.1-.2.2-.6.3-1l.3-2.6-4.2-.5.2-1.8,10.2,1.3h0ZM929.8,520.2l-.4,2.9c0,.6,0,1,.2,1.3.2.3.6.5,1.2.6.3,0,.6,0,.8,0s.4-.2.5-.3.2-.3.3-.5c0-.2.1-.4.1-.7l.4-2.9-3.2-.4h0Z"/>
                  <path class="cls-10" d="M932.7,534.3l-.2,1.8-5.9-.8c-.3,0-.7,0-1,0s-.7,0-1,.2-.6.3-.8.6c-.2.3-.4.7-.5,1.3s0,1,0,1.4c.1.3.3.6.6.8.3.2.6.3.9.4.3,0,.7.1,1,.2l5.9.8-.2,1.8-6.5-.8c-.7,0-1.2-.3-1.7-.5s-.8-.6-1.1-1c-.3-.4-.5-.9-.6-1.4,0-.5,0-1.1,0-1.7,0-.6.2-1.2.5-1.7s.5-.9.9-1.2c.4-.3.8-.5,1.3-.7.5-.1,1.1-.2,1.8,0l6.5.8h0Z"/>
                  <path class="cls-10" d="M931.4,544.4l-1.1,8.2-1.5-.2.4-3.2-8.6-1.1.2-1.8,8.6,1.1.4-3.2,1.5.2h0Z"/>
                  <path class="cls-10" d="M923.1,554.8c-.4,0-.7,0-1,0-.3,0-.5.2-.8.5s-.4.5-.5.8-.2.6-.2,1c0,.4,0,.7,0,1,0,.3.1.5.3.7.1.2.3.3.4.4.2,0,.4.2.5.2.4,0,.7,0,.9-.2s.4-.3.5-.5c.2-.3.4-.8.5-1.2.2-.5.4-1,.7-1.7.2-.4.4-.8.6-1,.2-.3.5-.5.7-.6s.5-.2.8-.3c.3,0,.5,0,.8,0,.5,0,.9.2,1.3.5.3.3.6.6.8,1,.2.4.3.8.4,1.3s0,.9,0,1.4c0,.5-.2,1-.4,1.5-.2.5-.5.8-.8,1.2-.3.3-.7.6-1.1.7-.4.2-.9.2-1.4.1l.2-1.8c.7,0,1.2-.1,1.5-.5.3-.4.5-.8.6-1.5,0-.2,0-.4,0-.7,0-.2,0-.4-.1-.6,0-.2-.2-.4-.3-.5s-.4-.2-.6-.3c-.4,0-.7,0-.9.2-.2.2-.4.5-.6.8,0,0,0,.2-.2.4s-.2.5-.3.8-.2.6-.4.9-.2.5-.3.6c-.2.3-.3.6-.5.8-.2.2-.5.4-.7.5-.3.1-.5.2-.8.3-.3,0-.5,0-.8,0-.6,0-1-.2-1.4-.5s-.7-.6-.9-1c-.2-.4-.3-.9-.4-1.4,0-.5,0-1,0-1.5,0-.6.2-1.1.4-1.6.2-.5.5-.9.8-1.2s.8-.6,1.2-.8c.5-.2,1-.2,1.7-.1l-.2,1.8h0Z"/>
                  <path class="cls-10" d="M928.8,564.4l-.2,1.8-5.9-.8c-.3,0-.7,0-1,0-.4,0-.7,0-1,.2s-.6.3-.8.6c-.2.3-.4.7-.5,1.3s0,1,0,1.4c.1.3.3.6.6.8s.6.3.9.4c.3,0,.7.1,1,.2l5.9.8-.2,1.8-6.5-.8c-.7,0-1.2-.3-1.7-.5-.5-.3-.8-.6-1.1-1-.3-.4-.5-.9-.6-1.4,0-.5,0-1.1,0-1.7,0-.6.2-1.2.5-1.7s.5-.9.9-1.2c.4-.3.8-.5,1.3-.7s1.1-.2,1.8,0l6.5.8h0Z"/>
                  <path class="cls-10" d="M927.3,575.4l-.2,1.9-8.1,3.7h0s7.5,1,7.5,1l-.2,1.7-10.2-1.3.2-1.9,8.1-3.7h0s-7.5-1-7.5-1l.2-1.7,10.2,1.3h0Z"/>
                  <path class="cls-10" d="M925.6,590.8c0,.8-.3,1.4-.7,2-.4.6-.8,1-1.3,1.4s-1.2.6-1.8.7-1.4.2-2.1,0c-.7,0-1.4-.3-2-.6-.6-.3-1.1-.7-1.6-1.2-.4-.5-.8-1-1-1.7s-.2-1.3-.2-2.1c0-.8.3-1.4.7-2s.8-1,1.3-1.4,1.2-.6,1.8-.7,1.4-.2,2.1,0c.7,0,1.4.3,2,.6s1.1.7,1.6,1.2.8,1,1,1.7c.2.6.3,1.3.2,2.1h0ZM924.1,590.7c0-.5,0-1-.1-1.5-.2-.4-.4-.8-.8-1.1-.3-.3-.7-.5-1.2-.7s-.9-.3-1.4-.4c-.5,0-1,0-1.5,0-.5,0-.9.2-1.3.4-.4.2-.7.5-1,.8s-.4.8-.5,1.4,0,1,.1,1.5c.2.4.4.8.8,1.1.3.3.7.5,1.2.7s.9.3,1.4.4c.5,0,1,0,1.5,0s.9-.2,1.3-.4c.4-.2.7-.5,1-.8s.4-.8.5-1.4Z"/>
                  <path class="cls-10" d="M924.4,598l-.3,2.5-8.3,1.8h0s7.6,3.8,7.6,3.8l-.3,2.5-10.2-1.3.2-1.7,7.8,1h0s-7.5-3.9-7.5-3.9l.2-1.5,8.2-1.8h0s-7.8-1.1-7.8-1.1l.2-1.7,10.2,1.3h0Z"/>
                  <path class="cls-10" d="M922.6,611.4l-.2,1.8-10.2-1.3.2-1.8,10.2,1.3Z"/>
                  <path class="cls-10" d="M915.5,617.9l6.7-3-.3,2.1-4.9,2.1,4.2,3.2-.3,2-5.7-4.6-4-.5.2-1.8,4,.5h0Z"/>
                  <path class="cls-10" d="M920.4,628.8l-.2,1.9-10.7,2.6.2-1.9,2.8-.6.5-4.1-2.6-1.3.2-1.8,9.7,5.2h0ZM914.3,627.3l-.4,3.1,4.6-1h0s-4.2-2.1-4.2-2.1h0Z"/>
                  <path class="cls-10" d="M911.8,641.2c-.4,0-.7,0-1,0-.3,0-.5.2-.8.5s-.4.5-.5.8c-.1.3-.2.6-.2,1,0,.4,0,.7,0,1,0,.3.1.5.3.7.1.2.3.3.4.4.2,0,.4.2.5.2.4,0,.7,0,.9-.2s.4-.3.5-.5c.2-.3.4-.8.5-1.2s.4-1,.7-1.7c.2-.4.4-.8.6-1,.2-.3.5-.5.7-.6s.5-.2.8-.3c.3,0,.5,0,.8,0,.5,0,.9.2,1.3.5s.6.6.8,1c.2.4.3.8.4,1.3s0,.9,0,1.4c0,.5-.2,1-.4,1.5s-.5.8-.8,1.2c-.3.3-.7.6-1.1.7s-.9.2-1.4.1l.2-1.8c.7,0,1.2-.1,1.5-.5.3-.4.5-.8.6-1.5,0-.2,0-.4,0-.7,0-.2,0-.4-.1-.6,0-.2-.2-.4-.3-.5s-.4-.2-.6-.3c-.4,0-.7,0-.9.2s-.4.5-.6.8c0,0,0,.2-.2.4s-.2.5-.3.8-.2.6-.4.9-.2.5-.3.6c-.2.3-.3.6-.5.8-.2.2-.5.4-.7.5-.2.1-.5.2-.8.3-.3,0-.5,0-.8,0-.6,0-1-.2-1.4-.5s-.7-.6-.9-1c-.2-.4-.3-.9-.4-1.4,0-.5,0-1,0-1.5,0-.6.2-1.1.4-1.6.2-.5.5-.9.8-1.2s.8-.6,1.2-.8c.5-.2,1-.2,1.7-.1l-.2,1.8h0Z"/>
                  <path class="cls-10" d="M914.8,649.5l-.2,1.2,2.2.3-.2,1.6-2.2-.3-.2,1.5-1.2-.2.2-1.5-3.9-.5c-.2,0-.3,0-.4,0-.1,0-.2,0-.3,0,0,0-.2.1-.2.2,0,0,0,.2-.1.4,0,.1,0,.2,0,.3,0,.1,0,.2,0,.3l-1.2-.2c0-.2,0-.4,0-.5,0-.2,0-.3,0-.5,0-.4.1-.8.3-1,.1-.2.3-.4.4-.6s.4-.2.6-.2c.2,0,.5,0,.8,0l4.3.6.2-1.2,1.2.2h0Z"/>
                  <path class="cls-10" d="M907.5,661.1c-.2,0-.3,0-.4,0,0,0-.2.1-.2.3,0,0,0,.1,0,.2v.2l-1.1-.2c0,0,0-.1,0-.2,0,0,0-.2,0-.3v-.3c0,0,0-.2,0-.2,0-.3.2-.6.3-.8s.4-.3.8-.3c-.3-.4-.5-.8-.5-1.3,0-.5,0-1,0-1.4,0-.3.1-.7.3-.9s.3-.5.5-.8c.2-.2.5-.4.7-.5.3,0,.6-.1,1,0,.5,0,.8.2,1.1.4.3.2.5.5.6.7.1.3.2.6.2,1,0,.3,0,.7,0,1,0,.3,0,.6,0,.8,0,.3,0,.5,0,.7,0,.2,0,.4.2.5,0,.1.3.2.5.2.2,0,.4,0,.5,0,.2,0,.3-.2.3-.3,0-.1.2-.3.2-.5,0-.2,0-.3,0-.5,0-.5,0-.8-.1-1.2-.2-.3-.4-.5-.8-.6l.2-1.6c.5,0,.8.3,1.1.5.3.2.5.5.7.9.2.3.2.7.3,1.1s0,.8,0,1.2c0,.4-.1.7-.2,1-.1.3-.3.6-.5.9-.2.3-.5.5-.8.6-.3.1-.6.2-1,.1l-3.8-.5h0ZM909.7,659.8c-.1-.3-.2-.6-.2-1,0-.4,0-.7,0-1.1,0-.2,0-.3,0-.5,0-.2,0-.3-.2-.5s-.2-.2-.3-.3-.3-.2-.5-.2c-.2,0-.3,0-.5,0-.1,0-.2.2-.3.3s-.2.3-.2.5c0,.2,0,.3-.1.5,0,.2,0,.4,0,.6,0,.2,0,.4.2.6,0,.2.2.4.4.5s.4.2.6.3l1.2.2h0Z"/>
                  <path class="cls-10" d="M907.4,663.8l-.3,2-1.9-.2.3-2,1.9.2Z"/>
                </g>
                <rect class="cls-14" x="558.4" y="91.3" width="18.3" height="143.2" transform="translate(224.2 643.3) rotate(-70.5)"/>
                <g>
                  <path class="cls-10" d="M511.9,137.5l1.7.6-3.5,9.7-1.7-.6,3.5-9.7h0Z"/>
                  <path class="cls-10" d="M515.4,138.8l1.7.6-.9,8h0l4.6-6.7,1.7.6-.8,8.1h0l4.4-6.7,1.7.6-6.1,8.7-1.7-.6.7-8.1h0l-4.6,6.7-1.8-.6.9-10.6h0Z"/>
                  <path class="cls-10" d="M532.4,144.8l1.8.6.3,11-1.8-.6v-2.9l-3.8-1.4-1.8,2.2-1.7-.6,7.2-8.3h0ZM529.7,150.4l3,1.1v-4.7s0,0,0,0l-3,3.6Z"/>
                  <path class="cls-10" d="M539.2,147.3l7.3,2.6-.5,1.3-8.1,4.9,5.8,2.1-.5,1.5-7.9-2.8.5-1.4,8.1-4.8-5.2-1.9.5-1.5h0Z"/>
                  <path class="cls-10" d="M552.9,151.9c.7.3,1.3.6,1.8,1.1.5.5.8,1,1.1,1.6.2.6.3,1.2.3,1.9,0,.7-.1,1.4-.4,2.1-.2.7-.6,1.3-1,1.9s-.9,1-1.5,1.3c-.6.3-1.2.5-1.8.6s-1.4,0-2.1-.3c-.7-.3-1.3-.6-1.8-1.1s-.8-1-1.1-1.6-.3-1.2-.3-1.9.1-1.4.4-2.1c.2-.7.6-1.3,1-1.8.4-.5.9-1,1.5-1.3.6-.3,1.2-.5,1.8-.6s1.4,0,2.1.3h0ZM552.4,153.3c-.5-.2-1-.2-1.4-.2-.5,0-.8.2-1.2.5-.4.3-.7.6-.9,1s-.5.8-.7,1.3c-.2.5-.3.9-.3,1.4,0,.5,0,.9,0,1.4s.3.8.6,1.2.7.6,1.2.8c.5.2,1,.2,1.4.2s.8-.2,1.2-.5c.4-.3.7-.6.9-1s.5-.8.7-1.3c.2-.5.3-.9.3-1.4,0-.5,0-.9,0-1.4s-.3-.8-.6-1.2-.7-.6-1.2-.8h0Z"/>
                  <path class="cls-10" d="M564,156.1l1.8.6,1.9,8.7h0l2.5-7.1,1.6.6-3.5,9.7-1.8-.6-1.9-8.7h0l-2.5,7.1-1.6-.6,3.5-9.7h0Z"/>
                  <path class="cls-10" d="M577.1,160.8l1.8.6.3,11-1.8-.6v-2.9l-3.8-1.4-1.8,2.2-1.7-.6,7.2-8.3h0ZM574.4,166.4l3,1.1v-4.7s0,0,0,0l-3,3.6h0Z"/>
                  <path class="cls-10" d="M584.2,163.4l1.7.6-1.6,4.4,5.9-2.9,2.1.8-5.2,2.5,2,7.3-2.1-.8-1.5-5.7-1.9.9-1.2,3.2-1.7-.6,3.5-9.7h0Z"/>
                  <path class="cls-10" d="M596.7,167.9l1.8.6.3,11-1.8-.6v-2.9l-3.8-1.4-1.8,2.2-1.7-.6,7.2-8.3ZM594.1,173.5l3,1.1v-4.7s0,0,0,0l-3,3.6h0Z"/>
                  <path class="cls-10" d="M607.1,178.8c-.1.4-.2.7-.2,1,0,.3.1.6.3.8s.4.5.7.6c.3.2.6.3.9.4.4.1.7.2,1,.2s.5,0,.8-.1c.2,0,.4-.2.5-.3s.2-.3.3-.5c.1-.4.2-.7,0-.9s-.2-.4-.4-.6c-.3-.2-.7-.5-1.1-.8-.4-.3-.9-.6-1.5-1-.4-.2-.7-.5-.9-.8s-.4-.6-.5-.8-.1-.6,0-.8c0-.3,0-.5.2-.8.2-.5.4-.9.8-1.1.3-.3.7-.5,1.1-.6.4-.1.9-.1,1.3-.1s.9.1,1.3.3c.5.2,1,.4,1.4.7.4.3.7.6,1,1,.2.4.4.8.5,1.3,0,.4,0,.9-.2,1.4l-1.7-.6c.2-.6.1-1.1-.2-1.6-.3-.4-.7-.7-1.3-.9-.2,0-.4-.1-.6-.2s-.4,0-.6,0c-.2,0-.4.1-.6.2s-.3.3-.4.6c-.1.3-.1.6,0,.9s.4.5.7.7c0,0,.2.1.4.3.2.2.5.3.8.5s.5.4.8.6c.3.2.5.3.6.4.3.2.5.4.7.7.2.2.3.5.4.8s.1.6,0,.8,0,.6-.2.8c-.2.5-.5,1-.8,1.3-.4.3-.8.5-1.2.6s-.9.1-1.4,0-1-.2-1.5-.3c-.5-.2-1-.4-1.5-.8s-.8-.7-1-1.1c-.3-.4-.4-.9-.5-1.4s0-1.1.2-1.7l1.7.6h0Z"/>
                  <path class="cls-10" d="M616.8,175l7.8,2.8-.5,1.5-3.1-1.1-2.9,8.2-1.7-.6,2.9-8.2-3.1-1.1.5-1.5Z"/>
                  <path class="cls-10" d="M623.5,186.3l1.9.7-.7,1.8-1.9-.7.7-1.8Z"/>
                </g>
                <rect class="cls-10" x="129.2" y="93.7" width="235.5" height="118.4"/>
                <line class="cls-7" x1="985.7" y1="-13.2" x2="887.2" y2="695.4"/>
                <line class="cls-9" x1="984.8" y1="-6.6" x2="887.9" y2="689.9"/>
              </g>
            </g>
            <g>
              <rect class="cls-10" y="608.2" width="190.6" height="72.1"/>
              <g>
                <path class="cls-12" d="M50.1,639c0,1.3-.4,2.2-1.1,2.8s-1.7.9-3.1.9-.8,0-1.3-.1-.8-.2-1.2-.4-.7-.5-.9-.8c-.2-.3-.4-.8-.4-1.2h1.9c0,.3.2.5.3.6.1.2.3.3.5.4s.4.2.6.2.5,0,.7,0c.8,0,1.3-.2,1.7-.6.3-.4.5-.9.5-1.6v-1.3h0c-.3.5-.6.8-1.1,1.1s-.9.4-1.5.4-1.2-.1-1.7-.3-.9-.5-1.2-1c-.3-.4-.5-.9-.7-1.4-.1-.5-.2-1.1-.2-1.7s0-1.1.3-1.6.4-1,.8-1.3c.3-.4.7-.7,1.2-.9s1-.3,1.6-.3,1,.1,1.5.3c.5.2.8.6,1,1.1h0v-1.2h1.9v8h0ZM46,637.9c.4,0,.8,0,1-.2.3-.2.5-.4.7-.7.2-.3.3-.6.4-1s.1-.7.1-1.1,0-.7-.1-1-.2-.6-.4-.9-.4-.5-.7-.6-.6-.2-1-.2-.8,0-1,.3c-.3.2-.5.4-.7.7-.2.3-.3.6-.4,1,0,.3-.1.7-.1,1.1s0,.7.1,1,.2.6.4.9.4.5.7.6.6.2,1,.2h0Z"/>
                <path class="cls-12" d="M57.8,639.6c-.7,0-1.3-.1-1.8-.3-.5-.2-1-.5-1.3-.9-.4-.4-.6-.9-.8-1.4-.2-.5-.3-1.1-.3-1.8s0-1.2.3-1.8c.2-.5.5-1,.8-1.4.4-.4.8-.7,1.3-.9s1.1-.3,1.8-.3,1.3.1,1.8.3c.5.2,1,.5,1.3.9.4.4.6.9.8,1.4.2.5.3,1.1.3,1.8s0,1.2-.3,1.8c-.2.5-.5,1-.8,1.4-.4.4-.8.7-1.3.9s-1.1.3-1.8.3ZM57.8,638.2c.4,0,.8,0,1.1-.3s.6-.4.8-.7.3-.6.4-1,.1-.7.1-1.1,0-.7-.1-1.1c0-.4-.2-.7-.4-1-.2-.3-.5-.5-.8-.7-.3-.2-.7-.3-1.1-.3s-.8,0-1.1.3-.6.4-.8.7c-.2.3-.3.6-.4,1,0,.4-.1.7-.1,1.1s0,.7.1,1.1c0,.3.2.7.4,1,.2.3.5.5.8.7.3.2.7.3,1.1.3Z"/>
                <path class="cls-12" d="M69.5,639.6c-.7,0-1.3-.1-1.8-.3-.5-.2-1-.5-1.3-.9-.4-.4-.6-.9-.8-1.4-.2-.5-.3-1.1-.3-1.8s0-1.2.3-1.8c.2-.5.5-1,.8-1.4.4-.4.8-.7,1.3-.9s1.1-.3,1.8-.3,1.3.1,1.8.3c.5.2,1,.5,1.3.9.4.4.6.9.8,1.4.2.5.3,1.1.3,1.8s0,1.2-.3,1.8c-.2.5-.5,1-.8,1.4-.4.4-.8.7-1.3.9s-1.1.3-1.8.3ZM69.5,638.2c.4,0,.8,0,1.1-.3s.6-.4.8-.7.3-.6.4-1,.1-.7.1-1.1,0-.7-.1-1.1c0-.4-.2-.7-.4-1-.2-.3-.4-.5-.8-.7-.3-.2-.7-.3-1.1-.3s-.8,0-1.1.3c-.3.2-.6.4-.8.7-.2.3-.3.6-.4,1,0,.4-.1.7-.1,1.1s0,.7.1,1.1c0,.3.2.7.4,1,.2.3.4.5.8.7.3.2.7.3,1.1.3Z"/>
                <path class="cls-12" d="M85.1,639c0,1.3-.4,2.2-1.1,2.8s-1.7.9-3.1.9-.8,0-1.3-.1-.8-.2-1.2-.4-.7-.5-.9-.8-.4-.8-.4-1.2h1.9c0,.3.2.5.3.6.1.2.3.3.5.4s.4.2.6.2.4,0,.7,0c.8,0,1.3-.2,1.7-.6s.5-.9.5-1.6v-1.3h0c-.3.5-.6.8-1.1,1.1s-.9.4-1.5.4-1.2-.1-1.7-.3-.9-.5-1.2-1c-.3-.4-.5-.9-.7-1.4-.1-.5-.2-1.1-.2-1.7s0-1.1.3-1.6.4-1,.8-1.3c.3-.4.7-.7,1.2-.9.5-.2,1-.3,1.6-.3s1,.1,1.5.3c.4.2.8.6,1,1.1h0v-1.2h1.9v8h0ZM80.9,637.9c.4,0,.8,0,1.1-.2.3-.2.5-.4.7-.7.2-.3.3-.6.4-1s.1-.7.1-1.1,0-.7-.1-1-.2-.6-.4-.9-.4-.5-.7-.6c-.3-.2-.6-.2-1-.2s-.8,0-1.1.3c-.3.2-.5.4-.7.7-.2.3-.3.6-.4,1,0,.3-.1.7-.1,1.1s0,.7.1,1,.2.6.4.9.4.5.7.6.6.2,1,.2h0Z"/>
                <path class="cls-12" d="M89,627.7h1.9v11.7h-1.9v-11.7Z"/>
                <path class="cls-12" d="M96.3,635.7c0,.3,0,.6.1,1,0,.3.2.6.4.8.2.2.4.4.7.5s.6.2,1,.2,1-.1,1.3-.3c.3-.2.6-.6.7-1h1.8c0,.5-.3.9-.5,1.2s-.5.7-.9.9c-.3.2-.7.4-1.1.6s-.9.2-1.3.2c-.7,0-1.2-.1-1.8-.3-.5-.2-.9-.5-1.3-.9-.3-.4-.6-.9-.8-1.4-.2-.5-.3-1.1-.3-1.8s0-1.2.3-1.7.5-1,.8-1.4c.3-.4.8-.7,1.3-1s1.1-.4,1.7-.4,1.3.1,1.8.4c.5.3,1,.7,1.3,1.1s.6,1,.8,1.6.2,1.2.1,1.8h-6.2,0ZM100.6,634.4c0-.3,0-.6-.2-.8,0-.3-.2-.5-.4-.7s-.4-.4-.7-.5-.5-.2-.9-.2-.6,0-.9.2-.5.3-.7.5c-.2.2-.3.4-.5.7-.1.3-.2.6-.2.9h4.4Z"/>
                <path class="cls-12" d="M112.4,631h1.8v1.2h0c.1-.2.3-.4.5-.6s.3-.3.6-.4c.2-.1.4-.2.7-.3s.6-.1.9-.1c.5,0,1,.1,1.4.3.4.2.8.6.9,1.1.3-.4.7-.8,1.1-1,.4-.2.9-.4,1.6-.4.9,0,1.6.2,2.1.7.5.4.7,1.2.7,2.2v5.8h-1.9v-4.9c0-.3,0-.7,0-.9,0-.3,0-.5-.2-.7s-.3-.4-.5-.5-.5-.2-.8-.2c-.6,0-1.1.2-1.4.6-.3.4-.4,1-.4,1.7v5h-1.9v-5.4c0-.6-.1-1-.3-1.3s-.6-.5-1.2-.5-.5,0-.7.2c-.2,0-.4.2-.6.4-.2.2-.3.4-.4.7,0,.3-.2.6-.2.9v5h-1.9v-8.4h0Z"/>
                <path class="cls-12" d="M135.6,637.5c0,.2,0,.4,0,.5s.2.2.4.2h.2c0,0,.2,0,.3,0v1.3c0,0-.1,0-.2,0s-.2,0-.3,0-.2,0-.3,0-.2,0-.3,0c-.4,0-.7,0-.9-.2-.2-.2-.4-.4-.5-.8-.4.4-.8.6-1.4.8s-1.1.2-1.6.2-.8,0-1.1-.2c-.4-.1-.7-.3-.9-.5-.3-.2-.5-.5-.6-.8s-.2-.7-.2-1.1.1-1,.3-1.3c.2-.3.4-.6.8-.8s.7-.3,1.1-.4.8-.1,1.2-.2c.3,0,.7-.1,1-.1.3,0,.6,0,.8-.1.2,0,.4-.2.6-.3.1-.1.2-.3.2-.6s0-.4-.2-.6c-.1-.2-.3-.3-.4-.3-.2,0-.4-.1-.6-.2-.2,0-.4,0-.6,0-.5,0-.9.1-1.3.3s-.5.6-.6,1h-1.9c0-.5.2-1,.4-1.4s.5-.7.9-.9c.4-.2.8-.4,1.2-.5s.9-.1,1.4-.1.8,0,1.2.1c.4,0,.8.2,1.1.4.3.2.6.5.8.8s.3.7.3,1.1v4.3h0ZM133.8,635.2c-.3.2-.6.3-1.1.3-.4,0-.8,0-1.2.2-.2,0-.4,0-.6.1-.2,0-.4.1-.5.2s-.2.2-.3.4-.1.4-.1.6,0,.4.2.5.3.2.4.3c.2,0,.4.1.6.2.2,0,.4,0,.6,0s.4,0,.7,0,.5-.2.7-.3c.2-.1.4-.3.5-.5s.2-.5.2-.7v-1.4h0Z"/>
                <path class="cls-12" d="M139.6,631h1.8v1.1h0c.3-.5.6-.8,1.1-1.1.5-.2,1-.3,1.5-.3s1.2.1,1.7.3c.5.2.9.6,1.2,1,.3.4.6.9.7,1.4.2.5.2,1.1.2,1.8s0,1.1-.2,1.7-.4,1-.7,1.4c-.3.4-.7.7-1.1,1-.5.2-1,.4-1.6.4s-.5,0-.8,0c-.3,0-.5-.1-.8-.2s-.5-.2-.7-.4-.4-.4-.5-.6h0v4.2h-1.9v-11.6h0ZM146.1,635.2c0-.4,0-.8-.1-1.1-.1-.4-.2-.7-.4-1-.2-.3-.4-.5-.7-.7-.3-.2-.6-.2-1-.2-.8,0-1.4.3-1.8.8s-.6,1.3-.6,2.2,0,.8.2,1.2.3.7.5.9.4.5.7.6c.3.2.6.2,1,.2s.8,0,1.1-.3c.3-.2.5-.4.7-.7.2-.3.3-.6.4-1s.1-.7.1-1.1h0Z"/>
              </g>
              <line class="cls-8" x1="157.8" y1="658.7" x2="31.5" y2="658.7"/>
            </g>
            <g>
              <g>
                <path class="cls-12" d="M148.9,122.8l-5.1-8.2h2.7l3.6,6.1,3.5-6.1h2.6l-5.1,8.2v5.3h-2.4s0-5.3,0-5.3Z"/>
                <path class="cls-12" d="M162.4,114.6h2.5l5.2,13.5h-2.5l-1.3-3.6h-5.4l-1.3,3.6h-2.4l5.2-13.5h0ZM161.6,122.8h4.1l-2-5.8h0l-2,5.8Z"/>
                <path class="cls-12" d="M174,114.6h3.3l3.7,10.6h0l3.6-10.6h3.3v13.5h-2.2v-10.4h0l-3.7,10.4h-1.9l-3.7-10.4h0v10.4h-2.2v-13.5h0Z"/>
                <path class="cls-12" d="M199.3,114.3c1,0,1.9.2,2.7.6s1.5.9,2,1.5,1,1.4,1.3,2.2.4,1.8.4,2.7-.1,1.9-.4,2.7c-.3.9-.7,1.6-1.3,2.2-.6.6-1.2,1.2-2,1.5-.8.4-1.7.6-2.7.6s-1.9-.2-2.7-.6c-.8-.4-1.5-.9-2-1.5s-1-1.4-1.3-2.2-.4-1.8-.4-2.7.1-1.9.4-2.7c.3-.9.7-1.6,1.3-2.2.6-.6,1.2-1.2,2-1.5s1.7-.6,2.7-.6ZM199.3,116.2c-.7,0-1.3.1-1.9.4s-.9.7-1.3,1.2-.6,1-.7,1.7c-.2.6-.2,1.2-.2,1.9s0,1.3.2,1.9.4,1.2.7,1.7.8.9,1.3,1.2,1.1.4,1.9.4,1.3-.1,1.9-.4.9-.7,1.3-1.2.6-1,.7-1.7c.2-.6.2-1.2.2-1.9s0-1.3-.2-1.9-.4-1.2-.7-1.7c-.3-.5-.8-.9-1.3-1.2-.5-.3-1.1-.4-1.9-.4Z"/>
                <path class="cls-12" d="M210.5,114.6h6.4c1.5,0,2.6.3,3.4,1,.7.7,1.1,1.5,1.1,2.7s0,1.2-.3,1.6c-.2.4-.4.8-.7,1-.2.3-.5.4-.8.6s-.4.2-.5.2h0c.2,0,.4.1.6.2s.4.3.6.5.4.5.5.9.2.8.2,1.3c0,.8,0,1.5.2,2.2.1.7.3,1.1.6,1.4h-2.5c-.2-.3-.3-.6-.3-1s0-.7,0-1c0-.6,0-1.2-.1-1.6,0-.4-.2-.8-.4-1.1-.2-.3-.5-.5-.8-.7s-.8-.2-1.3-.2h-3.5v5.6h-2.4v-13.5h0ZM212.9,120.8h3.9c.8,0,1.3-.2,1.7-.5s.6-.9.6-1.6,0-.8-.2-1.1-.3-.5-.5-.6c-.2-.2-.5-.2-.8-.3-.3,0-.6,0-.9,0h-3.8v4.2h0Z"/>
                <path class="cls-12" d="M227.2,114.6h2.4v13.5h-2.4s0-13.5,0-13.5Z"/>
                <path class="cls-12" d="M245.8,123.6c0,.5,0,1,.3,1.3s.4.7.7.9c.3.2.7.4,1.1.5s.9.2,1.3.2,1,0,1.3-.2c.4-.1.7-.3.9-.5s.4-.4.5-.7c.1-.2.1-.5.1-.8,0-.5-.1-.9-.4-1.1-.2-.2-.5-.4-.8-.5-.5-.2-1-.3-1.7-.5s-1.4-.4-2.4-.6c-.6-.2-1.1-.3-1.4-.6-.4-.2-.7-.5-.9-.8s-.4-.6-.5-1c0-.3-.1-.7-.1-1,0-.7.1-1.3.4-1.8.3-.5.7-.9,1.1-1.2.5-.3,1-.6,1.6-.7s1.2-.2,1.8-.2,1.4,0,2,.3c.6.2,1.2.5,1.6.8.5.4.9.8,1.1,1.3.3.5.4,1.2.4,1.9h-2.4c0-.9-.4-1.5-.9-1.8-.5-.4-1.2-.5-2-.5s-.6,0-.9,0c-.3,0-.6.2-.8.3-.2.1-.4.3-.6.5s-.2.5-.2.8.1.8.4,1.1c.3.3.7.5,1.2.6,0,0,.2,0,.6.2.4,0,.7.2,1.2.3.4.1.9.2,1.3.3s.7.2.9.2c.4.1.8.3,1.1.6.3.2.6.5.8.8.2.3.4.6.5,1s.2.7.2,1.1c0,.8-.1,1.4-.5,1.9-.3.5-.7,1-1.2,1.3s-1.1.6-1.7.8-1.3.2-2,.2-1.5,0-2.2-.3-1.3-.5-1.8-.9c-.5-.4-.9-.9-1.2-1.5s-.5-1.3-.5-2.2h2.4,0Z"/>
                <path class="cls-12" d="M257.1,114.6h10.9v2h-4.3v11.5h-2.4v-11.5h-4.3v-2h0Z"/>
                <path class="cls-12" d="M276.1,122.8l-5.1-8.2h2.7l3.6,6.1,3.5-6.1h2.6l-5,8.2v5.3h-2.4s0-5.3,0-5.3Z"/>
                <path class="cls-12" d="M287.5,114.6h2.4v11.5h6.9v2h-9.2v-13.5h0Z"/>
                <path class="cls-12" d="M300.6,114.6h9.7v2h-7.4v3.5h6.8v1.9h-6.8v3.9h7.5v2h-9.9v-13.5h0Z"/>
                <path class="cls-12" d="M316.5,125.6h2.6v2.5h-2.6s0-2.6,0-2.5Z"/>
                <path class="cls-12" d="M147,147.1c0,.5,0,1,.3,1.3s.4.7.7.9c.3.2.7.4,1.1.5s.9.2,1.3.2,1,0,1.3-.2c.4-.1.7-.3.9-.5s.4-.4.5-.6c.1-.2.1-.5.1-.8,0-.5-.1-.9-.4-1.1-.2-.2-.5-.4-.8-.5-.5-.2-1-.3-1.7-.5s-1.4-.4-2.4-.6c-.6-.1-1.1-.4-1.4-.6-.4-.2-.7-.5-.9-.8s-.4-.6-.5-1-.1-.7-.1-1c0-.7.1-1.3.4-1.8.3-.5.7-.9,1.1-1.2s1-.6,1.6-.7c.6-.2,1.2-.2,1.8-.2s1.4,0,2,.3c.6.2,1.2.5,1.6.8.5.4.9.8,1.1,1.4.3.5.4,1.2.4,1.9h-2.4c0-.9-.4-1.5-.9-1.8s-1.2-.5-2-.5-.6,0-.9,0c-.3,0-.6.1-.8.3-.2.1-.4.3-.6.5s-.2.5-.2.9.1.9.4,1.1c.3.3.7.5,1.2.6,0,0,.2,0,.6.2s.7.2,1.2.3c.4.1.9.2,1.3.3s.7.2.9.2c.4.1.8.3,1.1.6.3.2.6.5.8.8.2.3.4.6.5,1s.2.7.2,1.1c0,.8-.1,1.4-.5,1.9-.3.5-.7,1-1.2,1.3s-1.1.6-1.7.8-1.3.2-2,.2-1.5,0-2.2-.3-1.3-.5-1.8-.9c-.5-.4-.9-.9-1.2-1.5s-.5-1.3-.5-2.2h2.4,0Z"/>
                <path class="cls-12" d="M163.5,138.1h2.5l5.2,13.5h-2.5l-1.3-3.6h-5.4l-1.3,3.6h-2.4l5.2-13.5h0ZM162.7,146.3h4.1l-2-5.8h0l-2,5.8Z"/>
                <path class="cls-12" d="M175.2,138.1h2.4v11.5h6.9v2h-9.2v-13.5h0Z"/>
                <path class="cls-12" d="M192.9,137.8c1,0,1.9.2,2.7.6s1.5.9,2,1.5,1,1.4,1.3,2.2.4,1.8.4,2.7-.1,1.9-.4,2.7c-.3.9-.7,1.6-1.3,2.2-.6.6-1.2,1.1-2,1.5-.8.4-1.7.6-2.7.6s-1.9-.2-2.7-.6-1.5-.9-2-1.5-1-1.4-1.3-2.2-.4-1.8-.4-2.7.1-1.9.4-2.7c.3-.9.7-1.6,1.3-2.2.6-.6,1.2-1.1,2-1.5s1.7-.6,2.7-.6ZM192.9,139.8c-.7,0-1.3.1-1.9.4s-.9.7-1.3,1.2c-.3.5-.6,1-.7,1.6-.2.6-.2,1.2-.2,1.9s0,1.3.2,1.9.4,1.2.7,1.6.8.9,1.3,1.2,1.1.4,1.9.4,1.3-.1,1.9-.4.9-.7,1.3-1.2c.3-.5.6-1,.7-1.6.2-.6.2-1.2.2-1.9s0-1.3-.2-1.9-.4-1.2-.7-1.6c-.3-.5-.8-.9-1.3-1.2-.5-.3-1.1-.4-1.9-.4Z"/>
                <path class="cls-12" d="M204.5,138.1h2.5l6.2,9.9h0v-9.9h2.2v13.5h-2.5l-6.1-9.9h0v9.9h-2.2v-13.5h0Z"/>
                <path class="cls-12" d="M234.5,150.1c-.5.6-1.1,1.1-1.7,1.4-.6.3-1.3.4-2.1.4s-1.2,0-1.7-.3c-.5-.2-1-.4-1.4-.8s-.7-.8-.9-1.3-.3-1.1-.3-1.7,0-.9.3-1.3c.2-.4.4-.8.7-1.1s.6-.6,1-.9.8-.5,1.1-.7c-.2-.2-.4-.4-.5-.7-.2-.2-.3-.4-.4-.7-.1-.2-.2-.5-.3-.8,0-.3-.1-.5-.1-.8,0-.5,0-.9.3-1.3.2-.4.4-.7.7-1,.3-.3.7-.5,1.1-.6s.8-.2,1.3-.2.9,0,1.3.2.8.3,1.1.6.6.6.8,1,.3.9.3,1.4,0,.8-.2,1.1c-.1.3-.3.6-.5.9-.2.3-.5.5-.8.8s-.6.4-.9.6l2.1,2.5c0-.2.1-.5.2-.7s.1-.6.2-1.1h1.9c0,.6-.2,1.2-.4,1.7s-.4,1.1-.7,1.6l2.6,3.1h-2.6l-1.2-1.5h0ZM230.7,145.4c-.2.1-.4.2-.7.4-.2.1-.5.3-.7.5-.2.2-.4.4-.5.7-.1.3-.2.6-.2,1,0,.7.2,1.3.6,1.7s.9.6,1.6.6.7,0,1-.2.5-.2.7-.4c.2-.1.4-.3.5-.5s.2-.3.4-.5l-2.6-3.3h0ZM231.6,139.4c-.4,0-.7.1-1,.4s-.4.6-.4,1.1,0,.4.1.6.2.4.3.6c.1.2.2.4.4.5.1.2.3.4.4.5.2-.1.4-.3.6-.4.2-.1.4-.3.5-.5s.3-.4.4-.6.1-.4.1-.7c0-.4-.1-.8-.4-1.1s-.6-.4-1-.4h0Z"/>
                <path class="cls-12" d="M258.1,151.6h-1.5l-.4-1.6c-.6.7-1.3,1.2-1.9,1.5s-1.4.4-2.2.4-1.9-.2-2.7-.6-1.5-.9-2-1.5-1-1.4-1.3-2.2-.4-1.8-.4-2.7.1-1.9.4-2.7c.3-.9.7-1.6,1.3-2.2s1.2-1.1,2-1.5,1.7-.6,2.7-.6,1.4.1,2.1.3c.7.2,1.2.5,1.8.9.5.4,1,.9,1.3,1.4s.5,1.2.6,2h-2.3c0-.4-.2-.8-.4-1.2s-.5-.6-.8-.8c-.3-.2-.7-.4-1.1-.5s-.8-.2-1.2-.2c-.7,0-1.3.1-1.9.4s-.9.7-1.3,1.2c-.3.5-.6,1-.7,1.6s-.2,1.2-.2,1.9,0,1.3.2,1.9.4,1.2.7,1.6.8.9,1.3,1.2,1.1.4,1.9.4c.6,0,1.1,0,1.6-.2s.9-.4,1.2-.7c.3-.3.6-.7.7-1.2.2-.5.2-1,.3-1.6h-3.6v-1.8h5.8v7.1h0Z"/>
                <path class="cls-12" d="M266.6,138.1h2.5l5.2,13.5h-2.5l-1.3-3.6h-5.4l-1.3,3.6h-2.4l5.2-13.5ZM265.7,146.3h4.1l-2-5.8h0l-2,5.8Z"/>
                <path class="cls-12" d="M278.2,138.1h2.4v11.5h6.9v2h-9.2v-13.5h0Z"/>
                <path class="cls-12" d="M290.6,138.1h2.4v11.5h6.9v2h-9.2v-13.5h0Z"/>
                <path class="cls-12" d="M303.7,138.1h9.7v2h-7.4v3.5h6.8v1.9h-6.8v3.9h7.5v2h-9.9v-13.5h0Z"/>
                <path class="cls-12" d="M317.9,138.1h6.5c1.5,0,2.6.3,3.4,1,.7.6,1.1,1.5,1.1,2.7s0,1.2-.3,1.6c-.2.4-.4.8-.7,1-.2.3-.5.4-.8.6s-.4.2-.5.2h0c.2,0,.4.1.6.2s.5.3.6.5c.2.2.4.5.5.9s.2.8.2,1.3c0,.8,0,1.5.2,2.2.1.6.3,1.1.6,1.4h-2.5c-.2-.3-.3-.6-.3-1s0-.7,0-1c0-.6,0-1.1-.1-1.6,0-.4-.2-.8-.4-1.1-.2-.3-.5-.5-.8-.6s-.8-.2-1.3-.2h-3.5v5.6h-2.4v-13.5h0ZM320.3,144.3h3.9c.8,0,1.3-.2,1.7-.5s.6-.9.6-1.6,0-.8-.2-1.1-.3-.5-.5-.6c-.2-.1-.5-.2-.8-.3-.3,0-.6,0-.9,0h-3.8v4.2h0Z"/>
                <path class="cls-12" d="M337,146.4l-5.1-8.2h2.7l3.6,6.1,3.5-6.1h2.6l-5,8.2v5.3h-2.4v-5.3Z"/>
              </g>
              <g>
                <path class="cls-12" d="M148.9,171.3l-3.1-5.1h1.7l2.2,3.7,2.2-3.7h1.6l-3.1,5.1v3.3h-1.4v-3.3h0Z"/>
                <path class="cls-12" d="M159.7,173.3c0,.2,0,.3,0,.4s.1.1.2.1h.1c0,0,.1,0,.2,0v.9s-.1,0-.2,0-.1,0-.2,0c0,0-.2,0-.2,0,0,0-.1,0-.2,0-.3,0-.5,0-.7-.2-.2-.1-.3-.3-.4-.6-.3.3-.6.4-1,.6s-.8.2-1.1.2-.5,0-.8-.1-.5-.2-.7-.3c-.2-.1-.3-.3-.4-.6s-.2-.5-.2-.8,0-.7.2-.9.3-.4.5-.6c.2-.1.5-.2.7-.3.3,0,.6-.1.8-.1.2,0,.5,0,.7-.1s.4,0,.6-.1.3-.1.4-.2c.1-.1.1-.2.1-.4s0-.3-.1-.4-.2-.2-.3-.2c-.1,0-.2-.1-.4-.1s-.3,0-.4,0c-.4,0-.7,0-.9.2-.2.2-.4.4-.4.7h-1.3c0-.4.1-.7.3-1,.2-.2.4-.5.6-.6s.5-.3.9-.3c.3,0,.6,0,1,0s.6,0,.9,0c.3,0,.5.2.8.3s.4.3.6.5c.1.2.2.5.2.8v3.1h0ZM158.4,171.6c-.2.1-.4.2-.8.2s-.6,0-.9.1c-.1,0-.3,0-.4.1s-.2.1-.4.2c-.1,0-.2.2-.2.3,0,.1,0,.3,0,.4s0,.3.1.4c0,.1.2.2.3.2.1,0,.2.1.4.1.1,0,.3,0,.4,0s.3,0,.5,0,.3-.1.5-.2.3-.2.4-.4.1-.3.1-.5v-1h0Z"/>
                <path class="cls-12" d="M161.7,168.6h1.3v.8h0c.1-.1.2-.3.3-.4.1-.1.2-.2.4-.3s.3-.1.5-.2c.2,0,.4,0,.6,0,.4,0,.7,0,1,.2.3.2.5.4.7.8.2-.3.5-.6.8-.7.3-.2.7-.3,1.1-.3.6,0,1.1.2,1.5.5.4.3.5.8.5,1.6v4.1h-1.3v-3.5c0-.2,0-.5,0-.7s0-.4-.1-.5-.2-.2-.3-.3-.4-.1-.6-.1c-.4,0-.8.1-1,.4s-.3.7-.3,1.2v3.5h-1.3v-3.9c0-.4,0-.7-.2-.9s-.4-.3-.8-.3-.3,0-.5.1c-.2,0-.3.2-.4.3s-.2.3-.3.5-.1.4-.1.7v3.6h-1.3v-6h0Z"/>
                <path class="cls-12" d="M175.2,174.8c-.5,0-.9,0-1.3-.2s-.7-.4-.9-.7-.5-.6-.6-1-.2-.8-.2-1.3,0-.9.2-1.3.3-.7.6-1,.6-.5.9-.7c.4-.2.8-.2,1.3-.2s.9,0,1.3.2c.4.2.7.4.9.7s.5.6.6,1,.2.8.2,1.3,0,.9-.2,1.3-.3.7-.6,1-.6.5-.9.7c-.4.2-.8.2-1.3.2ZM175.2,173.7c.3,0,.6,0,.8-.2.2-.1.4-.3.5-.5s.2-.4.3-.7c0-.2.1-.5.1-.8s0-.5-.1-.8c0-.3-.2-.5-.3-.7s-.3-.4-.5-.5c-.2-.1-.5-.2-.8-.2s-.6,0-.8.2c-.2.1-.4.3-.5.5s-.2.4-.3.7c0,.2-.1.5-.1.8s0,.5.1.8.2.5.3.7.3.4.5.5c.2.1.5.2.8.2Z"/>
                <path class="cls-12" d="M179.9,168.6h1.2v1.2h0c0-.2.1-.3.2-.5s.2-.3.4-.4c.2-.1.3-.2.5-.3s.4-.1.6-.1.3,0,.3,0c0,0,.1,0,.2,0v1.3c0,0-.2,0-.3,0s-.2,0-.3,0c-.2,0-.4,0-.6.1-.2,0-.4.2-.5.4-.1.2-.3.4-.4.6,0,.3-.1.6-.1.9v2.9h-1.3v-6h0Z"/>
                <path class="cls-12" d="M184.6,166.3h1.3v1.3h-1.3v-1.3ZM184.6,168.6h1.3v6h-1.3v-6Z"/>
                <path class="cls-12" d="M195.9,170.6c0-.4-.2-.6-.4-.8-.2-.2-.6-.3-.9-.3s-.4,0-.6,0c-.2,0-.4.2-.5.3-.2.2-.3.4-.4.7s-.2.6-.2,1.1,0,.5,0,.8.1.5.3.7.3.4.5.5c.2.1.4.2.7.2s.7-.1,1-.4.4-.6.5-1h1.3c-.1.8-.4,1.4-.9,1.8s-1.1.6-1.9.6-.9,0-1.2-.2-.7-.4-.9-.6c-.2-.3-.4-.6-.6-1-.1-.4-.2-.8-.2-1.2s0-.9.2-1.3.3-.7.6-1,.6-.5.9-.7.8-.2,1.3-.2.7,0,1,.1c.3,0,.6.2.8.4.2.2.4.4.6.7s.2.6.3,1h-1.3Z"/>
                <path class="cls-12" d="M201.6,174.8c-.5,0-.9,0-1.3-.2s-.7-.4-.9-.7-.5-.6-.6-1-.2-.8-.2-1.3,0-.9.2-1.3.3-.7.6-1,.6-.5.9-.7c.4-.2.8-.2,1.3-.2s.9,0,1.3.2c.4.2.7.4.9.7s.5.6.6,1,.2.8.2,1.3,0,.9-.2,1.3-.3.7-.6,1-.6.5-.9.7c-.4.2-.8.2-1.3.2ZM201.6,173.7c.3,0,.6,0,.8-.2.2-.1.4-.3.5-.5s.2-.4.3-.7c0-.2.1-.5.1-.8s0-.5-.1-.8c0-.3-.2-.5-.3-.7s-.3-.4-.5-.5c-.2-.1-.5-.2-.8-.2s-.6,0-.8.2c-.2.1-.4.3-.5.5s-.2.4-.3.7c0,.2-.1.5-.1.8s0,.5.1.8.2.5.3.7.3.4.5.5c.2.1.5.2.8.2Z"/>
                <path class="cls-12" d="M206.4,173h1.6v1.6h-1.6v-1.6Z"/>
                <path class="cls-12" d="M210.3,173h1.6v1.6c0,.5-.2.9-.4,1.2-.3.3-.7.5-1.1.6v-.7c.3,0,.4-.2.6-.4.1-.2.2-.4.2-.7h-.8v-1.6h0Z"/>
                <path class="cls-12" d="M214,166.3h1.3v8.3h-1.3v-8.3Z"/>
                <path class="cls-12" d="M216.8,168.6h1v-1.8h1.3v1.8h1.2v1h-1.2v3.2c0,.1,0,.3,0,.4s0,.2,0,.2c0,0,.1.1.2.2,0,0,.2,0,.4,0h.3c0,0,.2,0,.3,0v1c-.1,0-.3,0-.4,0-.1,0-.3,0-.4,0-.4,0-.6,0-.8-.1-.2,0-.4-.2-.5-.3-.1-.1-.2-.3-.2-.5s0-.4,0-.7v-3.6h-1v-1h0Z"/>
                <path class="cls-12" d="M227.5,174.6h-1.3v-.8h0c-.2.4-.4.6-.8.8s-.7.2-1.1.2-.9,0-1.2-.2-.6-.4-.9-.7c-.2-.3-.4-.6-.5-1-.1-.4-.2-.8-.2-1.3s0-1,.2-1.4.3-.7.6-1,.5-.4.8-.6c.3-.1.6-.2,1-.2s.4,0,.6,0,.4,0,.6.2.3.2.5.3c.1.1.3.3.4.4h0v-3.1h1.3v8.3h0ZM222.9,171.6c0,.3,0,.5.1.8s.2.5.3.7.3.4.5.5.5.2.7.2.6,0,.8-.2c.2-.1.4-.3.5-.5.1-.2.2-.4.3-.7,0-.2.1-.5.1-.8,0-.7-.1-1.2-.4-1.6s-.7-.6-1.2-.6-.6,0-.8.2c-.2.1-.4.3-.5.5-.1.2-.2.4-.3.7s0,.5,0,.8h0Z"/>
                <path class="cls-12" d="M229.6,173h1.6v1.6h-1.6v-1.6Z"/>
                <path class="cls-12" d="M146.8,182.7h5.7v1.3h-4.3v2.2h3.8v1.2h-3.8v3.7h-1.4v-8.3h0Z"/>
                <path class="cls-12" d="M159.3,191h-1.3v-.8h0c-.2.3-.4.6-.7.7-.3.2-.6.3-1,.3-.8,0-1.4-.2-1.7-.6-.4-.4-.5-1-.5-1.8v-3.8h1.3v3.7c0,.5.1.9.3,1.1s.5.3.9.3.5,0,.7-.1c.2,0,.3-.2.4-.3s.2-.3.2-.5,0-.4,0-.6v-3.5h1.3v6h0Z"/>
                <path class="cls-12" d="M161.4,184.9h1.3v6.5c0,.6-.1,1.1-.4,1.4-.3.3-.7.5-1.3.5s-.2,0-.3,0c0,0-.2,0-.3,0v-1.1c0,0,.2,0,.2,0,0,0,.1,0,.2,0,.2,0,.4,0,.4-.2s0-.4,0-.7v-6.5h0ZM161.4,182.7h1.3v1.3h-1.3v-1.3Z"/>
                <path class="cls-12" d="M164.7,182.7h1.3v1.3h-1.3v-1.3ZM164.7,184.9h1.3v6h-1.3v-6Z"/>
                <path class="cls-12" d="M168.1,184.9h1.3v.8h0c.1-.1.2-.3.3-.4s.2-.2.4-.3c.1,0,.3-.1.5-.2s.4,0,.6,0c.4,0,.7,0,1,.2.3.2.5.4.7.8.2-.3.5-.6.8-.7.3-.2.7-.3,1.1-.3.6,0,1.1.2,1.5.5.4.3.5.8.5,1.6v4.1h-1.3v-3.5c0-.2,0-.5,0-.7s0-.4-.1-.5-.2-.2-.3-.3-.4-.1-.6-.1c-.4,0-.8.1-1,.4s-.3.7-.3,1.2v3.5h-1.3v-3.9c0-.4,0-.7-.2-.9s-.4-.3-.8-.3-.3,0-.5.1c-.2,0-.3.2-.4.3s-.2.3-.3.5-.1.4-.1.7v3.6h-1.3v-6h0Z"/>
                <path class="cls-12" d="M178.8,182.7h1.3v1.3h-1.3v-1.3ZM178.8,184.9h1.3v6h-1.3v-6Z"/>
                <path class="cls-12" d="M187.7,190.6c0,.9-.2,1.6-.8,2s-1.2.7-2.2.7-.6,0-.9,0c-.3,0-.6-.2-.8-.3s-.5-.3-.6-.6-.3-.5-.3-.9h1.3c0,.2.1.3.2.4,0,.1.2.2.3.3s.3.1.4.1c.2,0,.3,0,.5,0,.5,0,.9-.1,1.2-.4.2-.3.4-.6.4-1.1v-.9h0c-.2.3-.4.6-.8.8s-.7.3-1,.3-.9,0-1.2-.2-.6-.4-.8-.7-.4-.6-.5-1-.1-.8-.1-1.2,0-.8.2-1.1.3-.7.5-1c.2-.3.5-.5.9-.7s.7-.2,1.1-.2.7,0,1.1.2.6.4.7.8h0v-.8h1.3v5.7h0ZM184.8,189.9c.3,0,.5,0,.8-.2s.4-.3.5-.5.2-.4.3-.7c0-.2,0-.5,0-.8s0-.5,0-.8c0-.2-.2-.4-.3-.6-.1-.2-.3-.3-.5-.4s-.4-.2-.7-.2-.5,0-.7.2c-.2.1-.4.3-.5.5-.1.2-.2.4-.3.7,0,.2,0,.5,0,.8s0,.5,0,.7c0,.2.2.4.3.6.1.2.3.3.5.4.2.1.4.2.7.2h0Z"/>
                <path class="cls-12" d="M194.7,189.6c0,.2,0,.3,0,.4s.1.1.2.1h.1c0,0,.1,0,.2,0v.9s-.1,0-.2,0-.1,0-.2,0c0,0-.2,0-.2,0s-.1,0-.2,0c-.3,0-.5,0-.7-.2-.2-.1-.3-.3-.4-.6-.3.2-.6.4-1,.6s-.8.2-1.1.2-.5,0-.8-.1-.5-.2-.7-.3-.3-.3-.4-.6-.2-.5-.2-.8,0-.7.2-.9.3-.4.5-.6.5-.2.7-.3c.3,0,.6-.1.8-.1.2,0,.5,0,.7-.1s.4,0,.6-.1.3-.1.4-.2c.1-.1.1-.2.1-.4s0-.3-.1-.4-.2-.2-.3-.2c-.1,0-.2-.1-.4-.1s-.3,0-.4,0c-.4,0-.7,0-.9.2-.2.2-.4.4-.4.7h-1.3c0-.4.1-.7.3-1,.2-.3.4-.5.6-.6s.5-.3.9-.3c.3,0,.6,0,1,0s.6,0,.9,0c.3,0,.5.2.8.3.2.1.4.3.6.5.1.2.2.5.2.8v3.1h0ZM193.4,187.9c-.2.1-.4.2-.8.2-.3,0-.6,0-.9.1-.1,0-.3,0-.4.1-.1,0-.2.1-.4.2-.1,0-.2.2-.2.3,0,.1,0,.3,0,.4s0,.3.1.4c0,.1.2.2.3.2.1,0,.2.1.4.1.1,0,.3,0,.4,0s.3,0,.5,0,.3-.1.5-.2.3-.2.4-.4.1-.3.1-.5v-1h0Z"/>
                <path class="cls-12" d="M199.5,191.1c-.5,0-.9,0-1.3-.2-.4-.2-.7-.4-.9-.7s-.5-.6-.6-1-.2-.8-.2-1.3,0-.9.2-1.3c.1-.4.3-.7.6-1s.6-.5.9-.7c.4-.2.8-.2,1.3-.2s.9,0,1.3.2c.4.2.7.4.9.7s.5.6.6,1c.1.4.2.8.2,1.3s0,.9-.2,1.3-.3.7-.6,1-.6.5-.9.7c-.4.2-.8.2-1.3.2ZM199.5,190.1c.3,0,.6,0,.8-.2.2-.1.4-.3.5-.5s.2-.4.3-.7c0-.2.1-.5.1-.8s0-.5-.1-.8c0-.2-.2-.5-.3-.7s-.3-.4-.5-.5c-.2-.1-.5-.2-.8-.2s-.6,0-.8.2c-.2.1-.4.3-.5.5-.1.2-.2.4-.3.7,0,.3-.1.5-.1.8s0,.5.1.8.2.5.3.7.3.4.5.5c.2.1.5.2.8.2Z"/>
                <path class="cls-12" d="M204.2,182.7h1.3v4.7l2.4-2.4h1.6l-2.3,2.2,2.5,3.8h-1.6l-1.8-2.9-.8.8v2.1h-1.3v-8.3h0Z"/>
                <path class="cls-12" d="M216.1,189.6c0,.2,0,.3,0,.4s.1.1.2.1h.1c0,0,.1,0,.2,0v.9s-.1,0-.2,0-.1,0-.2,0c0,0-.2,0-.2,0s-.1,0-.2,0c-.3,0-.5,0-.7-.2-.2-.1-.3-.3-.4-.6-.3.2-.6.4-1,.6s-.8.2-1.1.2-.5,0-.8-.1-.5-.2-.7-.3-.3-.3-.4-.6-.2-.5-.2-.8,0-.7.2-.9.3-.4.5-.6.5-.2.7-.3c.3,0,.6-.1.8-.1.2,0,.5,0,.7-.1s.4,0,.6-.1.3-.1.4-.2c.1-.1.1-.2.1-.4s0-.3-.1-.4-.2-.2-.3-.2c-.1,0-.2-.1-.4-.1s-.3,0-.4,0c-.4,0-.7,0-.9.2-.2.2-.4.4-.4.7h-1.3c0-.4.1-.7.3-1,.2-.3.4-.5.6-.6s.5-.3.9-.3c.3,0,.6,0,1,0s.6,0,.9,0c.3,0,.5.2.8.3.2.1.4.3.6.5.1.2.2.5.2.8v3.1h0ZM214.7,187.9c-.2.1-.4.2-.8.2-.3,0-.6,0-.9.1-.1,0-.3,0-.4.1-.1,0-.2.1-.4.2-.1,0-.2.2-.2.3,0,.1,0,.3,0,.4s0,.3.1.4c0,.1.2.2.3.2.1,0,.2.1.4.1.1,0,.3,0,.4,0s.3,0,.5,0,.3-.1.5-.2.3-.2.4-.4.1-.3.1-.5v-1h0Z"/>
                <path class="cls-12" d="M222.1,182.7h2.1l2.3,6.5h0l2.2-6.5h2v8.3h-1.4v-6.4h0l-2.3,6.4h-1.2l-2.3-6.4h0v6.4h-1.4v-8.3h0Z"/>
                <path class="cls-12" d="M235.6,191.1c-.5,0-.9,0-1.3-.2-.4-.2-.7-.4-.9-.7s-.5-.6-.6-1-.2-.8-.2-1.3,0-.9.2-1.3c.1-.4.3-.7.6-1s.6-.5.9-.7c.4-.2.8-.2,1.3-.2s.9,0,1.3.2c.4.2.7.4.9.7s.5.6.6,1c.1.4.2.8.2,1.3s0,.9-.2,1.3-.3.7-.6,1-.6.5-.9.7c-.4.2-.8.2-1.3.2ZM235.6,190.1c.3,0,.6,0,.8-.2.2-.1.4-.3.5-.5s.2-.4.3-.7c0-.2.1-.5.1-.8s0-.5-.1-.8c0-.2-.2-.5-.3-.7s-.3-.4-.5-.5c-.2-.1-.5-.2-.8-.2s-.6,0-.8.2c-.2.1-.4.3-.5.5-.1.2-.2.4-.3.7,0,.3-.1.5-.1.8s0,.5.1.8.2.5.3.7.3.4.5.5c.2.1.5.2.8.2Z"/>
                <path class="cls-12" d="M246,191h-1.3v-.8h0c-.2.4-.4.6-.8.8s-.7.2-1.1.2-.9,0-1.2-.2-.6-.4-.9-.7c-.2-.3-.4-.6-.5-1-.1-.4-.2-.8-.2-1.3s0-1,.2-1.4c.1-.4.3-.7.6-1,.2-.3.5-.4.8-.6.3-.1.6-.2,1-.2s.4,0,.6,0,.4,0,.6.2.3.2.5.3c.1.1.3.3.4.4h0v-3.1h1.3v8.3h0ZM241.3,188c0,.2,0,.5.1.8s.2.5.3.7.3.4.5.5.5.2.7.2.6,0,.8-.2c.2-.1.4-.3.5-.5.1-.2.2-.4.3-.7,0-.2.1-.5.1-.8,0-.7-.1-1.2-.4-1.6s-.7-.6-1.2-.6-.6,0-.8.2c-.2.1-.4.3-.5.5s-.2.4-.3.7,0,.5,0,.8h0Z"/>
                <path class="cls-12" d="M249,188.3c0,.2,0,.5.1.7,0,.2.2.4.3.6s.3.3.5.4.4.1.7.1.7,0,.9-.2.4-.4.5-.8h1.3c0,.3-.2.6-.4.9-.2.3-.4.5-.6.6-.2.2-.5.3-.8.4s-.6.1-.9.1c-.5,0-.9,0-1.3-.2-.4-.2-.7-.4-.9-.6s-.4-.6-.6-1-.2-.8-.2-1.3,0-.8.2-1.2c.1-.4.3-.7.6-1s.6-.5.9-.7.8-.2,1.2-.2.9.1,1.3.3c.4.2.7.5.9.8.2.3.4.7.5,1.1s.1.9,0,1.3h-4.4,0ZM252.1,187.4c0-.2,0-.4-.1-.6s-.2-.4-.3-.5-.3-.3-.5-.4c-.2,0-.4-.1-.6-.1s-.4,0-.6.1-.4.2-.5.3-.2.3-.3.5-.1.4-.1.6h3.1,0Z"/>
                <path class="cls-12" d="M255.1,182.7h1.3v8.3h-1.3v-8.3h0Z"/>
                <path class="cls-12" d="M258.4,182.7h1.3v3.1h0c.2-.3.4-.5.7-.7s.7-.3,1.1-.3c.7,0,1.2.2,1.6.5s.6.9.6,1.5v4.1h-1.3v-3.8c0-.5-.1-.8-.3-1-.2-.2-.5-.3-.9-.3s-.4,0-.6.1-.3.2-.5.3c-.1.1-.2.3-.3.5,0,.2-.1.4-.1.6v3.6h-1.3v-8.3h0Z"/>
                <path class="cls-12" d="M268.5,191.1c-.5,0-.9,0-1.3-.2s-.7-.4-1-.7-.5-.6-.6-1-.2-.8-.2-1.3,0-.9.2-1.3c.1-.4.3-.7.6-1s.6-.5,1-.7c.4-.2.8-.2,1.3-.2s.9,0,1.3.2.7.4,1,.7.5.6.6,1c.1.4.2.8.2,1.3s0,.9-.2,1.3-.3.7-.6,1-.6.5-1,.7c-.4.2-.8.2-1.3.2ZM268.5,190.1c.3,0,.5,0,.8-.2.2-.1.4-.3.5-.5s.2-.4.3-.7.1-.5.1-.8,0-.5-.1-.8c0-.2-.2-.5-.3-.7-.1-.2-.3-.4-.5-.5s-.5-.2-.8-.2-.5,0-.8.2c-.2.1-.4.3-.5.5-.1.2-.2.4-.3.7,0,.3-.1.5-.1.8s0,.5.1.8.2.5.3.7c.1.2.3.4.5.5.2.1.5.2.8.2Z"/>
                <path class="cls-12" d="M278.5,191h-1.3v-.8h0c-.2.3-.4.6-.7.7s-.6.3-1,.3c-.8,0-1.4-.2-1.7-.6-.4-.4-.5-1-.5-1.8v-3.8h1.3v3.7c0,.5.1.9.3,1.1.2.2.5.3.9.3s.5,0,.7-.1c.2,0,.3-.2.5-.3s.2-.3.2-.5,0-.4,0-.6v-3.5h1.3v6h0Z"/>
                <path class="cls-12" d="M281.5,189c0,.4.2.7.4.8.3.2.6.2.9.2s.3,0,.4,0,.3,0,.5-.1c.1,0,.2-.1.3-.2s.1-.2.1-.4c0-.2,0-.3-.2-.4s-.3-.2-.5-.3c-.2,0-.4-.1-.6-.2-.2,0-.5-.1-.7-.1-.2,0-.5-.1-.7-.2s-.4-.2-.6-.3c-.2-.1-.3-.3-.4-.5s-.2-.5-.2-.8,0-.6.2-.8.4-.4.6-.5.5-.2.8-.3.6,0,.9,0,.6,0,.9.1c.3,0,.5.2.8.3s.4.3.6.6.2.5.3.9h-1.4c0-.3-.2-.5-.4-.6s-.5-.2-.8-.2-.2,0-.3,0c-.1,0-.2,0-.4,0-.1,0-.2.1-.3.2s-.1.2-.1.3,0,.3.2.4c.1.1.3.2.4.2.2,0,.4.1.6.2.2,0,.5.1.7.1.2,0,.5.1.7.2s.4.2.6.3.3.3.4.5c.1.2.2.4.2.8s0,.7-.2.9-.4.4-.6.6-.5.3-.9.3-.6.1-.9.1-.7,0-1-.1c-.3,0-.6-.2-.8-.4-.2-.2-.4-.4-.6-.6s-.2-.6-.2-.9h1.3Z"/>
                <path class="cls-12" d="M288.1,188.3c0,.2,0,.5.1.7,0,.2.2.4.3.6s.3.3.5.4.4.1.7.1.7,0,.9-.2.4-.4.5-.8h1.3c0,.3-.2.6-.4.9-.2.3-.4.5-.6.6-.2.2-.5.3-.8.4s-.6.1-.9.1c-.5,0-.9,0-1.3-.2-.4-.2-.7-.4-.9-.6s-.4-.6-.6-1-.2-.8-.2-1.3,0-.8.2-1.2c.1-.4.3-.7.6-1s.6-.5.9-.7.8-.2,1.2-.2.9.1,1.3.3c.4.2.7.5.9.8.2.3.4.7.5,1.1.1.4.1.9,0,1.3h-4.4,0ZM291.2,187.4c0-.2,0-.4-.1-.6s-.2-.4-.3-.5-.3-.3-.5-.4c-.2,0-.4-.1-.6-.1s-.4,0-.6.1-.4.2-.5.3-.2.3-.3.5-.1.4-.1.6h3.1,0Z"/>
              </g>
            </g>
            <line class="cls-5" x1="391.1" y1="113.5" x2="346" y2="113.5"/>
          </g>
        </g>
      </g>
    </g>
  </g>
</svg>