<?xml version="1.0" encoding="UTF-8"?>
<svg id="_レイヤー_2" data-name="レイヤー 2" xmlns="http://www.w3.org/2000/svg" viewBox="0 0 18.74 19.06">
  <defs>
    <style>
      .cls-1 {
        fill: #262624;
        stroke-width: 0px;
      }
    </style>
  </defs>
  <g id="_レイヤー_1-2" data-name="レイヤー 1">
    <g>
      <path class="cls-1" d="M13.36,0h-7.97C2.41,0,0,2.41,0,5.39v8.29c0,2.98,2.41,5.39,5.39,5.39h7.97c2.98,0,5.39-2.41,5.39-5.39V5.39c0-2.98-2.41-5.39-5.39-5.39ZM1.91,5.39c0-1.92,1.56-3.47,3.47-3.47h7.97c1.92,0,3.47,1.56,3.47,3.47v8.29c0,1.92-1.56,3.47-3.47,3.47h-7.97c-1.92,0-3.47-1.56-3.47-3.47V5.39Z"/>
      <path class="cls-1" d="M9.37,14.44c2.71,0,4.91-2.2,4.91-4.91s-2.2-4.91-4.91-4.91-4.91,2.2-4.91,4.91,2.2,4.91,4.91,4.91ZM9.37,6.15c1.86,0,3.38,1.52,3.38,3.38s-1.52,3.38-3.38,3.38-3.38-1.52-3.38-3.38,1.52-3.38,3.38-3.38Z"/>
      <circle class="cls-1" cx="14.42" cy="4.48" r="1.1"/>
    </g>
  </g>
</svg>