<?xml version="1.0" encoding="UTF-8"?>
<svg id="_レイヤー_2" data-name="レイヤー 2" xmlns="http://www.w3.org/2000/svg" viewBox="0 0 20 20">
  <defs>
    <style>
      .cls-1 {
        fill: #251e1c;
        stroke-width: 0px;
      }
    </style>
  </defs>
  <g id="_レイヤー_1-2" data-name="レイヤー 1">
    <path class="cls-1" d="M15.49,20H4.51c-2.49,0-4.51-2.02-4.51-4.51V4.51C0,2.02,2.02,0,4.51,0h10.98c2.49,0,4.51,2.02,4.51,4.51v10.98c0,2.49-2.02,4.51-4.51,4.51M16.67,9.06c0-2.98-2.99-5.41-6.67-5.41s-6.67,2.43-6.67,5.41c0,2.67,2.37,4.92,5.58,5.34.22.05.51.14.59.33.07.17.04.43.02.6,0,0-.08.47-.1.57-.03.17-.13.66.58.36.71-.3,3.84-2.26,5.24-3.87h0c.97-1.06,1.43-2.14,1.43-3.33M14.45,10.78c.07,0,.13-.06.13-.13v-.47c0-.07-.06-.13-.13-.13h-1.27v-.49h1.27c.07,0,.13-.06.13-.13v-.47c0-.07-.06-.13-.13-.13h-1.27v-.49h1.27c.07,0,.13-.06.13-.13v-.47c0-.07-.06-.13-.13-.13h-1.87c-.07,0-.13.06-.13.13h0v2.91h0c0,.07.06.13.13.13h1.87M7.52,10.78c.07,0,.13-.06.13-.13v-.47c0-.07-.06-.13-.13-.13h-1.27v-2.31c0-.07-.06-.13-.13-.13h-.47c-.07,0-.13.06-.13.13v2.91h0c0,.07.06.13.13.13h1.87ZM8.65,7.62h-.47c-.07,0-.13.06-.13.13v2.91c0,.07.06.13.13.13h.47c.07,0,.13-.06.13-.13v-2.91c0-.07-.06-.13-.13-.13M11.87,7.62h-.47c-.07,0-.13.06-.13.13v1.73l-1.33-1.8s0,0-.01-.01c0,0,0,0,0,0,0,0,0,0,0,0h0s0,0,0,0h0s0,0,0,0c0,0,0,0,0,0,0,0,0,0,0,0,0,0,0,0,0,0,0,0,0,0,0,0,0,0,0,0,0,0,0,0,0,0,0,0,0,0,0,0,0,0,0,0,0,0,0,0,0,0,0,0,0,0,0,0,0,0,0,0,0,0,0,0,0,0,0,0,0,0,0,0h-.47c-.07,0-.13.06-.13.13v2.91c0,.07.06.13.13.13h.47c.07,0,.13-.06.13-.13v-1.73l1.33,1.8s.02.02.03.03c0,0,0,0,0,0,0,0,0,0,0,0,0,0,0,0,0,0,0,0,0,0,0,0,0,0,0,0,0,0,0,0,0,0,0,0,0,0,0,0,0,0,0,0,0,0,0,0,.01,0,.02,0,.03,0h.47c.07,0,.13-.06.13-.13v-2.91c0-.07-.06-.13-.13-.13"/>
  </g>
</svg>