<?xml version="1.0" encoding="UTF-8"?>
<svg id="_レイヤー_2" data-name="レイヤー 2" xmlns="http://www.w3.org/2000/svg" viewBox="0 0 257.54 220.37">
  <defs>
    <style>
      .cls-1 {
        fill: #251e1c;
        stroke-width: 0px;
      }
    </style>
  </defs>
  <g id="_レイヤー_1-2" data-name="レイヤー 1">
    <g>
      <path class="cls-1" d="m256.64,5.47c0,.37-.3.49-.67.49-.56,0-1.42-.32-3.17-.32-.75,0-1.52.06-2.28.15,0,.69-.02,1.74-.02,2.71.54.58.81,1.54.81,2.75,0,3.09-2.27,4.81-5.62,5.15-.45.04-.54-.49-.11-.62,2.21-.69,3.97-1.52,4.27-3.61-.38.36-.9.49-1.4.49-1.39,0-2.1-.82-2.1-2.25,0-1.59.96-2.64,2.43-2.64.22,0,.45.02.66.07,0-.6-.02-1.25-.02-1.89-1.44.24-2.79.58-3.8.88-.75.22-1.95.69-2.79.67-.79-.02-1.87-.95-1.87-1.85,0-.32.17-.39.49-.21.62.36.95.58,1.61.58.9,0,3.69-.6,6.35-1.05-.02-.56-.04-1.05-.06-1.33-.06-.81-.08-1.03-.49-1.25-.32-.17-.81-.36-.81-.62,0-.34.52-.43.84-.43.45,0,1.16.11,1.57.41.36.26.36.49.22,1.37-.07.47-.13,1.05-.17,1.67,1.89-.3,3.59-.51,4.31-.51,1.01,0,1.82.51,1.82,1.18Zm-6.96,3.86c-.19-.49-.5-.79-1.05-.79-.71,0-1.27.66-1.27,1.55,0,.8.34,1.31,1.16,1.31.77,0,1.2-.37,1.24-1.2,0-.22-.02-.54-.08-.88Zm2.98-7.58c-.22-.22-.09-.52.22-.51,1.22.07,2.53.92,2.53,1.8,0,.43-.32.66-.64.66-.43,0-.56-.32-.99-.82-.32-.37-.75-.75-1.12-1.12Zm4.68-.15c0,.39-.24.66-.62.66-.28,0-.47-.15-.82-.54-.41-.45-.97-.86-1.38-1.16-.3-.22-.17-.54.19-.54,1.2,0,2.64.64,2.64,1.59Z"/>
      <path class="cls-1" d="m246.33,32.18c.32,0,.71-.13.99-.26,1.46-.71,3.37-2.04,5.5-2.04s3.97,1.55,3.97,3.5c0,3.43-3.71,4.55-7.58,4.21-.62-.06-.62-.71,0-.77,4.14-.28,6.2-1.46,6.2-3.59,0-1.2-.81-2.49-2.55-2.49s-3.31,1.33-4.01,1.8c-.62.41-1.8,1.24-2.4,1.2-.69-.04-1.37-.62-1.55-1.33-.07-.28-.07-.6-.02-.84.06-.3.41-.39.6-.17.19.22.51.79.84.79Z"/>
      <path class="cls-1" d="m246.98,51.69c.86,0,1.91.52,1.91,1.44,0,.69-.6,2.75-.6,3.95,0,.75.17,1.14.71,1.12.54-.02.94-.47,1.87-.49.77-.02,1.44.32,1.44.79,0,.58-.69.86-1.65.94-.49.04-1.25.06-1.85.11-1.55.15-2.83,1.4-2.75,3.09.08,1.76,1.46,2.04,3.11,2.04,1.4,0,2.41-.45,3.11-.45.64,0,1.1.28,1.1.69,0,.94-2.15,1.24-4.21,1.24-1.82,0-4.23-.66-4.31-3.01-.06-2.1,1.03-3.46,2.94-4.38-.43-.52-.67-.82-.67-1.61,0-.88.09-2.71.09-3.43,0-.56-.09-.79-.41-.99-.39-.24-.69-.34-.69-.58,0-.26.49-.47.86-.47Z"/>
      <path class="cls-1" d="m248.26,87.84c0,.22-.21.43-.86.54-.34,3.71-2.47,5.77-6.59,6.72-.67.15-.81-.41-.17-.66,3.48-1.27,5.32-3.16,5.34-6.87,0-.19.06-.34.32-.32.62,0,1.97.21,1.97.58Zm-7.26-.95c-.24,0-.41-.07-.41-.37,0-.28.17-.37.41-.37h7.19c.02-.95.02-2.08,0-3.2h-3.93c-.5.86-1.14,1.76-1.97,2.49-.41.39-.82.07-.54-.39,1.37-2.02,2.19-4.16,2.34-5.86.02-.22.13-.3.34-.28.64.09,1.93.62,1.95,1.01.02.3-.3.41-.86.37-.21.49-.47,1.18-.84,1.91h3.52c-.02-1.52-.08-2.9-.17-3.59-.02-.17.09-.26.26-.26.34,0,2.17.06,2.17.56,0,.39-.39.52-.95.66v2.64h3.07c.41-.62.97-1.35,1.27-1.35.39,0,1.82,1.16,1.82,1.65,0,.26-.36.45-1.09.45h-5.07v3.2h4.62c.41-.62.97-1.35,1.27-1.35.39,0,1.82,1.16,1.82,1.65,0,.26-.34.45-1.09.45h-15.13Zm16.55,6.95c0,.47-.94,1.07-4.16,1.07s-3.52-.22-3.52-1.69c0-.41.04-3.99-.04-5.64-.02-.26.06-.34.32-.34.66,0,1.93.13,1.93.54,0,.28-.26.43-.82.52-.06,1.29-.08,3.84-.06,4.62.04.58.11.71,2.17.71,2.23,0,2.49-.21,2.75-.73.19-.36.36-.99.47-1.4.09-.45.62-.41.62.06,0,1.98.34,1.67.34,2.27Z"/>
      <path class="cls-1" d="m255.67,113.91c0,3.59-2.88,5.45-6.74,5.45-.66,0-.69-.58-.11-.69,3.24-.64,5.34-2,5.34-5.07,0-2-1.01-3.67-2.9-4.46-.06.71-.24,1.54-.53,2.3-1.09,3-4.21,6.72-6.46,6.72-.99,0-1.96-1.37-2.13-3.58-.19-2.36.73-4.1,1.97-5.2,1.1-.97,2.81-1.67,4.59-1.67,4.47,0,6.98,2.83,6.98,6.2Zm-5.47-5.11c-.49-.09-1.01-.15-1.57-.15-1.61,0-2.88.52-3.8,1.39-.99.94-1.59,2.27-1.48,4.12.09,1.44.6,2.32,1.14,2.32,1.8,0,4.49-3.65,5.37-6.16.19-.51.3-1.05.34-1.52Z"/>
      <path class="cls-1" d="m192.38,8.39c1.22,1.42,2.9,2.42,4.91,2.83.62.11.41.41.08.56-.47.19-.6.34-.77.56-.21.32-.34.45-.88.26-.92-.32-1.76-.82-2.53-1.48-.09.07-.22.15-.36.21-.08,1.37.02,4.64.02,5.37,0,.58-.32.71-.84.71-.43,0-.58-.34-.58-.64v-.32h-4.92v.45c0,.41-.3.6-.86.6-.34,0-.52-.19-.52-.52.02-1.16.11-4.27,0-6.22-1.05,1.09-2.43,2.13-4.42,3.07-.5.32-.86-.21-.41-.56,2.79-1.63,4.18-3.28,5.21-4.89h-4.72c-.24,0-.41-.07-.41-.37,0-.28.17-.37.41-.37h5.19c.34-.6.6-1.22.82-1.85h-3.89c-.24,0-.41-.07-.41-.37,0-.28.17-.37.41-.37h4.1c.15-.52.24-1.09.34-1.67h-5.43c-.24,0-.41-.07-.41-.37,0-.28.17-.37.41-.37h5.52c.06-.56.11-1.16.15-1.78.02-.19.11-.24.3-.24.67-.02,2.02.37,2.02.77,0,.3-.24.39-.92.47l-.11.79h4.85c.39-.56.86-1.2,1.14-1.2.36,0,1.67,1.09,1.69,1.54,0,.26-.3.41-1.01.41h-6.78c-.11.58-.22,1.14-.36,1.67h4.31c.37-.54.84-1.16,1.1-1.16.36,0,1.65,1.07,1.67,1.5,0,.26-.3.41-.99.41h-3.63c.26.67.58,1.29.97,1.85h2.57c.41-.6.92-1.29,1.22-1.29.37,0,1.76,1.14,1.76,1.61,0,.26-.3.43-1.05.43h-3.93Zm-5.6.22c-.28.43-.58.86-.92,1.29.36.13.8.32,1.09.52h4.19c.26-.34.58-.69.77-.71-.32-.41-.6-.86-.86-1.33h-4.12l-.15.22Zm4.68,4.42v-1.85h-4.83l-.11.02c-.02.36-.04,1.2-.04,1.83h4.98Zm-.04,2.68l.02-1.93h-4.96v.02l.02,1.91h4.92Zm-3.26-9.92c-.21.64-.47,1.25-.79,1.85h3.31c-.26-.58-.51-1.2-.69-1.85h-1.83Z"/>
      <path class="cls-1" d="m195.67,36.21c0,3.59-2.88,5.45-6.74,5.45-.66,0-.69-.58-.11-.69,3.24-.64,5.34-2,5.34-5.07,0-2-1.01-3.67-2.9-4.46-.06.71-.24,1.54-.53,2.3-1.09,3-4.21,6.72-6.46,6.72-.99,0-1.96-1.37-2.13-3.58-.19-2.36.73-4.1,1.97-5.2,1.1-.97,2.81-1.67,4.59-1.67,4.47,0,6.98,2.83,6.98,6.2Zm-5.47-5.11c-.49-.09-1.01-.15-1.57-.15-1.61,0-2.88.52-3.8,1.39-.99.94-1.59,2.27-1.48,4.12.09,1.44.6,2.32,1.14,2.32,1.8,0,4.49-3.65,5.37-6.16.19-.51.3-1.05.34-1.52Z"/>
      <path class="cls-1" d="m192.39,56.35c.32-.41.69-.86.94-.86.43,0,1.65.92,1.65,1.35,0,.28-.36.49-.77.64-.13,2.75.08,11.01.08,12.39,0,.58-.41.73-.96.73-.45,0-.6-.34-.6-.64v-.8h-7.7v1.03c0,.43-.28.67-.9.67-.39,0-.56-.22-.56-.56,0-2.25.22-11.8-.08-14.51-.02-.13.09-.26.26-.26.28,0,1.48.41,1.93.82h6.7Zm.39,6.05c0-2.28.02-4.42,0-5.3h-7.51l-.19.04c-.08.99-.09,3.93-.09,5.26h7.79Zm-.04,6.01c0-1.33.02-3.3.04-5.26h-7.79l.04,5.26h7.71Z"/>
      <path class="cls-1" d="m194.34,94.15c0,2.21-1.78,3.97-4.81,3.97-1.55,0-3.28-.9-3.28-2.88,0-.47.04-.99.09-1.55-1.52-.43-3.31-1.27-3.31-2.47,0-.88,1.24-1.91,1.65-2.49.32-.45.3-.69,0-1.2-.24-.41-.64-.77-1.24-1.37-.24-.24-.08-.58.34-.47,1.22.34,2.36,1.24,2.68,2.25.19.6.04.99-.66,1.4-.73.43-1.91,1.18-1.91,1.7,0,.58,1.31,1.05,2.64,1.31.22-1.42.52-2.83.71-3.73.21-1.03.51-2.55.51-3.31,0-.54-.3-.81-.92-1.22-.36-.24-.75-.45-.75-.67,0-.19.36-.39.79-.39.99,0,2.45.88,2.45,2,0,.6-.54,2.32-.88,3.76-.21.86-.54,2.32-.8,3.71,1.91.21,2.25.37,2.25.77,0,.34-.19.73-1.27.73-.34,0-.75-.02-1.2-.07-.06.43-.09.82-.09,1.16,0,1.46,1.01,1.85,2.15,1.85,2.51,0,3.41-1.48,3.41-3.03,0-2.06-2.15-3.37-3.22-4.06-.49-.32-.3-.79.26-.62,2.12.64,4.42,2.45,4.42,4.92Z"/>
      <path class="cls-1" d="m194.49,116.87c0,.28-.19.56-.47.79-.56.45-1.44.84-2.42,1.14.75,1.27,1.5,2.21,1.5,2.94,0,.66-.49,1.25-1.14,1.25s-1.93-.67-3.54-.67c-1.52,0-2.62.43-2.62,1.59,0,.97,1.72,1.16,3.18.97,1.07-.13,2.13-.21,2.13.39,0,.64-.94,1.07-2.94,1.07-1.87,0-3.54-.8-3.54-2.17,0-1.61,1.54-2.68,4.06-2.68.94,0,2.32.19,2.58.19.34,0,.43-.15.3-.47-.11-.28-.6-1.18-1.01-2.15-1.05.24-2.12.37-2.98.37-2.08,0-3.46-.52-3.46-1.59,0-.62,1.37-1.54,1.93-2.28.19-.24.19-.52-.04-.71-.5-.41-1.07-.67-1.78-1.01-.56-.26-.52-.64.28-.64,1.33,0,3.31.73,3.31,1.98,0,.43-.32.66-1.1,1.18-.58.39-1.48.95-1.48,1.33,0,.45.84.58,2.13.58.8,0,1.82-.15,2.71-.36-.67-1.83-1.05-3.54-1.22-5-.06-.49-.22-.67-.56-.77-.58-.17-1.33-.24-1.33-.45,0-.34.69-.77,1.12-.77.56,0,1.07.13,1.63.43.39.21.47.54.45,1.35-.06,2.36.26,3.78.8,4.96.56-.17,1.03-.34,1.27-.49.34-.21.43-.34.26-.56-.24-.32-.43-.51-.69-.86s.04-.66.45-.39c.6.37.96.56,1.4.77.56.26.79.34.79.73Z"/>
      <path class="cls-1" d="m186.33,142.22c.32,0,.71-.13.99-.26,1.46-.71,3.37-2.04,5.5-2.04s3.97,1.55,3.97,3.5c0,3.43-3.71,4.55-7.58,4.21-.62-.06-.62-.71,0-.77,4.14-.28,6.2-1.46,6.2-3.59,0-1.2-.81-2.49-2.55-2.49s-3.31,1.33-4.01,1.8c-.62.41-1.8,1.24-2.4,1.2-.69-.04-1.37-.62-1.55-1.33-.07-.28-.07-.6-.02-.84.06-.3.41-.39.6-.17.19.22.51.79.84.79Z"/>
      <path class="cls-1" d="m186.98,161.72c.86,0,1.91.52,1.91,1.44,0,.69-.6,2.75-.6,3.95,0,.75.17,1.14.71,1.12s.94-.47,1.87-.49c.77-.02,1.44.32,1.44.79,0,.58-.69.86-1.65.94-.49.04-1.25.06-1.85.11-1.55.15-2.83,1.4-2.75,3.09.08,1.76,1.46,2.04,3.11,2.04,1.4,0,2.41-.45,3.11-.45.64,0,1.1.28,1.1.69,0,.94-2.15,1.24-4.21,1.24-1.82,0-4.23-.66-4.31-3.01-.06-2.1,1.03-3.46,2.94-4.38-.43-.52-.67-.82-.67-1.61,0-.88.09-2.71.09-3.43,0-.56-.09-.79-.41-.99-.39-.24-.69-.34-.69-.58,0-.26.49-.47.86-.47Z"/>
      <path class="cls-1" d="m197.09,190.59c.5.97.15,1.91-.67,1.91-.41,0-.69-.28-.92-.75-.26-.52-.56-1.01-.92-1.44-.34-.39-.86-.88-1.35-1.29-.32-.28-.21-.56.24-.52,1.57.13,3,.94,3.61,2.1Z"/>
      <path class="cls-1" d="m136.21,6.42c0,.32-.26.49-.71.49-.41,0-.94-.02-1.54-.02-1.09,0-3.07.21-4.34.37.64.34.88.71.88,1.01,0,.28-.19.66-.34,1.01-.67,1.61-2.08,4.14-5.15,5.6-.62.3-1.05-.3-.45-.73,2.21-1.55,4.08-4.12,4.25-5.71.04-.37-.02-.56-.45-.97-1.91.36-4.03.92-4.77.92-.66,0-1.48-.92-1.59-1.74-.04-.28.19-.47.49-.32.49.24.94.6,1.55.6,1.07,0,5.65-.75,7.17-1.01,1.72-.3,2.75-.52,3.22-.52.81,0,1.78.41,1.78,1.03Zm-11.14-3.56c-.17-.34.02-.58.36-.45.67.28,1.09.43,1.65.43,2.15,0,3.45-.92,4.06-.92.51,0,1.31.24,1.31.71,0,.32-.36.6-.94.77-.64.19-2.83.71-4.36.71-.97,0-1.76-.62-2.08-1.25Z"/>
      <path class="cls-1" d="m130,28.34c0,.64-.17.9-.24,2.02-.06.94-.09,1.83-.09,3.73,0,2.53.04,3.65.04,4.81,0,.88-.38,1.12-.84,1.12-.58,0-.77-.56-.77-1.54s.28-3.37.28-6.7c0-1.03-.02-1.74-.09-2.45-.06-.54-.17-.69-.5-.86-.54-.26-.77-.32-.77-.56,0-.26.73-.6,1.12-.6.67,0,1.87.47,1.87,1.03Z"/>
      <path class="cls-1" d="m125.17,55.37c.9,0,4.4-.45,5.99-.67.86-.11.97-.36,1.38-.36.82,0,2,1.01,2,1.54,0,.56-.58.56-.97,1.42-1.29,2.83-3.73,6.23-9.06,7.94-.62.19-.9-.49-.28-.77,4.31-1.98,7.23-5.24,8.14-8.33.15-.51.07-.52-.43-.49-1.09.09-3.86.62-4.98.9-.9.22-1.39.47-1.95.47-.64,0-1.63-.84-1.85-1.78-.11-.47.17-.64.58-.41.54.3.88.54,1.42.54Zm11.1-1.14c0,.43-.32.66-.64.66-.43,0-.56-.32-.99-.82-.32-.37-.75-.77-1.12-1.12-.22-.22-.09-.52.23-.51,1.22.09,2.53.92,2.53,1.8Zm1.59-1.76c0,.39-.24.66-.62.66-.28,0-.47-.15-.82-.54-.41-.45-.97-.86-1.39-1.16-.3-.22-.17-.54.19-.54,1.2.02,2.64.64,2.64,1.59Z"/>
      <path class="cls-1" d="m125,80.89c.92,0,2.13.69,2.13,1.54,0,2.77-2.96,5.69-6.1,6.5-.51.13-.77-.39-.26-.66,2.49-1.29,4.81-3.43,4.76-5.45-.02-.47-.21-.56-.71-.88-.37-.22-.8-.37-.8-.62,0-.22.58-.43.99-.43Zm4.32.02c-.07-.73-.21-1.01-.71-1.27-.66-.34-.88-.47-.88-.64,0-.3.6-.52.94-.52,1.14,0,2.17.73,2.17,1.24,0,.37-.11.9-.13,1.39-.02.66-.34,3.24-.47,4.06-.09.58.11.73.58.56,1.95-.67,4.42-2.23,5.71-3.26.58-.47,1.09.04.54.64-1.16,1.25-3.29,2.81-5.75,3.95-.51.22-.79.71-1.37.71-.52,0-1.16-.97-1.16-1.52,0-.41.19-.75.32-1.44.15-.77.32-2.88.21-3.89Z"/>
      <path class="cls-1" d="m124.36,112.02c0,1.35.49,1.87.49,2.53,0,.49-.22.75-.77.75-.75,0-1.27-1.55-1.27-2.9,0-3.33,1.46-5.86,1.46-7.71,0-.92-.37-1.35-.82-2.19-.19-.36.02-.58.45-.41.79.32,1.44.9,1.7,1.57.21.54.3.92.02,1.7-.49,1.35-1.01,2.19-1.2,3.09-.08.37.06.49.36.15.56-.64,1.29-1.48,2.55-2.3,1.54-1.01,3.18-1.52,4.77-1.52s2.43.6,2.43,1.05c0,.36-.19.52-.69.82-.67.41-1.67.99-2.36,1.4-.43.26-.77-.11-.43-.45.32-.32.71-.69.97-.99.36-.43.26-.64-.47-.66-.86-.02-2.42.32-3.82,1.16-2.1,1.25-3.37,3.2-3.37,4.91Zm8.18.79c.94,0,1.72-.07,2.29-.07.43,0,.94.09.94.62,0,.75-1.24.95-2.85.95-2.7,0-4.91-1.4-5.36-3.89-.09-.52.49-.6.66-.24.6,1.27,1.65,2.64,4.32,2.64Z"/>
      <path class="cls-1" d="m123.05,141.8c1.12-.24,2.13-.51,3-.75-.17-.3-.34-.58-.51-.86-.24-.41.04-.82.52-.56,1.16.6,2.12,1.54,2.08,2.45-.04.51-.34.86-.86.84-.49-.04-.62-.52-.9-1.18-1.22.58-2.86,1.12-4.62,1.57-.08.43-.24.81-.53.81-.39-.02-.67-.66-.8-1.67-.02-.15.06-.22.21-.22.39-.06.77-.11,1.14-.19.02-2.02.15-7.36-.07-9.34,0-.06,0-.11.04-.15-.45.39-.92.75-1.4,1.09-.45.28-.8-.19-.43-.52,1.7-1.65,3.16-3.48,4.27-5.56.08-.15.15-.21.32-.21.75.11,1.61.47,1.59.75,0,.19-.28.32-.6.26v.02c.53.19.97.39,1.33.58.64.36,1.03.67,1.18,1.12.17.49,0,.94-.47,1.05-.54.15-.9-.58-1.44-1.14-.3-.34-.66-.66-1.07-.95-.86,1.14-1.97,2.38-3.2,3.46.06-.04.11-.04.17-.04.32.04,1.18.36,1.55.69h.62c0-.62-.02-1.33-.04-1.82-.02-.19.08-.28.24-.28.32,0,1.69.09,1.69.49,0,.26-.26.39-.73.49v1.12h.77c.24-.34.54-.71.75-.71.32,0,1.29.75,1.29,1.14,0,.22-.26.39-.56.51-.02,1.09.02,3.99.02,4.55s-.26.73-.71.73-.52-.34-.52-.64v-.09h-3.31l.02,3.16Zm3.29-3.91l.02-1.63h-3.33v1.63h3.31Zm-3.26-3.99c-.02.36-.04.97-.04,1.61h3.33v-1.61h-3.3Zm11.98-.02c.28-.36.62-.69.73-.69.47,0,1.72,1.07,1.72,1.42,0,.28-.43.49-.86.64-.02,1.39,0,3.48-.02,5.32,0,1.1-.75,1.57-1.48,1.57s-.3-.6-1.03-.92c-.38-.19-.34-.6.02-.6.13,0,.49.04.66.04.36,0,.49-.15.52-.58.04-.73.04-1.95.04-2.88v-2.56h-1.95v2.4c0,3.76.09,5.92.09,6.61,0,.39-.32.67-.92.67-.36,0-.51-.21-.51-.56,0-.79.08-2.88.08-6.72v-2.4h-1.8c-.04.67-.06,2.7-.06,3.2l.02,3.84c0,.41-.26.6-.8.6-.34,0-.51-.17-.51-.51.02-1.25.11-4.85.02-7.13v-.06c-.02-.45-.04-.82-.08-1.14-.02-.13.11-.26.26-.24.3.04,1.18.37,1.59.69h1.35v-2.83h-1.76c-.5.71-1.14,1.44-1.87,2-.43.34-.81.02-.51-.41,1.29-1.69,2.15-3.5,2.43-5.06.02-.19.15-.28.34-.24.62.13,1.85.66,1.87,1.03,0,.3-.36.41-.9.36-.21.41-.51.97-.88,1.57h3.86c.38-.6.88-1.27,1.16-1.27.37,0,1.63,1.14,1.65,1.59,0,.28-.39.43-.96.43h-2.49c-.02.21-.24.36-.69.41v2.42h1.65Z"/>
      <path class="cls-1" d="m133.89,165.73c0,2.45-2.13,3.84-4.75,3.84-1.59,0-2.81-.66-2.81-1.95,0-1.07.84-1.7,1.87-1.7,1.33,0,2.38.86,2.62,2.17.92-.37,1.67-1.14,1.67-2.62s-1.14-2.58-2.71-2.58c-1.18,0-1.97.36-2.62.9-.99.84-1.55,1.5-2.04,1.93-.49.41-.97.43-1.18,0-.21-.39-.06-.92.51-1.48.81-.77,2.64-2.12,3.65-2.98,1.1-.97,2.51-2.3,3.01-3.22.22-.39.08-.6-.22-.6-1.09,0-4.14,2.12-5.11,2.12-.92,0-1.89-1.12-1.89-2.02,0-.45.22-.56.54-.32.37.3.94.75,1.37.75.67,0,2.43-.64,3.91-1.12.56-.21.99-.34,1.42-.34.97,0,2,1.01,2,1.63,0,.54-.88,1.03-1.4,1.44-1.29.97-2.34,1.83-3.35,2.71,3.11-.62,5.52.92,5.52,3.45Zm-4.44,2.66c-.08-1.1-.62-1.7-1.39-1.7-.54,0-.86.28-.88.77-.02.64.81.95,1.68.95.19,0,.39,0,.58-.02Z"/>
      <path class="cls-1" d="m65.45,14.51c1.33-.24,2.45-.51,3.41-.75.8-.21.95.37.21.69-1.7.69-4.06,1.35-7.41,1.98-.07.43-.24.82-.56.82-.39,0-.71-.86-.88-1.87-.02-.17.06-.22.21-.24,1.4-.11,2.66-.26,3.78-.43v-2.4h-3.18c-.24,0-.41-.07-.41-.37,0-.28.17-.37.41-.37h3.18v-2.6h-1.93v.73c0,.41-.28.6-.84.6-.34,0-.52-.17-.52-.51.02-1.5.15-6.48-.06-8.44-.02-.13.11-.26.26-.24.28.02,1.07.3,1.54.62h4.59c.24-.32.5-.62.69-.62.36,0,1.4.79,1.4,1.2,0,.24-.3.41-.62.52-.04,1.5.02,5.69.02,6.48,0,.58-.28.71-.77.71-.43,0-.54-.34-.54-.64v-.41h-1.97v2.6h1.14c.36-.52.79-1.1,1.03-1.1.36,0,1.5,1.05,1.5,1.46,0,.26-.32.39-.86.39h-2.81v2.19Zm-2.79-12.04c-.09.04-.22.07-.38.09-.02.45-.04,1.61-.04,2.43h1.97v-2.53h-1.55Zm1.55,5.75v-2.47h-1.97v.06l.02,2.42h1.95Zm1.24-3.22h2c.02-1.07.02-2.02,0-2.53h-1.63c-.04.13-.17.24-.38.32v2.21Zm1.98,3.22l.02-2.47h-2v2.47h1.98Zm7.75-.75c.36-.37.77-.73.99-.73.43,0,1.38.96,1.38,1.42,0,.32-.47.47-1.01.49-.64.73-1.68,1.89-2.83,2.71.17.75.26,1.54.26,2.38,0,2.66-1.14,3.76-2.38,3.76-.43,0-.54-.13-.8-.47-.24-.32-.47-.39-.94-.58-.49-.17-.43-.69.09-.64.43.04,1.05.13,1.63.13.67,0,1.12-.86,1.12-2.38,0-1.78-.37-3.41-1.37-5.13-.06-.07-.09-.15-.09-.22h-1.85c-.24,0-.41-.07-.41-.37,0-.28.17-.37.41-.37h5.79Zm-5.28-4.91c-.24,0-.41-.08-.41-.37,0-.28.17-.37.41-.37h5.19c.32-.32.65-.58.84-.58.41,0,1.33.96,1.33,1.42,0,.34-.47.47-1.01.47-.65.6-1.5,1.39-2.43,2,.28.28.45.54.52.73.17.51-.06.9-.37,1.01-.34.11-.54,0-.82-.3-.28-.3-.6-.77-1.05-1.2-.41-.39-.82-.73-1.27-1.03-.26-.17-.11-.6.3-.52.92.19,1.61.51,2.13.86.66-.67,1.31-1.48,1.68-2.12h-5.04Zm2.3,5.65c.58.71.99,1.5,1.29,2.34.69-.8,1.29-1.65,1.63-2.34h-2.92Z"/>
      <path class="cls-1" d="m75.67,36.21c0,3.59-2.88,5.45-6.74,5.45-.66,0-.69-.58-.11-.69,3.24-.64,5.34-2,5.34-5.07,0-2-1.01-3.67-2.9-4.46-.06.71-.24,1.54-.53,2.3-1.09,3-4.21,6.72-6.46,6.72-.99,0-1.96-1.37-2.13-3.58-.19-2.36.73-4.1,1.97-5.2,1.1-.97,2.81-1.67,4.59-1.67,4.47,0,6.98,2.83,6.98,6.2Zm-5.47-5.11c-.49-.09-1.01-.15-1.57-.15-1.61,0-2.88.52-3.8,1.39-.99.94-1.59,2.27-1.48,4.12.09,1.44.6,2.32,1.14,2.32,1.8,0,4.49-3.65,5.37-6.16.19-.51.3-1.05.34-1.52Z"/>
      <path class="cls-1" d="m67.15,60.34c.02.3-.34.41-.88.39-.32.64-.73,1.37-1.22,2.13.52.13,1.1.34,1.1.58,0,.22-.24.36-.73.41-.02.58-.02,2.66-.02,3.09,0,.17.04,3.13.04,3.58,0,.39-.32.52-.88.52-.32,0-.52-.15-.52-.49,0-.32.09-3.24.09-3.74,0-.37.02-1.52-.04-2.58-.92,1.2-2.04,2.38-3.45,3.3-.45.3-.8-.09-.41-.51,2.29-2.32,4.06-4.87,4.7-7.38.06-.21.15-.28.36-.24.62.11,1.85.56,1.85.94Zm-6.38-2.96c-.24,0-.41-.07-.41-.37,0-.28.17-.37.41-.37h4.85c0-.69-.06-1.57-.13-2.17-.02-.19.09-.26.26-.26.75,0,2.12.06,2.12.54,0,.32-.3.56-.94.64v1.25h3.69c0-.67-.06-1.55-.11-2.17-.04-.19.09-.26.26-.26.75,0,2.12.06,2.12.54,0,.32-.3.56-.94.64v1.25h2.43c.39-.58.9-1.25,1.18-1.25.37,0,1.72,1.12,1.72,1.57,0,.26-.28.43-1.03.43h-4.31v1.27c0,.39-.3.56-.82.56-.34,0-.54-.19-.54-.51,0-.28.02-.77.04-1.33h-3.69v1.31c0,.39-.28.56-.8.56-.36,0-.54-.19-.54-.51,0-.28.02-.79.04-1.37h-4.85Zm16.74,12.08c0,.43-.79,1.12-4.14,1.12s-3.8-.51-3.8-2.08c0-.71.07-7.17-.09-8.52-.02-.26.02-.36.32-.36,1.09,0,1.95.19,1.97.58,0,.3-.34.47-.88.56-.02.56-.02,2.71-.04,4.61,1.63-1.35,2.94-2.79,3.88-4.42.11-.19.22-.28.43-.19.67.26,1.7,1.07,1.63,1.46-.08.32-.45.34-.95.15-.96,1.09-2.75,2.7-4.98,3.97v2.06c0,.77.13.92,2.49.92,2.13,0,2.62-.26,2.81-.67.17-.34.3-.8.36-1.01.13-.34.45-.34.5.02.02.21.08.62.11.86.09.56.39.51.39.94Z"/>
      <path class="cls-1" d="m75.84,90.46c0,.9-.86,1.33-2.06,1.72-.77.26-2.55.81-3.78,1.27,0,.43.02.94.02,1.31,0,.45-.19.77-.6.79-.43.02-.79-.32-.79-.79,0-.21.04-.45.06-.77-1.27.64-2.02,1.24-2.02,2.12,0,.82.99,1.14,1.98,1.14,1.55,0,2.51-.37,3.28-.37.58,0,1.14.17,1.14.75,0,.54-1.31.99-3.86.99s-3.65-.88-3.65-2.27c0-1.1.75-1.98,3.18-3.18.02-.28,0-.58-.02-.92-.08-.92-.52-1.91-1.48-1.91-1.18,0-1.78,1.54-3.14,3.26-.28.36-.51.69-.96.69s-.66-.3-.67-.67c-.02-.34.11-.71.6-1.2,1.23-1.24,2.75-2.9,3.69-4.89-.77.09-1.42.15-2.32.15-1.35,0-2.1-.67-2.32-2.15-.06-.43.21-.52.5-.24.92.84,1.44,1.24,2.53,1.24.67,0,1.4-.04,2.08-.11.21-.52.34-.94.37-1.24.06-.39.11-.71-.19-1.03-.32-.34-.56-.52-.56-.75,0-.26.58-.37.86-.37.6,0,1.4.21,1.4.66,0,.39-.34,1.57-.71,2.55,2-.45,2.73-1.27,3.52-1.27.41,0,.88.22.9.69.02.43-.64.67-1.16.88-.5.21-2.53.67-3.84.88-.36.62-1.07,1.83-1.37,2.42,1.25-.34,2.43-.21,3.09,1.39,1.12-1.95,2.43-2.66,3.74-2.66s2.55.82,2.55,1.91Zm-1.5-.34c0-.52-.45-.84-1.24-.84s-1.84.56-2.45,1.59c-.36.6-.56,1.12-.64,1.72,1.2-.52,2.4-.97,2.85-1.18.92-.41,1.48-.58,1.48-1.29Z"/>
      <path class="cls-1" d="m75.26,116.35c.24-.32.54-.62.66-.62.45,0,1.59.94,1.59,1.27,0,.22-.32.41-.67.56-.06,2.04-.02,5.47-.04,8.22,0,1.14-.79,1.61-1.52,1.61s-.3-.71-1.09-1.03c-.38-.17-.34-.6.02-.6.13,0,.54.04.77.04.38,0,.53-.17.56-.66.04-.94.04-2.71.04-4.03v-4.03h-7.81c-.06.9-.08,3.84-.08,4.47,0,.54.04,4.79.04,5.35,0,.43-.26.64-.82.64-.32,0-.49-.19-.49-.54,0-1.82.19-8.76-.08-11.06-.15.07-.34.11-.52.11h-1.8v3.59c.52-.19,1.01-.36,1.44-.52.62-.21.84.22.3.6-.51.32-1.1.64-1.74.92.02,1.8.02,3.61.02,5.22,0,1.07-.58,1.67-1.37,1.67-.62,0-.34-.64-1.65-1.07-.41-.17-.36-.64.06-.62.39.02.73.07,1.01.07.43,0,.66-.17.69-.75.04-.82.06-2.43.04-4.01-.47.19-.94.37-1.37.54-.07.45-.21.9-.52.9-.39,0-.67-.62-.84-1.61-.02-.17.06-.24.21-.26.9-.22,1.74-.45,2.53-.69v-1.59c0-.52,0-1.4-.02-2.4h-2.25c-.24,0-.41-.07-.41-.37,0-.28.17-.37.41-.37h2.25c-.04-1.48-.09-3.07-.21-4.18-.02-.22.07-.3.38-.3,1.09,0,2.1.17,2.1.58,0,.32-.34.49-.99.66-.02.9-.04,2-.06,3.24h.17c.36-.58.77-1.16,1.01-1.16.36,0,1.35,1.1,1.35,1.5v.02h.07c.28.02,1.16.34,1.59.67h4.16c-.08-.09-.09-.24,0-.43.32-.71.58-1.42.75-2.25.02-.11.09-.21.19-.24h-6.89c-.24,0-.41-.07-.41-.37,0-.28.17-.37.41-.37h4.27c.02-.58,0-1.24-.04-1.7-.02-.19.09-.28.26-.28.32,0,1.89.07,1.89.52,0,.32-.36.45-.88.56v.9h2.79c.38-.56.84-1.2,1.12-1.2.38,0,1.69,1.09,1.69,1.54,0,.26-.32.41-1.01.41h-3.03c.64.19,1.59.73,1.59,1.05,0,.28-.28.37-.86.36-.34.47-.75,1.03-1.27,1.46l-.08.06h2.4Zm-2.79,5.19c.22-.32.52-.67.69-.67.3,0,1.24.71,1.24,1.09,0,.19-.21.34-.43.43-.02.67-.02,2.23-.02,2.62,0,.58-.24.71-.71.71-.43,0-.52-.34-.52-.64v-.26h-2.36v.66c0,.39-.28.56-.77.56-.3,0-.47-.19-.47-.51,0-.88.09-2.86-.08-4.23-.02-.19.13-.3.3-.24.3.07.71.28,1.01.49h.64v-1.55h-2.3c-.24,0-.41-.07-.41-.37,0-.28.17-.37.41-.37h2.3c0-.67-.02-1.27-.06-1.65-.02-.19.07-.28.24-.28.32,0,1.61.09,1.61.47,0,.22-.24.36-.69.45v1.01h1.03c.32-.51.67-.99.88-.99.34,0,1.18,1.03,1.18,1.37,0,.28-.36.37-.62.37h-2.47v1.55h.38Zm-3.37-6.4c-.09-.34-.22-.71-.36-1.05-.13-.36.11-.66.52-.41.81.45,1.57,1.16,1.39,1.93-.09.45-.47.69-.94.6-.43-.11-.51-.56-.62-1.07Zm3.63,8.93l.02-1.78h-2.38c-.02.34-.04,1.25-.04,1.61v.17h2.4Z"/>
      <path class="cls-1" d="m75.91,149.5c0,.41-.21.66-.58.66-.43,0-.96-.47-1.83-1.05-.96,2-2.7,3.52-6.61,3.97-.65.07-.79-.6-.13-.73,3.67-.73,4.96-2.38,5.58-3.89-1.09-.6-2.6-1.29-4.94-1.39-1.07,1.91-2.21,4.61-3.69,4.61-1.25,0-2.02-2.08-1.42-3.41.49-1.09,1.93-2,4.46-2.17,1.09-1.83,2.27-3.41,2.85-4.25.36-.54.09-.79-.39-.64-1.14.36-2.73,1.67-3.44,1.67-.81,0-1.76-.95-1.76-1.91,0-.32.24-.39.49-.21.39.28.81.54,1.27.54.79,0,3.39-1.22,4.12-1.22.82,0,1.87.66,1.87,1.18s-.66.94-1.37,1.67c-.64.66-1.55,1.8-2.4,3.15,1.61.07,3.39.56,4.79,1.09.08-.32.06-.52.02-.71-.11-.47-.38-.49-.38-1.03,0-.19.13-.45.69-.43.67.02,1.1.54,1.14,1.03.02.34,0,.67-.06,1.03.06.6.21.86.97,1.37.45.3.75.58.75,1.09Zm-9.74-2.42c-1.52.13-2.73.75-3.05,1.5-.3.73.02,1.52.56,1.52.88,0,1.72-1.63,2.49-3.01Z"/>
      <path class="cls-1" d="m64.36,176.16c0,1.35.49,1.87.49,2.53,0,.49-.22.75-.77.75-.75,0-1.27-1.55-1.27-2.9,0-3.33,1.46-5.86,1.46-7.71,0-.92-.37-1.35-.82-2.19-.19-.36.02-.58.45-.41.79.32,1.44.9,1.7,1.57.21.54.3.92.02,1.7-.49,1.35-1.01,2.19-1.2,3.09-.08.37.06.49.36.15.56-.64,1.29-1.48,2.55-2.3,1.54-1.01,3.18-1.52,4.77-1.52s2.43.6,2.43,1.05c0,.36-.19.52-.69.82-.67.41-1.67.99-2.36,1.4-.43.26-.77-.11-.43-.45.32-.32.71-.69.97-.99.36-.43.26-.64-.47-.66-.86-.02-2.42.32-3.82,1.16-2.1,1.25-3.37,3.2-3.37,4.91Zm8.18.79c.94,0,1.72-.07,2.29-.07.43,0,.94.09.94.62,0,.75-1.24.95-2.85.95-2.7,0-4.91-1.4-5.36-3.89-.09-.52.49-.6.66-.24.6,1.27,1.65,2.64,4.32,2.64Z"/>
      <path class="cls-1" d="m13.8,13.09c.88,1.18,2.12,2.15,3.84,2.79.6.19.41.43.04.58-.53.21-.66.36-.81.58-.19.28-.34.47-.88.21-1.35-.77-2.32-1.74-3.05-2.88-1.12,1.39-2.66,2.45-4.46,3.09-.51.17-.77-.32-.26-.64,1.74-.95,3.13-2.06,4.12-3.58-.75-1.63-1.11-3.54-1.27-5.58-.39.62-.84,1.22-1.39,1.8-.28.37-.79.22-.56-.24.47-.79.88-1.59,1.22-2.4-.11.15-.39.22-.75.22H.41c-.24,0-.41-.07-.41-.37,0-.28.17-.37.41-.37h2.64c.02-.73.02-1.57.02-2.42H.96c-.24,0-.41-.07-.41-.37,0-.28.17-.37.41-.37h2.12c-.02-.92-.06-1.74-.11-2.23-.02-.17.09-.26.26-.26.32,0,1.87.13,1.87.56,0,.3-.32.45-.8.54v1.39h1.74c0-.94-.04-1.74-.09-2.23-.02-.17.09-.26.26-.26.34,0,1.89.13,1.89.56,0,.32-.3.45-.79.54v1.39h.52c.34-.51.75-1.03.97-1.03.34,0,1.4,1.01,1.4,1.4,0,.26-.3.37-.8.37h-2.1v2.42h.66c.36-.52.77-1.09,1.01-1.09.36,0,1.42,1.05,1.42,1.44v.04c.79-1.87,1.25-3.82,1.46-5.88.02-.15.11-.26.39-.24.67.06,1.89.43,1.91.79.02.3-.32.43-.88.45-.24.96-.51,2.02-.9,3.09h2.7c.36-.54.81-1.14,1.07-1.14.36,0,1.52,1.07,1.52,1.48.02.28-.36.41-.88.41h-.8c.13.07.22.17.22.28,0,.21-.24.37-.71.49-.24,2.77-.69,4.85-1.65,6.61l-.04.07Zm-7.13-4.42c.28-.36.67-.79.8-.79.45,0,1.55.95,1.55,1.29,0,.24-.34.43-.71.58-.04,1.48,0,3.88-.02,5.92,0,1.12-.79,1.59-1.54,1.59s-.28-.67-1.2-1.01c-.37-.17-.32-.62.04-.62.13,0,.64.06.88.06.39,0,.54-.15.58-.6.02-.26.02-.6.02-.95h-3.73l.02,2.73c0,.41-.26.62-.8.62-.32,0-.49-.19-.49-.52.02-1.55.15-6.83-.06-8.84-.02-.13.11-.26.26-.22.34.04,1.31.41,1.67.77h2.71Zm-3.26.75c-.04.37-.04.97-.06,1.57h3.75v-1.57h-3.69Zm3.69,3.97v-1.65h-3.75v1.65h3.75Zm-2.81-7.1h1.76v-2.42h-1.76v2.42Zm7.81-.66c-.13.28-.24.56-.38.84.19,1.97.54,3.82,1.35,5.39.66-1.61.99-3.54.97-6.16v-.07h-1.95Z"/>
      <path class="cls-1" d="m14.21,34.86c.41-.62.97-1.35,1.27-1.35.39,0,1.82,1.16,1.82,1.65,0,.26-.34.45-1.09.45h-5.75c.06.06.08.11.08.17,0,.26-.32.37-.6.47l-.04,4.18c0,.97-.62,1.33-1.29,1.33s-.41-.62-1.72-.95c-.45-.11-.37-.66.02-.64.37.04,1.05.11,1.27.11.37,0,.49-.15.51-.52.04-.88,0-3.18-.08-4.14H.96c-.24,0-.41-.07-.41-.37,0-.28.17-.37.41-.37h3.5c.02-1.52,0-3.61-.11-4.51-.02-.17.09-.26.26-.26.32,0,2.15.06,2.15.54,0,.41-.41.56-.99.69v3.54h2.9c.04-1.91.02-4.79-.11-5.9-.02-.17.09-.26.26-.26.32,0,2.13.06,2.13.54,0,.39-.41.54-.99.67v1.72h2.6c.41-.6.92-1.29,1.22-1.29.39,0,1.76,1.14,1.76,1.61,0,.26-.38.43-1.05.43h-4.53v2.47h4.25Zm-12.41,6.67c-.45.26-.81-.09-.47-.51,1.44-1.31,2.75-2.81,3.39-4.42.08-.19.19-.28.38-.22.66.22,1.74.92,1.7,1.29-.02.28-.37.37-.9.24-.9,1.16-2.28,2.6-4.1,3.61Zm13.01-.86c-.09.28-.56.24-1.07.06-2.75,2.86-5.94,4.55-11.05,4.89-.6-.02-.6-.64,0-.71,4.25-.69,7.26-1.91,10.24-5.6.15-.15.32-.17.52-.06.67.39,1.46,1.07,1.35,1.42Zm1.85-1.63c.15.54-.07.95-.56,1.09-.37.09-.62-.07-.9-.39-.26-.34-.58-.88-1.05-1.37-.39-.43-.82-.82-1.27-1.18-.26-.22-.08-.64.32-.56,2.06.43,3.22,1.55,3.46,2.42Z"/>
      <path class="cls-1" d="m1.2,61.7c.39.09.64.19,1.05.19.67,0,1.97-1.27,3.03-2.23.73-.66,1.22-1.01,1.78-1.01.49,0,1.05.26,1.63.82,1.01.97,2.47,2.45,3.63,3.2,1.42.92,2.88.92,3.99,1.24.45.13.8.51.8.9,0,.47-.56.71-1.35.71-1.35,0-3.11-.6-4.57-1.82-1.05-.88-2.38-2.49-3.22-3.43-.34-.37-.6-.62-.9-.62-.26,0-.54.15-1.09.73-.56.6-1.72,2.02-2.21,2.51-.51.51-.82.69-1.31.69-.73,0-1.52-.88-1.69-1.4-.13-.43.06-.56.41-.49Z"/>
      <path class="cls-1" d="m6.98,79.56c.86,0,1.91.52,1.91,1.44,0,.69-.6,2.75-.6,3.95,0,.75.17,1.14.71,1.12s.94-.47,1.87-.49c.77-.02,1.44.32,1.44.79,0,.58-.69.86-1.65.94-.49.04-1.25.06-1.85.11-1.55.15-2.83,1.4-2.75,3.09.08,1.76,1.46,2.04,3.11,2.04,1.4,0,2.41-.45,3.11-.45.64,0,1.1.28,1.1.69,0,.94-2.15,1.24-4.21,1.24-1.82,0-4.23-.66-4.31-3.01-.06-2.1,1.03-3.46,2.94-4.38-.43-.52-.67-.82-.67-1.61,0-.88.09-2.71.09-3.43,0-.56-.09-.79-.41-.99-.39-.24-.69-.34-.69-.58,0-.26.49-.47.86-.47Z"/>
      <path class="cls-1" d="m14.88,120.6c.02-.45.04-.86.04-1.16,0-.45-.02-2.36-.13-3.22-.02-.19.08-.28.26-.28.86,0,2.25.07,2.25.56,0,.32-.39.52-.99.64-.02.47-.02,2.08-.02,2.42,0,.56.06,2.45.06,2.85s-.41.51-.96.51c-.32,0-.58-.15-.58-.49,0-.17.02-.58.04-1.07H3.07c0,.52.02,1.01.02,1.18,0,.41-.39.52-.94.52-.32,0-.56-.17-.56-.49,0-.43.09-2.32.09-3.07,0-.47,0-2.42-.11-3.28-.02-.19.07-.28.26-.28.82,0,2.19.07,2.19.54,0,.32-.37.52-.97.64-.02.47-.02,2.13-.02,2.49,0,.19,0,.56.02.99h5.04c.02-1.31.06-4.06.06-6.8H3.82l.02.9c0,.41-.39.51-.94.51-.32,0-.58-.15-.58-.47,0-.43.11-2.15.11-2.9,0-.43,0-2.3-.13-3.15-.02-.19.07-.28.26-.28.84,0,2.23.07,2.23.56,0,.32-.37.52-.99.64-.02.45,0,2.02,0,2.34,0,.22,0,.66.02,1.1h4.33c0-2.86-.04-5.56-.15-6.42-.02-.17.09-.26.26-.26.32,0,2.28.06,2.28.54,0,.41-.41.56-.99.69v5.45h4.53c.02-.49.04-.97.04-1.31,0-.43,0-2.23-.11-3.05-.02-.19.07-.28.26-.28.84,0,2.23.07,2.23.56,0,.32-.38.52-.97.64-.02.43-.02,1.95-.02,2.27,0,.54.06,2.3.06,2.68,0,.39-.41.51-.96.51-.32,0-.58-.15-.58-.49,0-.13.02-.43.02-.77h-4.49v6.8h5.34Z"/>
      <path class="cls-1" d="m11.42,143.04c0,2.15-1.18,5.17-3.18,5.17-1.01,0-2.1-1.29-2.53-2.38-.11-.28.08-.56.43-.28.43.34,1.16,1.09,1.95,1.09,1.31,0,2.15-2.3,2.15-4.03,0-1.18-.19-2.32-1.46-2.32-.28,0-.66.06-1.09.15-1.03,2.49-3.28,6.67-4.42,8.03-.43.51-.67.67-1.05.67-.43,0-.62-.34-.62-.73s.22-.73.69-1.27c1.23-1.46,3.07-4.08,4.1-6.35-1.33.36-2.79.8-3.5.8-.92,0-1.59-.99-1.59-1.89,0-.43.24-.51.6-.24.49.36.88.75,1.61.75.79,0,2.12-.3,3.31-.52.47-1.27.67-2.1.67-2.58,0-.39-.24-.6-.66-.82-.73-.37-.82-.51-.82-.66,0-.24.47-.41,1.01-.41.96,0,2.19.56,1.97,1.5-.17.69-.54,1.74-.92,2.75.26-.04.5-.06.71-.06,1.87,0,2.62,1.12,2.62,3.63Zm5.86,1.52c0,.81-.39,1.27-.94,1.27s-.71-.36-.79-1.89c-.09-1.72-.75-2.81-2.13-3.58-.41-.22-.19-.62.24-.56,2.21.32,3.61,2.34,3.61,4.76Z"/>
      <path class="cls-1" d="m15.88,167.13c-.71.37-1.55.58-2.57.75.13,1.46.13,2.88-.11,4.19-.3,1.67-.94,3.88-4.33,4.79-.39.11-.58-.32-.21-.54,2.42-1.42,3.11-2.73,3.37-4.91.17-1.31.13-2.43.08-3.39-1.03.09-2.17.11-3.11.11-.56,0-.88.26-1.18.64-.62.79-2.49,3.8-2.49,4.76,0,1.14.47,1.59.21,2.02-.17.28-.77.22-1.2-.19-1.01-.97-1.5-2.51-1.5-3.97,0-2.43.86-4.06,1.2-6.25.21-1.25-.11-1.5-.75-2.58-.15-.26.04-.51.39-.37,1.48.52,2.43,1.82,1.82,3.35-.38.94-1.55,3.46-1.55,5.24,0,.45.04.94.11,1.24.07.28.28.41.56.02.67-.86,1.72-2.68,2.51-3.67.52-.67.8-1.16,1.61-1.2.94-.04,2.3-.15,3.29-.3-.07-.94-.26-2.28-.82-2.92-.45-.52-.88-.73-.88-1.1,0-.24.21-.43.62-.43,1.29,0,1.67.36,1.85,1.55.09.56.17,1.12.24,1.69.22.36.47.47.8.54.47.09,1.24-.21,1.74-.21.79,0,.97.79.28,1.14Z"/>
      <path class="cls-1" d="m13.89,199.03c0,2.45-2.13,3.84-4.75,3.84-1.59,0-2.81-.66-2.81-1.95,0-1.07.84-1.7,1.87-1.7,1.33,0,2.38.86,2.62,2.17.92-.37,1.67-1.14,1.67-2.62s-1.14-2.58-2.71-2.58c-1.18,0-1.97.36-2.62.9-.99.84-1.55,1.5-2.04,1.93-.49.41-.97.43-1.18,0-.21-.39-.06-.92.51-1.48.81-.77,2.64-2.12,3.65-2.98,1.1-.97,2.51-2.3,3.01-3.22.22-.39.08-.6-.22-.6-1.09,0-4.14,2.12-5.11,2.12-.92,0-1.89-1.12-1.89-2.02,0-.45.22-.56.54-.32.37.3.94.75,1.37.75.67,0,2.43-.64,3.91-1.12.56-.21.99-.34,1.42-.34.97,0,2,1.01,2,1.63,0,.54-.88,1.03-1.4,1.44-1.29.97-2.34,1.83-3.35,2.71,3.11-.62,5.52.92,5.52,3.45Zm-4.44,2.66c-.08-1.1-.62-1.7-1.39-1.7-.54,0-.86.28-.88.77-.02.64.81.95,1.68.95.19,0,.39,0,.58-.02Z"/>
      <path class="cls-1" d="m12.09,217.75c0-1.44,1.18-2.62,2.62-2.62s2.62,1.18,2.62,2.62-1.18,2.62-2.62,2.62-2.62-1.18-2.62-2.62Zm4.34,0c0-.95-.77-1.72-1.72-1.72s-1.72.77-1.72,1.72.77,1.72,1.72,1.72,1.72-.77,1.72-1.72Z"/>
    </g>
  </g>
</svg>