<?xml version="1.0" encoding="UTF-8"?>
<svg id="_レイヤー_2" data-name="レイヤー 2" xmlns="http://www.w3.org/2000/svg" viewBox="0 0 137.72 293.44">
  <defs>
    <style>
      .cls-1 {
        fill: #251e1c;
        stroke-width: 0px;
      }
    </style>
  </defs>
  <g id="_レイヤー_1-2" data-name="レイヤー 1">
    <g>
      <path class="cls-1" d="m135.75,7.3c0,.75-.36,1.22-.94,1.22-.66,0-.67-1.2-.88-2.19-.32-1.52-1.1-2.81-2.19-2.81-1.39,0-2.9,3.59-3.99,5.56-.67,1.22-.97,1.63-1.8,1.63-1.57,0-3.2-1.91-3.2-4.06,0-1.5.21-2.08.21-2.92,0-.99-.26-1.29-1.12-2.28-.26-.3-.06-.56.34-.49,1.22.23,2.38,1.35,2.38,2.25,0,.95-.67,2.1-.67,3.33,0,1.72,1.16,2.53,1.91,2.53.52,0,1.07-.88,1.63-1.74,1.76-2.7,2.9-4.72,4.44-4.72.94,0,1.68.41,2.32,1.09.94.97,1.57,2.4,1.57,3.61Z"/>
      <path class="cls-1" d="m123.05,25.2c.43,0,.94-.17,1.29-.34,1.83-.88,4.21-2.55,6.83-2.55,2.9,0,4.85,2.06,4.85,4.27,0,4.19-4.53,5.58-9.36,5.15-.62-.06-.62-.69,0-.73,3.97-.24,7.86-1.27,7.86-4.61,0-1.54-1.05-3.22-3.29-3.22s-4.21,1.67-5.07,2.25c-.77.52-2.23,1.52-2.94,1.48-.82-.04-1.61-.73-1.82-1.55-.09-.37-.09-.75-.04-1.01.06-.28.38-.36.54-.15.24.28.67,1.01,1.14,1.01Z"/>
      <path class="cls-1" d="m134.21,54.53c0,2.21-1.78,3.97-4.81,3.97-1.55,0-3.28-.9-3.28-2.88,0-.47.04-.99.09-1.55-1.52-.43-3.31-1.27-3.31-2.47,0-.88,1.24-1.91,1.65-2.49.32-.45.3-.69,0-1.2-.24-.41-.64-.77-1.24-1.37-.24-.24-.07-.58.34-.47,1.22.34,2.36,1.24,2.68,2.25.19.6.04.99-.66,1.4-.73.43-1.91,1.18-1.91,1.7,0,.58,1.31,1.05,2.64,1.31.22-1.42.52-2.83.71-3.73.21-1.03.51-2.55.51-3.31,0-.54-.3-.8-.92-1.22-.36-.24-.75-.45-.75-.67,0-.19.36-.39.79-.39.99,0,2.45.88,2.45,2,0,.6-.54,2.32-.88,3.76-.21.86-.54,2.32-.8,3.71,1.91.21,2.25.37,2.25.77,0,.34-.19.73-1.27.73-.34,0-.75-.02-1.2-.07-.06.43-.09.82-.09,1.16,0,1.46,1.01,1.85,2.15,1.85,2.51,0,3.41-1.48,3.41-3.03,0-2.06-2.15-3.37-3.22-4.06-.49-.32-.3-.79.26-.62,2.12.64,4.42,2.45,4.42,4.92Z"/>
      <path class="cls-1" d="m123.28,86.79c0,.43-.26.64-.84.64-.34,0-.5-.19-.5-.54,0-1.27.11-6.68.04-9.77-.49.82-1.07,1.63-1.74,2.38-.38.45-.84.15-.54-.36,1.72-2.73,2.9-5.77,3.2-8.43.04-.21.09-.32.32-.28.69.09,2,.64,2,1.05.02.32-.36.43-.9.37-.3.9-.69,2-1.24,3.16.47.19.97.49.97.73s-.32.37-.73.43c-.06.97-.06,4.18-.06,4.81l.02,5.8Zm2.34-8.11c0,.17,0,.34-.02.51-.15.97-.69,1.46-1.35,1.46-.38,0-.6-.24-.6-.56,0-.47.52-.71.86-1.24.22-.36.26-.84.32-1.25.04-.43.58-.43.67-.06.02.13.06.26.08.39h1.16c.02-1.29.02-3.61-.13-4.74-.04-.22.07-.36.37-.26.3.07.73.26,1.09.47h1.46c.08-.37.17-.77.19-1.14h-4.06c-.24,0-.41-.08-.41-.37,0-.28.17-.37.41-.37h8.33c.38-.56.86-1.2,1.14-1.2.37,0,1.68,1.09,1.68,1.54,0,.26-.32.41-1.01.41h-4.19v.04c-.02.19-.26.3-.67.34-.15.26-.3.52-.49.77h2.43c.24-.3.51-.62.67-.62.34,0,1.31.77,1.31,1.16,0,.24-.28.45-.56.58-.02.77-.04,2.49-.02,3.41h1.05c.26-.34.58-.66.75-.66.26,0,1.29.99,1.29,1.42,0,.28-.6.41-1.09.47-.34.23-.6.39-.97.64-.3.19-.6-.11-.43-.41.15-.26.28-.51.38-.71h-9.64Zm6.89,3.95c.24-.3.52-.58.69-.58.34,0,1.33.97,1.33,1.31,0,.26-.47.41-.94.54-.41.51-.99,1.01-1.65,1.42,1.5.43,3.2.52,4.98.47.54-.02.56.34.09.62-.24.15-.37.32-.51.52-.13.21-.36.34-.77.32-1.83-.07-3.56-.49-5-1.24-1.4.66-3.24,1.18-5.9,1.4-.58.06-.62-.54-.09-.64,2.12-.36,3.8-.84,4.98-1.39-.67-.49-1.24-1.05-1.72-1.72-.95,1.07-2.13,1.98-3.56,2.71-.43.24-.73-.17-.39-.51,1.57-1.18,3.22-2.56,3.93-4.33.02-.06.04-.09.08-.13-.17-.19-.22-.45-.22-.79v-1.33c0-.26.04-.32.3-.32s1.29.08,1.29.37c0,.15-.15.3-.54.34v.51c0,.62.06.73,1.67.73,1.07,0,1.37-.09,1.52-.49.09-.26.19-.51.24-.69.09-.32.39-.32.49.02.06.19.08.32.13.54.11.41.36.41.36.67,0,.39-.71.86-2.7.86-.37,0-.69,0-.97-.02.06.06.09.13.09.19,0,.22-.15.37-.71.41l-.13.19h3.63Zm-5.35-3.16c.19,1.03-.32,2.06-.96,2.23-.41.11-.81-.02-.86-.39-.08-.45.34-.69.66-.97.36-.32.49-.66.64-.96.17-.34.45-.32.52.09Zm.84-3.84l-.02.77h5.11l.02-.77h-5.11Zm-.02,2.3h5.09l.02-.79h-5.11v.79Zm.36-3.78c-.09.04-.21.06-.34.08v.66h5.11v-.73h-4.77Zm.39,9.23c.56.64,1.22,1.12,1.97,1.48.71-.49,1.24-.97,1.59-1.48h-3.56Zm1.22-4.59c1.18.11,1.57.64,1.57,1.12,0,.3-.24.51-.6.51-.54,0-.75-.62-1.18-1.22-.19-.26,0-.43.21-.41Zm5.35,1.97c-.04.43-.28.66-.71.66s-.56-.54-.79-.92c-.17-.32-.41-.69-.52-.86-.21-.34-.02-.51.34-.43.99.21,1.72.99,1.68,1.55Z"/>
      <path class="cls-1" d="m124.35,99.41c.67-.02,1.63.3,2.1.73.39.36.45.66.47,1.24.04,1.03-1.18,5.94-1.05,8.33.09,1.74,1.24,2.08,2.45,2.08,3.18,0,4.77-1.93,6.03-3.71.36-.51.79-.28.62.26-.77,2.49-3.2,4.77-6.52,4.83-1.91.04-3.67-.52-3.76-3.54-.08-2.28.54-5.32.54-7.34,0-.67-.04-1.09-.36-1.37-.56-.51-1.31-.64-1.31-1.01,0-.19.34-.49.79-.51Z"/>
      <path class="cls-1" d="m130.86,125c.3.52.32.8-.43,1.52-1.22,1.16-3.11,2.92-3.97,3.84-.43.47-.67.77-.67,1.18,0,.28.24.66,1.05,1.25,1.09.81,2.42,1.83,3.28,2.64,1.09,1.01,1.54,1.89,1.54,2.71,0,.62-.39.88-.79.88-.26,0-.51-.17-.84-.81-.39-.75-.73-1.24-1.33-1.97-.66-.79-2.19-2.19-2.98-2.88-.58-.51-.97-1.03-.97-1.63,0-.66.38-1.25,1.03-2.04.77-.94,2.23-2.62,2.98-3.59.38-.49.49-.9.38-1.33-.09-.36-.21-.56-.24-.75-.06-.28.09-.45.47-.32.62.21,1.22.75,1.52,1.29Z"/>
      <path class="cls-1" d="m122.55,156.33c.26-.36.6-.77.81-.77.37,0,1.46.84,1.46,1.25,0,.26-.34.49-.69.62-.02,1.01-.04,3.37,0,4.44.82,1.03,1.83,1.48,3.89,1.67,2.43.24,6.35.11,9.29-.15.54-.06.54.51.07.62-.34.09-.41.24-.54.52-.15.3-.24.37-.66.41-2.25.13-6.07.19-8.89-.26-2-.34-3.01-1.12-3.8-2.53-.66.88-1.35,1.7-1.98,2.51-.21.64-.49.66-.75.34-.22-.28-.52-.82-.66-1.22-.08-.24-.06-.34.22-.49.84-.43,1.78-1.03,2.51-1.65.02-1.05.04-3.54.04-4.57h-2.34c-.24,0-.41-.08-.41-.38,0-.28.17-.37.41-.37h2.02Zm-1.18-6.35c-.28-.39-.06-.8.49-.64,1.16.37,2.3,1.14,2.32,2.15,0,.56-.32.97-.88.97s-.75-.52-1.09-1.18c-.26-.49-.56-.92-.84-1.31Zm6.12,8.59c1.1-.34,2.08-.67,2.88-1.01.69-.24.9.24.3.66-1.16.8-2.79,1.54-4.61,2.23-.09.47-.28.92-.6.92-.39-.02-.67-.84-.8-1.83-.02-.17.06-.24.21-.26.47-.11.92-.22,1.35-.34.04-2.66.04-7.58-.11-9.02-.02-.17.09-.3.28-.26.24.04.88.32,1.31.62.64-.51,1.25-1.05,1.8-1.67.11-.11.26-.19.49-.06.56.39,1.24,1.03,1.11,1.31-.09.24-.32.26-.86.09-.81.49-1.78,1.03-2.73,1.39v7.25Zm5.56-7.79c-.09.02-.19.04-.3.06-.08,1.07-.08,4.57-.08,5.21,0,.58.04,5.71.04,6.37,0,.41-.28.64-.86.64-.36,0-.52-.19-.52-.54,0-2.02.21-10.41-.08-12.92-.02-.13.11-.26.26-.26.26.02,1.25.36,1.72.71h1.67c.28-.34.6-.69.73-.69.47,0,1.65,1.01,1.65,1.37,0,.24-.36.43-.75.58-.06,2.08-.02,5.5-.04,8.28,0,1.16-.99,1.63-1.72,1.63s-.28-.73-1.48-1.09c-.39-.13-.32-.6.04-.6.15,0,.84.08,1.18.08.45,0,.64-.17.67-.66.06-.96.04-2.75.04-4.06v-4.08h-2.17Z"/>
      <path class="cls-1" d="m135.56,191.11c0,.79-1.35.97-2.3.97-1.7,0-2.96-.21-3.73-1.83-.58-1.22-.92-2.28-1.87-2.36-.52-.04-.96.37-1.68,1.14-1.57,1.63-1.91,2.47-2.85,2.47-.34,0-.64-.3-.64-.6,0-.81,1.35-1.7,3.22-3.31,1.1-.96,3.09-2.71,3.86-3.59.41-.47.28-.67-.06-.67-.49,0-2.58.84-3.84,1.39-.56.24-.86.37-1.27.37-.52,0-.84-.43-1.12-.99-.13-.26-.15-.77-.04-1.07.09-.24.24-.3.5-.11.32.22.66.6,1.1.62.96.04,2.96-.69,4.04-1.03.43-.13.88-.43,1.29-.43.84,0,1.87.67,1.87,1.25,0,.45-.56.77-1.03,1.1-1.35.97-2.58,2-3.31,2.66,1.93.11,2.15,1.35,2.85,2.43.49.75,1.01,1.05,2.02,1.05.73,0,1.46-.21,1.87-.21.62,0,1.1.37,1.1.75Zm-9.49-13.63c.75-.09,1.98.06,2.66.34,1.09.45,1.57,1.03,1.57,1.67,0,.22-.17.45-.66.66-.49.21-1.31.47-1.97.56-.28.04-.36-.21-.21-.39.21-.24.43-.52.58-.75.15-.24.17-.39-.11-.66-.39-.36-1.39-.67-1.91-.82-.41-.13-.41-.54.04-.6Z"/>
      <path class="cls-1" d="m122.57,208.84c.51.06,1.07-.07,1.8-.36,1.16-.45,3.29-1.29,5.28-2.02,1.42-.52,2.94-.9,4.27-.9.73,0,1.61.32,1.61.86,0,.41-.24.67-.9.67-.77,0-1.55-.17-2.4.15-1.91.71-3.41,3.44-3.41,5.84,0,2.85,2.02,3.46,4.49,3.16.79-.09,1.18.15,1.16.6-.02.66-.66.9-1.57.97-3.16.26-5.3-1.33-5.3-4.33,0-2.21.94-3.95,2.36-5.69.34-.41.17-.51-.24-.39-1.4.38-3.33,1.48-4.74,2.23-.56.3-1.4.84-2.04.82-1.16-.04-2.19-.94-2.19-2,0-.26.17-.38.43-.22.26.15.9.54,1.38.6Z"/>
      <path class="cls-1" d="m130.86,229.22c.3.52.32.8-.43,1.52-1.22,1.16-3.11,2.92-3.97,3.84-.43.47-.67.77-.67,1.18,0,.28.24.66,1.05,1.25,1.09.81,2.42,1.83,3.28,2.64,1.09,1.01,1.54,1.89,1.54,2.71,0,.62-.39.88-.79.88-.26,0-.51-.17-.84-.81-.39-.75-.73-1.24-1.33-1.97-.66-.79-2.19-2.19-2.98-2.88-.58-.51-.97-1.03-.97-1.63,0-.66.38-1.25,1.03-2.04.77-.94,2.23-2.62,2.98-3.59.38-.49.49-.9.38-1.33-.09-.36-.21-.56-.24-.75-.06-.28.09-.45.47-.32.62.21,1.22.75,1.52,1.29Z"/>
      <path class="cls-1" d="m122.4,266.24c-.32.5-.6.66-.88.66-.3,0-.58-.3-.58-.71s.22-.82.47-1.16c.39-.54,1.01-1.33,1.67-2.21-.39-.66-.82-1.27-1.16-1.63-.45-.47-.71-.75-.71-1.44,0-.6.37-1.05.86-1.46.94-.81,2.96-1.57,3.73-1.57.13,0,.24,0,.36.04-.06-.9-.13-1.7-.21-2.13-.11-.64-.36-.73-.73-.88-.43-.17-.84-.3-.84-.54s.43-.52,1.09-.52c1.4,0,1.76.22,1.76,1.24,0,.64-.04,2.12-.06,3.37.07.09.13.19.17.3,1.57-1.29,2.94-2.13,4.47-2.13s2.13.99,2.13,2.19c0,1.82-.92,3.93-.94,5.54,0,1.11.41,1.63,1.24,1.63,1.18,0,2.13-.36,2.85-.67.34-.15.52.15.32.41-.52.73-1.95,1.63-3.3,1.63-1.83,0-2.49-1.55-2.49-2.86,0-1.7,1.03-3.97,1.03-5.77,0-.73-.39-1.29-1.14-1.29-1.5,0-3.2,1.44-4.4,2.79-.08,2.94-.15,6.14-.43,7.19-.17.64-.47.99-.96.99-.36,0-.52-.39-.66-.96-.09-.41-.37-.88-.75-1.39-.11-.17-.3-.49-.52-.86l-1.39,2.23Zm1.12-4.01c1.03-1.4,2.06-2.9,2.42-3.89.11-.32-.02-.49-.41-.37-.49.13-3.28.97-3.28,1.93,0,.32.6,1.33,1.27,2.34Zm.71,1.03c.36.47.67.86.9,1.1.32.34.54.43.69-.15.24-.94.36-2.51.39-4.1-.26.39-.52.79-.69,1.05l-1.29,2.1Z"/>
      <path class="cls-1" d="m126.93,288.29c-.58.47-1.24,1.24-1.68,1.91-.43.66-1.1,1.89-1.31,2.19-.19.28-.54.64-1.03.64-.34,0-.69-.3-.69-.75s.24-.86.56-1.29c.81-1.09,1.72-2.3,2.47-3.58.71-1.2,1.31-2.58,1.65-3.43-1.01.13-1.95.22-2.73.21-.8-.02-1.18-.13-1.57-.51-.47-.43-.79-1.07-.79-1.57,0-.3.21-.41.47-.21,1.12.88,1.63,1.07,2.77,1.09.75.02,1.54-.08,2.27-.19.22-.69.37-1.31.43-1.67.09-.66.04-.81-.36-1.03-.51-.28-.86-.37-.86-.62,0-.26.45-.49,1.1-.49.8,0,1.87.49,1.87.99,0,.3-.3,1.03-.96,2.6.92-.21,2.02-.56,2.77-.88.54-.22,1.07-.51,1.5-.51s.9.28.9.73c0,.36-.43.54-1.2.8-.75.26-3,.81-4.47,1.07-.51,1.18-1.2,2.58-1.83,4.04,2.23-1.72,4.77-2.42,6.74-2.21.9.09,1.65.52,1.65,1.03s-1.5,1.54-2.28,1.93c-.41.21-.64-.02-.41-.37.17-.26.34-.56.49-.9.19-.43.08-.6-.5-.64-1.7-.11-3.61.52-4.94,1.59Zm9.16,4.18c0,.64-1.07.97-2.68.97-2.71,0-5.13-.97-5.37-3.46-.04-.38.36-.47.52-.19,1.03,1.8,2.4,2.28,4.47,2.28.81,0,1.69-.09,2.15-.09.52,0,.9.11.9.49Z"/>
      <path class="cls-1" d="m67.58,6.78c-.02.58-.06,1.24-.11,1.93,1.39-.52,2.81-1.01,4.42-1.01,2.08,0,3.39,1.07,3.39,2.73,0,1.82-1.29,2.98-3.29,2.98-1.82,0-3.13-1.16-3.37-2.71-.08-.52.34-.66.6-.21.64,1.09,1.39,1.69,2.58,1.69,1.42,0,2.08-.82,2.08-1.87s-.96-1.72-2.15-1.72c-1.68,0-2.83.45-4.36,1.09-.15,1.22-.39,2.4-.73,3.18-.43,1.01-.88,1.54-1.48,1.54-.28,0-.69-.19-1.16-.58-.37-.32-.8-.67-1.35-1.18-.82-.77-.62-1.24.36-1.8s2.34-1.24,3.48-1.72c.09-.71.15-1.4.17-2.02,0-.36.02-.82.02-1.37-.82.17-1.63.28-2.25.28-1.14,0-1.46-.06-1.95-.34-.71-.41-1.22-1.37-1.22-2.02,0-.43.26-.58.64-.21.75.75,1.31,1.31,2.43,1.37.5.04,1.65-.11,2.32-.21-.04-.96-.15-1.93-.39-2.64-.19-.54-.36-.6-.9-.86-.24-.11-.45-.24-.45-.41,0-.26.52-.67.9-.67.3,0,.64.02,1.07.17.37.13.52.24.62.82.09.6.15,1.31.15,2.1.17.69.51.73.92.69.41-.04.84-.15,1.24-.15.34,0,.66.15.66.51,0,.22-.09.51-.52.69-.37.17-1.27.43-2.3.67l-.04,1.27Zm-1.31,3.37c-1.18.58-2.3,1.29-2.68,1.59-.21.17-.24.26,0,.51.21.21.5.36.71.43.41.15.73.13.94-.13.47-.56.8-1.44,1.03-2.4Zm10.73-4.23c-.19.66-.8.69-1.25.36-.9-.67-1.57-1.16-3.35-1.09-.41.02-.51-.39-.11-.58,1.35-.64,3.03-.6,4.1.13.49.34.75.71.62,1.18Z"/>
      <path class="cls-1" d="m72.1,38.68c-.32,1.8-1.54,2.38-2.96,2.38-1.24,0-2.34-.81-2.34-1.93,0-1.44,1.35-2.32,3.16-2.32.47,0,.94.04,1.35.11.06-.51.06-.94.06-1.33,0-1.03-.09-2.25-.22-3.33-3.13.47-5.71,1.89-6.96,4.1-.34.6-.6,1.24-.6,2.02,0,1.29.54,2.21.54,2.81,0,.56-.28.75-.64.75-.51-.02-.82-.37-1.09-1.01-.26-.66-.41-1.35-.41-2.92,0-2.58,1.1-5.99,1.27-6.85.17-.86.19-1.37-.13-2.06-.23-.51-.49-.9-.6-1.14-.17-.34.08-.51.39-.39.77.26,1.54.95,1.78,1.59.21.54.26.88.04,1.69-.32,1.16-1.29,2.94-1.48,4.51-.06.49.04.6.52,0,1.65-2.04,3.56-3.46,7.19-4.27-.04-.36-.09-.66-.15-.9-.11-.56-.36-.75-.64-.94-.49-.28-.73-.43-.73-.66-.02-.28.64-.51,1.05-.52.38,0,.66.04.96.15.34.13.43.32.45.54.02.3.04.73.08,1.16.19.73,1.14.69,1.67.69.75,0,1.42.21,1.42.71,0,.41-.26.64-1.07.67-.62.02-1.24.06-1.85.13.08,1.05.15,2.28.15,3.03,0,.69,0,1.33-.04,1.98,1.31.39,2.34,1.09,3.03,1.72.51.49.84,1.05.84,1.63,0,.36-.19.62-.56.62-.43,0-.92-.6-1.52-1.24-.52-.54-1.18-1.09-1.93-1.48l-.04.28Zm-.94-.71c-.5-.17-1.05-.26-1.63-.26-.95,0-1.76.47-1.76,1.12s.52.94,1.35.94c1.14,0,1.76-.54,2.04-1.78v-.02Zm1.89-9.92c-.22-.22-.09-.52.22-.51,1.22.09,2.53.92,2.53,1.8,0,.43-.32.66-.64.66-.43,0-.56-.32-.99-.82-.32-.37-.75-.77-1.12-1.12Zm4.34-.47c0,.39-.24.66-.62.66-.28,0-.47-.15-.82-.54-.41-.45-.97-.86-1.38-1.16-.3-.22-.17-.54.19-.54,1.2.02,2.64.64,2.64,1.59Z"/>
      <path class="cls-1" d="m68.17,58.03c1.44-.37,3.54-.97,4.53-.96.97.02,1.35.49,1.35.86,0,.47-.6.51-1.39.52-1.55.04-2.66.21-4.74.69-.15.82-.32,1.7-.38,2.36.71-.21,1.44-.32,2.21-.32.17,0,.34,0,.52.02-.04-.41-.13-.79-.28-1.14-.13-.32.15-.49.45-.28.28.21.58.47.8.88.11.21.19.43.21.75,2,.52,3.48,2.04,3.48,4.29,0,2.94-2.9,4.32-6.46,4.44-.39.02-.52-.52-.06-.6,2.55-.45,5.11-1.59,5.15-4.1.02-1.54-.86-2.64-2.21-3.15-.04.19-.08.39-.15.62-.32,1.07-1.1,2.83-2.53,4.19-1.37,1.31-3.07,2.1-4.25,2.1-.99,0-1.61-.54-1.61-2.15,0-1.46.88-3,1.97-3.99.5-.47,1.1-.84,1.74-1.16.04-.82.13-1.69.24-2.47-1.48.37-2.56.75-3.45.75-.94,0-1.68-1.07-1.76-1.8-.02-.26.19-.36.41-.22.45.26,1.12.75,1.78.75.84,0,1.97-.26,3.16-.56.11-.79.23-1.39.23-1.72,0-.32-.09-.41-.39-.58-.36-.21-.9-.36-.9-.64,0-.3.62-.45,1.1-.45.71,0,1.76.45,1.74,1.01,0,.32-.21.75-.43,1.65l-.11.41Zm-3.26,9.75c.67,0,1.5-.32,2.42-.99-.08-.08-.15-.17-.22-.28-.52-.96-.56-2.25-.58-3.63-.49.3-.9.66-1.27,1.03-.77.77-1.2,1.82-1.2,2.7,0,.97.32,1.18.86,1.18Zm5.35-5.75c-.21-.02-.45-.04-.67-.04-.77,0-1.44.13-2.06.37.04,1.42.22,2.56.6,3.35.06.11.09.21.13.3.88-.88,1.59-2.27,1.83-3.09.09-.3.15-.6.17-.9Z"/>
      <path class="cls-1" d="m66.97,86.32c.34-1.61.37-1.98-.28-2.28-.52-.24-.84-.36-.84-.58,0-.36.73-.62,1.42-.62.84,0,1.27.11,1.27.96,0,.66-.22,1.63-.43,2.47.88-.21,1.7-.52,2.36-.81.64-.28,1.07-.49,1.67-.49.54,0,.82.3.82.6,0,.37-.21.49-.64.69-.82.37-2.68.94-4.57,1.25-.51,1.78-.99,3.22-1.2,3.88-.09.3.06.39.36.21,1.09-.69,2.34-1.42,3.99-1.42,1.91,0,3.61,1.2,3.61,3.24s-2.25,4.18-7.45,3.59c-.64-.07-.71-.73.04-.75,4.14-.11,6.03-1.35,6.03-3.22,0-1.12-1.05-2.1-2.34-2.1-1.48,0-2.94,1.14-3.8,2-.62.62-1.14,1.27-1.59,1.27-.36,0-.73-.36-.73-.9,0-.47.26-.88.64-1.69.39-.88.94-2.43,1.35-3.95-.67.08-1.33.11-1.91.09-1.07-.04-1.95-.51-2.34-2.06-.09-.37.22-.56.52-.3.82.73,1.61,1.18,2.75,1.18.41,0,.84-.04,1.25-.09l.04-.19Z"/>
      <path class="cls-1" d="m76.97,113.97c0,1.59-1.39,2.71-3.3,2.71-1.68,0-2.66-1.27-2.85-2.28-.06-.39.36-.58.6-.26.56.79,1.18,1.33,2.1,1.33,1.35,0,2.17-.64,2.17-1.67s-.79-1.68-2.12-1.68c-1.18,0-2.79.82-4.32,1.63,1.38,2.27,2.38,4.68,2.38,5.94,0,.49-.32.82-.77.82-.36,0-.62-.24-.67-.6-.36-2.19-.67-3.74-1.87-5.67-1.16.6-2.27,1.12-2.77,1.12-.69,0-1.54-.81-1.54-1.5,0-.3.19-.41.47-.3.28.13.75.37,1.09.37.3,0,.9-.15,2.04-.64-.58-.66-1.2-1.14-1.2-1.93,0-.47.49-.86,1.14-.96.75-.11,2-.06,2.4-.15.15-.04.15-.11-.02-.32-.21-.21-.54-.43-.8-.6-.36-.26-.23-.62.24-.56,1.68.17,2.43,1.2,2.43,1.87,0,.43-.26.67-.71.67-.77,0-3.39-.37-3.39.09,0,.41.45.82.94,1.42,1.74-.79,3.43-1.54,5.24-1.54s3.09,1.07,3.09,2.66Z"/>
      <path class="cls-1" d="m76.76,142.89c-.82.96-2.53,1.85-4.77,1.85-1.57,0-3.09-.38-3.09-1.95,0-1.87,1.5-3.54,1.5-5.05,0-.56-.39-.71-1.03-.71-1.2,0-2.6,1.09-3.43,2.13-.45.58-.88,1.18-1.24,2.19-.47,1.35-.62,2.17-.75,2.7-.09.36-.39.64-.84.64s-.77-.34-.77-.88c0-1.2,1.72-4.42,2.55-5.95,1.38-2.57,2.71-4.96,2.71-5.62,0-.26-.49-.52-.81-.77-.43-.34-.26-.66.34-.66.84,0,1.87.19,2.36.66.36.34.39.54-.15,1.16-1.05,1.22-2.58,3.67-3.26,5.07,1.09-.82,2.32-1.65,3.74-1.65s1.93.82,1.93,1.78c0,1.27-1.4,2.87-1.4,4.59,0,.47.32,1.09,1.97,1.09,1.37,0,2.79-.49,4.01-1.14.52-.28.77.13.43.52Z"/>
      <path class="cls-1" d="m75.54,165.54c0,3.59-2.88,5.45-6.74,5.45-.66,0-.69-.58-.11-.69,3.24-.64,5.34-2,5.34-5.07,0-2-1.01-3.67-2.9-4.46-.06.71-.24,1.54-.52,2.3-1.09,3-4.21,6.72-6.46,6.72-.99,0-1.97-1.37-2.13-3.58-.19-2.36.73-4.1,1.97-5.2,1.1-.97,2.81-1.67,4.59-1.67,4.47,0,6.98,2.83,6.98,6.2Zm-5.47-5.11c-.49-.09-1.01-.15-1.57-.15-1.61,0-2.88.52-3.8,1.39-.99.94-1.59,2.26-1.48,4.12.09,1.44.6,2.32,1.14,2.32,1.8,0,4.49-3.65,5.37-6.16.19-.5.3-1.05.34-1.52Z"/>
      <path class="cls-1" d="m70.39,185.68c.04.06.06.13.04.19-.04.11-.17.19-.36.22.39,1.29.9,2.45,1.54,3.48,1.33-.9,2.34-1.76,3.28-2.94.11-.13.24-.22.45-.11.56.32,1.48,1.05,1.38,1.4-.07.32-.47.32-.97.11-.66.56-2.08,1.5-3.73,2.15,1.27,1.8,2.96,3.09,5.02,3.73.58.19.39.47.02.58-.49.17-.62.32-.8.56-.22.32-.39.43-.88.22-2.86-1.31-5.02-4.74-5.94-9.14h-.22c-.47.34-.95.66-1.44.96,1.48,1.33,2.42,3.13,2.42,5.79,0,3-1.25,3.8-2.4,3.82-.43,0-.56-.11-.8-.43-.26-.32-.52-.38-.99-.56-.47-.17-.43-.66.09-.6.43.04,1.09.11,1.68.09.64,0,1.22-.49,1.18-2.45,0-.22-.02-.45-.02-.66-.17.08-.41.04-.77-.13-1.57,1.37-4.29,3.15-7.4,3.99-.51.15-.73-.39-.21-.62,2.75-1.14,5.28-2.64,6.95-4.64.13-.15.24-.21.39-.09.34.21.71.5.96.79-.26-1.72-.94-2.77-1.83-3.84-1.67.97-3.44,1.72-5.47,2.25-.64.13-.73-.45-.19-.66,2.68-1.09,5.06-2.32,6.27-3.46h-3.93c-.24,0-.41-.07-.41-.37,0-.28.17-.37.41-.37h7.58c.39-.6.9-1.29,1.18-1.29.39,0,1.63,1.16,1.63,1.61,0,.28-.36.43-.94.43h-2.77Zm-7.3-2.9c0,.19.02.37,0,.56-.11,1.33-.84,2.34-1.85,2.32-.45.02-.77-.32-.77-.75,0-.82.92-.92,1.4-1.91.26-.47.26-1.09.28-1.61.02-.43.52-.49.67-.08.07.21.13.45.17.71h5c.02-.66,0-1.44-.06-2-.02-.19.09-.28.26-.28.32,0,2.13.06,2.13.56,0,.39-.41.54-.99.67v1.05h5.45c.32-.36.71-.71.92-.71.32,0,1.59,1.11,1.59,1.67-.02.37-.52.41-1.05.52-.54.47-1.18.94-1.61,1.25-.39.26-.75-.04-.5-.45.26-.45.52-1.03.71-1.54h-11.76Zm-1.7,9.06c2.12-.86,3.91-1.89,5.22-3.28.15-.15.24-.21.43-.08.58.34,1.18.88,1.07,1.2-.07.22-.34.28-.84.08-1.09.82-3.28,2.08-5.67,2.7-.52.13-.71-.39-.21-.62Z"/>
      <path class="cls-1" d="m72.29,219.96c-.32,1.8-1.54,2.38-2.96,2.38-1.24,0-2.34-.8-2.34-1.93,0-1.44,1.35-2.32,3.16-2.32.47,0,.94.04,1.35.11.06-.5.06-.94.06-1.33,0-1.03-.09-2.25-.22-3.33-3.13.47-5.71,1.89-6.96,4.1-.34.6-.6,1.24-.6,2.02,0,1.29.54,2.21.54,2.81,0,.56-.28.75-.64.75-.51-.02-.82-.37-1.09-1.01-.26-.66-.41-1.35-.41-2.92,0-2.58,1.1-5.99,1.27-6.85.17-.86.19-1.37-.13-2.06-.22-.51-.49-.9-.6-1.14-.17-.34.07-.51.39-.39.77.26,1.54.96,1.78,1.59.21.54.26.88.04,1.69-.32,1.16-1.29,2.94-1.48,4.51-.06.49.04.6.52,0,1.65-2.04,3.56-3.46,7.19-4.27-.04-.36-.09-.66-.15-.9-.11-.56-.36-.75-.64-.94-.49-.28-.73-.43-.73-.66-.02-.28.64-.51,1.05-.52.37,0,.66.04.96.15.34.13.43.32.45.54.02.3.04.73.08,1.16.19.73,1.14.69,1.67.69.75,0,1.42.21,1.42.71,0,.41-.26.64-1.07.67-.62.02-1.24.06-1.85.13.08,1.05.15,2.28.15,3.03,0,.69,0,1.33-.04,1.98,1.31.39,2.34,1.09,3.03,1.72.51.49.84,1.05.84,1.63,0,.36-.19.62-.56.62-.43,0-.92-.6-1.52-1.24-.52-.54-1.18-1.09-1.93-1.48l-.04.28Zm-.94-.71c-.51-.17-1.05-.26-1.63-.26-.96,0-1.76.47-1.76,1.12s.52.94,1.35.94c1.14,0,1.76-.54,2.04-1.78v-.02Z"/>
      <path class="cls-1" d="m76.97,236.49c.5.97.15,1.91-.67,1.91-.41,0-.69-.28-.92-.75-.26-.52-.56-1.01-.92-1.44-.34-.39-.86-.88-1.35-1.29-.32-.28-.21-.56.24-.52,1.57.13,3,.94,3.61,2.1Z"/>
      <path class="cls-1" d="m15.58,13.72c0,.21-.04.64-.56.64-.49,0-.82-.36-1.35-.88-.71-.71-1.37-1.33-2.45-1.63.13.49.22.95.22,1.39,0,.79-.58,1.7-2.17,1.7s-2.58-.67-2.58-1.91c0-.97.77-2.13,3.24-2.21-.06-.34-.09-.73-.09-1.2,0-1.83,1.42-2.7,3.01-3.09-.56-.43-1.24-.6-2.21-.6-2.21,0-4.74,2.34-6.31,4.76-.67,1.03-1.39,2.34-2.15,2.34-.36,0-.56-.34-.56-.71,0-.64.67-1.27,1.61-2.49,1.48-1.93,2.71-4.08,3.33-5.65-.8.11-1.7.19-2.49.19-1.18,0-2.08-1.07-2.08-2.23,0-.24.24-.37.45-.21.36.28,1.25,1.35,2.62,1.35.62,0,1.25-.07,1.87-.17.21-.62.34-1.1.39-1.35.09-.41-.06-.54-.54-.75-.39-.17-.84-.28-.84-.56,0-.32.64-.45,1.1-.45.92,0,1.7.37,1.7.95,0,.28-.26,1.07-.58,1.93.84-.21,1.91-.56,2.58-.9.56-.28,1.07-.45,1.42-.45.5,0,.97.28.97.6s-.26.47-.71.67c-.49.23-2.94.9-4.72,1.22-.39.88-.97,2.12-1.63,3.39,1.8-1.54,3.29-2.25,5.07-2.25,2.34,0,4.23,1.39,4.23,2.49,0,.3-.26.47-.49.47-.39,0-.64-.22-.88-.45-.3-.26-.62-.37-1.35-.3-1.35.13-1.91.96-1.91,2,0,.49.09,1.01.21,1.5,1.12.15,2.66.6,3.69,1.44.51.41.92.97.92,1.4Zm-5.49-2.04c-.13-.02-.26-.02-.41-.02-.77,0-2.13.34-2.13,1.29,0,.47.3.79,1.18.79,1.14,0,1.48-.56,1.48-1.2,0-.3-.04-.56-.11-.86Z"/>
      <path class="cls-1" d="m16.78,34.03c0,.37-.21.54-.9.54-.82,0-1.76-.3-3.58-.11-.24,1.44-.52,2.55-.92,3.31-.36.67-.86,1.2-1.33,1.2-.58,0-1.37-1.18-1.63-1.63-.13-.23,0-.43.26-.37.24.06.8.19,1.1.22.28.04.52.02.69-.24.3-.49.56-1.4.71-2.34-1.74.3-3.46.86-4.77,1.37.13,4.33.15,4.79,3.44,4.76,1.46-.02,2.21-.26,2.83-.26.52,0,1.16.24,1.14.79-.02.66-1.46.88-2.98.88-1.39,0-2.4-.11-3.18-.34-1.85-.52-2.19-1.46-2.38-5.35-1.91.79-3.09,1.22-3.61,1.22-.82,0-1.57-.95-1.57-1.69,0-.28.15-.37.41-.3.21.06.92.41,1.46.41.51,0,1.98-.43,3.26-.84-.02-1.09-.04-2.15-.13-2.94-.08-.67-.28-.82-1.03-1.14-.3-.13-.34-.32-.22-.47.15-.21.45-.41.9-.41.77,0,1.76.49,1.82.99.04.3-.04.79-.09,1.63-.04.69-.07,1.39-.07,1.95,1.44-.47,3.39-1.01,4.94-1.37.11-1.03.17-2.32.09-3.01-.08-.62-.32-.75-1.14-1.14-.3-.15-.32-.37-.11-.54.21-.17.6-.3.86-.3.73,0,1.74.49,1.76,1.1.02.56-.13,2.13-.34,3.67,1.18-.22,1.85-.26,2.38-.26,1.09,0,1.93.54,1.93,1.03Zm-3.16-4.12c-.22-.22-.09-.52.22-.51,1.22.09,2.53.92,2.53,1.8,0,.43-.32.66-.64.66-.43,0-.56-.32-.99-.82-.32-.37-.75-.77-1.12-1.12Zm4.34-.47c0,.39-.24.66-.62.66-.28,0-.47-.15-.82-.54-.41-.45-.97-.86-1.38-1.16-.3-.22-.17-.54.19-.54,1.2.02,2.64.64,2.64,1.59Z"/>
      <path class="cls-1" d="m11.29,63.63c0,2.15-1.18,5.17-3.18,5.17-1.01,0-2.1-1.29-2.53-2.38-.11-.28.08-.56.43-.28.43.34,1.16,1.09,1.95,1.09,1.31,0,2.15-2.3,2.15-4.03,0-1.18-.19-2.32-1.46-2.32-.28,0-.66.06-1.09.15-1.03,2.49-3.28,6.67-4.42,8.03-.43.51-.67.67-1.05.67-.43,0-.62-.34-.62-.73s.22-.73.69-1.27c1.24-1.46,3.07-4.08,4.1-6.35-1.33.36-2.79.81-3.5.81-.92,0-1.59-.99-1.59-1.89,0-.43.24-.51.6-.24.49.36.88.75,1.61.75.79,0,2.12-.3,3.31-.52.47-1.27.67-2.1.67-2.58,0-.39-.24-.6-.66-.82-.73-.37-.82-.51-.82-.66,0-.24.47-.41,1.01-.41.96,0,2.19.56,1.97,1.5-.17.69-.54,1.74-.92,2.75.26-.04.51-.06.71-.06,1.87,0,2.62,1.12,2.62,3.63Zm5.86,1.52c0,.81-.39,1.27-.94,1.27s-.71-.36-.79-1.89c-.09-1.72-.75-2.81-2.13-3.58-.41-.23-.19-.62.24-.56,2.21.32,3.61,2.34,3.61,4.76Z"/>
      <path class="cls-1" d="m4.96,82.17c-.97,1.55-2.34,3.2-4.23,4.46-.45.32-.82-.09-.45-.47,2.25-2.27,3.78-4.68,4.48-7.26.04-.21.15-.26.36-.22.66.11,1.93.58,1.95.97,0,.3-.39.41-.94.37-.21.43-.43.9-.71,1.4h7.9c.43-.62.97-1.35,1.27-1.35.39,0,1.82,1.16,1.82,1.65,0,.26-.36.45-1.09.45H4.96Zm5.39,11.35c.21.6,0,.94-.47,1.1-.38.11-.67-.04-1.22-.71-.54-.71-1.12-1.31-1.68-1.83-1.59,1.52-3.54,2.73-6.12,3.61-.51.15-.73-.41-.22-.64,2.04-1.01,3.93-2.17,5.45-3.76-.86-.69-1.83-1.35-2.77-1.93-.43-.26-.22-.79.26-.64,1.24.39,2.38.94,3.37,1.55.52-.69.99-1.46,1.37-2.32.09-.19.21-.24.38-.19.66.21,1.67.77,1.63,1.14-.02.3-.41.39-.96.28-.43.64-.88,1.24-1.37,1.82,1.29.95,2.15,1.93,2.36,2.51Zm1.65-7.13c.3-.39.67-.81.92-.81.43,0,1.52.97,1.52,1.4,0,.28-.41.54-.97.71-.24,4.47,1.48,5.94,2.32,5.97.19,0,.32-.08.43-.24.15-.21.3-.56.43-.82.21-.39.6-.3.56.13-.02.37-.13.92-.11,1.33.02.24.26.62.28.99,0,.32-.28.49-.67.49-1.85,0-4.83-1.69-4.49-8.41H2.47c-.24,0-.41-.08-.41-.37,0-.28.17-.37.41-.37h9.53Zm-.77-2.53c.41-.56.94-1.22,1.22-1.22.38,0,1.76,1.09,1.76,1.54,0,.26-.37.43-1.07.43H5.11c-.24,0-.41-.07-.41-.37,0-.28.17-.37.41-.37h6.12Z"/>
      <path class="cls-1" d="m4.16,112.73v3.61c.86-.3,1.65-.6,2.32-.88.71-.28.94.24.3.66-.73.47-1.59.94-2.62,1.39.02,1.83.02,3.67.02,5.3,0,.95-.52,1.68-1.42,1.68-.67,0-.41-.6-1.61-1.05-.41-.21-.36-.6.02-.6.32.02.84.06,1.12.06.34-.02.54-.13.58-.73.06-.99.06-2.57.04-4.14-.47.19-.95.36-1.48.54-.06.47-.22.9-.54.9-.39,0-.71-.79-.88-1.78-.02-.17.06-.24.21-.26.95-.21,1.85-.45,2.7-.69v-.34c0-.64,0-2.12-.02-3.67H.49c-.24,0-.41-.07-.41-.37,0-.28.17-.37.41-.37h2.38c-.02-1.61-.08-3.2-.19-3.95-.04-.28.04-.37.36-.37,1.4,0,2.17.26,2.17.6,0,.3-.43.47-1.03.64-.02.86-.02,1.93-.02,3.09h.49c.38-.56.84-1.2,1.11-1.2.37,0,1.52,1.1,1.54,1.54,0,.28-.39.41-.88.41h-2.25Zm10.77,4.51c.36-.54.79-1.12,1.03-1.14.36.02,1.4,1.09,1.4,1.5,0,.26-.34.39-.79.39h-2.04c0,1.57,0,3.52.02,5.09,0,.88-.64,1.39-1.42,1.4-.62-.02-.47-.58-1.72-.99-.45-.15-.38-.64,0-.62.39.04.99.11,1.25.11.39-.02.6-.17.62-.58.04-.77.04-1.97.02-3l-.02-1.42h-6.65c-.24,0-.41-.08-.41-.37,0-.28.17-.37.41-.37h6.63c-.02-.73-.06-1.44-.11-1.83-.04-.24.04-.34.26-.34.99,0,2.06.15,2.06.54,0,.32-.49.47-.92.56v1.07h.38Zm-.17-3.28c.38-.58.86-1.22,1.14-1.22.37,0,1.59,1.12,1.59,1.55,0,.26-.34.41-.92.41H6.67c-.24,0-.41-.08-.41-.37,0-.28.17-.37.41-.37h4.33c0-.77.02-1.7,0-2.62h-3.58c-.24,0-.41-.08-.41-.37,0-.28.17-.37.41-.37h3.58c-.02-1.12-.06-2.13-.13-2.7-.02-.17.09-.26.26-.26.32,0,2.17.06,2.17.54,0,.41-.41.56-.99.69v1.72h2c.38-.56.82-1.16,1.09-1.16.36,0,1.54,1.09,1.54,1.5,0,.28-.34.41-.9.41h-3.73v2.62h2.45Zm-3.76,6.89c.02.56-.34.97-.94.99-.52.02-.75-.49-1.07-1.05-.19-.37-.47-.77-.73-1.14-.26-.39-.08-.81.49-.66,1.1.28,2.23.9,2.25,1.85Z"/>
      <path class="cls-1" d="m6.97,141.73c.34-1.61.37-1.98-.28-2.28-.52-.24-.84-.36-.84-.58,0-.36.73-.62,1.42-.62.84,0,1.27.11,1.27.96,0,.66-.22,1.63-.43,2.47.88-.21,1.7-.52,2.36-.81.64-.28,1.07-.49,1.67-.49.54,0,.82.3.82.6,0,.38-.21.49-.64.69-.82.37-2.68.94-4.57,1.25-.51,1.78-.99,3.22-1.2,3.88-.09.3.06.39.36.21,1.09-.69,2.34-1.42,3.99-1.42,1.91,0,3.61,1.2,3.61,3.24s-2.25,4.18-7.45,3.59c-.64-.07-.71-.73.04-.75,4.14-.11,6.03-1.35,6.03-3.22,0-1.12-1.05-2.1-2.34-2.1-1.48,0-2.94,1.14-3.8,2-.62.62-1.14,1.27-1.59,1.27-.36,0-.73-.36-.73-.9,0-.47.26-.88.64-1.68.39-.88.94-2.43,1.35-3.95-.67.07-1.33.11-1.91.09-1.07-.04-1.95-.5-2.34-2.06-.09-.38.22-.56.52-.3.82.73,1.61,1.18,2.75,1.18.41,0,.84-.04,1.25-.09l.04-.19Z"/>
      <path class="cls-1" d="m11.11,172.26c0,2.15-1.18,5.17-3.18,5.17-1.01,0-2.1-1.29-2.53-2.38-.11-.28.08-.56.43-.28.43.34,1.16,1.09,1.95,1.09,1.31,0,2.15-2.3,2.15-4.03,0-1.18-.19-2.32-1.46-2.32-.28,0-.66.06-1.09.15-1.03,2.49-3.28,6.67-4.42,8.03-.43.5-.67.67-1.05.67-.43,0-.62-.34-.62-.73s.22-.73.69-1.27c1.24-1.46,3.07-4.08,4.1-6.35-1.33.36-2.79.8-3.5.8-.92,0-1.59-.99-1.59-1.89,0-.43.24-.51.6-.24.49.36.88.75,1.61.75.79,0,2.12-.3,3.31-.52.47-1.27.67-2.1.67-2.58,0-.39-.24-.6-.66-.82-.73-.38-.82-.51-.82-.66,0-.24.47-.41,1.01-.41.95,0,2.19.56,1.97,1.5-.17.69-.54,1.74-.92,2.75.26-.04.51-.06.71-.06,1.87,0,2.62,1.12,2.62,3.63Zm5.86,1.52c0,.8-.39,1.27-.94,1.27s-.71-.36-.79-1.89c-.09-1.72-.75-2.81-2.13-3.58-.41-.22-.19-.62.24-.56,2.21.32,3.61,2.34,3.61,4.76Zm-3.91-7.41c-.22-.23-.09-.52.22-.51,1.22.09,2.53.92,2.53,1.8,0,.43-.32.66-.64.66-.43,0-.56-.32-.99-.82-.32-.38-.75-.77-1.12-1.12Zm4.34-.47c0,.39-.24.66-.62.66-.28,0-.47-.15-.82-.54-.41-.45-.97-.86-1.38-1.16-.3-.22-.17-.54.19-.54,1.2.02,2.64.64,2.64,1.59Z"/>
      <path class="cls-1" d="m14.33,204.13c0,.39-.24.67-.66.67-.9,0-1.89-1.74-4.25-2.71-.15,1.91-1.05,3.07-3.18,3.07-1.44,0-2.66-.75-2.66-2.13,0-1.55,1.63-2.36,3.35-2.36.47,0,.92.02,1.35.07-.02-1.97-.09-4.59-.49-6.48-.13-.6-.26-1.29-.71-1.63s-.96-.51-.96-.82c0-.34.75-.62,1.22-.62.77,0,1.12.11,1.31.79.19.66.34,1.91.47,3.35.82-.11,1.52-.34,2.15-.62.56-.26.97-.56,1.44-.56.5,0,.95.24.95.64s-.3.69-.95.99c-.9.41-2.43.52-3.54.34.15,1.8.22,3.71.26,4.83,1.61.38,2.96,1.07,3.99,1.83.75.58.9.97.9,1.35Zm-6.07-2.43c-.62-.15-1.1-.21-1.54-.21-1.05,0-2.06.36-2.06,1.25,0,.82.73,1.18,1.44,1.18,1.31,0,2.02-.79,2.15-2.23Z"/>
      <path class="cls-1" d="m11.29,226.08c0,2.15-1.18,5.17-3.18,5.17-1.01,0-2.1-1.29-2.53-2.38-.11-.28.08-.56.43-.28.43.34,1.16,1.09,1.95,1.09,1.31,0,2.15-2.3,2.15-4.03,0-1.18-.19-2.32-1.46-2.32-.28,0-.66.06-1.09.15-1.03,2.49-3.28,6.67-4.42,8.03-.43.5-.67.67-1.05.67-.43,0-.62-.34-.62-.73s.22-.73.69-1.27c1.24-1.46,3.07-4.08,4.1-6.35-1.33.36-2.79.81-3.5.81-.92,0-1.59-.99-1.59-1.89,0-.43.24-.5.6-.24.49.36.88.75,1.61.75.79,0,2.12-.3,3.31-.52.47-1.27.67-2.1.67-2.58,0-.39-.24-.6-.66-.82-.73-.38-.82-.51-.82-.66,0-.24.47-.41,1.01-.41.96,0,2.19.56,1.97,1.5-.17.69-.54,1.74-.92,2.75.26-.04.51-.06.71-.06,1.87,0,2.62,1.12,2.62,3.63Zm5.86,1.52c0,.8-.39,1.27-.94,1.27s-.71-.36-.79-1.89c-.09-1.72-.75-2.81-2.13-3.58-.41-.22-.19-.62.24-.56,2.21.32,3.61,2.34,3.61,4.76Z"/>
      <path class="cls-1" d="m6.2,247.69c.32,0,.71-.13.99-.26,1.46-.71,3.37-2.04,5.5-2.04s3.97,1.55,3.97,3.5c0,3.43-3.71,4.55-7.58,4.21-.62-.06-.62-.71,0-.77,4.14-.28,6.2-1.46,6.2-3.59,0-1.2-.8-2.49-2.55-2.49s-3.31,1.33-4.01,1.8c-.62.41-1.8,1.24-2.4,1.2-.69-.04-1.37-.62-1.55-1.33-.08-.28-.08-.6-.02-.84.06-.3.41-.39.6-.17s.51.79.84.79Z"/>
      <path class="cls-1" d="m6.93,267.49c-.58.47-1.24,1.24-1.68,1.91-.43.66-1.1,1.89-1.31,2.19-.19.28-.54.64-1.03.64-.34,0-.69-.3-.69-.75s.24-.86.56-1.29c.81-1.09,1.72-2.3,2.47-3.58.71-1.2,1.31-2.58,1.65-3.43-1.01.13-1.95.22-2.73.21-.8-.02-1.18-.13-1.57-.51-.47-.43-.79-1.07-.79-1.57,0-.3.21-.41.47-.21,1.12.88,1.63,1.07,2.77,1.09.75.02,1.54-.08,2.27-.19.22-.69.37-1.31.43-1.67.09-.66.04-.81-.36-1.03-.51-.28-.86-.37-.86-.62,0-.26.45-.49,1.1-.49.8,0,1.87.49,1.87.99,0,.3-.3,1.03-.96,2.6.92-.21,2.02-.56,2.77-.88.54-.22,1.07-.51,1.5-.51s.9.28.9.73c0,.36-.43.54-1.2.8-.75.26-3,.81-4.47,1.07-.51,1.18-1.2,2.58-1.83,4.04,2.23-1.72,4.77-2.42,6.74-2.21.9.09,1.65.52,1.65,1.03s-1.5,1.54-2.28,1.93c-.41.21-.64-.02-.41-.37.17-.26.34-.56.49-.9.19-.43.08-.6-.5-.64-1.7-.11-3.61.52-4.94,1.59Zm9.16,4.18c0,.64-1.07.97-2.68.97-2.71,0-5.13-.97-5.37-3.46-.04-.38.36-.47.52-.19,1.03,1.8,2.4,2.28,4.47,2.28.81,0,1.69-.09,2.15-.09.52,0,.9.11.9.49Z"/>
      <path class="cls-1" d="m11.97,286.4c0-1.44,1.18-2.62,2.62-2.62s2.62,1.18,2.62,2.62-1.18,2.62-2.62,2.62-2.62-1.18-2.62-2.62Zm4.34,0c0-.95-.77-1.72-1.72-1.72s-1.72.77-1.72,1.72.77,1.72,1.72,1.72,1.72-.77,1.72-1.72Z"/>
    </g>
  </g>
</svg>