<?xml version="1.0" encoding="UTF-8"?>
<svg id="_レイヤー_2" data-name="レイヤー 2" xmlns="http://www.w3.org/2000/svg" viewBox="0 0 363.74 143.38">
  <defs>
    <style>
      .cls-1 {
        fill: #fff;
        stroke-width: 0px;
      }
    </style>
  </defs>
  <g id="_レイヤー_1-2" data-name="レイヤー 1">
    <g>
      <g>
        <path class="cls-1" d="m9.19,15.47L0,.58h4.97l6.48,10.98L17.84.58h4.8l-9.16,14.89v9.6h-4.29v-9.6Z"/>
        <path class="cls-1" d="m33.65.58h4.56l9.43,24.49h-4.6l-2.3-6.48h-9.78l-2.3,6.48h-4.42L33.65.58Zm-1.51,14.75h7.48l-3.67-10.53h-.1l-3.7,10.53Z"/>
        <path class="cls-1" d="m54.71.58h6.04l6.76,19.17h.07L74.15.58h5.97v24.49h-4.08V6.17h-.07l-6.79,18.9h-3.53l-6.79-18.9h-.07v18.9h-4.08V.58Z"/>
        <path class="cls-1" d="m100.5,0c1.83,0,3.47.34,4.92,1.03,1.45.69,2.68,1.61,3.69,2.78,1.01,1.17,1.78,2.53,2.32,4.08.54,1.56.81,3.2.81,4.94s-.27,3.42-.81,4.97c-.54,1.56-1.31,2.92-2.32,4.08-1.01,1.17-2.24,2.09-3.69,2.76s-3.09,1.01-4.92,1.01-3.47-.34-4.92-1.01-2.68-1.59-3.69-2.76c-1.01-1.17-1.78-2.53-2.31-4.08-.54-1.55-.81-3.21-.81-4.97s.27-3.38.81-4.94c.54-1.55,1.31-2.92,2.31-4.08,1.01-1.17,2.23-2.09,3.69-2.78,1.45-.69,3.09-1.03,4.92-1.03Zm0,3.5c-1.3,0-2.43.26-3.38.79-.95.53-1.72,1.23-2.32,2.11-.59.88-1.04,1.88-1.32,3-.29,1.12-.43,2.26-.43,3.43s.14,2.31.43,3.43c.29,1.12.73,2.12,1.32,3,.59.88,1.37,1.58,2.32,2.11.95.53,2.07.79,3.38.79s2.43-.26,3.38-.79c.95-.53,1.72-1.23,2.31-2.11.59-.88,1.03-1.88,1.32-3,.29-1.12.43-2.26.43-3.43s-.14-2.31-.43-3.43c-.29-1.12-.73-2.12-1.32-3-.59-.88-1.37-1.58-2.31-2.11-.95-.53-2.08-.79-3.38-.79Z"/>
        <path class="cls-1" d="m120.94.58h11.7c2.7,0,4.72.58,6.07,1.75,1.35,1.17,2.02,2.79,2.02,4.87,0,1.17-.17,2.13-.51,2.9-.34.77-.74,1.38-1.2,1.85-.46.47-.91.81-1.35,1.01-.45.21-.77.34-.98.41v.07c.37.05.76.16,1.18.34.42.18.82.48,1.18.88.37.4.67.92.91,1.56.24.64.36,1.44.36,2.4,0,1.44.11,2.75.33,3.93.22,1.18.55,2.02,1.01,2.52h-4.6c-.32-.53-.51-1.11-.57-1.75-.06-.64-.09-1.26-.09-1.85,0-1.12-.07-2.09-.21-2.9s-.39-1.49-.75-2.02c-.37-.54-.86-.93-1.49-1.18-.63-.25-1.44-.38-2.42-.38h-6.31v10.08h-4.29V.58Zm4.29,11.15h7.03c1.37,0,2.41-.33,3.12-.98.71-.65,1.06-1.63,1.06-2.93,0-.78-.11-1.41-.34-1.9-.23-.49-.54-.87-.94-1.15s-.86-.46-1.37-.55c-.51-.09-1.05-.14-1.6-.14h-6.96v7.65Z"/>
        <path class="cls-1" d="m151.26.58h4.29v24.49h-4.29V.58Z"/>
        <path class="cls-1" d="m184.8,16.91c0,.94.16,1.74.48,2.4.32.66.77,1.21,1.34,1.63.57.42,1.23.73,1.97.93.74.19,1.55.29,2.42.29.94,0,1.74-.11,2.4-.33.66-.22,1.2-.5,1.61-.84.41-.34.71-.74.89-1.18.18-.45.27-.9.27-1.35,0-.94-.21-1.63-.63-2.08-.42-.45-.89-.76-1.39-.94-.87-.32-1.88-.62-3.04-.91-1.16-.29-2.58-.66-4.27-1.11-1.05-.27-1.93-.63-2.62-1.08s-1.25-.94-1.66-1.49c-.41-.55-.7-1.13-.88-1.75-.17-.62-.26-1.25-.26-1.89,0-1.23.26-2.3.77-3.21s1.19-1.65,2.04-2.25c.85-.59,1.81-1.03,2.88-1.32,1.07-.29,2.16-.43,3.26-.43,1.28,0,2.49.17,3.62.5s2.13.83,2.98,1.49c.86.66,1.54,1.48,2.04,2.45.5.97.75,2.1.75,3.38h-4.29c-.11-1.58-.65-2.69-1.61-3.34-.96-.65-2.18-.98-3.67-.98-.5,0-1.02.05-1.54.15-.53.1-1.01.27-1.44.51-.43.24-.79.57-1.08.98s-.43.93-.43,1.54c0,.87.27,1.55.81,2.04.54.49,1.24.86,2.11,1.11.09.02.45.12,1.08.29.63.17,1.33.36,2.11.57.78.21,1.54.41,2.28.6.74.19,1.27.34,1.6.43.8.25,1.5.59,2.09,1.03.59.43,1.09.93,1.49,1.49.4.56.7,1.16.89,1.8s.29,1.28.29,1.92c0,1.37-.28,2.54-.84,3.52-.56.97-1.3,1.77-2.21,2.38-.92.62-1.96,1.07-3.12,1.35-1.17.29-2.36.43-3.57.43-1.4,0-2.71-.17-3.94-.51-1.23-.34-2.31-.87-3.22-1.58-.91-.71-1.65-1.62-2.2-2.73-.55-1.11-.83-2.42-.86-3.93h4.29Z"/>
        <path class="cls-1" d="m205.31.58h19.82v3.7h-7.79v20.79h-4.29V4.29h-7.75V.58Z"/>
        <path class="cls-1" d="m239.85,15.47l-9.19-14.89h4.97l6.48,10.98,6.38-10.98h4.8l-9.16,14.89v9.6h-4.29v-9.6Z"/>
        <path class="cls-1" d="m260.5.58h4.29v20.79h12.45v3.7h-16.74V.58Z"/>
        <path class="cls-1" d="m284.3.58h17.63v3.7h-13.34v6.41h12.35v3.5h-12.35v7.17h13.58v3.7h-17.87V.58Z"/>
        <path class="cls-1" d="m313.22,20.44h4.77v4.63h-4.77v-4.63Z"/>
        <path class="cls-1" d="m5.62,59.59c0,.94.16,1.74.48,2.4.32.66.77,1.21,1.34,1.63.57.42,1.23.73,1.97.93.74.19,1.55.29,2.42.29.94,0,1.74-.11,2.4-.33.66-.22,1.2-.5,1.61-.84.41-.34.71-.74.89-1.18.18-.45.27-.9.27-1.35,0-.94-.21-1.63-.63-2.08-.42-.45-.89-.76-1.39-.94-.87-.32-1.88-.62-3.04-.91-1.16-.29-2.58-.66-4.27-1.11-1.05-.27-1.93-.63-2.62-1.08s-1.25-.94-1.66-1.49c-.41-.55-.7-1.13-.88-1.75-.17-.62-.26-1.25-.26-1.89,0-1.23.26-2.3.77-3.21s1.19-1.65,2.04-2.25c.85-.59,1.81-1.03,2.88-1.32,1.07-.29,2.16-.43,3.26-.43,1.28,0,2.49.17,3.62.5s2.13.83,2.98,1.49c.86.66,1.54,1.48,2.04,2.45.5.97.75,2.1.75,3.38h-4.29c-.11-1.58-.65-2.69-1.61-3.34-.96-.65-2.18-.98-3.67-.98-.5,0-1.02.05-1.54.15-.53.1-1.01.27-1.44.51-.43.24-.79.57-1.08.98s-.43.93-.43,1.54c0,.87.27,1.55.81,2.04.54.49,1.24.86,2.11,1.11.09.02.45.12,1.08.29.63.17,1.33.36,2.11.57.78.21,1.54.41,2.28.6.74.19,1.27.34,1.6.43.8.25,1.5.59,2.09,1.03.59.43,1.09.93,1.49,1.49.4.56.7,1.16.89,1.8s.29,1.28.29,1.92c0,1.37-.28,2.54-.84,3.52-.56.97-1.3,1.77-2.21,2.38-.92.62-1.96,1.07-3.12,1.35-1.17.29-2.36.43-3.57.43-1.4,0-2.71-.17-3.94-.51-1.23-.34-2.31-.87-3.22-1.58-.91-.71-1.65-1.62-2.2-2.73-.55-1.11-.83-2.42-.86-3.93h4.29Z"/>
        <path class="cls-1" d="m35.71,43.26h4.56l9.43,24.49h-4.6l-2.3-6.48h-9.77l-2.3,6.48h-4.42l9.4-24.49Zm-1.51,14.75h7.48l-3.67-10.53h-.1l-3.7,10.53Z"/>
        <path class="cls-1" d="m56.83,43.26h4.29v20.79h12.45v3.7h-16.74v-24.49Z"/>
        <path class="cls-1" d="m89,42.68c1.83,0,3.47.34,4.92,1.03,1.45.69,2.68,1.61,3.69,2.78,1.01,1.17,1.78,2.53,2.32,4.08.54,1.56.81,3.2.81,4.94s-.27,3.42-.81,4.97c-.54,1.56-1.31,2.92-2.32,4.08-1.01,1.17-2.24,2.09-3.69,2.76s-3.09,1.01-4.92,1.01-3.47-.34-4.92-1.01-2.68-1.59-3.69-2.76c-1.01-1.17-1.78-2.53-2.31-4.08-.54-1.55-.81-3.21-.81-4.97s.27-3.38.81-4.94c.54-1.55,1.31-2.92,2.31-4.08,1.01-1.17,2.23-2.09,3.69-2.78,1.45-.69,3.09-1.03,4.92-1.03Zm0,3.5c-1.3,0-2.43.26-3.38.79-.95.53-1.72,1.23-2.32,2.11-.59.88-1.04,1.88-1.32,3-.29,1.12-.43,2.26-.43,3.43s.14,2.31.43,3.43c.29,1.12.73,2.12,1.32,3,.59.88,1.37,1.58,2.32,2.11.95.53,2.07.79,3.38.79s2.43-.26,3.38-.79c.95-.53,1.72-1.23,2.31-2.11.59-.88,1.03-1.88,1.32-3,.29-1.12.43-2.26.43-3.43s-.14-2.31-.43-3.43c-.29-1.12-.73-2.12-1.32-3-.59-.88-1.37-1.58-2.31-2.11-.95-.53-2.08-.79-3.38-.79Z"/>
        <path class="cls-1" d="m109.96,43.26h4.53l11.18,18.04h.07v-18.04h4.08v24.49h-4.53l-11.15-18.01h-.1v18.01h-4.08v-24.49Z"/>
        <path class="cls-1" d="m164.36,65.01c-.91,1.12-1.93,1.94-3.04,2.45-1.11.51-2.38.77-3.82.77-1.12,0-2.16-.17-3.1-.5-.95-.33-1.77-.81-2.45-1.42-.69-.62-1.22-1.38-1.59-2.28-.38-.9-.57-1.93-.57-3.07,0-.87.16-1.66.48-2.37.32-.71.74-1.35,1.27-1.94.53-.58,1.13-1.1,1.8-1.56.67-.46,1.37-.87,2.08-1.23-.32-.41-.63-.82-.93-1.22-.3-.4-.56-.82-.79-1.25-.23-.43-.41-.89-.55-1.37-.14-.48-.21-.98-.21-1.51,0-.89.15-1.69.46-2.4.31-.71.74-1.32,1.29-1.84.55-.51,1.19-.91,1.92-1.18.73-.27,1.51-.41,2.33-.41.78,0,1.54.12,2.28.36.74.24,1.39.61,1.96,1.1.56.49,1.01,1.1,1.35,1.84.34.73.51,1.59.51,2.57,0,.73-.12,1.41-.36,2.02-.24.62-.56,1.18-.96,1.7-.4.51-.87.98-1.41,1.39-.54.41-1.1.78-1.7,1.1l3.81,4.6c.14-.39.27-.83.41-1.34.14-.5.25-1.15.34-1.95h3.43c-.11,1.07-.33,2.13-.63,3.16-.31,1.03-.74,1.98-1.29,2.85l4.7,5.69h-4.8l-2.23-2.74Zm-6.89-8.57c-.37.23-.77.46-1.2.69-.43.23-.84.51-1.22.86-.38.34-.7.75-.96,1.23-.26.48-.39,1.09-.39,1.82,0,1.33.37,2.34,1.11,3.05.74.71,1.69,1.06,2.83,1.06.71,0,1.31-.1,1.82-.29.5-.19.93-.43,1.29-.7.35-.27.65-.57.89-.89.24-.32.45-.61.63-.86l-4.8-5.97Zm1.58-10.84c-.73,0-1.35.25-1.85.74-.5.49-.75,1.15-.75,1.97,0,.41.07.79.22,1.15.15.35.33.7.55,1.03.22.33.46.66.72.98.26.32.51.63.74.93.37-.25.72-.51,1.06-.77.34-.26.65-.55.93-.86s.49-.66.65-1.05c.16-.39.24-.82.24-1.3,0-.8-.23-1.47-.69-2.01-.46-.54-1.06-.81-1.82-.81Z"/>
        <path class="cls-1" d="m207.23,67.75h-2.74l-.65-2.88c-1.14,1.3-2.29,2.21-3.43,2.71-1.14.5-2.46.75-3.94.75-1.83,0-3.47-.34-4.92-1.01s-2.68-1.59-3.69-2.76c-1.01-1.17-1.78-2.53-2.32-4.08-.54-1.55-.81-3.21-.81-4.97s.27-3.38.81-4.94c.54-1.55,1.31-2.92,2.32-4.08,1.01-1.17,2.23-2.09,3.69-2.78,1.45-.69,3.09-1.03,4.92-1.03,1.33,0,2.59.18,3.79.53s2.27.88,3.21,1.58c.94.7,1.72,1.57,2.33,2.62.62,1.05,1.01,2.26,1.17,3.64h-4.18c-.11-.8-.36-1.5-.74-2.11-.38-.61-.85-1.11-1.42-1.53-.57-.41-1.21-.72-1.92-.93-.71-.21-1.45-.31-2.23-.31-1.3,0-2.43.26-3.38.79-.95.53-1.72,1.23-2.32,2.11-.59.88-1.04,1.88-1.32,3-.29,1.12-.43,2.26-.43,3.43s.14,2.31.43,3.43c.29,1.12.73,2.12,1.32,3s1.37,1.58,2.32,2.11c.95.53,2.08.79,3.38.79,1.1.02,2.07-.12,2.92-.43.85-.31,1.56-.75,2.14-1.34.58-.58,1.02-1.3,1.32-2.14.3-.85.46-1.78.48-2.81h-6.52v-3.26h10.43v12.9Z"/>
        <path class="cls-1" d="m222.56,43.26h4.56l9.43,24.49h-4.6l-2.3-6.48h-9.77l-2.3,6.48h-4.42l9.4-24.49Zm-1.51,14.75h7.48l-3.67-10.53h-.1l-3.7,10.53Z"/>
        <path class="cls-1" d="m243.69,43.26h4.29v20.79h12.45v3.7h-16.74v-24.49Z"/>
        <path class="cls-1" d="m266.12,43.26h4.29v20.79h12.45v3.7h-16.74v-24.49Z"/>
        <path class="cls-1" d="m289.93,43.26h17.63v3.7h-13.34v6.41h12.35v3.5h-12.35v7.17h13.58v3.7h-17.87v-24.49Z"/>
        <path class="cls-1" d="m315.65,43.26h11.7c2.7,0,4.72.58,6.07,1.75,1.35,1.17,2.02,2.79,2.02,4.87,0,1.17-.17,2.13-.51,2.9-.34.77-.74,1.38-1.2,1.85-.46.47-.91.81-1.35,1.01-.45.21-.77.34-.98.41v.07c.37.05.76.16,1.18.34.42.18.82.48,1.18.88.37.4.67.92.91,1.56s.36,1.44.36,2.4c0,1.44.11,2.75.33,3.93.22,1.18.55,2.02,1.01,2.52h-4.6c-.32-.53-.51-1.11-.57-1.75-.06-.64-.09-1.26-.09-1.85,0-1.12-.07-2.09-.21-2.9-.14-.81-.39-1.49-.75-2.02-.37-.54-.86-.93-1.49-1.18-.63-.25-1.44-.38-2.42-.38h-6.31v10.08h-4.29v-24.49Zm4.29,11.15h7.03c1.37,0,2.41-.33,3.12-.98.71-.65,1.06-1.63,1.06-2.93,0-.78-.11-1.41-.34-1.9-.23-.49-.54-.87-.94-1.15-.4-.27-.86-.46-1.37-.55-.51-.09-1.05-.14-1.59-.14h-6.96v7.65Z"/>
        <path class="cls-1" d="m350.29,58.15l-9.19-14.89h4.97l6.48,10.98,6.38-10.98h4.8l-9.16,14.89v9.6h-4.29v-9.6Z"/>
      </g>
      <g>
        <path class="cls-1" d="m9.18,103.46l-5.66-9.16h3.06l3.99,6.75,3.93-6.75h2.96l-5.64,9.16v5.91h-2.64v-5.91Z"/>
        <path class="cls-1" d="m28.79,106.95c0,.3.04.51.12.63.08.13.23.19.45.19h.25c.1,0,.21-.01.34-.04v1.67c-.08.03-.19.06-.33.1-.13.03-.27.07-.41.09s-.28.05-.42.06c-.14.01-.26.02-.36.02-.49,0-.9-.1-1.22-.3-.32-.2-.53-.54-.63-1.03-.48.46-1.07.8-1.76,1.01-.7.21-1.37.32-2.02.32-.49,0-.96-.07-1.41-.2-.45-.13-.85-.33-1.19-.59-.35-.26-.62-.59-.82-.99-.2-.4-.31-.87-.31-1.4,0-.68.12-1.22.37-1.65.25-.42.57-.75.97-.99.4-.24.85-.41,1.35-.52s1-.19,1.51-.24c.44-.08.85-.14,1.25-.18.39-.04.74-.1,1.04-.18.3-.08.54-.21.72-.39.18-.18.26-.44.26-.79,0-.31-.07-.56-.22-.76-.15-.2-.33-.35-.55-.45-.22-.11-.46-.18-.73-.21s-.52-.05-.76-.05c-.68,0-1.23.14-1.67.42-.44.28-.68.72-.74,1.31h-2.41c.04-.7.21-1.29.51-1.75.3-.46.67-.84,1.13-1.12.46-.28.97-.48,1.55-.59.58-.11,1.17-.17,1.77-.17.54,0,1.06.06,1.58.17.52.11.99.3,1.4.55.41.25.75.58,1,.98.25.4.38.89.38,1.47v5.61Zm-2.41-3.04c-.37.24-.82.38-1.35.43-.54.05-1.07.12-1.6.22-.25.04-.5.1-.74.18s-.45.18-.63.32-.33.31-.43.53-.16.48-.16.79c0,.27.08.49.23.68.15.18.34.33.56.43.22.11.46.18.72.22.26.04.5.06.71.06.27,0,.56-.04.87-.11s.6-.19.88-.36.5-.38.69-.64c.18-.26.27-.58.27-.96v-1.79Z"/>
        <path class="cls-1" d="m32.44,98.46h2.28v1.52h.06c.18-.27.38-.51.59-.74s.45-.42.71-.57c.26-.15.56-.28.9-.37.34-.09.72-.14,1.16-.14.66,0,1.28.15,1.85.44s.97.75,1.21,1.37c.41-.56.88-1.01,1.41-1.33.53-.32,1.2-.49,2.01-.49,1.15,0,2.05.28,2.69.84.64.56.96,1.51.96,2.83v7.54h-2.41v-6.37c0-.44-.01-.83-.04-1.19-.03-.36-.11-.67-.24-.93-.13-.26-.33-.46-.6-.6s-.63-.21-1.1-.21c-.82,0-1.41.25-1.77.76-.37.51-.55,1.22-.55,2.15v6.4h-2.41v-7.01c0-.76-.14-1.33-.41-1.72-.27-.39-.78-.58-1.51-.58-.31,0-.61.06-.9.19-.29.13-.54.31-.76.55-.22.24-.39.53-.53.89-.13.35-.2.75-.2,1.2v6.48h-2.41v-10.91Z"/>
        <path class="cls-1" d="m56.86,109.67c-.87,0-1.65-.14-2.33-.43s-1.26-.69-1.73-1.19c-.47-.51-.83-1.11-1.08-1.82s-.37-1.48-.37-2.32.12-1.6.37-2.3c.25-.7.61-1.31,1.08-1.81.47-.51,1.05-.9,1.73-1.19.68-.29,1.46-.43,2.33-.43s1.65.14,2.33.43c.68.29,1.26.69,1.73,1.19.47.51.83,1.11,1.08,1.81.25.7.37,1.47.37,2.3s-.12,1.62-.37,2.32-.6,1.31-1.08,1.82c-.47.51-1.05.9-1.73,1.19-.68.29-1.46.43-2.33.43Zm0-1.9c.54,0,1-.11,1.39-.34.39-.23.72-.52.97-.89.25-.37.44-.78.56-1.23.12-.46.18-.93.18-1.4s-.06-.93-.18-1.39c-.12-.46-.31-.88-.56-1.23-.25-.36-.58-.65-.97-.88-.39-.22-.86-.34-1.39-.34s-1,.11-1.39.34c-.39.23-.72.52-.97.88s-.44.77-.56,1.23c-.12.46-.18.93-.18,1.39s.06.95.18,1.4c.12.46.31.87.56,1.23.25.37.58.66.97.89.39.23.86.34,1.39.34Z"/>
        <path class="cls-1" d="m65.43,98.46h2.26v2.11h.04c.07-.3.21-.58.41-.87.2-.28.45-.54.74-.77.29-.23.61-.42.96-.56.35-.14.71-.21,1.08-.21.28,0,.47,0,.58.02.11.01.21.03.33.04v2.32c-.17-.03-.34-.05-.52-.07-.18-.02-.35-.03-.52-.03-.41,0-.79.08-1.15.24-.36.16-.67.4-.94.72-.27.32-.48.71-.63,1.17-.16.46-.23,1-.23,1.6v5.19h-2.41v-10.91Z"/>
        <path class="cls-1" d="m73.98,94.3h2.41v2.28h-2.41v-2.28Zm0,4.16h2.41v10.91h-2.41v-10.91Z"/>
        <path class="cls-1" d="m94.35,102.11c-.1-.68-.37-1.19-.81-1.53-.44-.34-1-.52-1.68-.52-.31,0-.64.05-.99.16-.35.11-.68.3-.97.59-.29.29-.54.69-.74,1.2-.2.51-.3,1.19-.3,2.02,0,.45.05.9.16,1.35.11.45.27.85.51,1.2.23.35.53.64.9.85s.81.33,1.33.33c.7,0,1.28-.22,1.74-.65.46-.44.74-1.05.85-1.84h2.41c-.23,1.42-.76,2.51-1.62,3.26s-1.98,1.13-3.39,1.13c-.86,0-1.61-.14-2.27-.43s-1.21-.68-1.66-1.18c-.45-.5-.79-1.09-1.02-1.78-.23-.69-.35-1.44-.35-2.24s.11-1.58.34-2.3c.22-.72.56-1.34,1.01-1.87.45-.53,1.01-.94,1.68-1.25.67-.3,1.45-.45,2.35-.45.63,0,1.23.08,1.8.24.57.16,1.08.4,1.52.73s.81.73,1.09,1.22c.28.49.45,1.08.51,1.75h-2.41Z"/>
        <path class="cls-1" d="m104.77,109.67c-.87,0-1.65-.14-2.33-.43-.68-.29-1.26-.69-1.73-1.19-.47-.51-.83-1.11-1.08-1.82s-.37-1.48-.37-2.32.12-1.6.37-2.3c.25-.7.6-1.31,1.08-1.81.47-.51,1.05-.9,1.73-1.19.68-.29,1.46-.43,2.33-.43s1.65.14,2.33.43c.68.29,1.26.69,1.73,1.19.47.51.83,1.11,1.08,1.81.25.7.37,1.47.37,2.3s-.12,1.62-.37,2.32-.61,1.31-1.08,1.82c-.47.51-1.05.9-1.73,1.19s-1.46.43-2.33.43Zm0-1.9c.53,0,1-.11,1.39-.34s.72-.52.97-.89c.25-.37.44-.78.56-1.23.12-.46.18-.93.18-1.4s-.06-.93-.18-1.39-.31-.88-.56-1.23c-.25-.36-.58-.65-.97-.88-.39-.22-.86-.34-1.39-.34s-1,.11-1.39.34c-.39.23-.72.52-.97.88-.25.36-.44.77-.56,1.23s-.18.93-.18,1.39.06.95.18,1.4c.12.46.31.87.56,1.23.25.37.58.66.97.89s.86.34,1.39.34Z"/>
        <path class="cls-1" d="m113.53,106.52h2.93v2.85h-2.93v-2.85Z"/>
        <path class="cls-1" d="m120.46,106.52h2.93v2.85c-.01.87-.28,1.6-.8,2.2-.52.59-1.2.97-2.05,1.14v-1.29c.46-.11.81-.37,1.04-.77.23-.4.34-.83.33-1.28h-1.46v-2.85Z"/>
        <path class="cls-1" d="m127.25,94.3h2.41v15.07h-2.41v-15.07Z"/>
        <path class="cls-1" d="m132.23,98.46h1.82v-3.27h2.41v3.27h2.17v1.79h-2.17v5.83c0,.25.01.47.03.65.02.18.07.34.15.46.08.13.19.22.35.28.15.06.37.1.63.1.17,0,.34,0,.51-.01.17,0,.34-.03.51-.07v1.86c-.27.03-.53.06-.78.08-.25.03-.51.04-.78.04-.63,0-1.14-.06-1.53-.18-.39-.12-.69-.3-.91-.53-.22-.23-.37-.52-.44-.88-.08-.35-.12-.75-.14-1.2v-6.44h-1.82v-1.79Z"/>
        <path class="cls-1" d="m151.7,109.37h-2.28v-1.48h-.04c-.32.63-.79,1.09-1.41,1.36s-1.27.41-1.96.41c-.86,0-1.61-.15-2.25-.45-.64-.3-1.17-.71-1.59-1.23-.42-.52-.74-1.14-.95-1.85-.21-.71-.32-1.47-.32-2.29,0-.98.13-1.84.4-2.55s.62-1.31,1.07-1.77c.44-.46.95-.81,1.52-1.02.57-.22,1.15-.33,1.74-.33.34,0,.68.03,1.03.1.35.06.69.17,1.01.31.32.14.62.32.9.54s.5.47.69.77h.04v-5.57h2.41v15.07Zm-8.4-5.34c0,.46.06.92.18,1.37.12.45.3.85.55,1.2.25.35.56.63.94.84.38.21.83.32,1.35.32s1-.11,1.38-.34c.39-.23.7-.52.95-.89.25-.37.43-.78.55-1.23.12-.46.18-.93.18-1.4,0-1.21-.27-2.15-.81-2.83-.54-.68-1.28-1.01-2.21-1.01-.56,0-1.04.12-1.42.35-.39.23-.7.53-.95.91s-.42.79-.53,1.27c-.11.47-.16.95-.16,1.45Z"/>
        <path class="cls-1" d="m155.56,106.52h2.93v2.85h-2.93v-2.85Z"/>
        <path class="cls-1" d="m5.25,123.99h10.41v2.28h-7.77v3.95h6.82v2.15h-6.82v6.69h-2.64v-15.07Z"/>
        <path class="cls-1" d="m28.07,139.06h-2.36v-1.52h-.04c-.3.55-.74.99-1.32,1.32-.58.33-1.18.5-1.78.5-1.44,0-2.47-.35-3.11-1.07-.64-.71-.96-1.78-.96-3.22v-6.92h2.41v6.69c0,.96.18,1.63.55,2.03.37.39.88.59,1.54.59.51,0,.93-.08,1.27-.23.34-.15.61-.36.82-.62.21-.26.36-.57.45-.94.09-.37.14-.76.14-1.18v-6.33h2.41v10.91Z"/>
        <path class="cls-1" d="m31.72,128.14h2.41v11.84c0,1.08-.24,1.92-.72,2.51-.48.59-1.28.89-2.41.89-.24,0-.44,0-.6-.02s-.32-.04-.48-.06v-1.9c.16.03.3.05.44.06.14.01.27.02.38.02.44,0,.71-.13.81-.4.11-.27.16-.67.16-1.2v-11.74Zm0-4.16h2.41v2.28h-2.41v-2.28Z"/>
        <path class="cls-1" d="m37.87,123.99h2.41v2.28h-2.41v-2.28Zm0,4.16h2.41v10.91h-2.41v-10.91Z"/>
        <path class="cls-1" d="m43.94,128.14h2.28v1.52h.06c.18-.27.38-.51.59-.74.21-.23.45-.42.71-.57.26-.15.56-.28.9-.37.34-.09.72-.14,1.16-.14.66,0,1.28.15,1.85.44.57.3.97.75,1.21,1.37.41-.56.88-1.01,1.41-1.33.53-.32,1.2-.49,2.01-.49,1.15,0,2.05.28,2.69.84.64.56.96,1.51.96,2.83v7.54h-2.41v-6.37c0-.44-.01-.83-.04-1.19-.03-.36-.11-.67-.24-.93-.13-.26-.33-.46-.6-.6-.27-.14-.63-.21-1.1-.21-.82,0-1.41.25-1.77.76-.37.51-.55,1.22-.55,2.15v6.4h-2.41v-7.01c0-.76-.14-1.33-.41-1.72-.27-.39-.78-.58-1.51-.58-.31,0-.61.06-.9.19-.29.13-.54.31-.76.55-.22.24-.39.53-.53.89-.13.35-.2.75-.2,1.2v6.48h-2.41v-10.91Z"/>
        <path class="cls-1" d="m63.43,123.99h2.41v2.28h-2.41v-2.28Zm0,4.16h2.41v10.91h-2.41v-10.91Z"/>
        <path class="cls-1" d="m79.59,138.49c0,1.65-.46,2.87-1.38,3.68-.92.81-2.25,1.21-3.98,1.21-.55,0-1.1-.06-1.66-.17-.56-.11-1.06-.3-1.52-.57-.46-.27-.84-.62-1.15-1.06s-.49-.97-.55-1.6h2.41c.07.34.19.61.36.82.17.21.37.38.6.5.23.12.49.2.77.23.28.04.58.05.89.05.97,0,1.68-.24,2.13-.72.45-.48.68-1.17.68-2.07v-1.67h-.04c-.34.61-.8,1.08-1.38,1.41-.58.34-1.21.51-1.89.51-.87,0-1.61-.15-2.23-.45s-1.12-.72-1.52-1.25c-.4-.53-.69-1.14-.88-1.83-.18-.69-.27-1.43-.27-2.22,0-.73.11-1.43.34-2.09.22-.66.55-1.24.97-1.74.42-.5.94-.9,1.55-1.19.61-.3,1.3-.44,2.08-.44.69,0,1.32.14,1.9.43.58.29,1.02.74,1.33,1.36h.04v-1.5h2.41v10.34Zm-5.34-1.33c.53,0,.99-.11,1.36-.33.37-.22.68-.51.91-.87s.4-.77.51-1.22c.11-.46.16-.92.16-1.38s-.06-.91-.17-1.35c-.11-.44-.29-.82-.52-1.16-.23-.34-.53-.6-.91-.8-.37-.2-.82-.3-1.34-.3s-.98.11-1.35.34c-.37.23-.66.52-.89.88-.22.36-.39.77-.49,1.22-.1.46-.15.91-.15,1.36s.06.89.17,1.32c.11.43.29.81.52,1.15.23.34.53.61.89.82.36.21.79.32,1.3.32Z"/>
        <path class="cls-1" d="m92.21,136.63c0,.3.04.51.12.63.08.13.23.19.45.19h.25c.1,0,.21-.01.34-.04v1.67c-.08.03-.19.06-.33.1-.13.03-.27.07-.41.09s-.28.05-.42.06c-.14.01-.26.02-.36.02-.49,0-.9-.1-1.22-.3-.32-.2-.53-.54-.63-1.03-.48.46-1.07.8-1.76,1.01-.7.21-1.37.32-2.02.32-.49,0-.96-.07-1.41-.2-.45-.13-.85-.33-1.19-.59-.35-.26-.62-.59-.82-.99-.2-.4-.31-.87-.31-1.4,0-.68.12-1.22.37-1.65.25-.42.57-.75.97-.99.4-.24.85-.41,1.35-.52s1-.19,1.51-.24c.44-.08.85-.14,1.25-.18.39-.04.74-.1,1.04-.18.3-.08.54-.21.72-.39.18-.18.26-.44.26-.79,0-.31-.07-.56-.22-.76-.15-.2-.33-.35-.55-.45-.22-.11-.46-.18-.73-.21s-.52-.05-.76-.05c-.68,0-1.23.14-1.67.42-.44.28-.68.72-.74,1.31h-2.41c.04-.7.21-1.29.51-1.75.3-.46.67-.84,1.13-1.12.46-.28.97-.48,1.55-.59.58-.11,1.17-.17,1.77-.17.54,0,1.06.06,1.58.17.52.11.99.3,1.4.55.41.25.75.58,1,.98.25.4.38.89.38,1.47v5.61Zm-2.41-3.04c-.37.24-.82.38-1.35.43-.54.05-1.07.12-1.6.22-.25.04-.5.1-.74.18s-.45.18-.63.32-.33.31-.43.53-.16.48-.16.79c0,.27.08.49.23.68.15.18.34.33.56.43.22.11.46.18.72.22.26.04.5.06.71.06.27,0,.56-.04.87-.11s.6-.19.88-.36.5-.38.69-.64c.18-.26.27-.58.27-.96v-1.79Z"/>
        <path class="cls-1" d="m100.87,139.35c-.87,0-1.65-.14-2.33-.43-.68-.29-1.26-.69-1.73-1.19-.47-.51-.83-1.11-1.08-1.82s-.37-1.48-.37-2.32.12-1.6.37-2.3c.25-.7.6-1.31,1.08-1.81.47-.51,1.05-.9,1.73-1.19.68-.29,1.46-.43,2.33-.43s1.65.14,2.33.43c.68.29,1.26.69,1.73,1.19.47.51.83,1.11,1.08,1.81.25.7.37,1.47.37,2.3s-.12,1.62-.37,2.32-.61,1.31-1.08,1.82c-.47.51-1.05.9-1.73,1.19s-1.46.43-2.33.43Zm0-1.9c.53,0,1-.11,1.39-.34s.72-.52.97-.89c.25-.37.44-.78.56-1.23.12-.46.18-.93.18-1.4s-.06-.93-.18-1.39-.31-.88-.56-1.23c-.25-.36-.58-.65-.97-.88-.39-.22-.86-.34-1.39-.34s-1,.11-1.39.34c-.39.23-.72.52-.97.88-.25.36-.44.77-.56,1.23s-.18.93-.18,1.39.06.95.18,1.4c.12.46.31.87.56,1.23.25.37.58.66.97.89s.86.34,1.39.34Z"/>
        <path class="cls-1" d="m109.5,123.99h2.41v8.57l4.35-4.41h2.96l-4.18,4.01,4.58,6.9h-2.93l-3.33-5.3-1.44,1.39v3.9h-2.41v-15.07Z"/>
        <path class="cls-1" d="m130.97,136.63c0,.3.04.51.12.63.08.13.23.19.45.19h.25c.1,0,.21-.01.34-.04v1.67c-.08.03-.19.06-.33.1-.13.03-.27.07-.41.09s-.28.05-.42.06c-.14.01-.26.02-.36.02-.49,0-.9-.1-1.22-.3-.32-.2-.54-.54-.63-1.03-.48.46-1.07.8-1.76,1.01-.7.21-1.37.32-2.02.32-.49,0-.96-.07-1.41-.2-.45-.13-.85-.33-1.19-.59-.34-.26-.62-.59-.82-.99-.2-.4-.31-.87-.31-1.4,0-.68.12-1.22.37-1.65.25-.42.57-.75.97-.99.4-.24.85-.41,1.35-.52.5-.11,1-.19,1.51-.24.44-.08.85-.14,1.25-.18.39-.04.74-.1,1.04-.18s.54-.21.72-.39.26-.44.26-.79c0-.31-.07-.56-.22-.76-.15-.2-.33-.35-.55-.45-.22-.11-.46-.18-.73-.21s-.52-.05-.76-.05c-.68,0-1.23.14-1.67.42-.44.28-.68.72-.74,1.31h-2.41c.04-.7.21-1.29.51-1.75.3-.46.67-.84,1.13-1.12.46-.28.97-.48,1.55-.59.58-.11,1.17-.17,1.77-.17.53,0,1.06.06,1.58.17.52.11.99.3,1.4.55s.75.58,1,.98c.25.4.38.89.38,1.47v5.61Zm-2.41-3.04c-.37.24-.82.38-1.35.43-.53.05-1.07.12-1.6.22-.25.04-.5.1-.74.18-.24.08-.45.18-.63.32-.18.13-.33.31-.43.53s-.16.48-.16.79c0,.27.08.49.23.68.15.18.34.33.56.43.22.11.46.18.72.22.26.04.5.06.71.06.27,0,.56-.04.87-.11.31-.07.6-.19.88-.36s.5-.38.69-.64c.18-.26.27-.58.27-.96v-1.79Z"/>
        <path class="cls-1" d="m141.84,123.99h3.71l4.16,11.8h.04l4.05-11.8h3.67v15.07h-2.51v-11.63h-.04l-4.18,11.63h-2.17l-4.18-11.63h-.04v11.63h-2.51v-15.07Z"/>
        <path class="cls-1" d="m166.36,139.35c-.87,0-1.65-.14-2.33-.43-.68-.29-1.26-.69-1.73-1.19-.47-.51-.83-1.11-1.08-1.82-.25-.7-.37-1.48-.37-2.32s.12-1.6.37-2.3c.25-.7.6-1.31,1.08-1.81.47-.51,1.05-.9,1.73-1.19.68-.29,1.46-.43,2.33-.43s1.65.14,2.33.43c.68.29,1.26.69,1.73,1.19.47.51.83,1.11,1.08,1.81.25.7.37,1.47.37,2.3s-.12,1.62-.37,2.32c-.25.7-.61,1.31-1.08,1.82-.47.51-1.05.9-1.73,1.19s-1.46.43-2.33.43Zm0-1.9c.53,0,1-.11,1.39-.34.39-.23.72-.52.97-.89.25-.37.44-.78.56-1.23.12-.46.18-.93.18-1.4s-.06-.93-.18-1.39c-.12-.46-.31-.88-.56-1.23s-.58-.65-.97-.88c-.39-.22-.86-.34-1.39-.34s-1,.11-1.39.34c-.39.23-.72.52-.97.88-.25.36-.44.77-.56,1.23-.12.46-.18.93-.18,1.39s.06.95.18,1.4c.12.46.31.87.56,1.23.25.37.58.66.97.89.39.23.86.34,1.39.34Z"/>
        <path class="cls-1" d="m185.21,139.06h-2.28v-1.48h-.04c-.32.63-.79,1.09-1.41,1.36s-1.27.41-1.96.41c-.86,0-1.61-.15-2.25-.45-.64-.3-1.17-.71-1.59-1.23-.42-.52-.74-1.14-.95-1.85-.21-.71-.32-1.47-.32-2.29,0-.98.13-1.84.4-2.55s.62-1.31,1.07-1.77c.44-.46.95-.81,1.52-1.02.57-.22,1.15-.33,1.74-.33.34,0,.68.03,1.03.1.35.06.69.17,1.01.31.32.14.62.32.9.54s.5.47.69.77h.04v-5.57h2.41v15.07Zm-8.4-5.34c0,.46.06.92.18,1.37.12.45.3.85.55,1.2.25.35.56.63.94.84.38.21.83.32,1.35.32s1-.11,1.38-.34c.39-.23.7-.52.95-.89.25-.37.43-.78.55-1.23.12-.46.18-.93.18-1.4,0-1.21-.27-2.15-.81-2.83-.54-.68-1.28-1.01-2.21-1.01-.56,0-1.04.12-1.42.35-.39.23-.7.53-.95.91s-.42.79-.53,1.27c-.11.47-.16.95-.16,1.45Z"/>
        <path class="cls-1" d="m190.76,134.22c0,.42.06.83.18,1.22.12.39.3.74.54,1.03s.54.53.91.71c.37.18.8.26,1.31.26.7,0,1.27-.15,1.7-.45.43-.3.75-.76.96-1.36h2.28c-.13.59-.35,1.12-.65,1.58s-.68.85-1.12,1.17c-.44.32-.93.56-1.47.72-.54.16-1.11.24-1.7.24-.86,0-1.62-.14-2.28-.42-.66-.28-1.22-.68-1.68-1.18-.46-.51-.8-1.11-1.03-1.82-.23-.7-.35-1.48-.35-2.32,0-.77.12-1.51.37-2.21.25-.7.6-1.31,1.06-1.84.46-.53,1.01-.95,1.66-1.26.65-.31,1.38-.46,2.2-.46.86,0,1.63.18,2.31.54.68.36,1.25.83,1.7,1.42.45.59.78,1.27.98,2.04.2.77.26,1.56.16,2.37h-8.02Zm5.61-1.58c-.03-.38-.11-.75-.24-1.1-.13-.35-.32-.66-.55-.92s-.51-.47-.84-.63c-.33-.16-.7-.24-1.11-.24s-.81.07-1.15.22c-.34.15-.64.35-.89.61-.25.26-.44.57-.59.92-.15.35-.23.73-.24,1.14h5.61Z"/>
        <path class="cls-1" d="m201.74,123.99h2.41v15.07h-2.41v-15.07Z"/>
        <path class="cls-1" d="m207.82,123.99h2.41v5.59h.04c.29-.49.73-.9,1.32-1.23.58-.33,1.23-.5,1.95-.5,1.2,0,2.14.31,2.83.93.69.62,1.03,1.55,1.03,2.79v7.49h-2.41v-6.86c-.03-.86-.21-1.48-.55-1.87-.34-.39-.87-.58-1.58-.58-.41,0-.77.07-1.1.22-.32.15-.6.35-.82.61-.23.26-.4.57-.53.92-.13.35-.19.72-.19,1.12v6.44h-2.41v-15.07Z"/>
        <path class="cls-1" d="m225.99,139.35c-.87,0-1.65-.14-2.33-.43-.68-.29-1.26-.69-1.73-1.19-.47-.51-.83-1.11-1.08-1.82-.25-.7-.37-1.48-.37-2.32s.12-1.6.37-2.3c.25-.7.6-1.31,1.08-1.81.47-.51,1.05-.9,1.73-1.19.68-.29,1.46-.43,2.33-.43s1.65.14,2.33.43c.68.29,1.26.69,1.73,1.19.47.51.83,1.11,1.08,1.81.25.7.37,1.47.37,2.3s-.12,1.62-.37,2.32c-.25.7-.61,1.31-1.08,1.82-.47.51-1.05.9-1.73,1.19s-1.46.43-2.33.43Zm0-1.9c.53,0,1-.11,1.39-.34.39-.23.72-.52.97-.89.25-.37.44-.78.56-1.23.12-.46.18-.93.18-1.4s-.06-.93-.18-1.39c-.12-.46-.31-.88-.56-1.23s-.58-.65-.97-.88c-.39-.22-.86-.34-1.39-.34s-1,.11-1.39.34c-.39.23-.72.52-.97.88-.25.36-.44.77-.56,1.23-.12.46-.18.93-.18,1.39s.06.95.18,1.4c.12.46.31.87.56,1.23.25.37.58.66.97.89.39.23.86.34,1.39.34Z"/>
        <path class="cls-1" d="m244.14,139.06h-2.36v-1.52h-.04c-.29.55-.74.99-1.32,1.32-.58.33-1.18.5-1.78.5-1.44,0-2.47-.35-3.11-1.07-.64-.71-.96-1.78-.96-3.22v-6.92h2.41v6.69c0,.96.18,1.63.55,2.03.37.39.88.59,1.54.59.51,0,.93-.08,1.27-.23.34-.15.61-.36.82-.62.21-.26.36-.57.45-.94.09-.37.14-.76.14-1.18v-6.33h2.41v10.91Z"/>
        <path class="cls-1" d="m249.55,135.55c.07.7.34,1.2.8,1.48.46.28,1.02.42,1.67.42.22,0,.48-.02.77-.05.29-.04.56-.1.81-.2.25-.1.46-.24.62-.43s.24-.44.22-.75c-.01-.31-.13-.56-.34-.76-.21-.2-.48-.35-.81-.48-.33-.12-.71-.22-1.13-.31-.42-.08-.85-.18-1.29-.27-.45-.1-.88-.22-1.3-.36-.42-.14-.79-.33-1.12-.57-.33-.24-.59-.55-.79-.92-.2-.37-.3-.83-.3-1.38,0-.59.14-1.09.43-1.49.29-.4.65-.72,1.1-.97s.94-.42,1.48-.52c.54-.1,1.06-.15,1.55-.15.56,0,1.1.06,1.61.18s.98.31,1.39.58c.41.27.76.62,1.03,1.04.27.43.45.95.52,1.55h-2.51c-.11-.58-.38-.96-.79-1.16-.42-.2-.89-.3-1.42-.3-.17,0-.37.01-.6.04-.23.03-.45.08-.65.16-.2.08-.38.19-.52.34s-.21.34-.21.58c0,.3.1.53.31.72.2.18.47.33.8.45s.71.22,1.13.31.86.18,1.31.27c.44.1.87.22,1.29.36.42.14.8.33,1.13.57.33.24.6.54.8.91.2.37.31.82.31,1.35,0,.65-.15,1.2-.44,1.65s-.68.82-1.15,1.1c-.47.28-1,.49-1.57.61-.58.13-1.15.19-1.71.19-.69,0-1.33-.08-1.91-.23-.58-.15-1.09-.39-1.52-.71-.43-.32-.77-.71-1.01-1.18-.25-.47-.38-1.03-.39-1.68h2.41Z"/>
        <path class="cls-1" d="m261.62,134.22c0,.42.06.83.18,1.22.12.39.3.74.54,1.03s.54.53.91.71c.37.18.8.26,1.31.26.7,0,1.27-.15,1.7-.45.43-.3.75-.76.96-1.36h2.28c-.13.59-.34,1.12-.65,1.58s-.68.85-1.12,1.17c-.44.32-.93.56-1.47.72-.54.16-1.11.24-1.7.24-.86,0-1.62-.14-2.28-.42-.66-.28-1.22-.68-1.68-1.18-.46-.51-.8-1.11-1.03-1.82-.23-.7-.35-1.48-.35-2.32,0-.77.12-1.51.37-2.21.25-.7.6-1.31,1.06-1.84.46-.53,1.01-.95,1.66-1.26.65-.31,1.38-.46,2.2-.46.86,0,1.63.18,2.31.54.68.36,1.25.83,1.7,1.42.45.59.78,1.27.98,2.04s.26,1.56.16,2.37h-8.02Zm5.61-1.58c-.03-.38-.11-.75-.24-1.1-.13-.35-.32-.66-.55-.92s-.51-.47-.84-.63-.7-.24-1.11-.24-.81.07-1.15.22c-.35.15-.64.35-.89.61-.25.26-.44.57-.59.92-.15.35-.23.73-.24,1.14h5.61Z"/>
      </g>
    </g>
  </g>
</svg>