<?xml version="1.0" encoding="UTF-8"?>
<svg id="_レイヤー_2" data-name="レイヤー 2" xmlns="http://www.w3.org/2000/svg" viewBox="0 0 200 121.53">
  <defs>
    <style>
      .cls-1 {
        fill: #fff;
        stroke-width: 0px;
      }
    </style>
  </defs>
  <g id="_レイヤー_1-2" data-name="レイヤー 1">
    <g>
      <g>
        <path class="cls-1" d="M115.91,82.14c0-.57.48-1.1,1.15-1.1.14,0,.24,0,.43.05,4.12,1.25,6.13,3.69,6.13,5.13,0,.91-.24,1.49-.58,2.01-.43,2.59-1.01,5.94-1.49,8.96-.43,2.78-.82,5.65-.82,8.48,0,5.61,2.4,9.68,5.8,13.66.24.29.34.57.34.86,0,.72-.53,1.34-1.29,1.34-.29,0-.62-.1-.91-.38-4.41-4.03-7.19-8.72-7.19-15.29,0-3.16.38-6.37.86-9.53.57-3.98.91-6.76,1.15-9.82-.77-1.44-1.68-2.44-3.11-3.5-.34-.24-.48-.58-.48-.86ZM127.12,91.53c0-.43.34-.86.91-.86.24,0,.58.05.77.1,2.97.62,5.7,2.01,7.62,3.74.58.53.96,1.2.96,1.87,0,1.05-.58,1.72-1.44,1.72-.43,0-.96-.19-1.44-.77-1.73-2.16-4.22-3.93-6.66-4.89-.48-.19-.72-.57-.72-.91ZM130.81,86.88c0-.43.34-.86.91-.86.24,0,.57.05.77.1,2.97.62,5.7,2.01,7.62,3.74.58.53.96,1.2.96,1.87,0,1.05-.57,1.72-1.44,1.72-.43,0-.96-.19-1.44-.77-1.73-2.16-4.22-3.93-6.66-4.89-.48-.19-.72-.57-.72-.91Z"/>
        <path class="cls-1" d="M176.52,93.21c3.83-1.63,8-2.87,12.22-2.87,7.14,0,11.26,4.79,11.26,11.07,0,7.76-7.62,11.55-15.19,13.13-.48.1-.67.1-.77.1-.77,0-1.25-.48-1.25-1.15,0-.57.29-.96,1.05-1.15,7.52-1.92,12.46-6.37,12.46-11.69,0-4.55-2.78-7.86-7.28-7.81-3.02.05-6.85,1.05-13.18,4.07-3.5,1.68-5.32,2.4-6.9,2.4-2.73,0-4.74-1.44-5.61-3.74-.24-.62-.38-1.25-.38-1.77,0-.77.53-1.15,1.1-1.15.38,0,.81.24,1.01.57.91,1.63,1.63,2.16,3.69,2.16,1.58,0,3.64-.48,7.76-2.16Z"/>
      </g>
      <g>
        <path class="cls-1" d="M13.37,18.4c4.36-4.79,10.06-10.01,14.57-10.01,4.84,0,6.47,5.27,6.47,14.09,0,2.87-.14,5.27-.57,7.23,1.96.96,3.78,2.2,5.41,3.64.67.57.91,1.2.91,1.82,0,1.05-.67,1.92-1.63,1.92-.48,0-1.01-.14-1.49-.62-1.29-1.29-2.73-2.54-4.31-3.64-1.25,2.35-3.4,3.55-6.8,3.55-3.59,0-6.66-1.49-6.66-4.5s3.74-4.26,6.18-4.26c1.77,0,3.5.29,5.22.81.34-1.92.43-4.31.43-7.14,0-7.33-1.25-10.35-3.98-10.35-3.16,0-9.25,5.65-13.8,10.83-.05,1.63-.05,3.02-.05,4.7,0,3.4.1,8.29.14,9.82.05,1.58.05,2.01.05,2.2,0,1.15-.62,1.82-1.58,1.82-1.2,0-1.53-.86-1.53-2.35l-3.11-1.1c-.43-.14-.67-.57-.67-1.01,0-.53.33-1.01,1.01-1.01.1,0,.19,0,.53.05l2.25.33v-2.01c0-2.83.05-5.46.1-7.95-1.96,3.02-4.02,6.23-5.85,9.01-.48.72-1.01,1.05-1.68,1.05-1.01,0-1.49-.72-1.49-1.77,0-.72.24-1.44.67-1.97,1.77-2.06,5.37-6.42,8.53-11.36.05-1.49.1-2.92.14-4.41-1.68.62-3.59,1.34-5.22,2.06-.53.57-1.15.67-1.82.67-1.58,0-3.07-1.73-3.64-3.59-.05-.19-.1-.33-.1-.48,0-.62.48-.91.91-.91.24,0,.48.1.67.29.67.72,1.44,1.25,1.92,1.39,2.64-.38,5.03-1.1,7.38-1.92.1-2.01.14-3.93.14-6.04s-.67-3.59-2.25-5.41c-.19-.24-.29-.48-.29-.72,0-.67.48-1.15,1.2-1.15.24,0,.53.14.77.29,2.73,1.87,3.64,3.98,3.64,5.89,0,.48-.05,1.15-.14,2.11-.1,1.05-.19,2.4-.29,4.22.86,0,1.34.62,1.34,1.34,0,.67-.14,1.44-1.58,3.31l-.05,1.25ZM25.39,29.95c-1.1,0-3.83.1-3.83,1.77,0,.91,1.1,1.87,3.98,1.87,2.11,0,3.45-.86,4.26-2.44-1.49-.72-2.97-1.2-4.41-1.2Z"/>
        <path class="cls-1" d="M59.18,8.96c0-.57.43-1.05,1.01-1.05.29,0,.57.1.86.29,2.83,2.06,4.46,4.7,4.46,7.09,0,.53-.05,1.29-.1,1.77-.05.67-.14,1.92-.14,3.31,0,4.03,1.1,7.19,2.68,8.58,1.58-2.64,2.59-4.36,3.74-6.33.19-.34.58-.53.91-.53.62,0,1.2.38,1.2,1.01,0,.19,0,.38-.1.62-.81,1.77-1.96,4.27-2.92,6.66.29.77.34,1.29.34,1.82,0,.91-.67,1.72-1.63,1.72s-1.82-.33-2.78-1.25c-3.55-3.35-4.55-8.34-4.55-15.38,0-3.11-.38-4.89-2.63-7.43-.24-.29-.34-.57-.34-.91ZM93.29,24.05c-1.29-3.88-5.08-7.76-9.34-9.87-.48-.24-.67-.62-.67-1.05,0-.53.38-1.05,1.05-1.05.1,0,.19,0,.38.05,5.27,1.63,10.88,6.56,12.41,11.69.29.91.43,1.58.43,2.25,0,1.39-.81,2.25-1.73,2.25s-1.49-.38-1.96-1.39l-2.97-.38c-.77-.14-1.1-.62-1.1-1.15,0-.57.38-1.1,1.05-1.15l2.44-.19Z"/>
      </g>
      <polygon class="cls-1" points="0 103.43 200 16.06 200 12 0 99.37 0 103.43"/>
    </g>
  </g>
</svg>