<?xml version="1.0" encoding="UTF-8"?>
<svg id="_レイヤー_2" data-name="レイヤー 2" xmlns="http://www.w3.org/2000/svg" viewBox="0 0 214.06 222.33">
  <defs>
    <style>
      .cls-1 {
        fill: #131111;
      }

      .cls-1, .cls-2 {
        stroke-width: 0px;
      }
    </style>
  </defs>
  <g id="_レイヤー_1-2" data-name="レイヤー 1">
    <g>
      <g>
        <g>
          <path class="cls-2" d="m141.03,24.11c-11.17-8.66-24.44-13.6-37.97-14.83v-1.88h2.54l-3.16-7.4-3.17,7.4h2.53v1.78c-1.69-.13-3.38-.2-5.07-.21v-1.57h2.54l-3.16-7.4-3.17,7.4h2.54v1.58c-1.69.02-3.39.08-5.07.22v-1.81h2.53l-3.17-7.4-3.16,7.4h2.55v1.92c-6.46.62-12.86,2.08-18.99,4.4v-1.5l-30.76-2.9v-2.95h2.66l-6.37-6.37-6.36,6.37h2.66v2.95L1.26,12.21h-.23v9.88h8.57v-6l26.11-2.46,25.9,2.45v1.52c-.21.12-.43.25-.65.36v-1.04l-25.26-2.49-25.24,2.49v3.89l11.52-1.08-11.52,3.04v5.74l13.95-3.68,1.79.55-15.74,4.15v5.76l26.44-6.98,2.07.5-28.51,7.53v5.74l34.01-8.98-14.79,8.21,21.91-6.92v2.34c6.92-6.91,15.17-11.86,24-14.85.57.37,1.15.74,1.73,1.08l-3.88,3.88,4.8,4.81,5.64-5.63c1.59.56,3.22,1.02,4.9,1.37,2.44.49,4.96.76,7.54.76s5.09-.27,7.53-.76c.56-.11,1.12-.24,1.67-.38-.17.2-.35.41-.54.6-2.23,2.22-5.26,3.59-8.65,3.59s-6.43-1.37-8.66-3.58l-6.72,6.73c3.91,3.94,9.38,6.39,15.38,6.39s11.45-2.45,15.38-6.39c3.22-3.21,5.44-7.46,6.13-12.18,8.53,3.01,16.49,7.86,23.2,14.57v-12.63ZM34.32,9.09v-2.73h2.78v2.73l-1.39-.14-1.38.14Zm2.28,11.26v-1.82l20.19,1.9c-.67.44-1.33.88-2,1.34h-22.81l4.63-1.42Zm65.88.38c-2,.4-4.05.61-6.18.61s-4.18-.22-6.18-.61c-1.58-.33-3.12-.78-4.6-1.33,3.56-.59,7.17-.91,10.78-.91s7.21.32,10.77.91c-1.49.56-3.02,1.01-4.59,1.33Z"/>
          <polygon class="cls-2" points="29.67 41.31 51.58 36.73 52.83 31.99 29.67 41.31"/>
        </g>
        <g>
          <path class="cls-2" d="m35.54,62.57h3.3l2.49,4.88,2.49-4.88h3.3l-7.3,14.37h-3.3l3.17-6.21-4.15-8.17Z"/>
          <path class="cls-2" d="m50.71,71.96l-.74,1.92h-3.06l4.39-11.32h3.55l4.39,11.32h-3.06l-.74-1.92h-4.75Zm3.83-2.41l-1.45-3.77-1.45,3.77h2.9Z"/>
          <path class="cls-2" d="m63.06,73.89h-2.92l1.4-11.32h2.38l2.92,5.11,2.92-5.11h2.38l1.4,11.32h-2.92l-.72-6.19-2.13,3.73h-1.85l-2.13-3.73-.72,6.19Z"/>
          <path class="cls-2" d="m80.72,74.07c-3.9,0-5.28-2.38-5.28-5.85s1.38-5.85,5.28-5.85,5.28,2.38,5.28,5.85-1.38,5.85-5.28,5.85Zm0-9.22c-1.77,0-2.23,1.3-2.23,3.38s.45,3.4,2.23,3.4,2.23-1.3,2.23-3.4-.45-3.38-2.23-3.38Z"/>
          <path class="cls-2" d="m97.96,71.08c.25.53.41.87,1,.87.19,0,.41-.04.6-.11v1.83c-.42.17-1.13.42-2.06.42s-1.72-.38-2.06-1.09c-.81-1.72-.66-3.28-2.85-3.28-.51,0-.89.09-1.06.15v4.04h-3.06v-11.32h5.38c3,0,4.51,1.64,4.51,3.54,0,1.15-.53,2.23-1.6,2.9.47.55.83,1.25,1.19,2.06Zm-6.41-6.07v2.34h2.26c1.02,0,1.55-.47,1.55-1.17s-.53-1.17-1.55-1.17h-2.26Z"/>
          <path class="cls-2" d="m104.56,62.57v11.32h-3.06v-11.32h3.06Z"/>
        </g>
      </g>
      <g>
        <g>
          <path class="cls-1" d="m5.41,147.06l-5.41-8.76h2.93l3.81,6.46,3.75-6.46h2.83l-5.39,8.76v5.65h-2.52v-5.65Z"/>
          <path class="cls-1" d="m19.8,138.3h2.68l5.55,14.41h-2.7l-1.35-3.82h-5.75l-1.35,3.82h-2.6l5.53-14.41Zm-.89,8.68h4.4l-2.16-6.2h-.06l-2.18,6.2Z"/>
          <path class="cls-1" d="m32.2,138.3h3.55l3.98,11.28h.04l3.88-11.28h3.51v14.41h-2.4v-11.12h-.04l-4,11.12h-2.08l-4-11.12h-.04v11.12h-2.4v-14.41Z"/>
          <path class="cls-1" d="m59.14,137.95c1.08,0,2.04.2,2.9.61.85.4,1.58.95,2.17,1.64.59.69,1.05,1.49,1.36,2.4.32.92.47,1.88.47,2.91s-.16,2.01-.47,2.93c-.32.92-.77,1.72-1.36,2.4-.59.69-1.32,1.23-2.17,1.62-.85.4-1.82.59-2.9.59s-2.04-.2-2.9-.59c-.85-.4-1.58-.94-2.17-1.62-.59-.69-1.05-1.49-1.36-2.4-.32-.92-.47-1.89-.47-2.93s.16-1.99.47-2.91c.32-.92.77-1.72,1.36-2.4.59-.69,1.31-1.23,2.17-1.64.85-.4,1.82-.61,2.9-.61Zm0,2.06c-.77,0-1.43.15-1.99.46-.56.31-1.01.72-1.36,1.24-.35.52-.61,1.11-.78,1.77-.17.66-.25,1.33-.25,2.02s.08,1.36.25,2.02c.17.66.43,1.25.78,1.77.35.52.8.93,1.36,1.24.56.31,1.22.46,1.99.46s1.43-.15,1.99-.46c.56-.31,1.01-.72,1.36-1.24.35-.52.61-1.11.78-1.77.17-.66.25-1.33.25-2.02s-.08-1.36-.25-2.02c-.17-.66-.43-1.25-.78-1.77-.35-.52-.8-.93-1.36-1.24-.56-.31-1.22-.46-1.99-.46Z"/>
          <path class="cls-1" d="m71.17,138.3h6.88c1.59,0,2.78.34,3.57,1.03.79.69,1.19,1.64,1.19,2.87,0,.69-.1,1.25-.3,1.71-.2.45-.44.81-.71,1.09-.27.28-.54.47-.8.6-.26.12-.45.2-.58.24v.04c.21.03.45.09.7.2.25.11.48.28.7.51s.39.54.54.92c.14.38.21.85.21,1.41,0,.85.06,1.62.19,2.31.13.69.33,1.19.6,1.48h-2.7c-.19-.31-.3-.65-.33-1.03s-.05-.74-.05-1.09c0-.66-.04-1.23-.12-1.71s-.23-.88-.44-1.19c-.22-.32-.51-.55-.88-.7-.37-.15-.84-.22-1.42-.22h-3.71v5.93h-2.52v-14.41Zm2.52,6.56h4.14c.81,0,1.42-.19,1.84-.58.42-.38.63-.96.63-1.73,0-.46-.07-.83-.2-1.12-.13-.29-.32-.51-.56-.68-.24-.16-.5-.27-.81-.32s-.62-.08-.94-.08h-4.1v4.5Z"/>
          <path class="cls-1" d="m89.02,138.3h2.52v14.41h-2.52v-14.41Z"/>
          <path class="cls-1" d="m108.76,147.91c0,.55.09,1.02.28,1.41.19.39.45.71.79.96.34.25.72.43,1.16.54.44.12.91.17,1.42.17.55,0,1.02-.06,1.41-.19.39-.13.71-.29.95-.5.24-.2.42-.43.52-.7.11-.26.16-.53.16-.8,0-.55-.12-.96-.37-1.22-.25-.26-.52-.45-.82-.55-.51-.19-1.11-.37-1.79-.54-.68-.17-1.52-.39-2.51-.66-.62-.16-1.13-.37-1.54-.64-.41-.26-.74-.55-.98-.88s-.41-.67-.52-1.03c-.1-.36-.15-.73-.15-1.11,0-.73.15-1.36.45-1.89.3-.53.7-.97,1.2-1.32.5-.35,1.06-.61,1.7-.78.63-.17,1.27-.25,1.92-.25.75,0,1.46.1,2.13.29.67.2,1.25.49,1.76.88.5.39.9.87,1.2,1.44.3.57.44,1.23.44,1.99h-2.52c-.07-.93-.38-1.58-.95-1.97-.57-.38-1.29-.58-2.16-.58-.3,0-.6.03-.91.09s-.59.16-.85.3c-.26.14-.47.33-.64.58-.17.24-.25.54-.25.91,0,.51.16.91.47,1.2s.73.51,1.24.66c.05.01.27.07.64.17.37.1.78.21,1.24.33s.91.24,1.34.35c.44.11.75.2.94.25.47.15.88.35,1.23.61.35.26.64.55.88.88.24.33.41.68.52,1.06.11.38.17.75.17,1.13,0,.81-.17,1.5-.49,2.07s-.76,1.04-1.3,1.4c-.54.36-1.15.63-1.84.8-.69.17-1.39.25-2.1.25-.82,0-1.59-.1-2.32-.3-.73-.2-1.36-.51-1.9-.93s-.97-.95-1.29-1.61c-.32-.65-.49-1.42-.5-2.31h2.52Z"/>
          <path class="cls-1" d="m120.83,138.3h11.67v2.18h-4.58v12.23h-2.52v-12.23h-4.56v-2.18Z"/>
          <path class="cls-1" d="m141.16,147.06l-5.41-8.76h2.93l3.81,6.46,3.75-6.46h2.83l-5.39,8.76v5.65h-2.52v-5.65Z"/>
          <path class="cls-1" d="m153.31,138.3h2.52v12.23h7.33v2.18h-9.85v-14.41Z"/>
          <path class="cls-1" d="m167.32,138.3h10.38v2.18h-7.85v3.77h7.27v2.06h-7.27v4.22h7.99v2.18h-10.52v-14.41Z"/>
          <path class="cls-1" d="m184.33,149.99h2.81v2.72h-2.81v-2.72Z"/>
          <path class="cls-1" d="m3.31,173.02c0,.55.09,1.02.28,1.41.19.39.45.71.79.96.34.25.72.43,1.16.54.44.12.91.17,1.42.17.55,0,1.02-.06,1.41-.19.39-.13.71-.29.95-.5.24-.2.42-.43.52-.7.11-.26.16-.53.16-.8,0-.55-.12-.96-.37-1.22-.25-.26-.52-.45-.82-.55-.51-.19-1.11-.37-1.79-.54-.68-.17-1.52-.39-2.51-.66-.62-.16-1.13-.37-1.54-.64-.41-.26-.74-.55-.98-.88s-.41-.67-.52-1.03c-.1-.36-.15-.73-.15-1.11,0-.73.15-1.36.45-1.89.3-.53.7-.97,1.2-1.32.5-.35,1.06-.61,1.7-.78.63-.17,1.27-.25,1.92-.25.75,0,1.46.1,2.13.29.67.2,1.25.49,1.76.88.5.39.9.87,1.2,1.44.3.57.44,1.23.44,1.99h-2.52c-.07-.93-.38-1.58-.95-1.97-.57-.38-1.29-.58-2.16-.58-.3,0-.6.03-.91.09s-.59.16-.85.3c-.26.14-.47.33-.64.58-.17.24-.25.54-.25.91,0,.51.16.91.47,1.2s.73.51,1.24.66c.05.01.27.07.64.17.37.1.78.21,1.24.33s.91.24,1.34.35c.44.11.75.2.94.25.47.15.88.35,1.23.61.35.26.64.55.88.88.24.33.41.68.52,1.06.11.38.17.75.17,1.13,0,.81-.17,1.5-.49,2.07s-.76,1.04-1.3,1.4c-.54.36-1.15.63-1.84.8-.69.17-1.39.25-2.1.25-.82,0-1.59-.1-2.32-.3-.73-.2-1.36-.51-1.9-.93s-.97-.95-1.29-1.61c-.32-.65-.49-1.42-.5-2.31h2.52Z"/>
          <path class="cls-1" d="m21.01,163.42h2.68l5.55,14.41h-2.7l-1.35-3.82h-5.75l-1.35,3.82h-2.6l5.53-14.41Zm-.89,8.68h4.4l-2.16-6.2h-.06l-2.18,6.2Z"/>
          <path class="cls-1" d="m33.45,163.42h2.52v12.23h7.33v2.18h-9.85v-14.41Z"/>
          <path class="cls-1" d="m52.38,163.07c1.08,0,2.04.2,2.9.61.85.4,1.58.95,2.17,1.64.59.69,1.05,1.49,1.36,2.4.32.92.47,1.88.47,2.91s-.16,2.01-.47,2.93c-.32.92-.77,1.72-1.36,2.4-.59.69-1.32,1.23-2.17,1.62-.85.4-1.82.59-2.9.59s-2.04-.2-2.9-.59c-.85-.4-1.58-.94-2.17-1.62-.59-.69-1.05-1.49-1.36-2.4-.32-.92-.47-1.89-.47-2.93s.16-1.99.47-2.91c.32-.92.77-1.72,1.36-2.4.59-.69,1.31-1.23,2.17-1.64.85-.4,1.82-.61,2.9-.61Zm0,2.06c-.77,0-1.43.15-1.99.46-.56.31-1.01.72-1.36,1.24-.35.52-.61,1.11-.78,1.77-.17.66-.25,1.33-.25,2.02s.08,1.36.25,2.02c.17.66.43,1.25.78,1.77.35.52.8.93,1.36,1.24.56.31,1.22.46,1.99.46s1.43-.15,1.99-.46c.56-.31,1.01-.72,1.36-1.24.35-.52.61-1.11.78-1.77.17-.66.25-1.33.25-2.02s-.08-1.36-.25-2.02c-.17-.66-.43-1.25-.78-1.77-.35-.52-.8-.93-1.36-1.24-.56-.31-1.22-.46-1.99-.46Z"/>
          <path class="cls-1" d="m64.71,163.42h2.66l6.58,10.62h.04v-10.62h2.4v14.41h-2.66l-6.56-10.6h-.06v10.6h-2.4v-14.41Z"/>
          <path class="cls-1" d="m96.73,176.21c-.54.66-1.13,1.14-1.79,1.44-.65.3-1.4.45-2.25.45-.66,0-1.27-.1-1.83-.29-.56-.2-1.04-.47-1.44-.84s-.72-.81-.94-1.34c-.22-.53-.33-1.13-.33-1.81,0-.51.09-.98.28-1.39.19-.42.44-.8.75-1.14.31-.34.66-.65,1.06-.92.4-.27.8-.51,1.22-.73-.19-.24-.37-.48-.55-.72s-.33-.48-.46-.74c-.13-.25-.24-.52-.32-.81-.08-.28-.12-.58-.12-.89,0-.52.09-1,.27-1.41.18-.42.43-.78.76-1.08.32-.3.7-.53,1.13-.7.43-.16.89-.24,1.37-.24.46,0,.9.07,1.34.21.44.14.82.36,1.15.65.33.29.6.65.8,1.08s.3.94.3,1.51c0,.43-.07.83-.21,1.19s-.33.7-.56,1c-.24.3-.51.58-.83.82-.32.24-.65.46-1,.65l2.24,2.71c.08-.23.16-.49.24-.79s.15-.68.2-1.15h2.02c-.07.63-.19,1.25-.37,1.86s-.43,1.16-.76,1.68l2.77,3.35h-2.83l-1.31-1.62Zm-4.06-5.05c-.22.13-.45.27-.71.4-.26.13-.49.3-.72.5-.22.2-.41.44-.57.73-.15.28-.23.64-.23,1.07,0,.78.22,1.38.66,1.8.44.42.99.63,1.67.63.42,0,.77-.06,1.07-.17.3-.11.55-.25.76-.41.21-.16.38-.34.52-.53.14-.19.27-.36.37-.5l-2.83-3.51Zm.93-6.38c-.43,0-.79.14-1.09.43-.3.29-.44.68-.44,1.16,0,.24.04.47.13.68.09.21.19.41.32.61s.27.39.42.58.3.37.43.54c.21-.15.42-.3.63-.45.2-.15.38-.32.55-.5.16-.18.29-.39.38-.62.09-.23.14-.48.14-.77,0-.47-.13-.86-.4-1.18-.27-.32-.63-.47-1.07-.47Z"/>
          <path class="cls-1" d="m121.96,177.83h-1.62l-.38-1.7c-.67.77-1.35,1.3-2.02,1.59s-1.45.44-2.32.44c-1.08,0-2.04-.2-2.9-.59-.85-.4-1.58-.94-2.17-1.62-.59-.69-1.05-1.49-1.36-2.4-.32-.92-.47-1.89-.47-2.93s.16-1.99.47-2.91c.32-.92.77-1.72,1.36-2.4.59-.69,1.31-1.23,2.17-1.64.85-.4,1.82-.61,2.9-.61.78,0,1.52.1,2.23.31.71.21,1.34.52,1.89.93.55.41,1.01.93,1.37,1.54s.59,1.33.69,2.14h-2.46c-.07-.47-.21-.88-.43-1.24-.22-.36-.5-.66-.84-.9s-.71-.42-1.13-.54c-.42-.12-.85-.18-1.31-.18-.77,0-1.43.15-1.99.46-.56.31-1.01.72-1.36,1.24-.35.52-.61,1.11-.78,1.77-.17.66-.25,1.33-.25,2.02s.08,1.36.25,2.02c.17.66.43,1.25.78,1.77.35.52.8.93,1.36,1.24.56.31,1.22.46,1.99.46.65.01,1.22-.07,1.72-.25.5-.18.92-.44,1.26-.79.34-.34.6-.76.78-1.26s.27-1.05.28-1.66h-3.84v-1.92h6.14v7.59Z"/>
          <path class="cls-1" d="m130.98,163.42h2.68l5.55,14.41h-2.7l-1.35-3.82h-5.75l-1.35,3.82h-2.6l5.53-14.41Zm-.89,8.68h4.4l-2.16-6.2h-.06l-2.18,6.2Z"/>
          <path class="cls-1" d="m143.42,163.42h2.52v12.23h7.33v2.18h-9.85v-14.41Z"/>
          <path class="cls-1" d="m156.62,163.42h2.52v12.23h7.33v2.18h-9.85v-14.41Z"/>
          <path class="cls-1" d="m170.63,163.42h10.38v2.18h-7.85v3.77h7.27v2.06h-7.27v4.22h7.99v2.18h-10.52v-14.41Z"/>
          <path class="cls-1" d="m185.77,163.42h6.88c1.59,0,2.78.34,3.57,1.03.79.69,1.19,1.64,1.19,2.87,0,.69-.1,1.25-.3,1.71-.2.45-.44.81-.71,1.09-.27.28-.54.47-.8.6-.26.12-.45.2-.58.24v.04c.21.03.45.09.7.2.25.11.48.28.7.51s.39.54.54.92c.14.38.21.85.21,1.41,0,.85.06,1.62.19,2.31.13.69.33,1.19.6,1.48h-2.7c-.19-.31-.3-.65-.33-1.03s-.05-.74-.05-1.09c0-.66-.04-1.23-.12-1.71s-.23-.88-.44-1.19c-.22-.32-.51-.55-.88-.7-.37-.15-.84-.22-1.42-.22h-3.71v5.93h-2.52v-14.41Zm2.52,6.56h4.14c.81,0,1.42-.19,1.84-.58.42-.38.63-.96.63-1.73,0-.46-.07-.83-.2-1.12-.13-.29-.32-.51-.56-.68-.24-.16-.5-.27-.81-.32s-.62-.08-.94-.08h-4.1v4.5Z"/>
          <path class="cls-1" d="m206.15,172.18l-5.41-8.76h2.93l3.81,6.46,3.75-6.46h2.83l-5.39,8.76v5.65h-2.52v-5.65Z"/>
        </g>
        <g>
          <path class="cls-1" d="m5.4,198.84l-3.33-5.39h1.8l2.35,3.97,2.31-3.97h1.74l-3.32,5.39v3.48h-1.55v-3.48Z"/>
          <path class="cls-1" d="m16.94,200.89c0,.17.02.3.07.37.05.07.13.11.27.11h.15c.06,0,.12,0,.2-.02v.98s-.11.04-.19.06c-.08.02-.16.04-.24.06-.08.02-.17.03-.25.04-.08,0-.15.01-.21.01-.29,0-.53-.06-.72-.17s-.31-.32-.37-.61c-.28.27-.63.47-1.04.6-.41.12-.81.19-1.19.19-.29,0-.57-.04-.83-.12-.27-.08-.5-.19-.7-.35s-.36-.35-.48-.58c-.12-.24-.18-.51-.18-.83,0-.4.07-.72.22-.97.15-.25.34-.44.57-.58.24-.14.5-.24.79-.3.29-.06.59-.11.89-.14.26-.05.5-.08.73-.11.23-.02.44-.06.61-.11.18-.05.32-.13.42-.23s.16-.26.16-.47c0-.18-.04-.33-.13-.45s-.19-.21-.32-.27c-.13-.06-.27-.1-.43-.12-.16-.02-.31-.03-.45-.03-.4,0-.73.08-.98.25-.26.17-.4.42-.43.77h-1.42c.02-.41.12-.76.3-1.03s.4-.49.66-.66c.27-.17.57-.28.91-.35.34-.07.69-.1,1.04-.1.31,0,.62.03.93.1.31.07.58.17.83.32.24.15.44.34.59.58.15.24.22.52.22.86v3.3Zm-1.42-1.79c-.22.14-.48.23-.79.25-.31.03-.63.07-.94.13-.15.02-.29.06-.43.11-.14.05-.27.11-.37.19-.11.08-.19.18-.25.31-.06.13-.09.28-.09.47,0,.16.05.29.14.4.09.11.2.19.33.25.13.06.27.11.42.13.15.03.29.04.42.04.16,0,.33-.02.51-.06.18-.04.35-.11.52-.21.16-.1.3-.23.4-.38.11-.15.16-.34.16-.56v-1.06Z"/>
          <path class="cls-1" d="m19.09,195.9h1.34v.89h.04c.11-.16.22-.3.35-.44.12-.13.26-.24.42-.33.15-.09.33-.16.53-.22.2-.05.43-.08.68-.08.39,0,.75.09,1.09.26s.57.44.71.81c.24-.33.52-.59.83-.78.31-.19.71-.29,1.18-.29.68,0,1.21.17,1.58.5.38.33.56.89.56,1.67v4.43h-1.42v-3.75c0-.26,0-.49-.02-.7s-.06-.39-.14-.55c-.08-.15-.2-.27-.35-.35-.16-.08-.37-.12-.65-.12-.48,0-.83.15-1.04.45-.22.3-.32.72-.32,1.27v3.76h-1.42v-4.12c0-.45-.08-.78-.24-1.01-.16-.23-.46-.34-.89-.34-.18,0-.36.04-.53.11-.17.07-.32.18-.45.32s-.23.31-.31.52-.12.44-.12.71v3.81h-1.42v-6.42Z"/>
          <path class="cls-1" d="m33.47,202.49c-.51,0-.97-.08-1.37-.25-.4-.17-.74-.4-1.02-.7-.28-.3-.49-.65-.63-1.07s-.22-.87-.22-1.37.07-.94.22-1.35.36-.77.63-1.07.62-.53,1.02-.7c.4-.17.86-.25,1.37-.25s.97.08,1.37.25c.4.17.74.4,1.02.7.28.3.49.65.63,1.07s.22.87.22,1.35-.07.95-.22,1.37-.36.77-.63,1.07c-.28.3-.62.53-1.02.7-.4.17-.86.25-1.37.25Zm0-1.12c.31,0,.59-.07.82-.2.23-.13.42-.31.57-.52.15-.22.26-.46.33-.73.07-.27.11-.54.11-.83s-.04-.55-.11-.82-.18-.52-.33-.73-.34-.38-.57-.52c-.23-.13-.51-.2-.82-.2s-.59.07-.82.2c-.23.13-.42.3-.57.52-.15.21-.26.45-.33.73s-.11.55-.11.82.04.56.11.83c.07.27.18.51.33.73.15.21.34.39.57.52.23.13.5.2.82.2Z"/>
          <path class="cls-1" d="m38.51,195.9h1.33v1.24h.02c.04-.17.12-.34.24-.51.12-.17.27-.32.44-.45.17-.14.36-.25.56-.33s.42-.12.63-.12c.17,0,.28,0,.34.01.06,0,.13.02.19.03v1.37c-.1-.02-.2-.03-.3-.04-.1-.01-.2-.02-.3-.02-.24,0-.47.05-.68.14-.21.09-.4.24-.55.42-.16.19-.28.42-.37.69-.09.27-.14.59-.14.94v3.06h-1.42v-6.42Z"/>
          <path class="cls-1" d="m43.54,193.45h1.42v1.34h-1.42v-1.34Zm0,2.45h1.42v6.42h-1.42v-6.42Z"/>
          <path class="cls-1" d="m55.53,198.05c-.06-.4-.22-.7-.48-.9-.26-.2-.59-.3-.99-.3-.18,0-.38.03-.58.09-.21.06-.4.18-.57.35s-.32.41-.43.71c-.12.3-.17.7-.17,1.19,0,.26.03.53.09.79.06.26.16.5.3.71s.31.38.53.5c.22.13.48.19.78.19.41,0,.76-.13,1.02-.38.27-.26.44-.62.5-1.08h1.42c-.13.84-.45,1.48-.95,1.92-.5.44-1.17.66-1.99.66-.51,0-.95-.08-1.34-.25-.39-.17-.71-.4-.98-.7s-.47-.64-.6-1.05c-.14-.41-.21-.84-.21-1.32s.07-.93.2-1.35c.13-.42.33-.79.6-1.1.26-.31.59-.55.99-.73.39-.18.85-.27,1.39-.27.37,0,.73.05,1.06.14.34.1.63.24.89.43.26.19.47.43.64.72.17.29.26.63.3,1.03h-1.42Z"/>
          <path class="cls-1" d="m61.66,202.49c-.51,0-.97-.08-1.37-.25-.4-.17-.74-.4-1.02-.7-.28-.3-.49-.65-.63-1.07s-.22-.87-.22-1.37.07-.94.22-1.35.36-.77.63-1.07.62-.53,1.02-.7c.4-.17.86-.25,1.37-.25s.97.08,1.37.25c.4.17.74.4,1.02.7.28.3.49.65.63,1.07s.22.87.22,1.35-.07.95-.22,1.37-.36.77-.63,1.07c-.28.3-.62.53-1.02.7-.4.17-.86.25-1.37.25Zm0-1.12c.31,0,.59-.07.82-.2.23-.13.42-.31.57-.52.15-.22.26-.46.33-.73.07-.27.11-.54.11-.83s-.04-.55-.11-.82-.18-.52-.33-.73-.34-.38-.57-.52c-.23-.13-.51-.2-.82-.2s-.59.07-.82.2c-.23.13-.42.3-.57.52-.15.21-.26.45-.33.73s-.11.55-.11.82.04.56.11.83c.07.27.18.51.33.73.15.21.34.39.57.52.23.13.5.2.82.2Z"/>
          <path class="cls-1" d="m66.82,200.64h1.73v1.68h-1.73v-1.68Z"/>
          <path class="cls-1" d="m70.89,200.64h1.73v1.68c0,.51-.17.94-.47,1.29-.31.35-.71.57-1.21.67v-.76c.27-.07.48-.22.61-.45.14-.24.2-.49.19-.75h-.86v-1.68Z"/>
          <path class="cls-1" d="m74.89,193.45h1.42v8.87h-1.42v-8.87Z"/>
          <path class="cls-1" d="m77.82,195.9h1.07v-1.93h1.42v1.93h1.28v1.06h-1.28v3.43c0,.15,0,.28.02.38.01.11.04.2.09.27.05.07.11.13.21.17.09.04.21.06.37.06.1,0,.2,0,.3,0,.1,0,.2-.02.3-.04v1.09c-.16.02-.31.03-.46.05-.15.02-.3.03-.46.03-.37,0-.67-.04-.9-.11-.23-.07-.41-.17-.53-.31-.13-.14-.22-.31-.26-.51-.05-.21-.07-.44-.08-.71v-3.79h-1.07v-1.06Z"/>
          <path class="cls-1" d="m89.28,202.32h-1.34v-.87h-.02c-.19.37-.47.64-.83.8-.36.16-.75.24-1.16.24-.51,0-.95-.09-1.32-.27-.38-.18-.69-.42-.94-.73-.25-.31-.44-.67-.56-1.09-.12-.42-.19-.87-.19-1.35,0-.58.08-1.08.24-1.5.16-.42.37-.77.63-1.04.26-.27.56-.47.89-.6.34-.13.68-.19,1.02-.19.2,0,.4.02.61.06s.41.1.6.18c.19.08.37.19.53.32.16.13.3.28.4.45h.02v-3.28h1.42v8.87Zm-4.94-3.14c0,.27.03.54.11.81.07.26.18.5.32.71s.33.37.55.5c.22.12.49.19.79.19s.59-.07.81-.2c.23-.13.41-.31.56-.52.14-.22.25-.46.32-.73.07-.27.11-.54.11-.83,0-.71-.16-1.27-.48-1.67s-.75-.6-1.3-.6c-.33,0-.61.07-.84.21-.23.14-.41.32-.56.53-.15.22-.25.47-.31.75-.06.28-.09.56-.09.85Z"/>
          <path class="cls-1" d="m91.55,200.64h1.73v1.68h-1.73v-1.68Z"/>
          <path class="cls-1" d="m3.09,210.92h6.12v1.34h-4.57v2.32h4.01v1.27h-4.01v3.94h-1.55v-8.87Z"/>
          <path class="cls-1" d="m16.52,219.79h-1.39v-.89h-.02c-.17.32-.43.58-.78.78s-.69.29-1.05.29c-.84,0-1.46-.21-1.83-.63-.38-.42-.57-1.05-.57-1.89v-4.07h1.42v3.94c0,.56.11.96.32,1.19.22.23.52.35.91.35.3,0,.55-.04.75-.14.2-.09.36-.21.48-.37.12-.15.21-.34.27-.55.05-.21.08-.45.08-.7v-3.73h1.42v6.42Z"/>
          <path class="cls-1" d="m18.67,213.37h1.42v6.97c0,.64-.14,1.13-.42,1.48-.28.35-.75.52-1.42.52-.14,0-.26,0-.35-.01-.1,0-.19-.02-.28-.04v-1.12c.09.02.18.03.26.04.08,0,.16.01.22.01.26,0,.42-.08.48-.24s.09-.39.09-.71v-6.91Zm0-2.45h1.42v1.34h-1.42v-1.34Z"/>
          <path class="cls-1" d="m22.29,210.92h1.42v1.34h-1.42v-1.34Zm0,2.45h1.42v6.42h-1.42v-6.42Z"/>
          <path class="cls-1" d="m25.86,213.37h1.34v.89h.04c.11-.16.22-.3.35-.44.12-.13.26-.24.42-.33.15-.09.33-.16.53-.22.2-.05.43-.08.68-.08.39,0,.75.09,1.09.26s.57.44.71.81c.24-.33.52-.59.83-.78.31-.19.71-.29,1.18-.29.68,0,1.21.17,1.58.5.38.33.56.89.56,1.67v4.43h-1.42v-3.75c0-.26,0-.49-.02-.7s-.06-.39-.14-.55c-.08-.15-.2-.27-.35-.35-.16-.08-.37-.12-.65-.12-.48,0-.83.15-1.04.45-.22.3-.32.72-.32,1.27v3.76h-1.42v-4.12c0-.45-.08-.78-.24-1.01-.16-.23-.46-.34-.89-.34-.18,0-.36.04-.53.11-.17.07-.32.18-.45.32s-.23.31-.31.52-.12.44-.12.71v3.81h-1.42v-6.42Z"/>
          <path class="cls-1" d="m37.33,210.92h1.42v1.34h-1.42v-1.34Zm0,2.45h1.42v6.42h-1.42v-6.42Z"/>
          <path class="cls-1" d="m46.84,219.45c0,.97-.27,1.69-.81,2.17s-1.32.71-2.34.71c-.32,0-.65-.03-.98-.1s-.63-.18-.89-.34-.49-.36-.68-.62-.29-.57-.32-.94h1.42c.04.2.11.36.21.48.1.12.22.22.35.29s.29.12.45.14c.17.02.34.03.52.03.57,0,.99-.14,1.25-.42s.4-.69.4-1.22v-.98h-.02c-.2.36-.47.63-.81.83-.34.2-.71.3-1.11.3-.51,0-.95-.09-1.31-.27-.36-.18-.66-.42-.89-.73s-.41-.67-.52-1.07c-.11-.41-.16-.84-.16-1.3,0-.43.07-.84.2-1.23.13-.39.32-.73.57-1.03.25-.29.55-.53.91-.7.36-.17.77-.26,1.22-.26.41,0,.78.08,1.12.25.34.17.6.44.78.8h.02v-.88h1.42v6.09Zm-3.14-.78c.31,0,.58-.06.8-.19.22-.13.4-.3.53-.51.14-.21.24-.45.3-.72.06-.27.09-.54.09-.81s-.03-.54-.1-.79c-.07-.26-.17-.49-.3-.68-.14-.2-.31-.36-.53-.47-.22-.12-.48-.17-.79-.17s-.58.07-.79.2-.39.3-.52.52c-.13.21-.23.45-.29.72-.06.27-.09.54-.09.8s.03.52.1.78c.07.25.17.48.3.68.14.2.31.36.52.48.21.12.47.19.76.19Z"/>
          <path class="cls-1" d="m54.27,218.36c0,.17.02.3.07.37.05.07.13.11.27.11h.15c.06,0,.12,0,.2-.02v.98s-.11.04-.19.06c-.08.02-.16.04-.24.06-.08.02-.17.03-.25.04-.08,0-.15.01-.21.01-.29,0-.53-.06-.72-.17s-.31-.32-.37-.61c-.28.27-.63.47-1.04.6-.41.12-.81.19-1.19.19-.29,0-.57-.04-.83-.12-.27-.08-.5-.19-.7-.35s-.36-.35-.48-.58c-.12-.24-.18-.51-.18-.83,0-.4.07-.72.22-.97.15-.25.34-.44.57-.58.24-.14.5-.24.79-.3.29-.06.59-.11.89-.14.26-.05.5-.08.73-.11.23-.02.44-.06.61-.11.18-.05.32-.13.42-.23s.16-.26.16-.47c0-.18-.04-.33-.13-.45s-.19-.21-.32-.27c-.13-.06-.27-.1-.43-.12-.16-.02-.31-.03-.45-.03-.4,0-.73.08-.98.25-.26.17-.4.42-.43.77h-1.42c.02-.41.12-.76.3-1.03s.4-.49.66-.66c.27-.17.57-.28.91-.35.34-.07.69-.1,1.04-.1.31,0,.62.03.93.1.31.07.58.17.83.32.24.15.44.34.59.58.15.24.22.52.22.86v3.3Zm-1.42-1.79c-.22.14-.48.23-.79.25-.31.03-.63.07-.94.13-.15.02-.29.06-.43.11-.14.05-.27.11-.37.19-.11.08-.19.18-.25.31-.06.13-.09.28-.09.47,0,.16.05.29.14.4.09.11.2.19.33.25.13.06.27.11.42.13.15.03.29.04.42.04.16,0,.33-.02.51-.06.18-.04.35-.11.52-.21.16-.1.3-.23.4-.38.11-.15.16-.34.16-.56v-1.06Z"/>
          <path class="cls-1" d="m59.37,219.96c-.51,0-.97-.08-1.37-.25-.4-.17-.74-.4-1.02-.7-.28-.3-.49-.65-.63-1.07s-.22-.87-.22-1.37.07-.94.22-1.35.36-.77.63-1.07.62-.53,1.02-.7c.4-.17.86-.25,1.37-.25s.97.08,1.37.25c.4.17.74.4,1.02.7.28.3.49.65.63,1.07s.22.87.22,1.35-.07.95-.22,1.37-.36.77-.63,1.07c-.28.3-.62.53-1.02.7-.4.17-.86.25-1.37.25Zm0-1.12c.31,0,.59-.07.82-.2.23-.13.42-.31.57-.52.15-.22.26-.46.33-.73.07-.27.11-.54.11-.83s-.04-.55-.11-.82-.18-.52-.33-.73-.34-.38-.57-.52c-.23-.13-.51-.2-.82-.2s-.59.07-.82.2c-.23.13-.42.3-.57.52-.15.21-.26.45-.33.73s-.11.55-.11.82.04.56.11.83c.07.27.18.51.33.73.15.21.34.39.57.52.23.13.5.2.82.2Z"/>
          <path class="cls-1" d="m64.45,210.92h1.42v5.04l2.56-2.6h1.74l-2.46,2.36,2.7,4.06h-1.73l-1.96-3.12-.84.82v2.3h-1.42v-8.87Z"/>
          <path class="cls-1" d="m77.08,218.36c0,.17.02.3.07.37.05.07.13.11.27.11h.15c.06,0,.12,0,.2-.02v.98s-.11.04-.19.06c-.08.02-.16.04-.24.06-.08.02-.17.03-.25.04-.08,0-.15.01-.21.01-.29,0-.53-.06-.72-.17s-.31-.32-.37-.61c-.28.27-.63.47-1.04.6-.41.12-.81.19-1.19.19-.29,0-.57-.04-.83-.12-.27-.08-.5-.19-.7-.35s-.36-.35-.48-.58c-.12-.24-.18-.51-.18-.83,0-.4.07-.72.22-.97.15-.25.34-.44.57-.58.24-.14.5-.24.79-.3.29-.06.59-.11.89-.14.26-.05.5-.08.73-.11.23-.02.44-.06.61-.11.18-.05.32-.13.42-.23s.16-.26.16-.47c0-.18-.04-.33-.13-.45s-.19-.21-.32-.27c-.13-.06-.27-.1-.43-.12-.16-.02-.31-.03-.45-.03-.4,0-.73.08-.98.25-.26.17-.4.42-.43.77h-1.42c.02-.41.12-.76.3-1.03s.4-.49.66-.66c.27-.17.57-.28.91-.35.34-.07.69-.1,1.04-.1.31,0,.62.03.93.1.31.07.58.17.83.32.24.15.44.34.59.58.15.24.22.52.22.86v3.3Zm-1.42-1.79c-.22.14-.48.23-.79.25-.31.03-.63.07-.94.13-.15.02-.29.06-.43.11-.14.05-.27.11-.37.19-.11.08-.19.18-.25.31-.06.13-.09.28-.09.47,0,.16.05.29.14.4.09.11.2.19.33.25.13.06.27.11.42.13.15.03.29.04.42.04.16,0,.33-.02.51-.06.18-.04.35-.11.52-.21.16-.1.3-.23.4-.38.11-.15.16-.34.16-.56v-1.06Z"/>
          <path class="cls-1" d="m83.48,210.92h2.19l2.45,6.94h.02l2.38-6.94h2.16v8.87h-1.48v-6.84h-.02l-2.46,6.84h-1.28l-2.46-6.84h-.02v6.84h-1.48v-8.87Z"/>
          <path class="cls-1" d="m97.91,219.96c-.51,0-.97-.08-1.37-.25-.4-.17-.74-.4-1.02-.7-.28-.3-.49-.65-.63-1.07s-.22-.87-.22-1.37.07-.94.22-1.35.36-.77.63-1.07.62-.53,1.02-.7c.4-.17.86-.25,1.37-.25s.97.08,1.37.25c.4.17.74.4,1.02.7.28.3.49.65.63,1.07s.22.87.22,1.35-.07.95-.22,1.37-.36.77-.63,1.07c-.28.3-.62.53-1.02.7-.4.17-.86.25-1.37.25Zm0-1.12c.31,0,.59-.07.82-.2.23-.13.42-.31.57-.52.15-.22.26-.46.33-.73.07-.27.11-.54.11-.83s-.04-.55-.11-.82-.18-.52-.33-.73-.34-.38-.57-.52c-.23-.13-.51-.2-.82-.2s-.59.07-.82.2c-.23.13-.42.3-.57.52-.15.21-.26.45-.33.73s-.11.55-.11.82.04.56.11.83c.07.27.18.51.33.73.15.21.34.39.57.52.23.13.5.2.82.2Z"/>
          <path class="cls-1" d="m109,219.79h-1.34v-.87h-.02c-.19.37-.47.64-.83.8-.36.16-.75.24-1.16.24-.51,0-.95-.09-1.32-.27-.38-.18-.69-.42-.94-.73-.25-.31-.44-.67-.56-1.09-.12-.42-.19-.87-.19-1.35,0-.58.08-1.08.24-1.5.16-.42.37-.77.63-1.04.26-.27.56-.47.89-.6.34-.13.68-.19,1.02-.19.2,0,.4.02.61.06s.41.1.6.18c.19.08.37.19.53.32.16.13.3.28.4.45h.02v-3.28h1.42v8.87Zm-4.94-3.14c0,.27.03.54.11.81.07.26.18.5.32.71s.33.37.55.5c.22.12.49.19.79.19s.59-.07.81-.2c.23-.13.41-.31.56-.52.14-.22.25-.46.32-.73.07-.27.11-.54.11-.83,0-.71-.16-1.27-.48-1.67s-.75-.6-1.3-.6c-.33,0-.61.07-.84.21-.23.14-.41.32-.56.53-.15.22-.25.47-.31.75-.06.28-.09.56-.09.85Z"/>
          <path class="cls-1" d="m112.27,216.94c0,.25.03.49.11.72.07.23.18.43.32.61.14.17.32.31.53.42s.47.16.77.16c.41,0,.75-.09,1-.27.25-.18.44-.45.56-.8h1.34c-.07.35-.2.66-.39.93-.18.27-.4.5-.66.69-.26.19-.54.33-.86.42-.32.09-.65.14-1,.14-.51,0-.95-.08-1.34-.25-.39-.17-.72-.4-.99-.7-.27-.3-.47-.65-.61-1.07-.14-.41-.21-.87-.21-1.37,0-.46.07-.89.22-1.3.14-.41.35-.77.62-1.08.27-.31.59-.56.98-.74.38-.18.81-.27,1.29-.27.51,0,.96.11,1.36.32.4.21.73.49,1,.84.27.35.46.75.58,1.2s.15.92.09,1.4h-4.72Zm3.3-.93c-.02-.22-.06-.44-.14-.65s-.19-.39-.32-.54c-.14-.15-.3-.28-.5-.37-.19-.1-.41-.14-.65-.14s-.47.04-.68.13c-.2.09-.38.21-.52.36s-.26.33-.35.54-.13.43-.14.67h3.3Z"/>
          <path class="cls-1" d="m118.73,210.92h1.42v8.87h-1.42v-8.87Z"/>
          <path class="cls-1" d="m122.31,210.92h1.42v3.29h.02c.17-.29.43-.53.78-.73.34-.2.73-.29,1.15-.29.7,0,1.26.18,1.66.55.41.37.61.91.61,1.64v4.41h-1.42v-4.04c-.02-.5-.12-.87-.32-1.1-.2-.23-.51-.34-.93-.34-.24,0-.46.04-.65.13-.19.09-.35.21-.48.36-.13.15-.24.33-.31.54-.07.21-.11.43-.11.66v3.79h-1.42v-8.87Z"/>
          <path class="cls-1" d="m133,219.96c-.51,0-.97-.08-1.37-.25-.4-.17-.74-.4-1.02-.7-.28-.3-.49-.65-.63-1.07s-.22-.87-.22-1.37.07-.94.22-1.35.36-.77.63-1.07.62-.53,1.02-.7c.4-.17.86-.25,1.37-.25s.97.08,1.37.25c.4.17.74.4,1.02.7.28.3.49.65.63,1.07s.22.87.22,1.35-.07.95-.22,1.37-.36.77-.63,1.07c-.28.3-.62.53-1.02.7-.4.17-.86.25-1.37.25Zm0-1.12c.31,0,.59-.07.82-.2.23-.13.42-.31.57-.52.15-.22.26-.46.33-.73.07-.27.11-.54.11-.83s-.04-.55-.11-.82-.18-.52-.33-.73-.34-.38-.57-.52c-.23-.13-.51-.2-.82-.2s-.59.07-.82.2c-.23.13-.42.3-.57.52-.15.21-.26.45-.33.73s-.11.55-.11.82.04.56.11.83c.07.27.18.51.33.73.15.21.34.39.57.52.23.13.5.2.82.2Z"/>
          <path class="cls-1" d="m143.68,219.79h-1.39v-.89h-.02c-.17.32-.43.58-.78.78s-.69.29-1.05.29c-.84,0-1.46-.21-1.83-.63-.38-.42-.57-1.05-.57-1.89v-4.07h1.42v3.94c0,.56.11.96.32,1.19.22.23.52.35.91.35.3,0,.55-.04.75-.14.2-.09.36-.21.48-.37.12-.15.21-.34.27-.55.05-.21.08-.45.08-.7v-3.73h1.42v6.42Z"/>
          <path class="cls-1" d="m146.86,217.72c.04.42.2.7.47.87s.6.25.98.25c.13,0,.28,0,.45-.03.17-.02.33-.06.48-.12.15-.06.27-.14.37-.25.1-.11.14-.26.13-.44,0-.18-.07-.33-.2-.45-.12-.12-.28-.21-.48-.28-.19-.07-.42-.13-.66-.18s-.5-.1-.76-.16c-.27-.06-.52-.13-.76-.21-.24-.08-.46-.19-.66-.33-.19-.14-.35-.32-.47-.54-.12-.22-.17-.49-.17-.81,0-.35.08-.64.25-.88.17-.24.39-.43.65-.57.26-.14.55-.25.87-.3s.62-.09.91-.09c.33,0,.65.04.95.11s.58.18.82.34.45.36.61.61c.16.25.26.56.3.91h-1.48c-.07-.34-.22-.57-.47-.68-.24-.12-.52-.17-.84-.17-.1,0-.22,0-.35.03-.14.02-.27.05-.38.09-.12.05-.22.11-.3.2-.08.09-.12.2-.12.34,0,.17.06.31.18.42s.28.2.47.27c.19.07.42.13.66.18.25.05.5.1.77.16.26.06.51.13.76.21s.47.19.66.33c.19.14.35.32.47.53.12.22.18.48.18.79,0,.38-.09.7-.26.97-.17.27-.4.48-.68.65-.28.17-.59.29-.93.36-.34.07-.67.11-1.01.11-.41,0-.78-.05-1.12-.14-.34-.09-.64-.23-.89-.42-.25-.19-.45-.42-.6-.7-.15-.28-.22-.61-.23-.99h1.42Z"/>
          <path class="cls-1" d="m153.97,216.94c0,.25.03.49.11.72.07.23.18.43.32.61.14.17.32.31.53.42s.47.16.77.16c.41,0,.75-.09,1-.27.25-.18.44-.45.56-.8h1.34c-.07.35-.2.66-.39.93-.18.27-.4.5-.66.69-.26.19-.54.33-.86.42-.32.09-.65.14-1,.14-.51,0-.95-.08-1.34-.25-.39-.17-.72-.4-.99-.7-.27-.3-.47-.65-.61-1.07-.14-.41-.21-.87-.21-1.37,0-.46.07-.89.22-1.3.14-.41.35-.77.62-1.08.27-.31.59-.56.98-.74.38-.18.81-.27,1.29-.27.51,0,.96.11,1.36.32.4.21.73.49,1,.84.27.35.46.75.58,1.2s.15.92.09,1.4h-4.72Zm3.3-.93c-.02-.22-.06-.44-.14-.65s-.19-.39-.32-.54c-.14-.15-.3-.28-.5-.37-.19-.1-.41-.14-.65-.14s-.47.04-.68.13c-.2.09-.38.21-.52.36s-.26.33-.35.54-.13.43-.14.67h3.3Z"/>
        </g>
      </g>
    </g>
  </g>
</svg>