<?xml version="1.0" encoding="UTF-8"?>
<svg id="_レイヤー_2" data-name="レイヤー 2" xmlns="http://www.w3.org/2000/svg" viewBox="0 0 16.67 20">
  <defs>
    <style>
      .cls-1 {
        fill: #090000;
        stroke-width: 0px;
      }
    </style>
  </defs>
  <g id="_レイヤー_1-2" data-name="レイヤー 1">
    <path class="cls-1" d="M2.21,0h1.2l.82,3.09.76-3.09h1.21l-1.39,4.59v3.13h-1.19v-3.13L2.21,0ZM7.71,1.98c-.93,0-1.55.62-1.55,1.53v2.79c0,1,.52,1.53,1.55,1.53.85,0,1.52-.57,1.52-1.53v-2.79c0-.89-.66-1.53-1.52-1.53ZM8.15,6.25c0,.31-.16.54-.44.54s-.46-.24-.46-.54v-2.65c0-.31.14-.54.44-.54.33,0,.46.22.46.54v2.65ZM12.09,2.03v4.32c-.13.16-.42.43-.62.43-.23,0-.28-.16-.28-.38V2.03h-1.06v4.76c0,.56.17,1.02.74,1.02.32,0,.77-.17,1.22-.71v.63h1.06V2.03h-1.06ZM13.92,13.57c-.37,0-.45.26-.45.64v.55h.89v-.55c0-.37-.08-.64-.44-.64ZM10.01,13.61c-.07.04-.14.09-.21.17v3.38c.08.09.16.15.24.19.16.08.4.09.52-.06.06-.08.09-.2.09-.37v-2.8c0-.18-.04-.32-.11-.42-.12-.16-.35-.18-.53-.09ZM14.03,9.28c-2.17-.15-9.22-.15-11.39,0C.29,9.44.02,10.85,0,14.58c.02,3.72.29,5.15,2.64,5.31,2.17.15,9.22.15,11.39,0,2.35-.16,2.62-1.58,2.64-5.31-.02-3.72-.29-5.15-2.64-5.31ZM3.76,18.18h-1.14v-6.28h-1.18v-1.07h3.49v1.07h-1.18v6.28h0ZM7.8,18.18h-1.01v-.6c-.19.22-.38.39-.58.5-.54.31-1.29.3-1.29-.8v-4.53h1.01v4.16c0,.22.05.37.27.37.2,0,.47-.25.59-.41v-4.12h1.01v5.42h0ZM11.68,17.06c0,.67-.25,1.19-.92,1.19-.37,0-.68-.14-.96-.49v.42h-1.02v-7.35h1.02v2.37c.23-.28.54-.51.9-.51.74,0,.98.62.98,1.36v3.01h0ZM15.4,15.6h-1.93v1.02c0,.41.04.76.44.76.43,0,.45-.29.45-.76v-.38h1.04v.41c0,1.04-.45,1.68-1.51,1.68-.96,0-1.46-.7-1.46-1.68v-2.43c0-.94.62-1.6,1.53-1.6.97,0,1.43.62,1.43,1.6v1.38h0Z"/>
  </g>
</svg>