<?xml version="1.0" encoding="UTF-8"?>
<svg id="_レイヤー_2" data-name="レイヤー 2" xmlns="http://www.w3.org/2000/svg" viewBox="0 0 18.74 18.74">
  <defs>
    <style>
      .cls-1 {
        fill: #262624;
        stroke-width: 0px;
      }
    </style>
  </defs>
  <g id="_レイヤー_1-2" data-name="レイヤー 1">
    <path class="cls-1" d="M17.71,0H1.03C.46,0,0,.46,0,1.03v16.67c0,.57.46,1.04,1.03,1.04h8.04v-6.26h-2.72v-3.15h2.72v-2.33c0-.51.06-.97.17-1.38,0-.01,0-.02.01-.04.03-.12.07-.23.11-.34.03-.09.07-.17.11-.25.02-.03.03-.07.04-.1.05-.11.11-.22.17-.32,0,0,0-.01,0-.02.13-.21.28-.41.46-.59,0,0,0,0,.01-.01.07-.08.15-.15.23-.21.02-.02.03-.03.05-.05.06-.05.13-.1.2-.15.04-.03.08-.06.12-.08.04-.03.09-.05.14-.08.07-.04.14-.08.21-.12.01,0,.03-.01.04-.02.57-.27,1.24-.41,1.97-.41,1.15,0,2.15.09,2.43.13v2.82h-1.67c-1.31,0-1.56.62-1.56,1.54v2.01h3.12s-.41,3.15-.41,3.15h-2.72v6.26h5.38c.57,0,1.03-.46,1.03-1.04V1.03c0-.57-.46-1.03-1.03-1.03Z"/>
  </g>
</svg>