<?xml version="1.0" encoding="UTF-8"?>
<svg xmlns="http://www.w3.org/2000/svg" version="1.1" viewBox="0 0 62.9 234.3">
  <defs>
    <style>
      .cls-1 {
        fill: #292321;
      }

      .cls-2 {
        fill: #2c2b29;
      }
    </style>
  </defs>
  <!-- Generator: Adobe Illustrator 28.7.3, SVG Export Plug-In . SVG Version: 1.2.0 Build 164)  -->
  <g>
    <g id="_レイヤー_2">
      <g>
        <g>
          <path d="M51.3,3.1v-.3c.3-.1.7-.2,1-.2.6,0,1.6.6,1.6,1s-.2.5-.3,1c0,.6,0,3.7,0,4.4s-.3.9-.6.9-.7-.6-.7-1.2.2-.9.2-2.1c0-.7,0-2.2,0-2.8,0-.3,0-.4-.3-.6-.2-.1-.5-.2-.8-.3ZM53,14l-.2-.3c2.9-1.5,4.3-3.5,4.5-6.5,0-1.3.1-2.8,0-3.7,0-.3,0-.5-.3-.6-.2-.1-.5-.2-.9-.3v-.3c.3-.2.8-.4,1.1-.4.6,0,1.7.6,1.7,1s-.3.4-.3.9c0,.9,0,2.5-.1,3.4-.2,3.5-2,5.6-5.5,6.8Z"/>
          <path d="M51.9,22.5c1,0,5.3-.4,6.1-.6.5,0,.7-.4,1-.4.5,0,1.7.9,1.7,1.4s-.5.7-.7,1.1c-1.6,3.7-4.3,6.5-8.8,8.1l-.2-.3c4.2-2.1,7-5.5,7.8-8.9,0-.2,0-.2-.2-.2-.8,0-4.7.6-5.5.8-.4,0-.7.4-1,.4-.5,0-1.2-.8-1.4-1.2,0-.3-.1-.5-.1-.9h.3c.3.3.6.7,1.2.7Z"/>
          <path d="M57.2,40.3c.2-.1.6-.2.9-.2.6,0,1.3.5,1.3.7s-.2.3-.3.7c0,.3,0,.7,0,1.1,1.5-.2,1.6-.4,1.7-.4.5,0,1.2.4,1.2.7s-.1.4-.4.4c-.5,0-1.2-.1-2.6,0,0,.9,0,2.5,0,3.3,0,.5,0,.9,0,1.3,0,.6-.4,1.2-.9,1.2s-.4-.4-.7-.7c-.3-.3-.7-.5-1.2-.7v-.2c.6,0,1.1.2,1.4.2.1,0,.3,0,.3-.2,0-.4,0-1.7,0-2.9-1.1,1.5-3.1,3-5.2,3.8v-.2c1.9-1.3,3.7-3.1,4.6-4.7-.7.1-1.3.2-1.8.3-.5.1-.8.3-1.1.3s-.9-.6-1-.9c0-.2,0-.4,0-.7h.2c.3.3.5.5.9.5.8,0,2.4-.2,3.5-.3,0-.5,0-1.1,0-1.5,0-.2,0-.3-.2-.4-.2-.1-.4-.2-.6-.3v-.2Z"/>
          <path d="M53.5,58.2c.3,0,.8-.2,1.1-.2.7,0,1.7.6,1.7,1s-.3.5-.3,1c-.1.7-.1,2.1-.1,3s0,5,0,5.8-.1.8-.7.8-.8-.7-.8-1.3,0-.9.1-1.6c0-.9.1-2.8.1-3.9s0-2.8,0-3.4c0-.6-.4-.7-1.2-.8v-.3Z"/>
          <path d="M56.9,82.2c1.9,1,3.8,2.9,3.8,4.6s-.3.8-.7.8c-.6,0-.6-.7-1.1-2-2.2.5-5.8,1.1-7,1.4-.3,0-.6.5-.9.5-.5,0-1.2-.8-1.3-1.3,0-.2,0-.4,0-.6h.2c.3.2.6.3.9.3s.4,0,.8,0c1.1-2,3.1-6.4,3.1-7.2s-.3-.6-.7-1v-.3c.4,0,.7,0,1,.1.7.2,1.5.9,1.5,1.3s-.4.4-.6.8c-.7,1.4-2.2,4.2-3.3,6,1.8-.2,4.6-.5,6.1-.7-.4-.9-1.1-1.8-1.9-2.6l.2-.2Z"/>
          <path d="M52.7,101.3c-.3.8-.9,2.4-1.1,2.9-.1.5-.2.8-.2,1.1,0,.5.2.9.2,1.3s-.2.6-.5.6-.6-.2-.8-.6c-.4-.6-.9-2-.9-3.5s.4-3.2.7-4.1c.2-.7.4-1.3.4-1.8,0-.6-.4-1.1-.8-1.7l.2-.2c.4.1.6.2.9.4.3.3,1.1,1,1.1,1.7s-.2.6-.6,1.5c-.4.9-1,2.4-1,3.9s0,1.1.2,1.4c0,.2.2.2.4,0,.3-.5,1.1-2.4,1.5-3.1h.4ZM58.6,99.6c0,1.5.1,2.8.2,3.9,1.2.3,2,.9,2.5,1.3.3.3.5.6.5.9s-.2.6-.5.6-.4-.2-.8-.5c-.5-.5-1-.9-1.6-1.2,0,.1,0,.2,0,.3,0,1.2-.8,2-2.6,2s-2.4-.6-2.4-1.8,1.4-1.9,3-1.9.7,0,1,0c0-1-.1-2.5-.2-3.7-.5,0-1.1.1-1.6.1-.9,0-1.6-.2-2.3-1.5l.2-.2c.6.5,1.3.7,2.1.7s1.2,0,1.7-.1v-1.8c0-.4,0-.5-.3-.6-.3,0-.7-.1-1-.2v-.3c.3-.2.8-.4,1.1-.4.7,0,1.6.4,1.6.8s-.1.4-.2,1c0,.3-.1.7-.1,1.2.3,0,.5-.1.6-.2.8-.3,1-.5,1.2-.5.4,0,.9.2.9.6s-.2.5-.8.7c-.4.1-1.1.3-1.9.5v.2ZM57.8,104.2c-.5-.1-1-.2-1.6-.2-.9,0-1.8.4-1.8,1s.7.9,1.5.9c1.6,0,1.9-.6,1.9-1.7h0Z"/>
          <path d="M51.4,120.9c0,2,.5,3.3,3.8,3.3s3.6-.6,4-.6,1,.2,1,.7-.2.5-.7.7c-.7.3-2.1.5-4,.5-4,0-5-1.9-4.4-4.6h.4ZM53.3,118.1c.7-.5,1.6-1.1,2.1-1.4.1-.1.1-.1,0-.2-1.7,0-2.8-.1-3.7-1.5l.2-.2c1,.7,1.7.8,2.9.8,1.8,0,2.2-.3,2.8-.3s1.5.3,1.5.7-.2.5-.6.6c-.4,0-.9.1-1.6.4-.8.2-2.1.9-3.2,1.4l-.2-.3Z"/>
          <path d="M52,132.6c.4-.1.7-.2,1-.2.8,0,1.7.4,1.7.8s-.3.4-.4.9c0,.3-.2.6-.3,1.1.9-.2,1.8-.5,2.4-.8.6-.3.9-.5,1.1-.5.3,0,.9.1.9.5s-.4.6-.9.8c-.6.2-2.1.7-3.7.9-.3,1.2-.8,2.8-1,3.6,0,.3,0,.4.2.1,1.4-1,2.7-1.7,4.2-1.7,2.2,0,3.3,1.4,3.3,2.9,0,2.8-3.8,3.8-7.3,3.5v-.4c1.1,0,2.1-.2,3-.5,2.5-.7,3.1-1.9,3.1-3s-.9-2-2.1-2-3.3,1.4-4.3,2.6c-.2.3-.4.9-.8.9s-.7-.6-.7-1.2.1-.3.3-.8c.3-.7.8-2.8,1.1-4-.3,0-.6,0-.9,0-1.3,0-1.8-.2-2.5-1.8l.3-.2c.8.8,1.5,1,2.4,1s.7,0,1,0c.1-.7.3-1.4.3-1.8,0-.3,0-.4-.3-.5-.2,0-.5-.2-.9-.2v-.3Z"/>
          <path d="M52.8,151.5v-.3c1.5,0,2.3.4,2.9.7.7.4,1,1,1,1.6s-.2.6-.6.6-.6-.1-1.3-.1c-.8,0-1.8.2-2.2.3-.2,0-.3.1-.3.3s.2.6.2.9c0,.4-.1.7-.2,1.3-.1.6-.3,1.4-.3,2,0,.2,0,.2.2,0,1.5-1.2,3.2-2.1,4.9-2.1s3.4,1.5,3.4,3c0,2.7-4.1,3.8-7.6,3.6v-.3c1,0,2.1-.3,2.8-.5,2.7-.8,3.5-2,3.5-3.1s-.9-2.1-2.2-2.1-3.4,1.5-4.5,2.7c-.3.3-.4.8-.8.8s-.4-.1-.6-.4c-.2-.2-.3-.5-.3-.8s.1-.6.2-1c.1-.8.4-2.2.5-2.9,0-.6,0-.9,0-1.2s.1-.7.6-.8c.7-.2,2.2-.5,2.7-.7.2,0,.2-.2,0-.4-.4-.5-1.2-.9-2.1-1.1Z"/>
        </g>
        <g>
          <g>
            <path class="cls-2" d="M9,96h10.5v2.3h-.9v-1.2h-8.7v1.2h-.9v-2.3Z"/>
            <path class="cls-2" d="M14.2,112.3c-.6,0-1.1,0-1.4-.2-.4-.1-.6-.3-.8-.6-.2-.3-.2-.7-.2-1.1v-7.3h1.4c0,.2,0,.4,0,.7,0,.3,0,.6,0,.9,0,.3,0,.6,0,.9,0,.3,0,.7,0,1.1v3.4c0,.3,0,.5.3.7s.5.2.9.2c.7,0,1.4-.1,2-.4.6-.3,1.2-.6,1.7-1,0,.1,0,.3,0,.5,0,.2,0,.4,0,.5s0,.3,0,.4c-.5.4-1.1.7-1.8.9-.7.2-1.4.4-2.2.4ZM16.6,105.9c-.1-.2-.3-.5-.6-.7-.2-.2-.5-.4-.6-.6l.6-.5c.1,0,.2.2.4.4.2.2.3.3.5.5s.3.3.4.4l-.6.5ZM17.5,105c-.2-.2-.3-.5-.6-.7s-.5-.4-.6-.6l.6-.5c.1,0,.3.2.4.4.2.2.3.3.5.5.2.2.3.3.4.4l-.6.5Z"/>
            <path class="cls-2" d="M15.1,123.4c0,0-.2-.2-.4-.3-.2-.1-.3-.2-.4-.3.4-.3.7-.6,1-1-.3-.1-.5-.3-.7-.6-.2-.2-.4-.5-.5-.9.1,0,.2-.1.4-.2.2-.1.3-.2.4-.3.1.5.4.9.8,1.1.1-.4.2-.8.3-1.3s0-.9,0-1.3c-.3,0-.6.2-.9.3-.3.2-.6.4-.8.6s-.4.5-.5.8c-.1.3-.2.6-.2.9,0,.5.2.8.4,1.2l-.9.4c-.1-.4-.3-.8-.3-1.3,0-.5-.1-1-.2-1.5,0-.5,0-1.1,0-1.6,0-.5,0-1,0-1.4l1,.2c0,.3,0,.6-.1,1,0,.4,0,.8,0,1.2.3-.4.6-.8,1-1.1s.9-.5,1.3-.6c-.1-.4-.3-.8-.5-1.1l1-.2c.1.2.2.4.3.6,0,.2.1.4.2.7.4,0,.8.2,1.2.4.3.2.6.5.8.8.2.4.3.8.3,1.3s-.1.9-.3,1.2c-.2.3-.5.6-.9.8s-.8.3-1.3.3h-.2c-.1.3-.3.5-.5.7-.2.2-.4.4-.7.6ZM16.7,121c.4,0,.7-.2.9-.4.2-.2.4-.5.4-.9s0-.7-.3-1c-.2-.2-.5-.4-.8-.5,0,.4,0,.9,0,1.4,0,.5-.1.9-.3,1.3Z"/>
            <path class="cls-2" d="M14.5,136.5c0,0-.2-.2-.4-.3-.2,0-.3-.2-.5-.3-.2,0-.3-.1-.5-.2.5-.3.9-.6,1.3-1,.4-.4.7-.9.9-1.4.2-.5.3-1.1.3-1.7s0-.6-.3-.8c-.2-.2-.4-.3-.7-.3s-.7,0-1,.1c-.3,0-.7.2-1,.3-.3.1-.6.3-.8.5,0,0-.1-.2-.2-.4,0-.2-.2-.3-.3-.5s-.2-.3-.3-.4c.5-.3,1.1-.5,1.7-.7.6-.2,1.2-.3,1.9-.3s.8,0,1.2.3c.3.2.6.4.8.8s.3.8.3,1.3-.1,1.3-.3,1.9-.5,1.2-.9,1.7c-.4.5-.8.9-1.3,1.2ZM15.8,128.7c-.2,0-.4,0-.7-.2-.3,0-.6-.2-.9-.3-.3-.1-.6-.2-.9-.3-.3-.1-.5-.2-.6-.3l.6-1.1c.1,0,.3.1.6.2s.5.2.8.3.6.2.9.3c.3,0,.5.1.7.2l-.4,1.2Z"/>
            <path class="cls-2" d="M13.6,146.4c-.4.2-.7.3-1,.2-.3,0-.6-.2-.9-.6-.2-.4-.4-.8-.6-1.2-.2-.5-.4-1-.5-1.5-.1-.5-.2-1.1-.3-1.6,0-.5-.1-1,0-1.5h1.3c0,.4,0,.8,0,1.2s.1.9.2,1.3.2.8.3,1.2c.1.4.3.7.4.9.1.2.2.3.3.3s.3,0,.4,0c.2-.1.4-.3.6-.5.2-.2.4-.4.5-.6,0,.1,0,.2.2.4,0,.1.2.3.3.4,0,.1.2.2.3.3-.2.3-.4.6-.7.8-.3.2-.5.4-.8.6ZM17.7,144.4c0-.2-.2-.5-.3-.8s-.3-.6-.5-1-.4-.7-.6-.9-.4-.5-.5-.7l1.1-.7c.2.2.4.4.6.7.2.3.4.6.7,1,.2.3.4.7.6,1,.2.3.3.6.4.8-.2,0-.5.1-.7.2-.2,0-.4.2-.6.3Z"/>
            <path class="cls-2" d="M15.1,158c0-.2-.1-.4-.2-.6s-.2-.4-.3-.5c1.1,0,1.9-.3,2.5-.5.6-.3.9-.7.9-1.2,0-.4-.2-.6-.4-.8-.3-.2-.7-.3-1.2-.2-.2,0-.5,0-.9,0s-.7.1-1.1.2c-.4,0-.7.2-1,.3-.3,0-.6.2-.8.3,0-.2-.2-.4-.2-.6,0-.2-.1-.3-.2-.4,0-.1,0-.2,0-.2.2,0,.5-.1.9-.2.4,0,.8-.2,1.2-.2.4,0,.8-.1,1.2-.2s.7,0,.9,0c.9,0,1.6.1,2.1.5.5.4.7.9.7,1.5,0,.6-.1,1.1-.5,1.5-.3.4-.8.7-1.4.9s-1.3.4-2.2.5Z"/>
            <path class="cls-2" d="M10.6,171.6c0-.3,0-.7-.1-1.1,0-.4,0-1,0-1.5,0-.6,0-1.1,0-1.7,0-.6,0-1.2,0-1.7,0-.6,0-1.1.1-1.6,0-.5.1-.9.2-1.2l1.3.3c0,.3-.1.6-.2,1,0,.4,0,.9-.1,1.4s0,1.1,0,1.6c0,.6,0,1.1,0,1.6,0,.5,0,1,0,1.5,0,.4,0,.8.1,1.1l-1.3.2ZM14.6,171.4c-.6,0-1-.2-1.4-.5-.3-.3-.5-.7-.5-1.1,0-.3,0-.5.3-.8.2-.2.4-.4.7-.6.3-.1.7-.2,1.2-.2s.5,0,.7,0c0-.3,0-.6,0-1,0-.4,0-.8,0-1.3-.5,0-.9,0-1.3,0-.4,0-.8,0-1.1,0v-1.3c.2,0,.5,0,1,0,.4,0,.9,0,1.4,0,0-.3,0-.6,0-1,0-.3,0-.7,0-1h1.3c0,.3,0,.6,0,.9s0,.6,0,1c.4,0,.8,0,1.2-.1.4,0,.6-.1.8-.2v1.3c-.2,0-.5,0-.8.1s-.7,0-1.1.1c0,.5,0,1,0,1.5,0,.5,0,.9,0,1.2.4.1.8.3,1.2.6.4.2.8.5,1.1.8,0,0-.2.2-.3.3-.1.1-.2.3-.3.4s-.2.3-.2.4c-.5-.4-1-.8-1.5-1.1,0,.6-.3,1-.7,1.2-.4.2-.9.4-1.6.3ZM14.7,170.3c.3,0,.5,0,.7-.2.2-.1.2-.3.2-.7h0c-.2-.1-.5-.2-.8-.2-.3,0-.5,0-.7.1-.2,0-.3.2-.3.4,0,.1,0,.3.2.4.1,0,.3.1.6.1ZM18.6,164c-.3,0-.6-.1-.8-.3-.2-.2-.3-.5-.3-.8s.1-.6.3-.8c.2-.2.5-.3.8-.3s.6.1.8.3c.2.2.3.5.3.8s-.1.5-.3.8c-.2.2-.5.3-.8.3ZM18.6,163.5c.2,0,.3,0,.4-.2.1-.1.2-.3.2-.4s0-.3-.2-.4c-.1-.1-.3-.2-.4-.2s-.3,0-.4.2c-.1.1-.2.3-.2.4s0,.3.2.4c.1.1.3.2.4.2Z"/>
            <path class="cls-2" d="M15.6,183.9c-.1-.3-.3-.6-.5-.9-.2-.3-.5-.7-.7-1.1-.3-.4-.5-.7-.8-1.1-.3-.3-.5-.7-.8-.9-.2-.3-.5-.5-.6-.7-.2-.2-.4-.5-.4-.6s.1-.4.4-.6c.2-.2.4-.4.6-.6.2-.2.5-.5.8-.8.3-.3.5-.6.8-.9s.5-.6.7-.9.4-.6.5-.8l1.3.8c-.2.2-.4.5-.7.8-.3.3-.6.7-.9,1-.3.3-.6.7-.9,1-.3.3-.6.6-.8.8-.2.2-.2.3,0,.5.2.2.4.4.6.6.2.3.5.6.8.9.3.3.5.7.8,1s.5.6.7.9c.2.3.4.5.5.7-.1,0-.3.1-.4.2s-.3.2-.5.3c-.2.1-.3.2-.4.3Z"/>
            <path class="cls-2" d="M9,188.5h.9v1.2h8.7v-1.2h.9v2.3h-10.5v-2.3Z"/>
          </g>
          <polygon class="cls-1" points="26.8 66.8 26.8 71.4 0 71.4 0 66.8 2.9 66.8 2.9 68.6 24 68.6 24 66.8 26.8 66.8"/>
          <path class="cls-1" d="M26.8,55.9v4.6h-2.8v-1.7H2.9v1.8H0v-4.6h10.7c.7,0,1.3-.5,1.3-1.2l.2-1.9h2.3l.2,1.9c0,.7.6,1.2,1.3,1.2h10.7Z"/>
          <rect class="cls-1" x="6.7" y="62.2" width="13.4" height="2.8"/>
          <rect class="cls-1" x="0" y="40.7" width="26.8" height="2.8"/>
          <path class="cls-1" d="M24.6,10.9v2.8h-8.4c-.7,0-1.3.6-1.3,1.3v13.3h-2.8v-13.3c0-.7-.6-1.3-1.3-1.3H2.3v-2.8h8.4c.7,0,1.3-.6,1.3-1.3V1.6h2.8v8c0,.7.6,1.3,1.3,1.3h8.4Z"/>
          <rect class="cls-1" x="11" y="227.8" width="12.7" height="1.7" transform="translate(-156.5 79.1) rotate(-45)"/>
          <polygon class="cls-1" points="22.6 230.1 21 230.1 21 225 15.8 225 15.8 223.3 22.6 223.3 22.6 230.1"/>
        </g>
      </g>
    </g>
  </g>
</svg>