<?xml version="1.0" encoding="UTF-8"?>
<svg xmlns="http://www.w3.org/2000/svg" viewBox="0 0 140 75.74">
  <defs>
    <style>
      .cls-1 {
        fill: #fff;
        stroke-width: 0px;
      }
    </style>
  </defs>
  <g>
    <g>
      <g>
        <path class="cls-1" d="M140,24.11c-11.17-8.66-24.44-13.6-37.97-14.83v-1.88h2.54l-3.16-7.4-3.17,7.4h2.53v1.78c-1.69-.13-3.38-.2-5.07-.21v-1.57h2.54l-3.16-7.4-3.17,7.4h2.54v1.58c-1.69.02-3.39.08-5.07.22v-1.81h2.53l-3.17-7.4-3.16,7.4h2.55v1.92c-6.46.62-12.86,2.08-18.99,4.4v-1.5l-30.76-2.9v-2.95h2.66l-6.37-6.37-6.36,6.37h2.66v2.95L.23,12.21h-.23v9.88h8.57v-6l26.11-2.46,25.9,2.45v1.52c-.21.12-.43.25-.65.36v-1.04l-25.26-2.49-25.24,2.49v3.89l11.52-1.08-11.52,3.04v5.74l13.95-3.68,1.79.55-15.74,4.15v5.76l26.44-6.98,2.07.5-28.51,7.53v5.74l34.01-8.98-14.79,8.21,21.91-6.92v2.34c6.92-6.91,15.17-11.86,24-14.85.57.37,1.15.74,1.73,1.08l-3.88,3.88,4.8,4.81,5.64-5.63c1.59.56,3.22,1.02,4.9,1.37,2.44.49,4.96.76,7.54.76s5.09-.27,7.53-.76c.56-.11,1.12-.24,1.67-.38-.17.2-.35.41-.54.6-2.23,2.22-5.26,3.59-8.65,3.59s-6.43-1.37-8.66-3.58l-6.72,6.73c3.91,3.94,9.38,6.39,15.38,6.39s11.45-2.45,15.38-6.39c3.22-3.21,5.44-7.46,6.13-12.18,8.53,3.01,16.49,7.86,23.2,14.57v-12.63ZM33.29,9.09v-2.73h2.78v2.73l-1.39-.14-1.38.14ZM35.58,20.35v-1.82l20.19,1.9c-.67.44-1.33.88-2,1.34h-22.81l4.63-1.42ZM101.46,20.73c-2,.4-4.05.61-6.18.61s-4.18-.22-6.18-.61c-1.58-.33-3.12-.78-4.6-1.33,3.56-.59,7.17-.91,10.78-.91s7.21.32,10.77.91c-1.49.56-3.02,1.01-4.59,1.33Z"/>
        <polygon class="cls-1" points="28.64 41.31 50.56 36.73 51.8 31.99 28.64 41.31"/>
      </g>
      <g>
        <path class="cls-1" d="M34.51,61.37h3.3l2.49,4.88,2.49-4.88h3.3l-7.3,14.37h-3.3l3.17-6.2-4.15-8.17Z"/>
        <path class="cls-1" d="M49.68,70.76l-.74,1.92h-3.06l4.39-11.32h3.55l4.39,11.32h-3.06l-.74-1.92h-4.75ZM53.51,68.35l-1.45-3.77-1.45,3.77h2.9Z"/>
        <path class="cls-1" d="M62.03,72.68h-2.92l1.4-11.32h2.38l2.92,5.11,2.92-5.11h2.38l1.4,11.32h-2.92l-.72-6.19-2.13,3.73h-1.85l-2.13-3.73-.72,6.19Z"/>
        <path class="cls-1" d="M79.69,72.87c-3.9,0-5.28-2.38-5.28-5.85s1.38-5.85,5.28-5.85,5.28,2.38,5.28,5.85-1.38,5.85-5.28,5.85ZM79.69,63.65c-1.77,0-2.23,1.3-2.23,3.38s.45,3.39,2.23,3.39,2.23-1.3,2.23-3.39-.45-3.38-2.23-3.38Z"/>
        <path class="cls-1" d="M96.93,69.87c.25.53.41.87,1,.87.19,0,.41-.04.6-.11v1.83c-.42.17-1.13.41-2.06.41s-1.72-.38-2.06-1.09c-.81-1.72-.66-3.28-2.85-3.28-.51,0-.89.09-1.06.15v4.04h-3.06v-11.32h5.38c3,0,4.51,1.64,4.51,3.55,0,1.15-.53,2.23-1.6,2.9.47.55.83,1.24,1.19,2.06ZM90.52,63.8v2.34h2.26c1.02,0,1.55-.47,1.55-1.17s-.53-1.17-1.55-1.17h-2.26Z"/>
        <path class="cls-1" d="M103.53,61.37v11.32h-3.06v-11.32h3.06Z"/>
      </g>
    </g>
  </g>
</svg>