<?xml version="1.0" encoding="UTF-8"?>
<svg id="_レイヤー_2" data-name="レイヤー 2" xmlns="http://www.w3.org/2000/svg" viewBox="0 0 198.45 330.15">
  <defs>
    <style>
      .cls-1 {
        fill: #251e1c;
        stroke-width: 0px;
      }
    </style>
  </defs>
  <g id="_レイヤー_1-2" data-name="レイヤー 1">
    <g>
      <path class="cls-1" d="m193.09,3.32c.3-.41.73-.92.97-.92.43,0,1.65.9,1.65,1.33,0,.3-.39.51-.8.66-.13,2.66.06,10.45.06,11.78,0,.58-.36.73-.9.73-.45,0-.6-.34-.6-.64v-.84h-8.57v.95c0,.41-.3.64-.9.64-.37,0-.54-.19-.54-.54,0-2.1.21-11.03-.08-13.61-.02-.13.11-.26.26-.26.26.02,1.31.36,1.8.73h2.19c.39-.99.67-2.13.8-3-.02-.13.13-.26.36-.24.97.13,1.97.43,1.93.9-.02.24-.43.39-.8.43-.3.62-.79,1.31-1.2,1.91h4.38Zm-8.24,7.43h8.65l.02-3.03h-8.67v3.03Zm8.67-3.78v-2.9h-8.26c-.09.04-.21.06-.34.07-.04.54-.06,1.7-.06,2.83h8.65Zm-.04,7.69l.02-3.16h-8.63l.02,3.16h8.59Z"/>
      <path class="cls-1" d="m187.52,30.58c.28-.34.62-.66.8-.66.39,0,1.52.94,1.52,1.33,0,.26-.39.52-.82.67-.43,2.04-1.07,3.63-2.1,5.11-1.22,1.74-3.18,3.24-5.73,4.14-.54.19-.77-.32-.28-.58,2.21-1.16,3.86-2.55,4.92-4.14.94-1.4,1.59-3.16,1.85-5.13h-2.9c-.79,1.61-1.93,3.41-3.73,4.77-.41.32-.81-.02-.45-.47,2-2.4,3.2-4.81,3.71-7.28.04-.21.17-.26.37-.22.62.13,1.8.6,1.78.97,0,.28-.32.39-.86.36-.13.36-.3.73-.47,1.12h2.38Zm-3.82,10.86c.17.58.24,1.22.17,1.78-.22,1.31-1.1,1.8-2.04,1.83-.43.02-.71-.26-.75-.67-.02-.62.96-.9,1.55-1.42.36-.32.32-.81.39-1.42.06-.43.54-.45.67-.09Zm-.69-6.5c.94.24,1.85.75,1.93,1.48.06.43-.17.77-.6.82-.41.04-.62-.34-.94-.8-.21-.32-.47-.67-.73-.96-.24-.3-.11-.64.34-.54Zm1.16-1.63c-.26-.26-.15-.62.3-.54.92.17,1.82.56,1.97,1.27.08.41-.11.75-.52.84-.39.07-.62-.3-.97-.73-.22-.28-.49-.58-.77-.84Zm3.99,10.8c-.19.52-.62.75-1.16.54-.47-.17-.47-.67-.54-1.27-.06-.41-.17-.84-.26-1.25-.11-.43.21-.73.66-.39.86.6,1.63,1.5,1.31,2.38Zm4.83-10.43c.66,2.71,2.32,4.47,4.68,5.22.62.17.36.41,0,.56-.52.21-.67.39-.82.62-.19.28-.32.47-.88.21-1.76-.95-2.85-2.88-3.35-5.26-.11.56-.28,1.1-.51,1.59-.88,1.87-2.53,3.3-5.32,4.19-.43.17-.67-.36-.28-.58,2.32-1.16,3.44-2.19,4.16-3.48.47-.9.67-2.04.79-3.07h-2.13c-.24,0-.41-.07-.41-.37,0-.28.17-.37.41-.37h2.19c.04-.67.04-1.25.04-1.67-.02-.64-.06-1.76-.19-2.68-.04-.19-.02-.32.24-.3.62,0,2.15.22,2.15.6,0,.24-.19.43-.84.6-.02.99.02,2.21-.06,3.44h2.32c.34-.51.79-1.07,1.03-1.07.34,0,1.55,1.01,1.55,1.42.02.26-.3.39-.94.39h-3.84Zm-.5,10.26c-.13.54-.54.82-1.12.67-.49-.11-.54-.64-.67-1.24-.11-.41-.26-.84-.41-1.24-.17-.43.13-.77.62-.49.94.54,1.82,1.37,1.59,2.28Zm1.52-14.12c-.22-.34-.06-.67.41-.54.96.26,1.93.81,1.95,1.65,0,.49-.3.8-.8.82-.47,0-.64-.39-.92-.92-.17-.32-.39-.69-.64-1.01Zm3.22,14.15c-.02.56-.34.94-.9.92-.52-.02-.71-.56-1.03-1.31-.26-.52-.6-.99-.86-1.44-.24-.39-.02-.77.51-.58,1.2.45,2.32,1.35,2.28,2.42Z"/>
      <path class="cls-1" d="m184.66,66.85c0,1.35.49,1.87.49,2.53,0,.49-.22.75-.77.75-.75,0-1.27-1.55-1.27-2.9,0-3.33,1.46-5.86,1.46-7.71,0-.92-.38-1.35-.82-2.19-.19-.36.02-.58.45-.41.79.32,1.44.9,1.7,1.57.21.54.3.92.02,1.7-.49,1.35-1.01,2.19-1.2,3.09-.07.37.06.49.36.15.56-.64,1.29-1.48,2.55-2.3,1.54-1.01,3.18-1.52,4.77-1.52s2.43.6,2.43,1.05c0,.36-.19.52-.69.82-.67.41-1.67.99-2.36,1.4-.43.26-.77-.11-.43-.45.32-.32.71-.69.97-.99.36-.43.26-.64-.47-.66-.86-.02-2.42.32-3.82,1.16-2.1,1.25-3.37,3.2-3.37,4.91Zm8.18.79c.94,0,1.72-.07,2.28-.07.43,0,.94.09.94.62,0,.75-1.24.96-2.85.96-2.7,0-4.91-1.4-5.35-3.89-.09-.52.49-.6.66-.24.6,1.27,1.65,2.64,4.33,2.64Z"/>
      <path class="cls-1" d="m187.43,88.29c.26-.36.62-.75.81-.75.41,0,1.5.8,1.5,1.14,0,.21-.28.45-.66.66.02,2.45-.15,6.53-.94,8.13-.51,1.09-1.25,1.61-2.38,1.61-.45,0-.54-.17-.71-.43-.15-.28-.37-.37-.66-.51-.24-.11-.34-.24-.28-.41.04-.15.15-.24.37-.21.43.04.81.11,1.33.11.69,0,.99-.39,1.2-.82.71-1.39.92-5.3.81-7.77h-4.21c-.19.37-.41.81-.67,1.24.22.09.45.21.62.32h1.18c.24-.34.54-.67.73-.67.34,0,1.33.75,1.33,1.12,0,.22-.24.37-.52.49-.02.95.02,3.03.02,3.54,0,.58-.28.73-.77.73-.43,0-.54-.34-.54-.64v-.51h-1.59v1.01c0,.39-.26.58-.79.58-.3,0-.47-.19-.47-.51,0-.92.06-2.75,0-4.27-.37.49-.82.97-1.31,1.4-.39.34-.8.04-.5-.39,1.4-1.89,2.3-3.91,2.64-5.67.04-.19.13-.28.34-.22.6.15,1.69.67,1.69,1.03,0,.28-.34.39-.88.34l-.15.34h3.48Zm-6.61-2.9c-.24,0-.41-.07-.41-.37,0-.28.17-.37.41-.37h2.49v-.04c0-.58-.06-1.42-.13-1.95-.04-.19.08-.26.24-.26.75,0,1.89.07,1.89.51,0,.3-.26.47-.75.54v1.2h1.72c0-.62-.06-1.44-.13-1.98-.02-.19.08-.26.24-.26.75,0,1.93.07,1.93.51,0,.3-.26.47-.75.54v1.2h.99c.34-.51.75-1.07.97-1.07.36,0,1.44,1.03,1.44,1.42,0,.28-.32.39-.82.39h-2.58v1.01c0,.39-.28.56-.81.56-.32,0-.51-.19-.51-.51,0-.24,0-.62.02-1.07h-1.72v.67c0,.39-.26.54-.79.54-.32,0-.49-.17-.49-.49,0-.19,0-.43.02-.73h-2.49Zm4.18,8.52c0-.86.02-1.95.02-2.56h-1.61c-.02.51-.04,1.69-.04,2.06v.51h1.63Zm11.33-6.57c.15.07.22.17.22.28,0,.24-.28.43-.82.54-.24,2.75-.69,4.79-1.68,6.57.99,1.35,2.36,2.27,4.08,2.81.49.19.39.43-.02.56-.43.13-.67.34-.84.58-.21.26-.39.36-.8.13-1.29-.66-2.36-1.63-3.2-2.96-1.2,1.5-2.94,2.64-4.91,3.28-.52.17-.77-.36-.24-.62,1.97-.97,3.5-2.13,4.55-3.78-.69-1.5-1.14-3.35-1.33-5.6-.41.71-.9,1.42-1.54,2.1-.28.37-.79.21-.56-.24,1.63-2.64,2.38-5.35,2.64-8.48.02-.15.09-.26.37-.24.69.07,1.83.39,1.85.75.02.28-.3.41-.86.45-.22.99-.45,2.06-.8,3.13h2.96c.38-.54.82-1.14,1.09-1.14.36,0,1.52,1.07,1.52,1.48,0,.28-.36.41-.88.41h-.79Zm-4.25.24c.04,2.42.45,4.38,1.24,5.94.69-1.59,1.03-3.48,1.03-6.1v-.07h-2.17l-.09.24Z"/>
      <path class="cls-1" d="m183.11,122.88c.19.56.24,1.29.21,1.95-.19,1.07-.88,1.65-1.76,1.65-.47,0-.73-.32-.73-.69-.02-.6.77-.84,1.22-1.42.32-.39.32-.92.37-1.4.04-.43.56-.47.69-.08Zm11.83-7.86c.37-.54.84-1.16,1.1-1.16.36,0,1.65,1.07,1.67,1.5,0,.26-.28.41-.99.41h-15.48c-.24,0-.41-.07-.41-.37,0-.28.17-.37.41-.37h5.37c-.23-.19-.3-.52-.41-.86-.09-.28-.24-.6-.38-.9-.09-.19-.07-.37.02-.49h-3.28c-.24,0-.41-.07-.41-.37,0-.28.17-.37.41-.37h5.92c0-.49-.02-1.03-.06-1.48-.02-.19.09-.28.26-.28.32,0,2.13.06,2.13.56,0,.39-.41.54-.99.67v.52h3.71c.36-.52.81-1.12,1.07-1.12.36,0,1.61,1.05,1.63,1.48,0,.24-.28.39-.97.39h-2.62c.52.28.99.64.97.88-.02.26-.26.34-.86.32-.34.41-.67.75-1.1,1.05h3.29Zm-2.21,1.91c.26-.37.62-.79.82-.79.38,0,1.46.81,1.46,1.22,0,.24-.3.41-.64.54-.02,1.09.02,3.22.02,3.8s-.28.71-.8.71c-.43,0-.56-.34-.56-.64v-.08h-7.55v.36c0,.39-.28.58-.84.58-.32,0-.49-.19-.49-.51,0-1.18.09-3.99-.08-5.6-.02-.15.11-.26.26-.24.34.04,1.1.32,1.54.64h6.85Zm.34.75h-7.45l-.11.02c-.02.24-.02.75-.04,1.2h7.6v-1.22Zm-.04,3.28l.02-1.31h-7.58v.06l.02,1.25h7.55Zm.86,5.09c0,.51-.92,1.05-4.44,1.05s-3.78-.21-3.78-1.72c0-.56.04-1.7-.04-2.51-.02-.26.06-.34.32-.34.32,0,1.76.11,1.76.54,0,.22-.24.36-.73.43-.02.5-.02,1.12-.02,1.65.02.56.06.66,2.45.66,2.15,0,2.81-.19,3.09-.58.22-.3.37-.79.49-1.16.11-.43.6-.38.6.08-.02,1.54.3,1.37.3,1.91Zm-7.47-13.27c.79.37,1.57.9,1.46,1.65-.06.26-.19.49-.37.6h3.22c0-.08.04-.15.09-.24.32-.62.6-1.18.81-2h-5.21Zm3,11.07c-.13-.38-.36-.75-.54-1.09-.22-.39,0-.77.52-.56.96.39,1.85,1.05,1.8,1.87-.04.52-.39.86-.92.82-.49-.04-.62-.52-.86-1.05Zm8.11,1.09c-.02.54-.36.9-.94.88-.5-.02-.71-.51-.99-1.14-.19-.43-.47-.9-.71-1.31-.23-.39-.02-.77.5-.58,1.09.39,2.17,1.2,2.13,2.15Z"/>
      <path class="cls-1" d="m196.14,146.66c0,.9-.86,1.33-2.06,1.72-.77.26-2.55.8-3.78,1.27,0,.43.02.94.02,1.31,0,.45-.19.77-.6.79-.43.02-.79-.32-.79-.79,0-.21.04-.45.06-.77-1.27.64-2.02,1.24-2.02,2.12,0,.82.99,1.14,1.98,1.14,1.55,0,2.51-.37,3.28-.37.58,0,1.14.17,1.14.75,0,.54-1.31.99-3.86.99s-3.65-.88-3.65-2.27c0-1.1.75-1.98,3.18-3.18.02-.28,0-.58-.02-.92-.08-.92-.52-1.91-1.48-1.91-1.18,0-1.78,1.54-3.15,3.26-.28.36-.5.69-.95.69s-.66-.3-.67-.67c-.02-.34.11-.71.6-1.2,1.24-1.24,2.75-2.9,3.69-4.89-.77.09-1.42.15-2.32.15-1.35,0-2.1-.67-2.32-2.15-.06-.43.21-.52.51-.24.92.84,1.44,1.24,2.53,1.24.67,0,1.4-.04,2.08-.11.21-.52.34-.94.37-1.24.06-.39.11-.71-.19-1.03-.32-.34-.56-.52-.56-.75,0-.26.58-.38.86-.38.6,0,1.4.21,1.4.66,0,.39-.34,1.57-.71,2.55,2-.45,2.73-1.27,3.52-1.27.41,0,.88.22.9.69.02.43-.64.67-1.16.88-.51.21-2.53.67-3.84.88-.36.62-1.07,1.83-1.37,2.42,1.25-.34,2.43-.21,3.09,1.39,1.12-1.95,2.43-2.66,3.75-2.66s2.55.82,2.55,1.91Zm-1.5-.34c0-.52-.45-.84-1.24-.84s-1.83.56-2.45,1.59c-.36.6-.56,1.12-.64,1.72,1.2-.52,2.4-.97,2.85-1.18.92-.41,1.48-.58,1.48-1.29Z"/>
      <path class="cls-1" d="m185.03,172.06v3.58c1.07-.41,2.02-.84,2.94-1.25.69-.32.96.19.34.62-.94.62-2.02,1.18-3.28,1.72.02,1.85.02,3.71.02,5.35,0,.96-.5,1.68-1.42,1.68-.67,0-.39-.6-1.59-1.07-.41-.19-.36-.58.02-.58.32.02.84.06,1.12.06.34-.02.54-.13.58-.73.06-1.01.06-2.62.04-4.19-.64.26-1.33.52-2.04.77-.06.47-.19.92-.51.92-.39,0-.69-.62-.84-1.61-.02-.17.06-.22.21-.28,1.16-.3,2.23-.62,3.18-.95v-.41c0-.64,0-2.08-.02-3.61h-2.71c-.24,0-.41-.08-.41-.38,0-.28.17-.37.41-.37h2.7c-.02-1.63-.07-3.24-.19-4.01-.04-.28.04-.37.36-.37,1.4,0,2.15.26,2.15.6,0,.3-.43.47-1.03.64-.02.88-.02,1.95-.02,3.15h.99c.39-.58.86-1.22,1.12-1.22.36,0,1.5,1.12,1.5,1.55,0,.28-.37.41-.84.41h-2.77Zm10.09,7.26c-.47-.79-1.01-1.52-1.59-2.21-.26-.32.04-.71.43-.49,2.49,1.4,3.89,3.86,3.89,5.02,0,.6-.3.9-.86.9-.41,0-.62-.26-.84-.88-.17-.49-.37-1.01-.6-1.5-1.99.71-4.62,1.33-8.31,1.82-.11.45-.34.84-.66.8-.37-.04-.6-.94-.66-1.97,0-.17.08-.21.22-.21.81-.04,1.57-.07,2.3-.13,1.24-3.48,2.47-7.77,2.88-12.32.04-.34.13-.43.45-.41.56.06,2.08.43,2.08.94,0,.34-.52.47-1.03.47-.77,3.63-1.85,7.77-3.33,11.23,2.27-.24,4.14-.58,5.69-.94l-.07-.13Z"/>
      <path class="cls-1" d="m196.17,203.2c0,.75-.36,1.22-.94,1.22-.66,0-.67-1.2-.88-2.19-.32-1.52-1.1-2.81-2.19-2.81-1.39,0-2.9,3.59-3.99,5.56-.67,1.22-.97,1.63-1.8,1.63-1.57,0-3.2-1.91-3.2-4.06,0-1.5.21-2.08.21-2.92,0-.99-.26-1.29-1.12-2.28-.26-.3-.06-.56.34-.49,1.22.22,2.38,1.35,2.38,2.25,0,.96-.67,2.1-.67,3.33,0,1.72,1.16,2.53,1.91,2.53.52,0,1.07-.88,1.63-1.74,1.76-2.7,2.9-4.72,4.44-4.72.94,0,1.68.41,2.32,1.09.94.97,1.57,2.4,1.57,3.61Z"/>
      <path class="cls-1" d="m197.39,221.95c.5.97.15,1.91-.67,1.91-.41,0-.69-.28-.92-.75-.26-.52-.56-1.01-.92-1.44-.34-.39-.86-.88-1.35-1.29-.32-.28-.21-.56.24-.52,1.57.13,3,.94,3.61,2.1Z"/>
      <path class="cls-1" d="m134.68,6.33c.39-.56.9-1.24,1.18-1.24.38,0,1.72,1.1,1.72,1.55,0,.26-.3.43-1.03.43h-8.52c.6.39,1.16.94,1.09,1.22-.08.26-.56.21-.96.11-.41.36-.9.84-1.4,1.25.17.19.28.37.34.56.17.45-.02.86-.43.99-.32.11-.56,0-.82-.28-.24-.24-.54-.66-.92-1.03-.32-.36-.69-.71-1.05-.97-.24-.21-.11-.6.3-.54.75.13,1.35.37,1.82.64.51-.62.9-1.25,1.27-1.95h-6.12c-.24,0-.41-.08-.41-.37,0-.28.17-.37.41-.37h7.4v-1.55h-5.15c-.24,0-.41-.08-.41-.37,0-.28.17-.37.41-.37h5.15c0-.49-.02-.99-.02-1.46h-6.2c-.24,0-.41-.07-.41-.37,0-.28.17-.37.41-.37h6.18c-.02-.64-.06-1.2-.09-1.55-.02-.17.09-.26.26-.26.32,0,2.13.11,2.13.6,0,.39-.41.54-.97.67v.54h4.06c.38-.54.84-1.16,1.11-1.16.36,0,1.65,1.07,1.65,1.5,0,.26-.28.41-.97.41h-5.84v1.46h3c.37-.54.84-1.14,1.1-1.14.36,0,1.63,1.05,1.63,1.5,0,.24-.3.39-.97.39h-4.76v1.55h4.85Zm-6.24,6.22c-1.91.13-3.95.17-5.97.17-.17.41-.39.77-.69.71-.39-.07-.52-.84-.49-1.85.02-.17.11-.21.26-.21,2.08.13,4.12.15,6.03.09,1.44-1.16,2.68-2.47,3.69-3.99.06-.13.22-.17.38-.07.75.39,1.57,1.1,1.46,1.46-.07.28-.58.22-1.05.09-.82.71-1.87,1.67-2.96,2.45,2-.07,3.8-.22,5.32-.37-.3-.36-.64-.69-.97-1.01-.22-.19-.06-.58.34-.51,1.85.34,2.94,1.35,3.16,2.32.13.51-.09.92-.66,1.05-.37.08-.6-.09-.86-.43-.13-.19-.3-.47-.49-.75-1.31.32-2.86.54-4.57.69.02.04.02.06.02.09,0,.21-.19.36-.6.43v1.07c0,.97.02,1.91.02,2.34,0,.39-.28.67-.9.67-.38,0-.51-.21-.51-.56,0-.51.04-1.4.04-2.45v-1.44Zm-1.35,2.17c-.09.26-.37.28-.92.13-.9.67-2.32,1.54-3.89,1.91-.52.19-.77-.26-.36-.56,1.35-.79,2.51-1.72,3.33-2.83.09-.15.24-.22.43-.09.6.34,1.5,1.12,1.4,1.44Zm8.69.6c.19.52.02,1.01-.49,1.18-.54.19-.94-.37-1.57-1.03-.54-.56-1.07-.94-1.55-1.31-.36-.26-.28-.71.26-.67,1.29.09,3,.79,3.35,1.83Z"/>
      <path class="cls-1" d="m125.28,36.37c0,1.31.08,7.25.08,8.03,0,.43-.26.67-.86.67-.36,0-.56-.21-.56-.56,0-.81.17-6.05.19-7.62-.86,1.48-2.02,2.9-3.39,3.89-.49.36-.9,0-.49-.51,1.69-1.87,3.09-4.14,3.74-6.61h-3.01c-.24,0-.41-.08-.41-.37,0-.28.17-.37.41-.37h3.13c-.02-1.69-.09-3.48-.24-4.42-.02-.17.08-.26.24-.26,1.2,0,2.17.11,2.17.56,0,.32-.37.52-.95.64-.02.64-.02,2.08-.04,3.48h.56c.36-.54.79-1.1,1.01-1.1.36,0,1.44,1.07,1.44,1.46.02.26-.34.39-.8.39h-2.21v2.7Zm1.42,1.05c-.21-.41-.47-.82-.71-1.22-.24-.36-.04-.71.45-.54,1.05.41,2,1.16,2,2,0,.49-.3.82-.79.82s-.67-.47-.96-1.07Zm8.69-4.14c.38-.58.86-1.24,1.12-1.24.36,0,1.52,1.14,1.52,1.57.02.26-.36.41-.86.41h-2c0,2.92.04,6.29.02,9.1,0,1.09-.67,1.67-1.44,1.67-.66,0-.36-.66-1.85-1.1-.41-.15-.34-.64.06-.62.47.04.95.09,1.27.09.45.02.67-.17.71-.73.07-1.22.04-4.16.04-6.12-1.37,2.06-3.5,4.25-6.2,5.58-.54.3-.86-.17-.37-.54,2.75-1.89,4.89-4.44,6.27-7.32h-4.94c-.24,0-.41-.07-.41-.37,0-.28.17-.37.41-.37h5.22c-.02-1.55-.08-3.37-.21-4.57-.02-.22.08-.3.37-.3,1.05,0,2.1.17,2.1.58,0,.32-.34.49-.99.66-.04.99-.04,2.25-.04,3.63h.21Z"/>
      <path class="cls-1" d="m136.14,64.49c0,.9-.86,1.33-2.06,1.72-.77.26-2.55.81-3.78,1.27,0,.43.02.94.02,1.31,0,.45-.19.77-.6.79-.43.02-.79-.32-.79-.79,0-.21.04-.45.06-.77-1.27.64-2.02,1.24-2.02,2.12,0,.82.99,1.14,1.98,1.14,1.55,0,2.51-.37,3.28-.37.58,0,1.14.17,1.14.75,0,.54-1.31.99-3.86.99s-3.65-.88-3.65-2.27c0-1.1.75-1.98,3.18-3.18.02-.28,0-.58-.02-.92-.08-.92-.52-1.91-1.48-1.91-1.18,0-1.78,1.54-3.15,3.26-.28.36-.5.69-.95.69s-.66-.3-.67-.67c-.02-.34.11-.71.6-1.2,1.24-1.24,2.75-2.9,3.69-4.89-.77.09-1.42.15-2.32.15-1.35,0-2.1-.67-2.32-2.15-.06-.43.21-.52.51-.24.92.84,1.44,1.24,2.53,1.24.67,0,1.4-.04,2.08-.11.21-.52.34-.94.37-1.24.06-.39.11-.71-.19-1.03-.32-.34-.56-.52-.56-.75,0-.26.58-.37.86-.37.6,0,1.4.21,1.4.66,0,.39-.34,1.57-.71,2.55,2-.45,2.73-1.27,3.52-1.27.41,0,.88.22.9.69.02.43-.64.67-1.16.88-.51.21-2.53.67-3.84.88-.36.62-1.07,1.83-1.37,2.42,1.25-.34,2.43-.21,3.09,1.39,1.12-1.95,2.43-2.66,3.75-2.66s2.55.82,2.55,1.91Zm-1.5-.34c0-.52-.45-.84-1.24-.84s-1.83.56-2.45,1.59c-.36.6-.56,1.12-.64,1.72,1.2-.52,2.4-.97,2.85-1.18.92-.41,1.48-.58,1.48-1.29Z"/>
      <path class="cls-1" d="m134.49,86.99c.43-.62.97-1.35,1.27-1.35.39,0,1.82,1.16,1.82,1.65,0,.26-.32.45-1.09.45h-5.2c.04.06.07.11.07.19,0,.32-.36.49-.97.64-.09,2.68-.04,7.71-.06,11.5,0,1.09-.79,1.57-1.52,1.57-.67,0-.39-.69-2.1-1.12-.43-.11-.36-.67.06-.64.56.06,1.18.15,1.54.15.49,0,.73-.17.77-.71.06-1.14.04-4.23.04-5.92-.02-1.18-.02-3.82-.19-5.65h-7.79c-.24,0-.41-.07-.41-.37,0-.28.17-.37.41-.37h13.35Z"/>
      <path class="cls-1" d="m134.75,125.13c.41-.6.94-1.29,1.24-1.29.39,0,1.78,1.14,1.78,1.61,0,.26-.32.43-1.07.43h-6.27c-.02.24-.34.36-.56.43l-.02,2.13c0,.92-.69,1.25-1.38,1.25s-.38-.6-1.87-.95c-.45-.11-.37-.66,0-.64.43.06,1.24.15,1.5.13.38,0,.51-.11.51-.45.02-.49,0-1.27-.04-1.91h-7.56c-.24,0-.41-.07-.41-.37,0-.28.17-.38.41-.38h13.76Zm-11.29-9.77c.02.21,0,.39-.02.58-.21,1.33-1.09,2-1.97,2-.39,0-.69-.28-.69-.69,0-.67.97-.88,1.46-1.65.32-.45.28-1.05.32-1.63.02-.43.52-.49.67-.07.07.22.11.47.17.71h5.02c0-.51-.02-1.05-.06-1.52-.02-.19.09-.28.26-.28.32,0,2.1.06,2.1.56,0,.37-.39.52-.95.66v.58h4.85c.32-.36.73-.79.96-.79.36,0,1.57,1.03,1.57,1.55,0,.39-.5.37-.97.43-.49.28-1.01.62-1.42.82-.11.06-.21.07-.28.07.97.36,1.8.96,1.87,1.72.04.52-.24.92-.77.97-.51.04-.73-.47-1.09-1.03-.21-.37-.51-.79-.8-1.14-.28-.37-.09-.81.45-.64l.15.06c-.09-.09-.11-.28.02-.51.15-.24.28-.52.41-.79h-11.25Zm-.66,4.49c-.39-.06-.62-.34-.56-.69.06-.52.88-.66,1.38-1.07.36-.32.39-.79.52-1.29.09-.41.6-.37.67.04.08.56.06,1.18-.11,1.78-.34,1.05-1.14,1.33-1.91,1.24Zm10.39.79c.24-.34.58-.71.77-.71.36,0,1.42.77,1.42,1.16,0,.21-.26.36-.54.49-.02.73,0,1.76,0,2.19,0,.58-.28.71-.8.71-.45,0-.58-.34-.58-.64v-.04h-8.63v.36c0,.41-.3.56-.84.56-.34,0-.5-.17-.5-.49,0-.99.08-2.64-.08-4.04-.02-.15.13-.26.28-.24.36.04,1.2.36,1.61.69h7.9Zm-8.37,2.42h2.06v-1.67h-2.04c-.02.3-.02,1.01-.02,1.25v.41Zm2.47-6.37c0,.47-.02.94,0,1.4,0,.51.04.6,2.06.6,1.83,0,2.45-.19,2.71-.47.21-.22.32-.56.41-.88.11-.37.52-.34.52.07,0,1.18.28.97.28,1.4,0,.39-.8.94-3.89.94s-3.29-.21-3.29-1.55c0-.49.04-1.37-.02-2.08-.02-.23.04-.28.26-.28.28,0,1.61.08,1.61.47,0,.21-.22.32-.66.37Zm.8,6.37h2.06v-1.67h-1.7c-.04.13-.15.24-.36.3v1.37Zm1.31-5.75c-.19-.3-.45-.58-.69-.84-.3-.34-.15-.77.39-.66.94.19,1.87.54,2,1.33.06.49-.21.88-.71.96-.47.07-.67-.36-.99-.79Zm4.04,5.75l.04-1.67h-1.72c-.04.13-.15.24-.36.32v1.35h2.04Z"/>
      <path class="cls-1" d="m124.66,151.43c0,1.35.49,1.87.49,2.53,0,.49-.22.75-.77.75-.75,0-1.27-1.55-1.27-2.9,0-3.33,1.46-5.86,1.46-7.71,0-.92-.38-1.35-.82-2.19-.19-.36.02-.58.45-.41.79.32,1.44.9,1.7,1.57.21.54.3.92.02,1.7-.49,1.35-1.01,2.19-1.2,3.09-.07.37.06.49.36.15.56-.64,1.29-1.48,2.55-2.3,1.54-1.01,3.18-1.52,4.77-1.52s2.43.6,2.43,1.05c0,.36-.19.52-.69.82-.67.41-1.67.99-2.36,1.4-.43.26-.77-.11-.43-.45.32-.32.71-.69.97-.99.36-.43.26-.64-.47-.66-.86-.02-2.42.32-3.82,1.16-2.1,1.25-3.37,3.2-3.37,4.91Zm8.18.79c.94,0,1.72-.08,2.28-.08.43,0,.94.09.94.62,0,.75-1.24.96-2.85.96-2.7,0-4.91-1.4-5.35-3.89-.09-.52.49-.6.66-.24.6,1.27,1.65,2.64,4.33,2.64Z"/>
      <path class="cls-1" d="m124.57,172.19v3.54c.88-.3,1.68-.62,2.42-.92.67-.26.9.22.32.62-.79.49-1.7.94-2.73,1.37.02,1.8.02,3.61.02,5.24,0,.96-.49,1.69-1.4,1.69-.67,0-.37-.6-1.57-1.07-.41-.19-.36-.58.02-.58.32.02.84.06,1.12.06.34-.02.54-.13.58-.73.06-1.01.06-2.58.04-4.14-.52.19-1.05.37-1.59.56-.06.47-.19.9-.5.9-.39,0-.67-.62-.84-1.61-.02-.17.06-.24.21-.26.99-.22,1.89-.47,2.73-.73v-.52c0-.62,0-1.95-.02-3.41h-2.43c-.24,0-.41-.08-.41-.37,0-.28.17-.38.41-.38h2.42c-.02-1.7-.07-3.45-.19-4.25-.04-.28.04-.37.36-.37,1.4,0,2.12.26,2.12.6,0,.3-.41.47-1.01.64-.02.94-.04,2.1-.04,3.39h.54c.37-.56.82-1.16,1.07-1.16.36,0,1.46,1.11,1.46,1.5,0,.28-.37.41-.82.41h-2.25Zm9.06,7.56c1.05.94,2.4,1.69,4.08,2.27.43.15.43.39.06.54-.43.17-.58.28-.8.6s-.43.3-.88.06c-1.27-.66-2.42-1.48-3.37-2.53-1.55,1.37-3.71,2.43-6.14,3-.54.13-.69-.39-.19-.6,2.27-.77,4.27-1.93,5.64-3.24-1.05-1.42-1.83-3.24-2.23-5.58-.39,3.16-1.33,5.86-4.03,8.42-.54.51-1.01.04-.58-.45,3.2-3.56,3.71-7.96,3.63-13.39h-2.32c-.24,0-.41-.07-.41-.37,0-.28.17-.37.41-.37h6.44c.3-.38.66-.73.86-.73.39,0,1.48.92,1.46,1.35-.02.3-.43.43-.82.54-.24.79-.62,2.12-.92,3.28h1.35c.32-.37.73-.8.94-.8.39,0,1.52.97,1.52,1.37,0,.26-.39.51-.82.66-.52,2.38-1.37,4.27-2.73,5.84l-.13.15Zm-3.56-10.2c.13,4.12.82,7.19,2.77,9.42,1.2-1.5,1.98-3.33,2.28-5.67h-1.82l-.15.54c-.15.56-.34.6-.9.6-.52,0-.52-.36-.43-.66.5-1.57,1.2-3.97,1.4-4.92h-2.53v.06c0,.19-.24.32-.62.39l-.02.24Z"/>
      <path class="cls-1" d="m126.46,202.96c-.62,0-1.18-.17-1.59-.99-.21-.41-.24-.88-.19-1.27.06-.45.39-.52.58-.3.3.36.73,1.07,1.54,1.07,1.16,0,2.17-.3,3.24-.3,1.87,0,3.61,1.18,3.61,3.93,0,3.59-3,5.43-7,5.43-.71,0-.79-.6-.06-.71,3.48-.54,5.6-2.04,5.6-4.98,0-1.5-.67-2.7-1.95-2.7s-2.73.82-3.78.82Zm2.79-7.04c1.2.37,2.21,1.18,2.21,2.02,0,.3-.21.52-.66.64-.56.15-1.48.32-2.28.38-.32.02-.41-.3-.17-.45.32-.19.58-.36.77-.52.28-.24.28-.49-.02-.73-.52-.43-1.38-.77-2.12-1.01-.39-.13-.37-.56.11-.6.45-.04,1.29.02,2.15.28Z"/>
      <path class="cls-1" d="m132.39,225.22c0-1.44,1.18-2.62,2.62-2.62s2.62,1.18,2.62,2.62-1.18,2.62-2.62,2.62-2.62-1.18-2.62-2.62Zm4.34,0c0-.96-.77-1.72-1.72-1.72s-1.72.77-1.72,1.72.77,1.72,1.72,1.72,1.72-.77,1.72-1.72Z"/>
      <path class="cls-1" d="m64.4,8.7c.28-.36.67-.77.86-.77.41,0,1.42.8,1.42,1.12,0,.21-.28.47-.64.66-.06,1.59-.21,4.16-.62,5.5-.49,1.61-1.72,1.76-2.55,1.76-.34,0-.58-.04-.69-.39-.11-.3-.24-.52-.62-.71-.36-.17-.19-.62.15-.54.43.08.9.19,1.4.19.54,0,.86-.34,1.03-.81.45-1.16.58-3.61.58-5.26h-2.36c-.06.52-.09.92-.11,1.05-.04.37-.26.45-.69.45-.69.02-.75-.21-.69-.54.34-1.48.62-3.93.62-5.62,0-.19.09-.26.32-.24.34.02.9.34,1.24.64h1.74c0-.99.02-2.28.02-2.94h-3.8c-.24,0-.41-.07-.41-.37,0-.28.17-.37.41-.37h3.5c.28-.36.62-.73.84-.73.39,0,1.57.88,1.57,1.29,0,.26-.37.45-.75.58-.04,1.18,0,3.13,0,3.71s-.3.71-.82.71c-.43,0-.58-.34-.58-.64v-.49h-2.04c-.08.75-.19,1.83-.28,2.77h1.95Zm7.98,5.9c1.16-.09,2.19-.21,3.11-.34-.21-.34-.43-.67-.69-.99-.19-.24.06-.6.43-.43,1.87.84,2.56,2.27,2.56,3.03,0,.54-.34.84-.8.84-.38,0-.54-.19-.71-.58-.11-.3-.22-.73-.41-1.16-2.17.58-5.07,1.03-8.16,1.25-.09.43-.26.81-.58.81-.39-.02-.67-.9-.8-1.91-.02-.17.06-.24.21-.24,1.74-.04,3.28-.09,4.64-.19v-3.03h-2.08v.81c0,.39-.28.56-.82.56-.32,0-.49-.17-.49-.51,0-1.14.09-3.78-.07-5.35-.02-.15.11-.26.28-.24.32.06,1.03.32,1.46.62h1.68c-.04-.94-.08-1.7-.13-2.13-.02-.17.09-.26.26-.26.32,0,2.12.06,2.12.54,0,.39-.41.54-.99.67v1.18h2.04c.26-.34.56-.67.75-.67.38,0,1.46.81,1.46,1.22,0,.24-.3.41-.64.54-.04.97,0,2.73,0,3.26,0,.58-.28.71-.79.71-.43,0-.56-.34-.56-.64v-.3h-2.26v2.94Zm-5.34-10.41c-.02-.17.06-.24.21-.24.73,0,1.44-.02,2.1-.04.64-1.14,1.14-2.4,1.44-3.54.04-.17.13-.3.34-.24.64.17,1.76.75,1.76,1.1,0,.28-.34.37-.9.34-.36.58-.9,1.48-1.59,2.32,1.65-.06,3.05-.15,4.25-.26-.3-.39-.62-.75-.99-1.09-.22-.22-.04-.62.36-.51,1.97.52,2.88,1.82,3.01,2.64.08.52-.19.88-.69.95-.36.04-.56-.11-.79-.47-.13-.21-.26-.51-.43-.81-1.95.47-4.44.79-6.7.86-.09.41-.26.79-.58.77-.39,0-.66-.79-.79-1.8Zm4.12,6.72c0-.9-.02-1.8-.02-2.62h-1.95l-.09.02c-.04.41-.04,1.55-.04,1.91v.69h2.1Zm1.22-2.62v2.62h2.28c0-.86.02-2,.02-2.62h-2.3Z"/>
      <path class="cls-1" d="m71.29,30.24c.3.52.32.81-.43,1.52-1.22,1.16-3.11,2.92-3.97,3.84-.43.47-.67.77-.67,1.18,0,.28.24.66,1.05,1.25,1.09.81,2.42,1.83,3.28,2.64,1.09,1.01,1.54,1.89,1.54,2.71,0,.62-.39.88-.79.88-.26,0-.51-.17-.84-.8-.39-.75-.73-1.24-1.33-1.97-.66-.79-2.19-2.19-2.98-2.88-.58-.51-.97-1.03-.97-1.63,0-.66.38-1.25,1.03-2.04.77-.94,2.23-2.62,2.98-3.59.38-.49.49-.9.38-1.33-.09-.36-.21-.56-.24-.75-.06-.28.09-.45.47-.32.62.21,1.22.75,1.52,1.29Z"/>
      <path class="cls-1" d="m70.46,68.52c1.29,2.17,3.74,2.86,7.08,2.98.6.04.58.43.11.6-.47.19-.71.37-.86.6-.24.36-.37.51-.92.39-3.07-.45-5.15-1.8-6.2-4.57h-.43c-.36.96-.86,1.78-1.55,2.45-1.35,1.25-3.69,2.1-6.63,2.25-.58.04-.56-.54-.04-.64,2.49-.43,4.53-1.16,5.64-2.38.47-.51.82-1.07,1.09-1.69h-6.57c-.24,0-.41-.07-.41-.37,0-.28.17-.37.41-.37h6.83c.19-.62.3-1.27.36-1.95.02-.09.04-.19.07-.24h-7c-.24,0-.41-.07-.41-.37,0-.28.17-.37.41-.37h7.08v-2h-5.07c-.24,0-.41-.08-.41-.37,0-.28.17-.37.41-.37h5.07v-1.85h-6.2c-.24,0-.41-.07-.41-.37,0-.28.17-.37.41-.37h8.2c-.15-.09-.19-.28-.06-.52.54-.79.9-1.57,1.18-2.55.06-.17.21-.3.41-.22.66.24,1.7.88,1.67,1.22-.02.3-.32.37-.9.32-.43.58-.99,1.2-1.8,1.69-.06.04-.09.06-.13.07h3.22c.38-.56.86-1.18,1.12-1.18.37,0,1.67,1.07,1.68,1.52,0,.26-.3.41-1.01.41h-5.82c.06.06.09.11.09.17,0,.17-.11.3-.32.39v1.29h3.09c.36-.52.8-1.12,1.07-1.12.36,0,1.61,1.05,1.61,1.48.02.26-.28.39-.95.39h-4.81v2h4.64c.39-.56.9-1.24,1.18-1.24.37,0,1.7,1.1,1.7,1.57,0,.26-.28.41-1.01.41h-6.96c.64.15,1.25.43,1.25.71,0,.24-.32.39-.94.45-.07.36-.15.69-.24,1.03h5.13c.43-.62.97-1.35,1.27-1.35.39,0,1.82,1.18,1.82,1.65,0,.28-.32.45-1.08.45h-6.16Zm-5.13-11.57c-.21-.37,0-.73.51-.54.99.37,1.98,1.09,1.93,1.98-.04.52-.39.86-.94.82-.49-.04-.67-.51-.9-1.09-.15-.39-.37-.8-.6-1.18Z"/>
      <path class="cls-1" d="m64.77,85.14c.67-.02,1.63.3,2.1.73.39.36.45.66.47,1.24.04,1.03-1.18,5.94-1.05,8.33.09,1.74,1.24,2.08,2.45,2.08,3.18,0,4.77-1.93,6.03-3.71.36-.51.79-.28.62.26-.77,2.49-3.2,4.77-6.52,4.83-1.91.04-3.67-.52-3.76-3.54-.08-2.28.54-5.32.54-7.34,0-.67-.04-1.09-.36-1.37-.56-.51-1.31-.64-1.31-1.01,0-.19.34-.49.79-.51Z"/>
      <path class="cls-1" d="m76.17,119.21c0,.75-.36,1.22-.94,1.22-.66,0-.67-1.2-.88-2.19-.32-1.52-1.1-2.81-2.19-2.81-1.39,0-2.9,3.59-3.99,5.56-.67,1.22-.97,1.63-1.8,1.63-1.57,0-3.2-1.91-3.2-4.06,0-1.5.21-2.08.21-2.92,0-.99-.26-1.29-1.12-2.28-.26-.3-.06-.56.34-.49,1.22.23,2.38,1.35,2.38,2.25,0,.95-.67,2.1-.67,3.33,0,1.72,1.16,2.53,1.91,2.53.52,0,1.07-.88,1.63-1.74,1.76-2.7,2.9-4.72,4.44-4.72.94,0,1.68.41,2.32,1.09.94.97,1.57,2.4,1.57,3.61Z"/>
      <path class="cls-1" d="m66.06,149.09c.02,1.44.06,2.36.06,2.77s-.28.67-.86.67c-.36,0-.5-.21-.5-.56,0-.45.04-1.4.06-2.88h-3.97c-.24,0-.41-.07-.41-.37,0-.28.17-.38.41-.38h3.97c.02-.62.02-1.31.02-2.1h-2.02v.58c0,.41-.24.6-.81.6-.32,0-.5-.19-.5-.52,0-.41.06-2.85.06-3.52,0-.84-.04-2.86-.15-3.93-.02-.21.09-.34.34-.26.37.11.97.39,1.37.66h4.74c.26-.34.56-.69.75-.69.36,0,1.4.79,1.4,1.2,0,.24-.3.41-.62.52-.02,1.35.04,4.79.04,5.49,0,.58-.3.71-.79.71-.43,0-.54-.34-.54-.64v-.19h-2.04c0,.79,0,1.48.02,2.1h2.13c.34-.5.75-1.05.99-1.05.34,0,1.5,1.01,1.5,1.42.02.24-.28.37-.88.37h-3.74Zm-4.94-12.41c-.21-.43.08-.8.56-.52.88.58,1.61,1.29,1.48,2.02-.08.47-.43.77-.9.69-.47-.07-.52-.58-.69-1.1-.11-.36-.3-.75-.45-1.09Zm3.71,6.01v-2.1h-2c-.02.41-.02,1.37-.02,2.1h2.02Zm-2.02,2.81h2.02v-2.06h-2.02v2.06Zm1.22-9.25c-.15-.43.17-.79.62-.45.82.64,1.48,1.35,1.29,2.08-.11.45-.5.75-.97.62-.45-.11-.47-.62-.6-1.14-.08-.36-.22-.73-.34-1.1Zm2.02,6.44h2.08v-2.1h-1.48c-.09.13-.28.22-.6.26v1.83Zm2.04,2.81l.02-2.06h-2.06v2.06h2.04Zm-1.52-6.63c.54-.84,1.09-1.78,1.31-2.86.04-.17.17-.32.34-.26.69.19,1.54.77,1.52,1.09-.02.26-.22.36-.79.32-.49.8-1.01,1.46-1.82,2.1-.41.34-.77.06-.56-.38Zm6.61,3.41c.19,2.02.54,3.67.96,4.96.82-1.1,1.44-2.38,1.87-3.91.06-.24.15-.37.32-.36.62.02,1.61.58,1.59.96,0,.22-.26.32-.8.34-.64,1.68-1.39,3.03-2.49,4.27.66,1.42,1.35,2.13,1.83,2.15.13,0,.21-.08.3-.21.15-.3.32-.73.43-1.01.17-.41.56-.36.56.09-.02.36-.02.82-.02,1.22,0,.6.21.79.19,1.2,0,.36-.15.56-.67.56-1.14,0-2.45-.92-3.52-3.09-1.46,1.33-3.5,2.43-6.07,3.05-.52.11-.67-.41-.19-.62,2.49-.9,4.34-2.1,5.67-3.48l.09-.09c-.54-1.5-.99-3.41-1.24-5.82l-1.68.3c-.24.04-.43,0-.47-.3-.06-.28.09-.39.34-.45l1.76-.32c-.13-1.61-.17-3.43-.11-5.47,0-.41.06-.47.41-.47.84,0,2.06.28,2.06.75,0,.32-.39.56-1.22.66-.08,1.59-.06,3.03.04,4.33l2.15-.38c.26-.6.6-1.24.82-1.27.36-.07,1.61.79,1.68,1.2.06.26-.26.45-.73.52l-3.88.69Zm1.35-4.74c-.28-.36-.11-.75.43-.6.92.24,1.85.69,1.89,1.46.04.49-.28.86-.79.9-.45.04-.64-.39-.9-.86-.19-.28-.43-.6-.64-.9Z"/>
      <path class="cls-1" d="m74.77,167.07c.43-.62.97-1.35,1.27-1.35.39,0,1.82,1.16,1.82,1.65,0,.26-.32.45-1.09.45h-15.71c-.24,0-.41-.07-.41-.37,0-.28.17-.38.41-.38h9.51c-.04-.09-.06-.24.04-.41.56-.86,1.03-1.76,1.25-2.77.02-.17.13-.3.32-.24.69.15,1.8.73,1.82,1.07,0,.28-.3.41-.86.39-.43.66-1.11,1.39-1.97,1.95l-.02.02h3.61Zm-7.77,2.62c.28-.36.66-.77.79-.77.43,0,1.57.96,1.57,1.29,0,.24-.32.43-.69.56-.06,2.04-.02,5.43-.04,8.16,0,1.14-.73,1.61-1.54,1.61s-.39-.69-1.27-1.05c-.37-.19-.32-.6.04-.6.11,0,.71.06.99.06.36,0,.5-.17.54-.66.02-.51.04-1.27.04-2.06h-3.5c0,1.44.02,3.43.02,3.82s-.28.62-.86.62c-.34,0-.5-.19-.5-.52,0-1.8.19-8.69-.08-10.95-.02-.15.11-.26.28-.26.3.04,1.29.39,1.72.75h2.49Zm.43,5.8v-2.13h-3.52v2.13h3.52Zm-3.45-5.06c-.02.43-.04,1.31-.06,2.17h3.5v-2.17h-3.45Zm1.55-6.01c-.22-.39,0-.8.54-.58.99.39,1.95,1.03,1.91,1.91-.04.52-.41.88-.95.86-.51-.04-.66-.52-.9-1.09-.17-.36-.39-.75-.6-1.1Zm6.81,9.42c0,.62.04,3.28.04,3.73,0,.41-.34.54-.9.54-.32,0-.54-.15-.54-.49,0-.47.11-3.09.11-3.78,0-.51.02-3.07-.15-4.12-.04-.19.08-.26.24-.26.77,0,2.1.08,2.1.52,0,.28-.32.49-.9.58v3.28Zm4.38-4.38c0,.28-.41.43-.84.51-.04,1.95,0,6.03,0,9.17,0,.94-.69,1.5-1.52,1.5-.45,0-.58-.17-.9-.47-.3-.3-.69-.45-1.07-.56-.41-.11-.36-.58.02-.56.3.02.8.06,1.2.06.69,0,.88-.24.92-.73.11-1.5.04-7.75-.15-9.17-.04-.22.04-.32.28-.32.99,0,2.06.21,2.06.58Z"/>
      <path class="cls-1" d="m75.97,199.39c0,3.59-2.88,5.45-6.74,5.45-.66,0-.69-.58-.11-.69,3.24-.64,5.34-2,5.34-5.07,0-2-1.01-3.67-2.9-4.46-.06.71-.24,1.54-.52,2.3-1.09,3-4.21,6.72-6.46,6.72-.99,0-1.97-1.37-2.13-3.58-.19-2.36.73-4.1,1.97-5.2,1.1-.97,2.81-1.67,4.59-1.67,4.47,0,6.98,2.83,6.98,6.2Zm-5.47-5.11c-.49-.09-1.01-.15-1.57-.15-1.61,0-2.88.52-3.8,1.39-.99.94-1.59,2.26-1.48,4.12.09,1.44.6,2.32,1.14,2.32,1.8,0,4.49-3.65,5.37-6.16.19-.5.3-1.05.34-1.52Z"/>
      <path class="cls-1" d="m70.82,223.27c.04.06.06.13.04.19-.04.11-.17.19-.36.22.39,1.29.9,2.45,1.54,3.48,1.33-.9,2.34-1.76,3.28-2.94.11-.13.24-.22.45-.11.56.32,1.48,1.05,1.38,1.4-.07.32-.47.32-.97.11-.66.56-2.08,1.5-3.73,2.15,1.27,1.8,2.96,3.09,5.02,3.73.58.19.39.47.02.58-.49.17-.62.32-.8.56-.22.32-.39.43-.88.22-2.86-1.31-5.02-4.74-5.94-9.14h-.22c-.47.34-.95.66-1.44.96,1.48,1.33,2.42,3.13,2.42,5.79,0,3-1.25,3.8-2.4,3.82-.43,0-.56-.11-.8-.43-.26-.32-.52-.38-.99-.56-.47-.17-.43-.66.09-.6.43.04,1.09.11,1.68.09.64,0,1.22-.49,1.18-2.45,0-.22-.02-.45-.02-.66-.17.08-.41.04-.77-.13-1.57,1.37-4.29,3.15-7.4,3.99-.51.15-.73-.39-.21-.62,2.75-1.14,5.28-2.64,6.95-4.64.13-.15.24-.21.39-.09.34.21.71.5.96.79-.26-1.72-.94-2.77-1.83-3.84-1.67.97-3.44,1.72-5.47,2.25-.64.13-.73-.45-.19-.66,2.68-1.09,5.06-2.32,6.27-3.46h-3.93c-.24,0-.41-.07-.41-.37,0-.28.17-.37.41-.37h7.58c.39-.6.9-1.29,1.18-1.29.39,0,1.63,1.16,1.63,1.61,0,.28-.36.43-.94.43h-2.77Zm-7.3-2.9c0,.19.02.37,0,.56-.11,1.33-.84,2.34-1.85,2.32-.45.02-.77-.32-.77-.75,0-.82.92-.92,1.4-1.91.26-.47.26-1.09.28-1.61.02-.43.52-.49.67-.08.07.21.13.45.17.71h5c.02-.66,0-1.44-.06-2-.02-.19.09-.28.26-.28.32,0,2.13.06,2.13.56,0,.39-.41.54-.99.67v1.05h5.45c.32-.36.71-.71.92-.71.32,0,1.59,1.11,1.59,1.67-.02.37-.52.41-1.05.52-.54.47-1.18.94-1.61,1.25-.39.26-.75-.04-.5-.45.26-.45.52-1.03.71-1.54h-11.76Zm-1.7,9.06c2.12-.86,3.91-1.89,5.22-3.28.15-.15.24-.21.43-.08.58.34,1.18.88,1.07,1.2-.07.22-.34.28-.84.08-1.09.82-3.28,2.08-5.67,2.7-.52.13-.71-.39-.21-.62Z"/>
      <path class="cls-1" d="m64.66,256c0,1.35.49,1.87.49,2.53,0,.49-.22.75-.77.75-.75,0-1.27-1.55-1.27-2.9,0-3.33,1.46-5.86,1.46-7.71,0-.92-.38-1.35-.82-2.19-.19-.36.02-.58.45-.41.79.32,1.44.9,1.7,1.57.21.54.3.92.02,1.7-.49,1.35-1.01,2.19-1.2,3.09-.07.37.06.49.36.15.56-.64,1.29-1.48,2.55-2.3,1.54-1.01,3.18-1.52,4.77-1.52s2.43.6,2.43,1.05c0,.36-.19.52-.69.82-.67.41-1.67.99-2.36,1.4-.43.26-.77-.11-.43-.45.32-.32.71-.69.97-.99.36-.43.26-.64-.47-.66-.86-.02-2.42.32-3.82,1.16-2.1,1.25-3.37,3.2-3.37,4.91Zm8.18.79c.94,0,1.72-.08,2.28-.08.43,0,.94.09.94.62,0,.75-1.24.96-2.85.96-2.7,0-4.91-1.4-5.35-3.89-.09-.52.49-.6.66-.24.6,1.27,1.65,2.64,4.33,2.64Z"/>
      <path class="cls-1" d="m74.36,282.69c.43-.62.97-1.35,1.27-1.35.39,0,1.82,1.18,1.82,1.65,0,.26-.32.45-1.09.45h-6.08c.11.54.17,1.1.17,1.65,0,2.15-.82,3.22-2.62,3.22-.3,0-.38-.09-.58-.43-.19-.3-.49-.45-.71-.52-.45-.15-.38-.71.06-.66.28.04.94.09,1.33.09.88,0,1.27-.49,1.27-1.8,0-.54-.06-1.07-.15-1.55h-7.62c-.24,0-.41-.07-.41-.37,0-.28.17-.38.41-.38h7.41c-.24-.67-.6-1.29-1.1-1.85-.39-.43.02-.94.51-.58.45.34.82.71,1.12,1.12.94-.82,1.65-1.65,2.12-2.43h-6.33c-.24,0-.41-.08-.41-.37,0-.28.17-.38.41-.38h6.52c.32-.37.6-.66.82-.66.49,0,1.5,1.01,1.5,1.44,0,.38-.56.45-1.18.52-.77.82-1.83,1.78-3.03,2.55.11.21.21.43.28.64h4.31Zm.69-7.08c.32-.38.73-.79.96-.79.32,0,1.59,1.05,1.57,1.63-.02.36-.47.43-1.01.6-.6.58-1.2,1.1-1.7,1.46-.39.3-.8-.02-.56-.41.34-.6.66-1.2.84-1.74h-11.57c.02.15.02.3.02.45-.02,1.46-.84,2.53-1.8,2.58-.41.02-.73-.24-.77-.69-.04-.84.97-.94,1.4-2.06.19-.51.08-1.16.02-1.72-.04-.45.45-.56.67-.15.11.26.21.54.3.84h11.63Zm-11.25-3.13c-.21-.43.07-.82.62-.54.96.47,1.85,1.18,1.72,2.06-.07.54-.47.88-1.03.8-.52-.08-.6-.62-.81-1.18-.11-.37-.32-.79-.5-1.14Zm3.99-.43c-.15-.49.19-.84.71-.49.9.58,1.68,1.35,1.42,2.23-.15.54-.6.82-1.18.66-.49-.13-.47-.69-.58-1.25-.09-.39-.26-.79-.38-1.14Zm3.54,2.81c.62-.9,1.31-1.97,1.7-3.15.04-.17.15-.32.34-.24.71.19,1.76.86,1.74,1.2-.02.28-.28.37-.86.32-.64.84-1.4,1.57-2.36,2.27-.41.36-.8.08-.56-.39Z"/>
      <path class="cls-1" d="m62.53,311.15c.58-.51,1.54-1.4,2.47-2.23.49-.43.97-.13.54.45-.77,1.05-1.87,2.45-2.43,3.22-.37.51-.79.69-1.37.69-.64,0-1.25-.32-1.25-.9,0-.54.38-.62.75-.67.45-.08.9-.22,1.29-.56Zm8.99-7.49c0,.51-.24.77-1.03,1.03-1.2.41-2.55,1.31-2.55,2.32,0,1.07,2.21,2.04,3.5,3.33.6.6.75,1.01.75,1.61,0,1.07-1.27,1.52-2.47,1.52-1.27,0-2.94-.22-3.99-1.01-.37-.28-.26-.64.19-.54.69.15,1.61.41,2.66.41,1.18,0,1.85-.43,1.85-.9,0-1.05-3.41-2.51-3.41-4.31,0-1.52,1.59-2.43,2.38-3.35.34-.39.34-.75.11-1.07-.37-.56-.97-1.05-1.74-1.55-.6-.39-.36-.8.34-.64,1.7.41,3.41,1.72,3.41,3.15Zm4.34.17c0,.43-.32.66-.64.66-.43,0-.56-.32-.99-.82-.32-.37-.75-.77-1.12-1.12-.22-.22-.09-.52.22-.51,1.22.09,2.53.92,2.53,1.8Zm1.65,6.96c0,.49-.24.9-.79.9s-.73-.36-.99-1.05c-.36-.96-.95-1.82-1.93-2.71-.43-.39-.24-.77.47-.54,1.46.47,3.24,1.91,3.24,3.41Zm-.06-8.73c0,.39-.24.66-.62.66-.28,0-.47-.15-.82-.54-.41-.45-.97-.86-1.39-1.16-.3-.22-.17-.54.19-.54,1.2.02,2.64.64,2.64,1.59Z"/>
      <path class="cls-1" d="m77.39,328.24c.5.97.15,1.91-.67,1.91-.41,0-.69-.28-.92-.75-.26-.52-.56-1.01-.92-1.44-.34-.39-.86-.88-1.35-1.29-.32-.28-.21-.56.24-.52,1.57.13,3,.94,3.61,2.1Z"/>
      <path class="cls-1" d="m4.85,11.42c.9-.3,1.69-.6,2.4-.9.75-.28.96.24.3.66-1.37.88-3.2,1.69-5.8,2.53-.06.45-.22.9-.54.9-.39,0-.69-.79-.86-1.78-.02-.17.06-.24.21-.26,1.07-.23,2.06-.47,2.98-.73v-4.42H1.23c-.24,0-.41-.07-.41-.37,0-.28.17-.37.41-.37h2.3V2.56H1.07c-.24,0-.41-.07-.41-.37,0-.28.17-.37.41-.37h4.4c.38-.54.8-1.14,1.07-1.14.36,0,1.55,1.07,1.55,1.5,0,.26-.34.39-.9.39h-2c-.04.13-.15.22-.34.28v3.82h.45c.36-.52.79-1.09,1.03-1.09.34,0,1.48,1.05,1.48,1.44.02.26-.32.39-.86.39h-2.1v4.01Zm7.23.73c-.02.28-.3.39-.88.41-.39,1.12-.97,2.1-1.91,2.81-1.09.81-2.43,1.4-4.83,1.7-.47.11-.66-.45-.15-.64,2-.52,3.22-1.09,4.1-1.83.79-.6,1.31-1.65,1.61-2.88.04-.28.08-.39.36-.36.75.06,1.72.43,1.7.79Zm-2.28-.82c0,.41-.28.62-.84.62-.36,0-.52-.19-.52-.52,0-1.76.17-8.35-.07-10.56-.02-.15.11-.26.28-.26.28.04,1.24.36,1.69.71h4.14c.28-.37.64-.81.84-.81.39,0,1.52.86,1.52,1.27,0,.28-.36.45-.73.6-.08,1.98.04,7.81.06,8.82,0,.58-.32.73-.82.73-.43,0-.56-.34-.56-.64v-.43h-4.96v.47Zm.04-9.25c-.02.41-.04,1.25-.06,2.08h5.02c.02-.9.02-1.65,0-2.1h-4.85l-.11.02Zm-.06,5.06h5.02v-2.23h-5.02v2.23Zm4.98,2.98l.02-2.23h-5l.02,2.23h4.96Zm3.24,5.47c0,.54-.84.95-3,.95s-2.62-.21-2.62-1.52c0-.58.06-2.4-.04-3.45-.02-.26.06-.34.32-.34.38,0,1.5.19,1.5.51,0,.19-.17.3-.51.36-.02.75-.02,2-.02,2.6,0,.56.08.66,1.37.66,1.09,0,1.54-.15,1.72-.47.15-.26.28-.66.36-.95.15-.43.62-.37.6.07,0,1.24.32,1.12.32,1.57Z"/>
      <path class="cls-1" d="m4.47,33.96c-.06.95-.08,4.12-.08,4.72,0,.52.04,5.15.04,5.77,0,.41-.28.64-.86.64-.36,0-.52-.21-.52-.54,0-1.2.11-6.67.04-9.64-.71.96-1.52,1.89-2.47,2.73-.39.39-.84.04-.49-.43,2.1-2.64,3.88-5.73,4.47-8.74.04-.21.11-.3.32-.28.71.11,1.97.71,1.97,1.12,0,.32-.36.43-.9.34-.41,1.01-.94,2.12-1.57,3.22.41.19.81.43.81.64-.02.26-.34.39-.75.47Zm6.8,1.18c.73,3.82,2.3,6.61,4.31,7.75.51.3.84.19,1.07-.24.17-.3.34-.79.45-1.05.19-.41.62-.36.6.08,0,.41-.06.92-.04,1.33.02.51.22.9.22,1.35,0,.41-.32.56-.88.56-.75,0-1.65-.32-2.55-1.1-2.17-1.65-3.63-4.44-4.42-8.54l-4.72.49c-.24.02-.43-.04-.45-.34-.04-.26.11-.37.36-.41l4.66-.49c-.28-1.67-.45-3.54-.54-5.64-.02-.41.06-.47.41-.47.84,0,2.06.28,2.06.75,0,.28-.32.51-.97.62-.04,1.65.08,3.2.3,4.61l3.63-.37c.34-.64.8-1.4,1.1-1.42.36-.06,1.87.95,1.93,1.42.04.26-.3.47-1.01.54l-5.52.58Zm1.59-5.39c-.28-.36-.11-.73.43-.62,1.16.26,2.38.92,2.45,1.89.04.52-.3.94-.88.97-.52.02-.79-.43-1.14-1.03-.24-.41-.56-.86-.86-1.22Z"/>
      <path class="cls-1" d="m15.97,63.82c0,3.59-2.88,5.45-6.74,5.45-.66,0-.69-.58-.11-.69,3.24-.64,5.34-2,5.34-5.07,0-2-1.01-3.67-2.9-4.46-.06.71-.24,1.54-.52,2.3-1.09,3-4.21,6.72-6.46,6.72-.99,0-1.97-1.37-2.13-3.58-.19-2.36.73-4.1,1.97-5.21,1.1-.97,2.81-1.67,4.59-1.67,4.47,0,6.98,2.83,6.98,6.2Zm-5.47-5.11c-.49-.09-1.01-.15-1.57-.15-1.61,0-2.88.52-3.8,1.39-.99.94-1.59,2.27-1.48,4.12.09,1.44.6,2.32,1.14,2.32,1.8,0,4.49-3.65,5.37-6.16.19-.51.3-1.05.34-1.52Z"/>
      <path class="cls-1" d="m10.82,87.7c.04.06.06.13.04.19-.04.11-.17.19-.36.23.39,1.29.9,2.45,1.54,3.48,1.33-.9,2.34-1.76,3.28-2.94.11-.13.24-.23.45-.11.56.32,1.48,1.05,1.38,1.4-.07.32-.47.32-.97.11-.66.56-2.08,1.5-3.73,2.15,1.27,1.8,2.96,3.09,5.02,3.73.58.19.39.47.02.58-.49.17-.62.32-.8.56-.22.32-.39.43-.88.22-2.86-1.31-5.02-4.74-5.94-9.14h-.22c-.47.34-.95.66-1.44.95,1.48,1.33,2.42,3.13,2.42,5.79,0,3-1.25,3.8-2.4,3.82-.43,0-.56-.11-.8-.43-.26-.32-.52-.37-.99-.56-.47-.17-.43-.66.09-.6.43.04,1.09.11,1.68.09.64,0,1.22-.49,1.18-2.45,0-.22-.02-.45-.02-.66-.17.07-.41.04-.77-.13-1.57,1.37-4.29,3.15-7.4,3.99-.51.15-.73-.39-.21-.62,2.75-1.14,5.28-2.64,6.95-4.64.13-.15.24-.21.39-.09.34.21.71.51.96.79-.26-1.72-.94-2.77-1.83-3.84-1.67.97-3.44,1.72-5.47,2.25-.64.13-.73-.45-.19-.66,2.68-1.09,5.06-2.32,6.27-3.46h-3.93c-.24,0-.41-.07-.41-.37,0-.28.17-.37.41-.37h7.58c.39-.6.9-1.29,1.18-1.29.39,0,1.63,1.16,1.63,1.61,0,.28-.36.43-.94.43h-2.77Zm-7.3-2.9c0,.19.02.37,0,.56-.11,1.33-.84,2.34-1.85,2.32-.45.02-.77-.32-.77-.75,0-.82.92-.92,1.4-1.91.26-.47.26-1.09.28-1.61.02-.43.52-.49.67-.07.07.21.13.45.17.71h5c.02-.66,0-1.44-.06-2-.02-.19.09-.28.26-.28.32,0,2.13.06,2.13.56,0,.39-.41.54-.99.67v1.05h5.45c.32-.36.71-.71.92-.71.32,0,1.59,1.1,1.59,1.67-.02.37-.52.41-1.05.52-.54.47-1.18.94-1.61,1.25-.39.26-.75-.04-.5-.45.26-.45.52-1.03.71-1.54H3.52Zm-1.7,9.06c2.12-.86,3.91-1.89,5.22-3.28.15-.15.24-.21.43-.07.58.34,1.18.88,1.07,1.2-.07.22-.34.28-.84.07-1.09.82-3.28,2.08-5.67,2.7-.52.13-.71-.39-.21-.62Z"/>
      <path class="cls-1" d="m3.11,115.84c.43,0,.94-.17,1.29-.34,1.83-.88,4.21-2.55,6.83-2.55,2.9,0,4.85,2.06,4.85,4.27,0,4.19-4.53,5.58-9.36,5.15-.62-.06-.62-.69,0-.73,3.97-.24,7.86-1.27,7.86-4.61,0-1.54-1.05-3.22-3.29-3.22s-4.21,1.67-5.07,2.25c-.77.52-2.23,1.52-2.94,1.48-.82-.04-1.61-.73-1.82-1.55-.09-.37-.09-.75-.04-1.01.06-.28.37-.36.54-.15.24.28.67,1.01,1.14,1.01Zm13.31-3.16c0,.43-.32.66-.64.66-.43,0-.56-.32-.99-.82-.32-.37-.75-.77-1.12-1.12-.22-.22-.09-.52.22-.51,1.22.09,2.53.92,2.53,1.8Zm1.59-1.76c0,.39-.24.66-.62.66-.28,0-.47-.15-.82-.54-.41-.45-.97-.86-1.39-1.16-.3-.22-.17-.54.19-.54,1.2.02,2.64.64,2.64,1.59Z"/>
      <path class="cls-1" d="m11.29,137.56c.3.52.32.8-.43,1.52-1.22,1.16-3.11,2.92-3.97,3.84-.43.47-.67.77-.67,1.18,0,.28.24.66,1.05,1.25,1.09.81,2.42,1.83,3.28,2.64,1.09,1.01,1.54,1.89,1.54,2.71,0,.62-.39.88-.79.88-.26,0-.51-.17-.84-.81-.39-.75-.73-1.24-1.33-1.97-.66-.79-2.19-2.19-2.98-2.88-.58-.51-.97-1.03-.97-1.63,0-.66.38-1.25,1.03-2.04.77-.94,2.23-2.62,2.98-3.59.38-.49.49-.9.38-1.33-.09-.36-.21-.56-.24-.75-.06-.28.09-.45.47-.32.62.21,1.22.75,1.52,1.29Z"/>
      <path class="cls-1" d="m7.69,163.94c1.14.6,1.63,1.42,1.63,2.27,0,.79-.66,1.68-.84,2.27.39-.21.82-.26,1.14-.26,2.43,0,3.73,2.79,3.73,5.56,0,3.63-2.94,5.3-7.11,5.52-.71.04-.79-.58-.09-.73,3.73-.8,5.69-1.93,5.75-5.15.04-2.1-.82-4.29-2.4-4.29-.52,0-1.2.19-1.55,1.14-.26.71-.6,2.38-.69,3.46-.06.62-.28.97-.71.97-.52,0-.81-.58-.81-1.27,0-.56.15-1.27.58-2.45.58-1.57,1.54-3.65,1.54-4.66,0-.84-.26-1.27-.67-1.89-.3-.45-.08-.8.52-.49Z"/>
      <path class="cls-1" d="m12.39,193.81c0-1.44,1.18-2.62,2.62-2.62s2.62,1.18,2.62,2.62-1.18,2.62-2.62,2.62-2.62-1.18-2.62-2.62Zm4.34,0c0-.96-.77-1.72-1.72-1.72s-1.72.77-1.72,1.72.77,1.72,1.72,1.72,1.72-.77,1.72-1.72Z"/>
    </g>
  </g>
</svg>