<?xml version="1.0" encoding="UTF-8"?>
<svg id="_レイヤー_2" data-name="レイヤー 2" xmlns="http://www.w3.org/2000/svg" viewBox="0 0 36.24 98.41">
  <defs>
    <style>
      .cls-1 {
        fill: #251e1c;
        stroke-width: 0px;
      }
    </style>
  </defs>
  <g id="_レイヤー_1-2" data-name="レイヤー 1">
    <g>
      <g>
        <path class="cls-1" d="m18.85,3.68v-1.83l1.34-.63c.28-.16.39-.24.39-.47,0-.32-.28-.51-.63-.55l-3.23-.2v3.68h2.12Z"/>
        <path class="cls-1" d="m1.77,11.33c.75,0,1.5-.51,2.09-1.46.67-1.06.9-1.97,1.1-4.05h26.83c-1.02,1.85-1.06,1.89-1.85,2.99l.32.32,2.91-1.89,2.28.31c.31.04.59-.2.59-.55,0-.28-.16-.51-.47-.75l-3.11-2.64-.87,1.14H4.96c-.04-.63-.12-.94-.43-1.69l-.39-.04c-.2,2.52-.94,4.29-2.44,5.67-.87.79-1.02,1.02-1.02,1.53,0,.59.51,1.1,1.1,1.1Z"/>
        <path class="cls-1" d="m32.38,15.11c.55,0,.9-.43.9-1.14,0-1.02-.9-2.24-2.48-3.46-.98-.75-2.01-1.34-3.86-2.16l-.32.39c1.42,1.02,3.78,3.78,4.41,5.16.47.98.79,1.22,1.34,1.22Z"/>
        <path class="cls-1" d="m6.77,9.4h-.43c-.55,2.56-1.14,3.58-2.56,4.6-.79.59-1.02.9-1.02,1.34s.47.79,1.1.79c1.54,0,2.99-2.48,2.99-5.15,0-.24-.04-.39-.08-1.58Z"/>
        <path class="cls-1" d="m18.94,10.05c.64,1.08.7,1.18,1.08,1.18.41,0,.73-.35.73-.89,0-1.31-1.53-2.3-4.02-2.68l-.19.38c1.18.57,1.72,1.02,2.39,2.01Z"/>
        <path class="cls-1" d="m12.71,8.7c.2-.08.28-.24.28-.39,0-.24-.16-.39-.55-.43l-2.52-.47v5.74c0,.71.2.98.79,1.18.67.2,2.79.32,5.75.32,7,0,9.68-.35,9.68-1.34,0-.12-.08-.24-.16-.32-.67-.55-.75-.67-.75-1.14l.04-2.75-.43-.16-.75,2.48c-.32,1.06-.55,1.3-1.38,1.46-.71.16-3.86.32-6.14.32-1.53,0-4.13-.16-4.56-.24-.28-.08-.36-.28-.36-.75v-2.79l1.06-.71Z"/>
        <g>
          <path class="cls-1" d="m17.98,27.94v4.52c0,1.02-.2,1.34-.91,1.34-.12,0-.43,0-.75-.04l-3.07-.28-.08.63,2.05.67c.63.28.87.47.91.98.08.55.24.71.63.71.47,0,1.53-.31,2.09-.63.83-.43,1.26-1.14,1.26-2.01v-5.89h-2.12Z"/>
          <path class="cls-1" d="m35.81,25.46l-2.52-2.24-2.28,2.56H7.75c-1.54,0-2.91-.04-7.75-.24l1.69,1.49c4.49-.2,4.76-.2,6.06-.2h27.94c.32,0,.55-.24.55-.59,0-.28-.16-.55-.43-.79Z"/>
        </g>
        <path class="cls-1" d="m31.2,17.12l-2.36-1.46-.87,1.18H8.3l-2.01-.98v8.66c0,.16.28.28.55.28.51,0,1.3-.35,1.3-.59v-.94h20.3v.83c0,.2.12.28.35.28.75,0,1.5-.47,1.5-.98v-4.92l1.06-.47c.12-.08.24-.2.24-.36,0-.2-.16-.39-.39-.51Zm-10.47.79v4.29h-5.12v-4.29h5.12Zm-12.59,0h5.74v4.29h-5.74v-4.29Zm20.3,4.29h-5.98v-4.29h5.98v4.29Z"/>
      </g>
      <g>
        <path class="cls-1" d="m30.94,70.99l-2.79-1.9-.97,1.41H8.9l-2.47-1.78v26.09h19.16v-1.09H8.62v-22.12h19.25v26.37c0,.32.12.44.36.44.36,0,.97-.2,1.38-.4.36-.16.48-.36.48-.73v-24.55l.85-.45c.4-.2.53-.32.53-.57s-.2-.48-.53-.73Z"/>
        <rect class="cls-1" x="10.92" y="81.79" width="14.68" height="1.09"/>
      </g>
    </g>
  </g>
</svg>