<?xml version="1.0" encoding="UTF-8"?>
<svg id="_レイヤー_2" data-name="レイヤー 2" xmlns="http://www.w3.org/2000/svg" viewBox="0 0 140 85.07">
  <defs>
    <style>
      .cls-1 {
        fill: #251e1c;
        stroke-width: 0px;
      }
    </style>
  </defs>
  <g id="_レイヤー_1-2" data-name="レイヤー 1">
    <g>
      <g>
        <path class="cls-1" d="m81.14,57.5c0-.4.33-.77.8-.77.1,0,.17,0,.3.03,2.88.87,4.29,2.58,4.29,3.59,0,.64-.17,1.04-.4,1.41-.3,1.81-.7,4.16-1.04,6.27-.3,1.95-.57,3.96-.57,5.94,0,3.92,1.68,6.78,4.06,9.56.17.2.23.4.23.6,0,.5-.37.94-.91.94-.2,0-.44-.07-.64-.27-3.09-2.82-5.03-6.1-5.03-10.7,0-2.21.27-4.46.6-6.67.4-2.78.64-4.73.8-6.88-.54-1.01-1.17-1.71-2.18-2.45-.23-.17-.33-.4-.33-.6Zm7.85,6.57c0-.3.23-.6.64-.6.17,0,.4.03.54.07,2.08.44,3.99,1.41,5.33,2.62.4.37.67.84.67,1.31,0,.74-.4,1.21-1.01,1.21-.3,0-.67-.13-1.01-.54-1.21-1.51-2.95-2.75-4.66-3.42-.33-.13-.5-.4-.5-.64Zm2.58-3.25c0-.3.23-.6.64-.6.17,0,.4.03.54.07,2.08.44,3.99,1.41,5.33,2.62.4.37.67.84.67,1.31,0,.74-.4,1.21-1.01,1.21-.3,0-.67-.13-1.01-.54-1.21-1.51-2.95-2.75-4.66-3.42-.34-.13-.5-.4-.5-.64Z"/>
        <path class="cls-1" d="m123.57,65.24c2.68-1.14,5.6-2.01,8.55-2.01,5,0,7.88,3.35,7.88,7.75,0,5.43-5.33,8.08-10.63,9.19-.34.07-.47.07-.54.07-.54,0-.87-.34-.87-.8,0-.4.2-.67.74-.81,5.27-1.34,8.72-4.46,8.72-8.18,0-3.19-1.95-5.5-5.1-5.47-2.11.03-4.8.74-9.22,2.85-2.45,1.17-3.72,1.68-4.83,1.68-1.91,0-3.32-1.01-3.92-2.62-.17-.44-.27-.87-.27-1.24,0-.54.37-.8.77-.8.27,0,.57.17.7.4.64,1.14,1.14,1.51,2.58,1.51,1.11,0,2.55-.34,5.43-1.51Z"/>
      </g>
      <g>
        <path class="cls-1" d="m9.36,12.88c3.05-3.35,7.04-7.01,10.2-7.01,3.39,0,4.53,3.69,4.53,9.86,0,2.01-.1,3.69-.4,5.06,1.37.67,2.65,1.54,3.79,2.55.47.4.64.84.64,1.27,0,.74-.47,1.34-1.14,1.34-.34,0-.7-.1-1.04-.44-.91-.91-1.91-1.78-3.02-2.55-.87,1.64-2.38,2.48-4.76,2.48-2.52,0-4.66-1.04-4.66-3.15s2.62-2.99,4.33-2.99c1.24,0,2.45.2,3.66.57.23-1.34.3-3.02.3-5,0-5.13-.87-7.24-2.78-7.24-2.21,0-6.47,3.96-9.66,7.58-.03,1.14-.03,2.11-.03,3.29,0,2.38.07,5.8.1,6.88.03,1.11.03,1.41.03,1.54,0,.81-.44,1.27-1.11,1.27-.84,0-1.07-.6-1.07-1.64l-2.18-.77c-.3-.1-.47-.4-.47-.7,0-.37.23-.7.7-.7.07,0,.13,0,.37.03l1.58.23v-1.41c0-1.98.03-3.82.07-5.57-1.37,2.11-2.82,4.36-4.09,6.31-.34.5-.7.74-1.17.74-.7,0-1.04-.5-1.04-1.24,0-.5.17-1.01.47-1.38,1.24-1.44,3.76-4.49,5.97-7.95.03-1.04.07-2.05.1-3.09-1.17.44-2.52.94-3.66,1.44-.37.4-.8.47-1.27.47-1.11,0-2.15-1.21-2.55-2.52-.03-.13-.07-.23-.07-.34,0-.44.33-.64.64-.64.17,0,.34.07.47.2.47.5,1.01.87,1.34.97,1.85-.27,3.52-.77,5.17-1.34.07-1.41.1-2.75.1-4.23s-.47-2.52-1.58-3.79c-.13-.17-.2-.34-.2-.5,0-.47.33-.8.84-.8.17,0,.37.1.54.2,1.91,1.31,2.55,2.78,2.55,4.13,0,.34-.03.81-.1,1.48-.07.74-.14,1.68-.2,2.95.6,0,.94.44.94.94,0,.47-.1,1.01-1.11,2.31l-.03.87Zm8.42,8.08c-.77,0-2.68.07-2.68,1.24,0,.64.77,1.31,2.78,1.31,1.48,0,2.42-.6,2.99-1.71-1.04-.5-2.08-.84-3.09-.84Z"/>
        <path class="cls-1" d="m41.42,6.27c0-.4.3-.74.7-.74.2,0,.4.07.6.2,1.98,1.44,3.12,3.29,3.12,4.96,0,.37-.03.91-.07,1.24-.03.47-.1,1.34-.1,2.31,0,2.82.77,5.03,1.88,6,1.11-1.84,1.81-3.05,2.62-4.43.13-.23.4-.37.64-.37.44,0,.84.27.84.7,0,.13,0,.27-.07.44-.57,1.24-1.37,2.99-2.05,4.66.2.54.23.91.23,1.27,0,.64-.47,1.21-1.14,1.21s-1.27-.23-1.95-.87c-2.48-2.35-3.19-5.84-3.19-10.77,0-2.18-.27-3.42-1.84-5.2-.17-.2-.23-.4-.23-.64Zm23.88,10.57c-.91-2.72-3.55-5.43-6.54-6.91-.34-.17-.47-.44-.47-.74,0-.37.27-.74.74-.74.07,0,.13,0,.27.03,3.69,1.14,7.61,4.6,8.69,8.18.2.64.3,1.11.3,1.58,0,.97-.57,1.58-1.21,1.58s-1.04-.27-1.37-.97l-2.08-.27c-.54-.1-.77-.44-.77-.8,0-.4.27-.77.74-.81l1.71-.13Z"/>
      </g>
      <polygon class="cls-1" points="0 72.4 140 11.24 140 8.4 0 69.56 0 72.4"/>
    </g>
  </g>
</svg>