<?xml version="1.0" encoding="UTF-8"?>
<svg id="_レイヤー_1" data-name="レイヤー 1" xmlns="http://www.w3.org/2000/svg" viewBox="0 0 300 125.191">
  <defs>
    <style>
      .cls-1 {
        fill: none;
        stroke: #040000;
        stroke-miterlimit: 10;
        stroke-width: .265px;
      }

      .cls-2 {
        fill: #cfccca;
      }

      .cls-3 {
        fill: #2e2a25;
      }

      .cls-4 {
        fill: #b5afae;
      }
    </style>
  </defs>
  <rect class="cls-4" x="42.857" y=".467" width="257.143" height="62.128"/>
  <rect class="cls-2" y="62.595" width="300" height="62.128"/>
  <g>
    <path class="cls-3" d="M14.51,80.057c1.948.461,1.452,1.752.82,1.324-.086-.41-.487-.906-.838-1.213v2.562c0,.068-.29.215-.529.215h-.129v-2.273c-.427.623-.974,1.162-1.614,1.605l-.103-.119c.666-.666,1.17-1.562,1.486-2.461h-1.315l-.068-.248h1.614v-.965l.932.102c-.009.104-.085.189-.273.215v.648h.701l.393-.504s.428.352.701.615c-.026.094-.111.137-.231.137h-1.563v.377l.018-.018ZM12.202,78.374l-.068-.248h2.281c.163-.486.342-1.152.419-1.641l.932.273c-.034.094-.128.172-.308.162-.196.352-.53.82-.846,1.205h.684l.393-.529s.47.375.752.641c-.025.094-.111.137-.23.137h-4.008ZM12.288,76.204h1.555v-1.129l.966.086c-.018.119-.086.197-.291.23v.812h.564l.393-.504s.453.357.727.623c-.025.094-.111.137-.23.137h-3.623l-.06-.256ZM12.979,76.502c1.444.838.786,1.932.273,1.418,0-.443-.196-1.016-.376-1.375l.103-.043ZM19.337,77.467s.505.402.812.693c-.026.094-.111.137-.231.137h-.862v4.434c0,.053-.223.215-.573.215h-.11v-4.648h-1.128v.273c0,1.537-.197,3.246-2.009,4.365l-.103-.111c1.248-1.162,1.436-2.656,1.436-4.264v-2.811l.761.248c.684-.266,1.419-.65,1.812-.932l.786.641c-.077.076-.222.086-.444.018-.547.18-1.427.393-2.238.504v1.82h1.648l.444-.582Z"/>
    <path class="cls-3" d="M24.266,76.254c-.402.496-.881.889-1.376,1.162l-.111-.102c.538-.496,1.068-1.342,1.401-2.266l.897.385c-.043.094-.154.162-.342.129-.086.152-.18.307-.282.443h1.427l.385-.486s.419.35.684.598c-.025.094-.103.137-.222.137h-1.624c.872.496.333,1.238-.119.838-.009-.273-.137-.598-.273-.838h-.444ZM27.41,80.809c.803.623,2.179,1.076,3.366,1.248l-.009.094c-.273.059-.495.281-.572.615-1.239-.359-2.384-1.025-3.067-1.957h-.025v1.947c0,.068-.291.197-.564.197h-.119v-1.854c-.854.811-2.111,1.383-3.572,1.734l-.068-.137c1.222-.445,2.29-1.111,2.974-1.889h-2.743l-.068-.248h3.479v-.812l.965.096c-.017.109-.085.188-.281.221v.496h2.307l.419-.512s.495.35.795.623c-.018.094-.095.137-.214.137h-2.999ZM22.933,79.374c.299-.035.803-.111,1.401-.205v-1.342h-1.111l-.068-.248h2.103l.376-.453s.427.326.709.564c-.025.094-.111.137-.23.137h-1.137v1.23c.393-.061.812-.137,1.239-.213l.025.127c-.615.24-1.495.557-2.718.957-.034.111-.11.172-.196.189l-.393-.744ZM26.316,77.067c.444-.445.914-1.197,1.213-2.018l.889.334c-.034.094-.146.162-.324.145-.103.172-.214.324-.334.479h1.752l.41-.521s.479.367.77.633c-.026.094-.103.137-.214.137h-1.863c.462.248.547.572.453.777l.641.547c-.051.051-.137.104-.281.119v1.453c0,.094.017.104.145.104h.564c.051,0,.085-.01.111-.068.051-.094.137-.445.222-.787h.103l.018.803c.179.068.205.129.205.248,0,.248-.231.385-.975.385h-.427c-.505,0-.573-.154-.573-.547v-1.666h-1.546v.555c0,.693-.214,1.539-2.103,2l-.068-.111c1.299-.521,1.529-1.188,1.529-1.889v-1.102l.752.309h1.359l.179-.197c-.11.061-.265.061-.418-.061-.026-.289-.205-.631-.385-.871h-.564c-.35.385-.743.701-1.136.924l-.103-.111ZM27.401,78.049c1.7.281,1.256,1.426.675,1.043-.077-.352-.436-.752-.761-.967l.086-.076Z"/>
    <path class="cls-3" d="M19.927,113.266c.188.086.223.17.223.291,0,.281-.266.41-1.196.41h-.581c-.581,0-.684-.154-.684-.6v-1.666c-.667,1.018-1.709,1.855-3.376,2.471l-.085-.129c2.017-1.068,2.99-2.418,3.478-3.982h-2.085l-.068-.256h.914v-2.691h-.623l-.009-.018c-.068.051-.171.111-.308.137v3.195c-.018.043-.342.172-.564.172h-.103v-.504h-1.495v2.213c.436-.154.932-.334,1.444-.521-.205-.375-.47-.734-.709-1.018l.094-.059c2.247,1,1.675,2.572.966,2.016-.034-.238-.137-.504-.266-.76-.521.35-1.238.812-2.161,1.35-.026.111-.095.205-.18.24l-.41-.838c.137-.043.333-.104.572-.188v-5.982l.752.316h1.316l.333-.385.7.529-.042-.137h3.042l.401-.537s.47.375.743.648c-.025.094-.103.129-.222.129h-.82c-.077.957-.188,1.863-.41,2.691h.547l.384-.539s.444.385.71.658c-.026.094-.111.137-.231.137h-1.478c-.052.172-.111.334-.171.496l.333.035c-.009.109-.086.195-.248.221v2.393c0,.111.018.137.205.137h.428c.188,0,.342,0,.401-.008.077,0,.103-.018.137-.111.06-.154.171-.709.273-1.248h.103l.025,1.291ZM13.364,107.106v1.246h1.495v-1.246h-1.495ZM14.859,109.848v-1.248h-1.495v1.248h1.495ZM17.782,109.805c.23-.838.333-1.742.393-2.691h-1.076v2.691h.684Z"/>
    <path class="cls-3" d="M25.889,107.934c-.222.461-.495.932-.82,1.375l.077.018c-.018.076-.077.129-.205.162l-.12.146v4.289c0,.059-.188.238-.572.238h-.103v-3.768c-.376.359-.786.701-1.256.982l-.086-.094c.505-.428.957-.939,1.342-1.496v-.641l.367.068c.248-.418.462-.854.649-1.281h-2.188l-.06-.248h2.35c.188-.486.342-.957.453-1.41l1.017.324c-.034.111-.11.164-.342.154-.11.299-.23.615-.384.932h3.272l.47-.598s.547.41.889.709c-.025.094-.111.137-.239.137h-4.512ZM29.965,110.471s.521.395.837.676c-.025.094-.11.137-.23.137h-2.196v1.965c0,.529-.128.838-1.042.924-.025-.215-.077-.377-.196-.488-.146-.111-.359-.188-.786-.256v-.119s.948.068,1.136.068c.154,0,.197-.051.197-.172v-1.922h-2.333l-.068-.248h2.401v-.922l.358.033c.299-.266.667-.641.923-.949h-2.999l-.077-.256h3.17l.428-.393.709.676c-.068.068-.171.084-.358.094-.351.273-.957.615-1.479.863l.308.025c-.018.127-.103.188-.291.221v.607h1.154l.436-.564Z"/>
  </g>
  <g>
    <path class="cls-3" d="M61.151,79.237c0,2.307-.965,3.137-1.948,3.137-1.008,0-1.965-.83-1.965-3.137s.957-3.152,1.965-3.152c.983,0,1.948.854,1.948,3.152ZM59.203,82.014c.573,0,1.111-.582,1.111-2.777s-.538-2.785-1.111-2.785c-.598,0-1.136.58-1.136,2.785s.538,2.777,1.136,2.777Z"/>
    <path class="cls-3" d="M66.918,78.024c0,1.367-.624,1.93-1.29,1.93s-1.299-.562-1.299-1.93c0-1.377.632-1.949,1.299-1.949s1.29.572,1.29,1.949ZM65.628,79.68c.333,0,.641-.314.641-1.656,0-1.352-.308-1.658-.641-1.658-.342,0-.658.299-.658,1.658,0,1.342.316,1.656.658,1.656ZM65.448,82.278l4.366-6.289.257.197-4.367,6.297-.256-.205ZM71.07,80.407c0,1.367-.623,1.932-1.29,1.932s-1.299-.564-1.299-1.932c0-1.375.633-1.939,1.299-1.939s1.29.564,1.29,1.939ZM69.78,82.065c.333,0,.649-.316.649-1.658s-.316-1.656-.649-1.656-.658.307-.658,1.656c0,1.342.325,1.658.658,1.658Z"/>
    <path class="cls-3" d="M61.151,110.463c0,2.307-.965,3.137-1.948,3.137-1.008,0-1.965-.83-1.965-3.137s.957-3.152,1.965-3.152c.983,0,1.948.854,1.948,3.152ZM59.203,113.241c.573,0,1.111-.582,1.111-2.777s-.538-2.785-1.111-2.785c-.598,0-1.136.58-1.136,2.785s.538,2.777,1.136,2.777Z"/>
    <path class="cls-3" d="M66.918,109.251c0,1.367-.624,1.93-1.29,1.93s-1.299-.562-1.299-1.93c0-1.377.632-1.949,1.299-1.949s1.29.572,1.29,1.949ZM65.628,110.907c.333,0,.641-.314.641-1.656,0-1.352-.308-1.658-.641-1.658-.342,0-.658.299-.658,1.658,0,1.342.316,1.656.658,1.656ZM65.448,113.504l4.366-6.289.257.197-4.367,6.297-.256-.205ZM71.07,111.633c0,1.367-.623,1.932-1.29,1.932s-1.299-.564-1.299-1.932c0-1.375.633-1.939,1.299-1.939s1.29.564,1.29,1.939ZM69.78,113.292c.333,0,.649-.316.649-1.658s-.316-1.656-.649-1.656-.658.307-.658,1.656c0,1.342.325,1.658.658,1.658Z"/>
  </g>
  <g>
    <path class="cls-3" d="M104.008,79.237c0,2.307-.965,3.137-1.948,3.137-1.008,0-1.965-.83-1.965-3.137s.957-3.152,1.965-3.152c.983,0,1.948.854,1.948,3.152ZM102.06,82.014c.573,0,1.111-.582,1.111-2.777s-.538-2.785-1.111-2.785c-.598,0-1.136.58-1.136,2.785s.538,2.777,1.136,2.777Z"/>
    <path class="cls-3" d="M109.774,78.024c0,1.367-.624,1.93-1.29,1.93s-1.299-.562-1.299-1.93c0-1.377.632-1.949,1.299-1.949s1.29.572,1.29,1.949ZM108.484,79.68c.333,0,.641-.314.641-1.656,0-1.352-.308-1.658-.641-1.658-.342,0-.658.299-.658,1.658,0,1.342.316,1.656.658,1.656ZM108.305,82.278l4.366-6.289.257.197-4.367,6.297-.256-.205ZM113.927,80.407c0,1.367-.623,1.932-1.29,1.932s-1.299-.564-1.299-1.932c0-1.375.633-1.939,1.299-1.939s1.29.564,1.29,1.939ZM112.637,82.065c.333,0,.649-.316.649-1.658s-.316-1.656-.649-1.656-.658.307-.658,1.656c0,1.342.325,1.658.658,1.658Z"/>
    <path class="cls-3" d="M104.008,110.463c0,2.307-.965,3.137-1.948,3.137-1.008,0-1.965-.83-1.965-3.137s.957-3.152,1.965-3.152c.983,0,1.948.854,1.948,3.152ZM102.06,113.241c.573,0,1.111-.582,1.111-2.777s-.538-2.785-1.111-2.785c-.598,0-1.136.58-1.136,2.785s.538,2.777,1.136,2.777Z"/>
    <path class="cls-3" d="M109.774,109.251c0,1.367-.624,1.93-1.29,1.93s-1.299-.562-1.299-1.93c0-1.377.632-1.949,1.299-1.949s1.29.572,1.29,1.949ZM108.484,110.907c.333,0,.641-.314.641-1.656,0-1.352-.308-1.658-.641-1.658-.342,0-.658.299-.658,1.658,0,1.342.316,1.656.658,1.656ZM108.305,113.504l4.366-6.289.257.197-4.367,6.297-.256-.205ZM113.927,111.633c0,1.367-.623,1.932-1.29,1.932s-1.299-.564-1.299-1.932c0-1.375.633-1.939,1.299-1.939s1.29.564,1.29,1.939ZM112.637,113.292c.333,0,.649-.316.649-1.658s-.316-1.656-.649-1.656-.658.307-.658,1.656c0,1.342.325,1.658.658,1.658Z"/>
  </g>
  <line class="cls-1" y1="93.66" x2="300" y2="93.66"/>
  <line class="cls-1" x1="85.714" y1="124.724" x2="85.714" y2="31.531"/>
  <line class="cls-1" x1="128.571" y1="124.724" x2="128.571" y2="31.531"/>
  <g>
    <path class="cls-3" d="M146.865,79.237c0,2.307-.965,3.137-1.948,3.137-1.008,0-1.965-.83-1.965-3.137s.957-3.152,1.965-3.152c.983,0,1.948.854,1.948,3.152ZM144.917,82.014c.573,0,1.111-.582,1.111-2.777s-.538-2.785-1.111-2.785c-.598,0-1.136.58-1.136,2.785s.538,2.777,1.136,2.777Z"/>
    <path class="cls-3" d="M152.632,78.024c0,1.367-.624,1.93-1.29,1.93s-1.299-.562-1.299-1.93c0-1.377.632-1.949,1.299-1.949s1.29.572,1.29,1.949ZM151.342,79.68c.333,0,.641-.314.641-1.656,0-1.352-.308-1.658-.641-1.658-.342,0-.658.299-.658,1.658,0,1.342.316,1.656.658,1.656ZM151.162,82.278l4.366-6.289.257.197-4.367,6.297-.256-.205ZM156.784,80.407c0,1.367-.623,1.932-1.29,1.932s-1.299-.564-1.299-1.932c0-1.375.633-1.939,1.299-1.939s1.29.564,1.29,1.939ZM155.494,82.065c.333,0,.649-.316.649-1.658s-.316-1.656-.649-1.656-.658.307-.658,1.656c0,1.342.325,1.658.658,1.658Z"/>
    <path class="cls-3" d="M146.865,110.463c0,2.307-.965,3.137-1.948,3.137-1.008,0-1.965-.83-1.965-3.137s.957-3.152,1.965-3.152c.983,0,1.948.854,1.948,3.152ZM144.917,113.241c.573,0,1.111-.582,1.111-2.777s-.538-2.785-1.111-2.785c-.598,0-1.136.58-1.136,2.785s.538,2.777,1.136,2.777Z"/>
    <path class="cls-3" d="M152.632,109.251c0,1.367-.624,1.93-1.29,1.93s-1.299-.562-1.299-1.93c0-1.377.632-1.949,1.299-1.949s1.29.572,1.29,1.949ZM151.342,110.907c.333,0,.641-.314.641-1.656,0-1.352-.308-1.658-.641-1.658-.342,0-.658.299-.658,1.658,0,1.342.316,1.656.658,1.656ZM151.162,113.504l4.366-6.289.257.197-4.367,6.297-.256-.205ZM156.784,111.633c0,1.367-.623,1.932-1.29,1.932s-1.299-.564-1.299-1.932c0-1.375.633-1.939,1.299-1.939s1.29.564,1.29,1.939ZM155.494,113.292c.333,0,.649-.316.649-1.658s-.316-1.656-.649-1.656-.658.307-.658,1.656c0,1.342.325,1.658.658,1.658Z"/>
  </g>
  <g>
    <path class="cls-3" d="M189.723,79.237c0,2.307-.965,3.137-1.948,3.137-1.008,0-1.965-.83-1.965-3.137s.957-3.152,1.965-3.152c.983,0,1.948.854,1.948,3.152ZM187.774,82.014c.573,0,1.111-.582,1.111-2.777s-.538-2.785-1.111-2.785c-.598,0-1.136.58-1.136,2.785s.538,2.777,1.136,2.777Z"/>
    <path class="cls-3" d="M195.489,78.024c0,1.367-.624,1.93-1.29,1.93s-1.299-.562-1.299-1.93c0-1.377.632-1.949,1.299-1.949s1.29.572,1.29,1.949ZM194.199,79.68c.333,0,.641-.314.641-1.656,0-1.352-.308-1.658-.641-1.658-.342,0-.658.299-.658,1.658,0,1.342.316,1.656.658,1.656ZM194.02,82.278l4.366-6.289.257.197-4.367,6.297-.256-.205ZM199.642,80.407c0,1.367-.623,1.932-1.29,1.932s-1.299-.564-1.299-1.932c0-1.375.633-1.939,1.299-1.939s1.29.564,1.29,1.939ZM198.352,82.065c.333,0,.649-.316.649-1.658s-.316-1.656-.649-1.656-.658.307-.658,1.656c0,1.342.325,1.658.658,1.658Z"/>
    <path class="cls-3" d="M189.723,110.463c0,2.307-.965,3.137-1.948,3.137-1.008,0-1.965-.83-1.965-3.137s.957-3.152,1.965-3.152c.983,0,1.948.854,1.948,3.152ZM187.774,113.241c.573,0,1.111-.582,1.111-2.777s-.538-2.785-1.111-2.785c-.598,0-1.136.58-1.136,2.785s.538,2.777,1.136,2.777Z"/>
    <path class="cls-3" d="M195.489,109.251c0,1.367-.624,1.93-1.29,1.93s-1.299-.562-1.299-1.93c0-1.377.632-1.949,1.299-1.949s1.29.572,1.29,1.949ZM194.199,110.907c.333,0,.641-.314.641-1.656,0-1.352-.308-1.658-.641-1.658-.342,0-.658.299-.658,1.658,0,1.342.316,1.656.658,1.656ZM194.02,113.504l4.366-6.289.257.197-4.367,6.297-.256-.205ZM199.642,111.633c0,1.367-.623,1.932-1.29,1.932s-1.299-.564-1.299-1.932c0-1.375.633-1.939,1.299-1.939s1.29.564,1.29,1.939ZM198.352,113.292c.333,0,.649-.316.649-1.658s-.316-1.656-.649-1.656-.658.307-.658,1.656c0,1.342.325,1.658.658,1.658Z"/>
  </g>
  <g>
    <path class="cls-3" d="M229.167,81.526v.727h-3.846v-.58c.513-.514,1.009-1.051,1.419-1.479.948-.992,1.342-1.717,1.342-2.469,0-.77-.444-1.273-1.146-1.273-.137,0-.316.016-.504.059l-.188.684c-.11.428-.273.59-.513.59-.196,0-.358-.102-.452-.281.128-.957.948-1.418,1.88-1.418,1.204,0,1.743.656,1.743,1.598,0,.803-.437,1.443-1.872,2.803-.265.256-.666.641-1.094,1.041h3.23Z"/>
    <path class="cls-3" d="M235.992,79.237c0,2.307-.965,3.137-1.948,3.137-1.008,0-1.965-.83-1.965-3.137s.957-3.152,1.965-3.152c.983,0,1.948.854,1.948,3.152ZM234.044,82.014c.573,0,1.111-.582,1.111-2.777s-.538-2.785-1.111-2.785c-.598,0-1.136.58-1.136,2.785s.538,2.777,1.136,2.777Z"/>
    <path class="cls-3" d="M241.759,78.024c0,1.367-.623,1.93-1.29,1.93s-1.299-.562-1.299-1.93c0-1.377.633-1.949,1.299-1.949s1.29.572,1.29,1.949ZM240.469,79.68c.333,0,.641-.314.641-1.656,0-1.352-.308-1.658-.641-1.658-.342,0-.658.299-.658,1.658,0,1.342.316,1.656.658,1.656ZM240.289,82.278l4.367-6.289.256.197-4.366,6.297-.257-.205ZM245.912,80.407c0,1.367-.624,1.932-1.29,1.932s-1.299-.564-1.299-1.932c0-1.375.632-1.939,1.299-1.939s1.29.564,1.29,1.939ZM244.622,82.065c.333,0,.649-.316.649-1.658s-.316-1.656-.649-1.656-.658.307-.658,1.656c0,1.342.324,1.658.658,1.658Z"/>
    <path class="cls-3" d="M232.58,110.463c0,2.307-.966,3.137-1.948,3.137-1.009,0-1.966-.83-1.966-3.137s.957-3.152,1.966-3.152c.982,0,1.948.854,1.948,3.152ZM230.632,113.241c.572,0,1.11-.582,1.11-2.777s-.538-2.785-1.11-2.785c-.599,0-1.137.58-1.137,2.785s.538,2.777,1.137,2.777Z"/>
    <path class="cls-3" d="M238.346,109.251c0,1.367-.623,1.93-1.29,1.93s-1.299-.562-1.299-1.93c0-1.377.633-1.949,1.299-1.949s1.29.572,1.29,1.949ZM237.056,110.907c.333,0,.641-.314.641-1.656,0-1.352-.308-1.658-.641-1.658-.342,0-.658.299-.658,1.658,0,1.342.316,1.656.658,1.656ZM236.876,113.504l4.367-6.289.256.197-4.366,6.297-.257-.205ZM242.499,111.633c0,1.367-.624,1.932-1.29,1.932s-1.299-.564-1.299-1.932c0-1.375.632-1.939,1.299-1.939s1.29.564,1.29,1.939ZM241.209,113.292c.333,0,.649-.316.649-1.658s-.316-1.656-.649-1.656-.658.307-.658,1.656c0,1.342.324,1.658.658,1.658Z"/>
  </g>
  <g>
    <path class="cls-3" d="M269.016,78.622c.308-.094.607-.137.949-.137,1.213,0,2.042.676,2.042,1.889,0,1.195-.863,2-2.188,2-.948,0-1.556-.438-1.743-1.299.077-.197.239-.301.444-.301.273,0,.393.137.504.59l.154.564c.196.061.376.086.572.086.932,0,1.436-.607,1.436-1.547,0-.975-.556-1.486-1.461-1.486-.3,0-.607.033-.906.119l-.239-.068.196-2.82h3.06v.727h-2.7l-.12,1.684Z"/>
    <path class="cls-3" d="M278.85,79.237c0,2.307-.966,3.137-1.948,3.137-1.009,0-1.966-.83-1.966-3.137s.957-3.152,1.966-3.152c.982,0,1.948.854,1.948,3.152ZM276.901,82.014c.572,0,1.11-.582,1.11-2.777s-.538-2.785-1.11-2.785c-.599,0-1.137.58-1.137,2.785s.538,2.777,1.137,2.777Z"/>
    <path class="cls-3" d="M284.616,78.024c0,1.367-.624,1.93-1.29,1.93s-1.299-.562-1.299-1.93c0-1.377.632-1.949,1.299-1.949s1.29.572,1.29,1.949ZM283.326,79.68c.333,0,.641-.314.641-1.656,0-1.352-.308-1.658-.641-1.658-.342,0-.658.299-.658,1.658,0,1.342.316,1.656.658,1.656ZM283.146,82.278l4.366-6.289.257.197-4.367,6.297-.256-.205ZM288.769,80.407c0,1.367-.623,1.932-1.29,1.932s-1.299-.564-1.299-1.932c0-1.375.633-1.939,1.299-1.939s1.29.564,1.29,1.939ZM287.479,82.065c.333,0,.649-.316.649-1.658s-.316-1.656-.649-1.656-.658.307-.658,1.656c0,1.342.325,1.658.658,1.658Z"/>
    <path class="cls-3" d="M269.016,109.848c.308-.094.607-.137.949-.137,1.213,0,2.042.676,2.042,1.889,0,1.195-.863,2-2.188,2-.948,0-1.556-.438-1.743-1.299.077-.197.239-.301.444-.301.273,0,.393.137.504.59l.154.564c.196.061.376.086.572.086.932,0,1.436-.607,1.436-1.547,0-.975-.556-1.486-1.461-1.486-.3,0-.607.033-.906.119l-.239-.068.196-2.82h3.06v.727h-2.7l-.12,1.684Z"/>
    <path class="cls-3" d="M278.85,110.463c0,2.307-.966,3.137-1.948,3.137-1.009,0-1.966-.83-1.966-3.137s.957-3.152,1.966-3.152c.982,0,1.948.854,1.948,3.152ZM276.901,113.241c.572,0,1.11-.582,1.11-2.777s-.538-2.785-1.11-2.785c-.599,0-1.137.58-1.137,2.785s.538,2.777,1.137,2.777Z"/>
    <path class="cls-3" d="M284.616,109.251c0,1.367-.624,1.93-1.29,1.93s-1.299-.562-1.299-1.93c0-1.377.632-1.949,1.299-1.949s1.29.572,1.29,1.949ZM283.326,110.907c.333,0,.641-.314.641-1.656,0-1.352-.308-1.658-.641-1.658-.342,0-.658.299-.658,1.658,0,1.342.316,1.656.658,1.656ZM283.146,113.504l4.366-6.289.257.197-4.367,6.297-.256-.205ZM288.769,111.633c0,1.367-.623,1.932-1.29,1.932s-1.299-.564-1.299-1.932c0-1.375.633-1.939,1.299-1.939s1.29.564,1.29,1.939ZM287.479,113.292c.333,0,.649-.316.649-1.658s-.316-1.656-.649-1.656-.658.307-.658,1.656c0,1.342.325,1.658.658,1.658Z"/>
  </g>
  <g>
    <path class="cls-3" d="M56.009,45.127v.727h-3.846v-.582c.513-.512,1.009-1.051,1.419-1.479.948-.99,1.342-1.717,1.342-2.469,0-.77-.444-1.273-1.146-1.273-.137,0-.316.018-.504.061l-.188.684c-.11.428-.273.59-.513.59-.196,0-.358-.104-.452-.283.128-.957.948-1.418,1.88-1.418,1.204,0,1.743.658,1.743,1.598,0,.803-.437,1.445-1.872,2.803-.265.256-.666.641-1.094,1.043h3.23Z"/>
    <path class="cls-3" d="M62.834,42.836c0,2.309-.965,3.137-1.948,3.137-1.008,0-1.965-.828-1.965-3.137,0-2.297.957-3.152,1.965-3.152.983,0,1.948.855,1.948,3.152ZM60.886,45.614c.573,0,1.111-.58,1.111-2.777s-.538-2.785-1.111-2.785c-.598,0-1.136.582-1.136,2.785s.538,2.777,1.136,2.777Z"/>
    <path class="cls-3" d="M69.66,45.127v.727h-3.845v-.582c.513-.512,1.008-1.051,1.418-1.479.949-.99,1.342-1.717,1.342-2.469,0-.77-.444-1.273-1.145-1.273-.137,0-.316.018-.505.061l-.188.684c-.111.428-.273.59-.513.59-.196,0-.359-.104-.453-.283.128-.957.948-1.418,1.88-1.418,1.205,0,1.743.658,1.743,1.598,0,.803-.436,1.445-1.871,2.803-.265.256-.667.641-1.094,1.043h3.229Z"/>
    <path class="cls-3" d="M76.486,42.836c0,2.309-.966,3.137-1.948,3.137-1.009,0-1.966-.828-1.966-3.137,0-2.297.957-3.152,1.966-3.152.982,0,1.948.855,1.948,3.152ZM74.538,45.614c.572,0,1.11-.58,1.11-2.777s-.538-2.785-1.11-2.785c-.599,0-1.137.582-1.137,2.785s.538,2.777,1.137,2.777Z"/>
    <path class="cls-3" d="M62.007,54.469s.556.41.88.709c-.017.094-.111.137-.222.137h-2.939v2.008c0,.053-.231.215-.599.215h-.128v-2.223h-3.905l-.068-.248h1.479v-2.588l.82.332h1.675v-1.613h-1.854c-.606.846-1.315,1.529-2.06,1.998l-.11-.094c.803-.795,1.657-2.145,2.161-3.562l1.034.4c-.043.096-.153.172-.351.146-.153.299-.324.59-.504.863h3.931l.479-.59s.53.385.88.701c-.025.094-.11.137-.239.137h-2.64v1.613h1.333l.444-.562s.504.393.82.674c-.018.086-.111.129-.231.129h-2.366v2.016h1.803l.479-.598ZM58.999,55.067v-2.016h-1.777v2.016h1.777Z"/>
    <path class="cls-3" d="M67.174,52.915c0,1.418-.077,3.314-1.358,4.598l-.128-.078c.76-1.324.82-2.99.82-4.52v-2.504l.786.342h2.213v-1.086l.982.096c-.017.119-.094.205-.316.23v.76h2.085l.444-.572s.513.402.812.691c-.026.094-.103.137-.223.137h-6.118v1.162h1.487v-.889l.948.086c-.018.111-.094.188-.308.223v.58h1.538v-.889l.957.086c-.018.111-.077.188-.291.223v.58h.829l.41-.529s.47.377.752.641c-.025.094-.094.137-.222.137h-1.77v1.529c0,.068-.299.215-.555.215h-.111v-.41h-1.538v.256c0,.068-.282.205-.53.205h-.11v-1.795h-1.487v.496ZM72.463,54.786c-.068.076-.162.104-.384.111-.376.529-.847.975-1.41,1.342.846.324,1.854.496,2.965.572l-.009.102c-.29.068-.486.301-.555.625-1.188-.18-2.18-.471-2.974-.967-.94.488-2.094.805-3.444.967l-.051-.137c1.171-.248,2.222-.625,3.076-1.129-.479-.385-.863-.871-1.146-1.479h-.991l-.068-.246h3.862l.444-.359.684.598ZM68.737,54.794c.334.506.804.898,1.367,1.197.487-.35.889-.744,1.18-1.197h-2.547ZM69.302,52.419v1.086h1.538v-1.086h-1.538Z"/>
  </g>
  <g>
    <path class="cls-3" d="M98.865,45.127v.727h-3.846v-.582c.513-.512,1.009-1.051,1.419-1.479.948-.99,1.342-1.717,1.342-2.469,0-.77-.444-1.273-1.146-1.273-.137,0-.316.018-.504.061l-.188.684c-.11.428-.273.59-.513.59-.196,0-.358-.104-.452-.283.128-.957.948-1.418,1.88-1.418,1.204,0,1.743.658,1.743,1.598,0,.803-.437,1.445-1.872,2.803-.265.256-.666.641-1.094,1.043h3.23Z"/>
    <path class="cls-3" d="M105.69,42.836c0,2.309-.965,3.137-1.948,3.137-1.008,0-1.965-.828-1.965-3.137,0-2.297.957-3.152,1.965-3.152.983,0,1.948.855,1.948,3.152ZM103.742,45.614c.573,0,1.111-.58,1.111-2.777s-.538-2.785-1.111-2.785c-.598,0-1.136.582-1.136,2.785s.538,2.777,1.136,2.777Z"/>
    <path class="cls-3" d="M112.517,45.127v.727h-3.845v-.582c.513-.512,1.008-1.051,1.418-1.479.949-.99,1.342-1.717,1.342-2.469,0-.77-.444-1.273-1.145-1.273-.137,0-.316.018-.505.061l-.188.684c-.111.428-.273.59-.513.59-.196,0-.359-.104-.453-.283.128-.957.948-1.418,1.88-1.418,1.205,0,1.743.658,1.743,1.598,0,.803-.436,1.445-1.871,2.803-.265.256-.667.641-1.094,1.043h3.229Z"/>
    <path class="cls-3" d="M119.188,45.563v.291h-3.452v-.291l1.333-.188c.009-.496.018-1,.018-1.496v-3.451l-1.248.119v-.324l1.923-.496.128.094-.034,1.342v2.717c0,.496.009,1,.018,1.496l1.315.188Z"/>
    <path class="cls-3" d="M104.863,54.469s.556.41.88.709c-.017.094-.111.137-.222.137h-2.939v2.008c0,.053-.231.215-.599.215h-.128v-2.223h-3.905l-.068-.248h1.479v-2.588l.82.332h1.675v-1.613h-1.854c-.606.846-1.315,1.529-2.06,1.998l-.11-.094c.803-.795,1.657-2.145,2.161-3.562l1.034.4c-.043.096-.153.172-.351.146-.153.299-.324.59-.504.863h3.931l.479-.59s.53.385.88.701c-.025.094-.11.137-.239.137h-2.64v1.613h1.333l.444-.562s.504.393.82.674c-.018.086-.111.129-.231.129h-2.366v2.016h1.803l.479-.598ZM101.855,55.067v-2.016h-1.777v2.016h1.777Z"/>
    <path class="cls-3" d="M110.03,52.915c0,1.418-.077,3.314-1.358,4.598l-.128-.078c.76-1.324.82-2.99.82-4.52v-2.504l.786.342h2.213v-1.086l.982.096c-.017.119-.094.205-.316.23v.76h2.085l.444-.572s.513.402.812.691c-.026.094-.103.137-.223.137h-6.118v1.162h1.487v-.889l.948.086c-.018.111-.094.188-.308.223v.58h1.538v-.889l.957.086c-.018.111-.077.188-.291.223v.58h.829l.41-.529s.47.377.752.641c-.025.094-.094.137-.222.137h-1.77v1.529c0,.068-.299.215-.555.215h-.111v-.41h-1.538v.256c0,.068-.282.205-.53.205h-.11v-1.795h-1.487v.496ZM115.319,54.786c-.068.076-.162.104-.384.111-.376.529-.847.975-1.41,1.342.846.324,1.854.496,2.965.572l-.009.102c-.29.068-.486.301-.555.625-1.188-.18-2.18-.471-2.974-.967-.94.488-2.094.805-3.444.967l-.051-.137c1.171-.248,2.222-.625,3.076-1.129-.479-.385-.863-.871-1.146-1.479h-.991l-.068-.246h3.862l.444-.359.684.598ZM111.594,54.794c.334.506.804.898,1.367,1.197.487-.35.889-.744,1.18-1.197h-2.547ZM112.158,52.419v1.086h1.538v-1.086h-1.538Z"/>
  </g>
  <g>
    <path class="cls-3" d="M141.723,45.127v.727h-3.846v-.582c.513-.512,1.009-1.051,1.419-1.479.948-.99,1.342-1.717,1.342-2.469,0-.77-.444-1.273-1.146-1.273-.137,0-.316.018-.504.061l-.188.684c-.11.428-.273.59-.513.59-.196,0-.358-.104-.452-.283.128-.957.948-1.418,1.88-1.418,1.204,0,1.743.658,1.743,1.598,0,.803-.437,1.445-1.872,2.803-.265.256-.666.641-1.094,1.043h3.23Z"/>
    <path class="cls-3" d="M148.548,42.836c0,2.309-.965,3.137-1.948,3.137-1.008,0-1.965-.828-1.965-3.137,0-2.297.957-3.152,1.965-3.152.983,0,1.948.855,1.948,3.152ZM146.6,45.614c.573,0,1.111-.58,1.111-2.777s-.538-2.785-1.111-2.785c-.598,0-1.136.582-1.136,2.785s.538,2.777,1.136,2.777Z"/>
    <path class="cls-3" d="M155.374,45.127v.727h-3.845v-.582c.513-.512,1.008-1.051,1.418-1.479.949-.99,1.342-1.717,1.342-2.469,0-.77-.444-1.273-1.145-1.273-.137,0-.316.018-.505.061l-.188.684c-.111.428-.273.59-.513.59-.196,0-.359-.104-.453-.283.128-.957.948-1.418,1.88-1.418,1.205,0,1.743.658,1.743,1.598,0,.803-.436,1.445-1.871,2.803-.265.256-.667.641-1.094,1.043h3.229Z"/>
    <path class="cls-3" d="M162.2,45.127v.727h-3.846v-.582c.513-.512,1.009-1.051,1.419-1.479.948-.99,1.342-1.717,1.342-2.469,0-.77-.444-1.273-1.146-1.273-.137,0-.316.018-.504.061l-.188.684c-.11.428-.273.59-.513.59-.196,0-.358-.104-.452-.283.128-.957.948-1.418,1.88-1.418,1.204,0,1.743.658,1.743,1.598,0,.803-.437,1.445-1.872,2.803-.265.256-.666.641-1.094,1.043h3.23Z"/>
    <path class="cls-3" d="M147.721,54.469s.556.41.88.709c-.017.094-.111.137-.222.137h-2.939v2.008c0,.053-.231.215-.599.215h-.128v-2.223h-3.905l-.068-.248h1.479v-2.588l.82.332h1.675v-1.613h-1.854c-.606.846-1.315,1.529-2.06,1.998l-.11-.094c.803-.795,1.657-2.145,2.161-3.562l1.034.4c-.043.096-.153.172-.351.146-.153.299-.324.59-.504.863h3.931l.479-.59s.53.385.88.701c-.025.094-.11.137-.239.137h-2.64v1.613h1.333l.444-.562s.504.393.82.674c-.018.086-.111.129-.231.129h-2.366v2.016h1.803l.479-.598ZM144.713,55.067v-2.016h-1.777v2.016h1.777Z"/>
    <path class="cls-3" d="M152.888,52.915c0,1.418-.077,3.314-1.358,4.598l-.128-.078c.76-1.324.82-2.99.82-4.52v-2.504l.786.342h2.213v-1.086l.982.096c-.017.119-.094.205-.316.23v.76h2.085l.444-.572s.513.402.812.691c-.026.094-.103.137-.223.137h-6.118v1.162h1.487v-.889l.948.086c-.018.111-.094.188-.308.223v.58h1.538v-.889l.957.086c-.018.111-.077.188-.291.223v.58h.829l.41-.529s.47.377.752.641c-.025.094-.094.137-.222.137h-1.77v1.529c0,.068-.299.215-.555.215h-.111v-.41h-1.538v.256c0,.068-.282.205-.53.205h-.11v-1.795h-1.487v.496ZM158.177,54.786c-.068.076-.162.104-.384.111-.376.529-.847.975-1.41,1.342.846.324,1.854.496,2.965.572l-.009.102c-.29.068-.486.301-.555.625-1.188-.18-2.18-.471-2.974-.967-.94.488-2.094.805-3.444.967l-.051-.137c1.171-.248,2.222-.625,3.076-1.129-.479-.385-.863-.871-1.146-1.479h-.991l-.068-.246h3.862l.444-.359.684.598ZM154.451,54.794c.334.506.804.898,1.367,1.197.487-.35.889-.744,1.18-1.197h-2.547ZM155.016,52.419v1.086h1.538v-1.086h-1.538Z"/>
  </g>
  <g>
    <path class="cls-3" d="M184.58,45.127v.727h-3.846v-.582c.513-.512,1.009-1.051,1.419-1.479.948-.99,1.342-1.717,1.342-2.469,0-.77-.444-1.273-1.146-1.273-.137,0-.316.018-.504.061l-.188.684c-.11.428-.273.59-.513.59-.196,0-.358-.104-.452-.283.128-.957.948-1.418,1.88-1.418,1.204,0,1.743.658,1.743,1.598,0,.803-.437,1.445-1.872,2.803-.265.256-.666.641-1.094,1.043h3.23Z"/>
    <path class="cls-3" d="M191.405,42.836c0,2.309-.965,3.137-1.948,3.137-1.008,0-1.965-.828-1.965-3.137,0-2.297.957-3.152,1.965-3.152.983,0,1.948.855,1.948,3.152ZM189.457,45.614c.573,0,1.111-.58,1.111-2.777s-.538-2.785-1.111-2.785c-.598,0-1.136.582-1.136,2.785s.538,2.777,1.136,2.777Z"/>
    <path class="cls-3" d="M198.231,45.127v.727h-3.845v-.582c.513-.512,1.008-1.051,1.418-1.479.949-.99,1.342-1.717,1.342-2.469,0-.77-.444-1.273-1.145-1.273-.137,0-.316.018-.505.061l-.188.684c-.111.428-.273.59-.513.59-.196,0-.359-.104-.453-.283.128-.957.948-1.418,1.88-1.418,1.205,0,1.743.658,1.743,1.598,0,.803-.436,1.445-1.871,2.803-.265.256-.667.641-1.094,1.043h3.229Z"/>
    <path class="cls-3" d="M202.298,40.649c-.103.377-.231.557-.53.557-.196,0-.351-.086-.436-.316.171-.82.889-1.205,1.752-1.205,1.085,0,1.769.598,1.769,1.461,0,.693-.462,1.256-1.29,1.521,1.017.188,1.486.76,1.486,1.529,0,1.033-.846,1.777-2.094,1.777-.931,0-1.623-.393-1.794-1.299.103-.205.256-.299.453-.299.29,0,.401.188.513.615l.153.555c.188.053.367.068.538.068.932,0,1.41-.521,1.41-1.375s-.487-1.359-1.452-1.359h-.444v-.41h.367c.837,0,1.367-.461,1.367-1.299,0-.717-.428-1.119-1.162-1.119-.128,0-.282.01-.453.051l-.153.547Z"/>
    <path class="cls-3" d="M190.578,54.469s.556.41.88.709c-.017.094-.111.137-.222.137h-2.939v2.008c0,.053-.231.215-.599.215h-.128v-2.223h-3.905l-.068-.248h1.479v-2.588l.82.332h1.675v-1.613h-1.854c-.606.846-1.315,1.529-2.06,1.998l-.11-.094c.803-.795,1.657-2.145,2.161-3.562l1.034.4c-.043.096-.153.172-.351.146-.153.299-.324.59-.504.863h3.931l.479-.59s.53.385.88.701c-.025.094-.11.137-.239.137h-2.64v1.613h1.333l.444-.562s.504.393.82.674c-.018.086-.111.129-.231.129h-2.366v2.016h1.803l.479-.598ZM187.57,55.067v-2.016h-1.777v2.016h1.777Z"/>
    <path class="cls-3" d="M195.745,52.915c0,1.418-.077,3.314-1.358,4.598l-.128-.078c.76-1.324.82-2.99.82-4.52v-2.504l.786.342h2.213v-1.086l.982.096c-.017.119-.094.205-.316.23v.76h2.085l.444-.572s.513.402.812.691c-.026.094-.103.137-.223.137h-6.118v1.162h1.487v-.889l.948.086c-.018.111-.094.188-.308.223v.58h1.538v-.889l.957.086c-.018.111-.077.188-.291.223v.58h.829l.41-.529s.47.377.752.641c-.025.094-.094.137-.222.137h-1.77v1.529c0,.068-.299.215-.555.215h-.111v-.41h-1.538v.256c0,.068-.282.205-.53.205h-.11v-1.795h-1.487v.496ZM201.034,54.786c-.068.076-.162.104-.384.111-.376.529-.847.975-1.41,1.342.846.324,1.854.496,2.965.572l-.009.102c-.29.068-.486.301-.555.625-1.188-.18-2.18-.471-2.974-.967-.94.488-2.094.805-3.444.967l-.051-.137c1.171-.248,2.222-.625,3.076-1.129-.479-.385-.863-.871-1.146-1.479h-.991l-.068-.246h3.862l.444-.359.684.598ZM197.309,54.794c.334.506.804.898,1.367,1.197.487-.35.889-.744,1.18-1.197h-2.547ZM197.873,52.419v1.086h1.538v-1.086h-1.538Z"/>
  </g>
  <g>
    <path class="cls-3" d="M227.438,45.127v.727h-3.846v-.582c.513-.512,1.009-1.051,1.419-1.479.948-.99,1.342-1.717,1.342-2.469,0-.77-.444-1.273-1.146-1.273-.137,0-.316.018-.504.061l-.188.684c-.11.428-.273.59-.513.59-.196,0-.358-.104-.452-.283.128-.957.948-1.418,1.88-1.418,1.204,0,1.743.658,1.743,1.598,0,.803-.437,1.445-1.872,2.803-.265.256-.666.641-1.094,1.043h3.23Z"/>
    <path class="cls-3" d="M234.263,42.836c0,2.309-.965,3.137-1.948,3.137-1.008,0-1.965-.828-1.965-3.137,0-2.297.957-3.152,1.965-3.152.983,0,1.948.855,1.948,3.152ZM232.314,45.614c.573,0,1.111-.58,1.111-2.777s-.538-2.785-1.111-2.785c-.598,0-1.136.582-1.136,2.785s.538,2.777,1.136,2.777Z"/>
    <path class="cls-3" d="M241.089,45.127v.727h-3.845v-.582c.513-.512,1.008-1.051,1.418-1.479.949-.99,1.342-1.717,1.342-2.469,0-.77-.444-1.273-1.145-1.273-.137,0-.316.018-.505.061l-.188.684c-.111.428-.273.59-.513.59-.196,0-.359-.104-.453-.283.128-.957.948-1.418,1.88-1.418,1.205,0,1.743.658,1.743,1.598,0,.803-.436,1.445-1.871,2.803-.265.256-.667.641-1.094,1.043h3.229Z"/>
    <path class="cls-3" d="M248.146,44.026h-.991v1.828h-.752v-1.828h-2.538v-.453l2.769-3.838h.521v3.744h.991v.547ZM246.402,43.479v-2.881l-2.067,2.881h2.067Z"/>
    <path class="cls-3" d="M233.436,54.469s.556.41.88.709c-.017.094-.111.137-.222.137h-2.939v2.008c0,.053-.231.215-.599.215h-.128v-2.223h-3.905l-.068-.248h1.479v-2.588l.82.332h1.675v-1.613h-1.854c-.606.846-1.315,1.529-2.06,1.998l-.11-.094c.803-.795,1.657-2.145,2.161-3.562l1.034.4c-.043.096-.153.172-.351.146-.153.299-.324.59-.504.863h3.931l.479-.59s.53.385.88.701c-.025.094-.11.137-.239.137h-2.64v1.613h1.333l.444-.562s.504.393.82.674c-.018.086-.111.129-.231.129h-2.366v2.016h1.803l.479-.598ZM230.428,55.067v-2.016h-1.777v2.016h1.777Z"/>
    <path class="cls-3" d="M238.603,52.915c0,1.418-.077,3.314-1.358,4.598l-.128-.078c.76-1.324.82-2.99.82-4.52v-2.504l.786.342h2.213v-1.086l.982.096c-.017.119-.094.205-.316.23v.76h2.085l.444-.572s.513.402.812.691c-.026.094-.103.137-.223.137h-6.118v1.162h1.487v-.889l.948.086c-.018.111-.094.188-.308.223v.58h1.538v-.889l.957.086c-.018.111-.077.188-.291.223v.58h.829l.41-.529s.47.377.752.641c-.025.094-.094.137-.222.137h-1.77v1.529c0,.068-.299.215-.555.215h-.111v-.41h-1.538v.256c0,.068-.282.205-.53.205h-.11v-1.795h-1.487v.496ZM243.892,54.786c-.068.076-.162.104-.384.111-.376.529-.847.975-1.41,1.342.846.324,1.854.496,2.965.572l-.009.102c-.29.068-.486.301-.555.625-1.188-.18-2.18-.471-2.974-.967-.94.488-2.094.805-3.444.967l-.051-.137c1.171-.248,2.222-.625,3.076-1.129-.479-.385-.863-.871-1.146-1.479h-.991l-.068-.246h3.862l.444-.359.684.598ZM240.166,54.794c.334.506.804.898,1.367,1.197.487-.35.889-.744,1.18-1.197h-2.547ZM240.73,52.419v1.086h1.538v-1.086h-1.538Z"/>
  </g>
  <g>
    <path class="cls-3" d="M270.294,45.127v.727h-3.846v-.582c.513-.512,1.009-1.051,1.419-1.479.948-.99,1.342-1.717,1.342-2.469,0-.77-.444-1.273-1.146-1.273-.137,0-.316.018-.504.061l-.188.684c-.11.428-.273.59-.513.59-.196,0-.358-.104-.452-.283.128-.957.948-1.418,1.88-1.418,1.204,0,1.743.658,1.743,1.598,0,.803-.437,1.445-1.872,2.803-.265.256-.666.641-1.094,1.043h3.23Z"/>
    <path class="cls-3" d="M277.119,42.836c0,2.309-.965,3.137-1.948,3.137-1.008,0-1.965-.828-1.965-3.137,0-2.297.957-3.152,1.965-3.152.983,0,1.948.855,1.948,3.152ZM275.171,45.614c.573,0,1.111-.58,1.111-2.777s-.538-2.785-1.111-2.785c-.598,0-1.136.582-1.136,2.785s.538,2.777,1.136,2.777Z"/>
    <path class="cls-3" d="M283.945,45.127v.727h-3.845v-.582c.513-.512,1.008-1.051,1.418-1.479.949-.99,1.342-1.717,1.342-2.469,0-.77-.444-1.273-1.145-1.273-.137,0-.316.018-.505.061l-.188.684c-.111.428-.273.59-.513.59-.196,0-.359-.104-.453-.283.128-.957.948-1.418,1.88-1.418,1.205,0,1.743.658,1.743,1.598,0,.803-.436,1.445-1.871,2.803-.265.256-.667.641-1.094,1.043h3.229Z"/>
    <path class="cls-3" d="M287.764,42.221c.308-.094.606-.137.948-.137,1.214,0,2.042.676,2.042,1.889,0,1.197-.862,2-2.188,2-.948,0-1.555-.436-1.743-1.299.077-.197.239-.299.444-.299.273,0,.394.137.505.59l.153.564c.196.059.376.084.572.084.932,0,1.436-.605,1.436-1.547,0-.973-.555-1.486-1.461-1.486-.299,0-.606.035-.905.119l-.239-.068.196-2.818h3.059v.727h-2.7l-.119,1.682Z"/>
    <path class="cls-3" d="M276.292,54.469s.556.41.88.709c-.017.094-.111.137-.222.137h-2.939v2.008c0,.053-.231.215-.599.215h-.128v-2.223h-3.905l-.068-.248h1.479v-2.588l.82.332h1.675v-1.613h-1.854c-.606.846-1.315,1.529-2.06,1.998l-.11-.094c.803-.795,1.657-2.145,2.161-3.562l1.034.4c-.043.096-.153.172-.351.146-.153.299-.324.59-.504.863h3.931l.479-.59s.53.385.88.701c-.025.094-.11.137-.239.137h-2.64v1.613h1.333l.444-.562s.504.393.82.674c-.018.086-.111.129-.231.129h-2.366v2.016h1.803l.479-.598ZM273.284,55.067v-2.016h-1.777v2.016h1.777Z"/>
    <path class="cls-3" d="M281.459,52.915c0,1.418-.077,3.314-1.358,4.598l-.128-.078c.76-1.324.82-2.99.82-4.52v-2.504l.786.342h2.213v-1.086l.982.096c-.017.119-.094.205-.316.23v.76h2.085l.444-.572s.513.402.812.691c-.026.094-.103.137-.223.137h-6.118v1.162h1.487v-.889l.948.086c-.018.111-.094.188-.308.223v.58h1.538v-.889l.957.086c-.018.111-.077.188-.291.223v.58h.829l.41-.529s.47.377.752.641c-.025.094-.094.137-.222.137h-1.77v1.529c0,.068-.299.215-.555.215h-.111v-.41h-1.538v.256c0,.068-.282.205-.53.205h-.11v-1.795h-1.487v.496ZM286.748,54.786c-.068.076-.162.104-.384.111-.376.529-.847.975-1.41,1.342.846.324,1.854.496,2.965.572l-.009.102c-.29.068-.486.301-.555.625-1.188-.18-2.18-.471-2.974-.967-.94.488-2.094.805-3.444.967l-.051-.137c1.171-.248,2.222-.625,3.076-1.129-.479-.385-.863-.871-1.146-1.479h-.991l-.068-.246h3.862l.444-.359.684.598ZM283.022,54.794c.334.506.804.898,1.367,1.197.487-.35.889-.744,1.18-1.197h-2.547ZM283.587,52.419v1.086h1.538v-1.086h-1.538Z"/>
  </g>
  <line class="cls-1" x1="171.429" y1="124.724" x2="171.429" y2="31.531"/>
  <line class="cls-1" x1="214.286" y1="124.724" x2="214.286" y2="31.531"/>
  <line class="cls-1" x1="257.143" y1="124.724" x2="257.143" y2=".467"/>
  <line class="cls-1" x1="42.857" y1="124.724" x2="42.857" y2="62.595"/>
  <g>
    <path class="cls-3" d="M146.751,11.54l-.06,1.691h-4.699v-.316l3.605-5.537h-2.709l-.29,1.258h-.504l.085-1.668h4.384v.326l-3.598,5.537h2.991l.299-1.291h.495Z"/>
    <path class="cls-3" d="M152.672,11.565l-.052,1.666h-4.819v-.324l.872-.094c.017-.82.017-1.641.017-2.479v-.461c0-.838,0-1.666-.017-2.486l-.872-.094v-.326h4.64l.052,1.65h-.462l-.247-1.24h-2.222c-.018.812-.018,1.633-.018,2.479h1.41l.137-.922h.385v2.203h-.385l-.128-.904h-1.419c0,.922,0,1.76.018,2.588h2.4l.248-1.256h.462Z"/>
    <path class="cls-3" d="M159.531,7.387c-.017.811-.017,1.648-.017,2.486v.461c0,.82,0,1.65.017,2.479l.872.094v.324h-2.623v-.324l.862-.094c.018-.803.018-1.633.018-2.605h-3.051c0,.957,0,1.793.018,2.605l.862.094v.324h-2.623v-.324l.872-.094c.017-.82.017-1.641.017-2.479v-.461c0-.838,0-1.666-.017-2.486l-.872-.094v-.326h2.623v.326l-.862.094c-.018.803-.018,1.623-.018,2.451h3.051c0-.82,0-1.641-.018-2.451l-.862-.094v-.326h2.623v.326l-.872.094Z"/>
    <path class="cls-3" d="M139.674,21.104s.487.367.786.65c-.018.094-.103.137-.223.137h-7.536l-.068-.248h2.743v-2.043h-2.188l-.077-.248h2.23c-.034-.016-.061-.033-.095-.051-.076-.41-.418-.896-.718-1.188l.086-.061c1.376.299,1.41,1.111,1.06,1.299h1.452c.188-.385.428-.939.564-1.332l.982.281c-.025.104-.137.172-.324.162-.248.273-.607.615-.949.889h1.504l.437-.521s.47.359.777.633c-.025.094-.111.137-.23.137h-2.214v2.043h1.572l.428-.539ZM133.752,19.815c1.752.699,1.094,1.982.496,1.451-.026-.469-.316-1.033-.59-1.4l.094-.051ZM138.478,22.19l.769.59c-.06.068-.188.145-.358.18v2.717c-.009.059-.351.195-.572.195h-.111v-.486h-3.333v.299c0,.068-.281.223-.563.223h-.111v-3.641l.727.316h3.195l.359-.393ZM134.871,22.831v1h3.333v-1h-3.333ZM138.204,25.129v-1.061h-3.333v1.061h3.333ZM136.033,21.643h.975v-2.043h-.975v2.043ZM137.99,21.344c.223-.377.504-.992.727-1.572l.897.41c-.043.094-.137.162-.316.137-.367.4-.804.828-1.18,1.102l-.128-.076Z"/>
    <path class="cls-3" d="M148.841,21.053c-.068.086-.163.111-.359.119-.376,1.094-.914,2.043-1.709,2.82.77.58,1.692,1,2.777,1.299l-.034.094c-.342.008-.633.213-.786.539-1-.359-1.837-.83-2.513-1.453-.837.641-1.922,1.127-3.323,1.436l-.068-.129c1.256-.393,2.256-.957,3.033-1.674-.914-1-1.504-2.35-1.795-4.152-.137,2.426-.589,4.451-2.452,5.963l-.103-.094c1.606-1.889,1.88-4.203,1.871-6.904h-1.358l-.077-.248h4.238l.334-.385.777.615c-.068.068-.205.121-.385.137-.094.438-.256,1.121-.419,1.762h1.196l.444-.42.71.676ZM144.106,18.917c.291,2.119,1.034,3.641,2.222,4.709.649-.734,1.103-1.598,1.385-2.58h-1.291c-.042.178-.094.35-.137.504-.179.076-.393.084-.726.008.247-.828.504-1.906.657-2.641h-2.11Z"/>
    <path class="cls-3" d="M154.965,23.42c.642,1.059,1.966,1.562,3.495,1.777v.094c-.29.076-.487.307-.572.641-1.529-.418-2.581-1.127-3.11-2.512h-.239c-.444,1.111-1.495,2.016-3.862,2.504l-.052-.146c1.923-.562,2.829-1.375,3.222-2.357h-3.042l-.077-.248h3.213c.103-.334.163-.676.18-1.033h-2.418l-.068-.258h2.504v-.957h-2.504l-.068-.248h2.572v-.93l.982.102c-.025.111-.086.197-.291.23v.598h1.547l.41-.486s.47.35.761.598c-.025.094-.094.137-.214.137h-2.504v.752l-.008.205h1.478l.419-.494s.479.35.777.615c-.025.094-.103.137-.222.137h-2.461c-.025.357-.086.699-.188,1.033h2.376l.436-.529s.496.375.804.641c-.026.094-.111.137-.231.137h-3.042ZM151.889,19.37c.018.582-.222.965-.479,1.137-.256.154-.606.129-.709-.111-.077-.23.06-.436.273-.547.351-.17.675-.676.633-1.23l.137-.008c.06.18.103.35.128.512h2.256v-1.084l1.008.094c-.017.119-.094.205-.308.238v.752h2.495l.402-.41.718.693c-.061.068-.146.076-.316.084-.257.258-.701.59-1.043.777l-.103-.059c.111-.223.257-.564.351-.838h-5.443Z"/>
    <path class="cls-3" d="M161.73,18.379c-.034.094-.145.17-.324.162-.291.436-.658.932-.991,1.289.658.514.256,1.162-.196.846-.086-.4-.437-.879-.735-1.162l.094-.059c.266.068.479.154.649.248.18-.463.385-1.094.547-1.666l.957.342ZM159.501,25.172c.222-.6.401-1.445.479-2.248l.854.188c-.034.104-.129.189-.3.189-.196.734-.513,1.461-.896,1.939l-.137-.068ZM161.68,20.96c1.623.811,1,1.982.453,1.469-.009-.162-.052-.342-.12-.521-.153.043-.316.078-.504.121v3.691c0,.051-.214.205-.53.205h-.11v-3.76c-.266.059-.547.119-.863.18-.06.109-.146.162-.223.17l-.265-.727c.196,0,.487-.008.838-.018.486-.828,1.042-1.93,1.384-2.725l.923.359c-.043.094-.162.152-.342.137-.401.623-1.068,1.512-1.7,2.221.401-.008.854-.025,1.324-.043-.111-.264-.239-.512-.367-.709l.103-.051ZM161.833,22.924c1.453.957.812,2.094.3,1.572,0-.496-.214-1.119-.41-1.529l.11-.043ZM162.175,25.803c.761-.314,1.59-.896,1.975-1.324l.828.504c-.051.096-.196.111-.41.061-.538.342-1.461.709-2.341.881l-.052-.121ZM166.764,20.01s.47.359.743.607c-.025.094-.103.137-.23.137h-4.708l-.068-.24h2.085v-.648h-1.581l-.068-.24h1.649v-.598h-1.846l-.068-.238h1.914v-.711l.974.096c-.017.109-.085.195-.29.23v.385h.914l.401-.521s.479.367.761.623c-.025.094-.094.137-.214.137h-1.862v.598h.863l.376-.461s.427.324.691.564c-.025.094-.103.137-.222.137h-1.709v.648h1.085l.41-.504ZM166.157,24.565v-.334h-2.376v.205c0,.068-.281.223-.555.223h-.103v-3.641l.7.309h2.265l.324-.35.701.52c-.052.061-.162.121-.291.137v2.734c-.008.061-.342.197-.555.197h-.111ZM163.781,21.565v.633h2.376v-.633h-2.376ZM166.157,22.446h-2.376v.633h2.376v-.633ZM166.157,23.985v-.65h-2.376v.65h2.376ZM165.285,24.6c3.103.375,1.975,1.742,1.394,1.152-.248-.332-.71-.727-1.436-1.025l.042-.127Z"/>
  </g>
  <g>
    <path class="cls-3" d="M275.322,11.54l-.06,1.691h-4.699v-.316l3.605-5.537h-2.709l-.29,1.258h-.504l.085-1.668h4.384v.326l-3.598,5.537h2.991l.299-1.291h.495Z"/>
    <path class="cls-3" d="M281.243,11.565l-.052,1.666h-4.819v-.324l.872-.094c.017-.82.017-1.641.017-2.479v-.461c0-.838,0-1.666-.017-2.486l-.872-.094v-.326h4.64l.052,1.65h-.462l-.247-1.24h-2.222c-.018.812-.018,1.633-.018,2.479h1.41l.137-.922h.385v2.203h-.385l-.128-.904h-1.419c0,.922,0,1.76.018,2.588h2.4l.248-1.256h.462Z"/>
    <path class="cls-3" d="M288.103,7.387c-.017.811-.017,1.648-.017,2.486v.461c0,.82,0,1.65.017,2.479l.872.094v.324h-2.623v-.324l.862-.094c.018-.803.018-1.633.018-2.605h-3.051c0,.957,0,1.793.018,2.605l.862.094v.324h-2.623v-.324l.872-.094c.017-.82.017-1.641.017-2.479v-.461c0-.838,0-1.666-.017-2.486l-.872-.094v-.326h2.623v.326l-.862.094c-.018.803-.018,1.623-.018,2.451h3.051c0-.82,0-1.641-.018-2.451l-.862-.094v-.326h2.623v.326l-.872.094Z"/>
    <path class="cls-3" d="M268.245,21.104s.487.367.786.65c-.018.094-.103.137-.223.137h-7.536l-.068-.248h2.743v-2.043h-2.188l-.077-.248h2.23c-.034-.016-.061-.033-.095-.051-.076-.41-.418-.896-.718-1.188l.086-.061c1.376.299,1.41,1.111,1.06,1.299h1.452c.188-.385.428-.939.564-1.332l.982.281c-.025.104-.137.172-.324.162-.248.273-.607.615-.949.889h1.504l.437-.521s.47.359.777.633c-.025.094-.111.137-.23.137h-2.214v2.043h1.572l.428-.539ZM262.323,19.815c1.752.699,1.094,1.982.496,1.451-.026-.469-.316-1.033-.59-1.4l.094-.051ZM267.049,22.19l.769.59c-.06.068-.188.145-.358.18v2.717c-.009.059-.351.195-.572.195h-.111v-.486h-3.333v.299c0,.068-.281.223-.563.223h-.111v-3.641l.727.316h3.195l.359-.393ZM263.442,22.831v1h3.333v-1h-3.333ZM266.775,25.129v-1.061h-3.333v1.061h3.333ZM264.604,21.643h.975v-2.043h-.975v2.043ZM266.562,21.344c.223-.377.504-.992.727-1.572l.897.41c-.043.094-.137.162-.316.137-.367.4-.804.828-1.18,1.102l-.128-.076Z"/>
    <path class="cls-3" d="M277.412,21.053c-.068.086-.163.111-.359.119-.376,1.094-.914,2.043-1.709,2.82.77.58,1.692,1,2.777,1.299l-.034.094c-.342.008-.633.213-.786.539-1-.359-1.837-.83-2.513-1.453-.837.641-1.922,1.127-3.323,1.436l-.068-.129c1.256-.393,2.256-.957,3.033-1.674-.914-1-1.504-2.35-1.795-4.152-.137,2.426-.589,4.451-2.452,5.963l-.103-.094c1.606-1.889,1.88-4.203,1.871-6.904h-1.358l-.077-.248h4.238l.334-.385.777.615c-.068.068-.205.121-.385.137-.094.438-.256,1.121-.419,1.762h1.196l.444-.42.71.676ZM272.678,18.917c.291,2.119,1.034,3.641,2.222,4.709.649-.734,1.103-1.598,1.385-2.58h-1.291c-.042.178-.094.35-.137.504-.179.076-.393.084-.726.008.247-.828.504-1.906.657-2.641h-2.11Z"/>
    <path class="cls-3" d="M286.16,18.926c-.068.084-.205.162-.394.195v6.494c-.009.061-.358.248-.615.248h-.111v-.676h-3.904v.445c0,.102-.266.281-.59.281h-.12v-7.527l.761.342h3.76l.385-.453.829.65ZM281.136,18.967v1.787h3.904v-1.787h-3.904ZM281.136,21.01v1.82h3.904v-1.82h-3.904ZM285.04,24.932v-1.854h-3.904v1.854h3.904Z"/>
    <path class="cls-3" d="M289.875,21.438c1.657.742,1.068,1.846.521,1.375-.061-.367-.308-.838-.521-1.18v4.051c0,.086-.273.223-.521.223h-.137v-3.691c-.273.623-.632,1.188-1.076,1.701l-.12-.104c.572-.975.914-2.238,1.094-3.486h-.957l-.068-.248h1.128v-2.025l.957.104c-.017.127-.085.205-.299.238v1.684h.171l.385-.521s.427.367.684.633c-.026.094-.103.137-.223.137h-1.017v1.111ZM292.592,24.172c-.051.086-.119.127-.308.094-.393.461-1.076.99-1.819,1.299l-.086-.111c.581-.443,1.146-1.162,1.393-1.701l.82.42ZM290.857,18.848l-.068-.238h4.042l.41-.514s.479.359.769.625c-.025.094-.103.127-.222.127h-1.538v.83h.709l.299-.359.649.496c-.051.059-.128.109-.299.137v1.588c0,.035-.222.162-.521.162h-.103v-.289h-3.255v.281c0,.051-.188.18-.505.18h-.103v-2.496l.701.301h.624v-.83h-1.59ZM295.25,22.737s.47.35.752.605c-.026.096-.103.137-.214.137h-2.051v1.582c0,.479-.128.777-.982.854-.018-.188-.061-.332-.171-.426-.129-.096-.342-.172-.744-.223v-.129s.863.061,1.052.061c.153,0,.196-.043.196-.146v-1.572h-2.213l-.068-.246h4.041l.402-.496ZM294.72,21.694s.462.35.761.607c-.025.094-.111.137-.23.137h-3.769l-.068-.24h2.896l.41-.504ZM291.729,21.172h.718v-1.256h-.718v1.256ZM292.977,18.848v.83h.743v-.83h-.743ZM292.977,21.172h.743v-1.256h-.743v1.256ZM294.284,23.864c2.179.582,1.726,1.992,1.034,1.547-.154-.504-.692-1.119-1.12-1.486l.086-.061ZM294.25,19.917v1.256h.734v-1.256h-.734Z"/>
  </g>
  <line class="cls-1" x1="42.857" y1="31.531" x2="300" y2="31.531"/>
  <line class="cls-1" x1="42.857" y1="62.595" x2="300" y2="62.595"/>
</svg>