<svg version="1.1" xmlns="http://www.w3.org/2000/svg" xmlns:xlink="http://www.w3.org/1999/xlink" x="0px" y="0px" width="100%" height="100%" viewBox="0 0 60 195" style="enable-background:new 0 0 60 195;" xml:space="preserve">
<style type="text/css">
	.st0{fill:#3E3A39;}
	.st1{fill:none;stroke:#3E3A39;stroke-miterlimit:10;}
@-webkit-keyframes animate-svg-stroke-1{0%{stroke-dashoffset:24.904830932617188px;stroke-dasharray:24.904830932617188px}100%{stroke-dashoffset:0;stroke-dasharray:24.904830932617188px}}@keyframes animate-svg-stroke-1{0%{stroke-dashoffset:24.904830932617188px;stroke-dasharray:24.904830932617188px}100%{stroke-dashoffset:0;stroke-dasharray:24.904830932617188px}}@-webkit-keyframes animate-svg-fill-1{0%{fill:transparent}100%{fill:rgb(62,58,57)}}@keyframes animate-svg-fill-1{0%{fill:transparent}100%{fill:rgb(62,58,57)}}.svg-elem-1{-webkit-animation:animate-svg-stroke-1 1s cubic-bezier(0.47,0,0.745,0.715) 0s both,animate-svg-fill-1 0.7s cubic-bezier(0.47,0,0.745,0.715) 0.8s both;animation:animate-svg-stroke-1 1s cubic-bezier(0.47,0,0.745,0.715) 0s both,animate-svg-fill-1 0.7s cubic-bezier(0.47,0,0.745,0.715) 0.8s both}@-webkit-keyframes animate-svg-stroke-2{0%{stroke-dashoffset:119.1688003540039px;stroke-dasharray:119.1688003540039px}100%{stroke-dashoffset:0;stroke-dasharray:119.1688003540039px}}@keyframes animate-svg-stroke-2{0%{stroke-dashoffset:119.1688003540039px;stroke-dasharray:119.1688003540039px}100%{stroke-dashoffset:0;stroke-dasharray:119.1688003540039px}}@-webkit-keyframes animate-svg-fill-2{0%{fill:transparent}100%{fill:rgb(62,58,57)}}@keyframes animate-svg-fill-2{0%{fill:transparent}100%{fill:rgb(62,58,57)}}.svg-elem-2{-webkit-animation:animate-svg-stroke-2 1s cubic-bezier(0.47,0,0.745,0.715) 0.12s both,animate-svg-fill-2 0.7s cubic-bezier(0.47,0,0.745,0.715) 0.9s both;animation:animate-svg-stroke-2 1s cubic-bezier(0.47,0,0.745,0.715) 0.12s both,animate-svg-fill-2 0.7s cubic-bezier(0.47,0,0.745,0.715) 0.9s both}@-webkit-keyframes animate-svg-stroke-3{0%{stroke-dashoffset:49.8590087890625px;stroke-dasharray:49.8590087890625px}100%{stroke-dashoffset:0;stroke-dasharray:49.8590087890625px}}@keyframes animate-svg-stroke-3{0%{stroke-dashoffset:49.8590087890625px;stroke-dasharray:49.8590087890625px}100%{stroke-dashoffset:0;stroke-dasharray:49.8590087890625px}}@-webkit-keyframes animate-svg-fill-3{0%{fill:transparent}100%{fill:rgb(62,58,57)}}@keyframes animate-svg-fill-3{0%{fill:transparent}100%{fill:rgb(62,58,57)}}.svg-elem-3{-webkit-animation:animate-svg-stroke-3 1s cubic-bezier(0.47,0,0.745,0.715) 0.24s both,animate-svg-fill-3 0.7s cubic-bezier(0.47,0,0.745,0.715) 1s both;animation:animate-svg-stroke-3 1s cubic-bezier(0.47,0,0.745,0.715) 0.24s both,animate-svg-fill-3 0.7s cubic-bezier(0.47,0,0.745,0.715) 1s both}@-webkit-keyframes animate-svg-stroke-4{0%{stroke-dashoffset:125.549072265625px;stroke-dasharray:125.549072265625px}100%{stroke-dashoffset:0;stroke-dasharray:125.549072265625px}}@keyframes animate-svg-stroke-4{0%{stroke-dashoffset:125.549072265625px;stroke-dasharray:125.549072265625px}100%{stroke-dashoffset:0;stroke-dasharray:125.549072265625px}}@-webkit-keyframes animate-svg-fill-4{0%{fill:transparent}100%{fill:rgb(62,58,57)}}@keyframes animate-svg-fill-4{0%{fill:transparent}100%{fill:rgb(62,58,57)}}.svg-elem-4{-webkit-animation:animate-svg-stroke-4 1s cubic-bezier(0.47,0,0.745,0.715) 0.36s both,animate-svg-fill-4 0.7s cubic-bezier(0.47,0,0.745,0.715) 1.1s both;animation:animate-svg-stroke-4 1s cubic-bezier(0.47,0,0.745,0.715) 0.36s both,animate-svg-fill-4 0.7s cubic-bezier(0.47,0,0.745,0.715) 1.1s both}@-webkit-keyframes animate-svg-stroke-5{0%{stroke-dashoffset:62.725440979003906px;stroke-dasharray:62.725440979003906px}100%{stroke-dashoffset:0;stroke-dasharray:62.725440979003906px}}@keyframes animate-svg-stroke-5{0%{stroke-dashoffset:62.725440979003906px;stroke-dasharray:62.725440979003906px}100%{stroke-dashoffset:0;stroke-dasharray:62.725440979003906px}}@-webkit-keyframes animate-svg-fill-5{0%{fill:transparent}100%{fill:rgb(62,58,57)}}@keyframes animate-svg-fill-5{0%{fill:transparent}100%{fill:rgb(62,58,57)}}.svg-elem-5{-webkit-animation:animate-svg-stroke-5 1s cubic-bezier(0.47,0,0.745,0.715) 0.48s both,animate-svg-fill-5 0.7s cubic-bezier(0.47,0,0.745,0.715) 1.2000000000000002s both;animation:animate-svg-stroke-5 1s cubic-bezier(0.47,0,0.745,0.715) 0.48s both,animate-svg-fill-5 0.7s cubic-bezier(0.47,0,0.745,0.715) 1.2000000000000002s both}@-webkit-keyframes animate-svg-stroke-6{0%{stroke-dashoffset:121.03324890136719px;stroke-dasharray:121.03324890136719px}100%{stroke-dashoffset:0;stroke-dasharray:121.03324890136719px}}@keyframes animate-svg-stroke-6{0%{stroke-dashoffset:121.03324890136719px;stroke-dasharray:121.03324890136719px}100%{stroke-dashoffset:0;stroke-dasharray:121.03324890136719px}}@-webkit-keyframes animate-svg-fill-6{0%{fill:transparent}100%{fill:rgb(62,58,57)}}@keyframes animate-svg-fill-6{0%{fill:transparent}100%{fill:rgb(62,58,57)}}.svg-elem-6{-webkit-animation:animate-svg-stroke-6 1s cubic-bezier(0.47,0,0.745,0.715) 0.6s both,animate-svg-fill-6 0.7s cubic-bezier(0.47,0,0.745,0.715) 1.3s both;animation:animate-svg-stroke-6 1s cubic-bezier(0.47,0,0.745,0.715) 0.6s both,animate-svg-fill-6 0.7s cubic-bezier(0.47,0,0.745,0.715) 1.3s both}@-webkit-keyframes animate-svg-stroke-7{0%{stroke-dashoffset:67.53401947021484px;stroke-dasharray:67.53401947021484px}100%{stroke-dashoffset:0;stroke-dasharray:67.53401947021484px}}@keyframes animate-svg-stroke-7{0%{stroke-dashoffset:67.53401947021484px;stroke-dasharray:67.53401947021484px}100%{stroke-dashoffset:0;stroke-dasharray:67.53401947021484px}}@-webkit-keyframes animate-svg-fill-7{0%{fill:transparent}100%{fill:rgb(62,58,57)}}@keyframes animate-svg-fill-7{0%{fill:transparent}100%{fill:rgb(62,58,57)}}.svg-elem-7{-webkit-animation:animate-svg-stroke-7 1s cubic-bezier(0.47,0,0.745,0.715) 0.72s both,animate-svg-fill-7 0.7s cubic-bezier(0.47,0,0.745,0.715) 1.4000000000000001s both;animation:animate-svg-stroke-7 1s cubic-bezier(0.47,0,0.745,0.715) 0.72s both,animate-svg-fill-7 0.7s cubic-bezier(0.47,0,0.745,0.715) 1.4000000000000001s both}@-webkit-keyframes animate-svg-stroke-8{0%{stroke-dashoffset:40.942935943603516px;stroke-dasharray:40.942935943603516px}100%{stroke-dashoffset:0;stroke-dasharray:40.942935943603516px}}@keyframes animate-svg-stroke-8{0%{stroke-dashoffset:40.942935943603516px;stroke-dasharray:40.942935943603516px}100%{stroke-dashoffset:0;stroke-dasharray:40.942935943603516px}}@-webkit-keyframes animate-svg-fill-8{0%{fill:transparent}100%{fill:rgb(62,58,57)}}@keyframes animate-svg-fill-8{0%{fill:transparent}100%{fill:rgb(62,58,57)}}.svg-elem-8{-webkit-animation:animate-svg-stroke-8 1s cubic-bezier(0.47,0,0.745,0.715) 0.84s both,animate-svg-fill-8 0.7s cubic-bezier(0.47,0,0.745,0.715) 1.5s both;animation:animate-svg-stroke-8 1s cubic-bezier(0.47,0,0.745,0.715) 0.84s both,animate-svg-fill-8 0.7s cubic-bezier(0.47,0,0.745,0.715) 1.5s both}@-webkit-keyframes animate-svg-stroke-9{0%{stroke-dashoffset:36.676788330078125px;stroke-dasharray:36.676788330078125px}100%{stroke-dashoffset:0;stroke-dasharray:36.676788330078125px}}@keyframes animate-svg-stroke-9{0%{stroke-dashoffset:36.676788330078125px;stroke-dasharray:36.676788330078125px}100%{stroke-dashoffset:0;stroke-dasharray:36.676788330078125px}}@-webkit-keyframes animate-svg-fill-9{0%{fill:transparent}100%{fill:rgb(62,58,57)}}@keyframes animate-svg-fill-9{0%{fill:transparent}100%{fill:rgb(62,58,57)}}.svg-elem-9{-webkit-animation:animate-svg-stroke-9 1s cubic-bezier(0.47,0,0.745,0.715) 0.96s both,animate-svg-fill-9 0.7s cubic-bezier(0.47,0,0.745,0.715) 1.6s both;animation:animate-svg-stroke-9 1s cubic-bezier(0.47,0,0.745,0.715) 0.96s both,animate-svg-fill-9 0.7s cubic-bezier(0.47,0,0.745,0.715) 1.6s both}@-webkit-keyframes animate-svg-stroke-10{0%{stroke-dashoffset:29.36049461364746px;stroke-dasharray:29.36049461364746px}100%{stroke-dashoffset:0;stroke-dasharray:29.36049461364746px}}@keyframes animate-svg-stroke-10{0%{stroke-dashoffset:29.36049461364746px;stroke-dasharray:29.36049461364746px}100%{stroke-dashoffset:0;stroke-dasharray:29.36049461364746px}}@-webkit-keyframes animate-svg-fill-10{0%{fill:transparent}100%{fill:rgb(62,58,57)}}@keyframes animate-svg-fill-10{0%{fill:transparent}100%{fill:rgb(62,58,57)}}.svg-elem-10{-webkit-animation:animate-svg-stroke-10 1s cubic-bezier(0.47,0,0.745,0.715) 1.08s both,animate-svg-fill-10 0.7s cubic-bezier(0.47,0,0.745,0.715) 1.7000000000000002s both;animation:animate-svg-stroke-10 1s cubic-bezier(0.47,0,0.745,0.715) 1.08s both,animate-svg-fill-10 0.7s cubic-bezier(0.47,0,0.745,0.715) 1.7000000000000002s both}@-webkit-keyframes animate-svg-stroke-11{0%{stroke-dashoffset:66.1731185913086px;stroke-dasharray:66.1731185913086px}100%{stroke-dashoffset:0;stroke-dasharray:66.1731185913086px}}@keyframes animate-svg-stroke-11{0%{stroke-dashoffset:66.1731185913086px;stroke-dasharray:66.1731185913086px}100%{stroke-dashoffset:0;stroke-dasharray:66.1731185913086px}}@-webkit-keyframes animate-svg-fill-11{0%{fill:transparent}100%{fill:rgb(62,58,57)}}@keyframes animate-svg-fill-11{0%{fill:transparent}100%{fill:rgb(62,58,57)}}.svg-elem-11{-webkit-animation:animate-svg-stroke-11 1s cubic-bezier(0.47,0,0.745,0.715) 1.2s both,animate-svg-fill-11 0.7s cubic-bezier(0.47,0,0.745,0.715) 1.8s both;animation:animate-svg-stroke-11 1s cubic-bezier(0.47,0,0.745,0.715) 1.2s both,animate-svg-fill-11 0.7s cubic-bezier(0.47,0,0.745,0.715) 1.8s both}@-webkit-keyframes animate-svg-stroke-12{0%{stroke-dashoffset:111.44979858398438px;stroke-dasharray:111.44979858398438px}100%{stroke-dashoffset:0;stroke-dasharray:111.44979858398438px}}@keyframes animate-svg-stroke-12{0%{stroke-dashoffset:111.44979858398438px;stroke-dasharray:111.44979858398438px}100%{stroke-dashoffset:0;stroke-dasharray:111.44979858398438px}}@-webkit-keyframes animate-svg-fill-12{0%{fill:transparent}100%{fill:rgb(62,58,57)}}@keyframes animate-svg-fill-12{0%{fill:transparent}100%{fill:rgb(62,58,57)}}.svg-elem-12{-webkit-animation:animate-svg-stroke-12 1s cubic-bezier(0.47,0,0.745,0.715) 1.3199999999999998s both,animate-svg-fill-12 0.7s cubic-bezier(0.47,0,0.745,0.715) 1.9000000000000001s both;animation:animate-svg-stroke-12 1s cubic-bezier(0.47,0,0.745,0.715) 1.3199999999999998s both,animate-svg-fill-12 0.7s cubic-bezier(0.47,0,0.745,0.715) 1.9000000000000001s both}@-webkit-keyframes animate-svg-stroke-13{0%{stroke-dashoffset:56.52614212036133px;stroke-dasharray:56.52614212036133px}100%{stroke-dashoffset:0;stroke-dasharray:56.52614212036133px}}@keyframes animate-svg-stroke-13{0%{stroke-dashoffset:56.52614212036133px;stroke-dasharray:56.52614212036133px}100%{stroke-dashoffset:0;stroke-dasharray:56.52614212036133px}}@-webkit-keyframes animate-svg-fill-13{0%{fill:transparent}100%{fill:rgb(62,58,57)}}@keyframes animate-svg-fill-13{0%{fill:transparent}100%{fill:rgb(62,58,57)}}.svg-elem-13{-webkit-animation:animate-svg-stroke-13 1s cubic-bezier(0.47,0,0.745,0.715) 1.44s both,animate-svg-fill-13 0.7s cubic-bezier(0.47,0,0.745,0.715) 2s both;animation:animate-svg-stroke-13 1s cubic-bezier(0.47,0,0.745,0.715) 1.44s both,animate-svg-fill-13 0.7s cubic-bezier(0.47,0,0.745,0.715) 2s both}@-webkit-keyframes animate-svg-stroke-14{0%{stroke-dashoffset:57.70005798339844px;stroke-dasharray:57.70005798339844px}100%{stroke-dashoffset:0;stroke-dasharray:57.70005798339844px}}@keyframes animate-svg-stroke-14{0%{stroke-dashoffset:57.70005798339844px;stroke-dasharray:57.70005798339844px}100%{stroke-dashoffset:0;stroke-dasharray:57.70005798339844px}}@-webkit-keyframes animate-svg-fill-14{0%{fill:transparent}100%{fill:rgb(62,58,57)}}@keyframes animate-svg-fill-14{0%{fill:transparent}100%{fill:rgb(62,58,57)}}.svg-elem-14{-webkit-animation:animate-svg-stroke-14 1s cubic-bezier(0.47,0,0.745,0.715) 1.56s both,animate-svg-fill-14 0.7s cubic-bezier(0.47,0,0.745,0.715) 2.1s both;animation:animate-svg-stroke-14 1s cubic-bezier(0.47,0,0.745,0.715) 1.56s both,animate-svg-fill-14 0.7s cubic-bezier(0.47,0,0.745,0.715) 2.1s both}@-webkit-keyframes animate-svg-stroke-15{0%{stroke-dashoffset:106.4758529663086px;stroke-dasharray:106.4758529663086px}100%{stroke-dashoffset:0;stroke-dasharray:106.4758529663086px}}@keyframes animate-svg-stroke-15{0%{stroke-dashoffset:106.4758529663086px;stroke-dasharray:106.4758529663086px}100%{stroke-dashoffset:0;stroke-dasharray:106.4758529663086px}}@-webkit-keyframes animate-svg-fill-15{0%{fill:transparent}100%{fill:rgb(62,58,57)}}@keyframes animate-svg-fill-15{0%{fill:transparent}100%{fill:rgb(62,58,57)}}.svg-elem-15{-webkit-animation:animate-svg-stroke-15 1s cubic-bezier(0.47,0,0.745,0.715) 1.68s both,animate-svg-fill-15 0.7s cubic-bezier(0.47,0,0.745,0.715) 2.2s both;animation:animate-svg-stroke-15 1s cubic-bezier(0.47,0,0.745,0.715) 1.68s both,animate-svg-fill-15 0.7s cubic-bezier(0.47,0,0.745,0.715) 2.2s both}@-webkit-keyframes animate-svg-stroke-16{0%{stroke-dashoffset:125.5px;stroke-dasharray:125.5px}100%{stroke-dashoffset:0;stroke-dasharray:125.5px}}@keyframes animate-svg-stroke-16{0%{stroke-dashoffset:125.5px;stroke-dasharray:125.5px}100%{stroke-dashoffset:0;stroke-dasharray:125.5px}}.svg-elem-16{-webkit-animation:animate-svg-stroke-16 1s cubic-bezier(0.47,0,0.745,0.715) 1.7999999999999998s both,animate-svg-fill-16 0.7s cubic-bezier(0.47,0,0.745,0.715) 2.3s both;animation:animate-svg-stroke-16 1s cubic-bezier(0.47,0,0.745,0.715) 1.7999999999999998s both,animate-svg-fill-16 0.7s cubic-bezier(0.47,0,0.745,0.715) 2.3s both}@-webkit-keyframes animate-svg-stroke-17{0%{stroke-dashoffset:125.5px;stroke-dasharray:125.5px}100%{stroke-dashoffset:0;stroke-dasharray:125.5px}}@keyframes animate-svg-stroke-17{0%{stroke-dashoffset:125.5px;stroke-dasharray:125.5px}100%{stroke-dashoffset:0;stroke-dasharray:125.5px}}.svg-elem-17{-webkit-animation:animate-svg-stroke-17 1s cubic-bezier(0.47,0,0.745,0.715) 1.92s both,animate-svg-fill-17 0.7s cubic-bezier(0.47,0,0.745,0.715) 2.4000000000000004s both;animation:animate-svg-stroke-17 1s cubic-bezier(0.47,0,0.745,0.715) 1.92s both,animate-svg-fill-17 0.7s cubic-bezier(0.47,0,0.745,0.715) 2.4000000000000004s both}@-webkit-keyframes animate-svg-stroke-18{0%{stroke-dashoffset:49.564117431640625px;stroke-dasharray:49.564117431640625px}100%{stroke-dashoffset:0;stroke-dasharray:49.564117431640625px}}@keyframes animate-svg-stroke-18{0%{stroke-dashoffset:49.564117431640625px;stroke-dasharray:49.564117431640625px}100%{stroke-dashoffset:0;stroke-dasharray:49.564117431640625px}}@-webkit-keyframes animate-svg-fill-18{0%{fill:transparent}100%{fill:rgb(62,58,57)}}@keyframes animate-svg-fill-18{0%{fill:transparent}100%{fill:rgb(62,58,57)}}.svg-elem-18{-webkit-animation:animate-svg-stroke-18 1s cubic-bezier(0.47,0,0.745,0.715) 2.04s both,animate-svg-fill-18 0.7s cubic-bezier(0.47,0,0.745,0.715) 2.5s both;animation:animate-svg-stroke-18 1s cubic-bezier(0.47,0,0.745,0.715) 2.04s both,animate-svg-fill-18 0.7s cubic-bezier(0.47,0,0.745,0.715) 2.5s both}@-webkit-keyframes animate-svg-stroke-19{0%{stroke-dashoffset:75.28469848632812px;stroke-dasharray:75.28469848632812px}100%{stroke-dashoffset:0;stroke-dasharray:75.28469848632812px}}@keyframes animate-svg-stroke-19{0%{stroke-dashoffset:75.28469848632812px;stroke-dasharray:75.28469848632812px}100%{stroke-dashoffset:0;stroke-dasharray:75.28469848632812px}}@-webkit-keyframes animate-svg-fill-19{0%{fill:transparent}100%{fill:rgb(62,58,57)}}@keyframes animate-svg-fill-19{0%{fill:transparent}100%{fill:rgb(62,58,57)}}.svg-elem-19{-webkit-animation:animate-svg-stroke-19 1s cubic-bezier(0.47,0,0.745,0.715) 2.16s both,animate-svg-fill-19 0.7s cubic-bezier(0.47,0,0.745,0.715) 2.6s both;animation:animate-svg-stroke-19 1s cubic-bezier(0.47,0,0.745,0.715) 2.16s both,animate-svg-fill-19 0.7s cubic-bezier(0.47,0,0.745,0.715) 2.6s both}@-webkit-keyframes animate-svg-stroke-20{0%{stroke-dashoffset:63.235694885253906px;stroke-dasharray:63.235694885253906px}100%{stroke-dashoffset:0;stroke-dasharray:63.235694885253906px}}@keyframes animate-svg-stroke-20{0%{stroke-dashoffset:63.235694885253906px;stroke-dasharray:63.235694885253906px}100%{stroke-dashoffset:0;stroke-dasharray:63.235694885253906px}}@-webkit-keyframes animate-svg-fill-20{0%{fill:transparent}100%{fill:rgb(62,58,57)}}@keyframes animate-svg-fill-20{0%{fill:transparent}100%{fill:rgb(62,58,57)}}.svg-elem-20{-webkit-animation:animate-svg-stroke-20 1s cubic-bezier(0.47,0,0.745,0.715) 2.28s both,animate-svg-fill-20 0.7s cubic-bezier(0.47,0,0.745,0.715) 2.7s both;animation:animate-svg-stroke-20 1s cubic-bezier(0.47,0,0.745,0.715) 2.28s both,animate-svg-fill-20 0.7s cubic-bezier(0.47,0,0.745,0.715) 2.7s both}@-webkit-keyframes animate-svg-stroke-21{0%{stroke-dashoffset:49.99608612060547px;stroke-dasharray:49.99608612060547px}100%{stroke-dashoffset:0;stroke-dasharray:49.99608612060547px}}@keyframes animate-svg-stroke-21{0%{stroke-dashoffset:49.99608612060547px;stroke-dasharray:49.99608612060547px}100%{stroke-dashoffset:0;stroke-dasharray:49.99608612060547px}}@-webkit-keyframes animate-svg-fill-21{0%{fill:transparent}100%{fill:rgb(62,58,57)}}@keyframes animate-svg-fill-21{0%{fill:transparent}100%{fill:rgb(62,58,57)}}.svg-elem-21{-webkit-animation:animate-svg-stroke-21 1s cubic-bezier(0.47,0,0.745,0.715) 2.4s both,animate-svg-fill-21 0.7s cubic-bezier(0.47,0,0.745,0.715) 2.8s both;animation:animate-svg-stroke-21 1s cubic-bezier(0.47,0,0.745,0.715) 2.4s both,animate-svg-fill-21 0.7s cubic-bezier(0.47,0,0.745,0.715) 2.8s both}@-webkit-keyframes animate-svg-stroke-22{0%{stroke-dashoffset:19.872541427612305px;stroke-dasharray:19.872541427612305px}100%{stroke-dashoffset:0;stroke-dasharray:19.872541427612305px}}@keyframes animate-svg-stroke-22{0%{stroke-dashoffset:19.872541427612305px;stroke-dasharray:19.872541427612305px}100%{stroke-dashoffset:0;stroke-dasharray:19.872541427612305px}}@-webkit-keyframes animate-svg-fill-22{0%{fill:transparent}100%{fill:rgb(62,58,57)}}@keyframes animate-svg-fill-22{0%{fill:transparent}100%{fill:rgb(62,58,57)}}.svg-elem-22{-webkit-animation:animate-svg-stroke-22 1s cubic-bezier(0.47,0,0.745,0.715) 2.52s both,animate-svg-fill-22 0.7s cubic-bezier(0.47,0,0.745,0.715) 2.9000000000000004s both;animation:animate-svg-stroke-22 1s cubic-bezier(0.47,0,0.745,0.715) 2.52s both,animate-svg-fill-22 0.7s cubic-bezier(0.47,0,0.745,0.715) 2.9000000000000004s both}@-webkit-keyframes animate-svg-stroke-23{0%{stroke-dashoffset:29.251323699951172px;stroke-dasharray:29.251323699951172px}100%{stroke-dashoffset:0;stroke-dasharray:29.251323699951172px}}@keyframes animate-svg-stroke-23{0%{stroke-dashoffset:29.251323699951172px;stroke-dasharray:29.251323699951172px}100%{stroke-dashoffset:0;stroke-dasharray:29.251323699951172px}}@-webkit-keyframes animate-svg-fill-23{0%{fill:transparent}100%{fill:rgb(62,58,57)}}@keyframes animate-svg-fill-23{0%{fill:transparent}100%{fill:rgb(62,58,57)}}.svg-elem-23{-webkit-animation:animate-svg-stroke-23 1s cubic-bezier(0.47,0,0.745,0.715) 2.6399999999999997s both,animate-svg-fill-23 0.7s cubic-bezier(0.47,0,0.745,0.715) 3s both;animation:animate-svg-stroke-23 1s cubic-bezier(0.47,0,0.745,0.715) 2.6399999999999997s both,animate-svg-fill-23 0.7s cubic-bezier(0.47,0,0.745,0.715) 3s both}@-webkit-keyframes animate-svg-stroke-24{0%{stroke-dashoffset:69.47341918945312px;stroke-dasharray:69.47341918945312px}100%{stroke-dashoffset:0;stroke-dasharray:69.47341918945312px}}@keyframes animate-svg-stroke-24{0%{stroke-dashoffset:69.47341918945312px;stroke-dasharray:69.47341918945312px}100%{stroke-dashoffset:0;stroke-dasharray:69.47341918945312px}}@-webkit-keyframes animate-svg-fill-24{0%{fill:transparent}100%{fill:rgb(62,58,57)}}@keyframes animate-svg-fill-24{0%{fill:transparent}100%{fill:rgb(62,58,57)}}.svg-elem-24{-webkit-animation:animate-svg-stroke-24 1s cubic-bezier(0.47,0,0.745,0.715) 2.76s both,animate-svg-fill-24 0.7s cubic-bezier(0.47,0,0.745,0.715) 3.1000000000000005s both;animation:animate-svg-stroke-24 1s cubic-bezier(0.47,0,0.745,0.715) 2.76s both,animate-svg-fill-24 0.7s cubic-bezier(0.47,0,0.745,0.715) 3.1000000000000005s both}
</style>
<g>
	<g>
		<g>
			<path class="st0 svg-elem-1" d="M37.1,18.6c-0.5,0-1.1,0-1.6,0c-0.3,0-0.3-0.2-0.3-0.7c0-0.5,0-0.7,0.3-0.7c0.5,0,1.1,0,1.6,0h6.5
				c0.5,0,1.1,0,1.6,0c0.3,0,0.3,0.2,0.3,0.7c0,0.5,0,0.7-0.3,0.7c-0.5,0-1.1,0-1.6,0H37.1z"></path>
			<path class="st0 svg-elem-2" d="M36.5,36.3c0.1,0,0.2,0,0.2,0.1c0,0.1-0.1,0.1-0.1,0.1c-0.1,0.1-0.2,0.1-0.2,0.3c-0.1,0.7-0.3,1.6-0.4,2.3
				c0,0.2-0.1,0.3-0.3,0.3c-0.2,0-0.7-0.1-0.7-0.3c0-0.1,0-0.2,0.1-0.3c0.4-1.2,0.4-1.9,0.4-2.3c0-0.3,0-0.4,0.2-0.4
				C35.7,36.2,36.4,36.3,36.5,36.3z M38.5,35.3L38.5,35.3c-0.2,0-0.3,0-0.3,0c-0.2,0-0.3,0.1-0.3,0.4V38c0,0.5,0,1.1,0,1.6
				c0,0.4-0.1,0.4-0.6,0.4c-0.5,0-0.6,0-0.6-0.4c0-0.5,0-1.1,0-1.6v-2.1c0-0.2-0.1-0.3-0.3-0.3l-0.6,0.1c-0.1,0-0.2,0-0.2,0.1
				c0,0.1-0.1,0.1-0.2,0.1c-0.2,0-0.2-0.2-0.3-0.6c0-0.1,0-0.3-0.1-0.5c0,0,0-0.1,0-0.2c0-0.1,0.1-0.1,0.3-0.1c0.1,0,0.3,0,0.4,0
				c0.2,0,0.3-0.1,0.5-0.3l0.3-0.5c0-0.1,0.1-0.1,0.1-0.2c0-0.1-0.1-0.2-0.1-0.3c-0.5-0.4-0.8-0.7-1.3-1.1c-0.1,0-0.1-0.1-0.1-0.2
				c0-0.1,0.4-0.8,0.6-0.8c0.1,0,0.2,0.1,0.2,0.1c0,0,0.1,0.1,0.2,0.1c0.1,0,0.1-0.1,0.2-0.1c0.3-0.6,0.6-1.2,0.8-1.8
				c0-0.1,0.1-0.2,0.2-0.2c0.1,0,0.3,0.1,0.6,0.3c0.2,0.1,0.4,0.2,0.4,0.3c0,0.1-0.1,0.1-0.2,0.1c-0.1,0-0.2,0-0.2,0.1
				c-0.3,0.6-0.6,1.2-1,1.8c0,0,0,0.1,0,0.1c0,0.1,0,0.1,0.1,0.2c0.1,0,0.1,0.1,0.2,0.2c0,0,0.1,0.1,0.2,0.1c0.1,0,0.2-0.1,0.2-0.1
				c0.3-0.5,0.5-0.9,0.7-1.4c0-0.1,0.1-0.2,0.2-0.2c0.1,0,0.3,0.1,0.5,0.2c0.2,0.1,0.6,0.3,0.6,0.4c0,0.1-0.1,0.1-0.2,0.1
				c-0.1,0-0.2,0-0.2,0.1c-0.5,0.8-1,1.7-1.6,2.5c0,0,0,0.1,0,0.1c0,0.1,0.1,0.1,0.2,0.1c0.2,0,0.4,0,0.6-0.1c0.1,0,0.2-0.1,0.2-0.2
				c0,0,0-0.1,0-0.1c0-0.1-0.1-0.3-0.1-0.4c0-0.2,0.5-0.3,0.6-0.3c0.2,0,0.3,0.2,0.4,0.6c0.1,0.4,0.3,0.7,0.4,1.1
				c0,0.1,0.1,0.2,0.2,0.2c0.1,0,0.1,0,0.2,0c0.5-0.3,0.9-0.7,1.4-1c0,0,0-0.1,0-0.1c0-0.1-0.1-0.1-0.1-0.1h-0.4c-0.4,0-0.8,0-1.2,0
				c-0.3,0-0.3-0.1-0.3-0.6c0-0.4,0-0.6,0.3-0.6c0.4,0,0.8,0,1.2,0h0.1c0.2,0,0.3-0.1,0.3-0.3V32c0-0.2-0.1-0.3-0.3-0.3
				c-0.2,0-0.7,0-0.9,0c-0.3,0-0.3-0.1-0.3-0.6s0-0.6,0.3-0.6s0.6,0,0.9,0c0.2,0,0.3-0.1,0.3-0.3c0-0.2,0-0.4,0-0.6c0,0,0-0.1,0-0.1
				c0-0.1,0.1-0.2,0.2-0.2c0.1,0,0.9,0.1,1,0.1c0.1,0,0.3,0,0.3,0.2c0,0.1-0.1,0.1-0.2,0.2c-0.1,0.1-0.1,0.2-0.1,0.4v0.1
				c0,0.2,0.1,0.3,0.3,0.3c0.2,0,0.5,0,0.7,0c0.3,0,0.2,0.2,0.2,0.6c0,0,0,0.1,0.1,0.1c0,0,0,0,0.1,0c0.3-0.4,0.5-0.8,0.7-1.3
				c0-0.1,0.1-0.2,0.2-0.2s0.3,0.1,0.5,0.2s0.7,0.3,0.7,0.5c0,0.1-0.1,0.1-0.2,0.1c-0.2,0-0.2,0.1-0.3,0.3c-0.4,0.6-0.7,1.1-1.1,1.7
				c0,0,0,0.1,0,0.1c0,0.1,0.1,0.1,0.2,0.1c0.4,0,0.7,0,1.1,0c0.3,0,0.2,0.1,0.2,0.6c0,0.4,0,0.6-0.2,0.6c-0.4,0-0.8,0-1.2,0h-0.8
				c-0.3,0-0.3,0-0.5,0.2c-0.2,0.2-0.3,0.3-0.5,0.5c0,0,0,0.1,0,0.1c0,0.1,0.1,0.1,0.1,0.1h1.3c0.3,0,0.5,0,0.8,0
				c0.4,0,0.6,0.1,0.6,0.5c0,0.2,0,0.5,0,0.7v2.8c0,0.3,0,0.6,0,0.9c0,0.3-0.1,0.3-0.6,0.3c-0.4,0-0.6,0-0.6-0.3c0,0,0-0.1,0-0.1
				c0-0.1-0.1-0.2-0.2-0.2h-1.9c-0.1,0-0.2,0.1-0.2,0.2v0.1c0,0.3-0.2,0.3-0.6,0.3s-0.6,0-0.6-0.3c0-0.3,0-0.6,0-1v-2.3
				c0-0.1,0-0.2-0.2-0.2c0,0-0.1,0-0.1,0c-0.1,0.1-0.4,0.3-0.5,0.3c-0.2,0-0.6-0.5-0.6-0.7c0-0.1-0.1-0.1-0.1-0.1
				c-0.1-0.1-0.1-0.1-0.1-0.2C38.8,35.4,38.7,35.3,38.5,35.3z M39,38.5c-0.2,0-0.2-0.2-0.3-0.3c-0.1-0.5-0.3-1-0.5-1.5
				c0-0.1-0.1-0.2-0.1-0.3c0-0.2,0.5-0.3,0.6-0.3c0.2,0,0.3,0.1,0.6,1c0.1,0.2,0.3,0.9,0.3,1C39.6,38.4,39.1,38.5,39,38.5z
				 M43.7,36.6c0.2,0,0.3-0.1,0.3-0.3v-0.2c0-0.2-0.1-0.3-0.3-0.3h-1.7c-0.2,0-0.3,0.1-0.3,0.3v0.2c0,0.2,0.1,0.3,0.3,0.3H43.7z
				 M41.6,38.1c0,0.2,0.1,0.3,0.3,0.3h1.7c0.2,0,0.3-0.1,0.3-0.3v-0.2c0-0.2-0.1-0.3-0.3-0.3h-1.7c-0.2,0-0.3,0.1-0.3,0.3V38.1z
				 M43.3,31.9c0,0,0-0.1,0-0.1c0-0.1-0.1-0.1-0.2-0.2c-0.2,0-0.3,0-0.5,0c-0.2,0-0.3,0.1-0.3,0.3v0.5c0,0.2,0.1,0.3,0.2,0.3
				c0.1,0,0.1,0,0.1-0.1C42.9,32.4,43.1,32.1,43.3,31.9z"></path>
			<path class="st0 svg-elem-3" d="M38.5,47.6c0.1,0,0.2,0.1,0.2,0.2c0,0.1,0,0.1-0.2,0.2c-0.2,0.1-0.3,0.2-0.4,0.5c-0.4,1.1-0.7,2.3-0.7,3.4
				c0,0.2,0,1.7,0.3,1.7c0.1,0,0.3-0.3,0.3-0.5c0.1-0.2,0.1-0.3,0.3-0.3c0.1,0,0.4,0.3,0.4,0.4c0,0.1-0.5,1.2-0.5,1.7
				c0,0.1,0,0.4,0,0.5c0,0.1,0,0.1,0,0.2c0,0.3-0.7,0.6-0.9,0.6c-0.2,0-0.3-0.3-0.5-0.6c-0.6-1.1-0.7-2.4-0.7-3.7
				c0-1.4,0.2-2.6,0.6-4c0.1-0.2,0.1-0.4,0.2-0.6c0-0.1,0-0.3,0.2-0.3C37.3,47.1,38.3,47.5,38.5,47.6z M40,53.3
				c0.5,0.6,1,0.8,1.8,0.8c0.9,0,1.8-0.1,2.6-0.4c0.1,0,0.2,0,0.3,0c0.2,0,0.2,0.3,0.2,0.9c0,0.1,0,0.4-0.1,0.4
				c-0.3,0.2-2.4,0.4-2.8,0.4c-1.9,0-2.7-1-2.7-1.2c0-0.2,0.4-1,0.6-1C39.9,53.2,39.9,53.3,40,53.3z M40.4,48.1
				c0.5,0.1,1.1,0.2,1.6,0.2c0.6,0,1.2-0.1,1.8-0.2c0.1,0,0.1,0,0.2,0c0.2,0,0.2,0.1,0.2,0.3c0,0.2,0,0.4,0,0.6c0,0.3,0,0.3-0.2,0.4
				c-0.5,0.1-1.5,0.2-2,0.2c-0.4,0-1.8-0.1-2.1-0.2c-0.1-0.1-0.1-0.3-0.1-0.5c0-0.6,0.1-0.8,0.3-0.8C40.2,48,40.3,48.1,40.4,48.1z"></path>
			<path class="st0 svg-elem-4" d="M44.2,67.1C44.2,67.1,44.2,67.1,44.2,67.1c0.3,0,0.8,0,1.1,0c0.3,0,0.3,0.1,0.3,0.5s0,0.5-0.3,0.5
				c-0.5,0-0.9,0-1.4,0h-1.5c-0.2,0-0.3,0.1-0.3,0.3v0.1c0.1,0.5,0.2,1.1,0.4,1.6c0,0.1,0.1,0.1,0.2,0.1c0.1,0,0.1,0,0.2-0.1
				c0.3-0.5,0.5-0.7,0.7-1.3c0-0.1,0.1-0.2,0.2-0.2c0.1,0,0.5,0.2,0.7,0.3c0.4,0.2,0.5,0.2,0.5,0.3c0,0.1-0.1,0.1-0.2,0.2
				c-0.2,0.1-0.2,0.1-0.3,0.3c-0.3,0.5-0.6,1.1-1,1.5c-0.1,0.1-0.1,0.2-0.1,0.3s0,0.2,0.1,0.2c0.2,0.2,0.6,0.6,0.8,0.6
				c0.4,0,0.5-0.7,0.5-1c0-0.2,0-0.3,0.3-0.3c0.2,0,0.4,0,0.6,0.1c0.2,0.1,0.3,0.1,0.3,0.3c0,0.3-0.1,0.8-0.2,1.2
				c-0.2,0.6-0.6,1-1.2,1c-0.7,0-1.3-0.5-1.8-1c-0.1-0.1-0.1-0.1-0.2-0.1c-0.1,0-0.1,0-0.2,0.1c-0.3,0.2-1.3,1.1-1.6,1.1
				c-0.2,0-0.7-0.5-0.7-0.7c0-0.1,0.2-0.2,0.3-0.3c0.6-0.3,1-0.6,1.5-1.1c0.1-0.1,0.1-0.2,0.1-0.3c0-0.1,0-0.1,0-0.2
				c-0.4-0.8-0.6-1.7-0.7-2.6c0-0.2-0.1-0.3-0.4-0.3h-3.3c-0.2,0-0.3,0.1-0.3,0.3v0.6c0,1.3-0.2,2.7-0.7,3.9
				c-0.1,0.2-0.2,0.6-0.4,0.6c-0.2,0-0.9-0.4-0.9-0.7c0,0,0-0.1,0-0.1c0.1-0.2,0.2-0.6,0.3-0.9c0.3-1,0.5-2,0.5-3v-0.3
				c0-0.3,0-0.6,0-0.9c0-0.5,0.3-0.6,0.7-0.6c0.4,0,0.7,0,1.1,0h3c0.2,0,0.3-0.1,0.3-0.3c0-0.1,0-0.3,0-0.4c0-0.1,0.1-0.1,0.2-0.1
				c0.1,0,1,0.1,1.1,0.1c0.1,0,0.2,0,0.2,0.2c0,0.1-0.1,0.1-0.1,0.2c-0.1,0-0.1,0.1-0.1,0.2c0,0.2,0.2,0.3,0.3,0.3H43
				c0.1,0,0.2,0,0.2-0.1c0,0,0-0.1,0-0.1c-0.1-0.1-0.2-0.2-0.2-0.3c-0.1-0.1-0.1-0.2-0.1-0.2c0-0.1,0.1-0.1,0.1-0.1
				c0,0,0.1,0,0.1-0.1c0,0-0.1,0-0.1,0h-6c-0.5,0-1,0-1.5,0c-0.3,0-0.3-0.1-0.3-0.5c0-0.4,0-0.5,0.3-0.5c0.4,0,0.9,0,1.3,0
				c0.2,0,0.3-0.1,0.3-0.3v-0.5c0-0.3,0-0.6,0-0.9c0,0,0-0.1,0-0.1c0-0.1,0.1-0.2,0.2-0.2c0.2,0,0.9,0.1,1.1,0.1
				c0.1,0,0.3,0,0.3,0.2c0,0.1-0.1,0.1-0.2,0.2c-0.1,0.1-0.1,0.3-0.1,0.7v0.6c0,0.2,0.1,0.3,0.3,0.3h1c0.2,0,0.3-0.1,0.3-0.3V64
				c0-0.3,0-0.6,0-0.8c0,0,0-0.1,0-0.1c0-0.1,0.1-0.2,0.2-0.2c0.2,0,0.9,0.1,1.1,0.1c0.1,0,0.3,0,0.3,0.2c0,0.1-0.1,0.1-0.2,0.2
				c0,0-0.1,0.1-0.1,0.2c0,0.1,0.2,0.2,0.3,0.2h1.4c0.4,0,0.8,0,1.2,0c0.2,0,0.2,0.1,0.2,0.5c0,0.4,0,0.5-0.2,0.5
				c-0.4,0-0.8,0-1.2,0h-1.5c-0.2,0-0.2,0.1-0.2,0.2v0.1c0,0.2,0.1,0.2,0.2,0.2H44c0.5,0,1,0,1.5,0c0.3,0,0.3,0.1,0.3,0.5
				s0,0.5-0.3,0.5c-0.5,0-0.9,0-1.4,0c-0.1,0-0.2,0-0.2,0.1c0,0,0,0.1,0,0.1c0.1,0.1,0.4,0.4,0.4,0.5C44.3,66.9,44.3,67,44.2,67.1
				C44.2,67,44.2,67,44.2,67.1z M38.3,70.5c-0.1,0-0.1,0.1-0.1,0.1c-0.1,0.3-0.4,1-0.5,1.3c0,0.1-0.1,0.2-0.2,0.2
				c-0.1,0-0.6-0.1-0.6-0.3c0,0,0-0.1,0-0.2c0.2-0.4,0.5-1,0.6-1.5c0-0.1,0-0.1,0.1-0.1s0.5,0.1,0.6,0.2c0.2,0,0.3,0.1,0.3,0.2
				S38.3,70.5,38.3,70.5z M39.5,71.2c0,0.2,0,0.5,0,0.7c0,0.9-0.5,1-1.4,1c-0.1,0-0.4,0.1-0.4-0.8c0-0.2,0-0.2,0.2-0.2
				c0.1,0,0.2,0,0.4,0c0.3,0,0.3-0.1,0.3-0.6v-1.4c0-0.2-0.1-0.3-0.3-0.3c-0.2,0-0.6,0-0.7,0c-0.3,0-0.3-0.2-0.3-0.5s0-0.5,0.3-0.5
				c0.3,0,0.6,0,0.9,0h1.1c0.3,0,0.6,0,0.9,0c0.3,0,0.3,0.2,0.3,0.5c0,0.3,0,0.5-0.3,0.5c-0.1,0-0.4,0-0.6,0c-0.2,0-0.3,0.1-0.3,0.3
				V71.2z M40.4,71.9c-0.1,0-0.1-0.1-0.2-0.2c-0.2-0.5-0.2-0.7-0.4-1.2c0-0.1,0-0.1,0-0.2c0-0.2,0.5-0.3,0.6-0.3
				c0.1,0,0.2,0.1,0.4,0.7c0.1,0.2,0.3,0.7,0.3,0.8C41.1,71.8,40.5,71.9,40.4,71.9z"></path>
			<path class="st0 svg-elem-5" d="M41.2,80.5c0,0.1-0.1,0.1-0.1,0.1c-0.2,0.1-0.2,0.1-0.4,0.4c0,0.1-0.1,0.2-0.1,0.3c0,0.1,0.1,0.1,0.1,0.1
				c0.2,0,1.1-0.3,1.4-0.3c0.1,0,0.2-0.1,0.3-0.1c0.2,0,0.3,0.2,0.3,0.4c0,0.2,0.1,0.5,0.1,0.6c0,0.2-0.4,0.3-0.6,0.3
				c-0.8,0.2-1.5,0.3-2.3,0.4c-0.2,0-0.2,0-0.4,0.2c-0.1,0.1-0.4,0.6-0.4,0.7c0,0,0,0.1,0.1,0.1c0.1,0,0.2,0,0.2-0.1
				c0.4-0.2,0.9-0.3,1.3-0.3c0.8,0,1.2,0.3,1.4,1.1c0,0.1,0.1,0.2,0.2,0.2c0.1,0,1.2-0.6,1.4-0.7c0.1,0,0.2-0.1,0.3-0.1
				c0.2,0,0.5,0.9,0.5,1.1c0,0.1-0.1,0.2-0.4,0.3c0,0-0.1,0-0.2,0.1c-0.5,0.2-0.9,0.4-1.4,0.6c-0.2,0.1-0.3,0.2-0.3,0.4v0.2
				c0,0.4,0,0.7,0,1.1c0,0.4-0.1,0.5-0.5,0.5c-0.5,0-0.7,0-0.7-0.3c0-0.3,0-0.5,0-0.8c0-0.1,0-0.2-0.2-0.2c-0.1,0-1.3,0.5-1.3,1.3
				c0,0.8,1.2,0.9,1.7,0.9c0.8,0,1.5-0.1,2.2-0.3c0.1,0,0.2,0,0.2,0c0.2,0,0.2,0.1,0.2,0.8c0,0.4,0,0.5-0.3,0.5
				c-0.5,0.1-1.8,0.2-2.3,0.2c-0.7,0-1.3,0-1.9-0.3c-0.7-0.3-1.2-0.9-1.2-1.7c0-1.1,0.9-1.7,1.7-2.2c0.2-0.1,0.5-0.3,0.7-0.4
				c0.1-0.1,0.2-0.1,0.2-0.3c0-0.1,0-0.3-0.1-0.3c-0.1-0.3-0.3-0.4-0.5-0.4c-0.7,0-1.8,0.6-2.2,1.1c-0.3,0.3-0.8,1-1,1.4
				c0,0.1-0.1,0.1-0.2,0.1c-0.2,0-1-0.5-1-0.7c0-0.1,0.1-0.2,0.2-0.3c0.3-0.3,2-2.7,2-2.9c0-0.1-0.1-0.1-0.3-0.1c-0.2,0-0.5,0-0.8,0
				c-0.3,0-0.3-0.1-0.3-0.7c0-0.5,0-0.6,0.3-0.6c0.2,0,0.5,0,0.9,0h0.3c0.3,0,0.6,0,0.7-0.2c0.2-0.3,0.6-1.2,0.6-1.5
				c0-0.1,0-0.3,0.2-0.3C40,79.7,41.2,80.3,41.2,80.5z"></path>
			<path class="st0 svg-elem-6" d="M41,98.3c0,0.2,0.1,0.3,0.3,0.3h2.5c0.5,0,0.9,0,1.4,0c0.3,0,0.2,0.1,0.2,0.5c0,0.3,0,0.5-0.2,0.5
				c-0.5,0-0.9,0-1.4,0h-2.6c-0.2,0-0.3,0.1-0.3,0.3v0c0,0.2,0.1,0.3,0.3,0.3h1.4c0.3,0,0.6,0,1,0c0.3,0,0.6,0.1,0.6,0.5
				c0,0.2,0,0.5,0,0.7v1.5c0,0.2,0,0.5,0,0.7c0,0.4-0.2,0.5-0.6,0.5c-0.3,0-0.7,0-1,0h-1.4c-0.2,0-0.2,0.1-0.2,0.2v0.1
				c0,0.2,0.1,0.2,0.2,0.2h2c0.4,0,0.9,0,1.3,0c0.2,0,0.2,0.1,0.2,0.5c0,0.3,0,0.5-0.3,0.5c-0.4,0-0.9,0-1.3,0h-1.9
				c-0.2,0-0.3,0.1-0.3,0.3v0.1c0,0.2,0.1,0.3,0.3,0.3H44c0.5,0,0.9,0,1.4,0c0.3,0,0.2,0.1,0.2,0.5c0,0.3,0,0.5-0.2,0.5
				c-0.5,0-0.9,0-1.4,0h-7.3c-0.5,0-0.9,0-1.4,0c-0.2,0-0.2-0.2-0.2-0.5c0-0.3,0-0.5,0.2-0.5c0.5,0,0.9,0,1.4,0h2.8
				c0.2,0,0.3-0.1,0.3-0.3v-0.1c0-0.2-0.1-0.3-0.3-0.3h-1.9c-0.4,0-0.9,0-1.3,0c-0.3,0-0.3-0.1-0.3-0.5c0-0.3,0-0.5,0.3-0.5
				c0.4,0,0.9,0,1.3,0h2c0.2,0,0.2-0.1,0.2-0.2v-0.1c0-0.2-0.1-0.2-0.2-0.2h-1.4c-0.3,0-0.7,0-1,0c-0.3,0-0.6-0.1-0.6-0.5
				c0-0.2,0-0.5,0-0.7v-1.5c0-0.3,0-0.5,0-0.7c0-0.4,0.3-0.5,0.6-0.5c0.3,0,0.7,0,1,0h1.3c0.2,0,0.3-0.1,0.3-0.3v0
				c0-0.2-0.1-0.3-0.3-0.3H37c-0.5,0-0.9,0-1.4,0c-0.2,0-0.2-0.1-0.2-0.5c0-0.4,0-0.5,0.3-0.5c0.5,0,0.9,0,1.4,0h2.6
				c0.2,0,0.3-0.1,0.3-0.3v-0.1c0-0.2-0.1-0.3-0.3-0.3c-1.1,0-2.1,0.1-3.2,0.1c-0.2,0-0.3-0.1-0.3-0.3c-0.1-0.2-0.1-0.3-0.1-0.5
				c0-0.2,0.1-0.2,0.4-0.2h0.8c1.8,0,4.8-0.1,6.4-0.6c0.1,0,0.1,0,0.2,0c0.1,0,0.3,0.2,0.5,0.4c0.1,0.1,0.4,0.3,0.4,0.5
				c0,0.1,0,0.1-0.1,0.1c0,0-0.1,0-0.2,0c0,0-0.1,0-0.2,0s-0.2,0-0.2,0c-0.9,0.2-1.8,0.3-2.6,0.4c-0.2,0-0.3,0.1-0.3,0.4V98.3z
				 M39.8,101.3c0-0.2-0.1-0.3-0.3-0.3h-1.4c-0.2,0-0.3,0.1-0.3,0.3v0.1c0,0.2,0.1,0.3,0.3,0.3h1.4
				C39.7,101.6,39.8,101.5,39.8,101.3L39.8,101.3z M38.1,102.4c-0.2,0-0.3,0.1-0.3,0.3v0.1c0,0.2,0.1,0.3,0.3,0.3h1.4
				c0.2,0,0.3-0.1,0.3-0.3v-0.1c0-0.2-0.1-0.3-0.3-0.3H38.1z M42.8,101.6c0.2,0,0.3-0.1,0.3-0.3v-0.1c0-0.2-0.1-0.3-0.3-0.3h-1.5
				c-0.2,0-0.3,0.1-0.3,0.3v0.1c0,0.2,0.1,0.3,0.3,0.3H42.8z M41,102.8c0,0.2,0.1,0.3,0.3,0.3h1.5c0.2,0,0.3-0.1,0.3-0.3v-0.1
				c0-0.2-0.1-0.3-0.3-0.3h-1.5C41.1,102.4,41,102.6,41,102.8L41,102.8z"></path>
			<path class="st0 svg-elem-7" d="M39.2,114c0.1,0,0.2,0.1,0.2,0.2c0,0.1,0,0.1-0.1,0.1c-0.1,0.1-0.1,0.2-0.2,0.6c0,0.1,0,0.5,0,0.6
				c0,0.2,0.1,0.3,0.3,0.3c0.3,0.1,0.4,0.4,0.4,0.5c0,0.1-0.1,0.2-0.2,0.3c-0.3,0.3-0.3,0.5-0.5,0.9c0,0.1-0.1,0.2-0.1,0.3
				c0,0,0,0.1,0,0.1c0.1,0,0.1-0.1,0.2-0.1c0.4-0.4,0.8-0.8,1.3-1.2c0.6-0.5,1.3-0.9,2.1-0.9c0.7,0,1.4,0.3,1.8,1
				c0.4,0.6,0.5,1.7,0.5,2.4c0,0.3,0,0.7-0.1,1.1c0,0,0,0.1,0,0.1c0,0.2,0.1,0.3,0.3,0.3c0.4,0.2,0.9,0.5,0.9,0.8
				c0,0.2-0.3,0.8-0.6,0.8c-0.1,0-0.4-0.2-0.6-0.3c-0.1-0.1-0.2-0.2-0.3-0.2c-0.1,0-0.2,0.1-0.3,0.2c-0.5,0.7-1.2,1-2,1
				c-0.9,0-2-0.5-2-1.5c0-1,1.4-1.6,2.2-1.6c0.3,0,0.7,0.1,1,0.1h0.1c0.3,0,0.3-0.3,0.3-0.7c0-0.7-0.1-2.5-1.1-2.5
				c-1.2,0-2.6,1.4-3.4,2.2c-0.2,0.2-0.3,0.3-0.3,1v0.6c0,0.8,0.1,2.1,0.1,2.1c0,0.3-0.1,0.3-0.9,0.3c-0.2,0-0.5,0-0.5-0.3
				c0-0.1,0-0.1,0-0.2c0-0.2,0.1-1.5,0.1-1.8c0,0,0-0.1-0.1-0.1c-0.1,0-0.7,1.1-0.8,1.2c0,0.1-0.1,0.2-0.2,0.2
				c-0.2,0-0.9-0.6-0.9-0.8c0-0.1,0.1-0.3,0.2-0.4c0.6-0.8,1.5-2.2,1.8-3.1c0-0.1,0-0.3,0.1-0.4c0-0.1,0-0.2-0.1-0.2
				c-0.1,0-0.6,0.2-0.7,0.2c-0.2,0-0.7,0.2-0.8,0.2c-0.1,0-0.2-0.2-0.3-0.3c-0.1-0.2-0.3-0.7-0.3-0.9c0-0.2,0.3-0.2,0.5-0.2
				c0.3,0,1.6-0.2,1.7-0.5c0.1-0.1,0.1-0.2,0.1-0.3c0-0.5,0-1,0-1.5v-0.2c0-0.1,0.1-0.2,0.2-0.2C38.2,113.7,39,113.9,39.2,114z
				 M41.1,121.4c0,0.4,0.6,0.5,0.9,0.5c0.8,0,1.1-0.6,1.1-0.7c0-0.3-0.7-0.3-0.9-0.3C41.9,120.9,41.1,121,41.1,121.4z"></path>
			<path class="st0 svg-elem-8" d="M36.4,132.3c1.8-0.1,3.5-0.3,5.3-0.5c0.9-0.1,1.8-0.2,2.7-0.4c0,0,0.1,0,0.1,0c0.2,0,0.2,0.2,0.2,0.3
				c0,0.2,0.1,0.7,0.1,0.9c0,0.3-0.3,0.2-0.5,0.3c-0.7,0-1.3,0-2,0.3c-0.9,0.3-1.6,0.9-2.1,1.8c-0.3,0.6-0.6,1.4-0.6,2.1
				c0,1.4,0.9,1.7,2.1,1.7c0.2,0,0.5,0,0.6,0c0.2,0,0.3,0,0.3,0.2c0,0.3-0.1,0.9-0.2,1.1c-0.1,0.1-0.2,0.1-0.3,0.1
				c-2,0-3.8-0.6-3.8-3c0-1.2,0.5-2.6,1.3-3.4c0.1-0.1,0.2-0.2,0.2-0.3c0-0.1-0.1-0.1-0.2-0.1c-0.1,0-0.6,0.1-0.8,0.1
				c-0.8,0.1-1.9,0.3-2.7,0.5c-0.1,0-0.1,0-0.2,0c-0.3,0-0.4-1.1-0.4-1.3C35.7,132.3,35.8,132.3,36.4,132.3z"></path>
			<path class="st0 svg-elem-9" d="M37.7,149.3c0.1,0,0.3,0,0.3,0.2c0,0.1,0,0.1-0.1,0.2c-0.2,0.1-0.2,0.4-0.2,0.6c-0.1,0.4-0.1,0.8-0.1,1.3
				c0,0.8,0.1,1.8,0.4,2.5c0.1,0.3,0.5,1,1,1c0.3,0,0.7-0.5,0.8-0.8c0.1-0.1,0.2-0.3,0.3-0.3c0.3,0,0.9,0.5,0.9,0.7
				c0,0.2-0.5,0.9-0.7,1c-0.3,0.4-0.7,0.8-1.3,0.8c-0.9,0-1.6-0.8-2-1.5c-0.6-1.1-0.7-2.6-0.7-3.9c0-0.2,0-1.7,0.1-1.8
				c0-0.1,0.1-0.1,0.2-0.1C36.6,149.1,37.5,149.3,37.7,149.3z M42.6,149.1c0.3,0,1.3,0.8,1.8,1.9c0.3,0.6,0.7,1.8,0.7,2.5
				c0,0.2-0.1,0.3-0.3,0.3c-0.2,0.1-0.5,0.1-0.7,0.1c-0.4,0-0.4-0.2-0.4-0.5c-0.1-1.4-0.6-2.5-1.8-3.4c-0.1,0-0.1-0.1-0.1-0.2
				C41.9,149.6,42.4,149.1,42.6,149.1z"></path>
			<path class="st0 svg-elem-10" d="M42.7,165.5c0,0.1-0.2,0.1-0.3,0.1c-0.1,0-0.2,0.1-0.3,0.1c-0.3,0.2-0.6,0.4-0.9,0.7c-0.7,0.6-1.4,1.1-2,1.7
				c-0.2,0.2-0.5,0.5-0.5,0.7c0,0.3,0.4,0.7,0.6,0.9c0.7,0.7,1.4,1.4,2.2,2.1c0.2,0.2,1,0.9,1,1.1c0,0.3-0.7,1-1,1
				c-0.1,0-0.3-0.2-0.4-0.3c-0.5-0.5-1-1-1.5-1.5c-0.6-0.6-1.3-1.3-1.9-2c-0.3-0.4-0.6-0.7-0.6-1.3c0-0.3,0.1-0.6,0.3-0.8
				c0.3-0.4,1.1-1.1,1.5-1.4c0.7-0.6,1.7-1.4,2.2-2.1c0-0.1,0.1-0.1,0.2-0.1c0.2,0,0.5,0.4,0.6,0.5
				C42.3,164.9,42.7,165.4,42.7,165.5z"></path>
			<path class="st0 svg-elem-11" d="M21.9,33c-0.1,0-0.2,0-0.2,0.2c0,0,0,0.1,0,0.1c1,1.7,2.2,2.9,3.7,4c0.1,0.1,0.3,0.2,0.3,0.3
				c0,0.2-0.5,0.8-0.8,0.8c-0.2,0-0.8-0.5-1-0.7c-1.1-1-2-2.1-2.8-3.3c0,0,0,0-0.1,0c-0.1,0-0.1,0.1-0.1,0.1v3.4c0,0.6,0,1.2,0,1.8
				c0,0.4-0.1,0.4-0.7,0.4c-0.5,0-0.7,0-0.7-0.4c0-0.6,0-1.2,0-1.8v-3.5c0,0,0-0.1-0.1-0.1c0,0-0.1,0-0.1,0c-0.9,1.5-2,2.8-3.5,3.8
				c-0.1,0.1-0.3,0.2-0.4,0.2c-0.2,0-0.7-0.6-0.7-0.8c0-0.1,0.1-0.2,0.3-0.3c1.5-1,2.9-2.3,3.8-3.9c0,0,0-0.1,0-0.1
				c0-0.1-0.1-0.2-0.2-0.2h-2c-0.5,0-0.9,0-1.4,0c-0.3,0-0.3-0.1-0.3-0.6c0-0.5,0-0.6,0.3-0.6c0.5,0,0.9,0,1.4,0h2.6
				c0.2,0,0.3-0.1,0.3-0.3v-1.1c0-0.3,0-0.6,0-0.9c0,0,0-0.1,0-0.1c0-0.1,0.1-0.2,0.2-0.2c0.2,0,0.9,0.1,1.1,0.1
				c0.1,0,0.3,0,0.3,0.2c0,0.1-0.1,0.1-0.2,0.2C21,29.9,21,30.1,21,30.5v1.1c0,0.2,0.1,0.3,0.3,0.3h2.5c0.5,0,0.9,0,1.4,0
				c0.3,0,0.3,0.1,0.3,0.6c0,0.5,0,0.6-0.3,0.6c-0.5,0-0.9,0-1.4,0H21.9z"></path>
			<path class="st0 svg-elem-12" d="M16.3,53.1c0.3,0.1,0.5,0.1,0.5,0.2c0,0.1-0.1,0.1-0.1,0.1c-0.1,0.1-0.2,0.1-0.2,0.3
				c-0.1,0.6-0.3,1.7-0.5,2.4c0,0.1-0.1,0.3-0.3,0.3c-0.1,0-0.8-0.1-0.8-0.3c0-0.1,0-0.2,0.1-0.2c0.3-0.8,0.5-1.6,0.6-2.5
				c0-0.1,0-0.3,0.2-0.3C15.9,53,16.2,53,16.3,53.1z M18.2,52.6v2.3c0,0.5,0,1.1,0,1.6c0,0.4-0.1,0.4-0.6,0.4c-0.5,0-0.6,0-0.6-0.4
				c0-0.5,0-1.1,0-1.6v-2.1c0-0.2-0.1-0.3-0.3-0.3c-0.3,0-0.6,0.1-0.9,0.1c-0.1,0-0.1,0-0.1,0.1c0,0.1-0.1,0.1-0.2,0.1
				c-0.1,0-0.1-0.1-0.2-0.2c0-0.1-0.2-0.9-0.2-1c0-0.2,0.1-0.2,0.3-0.2h0.2c0.1,0,0.2,0,0.2,0c0.2,0,0.3-0.1,0.5-0.3
				c0.1-0.2,0.2-0.3,0.4-0.5c0-0.1,0.1-0.1,0.1-0.2c0-0.1,0-0.2-0.1-0.3c-0.4-0.4-0.9-0.8-1.3-1.1c-0.1,0-0.2-0.1-0.2-0.2
				c0-0.1,0.3-0.8,0.6-0.8c0.1,0,0.2,0.1,0.2,0.1c0.1,0,0.1,0.1,0.2,0.1c0.1,0,0.1-0.1,0.2-0.1c0.2-0.4,0.6-1.4,0.8-1.8
				c0-0.1,0-0.2,0.1-0.2c0.1,0,0.6,0.2,0.7,0.3c0.2,0.1,0.4,0.2,0.4,0.3c0,0.1-0.1,0.1-0.2,0.1c-0.1,0-0.2,0-0.2,0.1
				c-0.2,0.5-0.6,1.3-0.9,1.7c0,0.1,0,0.1,0,0.2c0,0.1,0,0.2,0.1,0.2c0.1,0.1,0.1,0.1,0.2,0.2c0.1,0,0.1,0.1,0.2,0.1
				c0.1,0,0.2-0.1,0.2-0.1c0.3-0.5,0.6-0.9,0.8-1.4c0-0.1,0.1-0.2,0.2-0.2c0.1,0,0.7,0.4,0.8,0.4c0.1,0.1,0.3,0.1,0.3,0.2
				c0,0.1-0.1,0.1-0.2,0.1c-0.1,0-0.2,0-0.3,0.1c-0.6,0.9-1.1,1.6-1.8,2.5c0,0,0,0.1,0,0.1c0,0.1,0.1,0.1,0.2,0.1
				c0.3,0,0.6,0,0.8-0.1c0.1,0,0.2-0.1,0.2-0.2c0,0,0-0.1,0-0.1c0-0.1-0.2-0.4-0.2-0.5c0-0.2,0.6-0.4,0.7-0.4c0.1,0,0.2,0.1,0.3,0.2
				c0.1,0.3,0.3,0.7,0.4,0.9c0.1,0.2,0.4,1.1,0.4,1.2c0,0.2-0.6,0.4-0.7,0.4c-0.2,0-0.2-0.2-0.3-0.3c0-0.1-0.1-0.2-0.3-0.2
				c0,0,0,0-0.1,0c-0.1,0-0.3,0-0.4,0.1C18.3,52.2,18.2,52.3,18.2,52.6z M19.2,55.2c-0.2,0-0.2-0.1-0.2-0.3
				c-0.1-0.6-0.3-1.1-0.6-1.7c0,0-0.1-0.2-0.1-0.2c0-0.2,0.6-0.4,0.7-0.4c0.1,0,0.1,0,0.2,0.1c0.1,0.2,0.3,0.7,0.4,0.9
				c0.1,0.2,0.3,1,0.3,1.1C20,55,19.4,55.2,19.2,55.2z M25,55c0,0.2,0.1,0.3,0.3,0.3h0.2c0.3,0,0.3,0.2,0.3,0.6s0,0.6-0.3,0.6
				c-0.4,0-0.9,0-1.3,0h-3.5c-0.4,0-0.9,0-1.3,0c-0.3,0-0.3-0.2-0.3-0.6c0-0.4,0-0.6,0.3-0.6c0.2,0,0.5,0,0.7,0
				c0.2,0,0.3-0.1,0.3-0.3v-6.5c0-0.4,0-0.8,0-1.2c0-0.5,0.2-0.6,0.6-0.6c0.3,0,0.6,0,0.9,0h1.5c0.3,0,0.6,0,0.9,0
				c0.5,0,0.6,0.2,0.6,0.6c0,0.4,0,0.8,0,1.2V55z M23.8,48.1c0-0.2-0.1-0.3-0.3-0.3H22c-0.2,0-0.3,0.1-0.3,0.3v1
				c0,0.2,0.1,0.3,0.3,0.3h1.4c0.2,0,0.3-0.1,0.3-0.3V48.1z M21.7,52c0,0.2,0.1,0.3,0.3,0.3h1.4c0.2,0,0.3-0.1,0.3-0.3v-1
				c0-0.2-0.1-0.3-0.3-0.3H22c-0.2,0-0.3,0.1-0.3,0.3V52z M21.7,55c0,0.2,0.1,0.3,0.3,0.3h1.4c0.2,0,0.3-0.1,0.3-0.3v-1.2
				c0-0.2-0.1-0.3-0.3-0.3H22c-0.2,0-0.3,0.1-0.3,0.3V55z"></path>
			<path class="st0 svg-elem-13" d="M22,64.8c0,0.1-0.1,0.1-0.1,0.2c-0.5,0.5-1.1,1.7-1.4,2.4c0,0.1-0.1,0.1-0.1,0.2c0,0.2,0.2,0.2,0.7,0.3
				c0.2,0,0.6,0.2,0.8,0.3c0.1,0,0.1,0.1,0.2,0.1c0.2,0,0.2-0.1,0.3-0.3c0.1-0.4,0.2-0.9,0.2-1.3c0-0.1,0-0.1,0-0.2
				c0-0.1,0-0.2,0.2-0.2c0.1,0,1.1,0.2,1.2,0.2c0.1,0,0.2,0,0.2,0.2c0,0.1-0.1,0.2-0.2,0.3c0,0-0.1,0.2-0.1,0.3
				c-0.1,0.4-0.2,0.8-0.3,1.1c0,0.1,0,0.2,0,0.2c0,0.2,0.1,0.3,0.3,0.4c0.2,0.1,0.9,0.5,1.1,0.6c0.1,0,0.3,0.1,0.3,0.3
				c0,0.2-0.6,1.2-0.8,1.2c-0.1,0-0.3-0.2-0.4-0.3c-0.2-0.2-0.8-0.6-1-0.6c-0.1,0-0.2,0.1-0.3,0.2c-0.4,0.7-0.9,1.4-1.6,2
				c-0.1,0.1-0.7,0.6-0.9,0.6c-0.2,0-1-0.5-1-0.7c0-0.1,0.2-0.2,0.2-0.2c1.2-0.6,2.2-2.1,2.2-2.4c0-0.2-0.2-0.3-0.6-0.5
				c-0.2-0.1-0.9-0.3-1.2-0.3c-0.2,0-0.3,0.1-0.3,0.3c-0.2,0.5-0.7,1.4-1,1.8c-0.3,0.5-0.7,0.8-1.4,0.8c-0.9,0-1.4-0.7-1.4-1.5
				c0-1.3,1.2-2.2,2.3-2.5c0.2,0,0.5-0.1,0.7-0.1c0.2,0,0.3-0.1,0.4-0.3c0.3-0.5,0.5-1.1,0.8-1.6c0-0.1,0.1-0.1,0.1-0.2
				c0-0.1-0.1-0.1-0.1-0.1c0,0-1,0.4-1.4,0.5c-0.1,0-0.3,0.1-0.5,0.1c-0.4,0-0.7-1-0.7-1.1c0-0.2,0.2-0.2,0.4-0.2
				c0.7-0.1,2.2-0.5,2.8-0.8c0.1-0.1,0.2-0.1,0.4-0.1C21.2,63.8,22,64.5,22,64.8z M18.3,68.9c-0.3,0-1.3,0.6-1.3,1.3
				c0,0.2,0.1,0.4,0.3,0.4c0.4,0,0.7-0.6,0.9-0.9c0.1-0.1,0.3-0.6,0.3-0.6C18.4,68.9,18.4,68.9,18.3,68.9z"></path>
			<path class="st0 svg-elem-14" d="M23.8,82.2c0.8,0.8,1.2,1.8,1.2,3c0,1.7-0.9,3.1-2.3,3.9c-0.3,0.1-1,0.5-1.3,0.5c-0.3,0-0.8-0.7-0.8-1
				c0-0.1,0.2-0.1,0.3-0.2c1.6-0.4,2.8-1.4,2.8-3.1c0-1.3-0.7-2.4-1.9-2.9c-0.1,0-0.3-0.1-0.5-0.1c-0.3,0-0.3,0.3-0.3,0.5
				c-0.1,1.8-0.6,3.9-1.7,5.3c-0.4,0.5-0.9,0.9-1.6,0.9c-0.7,0-1.3-0.5-1.6-1.1c-0.3-0.5-0.4-1.1-0.4-1.7c0-2.8,2.1-5,5-5
				C21.9,81.1,23,81.4,23.8,82.2z M19.2,82.6C17.8,83.2,17,84.5,17,86c0,0.4,0.2,1.6,0.8,1.6c0.6,0,1.3-1.4,1.6-2.6
				c0.2-0.6,0.4-1.8,0.4-2.3c0-0.1-0.1-0.2-0.2-0.2C19.5,82.5,19.3,82.5,19.2,82.6z"></path>
			<path class="st0 svg-elem-15" d="M20.1,101c0,0-0.1,0.1-0.1,0.2s0,0.1,0.1,0.2c1.1,1,1.7,2.3,1.7,3.7c0,1.8-0.7,2.1-2.3,2.1
				c-0.7,0-0.9-0.1-0.9-0.9c0-0.2,0-0.4,0.2-0.4c0,0,0.1,0,0.2,0c0.2,0,0.4,0,0.7,0c0.7,0,1-0.1,1-1.1c0-0.1,0-0.2,0-0.2
				c0-0.1-0.1-0.2-0.2-0.2c-0.1,0-0.1,0-0.1,0c-1.1,0.9-2.4,1.5-3.7,2c-0.1,0-0.3,0.1-0.4,0.1c-0.3,0-0.6-0.5-0.6-0.7
				c0-0.2,0.2-0.2,0.4-0.3c1.4-0.5,2.9-1.2,4.1-2.1c0.1-0.1,0.1-0.1,0.1-0.3c0-0.1,0-0.2-0.1-0.3S20,103,19.9,103
				c-0.1,0-0.1,0-0.2,0.1c-1,0.8-2.1,1.4-3.2,1.8c-0.1,0-0.3,0.1-0.4,0.1c-0.2,0-0.5-0.5-0.5-0.7c0-0.2,0.2-0.2,0.3-0.3
				c1.1-0.4,2.3-1,3.3-1.6c0.1-0.1,0.1-0.1,0.1-0.2c0-0.1,0-0.1-0.1-0.2c0,0-0.1-0.1-0.2-0.1c0,0-0.1,0-0.1,0
				c-0.9,0.5-1.7,0.9-2.7,1.3c-0.1,0-0.3,0.1-0.4,0.1c-0.3,0-0.5-0.5-0.5-0.8c0-0.2,0.2-0.2,0.4-0.3c1-0.3,2-0.7,2.9-1.3
				c0,0,0.1,0,0.1-0.1c0-0.1-0.1-0.1-0.1-0.1h-0.2c-0.5,0-0.9,0-1.4,0c-0.3,0-0.3-0.2-0.3-0.4c0-0.2-0.1-0.2-0.3-0.2
				c-0.1,0-0.2,0-0.3,0c-0.5,0-0.7,0-0.7-0.3c0-0.2,0-0.3,0-0.5v-0.5c0-0.3,0-0.5,0-0.6c0-0.4,0.3-0.5,1-0.5c0.3,0,0.6,0,1.1,0h2
				c0.2,0,0.3-0.1,0.3-0.3c0-0.2,0-0.5,0-0.7c0,0,0-0.1,0-0.1c0-0.2,0.1-0.2,0.2-0.2c0.2,0,0.9,0.1,1.2,0.1c0.1,0,0.2,0,0.2,0.1
				c0,0.1-0.1,0.1-0.1,0.2c-0.1,0.1-0.1,0.3-0.1,0.6c0,0.2,0.1,0.3,0.3,0.3h2c0.4,0,0.8,0,1.3,0c0.3,0,0.7,0,0.7,0.5
				c0,0.1,0,0.4,0,0.6v0.5c0,0.2,0,0.3,0,0.5c0,0.3-0.2,0.3-0.7,0.3h-0.3c-0.2,0-0.3,0-0.3,0.2c0,0.2,0,0.4-0.3,0.4
				c-0.5,0-0.9,0-1.4,0h-0.3c-0.1,0-0.3,0-0.3,0.2c0,0,0,0.1,0,0.1c0.1,0.4,0.3,0.7,0.4,1c0.1,0.1,0.1,0.2,0.2,0.2
				c0.1,0,0.1,0,0.2-0.1c0.4-0.3,0.8-0.6,1.2-0.9c0.1-0.1,0.1-0.2,0.2-0.2c0.1,0,0.3,0.2,0.7,0.7c0.1,0.1,0.2,0.2,0.2,0.3
				c0,0.1,0,0.1-0.1,0.1c0,0-0.1,0-0.1,0c0,0-0.1,0-0.1,0c0,0-0.1,0-0.1,0c-0.4,0.3-0.8,0.6-1.3,0.9c-0.1,0.1-0.2,0.1-0.2,0.3
				c0,0.1,0,0.1,0.1,0.2c0.5,0.8,1.2,1.4,1.9,2c0.1,0.1,0.3,0.2,0.3,0.3c0,0.2-0.6,0.7-0.8,0.7c-0.3,0-1.3-1.1-1.5-1.3
				c-1.1-1.3-1.8-2.6-2.3-4.2c-0.1-0.2-0.1-0.3-0.3-0.3c-0.1,0-0.2,0-0.3,0.1L20.1,101z M24.2,99.2c0-0.2-0.1-0.3-0.3-0.3H17
				c-0.2,0-0.3,0.1-0.3,0.3v0.2c0,0.2,0.1,0.2,0.3,0.2c0.4,0,0.9,0,1.3,0h4.3c0.4,0,0.9,0,1.4,0c0.1,0,0.3,0,0.3-0.2V99.2z"></path>
		</g>
	</g>
	<polyline class="st1 svg-elem-16" points="30,1.5 57.5,1.5 57.5,97.5 	"></polyline>
	<polyline class="st1 svg-elem-17" points="30,193.5 2.5,193.5 2.5,97.5 	"></polyline>
	<g>
		<g>
			<path class="st0 svg-elem-18" d="M23.3,122.4c0.1,0,0.2,0,0.2-0.1c0.1-0.1,0.1-0.2,0.1-0.2c0,0,0.4,0.2,0.5,0.3c0.2,0.1,0.3,0.2,0.3,0.3
				c0,0.2-0.1,0.2-0.3,0.2c-0.5,0-0.6,0-0.8,0.2c0,0-0.2,0.2-0.2,0.2c0,0,0,0,0,0c0,0,0.2-0.4,0.2-0.5c0-0.1-0.1-0.1-0.2-0.1h-4
				c-0.2,0-0.2,0-0.2,0.2c0,0.3-0.3,0.7-0.5,0.7c-0.1,0-0.3-0.1-0.3-0.3c0-0.1,0-0.2,0.2-0.3c0.3-0.3,0.3-0.6,0.3-0.8c0,0,0,0,0,0
				s0.1,0.1,0.2,0.2c0.1,0.1,0.1,0.2,0.3,0.2h1.7c0.2,0,0.2,0,0.2-0.5c0-0.1,0-0.3,0-0.4c0,0-0.1-0.2-0.1-0.2c0,0,0-0.1,0.1-0.1
				c0,0,0.1,0,0.6,0.1c0.1,0,0.2,0,0.2,0.1c0,0.1,0,0.1-0.2,0.3c-0.1,0.1-0.1,0.1-0.1,0.4c0,0.2,0.1,0.2,0.2,0.2H23.3z M23.1,124.9
				c0.3,0,0.3,0,0.5-0.2c0.2-0.3,0.2-0.3,0.3-0.3c0,0,0.7,0.4,0.7,0.6c0,0.1-0.1,0.1-0.4,0.1h-2.3c-0.2,0-0.2,0.1-0.2,0.3v1.7
				c0,0.2,0,0.5-0.7,0.5c-0.1,0-0.1,0-0.2-0.1c-0.1-0.2-0.3-0.3-0.5-0.4c-0.1-0.1-0.1-0.1-0.1-0.1c0,0,0,0,0.1,0c0.1,0,0.4,0,0.5,0
				c0.3,0,0.4,0,0.4-0.3c0-0.2,0-1.1,0-1.3c0-0.1,0-0.2-0.2-0.2h-1.5c-0.6,0-0.8,0-0.9,0c0,0-0.1,0-0.1,0c0,0,0,0-0.1,0l-0.1-0.2
				c0,0,0,0,0,0s0,0,0,0c0,0,0.3,0,0.3,0c0.3,0,0.6,0,1,0h1.4c0.2,0,0.2-0.1,0.2-0.2c0-0.3,0-0.8,0-0.8c0-0.1-0.1-0.1-0.2-0.1h-0.4
				c-0.6,0-0.8,0-0.9,0c0,0-0.1,0-0.1,0c0,0,0,0-0.1,0l-0.1-0.2c0,0,0,0,0,0c0,0,0,0,0,0c0,0,0.3,0,0.3,0c0.3,0,0.6,0,1,0h1.6
				c0.3,0,0.3,0,0.4-0.1c0.2-0.3,0.2-0.3,0.3-0.3c0.1,0,0.5,0.4,0.5,0.5c0,0.1-0.1,0.1-0.4,0.1h-1.2c-0.1,0-0.2,0-0.2,0.2v0.8
				c0,0.1,0.1,0.1,0.2,0.1H23.1z"></path>
			<path class="st0 svg-elem-19" d="M19.6,134.6c-0.2,0-0.2,0-0.2,0.2c0,0.2-0.3,0.3-0.4,0.3c-0.2,0-0.2-0.1-0.2-0.3c0-0.2,0-1.1,0-1.3
				c0-0.5,0-0.6,0-1.1c0,0,0-0.1-0.1-0.1c0,0-0.6,0.2-0.7,0.2c0,0,0,0,0,0c0,0,0-0.1,0.3-0.2c1.1-0.6,1.6-1,1.6-1.1c0,0,0,0-0.1,0
				h-0.5c-0.2,0-0.5,0-0.8,0c0,0-0.2,0-0.2,0c0,0,0,0-0.1,0l-0.1-0.2c0,0,0,0,0,0c0,0,0,0,0,0c0,0,0.3,0,0.3,0c0.2,0,0.6,0,0.9,0
				c0.1,0,0.3,0,0.3-0.2v-0.6c0-0.2,0-0.2-0.2-0.2c-0.2,0-0.5,0-0.5,0c0,0-0.2,0-0.2,0c0,0,0,0-0.1,0l-0.1-0.2c0,0,0,0,0,0
				c0,0,0,0,0,0c0.1,0,0.8,0,0.9,0c0.2,0,0.2-0.1,0.2-0.2c0-0.1,0-0.2,0-0.3c0-0.1,0-0.4,0-0.4c0,0,0-0.1,0-0.1c0,0,0.7,0.1,0.7,0.2
				c0,0-0.1,0.1-0.1,0.2c-0.1,0.1-0.1,0.1-0.1,0.4c0,0.1,0,0.2,0.1,0.2c0.1,0,0.1-0.1,0.1-0.1c0.1-0.2,0.2-0.2,0.2-0.2
				c0,0,0.6,0.4,0.6,0.4c0,0.1-0.1,0.1-0.4,0.1h-0.4c-0.1,0-0.2,0-0.2,0.2v0.7c0,0.1,0,0.1,0.1,0.1c0.1,0,0.1,0,0.3-0.1
				c0.5-0.5,1-1.3,1-1.7c0-0.1,0-0.2,0.1-0.2c0,0,0.3,0.2,0.4,0.2c0.2,0.1,0.2,0.1,0.2,0.2c0,0.1,0,0.1-0.1,0.1s-0.6,0.7-0.7,0.8
				c-0.1,0.1-0.4,0.5-0.4,0.5c0,0,0.1,0,0.1,0h0.1c0.1,0,0.2,0,0.2-0.1c0-0.1,0.2-0.2,0.2-0.2c0.1,0,0.5,0.4,0.5,0.4
				c0,0.1,0,0.1-0.4,0.1h-1c-0.1,0-0.1,0-0.3,0.1c-0.3,0.3-0.7,0.6-1,0.7c-0.1,0.1-0.2,0.1-0.2,0.1c0,0.1,0.1,0.1,0.1,0.1h1.1
				c0.1,0,0.2,0,0.2-0.1C21,132,21,132,21.1,132c0.1,0,0.5,0.3,0.5,0.4c0,0.1,0,0.1-0.2,0.2c0,0,0,0.1,0,0.3c0,0.3,0,0.8,0,1.1
				c0,0.1,0,0.6,0,0.7c0,0.3-0.3,0.4-0.4,0.4c-0.2,0-0.2-0.2-0.2-0.2c0-0.2-0.1-0.2-0.2-0.2H19.6z M19.6,132.5
				c-0.2,0-0.2,0.1-0.2,0.3c0,0.5,0,0.6,0.2,0.6h1c0.2,0,0.2-0.1,0.2-0.3c0-0.5,0-0.6-0.2-0.6H19.6z M19.6,133.6
				c-0.2,0-0.2,0.1-0.2,0.4c0,0.4,0,0.5,0.2,0.5h1c0.2,0,0.2-0.1,0.2-0.6c0-0.2,0-0.3-0.2-0.3H19.6z M23.5,129.4
				c0.1,0,0.1,0,0.2-0.1c0.1-0.1,0.1-0.1,0.2-0.1c0.1,0,0.6,0.4,0.6,0.5c0,0,0,0,0,0.1c0,0-0.2,0.1-0.2,0.1
				c-0.1,0.1-0.9,1.4-0.9,1.5c0,0.1,0.2,0.2,0.3,0.3c0.7,0.7,0.9,1.2,0.9,1.8c0,0.7-0.3,0.9-0.4,1c-0.1,0-0.2,0.2-0.3,0.2
				c-0.1,0-0.1,0-0.2-0.2c-0.2-0.3-0.6-0.5-0.6-0.5c-0.1,0-0.1,0-0.1,0.1c0,0.1,0,0.5,0,0.7c0,0.2,0,0.3,0,0.4
				c0,0.1-0.2,0.2-0.3,0.2c-0.2,0-0.2-0.1-0.2-0.2c0-0.1,0-0.6,0-0.7c0-0.8,0-3.1,0-4c0-0.2,0-0.5,0-0.9c0,0,0-0.3,0-0.3
				c0,0,0-0.1,0-0.1c0,0,0.2,0.1,0.4,0.2c0.1,0,0.2,0.1,0.3,0.1H23.5z M23,129.6c-0.1,0-0.2,0.1-0.2,0.1c0,0.1,0,1.8,0,2
				c0,0.2,0,1.9,0,1.9c0,0.1,0.5,0.2,0.7,0.2c0.2,0,0.2,0,0.3-0.2c0.1-0.2,0.1-0.4,0.1-0.6c0-0.7-0.4-1.3-0.6-1.5
				c0,0-0.2-0.2-0.2-0.2c0,0,0.2-0.8,0.3-0.9c0-0.1,0.2-0.7,0.2-0.8c0-0.1-0.1-0.1-0.2-0.1H23z"></path>
			<path class="st0 svg-elem-20" d="M23.4,137.7c0,0,0.1,0,0.2-0.1c0,0,0.2-0.2,0.2-0.2c0,0,0.3,0.3,0.4,0.3c0.3,0.2,0.3,0.2,0.3,0.3
				c0,0.2-0.1,0.2-0.5,0.2c-0.1,0-0.2,0-0.5,0.1c-0.1,0.1-0.2,0.1-0.2,0.1c0,0,0,0,0,0c0,0,0.2-0.4,0.2-0.4c0-0.1-0.1-0.1-0.1-0.1
				h-4.2c-0.1,0-0.2,0-0.2,0.1c-0.1,0.7-0.4,0.7-0.5,0.7c-0.1,0-0.3-0.1-0.3-0.3c0-0.1,0-0.2,0.1-0.2c0.2-0.4,0.3-0.5,0.4-0.7
				c0,0,0.1-0.3,0.1-0.3c0,0,0.1,0.2,0.2,0.4c0,0.1,0.1,0.1,0.2,0.1h1.7c0.2,0,0.2-0.1,0.2-0.3c0-0.2,0-0.3,0-0.4
				c0,0-0.1-0.2-0.1-0.3c0,0,0.1-0.1,0.1-0.1c0.1,0,0.3,0,0.4,0c0.2,0,0.3,0,0.3,0.2c0,0,0,0.1-0.1,0.2c-0.1,0.1-0.1,0.1-0.1,0.3
				s0,0.3,0.2,0.3H23.4z M21.6,140c-0.2,0-0.2,0-0.3,0.2c-0.1,0.1-0.5,0.6-0.5,0.6s0.1,0.1,0.1,0.1h1.9c0.1,0,0.1,0,0.2-0.1
				c0,0,0.2-0.2,0.2-0.2c0,0,0.6,0.3,0.6,0.4c0,0.1,0,0.1-0.2,0.2c-0.1,0.1-0.1,0.1-0.1,0.5c0,0.1,0,0.8,0,0.9
				c0,0.2-0.1,0.3-0.3,0.3c-0.2,0-0.2-0.1-0.2-0.2c0-0.2-0.2-0.2-0.2-0.2h-3.1c-0.2,0-0.2,0-0.2,0.2c-0.1,0.3-0.4,0.3-0.4,0.3
				c-0.1,0-0.1-0.1-0.1-0.2s0-0.1,0-0.2c0-0.2,0-0.6,0-0.8c0-0.1,0-0.5,0-0.8c0,0,0-0.3,0-0.3c0,0,0-0.1,0.1-0.1
				c0.1,0,0.4,0.2,0.4,0.2c0.1,0,0.2,0,0.3,0h0.7c0.1,0,0.2,0,0.3-0.2c0.1-0.4,0.2-0.6,0.2-0.6c0-0.1-0.1-0.1-0.2-0.1h-0.4
				c-0.1,0-0.2,0-0.2,0.1c0,0.1-0.1,0.2-0.3,0.2c-0.2,0-0.2-0.1-0.2-0.2c0-0.1,0-0.4,0-0.5c0-0.1,0-0.7,0-0.9c0,0,0-0.3,0-0.3
				c0,0,0-0.1,0.1-0.1c0.1,0,0.1,0,0.3,0.1c0.1,0.1,0.2,0.1,0.3,0.1h2.3c0.1,0,0.2,0,0.2-0.1c0.1-0.1,0.1-0.1,0.2-0.1
				c0.1,0,0.4,0.3,0.4,0.3c0,0-0.2,0.1-0.2,0.2c0,0,0,0.3,0,0.4c0,0.1,0,0.6,0,0.7c0,0.3-0.3,0.3-0.3,0.3c-0.1,0-0.1-0.1-0.1-0.1
				c0-0.1,0-0.1-0.2-0.1H21.6z M22.8,142.3c0.1,0,0.1,0,0.2,0c0,0,0-0.1,0-0.5c0-0.1,0-0.5,0-0.6c0-0.1-0.1-0.1-0.2-0.1h-3.1
				c-0.1,0-0.1,0-0.2,0s0,0.1,0,0.5c0,0.1,0,0.5,0,0.6c0,0.1,0.1,0.1,0.2,0.1H22.8z M22.4,139.8c0.2,0,0.2-0.1,0.2-0.6
				c0-0.4,0-0.4-0.2-0.4h-2.1c-0.2,0-0.2,0.1-0.2,0.6c0,0.4,0,0.4,0.2,0.4H22.4z"></path>
			<path class="st0 svg-elem-21" d="M21.7,147.1c-0.2,0-0.2,0.1-0.2,0.4c0,0.7,0,1.4,0,2.1c0,0.1,0,0.6,0,0.7c0,0.2,0,0.2-0.2,0.3
				c-0.1,0-0.1,0-0.2,0c-0.2,0-0.2-0.1-0.2-0.2c0-0.3,0-0.3,0-0.7c0-0.6,0-1.8,0-2.4c0-0.1,0-0.2-0.2-0.2h-1.1
				c-0.2,0-0.2,0.1-0.2,0.3v2.4c0,0.2-0.2,0.3-0.4,0.3c-0.2,0-0.2-0.1-0.2-0.2c0-0.1,0-0.5,0-0.6c0-0.4,0-0.8,0-0.9
				c0-0.5,0-1.4,0-1.5c0,0,0-0.2,0-0.2s0-0.1,0.1-0.1s0.3,0.1,0.3,0.2c0.2,0.1,0.2,0.1,0.4,0.1h1.1c0.2,0,0.2-0.1,0.2-0.6
				c0-0.1,0-0.4,0-0.5c0-0.1-0.1-0.1-0.1-0.1h-1.5c-0.5,0-0.7,0-0.9,0c0,0-0.1,0-0.1,0c0,0,0,0-0.1,0l-0.1-0.2c0,0,0,0,0,0
				c0,0,0,0,0,0c0,0,0.3,0,0.3,0c0.3,0,0.6,0,1,0h1.4c0.2,0,0.2-0.1,0.2-0.2v-0.5c0-0.1,0-0.4,0-0.4c0,0,0,0,0.1,0
				c0.1,0,0.7,0.1,0.7,0.2c0,0-0.1,0.2-0.2,0.2c0,0.1,0,0.2,0,0.2c0,0.5,0,0.5,0.2,0.5h1.4c0.1,0,0.2,0,0.3-0.2
				c0.2-0.3,0.3-0.3,0.3-0.3c0.1,0,0.7,0.5,0.7,0.6c0,0.1-0.1,0.1-0.4,0.1h-2.5c-0.1,0-0.1,0-0.1,0c0,0,0,0,0.1,0.1
				c0.1,0.1,0.1,0.1,0.1,0.1c0,0-0.1,0.1-0.1,0.2c0,0.1,0,0.5,0,0.7c0,0.1,0,0.2,0.2,0.2h1.1c0.1,0,0.2,0,0.3-0.1
				c0.2-0.2,0.2-0.2,0.2-0.2c0.1,0,0.6,0.4,0.6,0.5c0,0.1,0,0.1-0.2,0.2c-0.1,0.1-0.1,0.2-0.1,0.4s0,1.4,0,1.6c0,0.4,0,0.5-0.2,0.6
				c-0.1,0.1-0.3,0.2-0.4,0.2c-0.1,0-0.1,0-0.2-0.2c-0.1-0.2-0.2-0.2-0.7-0.4c-0.1,0-0.2-0.1-0.2-0.1c0,0,0,0,0.1,0
				c0,0,0.7,0.1,0.8,0.1c0.1,0,0.2,0,0.3-0.2c0-0.1,0-1.1,0-1.3c0-0.8,0-0.9-0.2-0.9H21.7z"></path>
			<path class="st0 svg-elem-22" d="M24.4,152.2c-0.3,0.3-5.5,5.5-5.9,5.9c0,0-0.2,0.2-0.2,0.2c0,0-0.1,0-0.1-0.1c0,0,0-0.1,0-0.1
				c0.3-0.3,5.5-5.5,6-5.9c0,0,0.2-0.2,0.2-0.2S24.4,152.1,24.4,152.2C24.4,152.1,24.4,152.2,24.4,152.2z"></path>
			<path class="st0 svg-elem-23" d="M19.9,167.7c0-0.1-0.3-0.9-0.3-1c0-0.1,0.1-0.1,0.2-0.1c0.1,0,0.1,0,0.3,0.3c0.3,0.5,0.9,1,1.6,1
				c0.5,0,1-0.3,1-1.1c0-0.6-0.4-0.9-1.3-1.2c-1-0.3-1.6-0.7-1.6-1.5c0-0.7,0.5-1.4,1.4-1.4c0.1,0,0.3,0,0.5,0.1
				c0.1,0,0.4,0.1,0.4,0.1c0.1,0,0.1,0,0.2,0c0.1-0.1,0.1-0.1,0.2-0.1c0.1,0,0.1,0.1,0.2,0.2c0,0.1,0.4,0.9,0.4,1
				c0,0.1-0.1,0.1-0.1,0.1c-0.1,0-0.1,0-0.2-0.2c-0.2-0.3-0.6-0.9-1.4-0.9c-0.8,0-1,0.6-1,0.9c0,0.6,0.4,0.8,1.3,1.1
				c1.4,0.5,1.6,1.1,1.6,1.6c0,0.9-0.7,1.5-1.5,1.5c-0.3,0-0.5-0.1-0.7-0.1c-0.2-0.1-0.2-0.1-0.3-0.1c-0.1,0-0.2,0-0.3,0.1
				c-0.1,0.1-0.1,0.1-0.2,0.1C20,168.1,20,168.1,19.9,167.7z"></path>
			<path class="st0 svg-elem-24" d="M20.7,172.1c-0.1,0-0.2,0-0.2,0.1c0,0.1,0.2,0.9,0.3,1.3c0.1,0.2,0.3,0.6,0.4,0.6c0.1,0,0.1,0,0.3-0.3
				c0,0,0.1-0.1,0.1,0c0,0-0.1,0.5-0.1,0.6s0,0.2,0.1,0.3c0.1,0.1,0.1,0.2,0.1,0.3c0,0.1-0.1,0.2-0.2,0.2c-0.3,0-0.7-0.6-0.9-1.1
				c0-0.1-0.1-0.1-0.1-0.1c-0.1,0-0.1,0-0.2,0.1c-0.2,0.1-1.4,0.8-1.5,0.9c0,0-0.1,0.2-0.1,0.2c0,0-0.5-0.6-0.5-0.7c0,0,0,0,0,0
				c0,0,0.2,0,0.2,0c0.1,0,0.4,0,0.4-0.2c0-0.1,0-2.1,0-2.4c0-0.2,0-1.4,0-1.5c0,0,0-0.2,0-0.2c0,0,0,0,0,0c0.1,0,0.5,0.2,0.6,0.2
				c0,0,1.2-0.3,1.3-0.6c0.1-0.2,0.1-0.2,0.1-0.2c0,0,0.3,0.2,0.4,0.3c0.2,0.1,0.2,0.2,0.2,0.2c0,0.1-0.1,0.1-0.6,0.2
				c-0.3,0.1-0.4,0.1-0.4,0.2c0,0.1,0,0.5,0,0.9c0,0.5,0,0.6,0.2,0.6c0.2,0,0.2,0,0.3-0.1c0.1-0.1,0.2-0.3,0.3-0.3
				c0.1,0,0.5,0.5,0.5,0.5c0,0.1,0,0.1-0.4,0.1H20.7z M20,175.2c0.3,0,0.3,0,0.4-0.1c0.2-0.3,0.2-0.3,0.2-0.3c0,0,0.1,0,0.5,0.4
				c0,0,0,0,0,0.1c0,0.1-0.1,0.1-0.3,0.1h-1.1c-0.5,0-0.7,0-0.8,0c0,0-0.1,0-0.1,0c0,0,0,0-0.1,0l-0.1-0.2c0,0,0,0,0,0c0,0,0,0,0,0
				c0,0,0.2,0,0.3,0c0.3,0,0.5,0,0.8,0H20z M19.4,172.1c-0.1,0-0.2,0-0.2,0.1c0,0.1,0,1.6,0,1.7s0,0.2,0.1,0.2
				c0.2,0,0.8-0.3,0.9-0.3c0.2-0.1,0.3-0.1,0.3-0.2c0,0-0.1-0.4-0.1-0.4c0-0.2-0.2-1-0.2-1c0-0.1-0.1-0.1-0.2-0.1H19.4z M19.8,171.9
				c0.1,0,0.2,0,0.2-0.2c0,0,0-0.1,0-0.4c0-0.2,0-0.5,0-0.7c0-0.3,0-0.3-0.1-0.3c0,0-0.3,0-0.3,0c-0.2,0-0.3,0-0.3,0.1
				c0,0.1,0,0.9,0,1.2c0,0.1,0,0.2,0.2,0.2H19.8z M23.4,169.9c0.1,0,0.1,0,0.2-0.1c0-0.1,0.1-0.1,0.1-0.1c0.1,0,0.6,0.3,0.6,0.4
				c0,0.1-0.1,0.1-0.1,0.1c-0.1,0-0.1,0.1-0.1,0.1c-0.2,0.4-0.5,0.8-0.8,1.2c0,0.1-0.3,0.4-0.3,0.4c0,0,0.1,0.1,0.3,0.2
				c0.3,0.2,1.2,0.8,1.2,1.8c0,0.5-0.3,0.8-0.5,1c-0.2,0.1-0.5,0.2-0.6,0.2c0,0-0.1,0-0.1-0.1c-0.1-0.1-0.1-0.2-0.2-0.3
				c0,0-0.3-0.2-0.3-0.3c0,0,0.1,0,0.1,0c0.1,0,0.5,0,0.5,0c0.5,0,0.6-0.4,0.6-0.7c0-0.6-0.3-1.2-0.8-1.6c-0.2-0.1-0.2-0.2-0.2-0.2
				c0-0.1,0.2-0.3,0.2-0.4c0-0.1,0.4-1.3,0.4-1.4c0-0.1-0.1-0.1-0.1-0.1h-0.7c-0.1,0-0.2,0-0.2,0.1c0,0.1,0,1,0,1.1
				c0,1.1,0,2.8,0.1,3.8c0,0,0,0.3,0,0.4c0,0.2-0.2,0.3-0.4,0.3c-0.1,0-0.2,0-0.2-0.2c0,0,0-0.3,0-0.3c0-0.2,0-4.6,0-5
				c0-0.1,0-0.2,0-0.3c0-0.1,0-0.1,0-0.2c0,0,0-0.1,0.1-0.1c0,0,0.3,0.1,0.4,0.1c0.1,0,0.2,0,0.3,0H23.4z"></path>
		</g>
	</g>
</g>
</svg>
