<?xml version="1.0" encoding="utf-8"?>
<!-- Generator: Adobe Illustrator 25.2.1, SVG Export Plug-In . SVG Version: 6.00 Build 0)  -->
<svg version="1.1" id="レイヤー_1" xmlns="http://www.w3.org/2000/svg" xmlns:xlink="http://www.w3.org/1999/xlink" x="0px"
	 y="0px" width="30px" height="30px" viewBox="0 0 30 30" style="enable-background:new 0 0 30 30;" xml:space="preserve">
<style type="text/css">
	.st0{fill:#231815;}
</style>
<g>
	<g>
		<polygon class="st0" points="17.4,7 17.4,7 17.5,7 17.5,7 28.6,7 28.6,1.4 17.4,1.4 		"/>
		<polygon class="st0" points="12.6,7 12.6,7 12.6,7 12.6,7 12.6,1.4 1.4,1.4 1.4,7 		"/>
		<polygon class="st0" points="28.6,18.1 28.6,11.8 22.2,11.8 		"/>
		<polygon class="st0" points="7.8,11.8 1.4,11.8 1.4,18.2 		"/>
		<polygon class="st0" points="12.6,13.7 1.4,24.9 1.4,28.6 12.6,28.6 		"/>
		<polygon class="st0" points="17.4,13.7 17.4,28.6 28.6,28.6 28.6,24.9 		"/>
	</g>
</g>
</svg>
